<svg width="120" height="43" viewBox="0 0 120 43" fill="none" xmlns="http://www.w3.org/2000/svg">
<rect x="1.5" y="1.5" width="117" height="40" rx="6.5" fill="white"/>
<rect x="1.5" y="1.5" width="117" height="40" rx="6.5" stroke="#8A50A0" stroke-width="3"/>
<path d="M17.1992 16.7008C17.1992 15.377 18.2755 14.3008 19.5992 14.3008H29.1992C30.523 14.3008 31.5992 15.377 31.5992 16.7008V26.3008C31.5992 27.6245 30.523 28.7008 29.1992 28.7008H19.5992C18.2755 28.7008 17.1992 27.6245 17.1992 26.3008V16.7008ZM38.1655 15.6433C38.5555 15.8533 38.7992 16.2583 38.7992 16.7008V26.3008C38.7992 26.7433 38.5555 27.1483 38.1655 27.3583C37.7755 27.5683 37.303 27.5458 36.9317 27.2983L33.3317 24.8983L32.7992 24.542V23.9008V19.1008V18.4595L33.3317 18.1033L36.9317 15.7033C37.2992 15.4595 37.7717 15.4333 38.1655 15.6433Z" fill="#8A50A0"/>
<path d="M48 11.0335H55.7832C56.9967 11.0335 58.0637 11.2114 58.9843 11.567C59.9049 11.9018 60.6686 12.3726 61.2753 12.9793C61.903 13.5651 62.3633 14.2556 62.6562 15.0506C62.97 15.8457 63.127 16.6931 63.127 17.5927C63.127 18.9527 62.8236 20.1453 62.2168 21.1705C61.631 22.1748 60.7941 22.9803 59.7061 23.587L64.3509 31.9665H59.1412L55.2496 24.2775H52.6134V31.9665H48V11.0335ZM55.5321 20.48C56.4108 20.48 57.1013 20.2185 57.6034 19.6954C58.1056 19.1724 58.3566 18.5133 58.3566 17.7183C58.3566 16.8604 58.1056 16.1805 57.6034 15.6783C57.1013 15.1762 56.4108 14.9251 55.5321 14.9251H52.6134V20.48H55.5321Z" fill="#8A50A0"/>
<path d="M67.0632 11.0335H81.3742V15.1762H71.8021V19.2561H79.2401V23.2732H71.8021V27.7924H82.0646V31.9665H67.0632V11.0335Z" fill="#8A50A0"/>
<path d="M103.119 28.1063C102.68 28.713 102.146 29.2884 101.519 29.8324C100.891 30.3554 100.19 30.8157 99.4159 31.2133C98.6627 31.6108 97.8362 31.9246 96.9366 32.1548C96.0578 32.3849 95.1372 32.5 94.1748 32.5C92.5847 32.5 91.1306 32.228 89.8125 31.684C88.4943 31.14 87.3541 30.3868 86.3916 29.4244C85.4501 28.441 84.7178 27.2903 84.1948 25.9722C83.6717 24.6331 83.4102 23.1686 83.4102 21.5785C83.4102 20.0302 83.6717 18.5865 84.1948 17.2475C84.7178 15.8875 85.4501 14.7159 86.3916 13.7325C87.3541 12.7282 88.4943 11.9437 89.8125 11.3787C91.1515 10.7929 92.6265 10.5 94.2376 10.5C96.1834 10.5 97.8781 10.8557 99.3217 11.567C100.786 12.2784 102 13.3036 102.962 14.6427L99.7297 17.7496C99.102 16.8709 98.3593 16.17 97.5015 15.6469C96.6436 15.1029 95.6185 14.831 94.4259 14.831C93.4844 14.831 92.637 15.0088 91.8838 15.3645C91.1306 15.6992 90.4924 16.17 89.9694 16.7767C89.4463 17.3835 89.0383 18.0949 88.7454 18.9108C88.4734 19.7059 88.3374 20.5533 88.3374 21.4529C88.3374 22.3735 88.4734 23.2313 88.7454 24.0264C89.0383 24.8214 89.4463 25.5119 89.9694 26.0977C90.4924 26.6835 91.1201 27.1438 91.8524 27.4786C92.5847 27.8134 93.4111 27.9807 94.3317 27.9807C95.0849 27.9807 95.7335 27.9075 96.2775 27.7611C96.8424 27.5937 97.3341 27.3844 97.7525 27.1334C98.1919 26.8614 98.579 26.558 98.9137 26.2233C99.2485 25.8676 99.5728 25.5119 99.8866 25.1562L103.119 28.1063Z" fill="#8A50A0"/>
</svg>
