<svg width="65" height="19" viewBox="0 0 65 19" fill="none" xmlns="http://www.w3.org/2000/svg">
<g clip-path="url(#clip0_23872_4547)">
<path d="M13.6878 1.90127C12.8573 0.954663 11.356 0.548828 9.43545 0.548828H3.86141C3.67138 0.548799 3.48757 0.616579 3.34305 0.739977C3.19853 0.863375 3.10279 1.03429 3.07304 1.22198L0.752117 15.9419C0.705984 16.2321 0.930746 16.495 1.22494 16.495H4.66616L5.5304 11.0133L5.50358 11.1849C5.56515 10.7974 5.89654 10.5116 6.28896 10.5116H7.92422C11.1367 10.5116 13.6521 9.20683 14.3869 5.43225C14.4087 5.32062 14.4276 5.21196 14.4439 5.10581C14.3512 5.0567 14.3512 5.0567 14.4439 5.10581C14.6627 3.71069 14.4424 2.76104 13.6878 1.90127Z" fill="#27346A"/>
<path d="M6.84714 4.60324C6.9412 4.55837 7.04411 4.53515 7.14832 4.53529H11.5183C12.0357 4.53529 12.5184 4.56897 12.9595 4.63995C13.0829 4.65965 13.2057 4.68314 13.3276 4.7104C13.5005 4.74856 13.6714 4.79524 13.8396 4.85029C14.0564 4.92271 14.2584 5.00705 14.444 5.10581C14.6627 3.71015 14.4424 2.76104 13.6878 1.90127C12.8568 0.954663 11.356 0.548828 9.43545 0.548828H3.86093C3.46845 0.548828 3.13455 0.834563 3.07304 1.22198L0.752117 15.9413C0.705984 16.2321 0.930746 16.4946 1.22447 16.4946H4.66616L6.45919 5.12417C6.47683 5.01241 6.52136 4.90661 6.58894 4.81587C6.65652 4.72513 6.74513 4.65216 6.84714 4.60324Z" fill="#27346A"/>
<path d="M14.3855 5.43191C13.6507 9.20595 11.1354 10.5113 7.92286 10.5113H6.28712C5.8947 10.5113 5.56325 10.7971 5.50228 11.1846L4.4271 18.0004C4.38693 18.2545 4.58338 18.4847 4.84039 18.4847H7.74125C7.90742 18.4846 8.06812 18.4253 8.19446 18.3173C8.32079 18.2094 8.40446 18.0599 8.43043 17.8958L8.45868 17.748L9.00542 14.2829L9.04065 14.0914C9.06661 13.9273 9.15028 13.7778 9.2766 13.6699C9.40292 13.5619 9.56361 13.5026 9.72977 13.5025H10.1639C12.974 13.5025 15.1744 12.3609 15.8173 9.05915C16.0857 7.67935 15.9469 6.52735 15.2369 5.71818C15.0215 5.4731 14.7541 5.27069 14.4426 5.10547C14.4257 5.21216 14.4074 5.32028 14.3855 5.43191Z" fill="#2790C3"/>
<path d="M13.6748 4.79914C13.5602 4.76569 13.4446 4.73607 13.328 4.71033C13.206 4.6835 13.0832 4.66017 12.9598 4.64036C12.5183 4.56889 12.036 4.53516 11.5181 4.53516H7.14864C7.04437 4.53498 6.94141 4.55839 6.84747 4.60364C6.74532 4.65239 6.65659 4.7253 6.58898 4.81608C6.52137 4.90685 6.47691 5.01274 6.45946 5.12457L5.53073 11.0132L5.50391 11.1848C5.565 10.7974 5.89639 10.5116 6.28887 10.5116H7.92461C11.1371 10.5116 13.6524 9.20675 14.3872 5.43218C14.4091 5.32054 14.4274 5.21236 14.4443 5.10573C14.2583 5.00759 14.0568 4.92257 13.8399 4.85069C13.7852 4.83255 13.7302 4.81536 13.6748 4.79914" fill="#1F264F"/>
</g>
<path d="M56.696 6.58236H56.6599C55.6068 6.58236 54.6607 7.03944 54.0077 7.76465L54.005 7.76743C53.2913 8.50636 52.8928 9.49373 52.8935 10.521V10.5585V10.5571C52.8917 10.5988 52.8907 10.6442 52.8907 10.6933C52.8907 11.4394 53.1811 12.1187 53.6535 12.623L53.6521 12.6216C53.9207 12.8835 54.2405 13.087 54.5914 13.2195C54.9424 13.3519 55.3169 13.4104 55.6916 13.3913H55.6846C56.1528 13.3858 56.5974 13.2899 57.0031 13.1176L56.9808 13.126C57.3907 12.9718 57.738 12.7314 58.0117 12.4258L58.0145 12.423C58.0006 12.5008 57.9848 12.5707 57.9672 12.6328L57.97 12.6189C57.9469 12.7043 57.932 12.7918 57.9256 12.8801V12.8828C57.9256 13.1162 58.021 13.2334 58.2118 13.2343H59.7275C59.7867 13.2396 59.8463 13.233 59.9029 13.2149C59.9595 13.1968 60.0119 13.1675 60.057 13.1287C60.102 13.09 60.1389 13.0426 60.1653 12.9894C60.1918 12.9362 60.2073 12.8782 60.211 12.8189V12.8175L61.1112 7.0839C61.1196 7.04064 61.1181 6.99604 61.1068 6.95345C61.0955 6.91086 61.0747 6.87139 61.0459 6.83799C61.0205 6.80404 60.9876 6.77637 60.9498 6.7571C60.912 6.73784 60.8702 6.72749 60.8278 6.72685H59.1565C58.9523 6.72685 58.823 6.96997 58.7814 7.45206C58.5367 7.13839 58.2151 6.89332 57.8477 6.74069C57.4804 6.58805 57.0798 6.53303 56.6849 6.58097L56.696 6.57958V6.58236ZM63.0896 3.50645L63.0674 3.50506C63.001 3.50482 62.9371 3.52956 62.8881 3.57435C62.8392 3.61915 62.809 3.68071 62.8034 3.7468L61.3752 12.887C61.3635 12.931 61.3633 12.9773 61.3748 13.0213C61.3862 13.0654 61.4088 13.1057 61.4405 13.1385C61.4667 13.1696 61.4995 13.1945 61.5365 13.2116C61.5735 13.2286 61.6137 13.2373 61.6544 13.2371H63.1132L63.1577 13.2399C63.2682 13.2399 63.3742 13.196 63.4524 13.1178C63.5305 13.0396 63.5745 12.9336 63.5745 12.8231V12.8203L64.9999 3.83849L65.0013 3.80792C65.0015 3.72866 64.9756 3.65152 64.9276 3.58841V3.5898C64.8766 3.53694 64.8066 3.50647 64.7331 3.50506L64.7123 3.50645H63.0896ZM46.8764 3.50645C46.8169 3.49907 46.7564 3.50421 46.699 3.52156C46.6415 3.53891 46.5883 3.56808 46.5428 3.60719C46.4973 3.6463 46.4604 3.6945 46.4346 3.74869C46.4088 3.80287 46.3946 3.86185 46.393 3.92185L44.9662 12.8856C44.9584 12.9282 44.9603 12.972 44.9716 13.0138C44.9828 13.0557 45.0033 13.0944 45.0315 13.1274C45.056 13.1619 45.0885 13.1901 45.1262 13.2094C45.164 13.2288 45.2058 13.2387 45.2482 13.2385H47.0612C47.1428 13.2392 47.222 13.2112 47.285 13.1594C47.348 13.1076 47.3908 13.0353 47.4058 12.9551V12.9523L47.8017 10.4043C47.8071 10.349 47.8235 10.2952 47.85 10.2463C47.8765 10.1974 47.9125 10.1543 47.9559 10.1195C48.0513 10.0438 48.1662 9.99444 48.2866 9.97642H48.2908C48.4033 9.95558 48.5325 9.94447 48.6645 9.94308C48.7812 9.94308 48.9215 9.95049 49.0827 9.96531C49.2588 9.98585 49.4361 9.99513 49.6134 9.99309C50.6313 9.99475 51.6121 9.61107 52.3586 8.91916L52.3559 8.92194C52.7281 8.52716 53.0156 8.06031 53.2005 7.55017C53.3855 7.04003 53.464 6.49742 53.4312 5.95578V5.9669C53.4611 5.60871 53.3997 5.24878 53.2527 4.92078C53.1057 4.59278 52.8779 4.3074 52.5906 4.09134L52.5851 4.08717C51.9221 3.66795 51.1455 3.46457 50.3622 3.50506H50.3705L46.8764 3.50645ZM56.6043 11.613L56.5376 11.6144C56.1827 11.6147 55.8391 11.4892 55.5679 11.2601L55.5707 11.2615C55.4462 11.1453 55.3467 11.0049 55.2784 10.8489C55.21 10.6929 55.1743 10.5246 55.1734 10.3543L55.1747 10.2918V10.2543C55.1747 9.73468 55.3845 9.26371 55.7249 8.92194C56.0597 8.57878 56.5265 8.36622 57.0434 8.36622H57.0892H57.0864L57.1337 8.36483C57.5074 8.36483 57.8478 8.50237 58.1089 8.72883L58.1076 8.72744C58.2364 8.84704 58.3391 8.99193 58.4094 9.15305C58.4797 9.31417 58.516 9.48805 58.516 9.66383L58.5146 9.73051V9.72774V9.76108C58.5146 10.2737 58.3021 10.7378 57.9589 11.067C57.7856 11.2398 57.58 11.3767 57.3537 11.4699C57.1275 11.5631 56.8851 11.6108 56.6405 11.6102H56.6057L56.6043 11.613ZM48.1685 8.05641L48.5422 5.7071C48.5452 5.67251 48.555 5.63885 48.571 5.60804C48.587 5.57723 48.6089 5.54988 48.6355 5.52756C48.662 5.50523 48.6928 5.48837 48.7259 5.47793C48.759 5.4675 48.7938 5.4637 48.8284 5.46675H49.223L49.3077 5.46536C49.5485 5.46536 49.7852 5.48157 50.0177 5.51399L49.9913 5.51121C50.2066 5.55011 50.3942 5.64736 50.5414 5.78629C50.626 5.86509 50.6933 5.96062 50.739 6.06681C50.7846 6.173 50.8077 6.28754 50.8068 6.40314L50.8054 6.45593V6.45315C50.8348 6.68527 50.8063 6.92106 50.7225 7.13949C50.6386 7.35791 50.5019 7.55217 50.3247 7.70491L50.3233 7.7063C49.8806 7.95888 49.373 8.07489 48.8645 8.03973H48.8729L48.1713 8.06196L48.1685 8.05641Z" fill="#2790C3"/>
<path d="M37.2765 6.73629C37.2384 6.73639 37.2008 6.74521 37.1666 6.76206C37.1324 6.77892 37.1025 6.80337 37.0792 6.83354C37.0245 6.88927 36.9932 6.96384 36.9917 7.04194C36.9917 7.07111 37.1278 7.48651 37.4196 8.33815L38.3435 11.039C38.6723 12.0022 38.8441 12.5144 38.8589 12.5755C38.2123 13.3765 37.6275 14.2255 37.1098 15.1152L37.057 15.2124L37.0542 15.2471C37.0542 15.3861 37.1667 15.5 37.3071 15.5L37.3446 15.4972H37.3432H39.0353C39.1141 15.4961 39.1913 15.4753 39.26 15.4367C39.3287 15.3981 39.3866 15.343 39.4285 15.2763L39.4299 15.2749L45.0316 7.19059C45.0612 7.15191 45.0773 7.10456 45.0774 7.05583L45.076 7.03499V7.03638C45.0746 6.95828 45.0432 6.88371 44.9885 6.82798C44.9653 6.79799 44.9357 6.77366 44.9017 6.75681C44.8678 6.73996 44.8305 6.73104 44.7926 6.73073H43.099C43.0201 6.73162 42.9425 6.75231 42.8736 6.7909C42.8047 6.82949 42.7465 6.88475 42.7045 6.95163L42.7031 6.95302L40.3691 10.379L39.4035 7.08361C39.3787 6.9832 39.3211 6.89393 39.2398 6.83C39.1585 6.76607 39.0582 6.73113 38.9548 6.73073L38.9186 6.73212H38.92L37.2765 6.73629ZM31.7401 6.58208H31.7012C30.6495 6.58208 29.7034 7.03916 29.0532 7.76437L29.0504 7.76715C28.3368 8.50608 27.9382 9.49345 27.939 10.5207V10.5583V10.5569C27.9203 10.9345 27.9781 11.3121 28.1089 11.6668C28.2397 12.0216 28.4409 12.3463 28.7003 12.6214L28.6989 12.62C29.1908 13.0979 29.8632 13.3924 30.6051 13.3924L30.7384 13.3897H30.7315C31.1927 13.3827 31.6304 13.2868 32.0291 13.116L32.0069 13.1243C32.4223 12.9659 32.7752 12.727 33.06 12.4227L33.0614 12.4213C33.0099 12.5575 32.978 12.7158 32.9738 12.8798V12.8826C32.9748 13.116 33.0701 13.2331 33.26 13.2341H34.7744C34.8335 13.2394 34.8932 13.2328 34.9498 13.2146C35.0064 13.1965 35.0588 13.1672 35.1038 13.1285C35.1489 13.0897 35.1858 13.0424 35.2122 12.9892C35.2387 12.9359 35.2542 12.878 35.2578 12.8187V12.8173L36.1595 7.08361C36.1673 7.04068 36.1653 6.99655 36.1538 6.95448C36.1422 6.9124 36.1214 6.87345 36.0928 6.84049C36.0674 6.80653 36.0345 6.77886 35.9966 6.7596C35.9588 6.74033 35.9171 6.72998 35.8747 6.72934H34.2034C33.9991 6.72934 33.8699 6.97247 33.8296 7.45456C33.5824 7.14349 33.2602 6.90026 32.8933 6.74767C32.5264 6.59507 32.1267 6.53809 31.7318 6.58208L31.7429 6.58069L31.7401 6.58208ZM21.8941 3.50616C21.836 3.49993 21.7773 3.50599 21.7216 3.52395C21.666 3.54191 21.6148 3.57136 21.5713 3.61041C21.5278 3.64945 21.493 3.69721 21.4691 3.75057C21.4453 3.80394 21.433 3.86173 21.4329 3.92018V3.92295L20.0047 12.8867C19.997 12.9293 19.9988 12.9731 20.0101 13.015C20.0214 13.0568 20.0419 13.0955 20.07 13.1285C20.0945 13.163 20.1271 13.1912 20.1648 13.2105C20.2025 13.2299 20.2443 13.2398 20.2867 13.2396H21.9594C22.019 13.247 22.0795 13.2418 22.1369 13.2245C22.1944 13.2071 22.2476 13.178 22.2931 13.1389C22.3386 13.0997 22.3754 13.0516 22.4012 12.9974C22.4271 12.9432 22.4412 12.8842 22.4429 12.8242L22.8389 10.4082C22.8441 10.353 22.8603 10.2993 22.8866 10.2504C22.9128 10.2015 22.9485 10.1583 22.9917 10.1234C23.087 10.0477 23.202 9.99833 23.3223 9.98031H23.3265C23.4495 9.95876 23.574 9.9476 23.6988 9.94696H23.7002C23.8169 9.94696 23.9559 9.95437 24.117 9.96919C24.2927 9.98968 24.4695 9.99896 24.6464 9.99698C25.7064 9.99698 26.6706 9.58991 27.393 8.92305L27.3902 8.92583C27.7625 8.53104 28.05 8.06419 28.2349 7.55405C28.4198 7.04392 28.4983 6.5013 28.4655 5.95967V5.97078C28.4954 5.61259 28.434 5.25267 28.287 4.92467C28.14 4.59666 27.9123 4.31129 27.625 4.09523L27.6195 4.09106C26.9594 3.6733 26.1865 3.46951 25.4063 3.50755H25.4146L21.8941 3.50616ZM31.6262 11.6127L31.5567 11.6141C31.1927 11.6141 30.8579 11.4808 30.6023 11.2599L30.6037 11.2612C30.4815 11.1444 30.3843 11.004 30.3179 10.8486C30.2515 10.6931 30.2174 10.5258 30.2175 10.3568L30.2188 10.2915V10.254C30.2188 9.7344 30.4286 9.26343 30.769 8.92166C31.1038 8.5785 31.5692 8.36594 32.0861 8.36594H32.1347H32.1319L32.1791 8.36455C32.5529 8.36455 32.8932 8.50209 33.1544 8.72855L33.153 8.72716C33.2814 8.84673 33.3838 8.99144 33.4539 9.1523C33.5239 9.31316 33.5601 9.48672 33.5601 9.66216L33.5587 9.73023V9.72745V9.77608C33.5587 10.2887 33.3462 10.75 33.003 11.0792C32.6472 11.4224 32.1719 11.6138 31.6776 11.6127H31.6262ZM23.1904 8.05612L23.5641 5.70682C23.5671 5.67223 23.5768 5.63857 23.5928 5.60776C23.6088 5.57695 23.6307 5.5496 23.6573 5.52727C23.6839 5.50495 23.7146 5.48808 23.7477 5.47765C23.7809 5.46722 23.8157 5.46342 23.8503 5.46647H24.2657C24.7105 5.43423 25.1556 5.52356 25.5536 5.72488L25.5397 5.71793C25.8027 5.88743 25.8907 6.24216 25.8036 6.78214C25.7974 6.98348 25.7426 7.18034 25.6439 7.35596C25.5452 7.53157 25.4056 7.68074 25.2368 7.79077L25.2326 7.79355C24.5745 8.03728 23.8691 8.12663 23.1709 8.05474L23.1904 8.05612Z" fill="#27346A"/>
<defs>
<clipPath id="clip0_23872_4547">
<rect width="15.2583" height="18" fill="white" transform="translate(0.742188 0.5)"/>
</clipPath>
</defs>
</svg>
