<svg xmlns="http://www.w3.org/2000/svg" xmlns:xlink="http://www.w3.org/1999/xlink" width="208" height="132" viewBox="0 0 208 132">
  <defs>
    <clipPath id="clip-path">
      <rect id="Rectangle_22156" data-name="Rectangle 22156" width="208" height="132" fill="#fff" stroke="#707070" stroke-width="1"/>
    </clipPath>
  </defs>
  <g id="Mask_Group_164" data-name="Mask Group 164" clip-path="url(#clip-path)">
    <g id="stop-icon" transform="translate(3.117 0)">
      <g id="Group_50012" data-name="Group 50012">
        <path id="Path_80575" data-name="Path 80575" d="M196.678,135.458c-5.643,3.087-5.219,3.841-11.339,3.472l-152.97-3.38C15.132,124.419,4.339,94.873,35.486,74.135c15.589-10.377,5.558-43.04,26.289-55.2,25.951-15.219,41.439,11.386,80.531-1.008,35.288-11.178,49.3,14.888,51.793,23.4,1.27,4.334,1.594,8.953,2.7,13.349,3.056,12.117,15.52,20.87,18.668,32.956C219.326,102.387,212.213,126.959,196.678,135.458Z" transform="translate(-15.671 -14.082)" fill="#e5eded"/>
      </g>
      <g id="Group_50013" data-name="Group 50013" transform="translate(13.848 114.279)">
        <ellipse id="Ellipse_5752" data-name="Ellipse 5752" cx="86.204" cy="8.707" rx="86.204" ry="8.707" fill="#8fb9c7"/>
      </g>
      <g id="Group_50014" data-name="Group 50014" transform="translate(115.901 20.137)">
        <path id="Path_80576" data-name="Path 80576" d="M167.707,91.123c-.015,0-.023-.008-.038-.015a.183.183,0,0,1-.092-.246c10.878-24.334,20.108-41.316,25.989-47.813.131-.146.223-.246.262-.3a.183.183,0,1,1,.3.208c-.054.069-.139.169-.293.339-5.858,6.474-15.065,23.418-25.927,47.721A.173.173,0,0,1,167.707,91.123Z" transform="translate(-157.658 -39.129)" fill="#83bfbf"/>
        <path id="Path_80577" data-name="Path 80577" d="M202.49,41.459c-.693.724-3.841,1.817-4.049,1.617s.731-3.395,1.416-4.119a1.816,1.816,0,0,1,2.633,2.5Z" transform="translate(-162.958 -38.395)" fill="#83bfbf"/>
        <path id="Path_80578" data-name="Path 80578" d="M195.293,43.827c.169,1.008-.885,4.257-1.17,4.3s-2.325-2.687-2.494-3.7a1.857,1.857,0,0,1,3.664-.608Z" transform="translate(-161.788 -39.061)" fill="#83bfbf"/>
        <path id="Path_80579" data-name="Path 80579" d="M198.6,50.937c-1.024-.062-3.949-1.817-3.926-2.109s3.141-1.663,4.165-1.594a1.855,1.855,0,1,1-.239,3.7Z" transform="translate(-162.315 -39.912)" fill="#83bfbf"/>
        <path id="Path_80580" data-name="Path 80580" d="M181.684,62.581c.462,1.655-.7,7.259-1.178,7.39s-4.365-4.065-4.827-5.72a3.116,3.116,0,0,1,6-1.671Z" transform="translate(-159.034 -42.157)" fill="#83bfbf"/>
        <path id="Path_80581" data-name="Path 80581" d="M188.485,73.779c-1.717.077-6.913-2.317-6.936-2.81s4.942-3.341,6.659-3.418a3.117,3.117,0,0,1,.277,6.228Z" transform="translate(-160.061 -43.402)" fill="#83bfbf"/>
        <path id="Path_80582" data-name="Path 80582" d="M175.125,69.59c1,1.855,1.116,8.853.585,9.138s-6.3-3.672-7.306-5.527a3.814,3.814,0,0,1,6.721-3.61Z" transform="translate(-157.726 -43.408)" fill="#83bfbf"/>
        <path id="Path_80583" data-name="Path 80583" d="M185.067,84.283c-2.1-.123-8.122-3.7-8.091-4.3s6.436-3.441,8.537-3.318a3.813,3.813,0,0,1-.446,7.613Z" transform="translate(-159.276 -44.968)" fill="#83bfbf"/>
        <path id="Path_80584" data-name="Path 80584" d="M170.525,79.126c1,1.855,1.116,8.853.585,9.138s-6.3-3.672-7.306-5.527a3.814,3.814,0,0,1,6.721-3.61Z" transform="translate(-156.935 -45.045)" fill="#83bfbf"/>
        <path id="Path_80585" data-name="Path 80585" d="M180.466,93.828c-2.1-.123-8.122-3.7-8.091-4.3s6.436-3.441,8.537-3.318a3.813,3.813,0,0,1-.447,7.613Z" transform="translate(-158.486 -46.607)" fill="#83bfbf"/>
        <path id="Path_80586" data-name="Path 80586" d="M161.836,90.954c1.632,1.332,4.4,7.76,4.026,8.229S158.633,98.19,157,96.85a3.813,3.813,0,1,1,4.834-5.9Z" transform="translate(-155.606 -47.274)" fill="#83bfbf"/>
        <path id="Path_80587" data-name="Path 80587" d="M176.168,103.309c-2.1.139-8.522-2.648-8.56-3.249s5.951-4.219,8.052-4.357a3.811,3.811,0,0,1,.508,7.606Z" transform="translate(-157.667 -48.236)" fill="#83bfbf"/>
        <path id="Path_80588" data-name="Path 80588" d="M191.227,49.7c.169,1.024-.893,4.326-1.193,4.373s-2.363-2.733-2.533-3.757a1.888,1.888,0,1,1,3.726-.616Z" transform="translate(-161.079 -40.066)" fill="#83bfbf"/>
        <path id="Path_80589" data-name="Path 80589" d="M194.422,56.995c-1.039-.069-4.011-1.848-3.988-2.14s3.187-1.686,4.234-1.617a1.882,1.882,0,1,1-.246,3.757Z" transform="translate(-161.588 -40.944)" fill="#83bfbf"/>
        <path id="Path_80590" data-name="Path 80590" d="M186.468,54.993c.362,1.432-.762,6.228-1.178,6.328s-3.664-3.587-4.018-5.027a2.678,2.678,0,1,1,5.2-1.3Z" transform="translate(-160 -40.898)" fill="#83bfbf"/>
        <path id="Path_80591" data-name="Path 80591" d="M191.786,65.42c-1.478-.092-5.7-2.625-5.674-3.048s4.534-2.394,6.012-2.3a2.68,2.68,0,0,1-.339,5.35Z" transform="translate(-160.845 -42.117)" fill="#83bfbf"/>
      </g>
      <g id="Group_50015" data-name="Group 50015" transform="translate(120.25 58.475)">
        <path id="Path_80592" data-name="Path 80592" d="M163.707,134.987S146,106.881,198.842,84.8C198.842,84.8,199.712,143.778,163.707,134.987Z" transform="translate(-160.857 -84.703)" fill="#8fb9c7"/>
        <path id="Path_80593" data-name="Path 80593" d="M198.916,84.682l-36.79,46.4C159.4,122.688,157.808,101.864,198.916,84.682Z" transform="translate(-160.87 -84.682)" fill="#c6d6da"/>
      </g>
      <g id="Group_50016" data-name="Group 50016" transform="translate(121.5 102.08)">
        <path id="Path_80594" data-name="Path 80594" d="M162.365,146.849s3.98-17.113,31.94-5.45C194.313,141.4,172.45,163.662,162.365,146.849Z" transform="translate(-162.365 -137.329)" fill="#8fb9c7"/>
        <path id="Path_80595" data-name="Path 80595" d="M194.314,142.243l-31.94,5.45C162.367,147.693,170.127,165.907,194.314,142.243Z" transform="translate(-162.367 -138.173)" fill="#c6d6da"/>
        <path id="Path_80596" data-name="Path 80596" d="M181.864,145.2a.077.077,0,0,1-.046-.1.075.075,0,0,1,.1-.054l7.175,2.1a.081.081,0,0,1,.054.1.075.075,0,0,1-.1.054l-7.182-2.1C181.871,145.21,181.864,145.21,181.864,145.2Z" transform="translate(-165.705 -138.654)" fill="#c6d6da"/>
        <path id="Path_80597" data-name="Path 80597" d="M175.622,151.9h0l-9.169-3.718a.083.083,0,1,1,.062-.154h0l9.169,3.718a.086.086,0,0,1,.046.108A.093.093,0,0,1,175.622,151.9Z" transform="translate(-163.059 -139.165)" fill="#8fb9c7"/>
      </g>
      <g id="Group_50017" data-name="Group 50017" transform="translate(53.489 12.197)">
        <path id="Path_80598" data-name="Path 80598" d="M115.455,86.308c.015,0,.023-.008.038-.015a.206.206,0,0,0,.1-.269C102.969,59.426,92.346,40.9,85.687,33.876c-.146-.154-.254-.269-.3-.331a.2.2,0,0,0-.331.239c.062.077.162.185.331.37,6.636,7,17.229,25.481,29.838,52.04A.2.2,0,0,0,115.455,86.308Z" transform="translate(-81.071 -29.608)" fill="#83bfbf"/>
        <path id="Path_80599" data-name="Path 80599" d="M80.834,32.222c.785.785,4.288,1.909,4.511,1.686s-.893-3.734-1.671-4.511a2,2,0,0,0-2.841,2.825Z" transform="translate(-80.252 -28.808)" fill="#83bfbf"/>
        <path id="Path_80600" data-name="Path 80600" d="M89.047,34.646c-.162,1.124,1.085,4.673,1.4,4.719s2.5-3.025,2.656-4.149a2.048,2.048,0,1,0-4.057-.57Z" transform="translate(-81.76 -29.507)" fill="#83bfbf"/>
        <path id="Path_80601" data-name="Path 80601" d="M85.076,42.6c1.132-.1,4.311-2.109,4.288-2.433s-3.51-1.755-4.642-1.655a2.052,2.052,0,0,0,.354,4.088Z" transform="translate(-80.698 -30.475)" fill="#83bfbf"/>
        <path id="Path_80602" data-name="Path 80602" d="M103.977,55.024c-.47,1.84.962,8,1.486,8.129s4.719-4.6,5.189-6.436a3.443,3.443,0,0,0-6.674-1.694Z" transform="translate(-84.311 -32.865)" fill="#83bfbf"/>
        <path id="Path_80603" data-name="Path 80603" d="M95.908,67.575c1.9.038,7.575-2.733,7.59-3.279s-5.543-3.564-7.444-3.6a3.442,3.442,0,1,0-.146,6.882Z" transform="translate(-82.362 -34.284)" fill="#83bfbf"/>
        <path id="Path_80604" data-name="Path 80604" d="M111.008,62.6C109.953,64.666,110,72.4,110.592,72.7s6.867-4.219,7.921-6.289a4.211,4.211,0,1,0-7.506-3.818Z" transform="translate(-85.391 -34.216)" fill="#83bfbf"/>
        <path id="Path_80605" data-name="Path 80605" d="M99.445,79.109c2.317-.192,8.876-4.288,8.822-4.95s-7.19-3.641-9.507-3.449a4.213,4.213,0,0,0,.685,8.4Z" transform="translate(-82.766 -36.003)" fill="#83bfbf"/>
        <path id="Path_80606" data-name="Path 80606" d="M116.324,73.014c-1.055,2.071-1.008,9.807-.416,10.108s6.867-4.219,7.921-6.289a4.211,4.211,0,1,0-7.506-3.818Z" transform="translate(-86.304 -36.005)" fill="#83bfbf"/>
        <path id="Path_80607" data-name="Path 80607" d="M104.761,89.528c2.317-.192,8.876-4.288,8.822-4.95s-7.19-3.641-9.507-3.449a4.213,4.213,0,0,0,.685,8.4Z" transform="translate(-83.679 -37.793)" fill="#83bfbf"/>
        <path id="Path_80608" data-name="Path 80608" d="M125.713,85.856c-1.763,1.517-4.665,8.684-4.234,9.184s7.96-1.278,9.723-2.794a4.212,4.212,0,1,0-5.489-6.389Z" transform="translate(-87.325 -38.432)" fill="#83bfbf"/>
        <path id="Path_80609" data-name="Path 80609" d="M109.752,99.89c2.325.1,9.346-3.141,9.376-3.8s-6.682-4.511-9.007-4.611a4.211,4.211,0,0,0-.37,8.414Z" transform="translate(-84.628 -39.571)" fill="#83bfbf"/>
        <path id="Path_80610" data-name="Path 80610" d="M93.667,41.045c-.162,1.139,1.1,4.75,1.424,4.8s2.54-3.072,2.7-4.211a2.084,2.084,0,0,0-4.126-.585Z" transform="translate(-82.554 -30.602)" fill="#83bfbf"/>
        <path id="Path_80611" data-name="Path 80611" d="M89.817,49.179c1.147-.1,4.38-2.14,4.349-2.471s-3.564-1.778-4.711-1.686a2.086,2.086,0,0,0,.362,4.157Z" transform="translate(-81.506 -31.592)" fill="#83bfbf"/>
        <path id="Path_80612" data-name="Path 80612" d="M98.7,46.766c-.362,1.594,1,6.851,1.455,6.959s3.957-4.057,4.311-5.65A2.956,2.956,0,1,0,98.7,46.766Z" transform="translate(-83.411 -31.496)" fill="#83bfbf"/>
        <path id="Path_80613" data-name="Path 80613" d="M92.37,58.429c1.632-.139,6.228-3.041,6.182-3.5s-5.065-2.533-6.7-2.386a2.956,2.956,0,1,0,.516,5.889Z" transform="translate(-81.78 -32.883)" fill="#83bfbf"/>
      </g>
      <g id="Group_50018" data-name="Group 50018" transform="translate(44.526 39.784)">
        <path id="Path_80614" data-name="Path 80614" d="M114.156,126.012s22.494-35.7-44.634-63.749C69.522,62.264,68.421,137.19,114.156,126.012Z" transform="translate(-69.445 -62.141)" fill="#8fb9c7"/>
        <path id="Path_80615" data-name="Path 80615" d="M69.43,62.115l46.736,58.953C119.629,110.4,121.654,83.947,69.43,62.115Z" transform="translate(-69.43 -62.115)" fill="#c6d6da"/>
      </g>
      <g id="Group_50019" data-name="Group 50019" transform="translate(21.447 80.792)">
        <path id="Path_80616" data-name="Path 80616" d="M110.887,140.256s-1.84-39.992-69.322-25.442C41.565,114.822,81.334,173.759,110.887,140.256Z" transform="translate(-41.565 -111.627)" fill="#8fb9c7"/>
        <path id="Path_80617" data-name="Path 80617" d="M41.565,115.484l69.322,25.442C110.887,140.919,87.646,177.154,41.565,115.484Z" transform="translate(-41.565 -112.29)" fill="#c6d6da"/>
      </g>
      <g id="Group_50026" data-name="Group 50026" transform="translate(12.158 40.33)">
        <path id="Path_80618" data-name="Path 80618" d="M80.97,94.979s3.372.716,3.8.716S94.3,94.7,94.3,94.7l.793,1.547s-7.028,2.887-11.547,2.6S79.392,96.7,79.392,96.7Z" transform="translate(-38.772 -68.258)" fill="#f9a58f"/>
        <g id="Group_50021" data-name="Group 50021" transform="translate(47.356)">
          <path id="Path_80619" data-name="Path 80619" d="M144.77,62.775H112.938a2.933,2.933,0,0,0-2.055.847L88.373,86.131a2.9,2.9,0,0,0-.847,2.055v31.832a2.933,2.933,0,0,0,.847,2.055l22.509,22.509a2.9,2.9,0,0,0,2.055.847H144.77a2.934,2.934,0,0,0,2.055-.847l22.509-22.509a2.9,2.9,0,0,0,.847-2.055V88.187a2.934,2.934,0,0,0-.847-2.055L146.825,63.622A2.933,2.933,0,0,0,144.77,62.775Z" transform="translate(-87.526 -62.775)" fill="#d35592"/>
          <g id="Group_50020" data-name="Group 50020" transform="translate(4.134 4.134)" opacity="0.8">
            <path id="Path_80620" data-name="Path 80620" d="M143.387,142.153H116.035a4.115,4.115,0,0,1-2.948-1.224L93.741,121.584a4.146,4.146,0,0,1-1.224-2.948V91.284a4.115,4.115,0,0,1,1.224-2.948L113.087,68.99a4.146,4.146,0,0,1,2.948-1.224h27.352a4.115,4.115,0,0,1,2.948,1.224l19.346,19.345a4.146,4.146,0,0,1,1.224,2.948v27.352a4.115,4.115,0,0,1-1.224,2.948l-19.346,19.345A4.146,4.146,0,0,1,143.387,142.153ZM116.035,70.607a1.334,1.334,0,0,0-.947.393L95.743,90.345a1.321,1.321,0,0,0-.393.947v27.352a1.334,1.334,0,0,0,.393.947l19.345,19.346a1.321,1.321,0,0,0,.947.393h27.352a1.334,1.334,0,0,0,.947-.393l19.346-19.346a1.321,1.321,0,0,0,.393-.947V91.292a1.334,1.334,0,0,0-.393-.947L144.334,71a1.321,1.321,0,0,0-.947-.393Z" transform="translate(-92.517 -67.766)" fill="#fff"/>
          </g>
          <path id="Path_80621" data-name="Path 80621" d="M156.468,108.487l-.554-.485a3.38,3.38,0,0,0-4.75.339l-3.149,3.634a.742.742,0,0,1-1.3-.485h0a7.94,7.94,0,0,0-.046-.854V87.756a2.743,2.743,0,0,0-2.733-2.733h-.2A2.743,2.743,0,0,0,141,87.756v14.9a.654.654,0,0,1-.654.654h0a.723.723,0,0,1-.724-.724V84.869a2.645,2.645,0,0,0-2.64-2.64H136.6a2.645,2.645,0,0,0-2.64,2.64V102.7a.609.609,0,0,1-.608.608h0a.772.772,0,0,1-.77-.77V88.318a2.743,2.743,0,0,0-2.733-2.733h-.2a2.743,2.743,0,0,0-2.733,2.733v14.334a.654.654,0,0,1-.654.654h0a.723.723,0,0,1-.724-.724V91.374a2.743,2.743,0,0,0-2.733-2.733h-.2a2.743,2.743,0,0,0-2.733,2.733v19.684a1.136,1.136,0,0,0,.008.162c0,.092-.008.185-.008.277v10.831a8.03,8.03,0,0,0,8.006,8.006h10.831a8.019,8.019,0,0,0,6.736-3.687,17.352,17.352,0,0,1,1.416-1.917l9.954-11.493A3.38,3.38,0,0,0,156.468,108.487Z" transform="translate(-93.081 -66.116)" fill="#fff" opacity="0.8"/>
        </g>
        <g id="Group_50022" data-name="Group 50022" transform="translate(25.09 74.966)">
          <path id="Path_80622" data-name="Path 80622" d="M64.032,153.516s-.816,4.4-.785,4.457-.254.493-.254.493l-1.116.2-1.016-.47a40.286,40.286,0,0,0,.716-4.68C61.476,153,64.032,153.516,64.032,153.516Z" transform="translate(-60.681 -153.287)" fill="#f9a58f"/>
          <path id="Path_80623" data-name="Path 80623" d="M60.823,159.154a2.905,2.905,0,0,0,2.379-.293s4.272,1.6,4.142,2.818c0,0,.185.362-1.67.285s-4.727-.162-4.8-.2S60.43,161.917,60.823,159.154Z" transform="translate(-60.643 -154.244)" fill="#060633"/>
        </g>
        <g id="Group_50023" data-name="Group 50023" transform="translate(0 66.165)">
          <path id="Path_80624" data-name="Path 80624" d="M38.426,144.616s-3.934,2.148-3.957,2.2a2.142,2.142,0,0,1-.547.108l-.854-.739-.277-1.085a41.133,41.133,0,0,0,4.088-2.394C37.217,142.307,38.426,144.616,38.426,144.616Z" transform="translate(-30.77 -142.66)" fill="#f9a58f"/>
          <path id="Path_80625" data-name="Path 80625" d="M32.372,145.617a2.905,2.905,0,0,0,1.724,1.663s1.447,4.326.423,4.988c0,0-.169.37-1.27-1.116s-2.856-3.772-2.871-3.857S29.985,147.048,32.372,145.617Z" transform="translate(-30.351 -143.168)" fill="#060633"/>
        </g>
        <path id="Path_80626" data-name="Path 80626" d="M64.182,117.8s2.417,11.909.7,18.483A60.822,60.822,0,0,1,59.5,149.211H55.737s4.2-11.724,3.549-16.243-.754-10.431-2.363-10.647-4.411,7.637-9.684,12.694A31.914,31.914,0,0,1,36.484,141.9l-1.509-3.549s9.015-7.891,10.523-10.87c3.965-7.806,6.905-13.018,6.905-13.018Z" transform="translate(-31.145 -71.652)" fill="#252333"/>
        <path id="Path_80627" data-name="Path 80627" d="M66.023,92.145a7.234,7.234,0,0,0,2.825-.085c.916-.377,4.534.423,6.8,1.339a16.865,16.865,0,0,0,2.687.97,15.207,15.207,0,0,1-1.4,4.465s-3.772.192-3.934.246-3.972,8.245-4.188,9.107-.916,6.236-.916,6.236-4.68,2.525-6.828,1.94-3.657-3.764-7.259-3.387C53.806,112.977,57.516,94.455,66.023,92.145Z" transform="translate(-34.379 -67.788)" fill="#303e42"/>
        <path id="Path_80628" data-name="Path 80628" d="M75.14,99.73s4.519,1.994,5.381,1.778,7.39-1.293,7.39-1.293l.5,1.309s-5.735,4-9.607,3.787a18.661,18.661,0,0,1-7.46-2.363S73.869,100.1,75.14,99.73Z" transform="translate(-37.391 -69.122)" fill="#f9a58f"/>
        <path id="Path_80629" data-name="Path 80629" d="M69.478,103.024a.059.059,0,0,1-.038-.015l-3.926-3.957a.054.054,0,1,1,.077-.077l3.88,3.911c2.61-3.418,4.7-4.326,5.127-4.488-.462-.516-3.664-4.065-5.142-4.619a.049.049,0,0,1-.031-.069c.008-.031.038-.038.069-.031,1.609.608,5.088,4.542,5.242,4.711a.065.065,0,0,1,.015.054.093.093,0,0,1-.038.038c-.023.008-2.279.693-5.189,4.527a.109.109,0,0,1-.046.015Z" transform="translate(-36.387 -68.082)" fill="#060633"/>
        <g id="Group_50025" data-name="Group 50025" transform="translate(29.953 12.942)">
          <g id="Group_50024" data-name="Group 50024" transform="translate(0.166 0.531)">
            <path id="Path_80630" data-name="Path 80630" d="M75.285,85.451s.3-.416.516-.231c.554.47-.046,1.016-.431,1.124Z" transform="translate(-68.188 -80.095)" fill="#d87464"/>
            <path id="Path_80631" data-name="Path 80631" d="M74.082,82.828h0c0-.046.008-.092.008-.131a3.491,3.491,0,1,0-6.736,1.109c.285.831.539,1.54.808,2.14a4.981,4.981,0,0,1,.331,3.149l-.177.831a2.869,2.869,0,0,0,2.825.416.569.569,0,0,0,.316-.47l.092-1.255a.393.393,0,0,1,.385-.362h0C74.59,88.2,74.028,84.021,74.082,82.828Z" transform="translate(-66.784 -79.042)" fill="#f9a58f"/>
            <path id="Path_80632" data-name="Path 80632" d="M66.716,83.184l.839,2.4.639-.1.523-3.025Z" transform="translate(-66.716 -79.629)" fill="#050521"/>
            <path id="Path_80633" data-name="Path 80633" d="M68.341,85.95a.541.541,0,0,0-.262-.262.88.88,0,0,0-.962.046c-.446.408.362,1.586,1.239,1.062C68.356,86.8,68.61,86.566,68.341,85.95Z" transform="translate(-66.763 -80.162)" fill="#f9a58f"/>
            <path id="Path_80634" data-name="Path 80634" d="M74.923,81.895s.485.377.508,2.5a9.2,9.2,0,0,0,.031-2.625C75.215,81.5,74.923,81.895,74.923,81.895Z" transform="translate(-68.125 -79.495)" fill="#050521"/>
          </g>
          <path id="Path_80635" data-name="Path 80635" d="M68.429,78.492c.115-.085.308-.146.377-.015a.256.256,0,0,1,.008.169,1.612,1.612,0,0,1-.185.462,3.14,3.14,0,0,1,2.571-.539c.893.139,1.755.454,2.656.539.354.031.785.062.955.385a.618.618,0,0,1-.131.693,1.088,1.088,0,0,1-.677.293.486.486,0,0,1,.508.77.979.979,0,0,1-.854.239,27.039,27.039,0,0,1-2.941-.323l.377.4a.335.335,0,0,1,.1.154.283.283,0,0,1-.077.239.732.732,0,0,1-.608.216,2.746,2.746,0,0,1-.647-.162,5.682,5.682,0,0,0-.955-.2.436.436,0,0,0-.2.008.636.636,0,0,0-.216.162,2.853,2.853,0,0,1-1.5.554c-.169.023-.385.031-.454-.123a.41.41,0,0,1-.015-.192,4.39,4.39,0,0,1,.847-2.155.248.248,0,0,1-.446-.046c-.1-.277.254-.446.446-.523.177-.077.339-.069.485-.216C68.09,79.023,68.159,78.707,68.429,78.492Z" transform="translate(-66.515 -78.401)" fill="#050521"/>
        </g>
        <path id="Path_80636" data-name="Path 80636" d="M93.774,100.707s1.016-.208,1.147-.2.285.108-.423.477a8.5,8.5,0,0,1-3.379.516l-.739-1.463A16.26,16.26,0,0,0,91.7,98.929c.377-.385.731-1.155,1.016-1.024s-.408,1.324-.408,1.324.616-.216.916-.37,1.594-.762,1.755-.454c.115.223-1.44,1.008-1.44,1.008s1.948-.87,2.017-.547-1.971,1.247-1.971,1.247a8.588,8.588,0,0,1,1.878-.562c.115.192-.293.423-.716.647Z" transform="translate(-40.661 -68.806)" fill="#f9a58f"/>
      </g>
      <g id="Group_50027" data-name="Group 50027" transform="translate(147.647 52.997)">
        <path id="Path_80637" data-name="Path 80637" d="M210.064,91.229c.031.97,1.2,1.786.878,2.7-.069.208-.216.377-.269.585a.993.993,0,0,0,.662,1.116,1.887,1.887,0,0,0,1.386-.108c.439-.185.839-.454,1.27-.647a14.056,14.056,0,0,1,3.11-.716,12.323,12.323,0,0,1,3.195-.493,12.666,12.666,0,0,1,3.533,1.186,11.012,11.012,0,0,0,3.726.724,3.979,3.979,0,0,0,1.94-.346,2.7,2.7,0,0,0,1.155-3.341,3.208,3.208,0,0,0-1.44-1.6c-.57-.316-1.3-.423-1.724-.955-.6-.747-.231-1.863-.47-2.794a2.708,2.708,0,0,0-1.586-1.732c-.677-.293-1.524-.331-2.032-.931-.554-.647-.37-1.547-.47-2.333a3.866,3.866,0,0,0-1.84-2.694,5.315,5.315,0,0,0-.916-.446c-2.14-.785-4.935-.246-5.681,2.2a9.582,9.582,0,0,1-.624,2.256c-.446.724-1.347,1.155-1.594,1.971-.308,1.024.57,2.125.277,3.156a3.265,3.265,0,0,1-1.378,1.532A2.358,2.358,0,0,0,210.064,91.229Z" transform="translate(-196.705 -78.068)" fill="#80747d"/>
        <path id="Path_80638" data-name="Path 80638" d="M222.646,155.211s-.069,5.142-.608,5.712c-.308.323-6.443.993-6.62.169s4.5-1.948,4.842-3.464a9.542,9.542,0,0,0,.169-2.941Z" transform="translate(-197.624 -91.228)" fill="#f9a58f"/>
        <path id="Path_80639" data-name="Path 80639" d="M202.348,153.457s-1.232,2.717-1.478,3.21-.493,2.225-.985,2.286-5.8.616-5.928-.246,4.688-2.286,5-2.964,1.478-3.518,1.478-3.518Z" transform="translate(-193.938 -90.805)" fill="#f9a58f"/>
        <path id="Path_80640" data-name="Path 80640" d="M221.392,110.577s3.464,5.781,3.772,8.784-1.763,14.211-1.886,14.927c-.816,4.842-2.348,14.357-2.348,14.357l-3.572-.1-.97-26.551s-3.11,7.021-4.273,9.954c-1.309,3.31-8.122,15.458-8.122,15.458l-3.68-1.309s11.74-35.412,13.649-36.289S221.392,110.577,221.392,110.577Z" transform="translate(-195.031 -83.475)" fill="#252333"/>
        <path id="Path_80641" data-name="Path 80641" d="M220.338,91.653c2.094.077,5.735.978,7.6,4.072a28.879,28.879,0,0,1,2.71,5.966l-4.5,1.624-.462-1.778s-1.162,5.658-2.325,6.12-1.94-.385-2.633-.462-2.941.624-4.8.077-1.94-1.94-2.171-3.564-.539-3.1-.539-3.1l-.7.539-3.6-3.6s4.211-4.311,6.536-5.012A27.5,27.5,0,0,1,220.338,91.653Z" transform="translate(-196.509 -80.402)" fill="#80549a"/>
        <path id="Path_80642" data-name="Path 80642" d="M233.164,104.173a51.9,51.9,0,0,1,0,7.136c-.308,2.325-2.787,7.336-2.787,7.336l-1.5-1.547s2.487-6.936,1.216-11.809Z" transform="translate(-199.936 -82.552)" fill="#f9a58f"/>
        <path id="Path_80643" data-name="Path 80643" d="M215.808,85.274s-.346-.385-.547-.177c-.5.531.2,1.024.6,1.093Z" transform="translate(-197.568 -79.265)" fill="#d87464"/>
        <path id="Path_80644" data-name="Path 80644" d="M218.671,78.405a3.523,3.523,0,0,1,3.687,4.45,15.019,15.019,0,0,1-.931,3.11,3.508,3.508,0,0,0-.231,2.556l.262.862a2.736,2.736,0,0,1-2.91.439L218.24,87.8h0c-2.232.069-2.556-4.018-2.733-5.212h0c-.008-.046-.015-.092-.023-.131A3.521,3.521,0,0,1,218.671,78.405Z" transform="translate(-197.629 -78.124)" fill="#f9a58f"/>
        <path id="Path_80645" data-name="Path 80645" d="M219.442,81.861a14.9,14.9,0,0,1,1.378,1.224,3.817,3.817,0,0,1,1.139,1.555,4.517,4.517,0,0,0,.97-1.9,3.28,3.28,0,0,0,.185-.978,3.667,3.667,0,0,0-.37-1.355,3.868,3.868,0,0,0-.947-1.54,2.812,2.812,0,0,0-1.078-.523,4.948,4.948,0,0,0-2.779-.046,3.577,3.577,0,0,0-2.155,1.709,6.207,6.207,0,0,0-.316,3.564,3.514,3.514,0,0,1,.57-1.424,3.086,3.086,0,0,1,.593-.808c.431-.377.577-.331,1.332-1.024A4.186,4.186,0,0,0,219.442,81.861Z" transform="translate(-197.615 -78.077)" fill="#80747d"/>
        <path id="Path_80646" data-name="Path 80646" d="M222.671,85.05a.5.5,0,0,1,.231-.285.889.889,0,0,1,.97-.054c.493.362-.192,1.624-1.132,1.193C222.748,85.9,222.463,85.7,222.671,85.05Z" transform="translate(-198.857 -79.188)" fill="#f9a58f"/>
        <path id="Path_80647" data-name="Path 80647" d="M214.091,101.718a.02.02,0,0,1-.023-.023,8.374,8.374,0,0,1,1.062-3.734c.008-.015.023-.015.038-.008s.015.023.008.038a8.3,8.3,0,0,0-1.055,3.7c0,.008-.008.015-.031.023Z" transform="translate(-197.391 -81.483)" fill="#272035"/>
        <path id="Path_80648" data-name="Path 80648" d="M223.907,103.556a4.8,4.8,0,0,1-2.44-.77c-.015-.008-.015-.023-.008-.039s.023-.015.038-.008,2.125,1.447,3.949.339a.028.028,0,1,1,.031.046A2.994,2.994,0,0,1,223.907,103.556Z" transform="translate(-198.661 -82.305)" fill="#272035"/>
        <path id="Path_80649" data-name="Path 80649" d="M222.461,159.819c-3.141,1.6-4.188,1.055-4.534.547-1.286.631-2.6,1.162-2.51,1.609.169.824,6.312.146,6.62-.169A5,5,0,0,0,222.461,159.819Z" transform="translate(-197.624 -92.109)" fill="#0b0755"/>
        <path id="Path_80650" data-name="Path 80650" d="M196.328,158.1c-1.239.554-2.433,1.132-2.371,1.563.123.862,5.435.308,5.928.246.446-.054.693-1.486.916-2.117C198.168,159.27,196.836,158.531,196.328,158.1Z" transform="translate(-193.939 -91.761)" fill="#0b0755"/>
        <path id="Path_80651" data-name="Path 80651" d="M228.761,119.406a16.757,16.757,0,0,0-1.84,1.393c-.431.454-1.186.57-1.024.893s1.27-.146,1.27-.146-.362,1.216-.531,1.578-.308,1.078-.054,1.216.947-1.632.947-1.632-.439,1.555-.231,1.732,1.047-1.709,1.047-1.709a10.474,10.474,0,0,0-.477,1.8c.069.162.285.085.616-.447a6.193,6.193,0,0,0,.539-1.162,13.01,13.01,0,0,0-.285,1.332c.015.154.146.354.554-.485a9.715,9.715,0,0,0,.9-3.9Z" transform="translate(-199.421 -85.168)" fill="#f9a58f"/>
        <path id="Path_80652" data-name="Path 80652" d="M209.745,101.333s-3.395,4.072-6.166,3.626-6.536-7.182-6.536-7.182l1.339-.816s4.172,4.565,5.627,4.272a10.648,10.648,0,0,0,3.518-2.109Z" transform="translate(-194.469 -81.313)" fill="#f9a58f"/>
        <path id="Path_80653" data-name="Path 80653" d="M198.041,96.73a15.775,15.775,0,0,0-.316-2.125c-.177-.554.069-1.224-.269-1.239s-.454,1.1-.454,1.1-.831-.847-1.047-1.139-.739-.731-.97-.593.908,1.5.908,1.5-1.07-1.055-1.309-.962.924,1.624.924,1.624a9.457,9.457,0,0,0-1.255-1.193c-.169-.015-.192.192.092.7a5.537,5.537,0,0,0,.708.955,11.791,11.791,0,0,0-.955-.824c-.131-.054-.354-.038.146.67a8.959,8.959,0,0,0,2.779,2.479Z" transform="translate(-193.935 -80.583)" fill="#f9a58f"/>
      </g>
      <g id="Group_50029" data-name="Group 50029" transform="translate(160.783 26.704)">
        <g id="Group_50028" data-name="Group 50028">
          <path id="Path_80654" data-name="Path 80654" d="M209.795,63.29a2.437,2.437,0,0,1,.177-.924,2.1,2.1,0,0,1,.5-.731,2.3,2.3,0,0,1,.778-.485,2.868,2.868,0,0,1,1.032-.177,2.973,2.973,0,0,1,1.039.177,2.256,2.256,0,0,1,.785.485,2.173,2.173,0,0,1,.5.731,2.409,2.409,0,0,1,.177.924,2.369,2.369,0,0,1-.177.916,2.143,2.143,0,0,1-.5.724,2.256,2.256,0,0,1-.785.485,2.942,2.942,0,0,1-1.039.177,2.9,2.9,0,0,1-1.032-.177,2.222,2.222,0,0,1-.778-.485,2.142,2.142,0,0,1-.5-.724A2.341,2.341,0,0,1,209.795,63.29ZM214.137,59h-3.711L209.9,46.324h4.765Z" transform="translate(-209.795 -46.324)" fill="#83bfbf"/>
        </g>
      </g>
      <g id="Group_50031" data-name="Group 50031" transform="translate(121.8 11.393)">
        <g id="Group_50030" data-name="Group 50030">
          <path id="Path_80655" data-name="Path 80655" d="M162.728,51.971a3.334,3.334,0,0,1,.254-1.309,3.062,3.062,0,0,1,.716-1.039,3.247,3.247,0,0,1,1.109-.685,4.132,4.132,0,0,1,1.463-.246,4.238,4.238,0,0,1,1.47.246,3.243,3.243,0,0,1,1.124.685,3.062,3.062,0,0,1,.716,1.039,3.334,3.334,0,0,1,.254,1.309,3.269,3.269,0,0,1-.254,1.3,3.108,3.108,0,0,1-.716,1.032,3.243,3.243,0,0,1-1.124.685,4.238,4.238,0,0,1-1.47.246,4.162,4.162,0,0,1-1.463-.246A3.246,3.246,0,0,1,163.7,54.3a3.107,3.107,0,0,1-.716-1.032A3.269,3.269,0,0,1,162.728,51.971Zm6.182-6.1h-5.273l-.747-18.029h6.774Z" transform="translate(-162.728 -27.837)" fill="#d35592"/>
        </g>
      </g>
      <g id="Group_50033" data-name="Group 50033" transform="translate(102.316 16.512)">
        <g id="Group_50032" data-name="Group 50032">
          <path id="Path_80656" data-name="Path 80656" d="M139.2,51.215a2.448,2.448,0,0,1,.177-.931,2.262,2.262,0,0,1,.508-.739,2.428,2.428,0,0,1,.793-.493,2.942,2.942,0,0,1,1.039-.177,2.985,2.985,0,0,1,1.047.177,2.228,2.228,0,0,1,.8.493,2.15,2.15,0,0,1,.508.739,2.309,2.309,0,0,1,.177.931,2.38,2.38,0,0,1-.177.924,2.312,2.312,0,0,1-.508.731,2.465,2.465,0,0,1-.8.493,3.017,3.017,0,0,1-1.047.177,2.942,2.942,0,0,1-1.039-.177,2.264,2.264,0,0,1-.793-.493,2.088,2.088,0,0,1-.508-.731A2.381,2.381,0,0,1,139.2,51.215Zm4.4-4.349h-3.764l-.531-12.848h4.827Z" transform="translate(-139.203 -34.018)" fill="#83bfbf"/>
        </g>
      </g>
    </g>
  </g>
</svg>
