<svg id="quiz-friendship" data-name="Layer 1" xmlns="http://www.w3.org/2000/svg" xmlns:xlink="http://www.w3.org/1999/xlink" viewBox="0 0 249 185"><defs><style>.cls-1{fill:none;}.cls-2{fill:#d35e4a;opacity:0.5;}.cls-3{clip-path:url(#clip-path);}.cls-4{fill:#342d3a;}.cls-5{fill:#f09c7d;}.cls-6{fill:#e38866;}.cls-7{fill:#755f6f;}.cls-8{fill:#f5eced;}.cls-9{fill:#ffd9c0;}.cls-10{fill:#ffbe96;}.cls-11{fill:#d39475;}.cls-12{fill:#84bac9;}.cls-13{fill:#733d38;}.cls-14{fill:#663528;}.cls-15{fill:#e87064;}.cls-16{fill:#2c3e42;}</style><clipPath id="clip-path"><path id="Path_67123" data-name="Path 67123" class="cls-1" d="M77.3,22.5C46.1,27.1,13.2,46,12.9,63.7v1c.4,25.2,22.9,37.9,31.6,59.5s-40.9,2.9-8.8,40.3c10.5,10.4,20.6,10.7,85.8,10.8,20.3.3,90.2,12,92.1-32.1-.7-15.7,15.7-62.1,4.7-85.7S169.1,33.4,156,21C134.1.1,119.7,16.2,77.3,22.5Z"/></clipPath></defs><path id="Path_67123-2" data-name="Path 67123" class="cls-2" d="M77.3,22.5C46.1,27.1,13.2,46,12.9,63.7v1c.4,25.2,22.9,37.9,31.6,59.5s-40.9,2.9-8.8,40.3c10.5,10.4,20.6,10.7,85.8,10.8,20.3.3,90.2,12,92.1-32.1-.7-15.7,15.7-62.1,4.7-85.7S169.1,33.4,156,21C134.1.1,119.7,16.2,77.3,22.5Z"/><g class="cls-3"><circle class="cls-4" cx="79" cy="54.8" r="3.5"/><path class="cls-4" d="M88,60.8c.1,4.4-3,8.1-7,8.2s-7.4-3.3-7.6-7.7,3-7,7.1-7.1S87.8,56.4,88,60.8Z"/><polygon class="cls-5" points="81.1 190 84 190 84 177.3 78 177.3 81.1 190"/><polygon class="cls-5" points="74.6 185.2 76.9 187 79.5 177.4 74.8 173.7 74.6 185.2"/><path class="cls-5" d="M55.9,120.7l1.1-2.8.5-14.6a5.1,5.1,0,0,1,.7-2.7h0l5.6-18.2a9,9,0,0,1,8.7-6.8h15c4.1,0,7.1,2.8,8.7,6.9l1.1,2.6,4.8,10.2-4.6,6.3-5.2-9.5-24.5.7-3.7,9.9h0l-3.9,16.2a13,13,0,0,1,.2,6.2l-.2.9a1.6,1.6,0,0,1-1.3,1.3,1.7,1.7,0,0,1-1.9-.9l-.7-1.3A5.2,5.2,0,0,1,55.9,120.7Z"/><path class="cls-5" d="M87.2,66.7l-.3.4a11.7,11.7,0,0,1-1.6,1.1,3.7,3.7,0,0,0,.5-1.1,28,28,0,0,0,.4-3,3.5,3.5,0,0,1,1.2.2A2.2,2.2,0,0,1,87.2,66.7Z"/><path class="cls-5" d="M73.6,65.4a.8.8,0,0,1,.2.4,11,11,0,0,0,1.4,1.5,3.5,3.5,0,0,1-.2-1.2,23.7,23.7,0,0,1,.1-3,1.9,1.9,0,0,0-1.1,0C73.4,63.3,73.2,64.4,73.6,65.4Z"/><path class="cls-5" d="M76.7,78.1V69.6s.3-1,.7-1h5.5c.4,0,.7,1,.7,1v8.5Z"/><path class="cls-6" d="M76.7,73.7h2a10.1,10.1,0,0,0,4.9-1.5V67h-7Z"/><path class="cls-5" d="M75.4,68.9s2.6,3.2,4.3,3.3,4.9-2.3,4.9-2.3a3.6,3.6,0,0,0,1.5-2.7l.7-6.1c.2-2-1.4-3.3-3.4-3.5l-4.2-.5c-2-.2-3.7.6-3.9,2.6l-.7,6.4A4,4,0,0,0,75.4,68.9Z"/><path class="cls-4" d="M81.2,60.8,87.1,62l.2-4L75.6,55.9,76.9,58A6.7,6.7,0,0,0,81.2,60.8Z"/><path class="cls-7" d="M74.7,173.4,63.4,134.2a38.4,38.4,0,0,1-.2-19.9l4.5-9.4H91.6c.1-.4,4.3,5.9,5.1,9.5a41.4,41.4,0,0,1-.2,19.8L85.8,171.9l.5,5.4H75.8l-.8-2.8h-.4Z"/><path class="cls-8" d="M66.2,108H93.8l2.1-3.1L92.5,90.3l-.2-.2a29.8,29.8,0,0,1-4.8-14.5H73a28.8,28.8,0,0,1-3.7,12.5l-1,1.8-4.2,15.9Z"/><path class="cls-5" d="M103,105c1.9-2.9.6-6.7-1.3-10.6l-4.5,6.4-3.8,13,2.7.9Z"/><path class="cls-5" d="M91.7,116a4.7,4.7,0,0,1,.6-1.5l1.5-2.3,2.6,1.5a13.4,13.4,0,0,1-.3,4.9Z"/><path class="cls-9" d="M142.9,75.9h0a2.5,2.5,0,0,1-2.2-2.2c0-.3,0-.6-.1-.7a5.6,5.6,0,0,0-1.3-2.4,15.2,15.2,0,0,1-3.9-7c-.6-2.2-1.1-4.3-1.2-4.3-1.2-3.4-3.5-5.1-7.9-5.1-6.3,0-7.9,5.6-8.1,8.7,0,.2-.1.7-.2,1.3a10.6,10.6,0,0,1-2.8,5.2,6,6,0,0,0-1.7,4.3V74a5.9,5.9,0,0,1-2,4.8,6.2,6.2,0,0,0,3.7,10.8,6.2,6.2,0,0,0,6.6-6.1,6.5,6.5,0,0,0-1.2-3.7,6.2,6.2,0,0,0,5.2-6.1,6,6,0,0,0-.6-2.7,5.8,5.8,0,0,0,1.9.3c1.2-.1,2,2.4,2.1,3.9a5.8,5.8,0,0,0,4.9,5.3,5.4,5.4,0,0,0,2.2-.1,7.9,7.9,0,0,0-.1,2.2,6,6,0,0,0,5.4,5,5.9,5.9,0,0,0,6.3-6.3A6,6,0,0,0,142.9,75.9Z"/><path class="cls-5" d="M142.6,92.2l-5.9,1.1,2.2,11.2h0l1,14.5a12.5,12.5,0,0,0-1.2,5.4v.8a1.5,1.5,0,0,0,2.7.8l.8-1a4.3,4.3,0,0,0,1-3.8l-.6-2.6,1.8-12.7C144.6,104.9,142.6,92.2,142.6,92.2Z"/><polygon class="cls-10" points="130.2 79.8 130 69.5 123.1 69.6 123.3 79.9 130.2 79.8"/><path class="cls-6" d="M123.2,76.1h1.9a10.9,10.9,0,0,0,5-1.5V69.5h-6.9Z"/><path class="cls-11" d="M143.5,190.9l-3.1-69.7c-.4-3.6-4.8-13-4.8-13l-.2-3.2h-18v3.2s-4.5,9.4-4.9,13l-5,69.7h14.9l3.7-58.2,2.6,58.2Z"/><path class="cls-5" d="M114.9,96.8l-5.2-4.3L108.2,103h0l-3.6,14.1a12.9,12.9,0,0,0-2.8,4.8l-.2.7a1.4,1.4,0,0,0,.5,1.6,1.5,1.5,0,0,0,1.8.1l1.1-.7a4.2,4.2,0,0,0,2.1-3.3l.3-2.6,5.7-11.6C113.6,105.2,114.9,96.8,114.9,96.8Z"/><path class="cls-12" d="M142.8,93.3h0l-1.3-9a8.2,8.2,0,0,0-8.1-7h-2.7V75.4a1.2,1.2,0,0,0-1.2-1.2h-6.1a1.2,1.2,0,0,0-1.2,1.2v1.9h-2.6a8.2,8.2,0,0,0-8.1,6.4l-1.7,8.1L107.9,103l-2.5,10.9,3.5.9,4.2-8.7c.5-.9,1.8-9.3,1.8-9.3h0l2.5,8.2h18l1.9-8.4,1.6,7.9h0l.7,10.3h3.7l1.2-8.8C144.6,105.2,143.3,96.4,142.8,93.3Z"/><path class="cls-9" d="M118.1,64.1a5.1,5.1,0,0,1-.4,1.1,9.7,9.7,0,0,1-3.3,4.2,5.2,5.2,0,0,0-2.2,3.5.4.4,0,0,1-.1.3,5.5,5.5,0,0,1-2.4,4,5.6,5.6,0,0,0-2.7,4.3,5.9,5.9,0,0,0,4.3,5.9,5.7,5.7,0,0,0,6.8-4.5,5.6,5.6,0,0,0-.5-3.4,5.7,5.7,0,0,0,5.6-4.7,9.4,9.4,0,0,0-.1-2.9C123.6,72.2,118.8,61.4,118.1,64.1Z"/><path class="cls-5" d="M133,66.8l-.2.3a10.7,10.7,0,0,1-1.5,1.3,3.9,3.9,0,0,0,.3-1.1c.1-.7.2-3.1.2-3.1a2.8,2.8,0,0,1,1.1.2C133.4,64.7,133.5,65.8,133,66.8Z"/><path class="cls-5" d="M119.4,66.8l.3.3a7,7,0,0,0,1.5,1.3,2.6,2.6,0,0,1-.4-1.1c-.1-.7-.1-3.1-.1-3.1a3.5,3.5,0,0,0-1.2.2C119,64.7,118.9,65.8,119.4,66.8Z"/><path class="cls-5" d="M131,70.4s-3,3.3-4.7,3.3-4.5-2.8-4.9-3.3a4.6,4.6,0,0,1-1-2.9V63.4c0-3.2.8-5.5,4.1-5.5h3.1c2,0,4.5.3,4.5,4.9v4.9A3.9,3.9,0,0,1,131,70.4Z"/><path class="cls-9" d="M122.4,61.6h-2.7l.8-4.7h5.3v1.3A3.4,3.4,0,0,1,122.4,61.6Z"/><polygon class="cls-5" points="173.3 187.4 176.2 188.7 179.2 179.1 175 176.4 173.3 187.4"/><polygon class="cls-5" points="175.9 82 176.4 67.9 169.4 67.6 169 81.7 175.9 82"/><polygon class="cls-5" points="172.2 189.6 169 189.7 167.4 178.6 172.1 178.6 172.2 189.6"/><polygon class="cls-5" points="179 90.5 166 90.5 165.9 79.1 169.2 77.6 176.1 77.4 179.5 79.9 179 90.5"/><path class="cls-5" d="M151.3,126l-2,5.3.3,3.8a1.3,1.3,0,0,0,1.2,1.1h1.1a1.3,1.3,0,0,0,1.1-.9l.9-3.2.6-5.5Z"/><polygon class="cls-5" points="186.1 128.6 183.1 126.1 184.3 123.4 187 118.2 190.1 119.8 186.1 128.6"/><path class="cls-13" d="M181.9,63.5a1.3,1.3,0,0,0-.9-1.2,1.2,1.2,0,0,0,.2-1,1.5,1.5,0,0,0-.7-1,2.2,2.2,0,0,0,.2-1.4,2,2,0,0,0-1.5-1.7v-.5a1.4,1.4,0,0,0-1.7-1.2h-.3a1.7,1.7,0,0,0-2-1.3,1.4,1.4,0,0,0-1,.5,1.4,1.4,0,0,0-1.6-1l-.7.3a1.5,1.5,0,0,0-2.6.8,1.1,1.1,0,0,0-.8-.1,1.4,1.4,0,0,0-1.2.9.4.4,0,0,0-.5,0,1.7,1.7,0,0,0-1.5,2v.2a1.5,1.5,0,0,0-.9,1.6l.2.5a1.3,1.3,0,0,0,.1,2.4c0,.4-.1.8-.1,1.2a8.1,8.1,0,0,0,14.3,5.1c.1.1.2,0,.3,0a1.4,1.4,0,0,0,1.2-1.6.4.4,0,0,0-.1-.3,1.4,1.4,0,0,0,.7-1.4v-.2A1.3,1.3,0,0,0,181.9,63.5Z"/><path class="cls-5" d="M177.7,67.8l-.3.4-1.5,1.2a3.9,3.9,0,0,0,.3-1.1,22.7,22.7,0,0,0,.3-3,2,2,0,0,1,1.2.2C178.2,65.8,178.2,66.9,177.7,67.8Z"/><path class="cls-6" d="M169.3,74.2l1.9.2a10.4,10.4,0,0,0,5.1-1.3V67.9l-6.9-.3Z"/><path class="cls-5" d="M175.2,71.4s-4.5,3-6.2,3-3.1-2.9-3.5-3.5a5.2,5.2,0,0,1-.9-2.9l.3-6.2c.1-2.1,1.2-3.8,3.2-3.7l4.4.2a3.1,3.1,0,0,1,3.1,3.5l.3,2.7.7.4-.2,3.9A4.2,4.2,0,0,1,175.2,71.4Z"/><path class="cls-14" d="M166.6,65.7h0a.5.5,0,0,1-.5-.5h0c.1-.3.3-.5.5-.5h0a.5.5,0,0,1,.5.5v.2C167.1,65.5,166.8,65.7,166.6,65.7Z"/><path class="cls-14" d="M172.8,66.2h0c-.2,0-.4-.3-.4-.5v-.2a.5.5,0,0,1,.5-.4h0a.5.5,0,0,1,.4.5h0A.5.5,0,0,1,172.8,66.2Z"/><path class="cls-13" d="M177.1,65.3h0a1.5,1.5,0,0,1-1.5-1.5V58.5l1.9,1.1Z"/><path class="cls-15" d="M177.5,63.7H174a2.1,2.1,0,0,0-1.9-1.1,2.3,2.3,0,0,0-1.9,1h-2.3a2.4,2.4,0,0,0-2-1.2,2.3,2.3,0,1,0,0,4.5,2.2,2.2,0,0,0,2.2-2.2v-.5h1.8a2,2,0,0,0-.1.7,2.3,2.3,0,1,0,4.5,0,1.3,1.3,0,0,0-.1-.6h3.4c.1,0,.2-.1.2-.3S177.7,63.7,177.5,63.7Z"/><path class="cls-4" d="M189.4,88.4a11.8,11.8,0,0,0-5-5.8l-4.9-2.7-7.8,7.7-5.8-8.5-6,2.4a6.6,6.6,0,0,0-4.1,5.6L154,108.5h0l-2.9,18,3.3.5,6-18.5.6-4.4.2,6.7,20.6.3,1.9-16,6.3,12.5-4.8,12.6,3.3,3,7.3-14.5a4.8,4.8,0,0,0,.2-3.9Z"/><path class="cls-16" d="M166.3,180.8l-8.8-48.5a28.4,28.4,0,0,1,1.3-15l2.4-6.5,20.6.3s1.8,9.9,2.4,13.4c1.4,8.3,3.6,33.3,3.6,33.3l-8.6,21.3-6.1-1.4,4.4-19.9L173.1,135h0a.9.9,0,0,0-1.6.1v.2l.7,45.5Z"/></g></svg>