<?xml version="1.0" encoding="utf-8"?>
<!-- Generator: Adobe Illustrator 26.0.2, SVG Export Plug-In . SVG Version: 6.00 Build 0)  -->
<svg version="1.1" id="quiz-childhood" xmlns="http://www.w3.org/2000/svg" xmlns:xlink="http://www.w3.org/1999/xlink" x="0px" y="0px" viewbox="0 0 300.9 255.3" style="enable-background:new 0 0 300.9 255.3;" xml:space="preserve">

<g id="Mask_Group_107" transform="translate(-704.5 -2325.388)">
	<g id="FA-Family-Illustration" transform="translate(411.714 2210.472)">
		<g id="Group_50560" transform="translate(30.002 280.442) rotate(-97)" class="st0" style="opacity: 0.107;">
			<path id="Path_41656" class="st1" d="M106.2,370.8c0-45.1-19.9-94.5-44.6-97.5l-1.3-0.1c-35.4-3.1-57.9,27.1-89.9,36.3
				c-32.1,9.2-12.2-58.9-71.4-18.7c-16.8,13.3-46.2,41.8-27,123.7c-6.8,61.2-15,129.4,36.7,132.5c22.1,1.3,83.9,31.4,119.3,19.3
				C63,554.2,71.6,499.9,91.9,483C125.9,454.8,106.2,432,106.2,370.8z" style="fill: #8A50A0;"/>
		</g>
		<g id="Mask_Group_128" transform="translate(65.839 31.888)">
			<g id="parents" transform="translate(0.017 28.879)">
				<path id="Path_64121" class="st2" d="M421.9,133.9c0,0,1.1,3.6-0.3,5.9c-0.9,1.5-4.6,0.3-5.1,2.5c-1,4.2,4.1,12.1,4,12.3
					c-0.2,2.9,18.4-13.7,18.4-13.7s-7-0.2-8.7-1.7c-1.4-1.2-1.7-6.1-1.7-6.1L421.9,133.9z" style="fill: #FFB9A4;"/>
				<path id="Path_64122" class="st3" d="M422.2,135.4c0.1,0.7,0.1,1.5,0,2.2c0,0,4,0.7,6.7-1.4c0,0-0.4-2.8-0.4-3.7
					S422.2,135.4,422.2,135.4z" style="fill: #F29D8A;"/>
				<path id="Path_64123" class="st2" d="M431.6,126.4c-1.8,7-5.9,9.9-8.6,9.7c-1.4-0.1-4.1-2.3-5.4-9.7c-0.9-5.1,3.1-9.4,6.9-9.4
					S433,121.4,431.6,126.4z" style="fill: #FFB9A4;"/>
				<path id="Path_64124" class="st4" d="M328,245.9c0.1,1.2,0.1,2.5,0,3.7c0,0,0.9,0.8,3.3,0s2-1.3,2-1.3l0.1-3.1L328,245.9z" style="fill: #FFAC8B;"/>
				<path id="Path_64125" class="st4" d="M342.7,243.2c0,0,0.1,3.5,0,5.3c0,0,0.9,0.5,3.3-0.2s2-1.3,2-1.3l0.1-3.1L342.7,243.2z" style="fill: #FFAC8B;"/>
				<path id="Path_64126" class="st5" d="M324.2,179.5c0,0,1.2,20.2,1.1,29.8s-0.8,26.6,2.2,36.7c0,0,3.5,2.9,7-1
					c0,0,1.2-14.6,2.4-24.1c1.2-9.6,3.2-25.1,3.2-25.1l0,20.8c0,7.8,2.6,27.2,2.6,27.2s3.6,2.6,6.6,0.6c0,0,0.8-16.4,2.9-30.5
					c2.1-14.2,1.6-36.1,1.1-39.8c-0.4-3.7-17.2-5.9-20.9-3.9C328.6,172.1,323.9,174.6,324.2,179.5z" style="fill: #414052;"/>
				<g id="Group_50744" transform="translate(38.011 74.162)">
					<g id="Group_50741">
						<path id="Path_64127" class="st6" d="M287.8,101.6c-0.2,0-0.3-0.1-0.3-0.3c-0.1-0.4-0.1-0.7-0.1-0.7c0-0.2,0.1-0.4,0.3-0.5
							c0.2,0,0.4,0.1,0.5,0.3c0,0,0,0,0,0l0.1,0.7C288.2,101.3,288.1,101.5,287.8,101.6L287.8,101.6L287.8,101.6z" style="fill: #515063;"/>
					</g>
					<g id="Group_50742" transform="translate(0.368 2.19)">
						<path id="Path_64128" class="st6" d="M289.9,167.8c-0.2,0-0.3-0.1-0.3-0.3c-0.1-0.4-0.2-0.9-0.3-1.5c0-0.2,0.1-0.4,0.3-0.5
							c0.2,0,0.4,0.1,0.5,0.3c0,0,0,0,0,0l0,0c0.1,0.5,0.2,1,0.3,1.4C290.3,167.5,290.2,167.7,289.9,167.8
							C290,167.8,289.9,167.8,289.9,167.8z M289.4,164.9c-0.2,0-0.3-0.1-0.3-0.3c0-0.5-0.1-1-0.2-1.5c0-0.2,0.1-0.4,0.3-0.4
							c0.2,0,0.4,0.1,0.4,0.3c0,0.5,0.1,1,0.2,1.5c0,0.2-0.1,0.3-0.2,0.4C289.5,164.9,289.4,164.9,289.4,164.9L289.4,164.9
							L289.4,164.9z M289,161.9c-0.2,0-0.3-0.1-0.3-0.3c0,0,0,0,0,0l-0.1-1.5c0-0.2,0.1-0.4,0.3-0.4c0.2,0,0.4,0.1,0.4,0.3l0,0
							l0.1,1.5C289.4,161.7,289.2,161.9,289,161.9C289,161.9,289,161.9,289,161.9z M288.8,158.9c-0.2,0-0.3-0.1-0.3-0.3c0,0,0,0,0,0
							c0-0.5,0-1-0.1-1.5c0-0.2,0.1-0.4,0.3-0.4l0,0c0.2,0,0.4,0.1,0.4,0.3l0,0c0,0.5,0,1,0.1,1.5
							C289.1,158.7,289,158.9,288.8,158.9z M288.6,155.9c-0.2,0-0.3-0.1-0.3-0.3c0,0,0,0,0,0c0-0.5,0-1,0-1.5c0-0.2,0.1-0.4,0.3-0.4
							c0.2,0,0.4,0.1,0.4,0.3l0,0l0,0c0,0.5,0,1,0,1.5C289,155.8,288.8,155.9,288.6,155.9C288.6,156,288.6,156,288.6,155.9z
							 M288.4,153c-0.2,0-0.3-0.1-0.3-0.3c0,0,0,0,0,0c0-0.5,0-1,0-1.5c0-0.2,0.1-0.4,0.3-0.4c0.2,0,0.4,0.2,0.4,0.3l0,0
							c0,0.5,0,1,0,1.5C288.8,152.8,288.6,153,288.4,153C288.4,153,288.4,153,288.4,153z M288.4,150c-0.2,0-0.3-0.1-0.3-0.3
							c0,0,0,0,0,0c0-0.5,0-1,0-1.5c0-0.2,0.1-0.4,0.3-0.4c0.2,0,0.4,0.1,0.4,0.3l0,0c0,0.5,0,1,0,1.5
							C288.7,149.8,288.6,150,288.4,150z M288.3,147c-0.2,0-0.3-0.1-0.3-0.3c0,0,0,0,0,0l0,0v-1.5c0-0.2,0.2-0.3,0.3-0.3
							s0.3,0.2,0.3,0.3v1.5C288.7,146.9,288.5,147,288.3,147z M288.3,144c-0.2,0-0.3-0.1-0.3-0.3c0,0,0,0,0,0l0,0v-1.5
							c0-0.2,0.2-0.4,0.4-0.3c0.2,0,0.4,0.2,0.3,0.4v1.5C288.7,143.9,288.5,144,288.3,144L288.3,144z M288.3,141.1
							c-0.2,0-0.3-0.1-0.3-0.3c0,0,0,0,0,0l0,0v-1.5c0-0.2,0.2-0.4,0.4-0.3c0.2,0,0.4,0.2,0.3,0.4l0,0v1.5
							C288.6,140.9,288.5,141.1,288.3,141.1L288.3,141.1z M288.4,138.1c-0.2,0-0.3-0.1-0.3-0.3c0,0,0,0,0,0l0,0c0-0.5,0-1,0-1.5
							c0-0.2,0.2-0.4,0.4-0.3c0.2,0,0.3,0.2,0.3,0.4c0,0,0,0,0,0c0,0.5,0,1,0,1.5C288.7,138,288.6,138.1,288.4,138.1L288.4,138.1z
							 M288.4,135.1c-0.2,0-0.3-0.1-0.3-0.3c0,0,0,0,0,0l0,0c0-0.5,0-1,0-1.5c0-0.2,0.2-0.4,0.4-0.3c0.2,0,0.4,0.2,0.3,0.4
							c0,0.5,0,1,0,1.5C288.7,135,288.6,135.1,288.4,135.1L288.4,135.1z M288.5,132.1c-0.2,0-0.3-0.1-0.3-0.3c0,0,0,0,0,0l0,0
							c0-0.5,0-1,0-1.5c0-0.2,0.1-0.3,0.3-0.3c0,0,0,0,0,0l0,0c0.2,0,0.4,0.2,0.3,0.4l0,0c0,0.5,0,1,0,1.5
							C288.9,132,288.7,132.1,288.5,132.1L288.5,132.1z M288.6,129.1c-0.2,0-0.3-0.1-0.3-0.3c0,0,0,0,0,0l0,0c0-0.5,0-1,0-1.5
							c0-0.2,0.1-0.3,0.3-0.3c0,0,0,0,0,0l0,0c0.2,0,0.4,0.2,0.3,0.4l0,0c0,0.5,0,1,0,1.5C289,129,288.8,129.1,288.6,129.1
							L288.6,129.1z M288.7,126.2c-0.2,0-0.3-0.1-0.4-0.3c0,0,0-0.1,0-0.1l0,0l0-1.5c0-0.2,0.2-0.4,0.4-0.3c0.2,0,0.4,0.2,0.3,0.4
							l0,0l0,1.5C289.1,126,288.9,126.2,288.7,126.2z M288.8,123.2c-0.2,0-0.3-0.2-0.3-0.4c0,0,0,0,0,0l0,0l0-1.5
							c0-0.2,0.2-0.4,0.4-0.3c0.2,0,0.3,0.2,0.3,0.4c0,0,0,0,0,0l0,0l0,1.5C289.2,123,289,123.2,288.8,123.2z M288.9,120.2
							c-0.2,0-0.3-0.2-0.3-0.4c0,0,0,0,0,0l0,0l0-1.5c0-0.2,0.2-0.4,0.4-0.3c0.2,0,0.4,0.2,0.3,0.4l0,0l0,1.5
							C289.3,120.1,289.1,120.2,288.9,120.2z M289,117.2c-0.2,0-0.3-0.1-0.3-0.3c0,0,0,0,0,0l0,0v-1.5c0-0.2,0.2-0.4,0.3-0.4l0,0
							c0.2,0,0.4,0.2,0.4,0.3v1.5C289.4,117,289.2,117.2,289,117.2C289,117.2,289,117.2,289,117.2z M289,114.3
							c-0.2,0-0.3-0.1-0.3-0.3c0,0,0,0,0,0c0-0.5,0-1,0-1.5c0-0.2,0.1-0.4,0.3-0.4c0.2,0,0.4,0.1,0.4,0.3l0,0c0,0.5,0,1,0,1.5
							C289.4,114.1,289.2,114.3,289,114.3C289,114.3,289,114.3,289,114.3z M288.8,111.3c-0.2,0-0.3-0.1-0.3-0.3c0,0,0,0,0,0
							c0-0.5,0-1-0.1-1.5c0-0.2,0.1-0.4,0.3-0.4c0.2,0,0.4,0.1,0.4,0.3c0,0.5,0.1,1,0.1,1.5C289.2,111.1,289,111.3,288.8,111.3
							C288.8,111.3,288.8,111.3,288.8,111.3z M288.6,108.3c-0.2,0-0.3-0.1-0.3-0.3c0,0,0,0,0,0l-0.1-1.5c0-0.2,0.1-0.4,0.3-0.4
							s0.4,0.1,0.4,0.3l0.1,1.5C289,108.1,288.8,108.3,288.6,108.3C288.6,108.3,288.6,108.3,288.6,108.3z M288.3,105.3
							c-0.2,0-0.3-0.1-0.3-0.3c0,0,0,0,0,0c0-0.5-0.1-1-0.2-1.5c0-0.2,0.1-0.4,0.3-0.4c0.2,0,0.4,0.1,0.4,0.3l0,0
							c0,0.5,0.1,1,0.2,1.5C288.7,105.1,288.5,105.3,288.3,105.3C288.3,105.3,288.3,105.3,288.3,105.3L288.3,105.3z M287.9,102.4
							c-0.2,0-0.3-0.1-0.3-0.3c-0.1-0.5-0.1-1-0.2-1.5c0-0.2,0.1-0.4,0.3-0.4c0.2,0,0.4,0.1,0.4,0.3l0,0c0,0.4,0.1,0.9,0.2,1.5
							c0,0.2-0.1,0.3-0.2,0.4C288,102.3,288,102.3,287.9,102.4L287.9,102.4C288,102.4,287.9,102.4,287.9,102.4L287.9,102.4z" style="fill: #515063;"/>
					</g>
					<g id="Group_50743" transform="translate(2.853 70.587)">
						<path id="Path_64129" class="st6" d="M287.9,101.6c-0.2,0-0.3-0.1-0.3-0.2c0-0.2-0.1-0.5-0.2-0.7c-0.1-0.2,0.1-0.4,0.2-0.4
							c0.2-0.1,0.4,0.1,0.4,0.2l0,0c0,0.2,0.1,0.5,0.2,0.7c0.1,0.2,0,0.4-0.2,0.4C288,101.5,288,101.5,287.9,101.6
							C288,101.6,288,101.6,287.9,101.6z" style="fill: #515063;"/>
					</g>
				</g>
				<g id="Group_50745" transform="translate(53.046 95.285)">
					<path id="Path_64130" class="st6" d="M290.7,149c-0.2,0-0.3-0.1-0.3-0.3c0,0,0,0,0,0l-0.1-1.5c0-0.2,0.1-0.4,0.3-0.4
						c0.2,0,0.4,0.1,0.4,0.3l0.1,1.5C291,148.9,290.9,149,290.7,149z M290.4,146.1c-0.2,0-0.3-0.1-0.3-0.3c0,0,0,0,0,0l-0.1-1.5
						c0-0.2,0.1-0.4,0.3-0.4c0.2,0,0.4,0.1,0.4,0.3l0.1,1.5C290.8,145.9,290.6,146.1,290.4,146.1z M290.1,143.2
						c-0.2,0-0.3-0.1-0.3-0.3c0,0,0,0,0,0l-0.1-1.5c0-0.2,0.1-0.4,0.3-0.4c0.2,0,0.4,0.1,0.4,0.3l0.1,1.5
						C290.5,143,290.3,143.2,290.1,143.2C290.1,143.2,290.1,143.2,290.1,143.2L290.1,143.2z M289.8,140.3c-0.2,0-0.3-0.1-0.3-0.3
						c0,0,0,0,0,0l-0.1-1.5c0-0.2,0.1-0.4,0.3-0.4c0.2,0,0.4,0.1,0.4,0.3l0,0l0.1,1.5C290.2,140.1,290,140.3,289.8,140.3
						C289.8,140.3,289.8,140.3,289.8,140.3z M289.6,137.4c-0.2,0-0.3-0.1-0.3-0.3c0,0,0,0,0,0l-0.1-1.5c0-0.2,0.1-0.4,0.3-0.4
						c0.2,0,0.4,0.1,0.4,0.3l0,0l0.1,1.5C289.9,137.2,289.8,137.3,289.6,137.4z M289.3,134.4c-0.2,0-0.3-0.1-0.3-0.3c0,0,0,0,0,0
						l-0.1-1.5c0-0.2,0.1-0.4,0.3-0.4c0.2,0,0.4,0.1,0.4,0.3l0,0l0.1,1.5C289.7,134.2,289.5,134.4,289.3,134.4z M289.1,131.5
						c-0.2,0-0.3-0.1-0.3-0.3c0,0,0,0,0,0c0-0.5-0.1-1-0.1-1.5c0-0.2,0.1-0.4,0.3-0.4c0.2,0,0.4,0.1,0.4,0.3l0,0l0,0
						c0.1,0.5,0.1,1,0.1,1.5C289.4,131.3,289.3,131.5,289.1,131.5z M288.8,128.6c-0.2,0-0.3-0.1-0.3-0.3c0,0,0,0,0,0
						c0-0.5,0-1-0.1-1.5c0-0.2,0.1-0.4,0.3-0.4c0.2,0,0.4,0.1,0.4,0.3l0,0c0,0.4,0,0.9,0.1,1.5C289.2,128.4,289,128.6,288.8,128.6
						C288.8,128.6,288.8,128.6,288.8,128.6z M288.7,125.6c-0.2,0-0.3-0.1-0.3-0.3c0,0,0,0,0,0c0-0.5,0-1,0-1.5
						c0-0.2,0.1-0.4,0.3-0.4c0.2,0,0.4,0.1,0.4,0.3l0,0c0,0.5,0,1,0,1.5C289,125.5,288.9,125.6,288.7,125.6z M288.6,122.7
						c-0.2,0-0.3-0.1-0.3-0.3c0,0,0,0,0,0l0,0v-1.5c0-0.2,0.2-0.3,0.3-0.3s0.3,0.2,0.3,0.3v1.4C289,122.5,288.8,122.7,288.6,122.7z
						 M288.6,119.7c-0.2,0-0.3-0.1-0.3-0.3c0,0,0,0,0,0l0,0v-1.5c0-0.2,0.2-0.3,0.4-0.3c0,0,0,0,0,0c0.2,0,0.3,0.1,0.3,0.4l0,0v1.5
						C289,119.6,288.8,119.7,288.6,119.7L288.6,119.7z M288.7,116.8c-0.2,0-0.3-0.1-0.3-0.3c0,0,0,0,0,0l0,0l0-1.5
						c0-0.2,0.2-0.4,0.4-0.3c0.2,0,0.4,0.2,0.3,0.4l0,0l0,1.5C289,116.7,288.8,116.8,288.7,116.8L288.7,116.8z M288.7,113.9
						c-0.2,0-0.3-0.1-0.3-0.3c0,0,0,0,0,0l0,0v-1.5c0-0.2,0.2-0.4,0.4-0.3c0.2,0,0.4,0.2,0.3,0.4v1.5
						C289.1,113.8,288.9,113.9,288.7,113.9L288.7,113.9z M288.7,111c-0.2,0-0.3-0.1-0.3-0.3c0,0,0,0,0,0l0,0v-1.5
						c0-0.2,0.2-0.4,0.3-0.4c0.2,0,0.3,0.1,0.4,0.3v1.5C289.1,110.8,288.9,111,288.7,111z M288.7,108c-0.2,0-0.3-0.1-0.3-0.3
						c0,0,0,0,0,0l0-0.7c0-0.2,0-0.5,0-0.7c0-0.2,0.1-0.4,0.3-0.4c0.2,0,0.4,0.1,0.4,0.3l0,0c0,0.5,0.1,1,0.1,1.5
						C289,107.9,288.9,108,288.7,108L288.7,108z M288.5,105.1c-0.2,0-0.3-0.1-0.3-0.3c0,0,0,0,0,0c0-0.5-0.1-1-0.1-1.4
						c0-0.2,0.1-0.4,0.3-0.4c0.2,0,0.4,0.1,0.4,0.3l0,0c0,0.4,0.1,0.9,0.1,1.5C288.9,104.9,288.8,105.1,288.5,105.1L288.5,105.1z
						 M288.2,102.2c-0.2,0-0.3-0.1-0.3-0.3c0-0.4-0.2-0.8-0.3-1.1c-0.1-0.1-0.2-0.2-0.1-0.4c0-0.2,0.2-0.3,0.4-0.3
						c0.2,0,0.5,0.2,0.8,1.6C288.6,101.9,288.5,102.1,288.2,102.2C288.2,102.2,288.2,102.2,288.2,102.2L288.2,102.2z" style="fill: #515063;"/>
				</g>
				<path id="Path_64131" class="st7" d="M330.9,124.6c0,0,1.2,1.7-3.7,3.4c-5,1.7-9.5,5.3-10.5,8.7s4.9,17.9,5.2,20
					s0.1,15.2,0.4,18.6s2,4,2,4c1.1-2.1,3.4-3.2,5.8-2.9c4.3,0.3,7.6,3.2,14.8,1.9s9-3.8,9-3.8s-0.7-8.6-0.5-13.6s0.4-29.2,0.4-29.2
					c-1.6-1.4-3.4-2.4-5.5-3c-3.5-1-4.8-2.9-5-3.2S330.8,124.3,330.9,124.6z" style="fill: #7B6683;"/>
				<path id="Path_64132" class="st4" d="M331.5,125.5c1.1,2,3.1,3.4,5.4,3.8c3.9,0.7,5.5-1.2,6.3-3.8S331.5,125.5,331.5,125.5z" style="fill: #FFAC8B;"/>
				<path id="Path_64133" class="st4" d="M343.6,113.7c0,0,0.3-1.7,1.8-0.8s0,6.3-1.8,5.3C342.7,117.6,343.1,115.9,343.6,113.7z" style="fill: #FFAC8B;"/>
				<path id="Path_64134" class="st4" d="M336,104c-1.8,0.8-5.3,2.8-5.7,5.5c-0.4,2.8-0.2,5.6,0.6,8.3c0.9,2.8,10.1,3.2,11.7,2.2
					c1-0.8,1.7-1.9,2-3.2c0.1-2.2,0.1-4.5,0-6.7C344.3,108.6,337,103.5,336,104z" style="fill: #FFAC8B;"/>
				<path id="Path_64135" class="st8" d="M354.6,131.9c-1-0.5-3-0.9-3.5,4s1.7,14.1-0.6,15c-1.1-0.4-2.3-0.2-3.3,0.4
					c-1.8,1-9.3,9.9-9.3,9.9s7.4,3.8,14.2,2.7s9-9.9,8-18.2C359.1,137.4,355.7,132.4,354.6,131.9z" style="fill: #8B7394;"/>
				<path id="Path_64136" class="st7" d="M350.5,150.9c0,0-7.2,6.2-5.9,12.6c-1.7-0.4-3.4-0.9-5-1.6c-2.2-1-0.5-4.8,2.8-6.8
					s5.9-3.9,6.5-4C349.5,151,350,150.9,350.5,150.9z" style="fill: #7B6683;"/>
				<path id="Path_64137" class="st8" d="M314.4,143.3c-1.3,9.9,2,19.3,10.2,21.8c8.2,2.5,18.8-3.8,20.8-10c0.6-1.9,0-5.4-1.8-6
					s-5.7-0.3-8.6,1.7s-7.4,0.1-7.4-3.6s-0.2-10-3-12.9C321.8,131.5,315.7,133.5,314.4,143.3z" style="fill: #8B7394;"/>
				<path id="Path_64138" class="st9" d="M332.2,109.1c2.5-3,3.4-3.4,4.2-2.4c0.8,1,2,1.6,4.4,2c1.3,0.1,2.4,0.9,2.8,2.1
					c0.2,0.3,3.4,0.8,4.2-2.8c0.7-3.5-3.8-7.9-8.8-8s-8.7,1.4-9.6,6.5c-0.9,5.1,0.2,14.2,0.5,16.5s2,3.7,5.3,4s9-0.2,10-3.4
					s-0.9-2.9-0.6-7c0,0.3-0.2,0.6-0.5,0.6c0,0,0,0,0,0c-0.1,0-0.2,0-0.3,0c-1.5-0.4-3.2-0.3-4.6,0.4c-0.6,0.3-1.5-0.5-3.8-0.1
					c-2.3,0.4-3,0.2-4.2-1.6C330.1,114.5,329.7,112,332.2,109.1z" style="fill: #5E3C38;"/>
				<path id="Path_64139" class="st6" d="M370.7,241.6c0,0-3.7,1.9-5.3,7.5s2.1,8.1,7.5,7.6s11-3.9,11-3.9s-0.2-3.3-2.9-4.7
					c1.2-1.7,1.9-3.8,1.8-6c0-1.6-0.5-3.2-1.4-4.5C381.6,237.6,374,239.1,370.7,241.6z" style="fill: #515063;"/>
				<path id="Path_64140" class="st4" d="M329.7,113.7c-0.1-0.7-0.7-1.1-1.4-1c-0.2,0-0.4,0.1-0.6,0.3c-1.6,0.9,0,6.3,2,5.3
					C330.6,117.7,330.3,115.9,329.7,113.7z" style="fill: #FFAC8B;"/>
				<path id="Path_64141" class="st10" d="M391.5,249.1c0,0,1.1-1,1.8-1s2.2,1.8,3.4,2.1c1.1,0.2,2.1,0.8,3,1.5
					c0.3,0.4,0.5,0.6-0.2,0.8s-4.7,1.1-5.2,1.3C393.7,253.9,390.5,250.4,391.5,249.1z" style="fill: #323645;"/>
				<path id="Path_64142" class="st4" d="M335,150.8c-1.5-0.8-3.1-1.5-4.8-2.1c-1.7-0.4-2.7-0.1-3.6,2s-0.5,4.3,0,4.6
					c0.3,0.2,0.7,0.1,0.9-0.2c0,0,0,0,0,0c0,0,0-0.1,0.1-0.2c0,0,0.1,1.3,0.7,1.3c0.7,0,1.1-1.3,1.1-1.3s0,0.9,0.5,0.9
					s1.1-1.4,1.1-1.4s0,1.3,0.8,0.6s0.9-2,1.5-2.7C333.9,151.8,334.4,151.2,335,150.8z" style="fill: #FFAC8B;"/>
				<path id="Path_64143" class="st11" d="M328.4,150.4c-0.7,1.4-1.1,3-1.1,4.5c0,0.2,0.3,0.2,0.3,0c0-1.5,0.4-3,1.1-4.3
					c0,0,0-0.1,0-0.2c0,0,0,0,0,0C328.6,150.3,328.5,150.3,328.4,150.4L328.4,150.4z" style="fill: #F29072;"/>
				<path id="Path_64144" class="st11" d="M330.3,150.4c-0.7,1.4-1.1,3-1.1,4.5c0,0.2,0.3,0.2,0.3,0c0-1.5,0.4-3,1.1-4.3
					c0,0,0-0.1,0-0.2c0,0,0,0,0,0C330.4,150.3,330.4,150.3,330.3,150.4L330.3,150.4z" style="fill: #F29072;"/>
				<path id="Path_64145" class="st12" d="M381.2,242.6c0,0-3.7,1.9-5.3,7.5c-1.5,5.6,2.1,8.1,7.5,7.6s11-3.9,11-3.9
					s-0.2-3.3-2.9-4.7c1.2-1.7,1.9-3.8,1.8-6c0-1.6-0.5-3.2-1.4-4.5C392,238.6,384.4,240.1,381.2,242.6z" style="fill: #5E5D70;"/>
				<path id="Path_64146" class="st11" d="M332,151c-0.7,1-1.1,2.3-1.1,3.5c0,0.2,0.3,0.1,0.3,0c0.1-1.2,0.4-2.3,1.1-3.4
					C332.4,150.9,332.1,150.8,332,151z" style="fill: #F29072;"/>
				<path id="Path_64147" class="st13" d="M377.6,219.2c0,0-3-0.9-7.3,3.8s-4.6,9.2-3.6,13.3c1,4.1,5.1,5,7.1,5.9s2.2,2.4,8.1,1.2
					c3.7-0.8,7.3-2.2,10.6-4.2c0-1.7-0.2-3.4-0.5-5.1c-0.5-3-0.4-12.6-0.4-12.6c-1.5-1.4-3.4-2.3-5.4-2.4
					C382.9,218.9,377.6,219.2,377.6,219.2z" style="fill: #A9C4DE;"/>
				<path id="Path_64148" class="st4" d="M345.6,153.4c1-0.4,1.9-1,2.7-1.6c0.7-0.5,1.4-0.8,2.3-0.9c-0.6-1-1.6-1.8-2.7-2.3
					c-1.7-0.6-4.2,0.4-4.2,0.4C344.8,150.2,345.5,151.7,345.6,153.4z" style="fill: #FFAC8B;"/>
				<path id="Path_64149" class="st14" d="M375,238c0,0,2.9,5.5,4.7,6.7c1.9,1.2,3.2,0.4,3.3-0.5s-2.1-5.1-2.1-5.1l0.7-0.2
					c1.9,1.1,3.9,2,6,2.9c2.1,0.8,3.4-0.5,2.6-1.7s-2.7-3.5-2.7-3.5c-1.4-0.7-2.9-1-4.4-1.1C380.4,235.4,375,238,375,238z" style="fill: #BA7F6F;"/>
				<g id="Group_50747" transform="translate(54.287 146.699)">
					<path id="Path_64150" class="st15" d="M290.3,101.7c1-0.3,3-1.8,4.2-0.8s5.6,4.3,6.8,4.7c1.3,0.4,4.4-0.2,4.3,2.9
						c-1.2,1-2.7,1.5-4.2,1.4c-3,0.1-6.7-1.6-8.8-1.8c-2.2-0.2-4.8-0.2-5-0.6s0.6-4.9,0.8-5.6C288.5,101.1,290.3,101.7,290.3,101.7z
						" style="fill: #AB8989;"/>
					<path id="Path_64151" class="st16" d="M305.6,108.4c0,0,0.2-0.1,0.4,0.8c0,0.2-1.7,1.7-4.4,1.6c-2.9,0-5.8-0.8-8.3-2.3
						l-0.9-0.3l0,1.1l-5-0.4l0-2.4c0,0,2.5-0.2,7,1.5C298.3,109.6,302.4,110.7,305.6,108.4z" style="fill: #573A3C;"/>
					<path id="Path_64152" class="st15" d="M298.5,103.9c-0.8,0.1-1.5,0.5-2,1.2c-0.8,1.2-6.2-3.4-6.2-3.4s2.4-2.4,3.9-1.3
						S297.1,102.6,298.5,103.9z" style="fill: #AB8989;"/>
					<path id="Path_64153" class="st16" d="M295.6,104c0.7-0.6,1.6-0.8,2.5-0.8c0.2,0,0.1,0.3,0,0.3c-0.8,0-1.6,0.3-2.3,0.7
						C295.6,104.4,295.5,104.1,295.6,104z" style="fill: #573A3C;"/>
					<path id="Path_64154" class="st16" d="M294.8,103c0.7-0.6,1.6-0.8,2.5-0.8c0.1,0,0.1,0.3,0,0.3c-0.8,0-1.6,0.3-2.3,0.7
						C294.7,103.4,294.6,103.1,294.8,103z" style="fill: #573A3C;"/>
					<path id="Path_64155" class="st16" d="M293.6,102.3c0.7-0.6,1.6-0.8,2.5-0.8c0.2,0,0.1,0.3,0,0.3c-0.8,0-1.6,0.3-2.3,0.7
						C293.5,102.6,293.4,102.4,293.6,102.3z" style="fill: #573A3C;"/>
					<g id="Group_50746" transform="translate(4.42 0.425)">
						<path id="Path_64156" class="st16" d="M287.8,101.4c-0.1,0-0.3,0-0.4-0.1c-0.1-0.1-0.1-0.3,0-0.5c0.6-1.3,2.9-0.3,3-0.3
							l0.3,0.1l-0.3,0.1C289.6,101.2,288.7,101.4,287.8,101.4z M289,100.4c-0.5-0.1-1,0.1-1.3,0.5c0,0.1-0.1,0.1,0,0.2
							c0.1,0.2,1.2,0,2.3-0.4C289.7,100.5,289.4,100.4,289,100.4L289,100.4z" style="fill: #573A3C;"/>
					</g>
				</g>
				<g id="Group_50749" transform="translate(39.417 147.944)">
					<path id="Path_64157" class="st15" d="M290.5,101.7c1.1-0.3,3.1-1.8,4.4-0.8s5.8,4.3,7.2,4.7c1.4,0.4,4.6-0.2,4.6,2.9
						c0,0-1.3,1.3-4.5,1.4s-7-1.6-9.3-1.8s-5-0.2-5.3-0.6s0.6-4.9,0.8-5.6S290.5,101.7,290.5,101.7z" style="fill: #AB8989;"/>
					<path id="Path_64158" class="st16" d="M306.6,108.5c0,0,0.2-0.1,0.4,0.8c0,0.2-1.8,1.7-4.6,1.6c-3,0-6-0.8-8.7-2.3l-0.9-0.3
						l0,1.1l-5.2-0.4l0-2.4c0,0,2.7-0.2,7.4,1.5C298.8,109.6,303.2,110.7,306.6,108.5z" style="fill: #573A3C;"/>
					<path id="Path_64159" class="st15" d="M299,103.9c-0.8,0.1-1.6,0.5-2.1,1.2c-0.9,1.2-6.5-3.4-6.5-3.4s2.6-2.4,4.1-1.3
						S297.6,102.6,299,103.9z" style="fill: #AB8989;"/>
					<path id="Path_64160" class="st16" d="M296.1,104c0.7-0.6,1.6-0.8,2.6-0.8c0.2,0,0.1,0.3,0,0.3c-0.9,0-1.7,0.2-2.4,0.7
						C296,104.4,295.9,104.1,296.1,104z" style="fill: #573A3C;"/>
					<path id="Path_64161" class="st16" d="M295.1,103c0.7-0.6,1.6-0.8,2.6-0.8c0.2,0,0.1,0.3,0,0.3c-0.9,0-1.7,0.2-2.4,0.7
						C295.1,103.4,295,103.1,295.1,103z" style="fill: #573A3C;"/>
					<path id="Path_64162" class="st16" d="M293.8,102.3c0.7-0.6,1.6-0.8,2.6-0.8c0.2,0,0.1,0.3,0,0.3c-0.9,0-1.7,0.2-2.4,0.7
						C293.8,102.6,293.7,102.4,293.8,102.3z" style="fill: #573A3C;"/>
					<g id="Group_50748" transform="translate(4.645 0.425)">
						<path id="Path_64163" class="st16" d="M287.9,101.5c-0.1,0-0.3,0-0.4-0.1c-0.1-0.1-0.1-0.3,0-0.5c0.6-1.3,3.1-0.3,3.2-0.3
							l0.4,0.1l-0.4,0.1C289.8,101.2,288.8,101.4,287.9,101.5z M289.1,100.4c-0.6,0-1.2,0-1.4,0.5c0,0.1-0.1,0.1,0,0.2
							c0.1,0.2,1.3,0,2.5-0.4C289.8,100.6,289.4,100.5,289.1,100.4L289.1,100.4z" style="fill: #573A3C;"/>
					</g>
				</g>
				<path id="Path_64164" class="st17" d="M341.3,179.5c0-0.5-0.3-1-0.7-1c-0.4,0-0.7,0.4-0.7,1s0.3,1,0.7,1
					C340.9,180.5,341.3,180.1,341.3,179.5z" style="fill: #BAB1A2;"/>
				<path id="Path_64165" class="st18" d="M390.3,220.5c-0.7,0-2.2,1-3,4.6c-0.8,3.5-2.6,7.8-6.2,8.5c-3.6,0.6-4.4,0.7-4.4,0.7
					c-0.5,0.6-0.8,1.3-0.9,2.1c0,1,0.2,2.8,5.3,3.2s9.2,0.1,11.3-4.9C394.6,229.6,394.1,220.8,390.3,220.5z" style="fill: #C4DCF2;"/>
				<path id="Path_64166" class="st2" d="M378.4,220c0,0-0.8,2.4,0.5,3.4c1.2,1,3.8,0.4,4.9-0.5c1-1.1,1.8-2.4,2.4-3.7
					c0,0-1,0.3-1.1-0.9C385,217,378.4,220,378.4,220z" style="fill: #FFB9A4;"/>
				<path id="Path_64167" class="st3" d="M378.4,220c0,0-0.6,1,0.8,1.7c1.7,0.9,3.7,0,4.9-0.8c0.7-0.5,1.4-1.1,2-1.8
					c0,0-1,0.3-1.1-0.9S378.4,220,378.4,220z" style="fill: #F29D8A;"/>
				<path id="Path_64168" class="st2" d="M374.9,215.4c-0.3-0.3-0.7-0.5-1.1-0.2c-0.6,0.3-0.8,1-0.5,1.6c0.1,0.2,0.3,0.4,0.5,0.5
					c0.5,0.4,1.2,0.5,1.8,0.2c0.4,1.1,1.1,2,2,2.6c1.4,0.9,3.2,1.3,4.8,1c1.7-0.5,2.9-2,3.1-3.7c0.1-1.5,0.2-2.1,0.2-2.1
					s0.4,0,0.8-0.9s0.4-2-0.2-2.4s-0.8,0.1-0.8,0.1c0-0.9-0.2-1.9-0.6-2.7c-0.8-1.4-8.4-2.5-10.1-0.3
					C373.1,211.1,373.5,214.4,374.9,215.4z" style="fill: #FFB9A4;"/>
				<path id="Path_64169" class="st19" d="M369.9,229.1c-0.2,1.9,0.1,3.8,0.7,5.5c0.9,2.6,4,5.3,5.8,5.5s2.3-0.9,1.7-2
					c-0.6-1.2-1-2.5-1.3-3.8c1.5-0.1,3-0.3,4.4-0.7c0.9,0.2,1.7,0.7,2.4,1.3c1.5,1.1,3.2,0.1,2.8-1.2c-0.4-1.3-2.4-3.5-4.6-5.2
					c-1.2-0.9-2.4-1.6-3.8-2.2C377.8,226.3,374.6,230.3,369.9,229.1z" style="fill: #C78877;"/>
				<path id="Path_64170" class="st14" d="M369.8,229.7c0,1.2,0.1,2.3,0.3,3.4c2.3,0.1,4.6-0.6,6.5-2.1c2.7-2.4,2.8-4.1,2.8-4.1
					l-1.2-0.7L369.8,229.7z" style="fill: #BA7F6F;"/>
				<path id="Path_64171" class="st2" d="M436.9,236.2c0,0,3.7,11,3,13.1s-5.5,4.7-7.3,6.1s-1.5,1.8,1,1.9s5.6-0.3,7.3-1.5
					s4.1-1.9,4.3-2.1s-1.7-4.5-1.7-5.9s-0.5-12.6-0.6-13.9C443,232.5,436.9,236.2,436.9,236.2z" style="fill: #FFB9A4;"/>
				<path id="Path_64172" class="st2" d="M420.2,235.4c0,0,0.8,11.6-0.3,13.4c-1.2,1.9-7.1,4.6-9.1,5.5c-2.1,0.8-1.9,1.3,0.5,2.1
					s6.1-0.3,8-1c2-0.7,4.5-0.7,4.7-1s-0.5-4.7-0.2-6.1s2.7-12.3,2.9-13.6S420.2,235.4,420.2,235.4z" style="fill: #FFB9A4;"/>
				<path id="Path_64173" class="st20" d="M434.3,254.3c-1.2,0.6-2.2,1.3-3.2,2.2c-0.7,0.9,2,1.7,4.9,1.3c2-0.2,3.9-0.9,5.6-1.9
					c1-0.5,3.8-1.4,3.9-1.8c-0.1-0.8-0.3-1.5-0.6-2.3c-1.5,0.7-2.9,1.6-4.2,2.6C437.9,256.2,435.3,255.4,434.3,254.3z" style="fill: #6E475E;"/>
				<path id="Path_64174" class="st20" d="M413.3,253.2c0,0-4,1.3-4,2c-0.1,1.1,2,1.4,4.9,1.5c2,0.1,4-0.2,5.8-1
					c1.1-0.3,4-0.7,4.1-1.2c0.1-0.8,0.1-1.5,0-2.3c-1.7,0.4-3.3,1-4.8,1.7C416.2,255.6,414.1,254.5,413.3,253.2z" style="fill: #6E475E;"/>
				<path id="Path_64175" class="st19" d="M375.1,220.9c-1.8-0.2-3.5,0.3-5,1.2c0,0-1.1-1.1-2-0.2c-0.9,0.9-1.3,3.1,0.6,3.1
					c-0.7,1.2-0.6,2.7,0.2,3.8c1.3,2,2.9,2.4,5.9,1.8s4.3-3.9,3.6-5.7c-0.3-0.9-0.9-1.8-1.7-2.4c0.5-0.2,0.8-0.8,0.6-1.3v0
					C376.9,220.1,375.3,219.6,375.1,220.9z" style="fill: #C78877;"/>
				<path id="Path_64176" class="st21" d="M378.3,210.2c-0.7,0.1-1.7,1-1.5,1.6c0.2,0.6,2-0.1,2.4-0.6
					C379.6,210.7,379.1,210.1,378.3,210.2z" style="fill: #FFEEE6;"/>
				<path id="Path_64177" class="st22" d="M417.3,174.5l0,24.5c0,11.5-0.2,19.5,0,27.6c0.2,8.2,0.6,10.8,0.6,10.8s9.8,2,14.6,1
					s11.6-3.1,11.6-3.1s0.3-27.1,0-35s-2.7-22.6-3.7-27.7C439.5,167.5,417.3,174.5,417.3,174.5z" style="fill: #C29791;"/>
				<path id="Path_64178" class="st21" d="M375,215.4c0,0-1.5-1.1-1-3.8s3.7-1.4,4.4-0.4c0.7,0.9,2.4,1.7,4.6,0.7
					c2.8-1.2,3.9-2.5,2.7-4.6s-4.5-4.1-8.5-1.8s-4.6,4-4.4,6.8c0.1,1,0.4,2,1,2.9C373.8,215.1,374.1,214.9,375,215.4z" style="fill: #FFEEE6;"/>
				<path id="Path_64179" class="st23" d="M418.7,140.7c-1.2,1.6-2.1,3.4-2.8,5.3c-1.4,3.7-1.7,7.6-0.9,11.5
					c0.7,4.4,0.9,8.8,0.5,13.2c-0.4,3.1-1.5,3.5,1.2,5.4s2.7,3.5,8,3.1c5.3-0.4,7.1-2,10.7-3.8c3.6-1.7,5.6-1.2,6-3.5
					s0-16.6,0.2-16.6s6.5,6.1,6.5,6.1l6.6-1.3c0,0-5.8-8.8-9.5-13.4c-3.7-4.6-5.6-6-8.6-5.7c-1.3,0.1-7.8,6.6-11.5,6.6
					C420.5,147.3,418.7,140.7,418.7,140.7z" style="fill: #C2404F;"/>
				<path id="Path_64180" class="st24" d="M418.7,140.7c-1.1,0-2.1,0.5-2.7,1.3c-1.2,1.4-2,5.6-2.9,9.4c-0.9,3.8-2.1,8.1-2.1,8.1
					l2.9,8.9c1-0.4,1.8-1.2,2.1-2.3c0.3-1.6,0.4-7-0.5-9.2s-1.1-6.6,0.8-11.1S418.7,140.7,418.7,140.7z" style="fill: #B53246;"/>
				<path id="Path_64181" class="st2" d="M414.2,168.4c0,0,2.7-2.1,0.3-6.1c-2.3-4-8.8-13.2-9.5-15.3s-1.1-2.8-4-3.1l-3-0.3
					c0,0-3-0.7-3-0.3s1.1,1.4,2.5,1.6l1.3,0.2c0,0-3.3,0.9-5.6,1.5c-2.9,0.8-2.4,1.8-2.4,1.8s-0.7,0.5-0.5,0.8c0.3,0.5,1.5,0,1.5,0
					s-0.8,0.8,0.1,0.9c0.5,0,1.1-0.2,1.6-0.3c0,0-1,0.7,0.2,0.9c0.7,0.1,8.3-1.2,8.6-1.1s4.7,11.9,5.3,14
					C408.2,165.8,411.8,169.1,414.2,168.4z" style="fill: #FFB9A4;"/>
				<path id="Path_64182" class="st3" d="M396.2,146.5c-1.7,0.3-3.4,0.8-5,1.5c-0.3,0.1-0.3,0.5,0,0.4c1.7-0.7,3.4-1.2,5.2-1.6
					C396.6,146.8,396.5,146.4,396.2,146.5z" style="fill: #F29D8A;"/>
				<path id="Path_64183" class="st3" d="M397,147.5c-1.7,0.3-3.4,0.8-5,1.5c-0.3,0.1-0.3,0.5,0,0.4c1.7-0.7,3.4-1.2,5.2-1.6
					C397.5,147.8,397.3,147.4,397,147.5z" style="fill: #F29D8A;"/>
				<path id="Path_64184" class="st3" d="M397.7,148.6c-1.4,0.2-2.8,0.6-4.1,1.1c-0.2,0.1-0.3,0.5-0.1,0.4c1.4-0.6,2.8-1,4.3-1.2
					C398.1,149,397.9,148.6,397.7,148.6z" style="fill: #F29D8A;"/>
				<path id="Path_64185" class="st2" d="M453.9,159c-1.4-1.2-6,0.4-6.7,1.2c-0.7,0.8-2.5,4.9-6.6,7.5c0,0-3-1.4-4.2-2.2
					c-1.6-0.9-2.6-0.1-3.8,1.4s-1.9,2.9-1.6,3.3c0.3,0.2,0.7,0.2,1,0l0,0c0,0-0.4,1,0,1.3c0.8,0.3,1.2-0.5,1.2-0.5s-0.3,0.9,0.5,0.9
					c0.4,0,1-0.6,1-0.6s-0.3,0.9,0.6,0.7c0.6-0.1,2.2-1.8,2.5-1.7s2.5,2,3.9,1.6c1.4-0.5,8.9-5.7,11-7.7
					C455.1,161.7,455.9,160.7,453.9,159z" style="fill: #FFB9A4;"/>
				<g id="Group_50750" transform="translate(144.385 66.586)">
					<path id="Path_64186" class="st3" d="M287.5,103.8L287.5,103.8c-0.1,0-0.2-0.1-0.2-0.2c0,0,0,0,0,0c0.6-1.4,1.5-2.6,2.8-3.5
						c0.1,0,0.2,0,0.2,0s0,0.2,0,0.2c-1.1,0.9-2,2-2.6,3.3C287.7,103.8,287.6,103.8,287.5,103.8z" style="fill: #F29D8A;"/>
				</g>
				<g id="Group_50751" transform="translate(145.561 67.284)">
					<path id="Path_64187" class="st3" d="M287.5,103.8L287.5,103.8c-0.1,0-0.2-0.1-0.2-0.2c0,0,0,0,0,0c0.6-1.4,1.5-2.6,2.8-3.5
						c0.1-0.1,0.2-0.1,0.2,0c0.1,0.1,0.1,0.2,0,0.2l0,0c-1.1,0.9-2,2-2.6,3.3C287.6,103.8,287.5,103.8,287.5,103.8z" style="fill: #F29D8A;"/>
				</g>
				<g id="Group_50752" transform="translate(147.154 68.31)">
					<path id="Path_64188" class="st3" d="M287.5,103.3L287.5,103.3c-0.1,0-0.2-0.1-0.2-0.2c0,0,0,0,0,0c0.4-1.2,1.3-2.3,2.4-3.1
						c0.1,0,0.2,0,0.2,0s0,0.2,0,0.2l0,0c-1,0.7-1.8,1.7-2.2,2.9C287.7,103.3,287.6,103.3,287.5,103.3z" style="fill: #F29D8A;"/>
				</g>
				<g id="Group_50753" transform="translate(0 63.406)">
					<path id="Path_64189" class="st25" d="M300.3,173.6c-0.4-3.7,0.1-7.5,1.5-11c2.3-5.8-1-8.8,1.3-14.8s2.6-6.1,2.4-10.8
						s1.9-6.5,3.3-11c0.9-2.8,1.3-5.7,1.4-8.6c0.8,2.5,1,5.1,0.8,7.7c-0.2,5-1.5,5.8-1.3,10s0.2,6.6-1.6,10.6
						c-1.8,4-1.7,4.4-1.6,9.1s0.8,8.2-1.5,12.5c-1.5,2.9-2.5,6-3.1,9.2C302,176.4,300.5,175.9,300.3,173.6z" style="fill: #628E9C;"/>
					<path id="Path_64190" class="st25" d="M295.6,172.5c-1.2-3.2-1.5-6.6-1-10c1-5.6-2.9-7.5-1.9-13.3s1.2-6,0-10s0.4-6.1,0.8-10.4
						c0.3-2.6,0.1-5.3-0.5-7.9c1.3,2,2.1,4.3,2.4,6.6c0.8,4.5-0.2,5.4,0.9,9.1s1.6,5.7,0.7,9.7c-0.9,3.9-0.7,4.2,0.4,8.3
						s2.6,7,1.2,11.3c-0.8,2.8-1.2,5.8-1,8.8C296.7,174.5,295.8,173.6,295.6,172.5z" style="fill: #628E9C;"/>
					<path id="Path_64191" class="st25" d="M296.3,170.9c-0.7-4.6-0.6-9.3,0.4-13.8c1.7-7.4-1.9-10.8,0-18.4c1.8-7.6,2-7.9,1.4-13.7
						s1.3-8.2,2.3-14c0.6-3.6,0.8-7.2,0.6-10.8c1,3.1,1.5,6.2,1.5,9.5c0.2,6.3-1,7.3-0.3,12.6s0.8,8.1-0.6,13.3s-1.3,5.6-0.7,11.4
						s1.6,10.1-0.3,15.6c-1.2,3.8-2,7.8-2.2,11.8C298.2,174.2,296.6,173.8,296.3,170.9z" style="fill: #628E9C;"/>
					<path id="Path_64192" class="st26" d="M300.3,175.5c-0.8-2.7-1-5.5-0.5-8.3c0.8-4.5-2-6.3-1.1-11s1-4.8,0.2-8.3s0.4-5,0.8-8.5
						c0.2-2.2,0.2-4.4-0.1-6.5c0.9,1.7,1.4,3.6,1.6,5.6c0.5,3.7-0.3,4.4,0.5,7.5s1.1,4.8,0.3,8c-0.7,3.2-0.6,3.4,0.1,6.8
						s1.7,5.9,0.6,9.3c-0.7,2.3-1,4.8-0.9,7.2C301,177.1,300.4,176.4,300.3,175.5z" style="fill: #6C9AAB;"/>
					<path id="Path_64193" class="st26" d="M294.8,172.2c0,0-2.9-3.3-2.5-9.2c0.3-5.9-0.9-6.7-2.2-10.3c-1.4-3.6,1.6-7.3,0-11
						c-1.6-3.6-3.8-4.4-2.2-9.2s1.9-6.3,1.3-9.8s1.9-9.7,1.9-9.7s-1.1,6.7,0,10.8c1.2,4.1-1.1,6.1,0.1,10.2
						c2.5,8.3,0.6,12.5,2.8,16.6s1.8,7.2,1.4,11.2s1.5,11.9,1.5,11.9C296,173.5,295.2,173,294.8,172.2z" style="fill: #6C9AAB;"/>
					<path id="Path_64194" class="st26" d="M306.3,131.9c-1,5.8,0.1,6.8,1.1,10.5s-2.4,7.1-1.2,11s3.4,4.8,1.2,9.4s-2.6,6.1-2.3,9.6
						s-2.9,9.5-2.9,9.5s1.9-6.6,1.2-10.7c-0.7-4.2,1.8-5.9,1-10.1c-1.6-8.6,0.7-12.5-0.9-16.7c-1.7-4.3-1-7.4-0.1-11.2
						s0.2-20,0.2-20S307.3,126,306.3,131.9z" style="fill: #6C9AAB;"/>
					<path id="Path_64195" class="st27" d="M289.2,171.4c-0.5,1.1,2.3,20.9,3.4,22c1.7,1.7,13,1.3,14.8,0.2s3.9-21.6,3.7-22.6
						S289.7,170.4,289.2,171.4z" style="fill: #EBE3DF;"/>
				</g>
				<path id="Path_64196" class="st28" d="M482.7,170.3v-12.6c0-0.2-0.2-0.3-0.3-0.3s-0.3,0.2-0.3,0.3v12.7
					c-0.2,0.1-0.3,0.4-0.3,0.6v0c0,0.4,0.3,0.7,0.7,0.7c0.4,0,0.7-0.3,0.7-0.7v0C483.1,170.7,482.9,170.4,482.7,170.3z" style="fill: #DECBC5;"/>
				<rect id="Rectangle_21848" x="471.3" y="158.5" class="st28" width="2.3" height="95.1" style="fill: #DECBC5;"/>
				<path id="Path_64197" class="st27" d="M478.9,127.5h-14.5l-6.2,31.7l26.9,0L478.9,127.5z" style="fill: #EBE3DF;"/>
				<path id="Path_64198" class="st28" d="M473.6,249.1h-2.3l-10.3,2.8c-1,0.3-1.7,1.2-1.7,2.2v0.3l26.3,0V254c0-1-0.7-1.9-1.7-2.2
					L473.6,249.1z" style="fill: #DECBC5;"/>
				<path id="Path_64199" class="st19" d="M422.4,118.2c-0.5-0.8-3.5,2.1-3.7,3.4c-0.5,3.3,0,2.6-0.3,5.8c-0.1,1.3,0.8,2.4,1.1,4.9
					c0.1,1-0.4,2-1.2,2.7c0,0-1.8-0.5-2-1.6s-0.1-2.6-0.3-3.4c-0.2-1-1.1-1.6-0.8-3.9c0.3-2.3-1.1-6.2,2.8-9.8s9.9-3.8,13.3-0.7
					s3.9,8.1,3.3,11.1c-0.7,3.2-2.3,3.2-2.2,4.5c0.1,1.3-0.5,1.9-1.6,2.7c-0.5,0.4-1.1,0.7-1.6,1.1c-0.7-0.7-1-1.6-0.9-2.5
					c0-1.9,0.9-2.6,0.3-3.3s-1.9-1.3-1-4.3S425,122.3,422.4,118.2z" style="fill: #C78877;"/>
			</g>
		</g>
	</g>
</g>
</svg>
