<?xml version="1.0" encoding="utf-8"?>
<!-- Generator: Adobe Illustrator 26.0.3, SVG Export Plug-In . SVG Version: 6.00 Build 0)  -->
<svg version="1.1" id="Layer_1" xmlns="http://www.w3.org/2000/svg" xmlns:xlink="http://www.w3.org/1999/xlink" x="0px" y="0px"
	 viewBox="0 0 1369.3 529" style="enable-background:new 0 0 1369.3 529;" xml:space="preserve">
<style type="text/css">
	.st0{fill:#F4E9F0;}
	.st1{fill:#E49FC2;}
</style>
<g>
	<path id="Path_80573" class="st0" d="M1365.5,0c-11.1,29.9-42.2,95.8-129,139.2c-40.7,20.3-81.5,29.7-118.7,35.4
		c-203.1,30.8-289.1-50.7-468.4-41.2c-207.6,10.9-255,128.8-443.7,114.3c-90.9-7-161.7-40.1-202.8-64.4c-0.5,113.1,0.5,193.9,0,307
		h1362.6C1368.3,325.5,1366.5,165.3,1365.5,0z"/>
	<path id="Path_80574" class="st1" d="M1.5,60.1c11.2,34.6,42.4,110.8,129.4,161c40.8,23.5,81.8,34.4,119.2,40.9
		c203.8,35.6,290.2-58.6,470.1-47.7c208.4,12.6,255.9,149,445.3,132.2c91.3-8.1,162.3-46.4,203.6-74.5c0.5,130.8-0.5,126.2,0,257
		H1.5C-1.3,338.5,0.5,251.3,1.5,60.1z"/>
</g>
</svg>
