<svg id="Layer_1" data-name="Layer 1" xmlns="http://www.w3.org/2000/svg" viewBox="0 0 249 185"><defs><style>.cls-1{fill:#d35592;opacity:0.5;}.cls-2{fill:#ef9986;}.cls-3{fill:#1f2144;}.cls-4{fill:#3c857d;}.cls-5{fill:#307870;}.cls-6{fill:#131536;}.cls-7{fill:#80add8;}.cls-8{fill:#813a3b;}.cls-9{fill:#6b9bc9;}</style></defs><path id="Path_67123" data-name="Path 67123" class="cls-1" d="M77.3,22.5C46.1,27.1,13.2,46,12.9,63.7v1c.4,25.2,22.9,37.9,31.6,59.5s-40.9,2.9-8.8,40.3c10.5,10.4,20.6,10.7,85.8,10.8,20.3.3,90.2,12,92.1-32.1-.7-15.7,15.7-62.1,4.7-85.7S169.1,33.4,156,21C134.1.1,119.7,16.2,77.3,22.5Z"/><path class="cls-2" d="M119.6,43.3a5.2,5.2,0,0,0-2.9-2,11.4,11.4,0,0,0-7.5.4l-1.4.5a2.7,2.7,0,0,0-1.6.4c-3.7,2.8-4.8,7.5-4.9,11.9s.3,6.4,5.4,8.3c3.5,1.4,9.1,4,11.3.2a18,18,0,0,0,2-4.7,3,3,0,0,0,2.4-2.4c.3-1.1-1-4.6-1-5.8a28.1,28.1,0,0,1,1.4-6C123,42.3,121,43.3,119.6,43.3Z"/><path class="cls-2" d="M109.7,61.7c-.8-1.3-2.5-1.9-3.6-3.1s-2.1-2.7-3.3-4h-.2c.6-2.3,1.1-4.7,1.5-7a.8.8,0,0,0-1.6-.3,53.8,53.8,0,0,1-3.4,12.5c-1.4,3.3-3.1,6.5-4.4,9.9a.8.8,0,0,0,.3,1,.8.8,0,0,0,1.3.8h-.1a.8.8,0,0,0,.8,1.1.8.8,0,0,0,1.4.7.7.7,0,0,0,1.2-.2v-.2a2.4,2.4,0,0,0,.2.8.8.8,0,0,0,1.2.3,1.1,1.1,0,0,0,1.1.6h.3a.8.8,0,0,0,1.5.7l.3-.5.4-.4a78.4,78.4,0,0,0,5-11.5v-.2A.9.9,0,0,0,109.7,61.7Z"/><path class="cls-2" d="M148.4,101c-.1-4.7-1.4-18.1-1.6-22.8,0-.8-1.6,2.3-2,2.8s-8.8.6-8.7,1.6c.4,4.6,1.5,14.4,1.5,14.4s4.6,1.4,6.6,1.3h.2a2.6,2.6,0,0,0,2.4-.8S148.4,101.6,148.4,101Z"/><path class="cls-3" d="M170.2,72.9c-2.9-.9-6.9.1-9.6-6.9-2.1-5.5-7.3-7.6-11.9-7.9s-10.5.9-8.7,5.7a2.5,2.5,0,0,0,2.1,1.6c.6,3.2,1.2,6.4,1.9,9.7a1.9,1.9,0,0,0,2,1.7,8.3,8.3,0,0,0,.4,1.5c-.9.2.5.6.4,1.8-.4,5.7-2.1,12.1,1.5,16.8s7.6,6.4,12.4,5.3,6.6-4,8.2-8.1,4.2-3.1,6.1-5.3a10,10,0,0,0,2.3-5.5A10.2,10.2,0,0,0,170.2,72.9Z"/><path class="cls-2" d="M146.5,80.5a9.3,9.3,0,0,1,1.6-1.8c1.2-1.4,2.5-3.6,1-5.2s-2.3-.1-3.7-2.1a4,4,0,0,1-.2-2.4c.1-.7.6-1.4.6-2.1s-1.3-3.7-2.3-5a6,6,0,0,0-2.7-1.8,8.5,8.5,0,0,0-3.2,3.3c-.7,1.1-1.1,3-1.9,4.2a10,10,0,0,1-2.1,2c-1,.6-2.1,1-2.6,1.9s-.1,1.5,1.1,2.5c-.4,1-.9,2.5-1.2,3.5-1,3.4-1.3,4.8,2.8,5.9C145.7,86.5,146,81.3,146.5,80.5Z"/><path class="cls-4" d="M174.7,175.8c-2-3.6-3.1-12.7-4.7-16.4a57.9,57.9,0,0,0-11.9-18.2c-2.7-2.8-5.7-5.2-8.5-7.8,0-10.3,5.9-20.1,4.4-30.5s-15.4-12.5-20.1-8.5c-6.3,5.5-9.5,10.6-10.3,19.3s1.5,14.3,2.8,23c-1.8,11.7-6.7,28.1-2,38.8,0,0,35.3,2.7,44.2,1Z"/><path class="cls-3" d="M113.6,175.3c0-12.8-.7-25.1-2.4-33.9.9-9.3-11.3-5.4-14.1-3.6s-6.8,5.1-10.5,4.6h-.5c-.7-1.5-3.7-1.2-3.9,1a161.1,161.1,0,0,0-.6,31.8Z"/><path class="cls-5" d="M149.3,131.9c-6.8,2.2-13.7,3.8-20.8,3.5-1.1-.1-1.1,1.5,0,1.6,7.3.3,14.3-1.3,21.2-3.5C150.7,133.2,150.3,131.6,149.3,131.9Z"/><path class="cls-5" d="M154.9,168.3a.8.8,0,0,0-1.6.5"/><path class="cls-6" d="M106.8,147.6c0-1-1.7-.9-1.6.1"/><path class="cls-7" d="M111.2,104.2c0-18.3-1.9-19.9-3.8-22s-.9-1.7-1.6-6.3c.8-1.3-8.9-10.1-9.6-9.9-7,2.1-12.6,11.7-14.2,15-3.7,7.6-6,20.7-6.8,29.1s-.3,18.7.7,28-1.2,15.3,5,21.4a2.1,2.1,0,0,0,2.5.7c4.6-1.5,7.6-5.3,11.8-7.6a22,22,0,0,1,8.7-2.6c2-.2,7.1-2.3,9-3.1S111.2,105.5,111.2,104.2Z"/><path class="cls-2" d="M151.7,129.3c-1.1-.5-2.4-.2-3.6-.6a4.6,4.6,0,0,1-1.5-.9,153,153,0,0,0-22-15.5L112.1,98.8c-1.8-1.9-3.5-4.3-4.8-5s-9.6,4.6-8.6,5.9c6.9,9.1,19.2,19,24.9,23.2s14.7,6.4,22.1,8.9c1.3,1.2.8,2.7,2.2,3.8a3.1,3.1,0,0,0,4.6-.7C154.6,131.4,154,130.3,151.7,129.3Z"/><path class="cls-2" d="M96,60.8c0,.3,8.7,21.9,18.6,31.2s16,13,24.4,15.7c6.7,2.1,8.5-6.4,4.6-8.8-5.7-3.6-17.2-8.2-22.6-12.3C117.4,84,99.8,58.8,99.7,58.8a10,10,0,0,0-2.6-3.1c-.4-.4-2.4-2.5-4.3-1.4s-1.3,1.6,0,3.4A15.8,15.8,0,0,0,96,60.8Z"/><path class="cls-8" d="M124.9,41.7c-.2-.4-1-.7-1.1-1.8s1.1-1.9.3-3.2-3.1-2.7-5-3.3-6.1-.3-9.1-1.2-2.8-1.5-4.8-1.3c-12.4,1.5-5.8,17.2-5.7,24.3,0,.5,0,2.1.7,2.3,3,.8,4.1.4,5.2-.6s.5-4.5,3.1-5.3,2.7.2,3.4-.3c2.7-2.1-.4-5.6,4.6-6.5,2.8-.6,6.8,4.6,8.5.2A4.7,4.7,0,0,0,124.9,41.7Z"/><path class="cls-9" d="M97.6,98.5c-3.1,2.6-6.5-6.2-7.1-7.7-1.5-3.5-3.1-7.4-2.2-11.3a.8.8,0,0,0-1.6-.4c-1.3,5.6,1.7,11.8,4.4,16.7s3.6,7.2,7.6,3.8C99.5,99,98.4,97.8,97.6,98.5Z"/><path class="cls-4" d="M146.7,101.6a1.1,1.1,0,0,0-.8-.8,3.7,3.7,0,0,1-.1-1.1.8.8,0,0,0-.8-.8,1,1,0,0,0-.7-.2h0a.7.7,0,0,0-.8-.7,3.8,3.8,0,0,0,.1-1c0-.9-1.4-1.2-1.6-.2s-.2-.1-.3,0v-.4c-.1-.5-.4-.8-.8-.8a.4.4,0,0,1-.1-.3.8.8,0,0,0-1.6.2v.3a6,6,0,0,0-1.8-2.1c-.9-.6-1.7.8-.8,1.4,2.4,1.9,2,5.1,2.2,7.8s.6,2.1-.9,3.6-1.5,1.1-3.1,1.6a.9.9,0,0,0-.2,1.5,4.7,4.7,0,0,0,5.8,0v.3a.9.9,0,0,0,1.1.8,1.9,1.9,0,0,0,1.2-1.3c.5,0,.9-.2.9-.8v-.7a.8.8,0,0,0,.7-.4,1.4,1.4,0,0,0,.2-.7.8.8,0,0,0,.8-.2c.1,1,1.6,1,1.6,0Z"/></svg>