<svg xmlns="http://www.w3.org/2000/svg" xmlns:xlink="http://www.w3.org/1999/xlink" width="342" height="283" viewBox="0 0 342 283">
  <defs>
    <clipPath id="clip-path">
      <rect id="Rectangle_22186" data-name="Rectangle 22186" width="342" height="283" transform="translate(735 1339)" fill="#888a95" stroke="#707070" stroke-width="1"/>
    </clipPath>
  </defs>
  <g id="Mask_Group_196" data-name="Mask Group 196" transform="translate(-735 -1339)" clip-path="url(#clip-path)">
    <g id="SA-Family-Illustration" transform="translate(274.718 1099.877)">
      <g id="Group_50560" transform="translate(30.275 282.995) rotate(-97)" opacity="0.751">
        <path id="Path_41656" d="M-51.661,533.9c0-45.525-20.058-95.34-45-98.375a8.942,8.942,0,0,0-1.32-.132c-35.761-3.167-58.457,27.315-90.787,36.618s-12.272-59.447-71.983-18.87c-17.023,13.46-46.581,42.095-27.315,124.832-6.862,61.822-15.175,130.572,37.014,133.739,22.3,1.385,84.651,31.736,120.346,19.464,35.431-12.206,44.206-66.969,64.659-83.991C-31.8,618.684-51.661,595.724-51.661,533.9Z" fill="#e3eded"/>
      </g>
      <g id="parent-SA" transform="translate(-450.994 -86.719)">
        <path id="Path_64774" d="M1098.61,410.255l-19.464,15.109L1058.3,435.921s-9.435-.2-10.227,2.243c-1.122,3.5,5.344,5.08,7.258,4.487s5.014-3.695,5.014-3.695l23.027-7.258s17.682-7.39,20.387-11.414C1106.4,416.325,1104.878,407.22,1098.61,410.255Z" fill="#f6b690"/>
        <g id="Group_51049" transform="translate(556.728 125.061)">
          <g id="Group_51046">
            <path id="Path_64775" d="M525.652,306.141a13.208,13.208,0,0,1-2.045,1.781c-1.056.66-4.816.2-4.816.2l-8.049,3.1c0,1.781,3.761,3.233,8.841,2.243a73.892,73.892,0,0,0,7.324-1.781l6.2-6.334Z" fill="#f6b690"/>
            <path id="Path_64776" d="M506.98,266.422a25.766,25.766,0,0,1,8.841,2.573c4.75,2.309,18.936,12.074,23.224,17.154,6.268,7.456-10.095,25.468-10.095,25.468l-4.685-6.07s7.72-11.084,5.476-14.449-14.977-10.755-14.977-10.755C508.959,271.3,506.98,266.422,506.98,266.422Z" fill="#d1eaed"/>
            <path id="Path_64777" d="M479.269,272.03s1.122-3.365,11.414-4.618c8.445-.792,9.3-.66,9.3-.66s5.806-.528,7.324-.2c1.913.4,6.466,3.365,8.577,13.2s3.629,29.822,3.629,29.822-14.119,4.091-34.573,1.32a81.467,81.467,0,0,0-1.122-16.3C482.568,284.962,476.96,277.308,479.269,272.03Z" fill="#b7dddf"/>
            <path id="Path_64778" d="M515.623,415.929l.858,7.258,2.771,3.431,7.522-3.233-.594-1.188-1.715-23.159Z" fill="#f4a086"/>
            <path id="Path_64779" d="M506.188,303.3l5.08.264,4.091-3.3s7.522-1.254,8.247-.594-.066,6.928-1.386,7.192-6.8.924-6.8.924l-3.5-.792a70.933,70.933,0,0,1-11.216,1.056C493.52,308.318,506.188,303.3,506.188,303.3Z" fill="#f6b690"/>
            <path id="Path_64780" d="M480.391,270.71c6.466-.528,8.445,15.571,6.928,26.589C495.1,300,508.3,302.38,508.3,302.38l.132,6.664s-24.544,1.781-30.02-4.025S472.341,271.37,480.391,270.71Z" fill="#d1eaed"/>
            <path id="Path_64781" d="M488.506,415.929l-1.386,11.084-2.243-.4-6.6-3.233.594-1.188,1.715-23.159Z" fill="#f4a086"/>
            <path id="Path_64782" d="M519.582,309.638l1.518,3.5,3.5,56.874,1.979,46.581H513.71l-7.785-48.3-10.952-52.519,4.553-4.882Z" fill="#222954"/>
            <path id="Path_64783" d="M517.471,297.894l-2.969,3.233,1.913.528a8.643,8.643,0,0,0,1.715-2.441.907.907,0,0,0-.4-1.254A.5.5,0,0,0,517.471,297.894Z" fill="#f6b690"/>
            <path id="Path_64784" d="M506.98,310.825s-1.122,21.047-4.487,46.251c-2.705,20.321-7.192,43.348-12.008,59.909H476.828s5.41-99.034,5.806-101.871a6.525,6.525,0,0,1,2.243-4.157Z" fill="#0a3c5f"/>
            <path id="Path_64785" d="M516.085,422.329l-.924,8.577h30.218a4.779,4.779,0,0,0-1.715-4.289c-2.111-1.518-5.41-.264-8.115-1.518s-6-5.542-9.237-5.146-1.649,4.882-4.684,5.014c-2.573.066-2.507-1.649-3.893-2.375a2.605,2.605,0,0,0-1.385-.264Z" fill="#135759"/>
            <path id="Path_64786" d="M515.359,428.8l-.264,2.111h30.218a5.623,5.623,0,0,0-.2-2.111Z" fill="#20afab"/>
            <path id="Path_64787" d="M467.855,430.907h20.981l-.858-8.511h-.858s-.858,3.365-2.375,3.365-2.507-4.421-5.212-4.421-1.452,2.243-4.816,3.959S467.855,426.618,467.855,430.907Z" fill="#135759"/>
            <path id="Path_64788" d="M468.448,428.663a3.4,3.4,0,0,0-.594,2.243h20.981l-.264-2.243Z" fill="#20afab"/>
            <path id="Path_64789" d="M474.452,426.486a9.044,9.044,0,0,0-5.014.99,3.769,3.769,0,0,0-1.649,3.5h12.206C480.061,430.907,479.533,426.618,474.452,426.486Z" fill="#018a89"/>
            <path id="Path_64790" d="M489.957,256.261a105.114,105.114,0,0,1,.594,11.876c2.309,2.111,7.456,1.715,9.9-.594a36.793,36.793,0,0,1-.264-9.9s-7.785-2.573-7.917-2.573S489.957,256.261,489.957,256.261Z" fill="#f4a086"/>
            <path id="Path_64791" d="M491.277,251.313s.132,6.994.594,8.247,5.872,6.268,10.491,6,3.959-13.922,3.365-16.825c-5.344-1.386-13.2-1.386-13.2-1.386Z" fill="#f6b690"/>
            <path id="Path_64792" d="M505.4,240.294s2.441.2,2.375,6-10.623,6.136-13.526,3.629c-.594,3.563-4.487,5.938-4.487,5.938s-5.938-8.775-2.9-12.536c.924-1.122,2.9-.594,2.9-.594s-.066-3.167,4.816-3.563c4.816-.4,7.39,2.9,9.237,2.705S505.4,240.294,505.4,240.294Z" fill="#222954"/>
            <path id="Path_64793" d="M491.211,253.094a1.507,1.507,0,0,0-2.045-.858c-1.056.594-.99,1.518-.66,2.639.4,1.122,1.649,2.837,2.573,2.441C492,256.987,492,255.007,491.211,253.094Z" fill="#f6b690"/>
          </g>
          <g id="Group_51047" transform="translate(24.139 15.136)">
            <path id="Path_64794" d="M501.174,253.358l-.264,8.445-5.476-.4.33-7.654Z" fill="#f4a086"/>
            <path id="Path_64795" d="M499.788,249.993s.924,7.126-3.1,9.435-6.6.99-7.324-.2-2.309-4.157-2.045-5.212.726-1.913.594-2.309-1.649-3.629-.066-5.674,8.379-3.167,10.161-1.452C499.854,246.364,499.788,249.993,499.788,249.993Z" fill="#f6b690"/>
            <path id="Path_64796" d="M487.12,245.507a9.223,9.223,0,0,1,6.73-6.07c5.344-1.122,10.491.528,11.348,3.629.4-1.583.99-.528.4.132-.066,1.254-5.608,5.476-13.921,4.816a1.607,1.607,0,0,0,.4-1.056,4.938,4.938,0,0,1-3.629.4c1.517-.792,1.32-1.056,1.32-1.056S487.12,247.354,487.12,245.507Z" fill="#222954"/>
            <path id="Path_64797" d="M489.562,310.759l1.913,4.289-.066,1.649-2.507.462.2-.858-3.893-6.664Z" fill="#f6b690"/>
            <path id="Path_64798" d="M504.539,243.263s2.309.132,2.375,2.969-.462,4.684-2.375,6.4a12.072,12.072,0,0,1-3.431,2.309l-3.827-2.441a10.839,10.839,0,0,1,.33-4.816C498.4,245.77,504.539,243.263,504.539,243.263Z" fill="#222954"/>
            <path id="Path_64799" d="M500.646,309.044l1.715,5.014-.066,1.649-2.507.462.2-.858-3.893-6.664Z" fill="#f6b690"/>
            <path id="Path_64800" d="M489.694,282.125s-.4-12.272.132-15.373,3.365-5.872,8.313-6,7.719,5.41,8.643,9.039,1.386,12.932,1.386,12.932Z" fill="#fdac47"/>
            <path id="Path_64801" d="M508.168,282.719s1.188,4.948-1.254,8.643-8.049,7.72-8.049,7.72a107.218,107.218,0,0,1,2.9,12.074,33.807,33.807,0,0,1-4.289,1.649s-7.72-13.724-7.917-16.033,8.511-12.4,8.511-12.4l2.9-1.847Z" fill="#018a89"/>
            <path id="Path_64802" d="M478.015,262.661l-2.243-.99a5.856,5.856,0,0,1-2.441-3.695c-1.188.66-.132,2.045-.594,2.177s-4.289-2.045-4.816-1.649.924,4.816,2.177,5.344a16.375,16.375,0,0,0,4.487.462l2.507,1.254Z" fill="#f6b690"/>
            <path id="Path_64803" d="M505,282.653s1.847,10.754-13.658,12.338c-6.136.726-6.73.528-6.73.528s2.639,3.827,5.872,15.835c-2.177,1.452-3.695,2.441-3.695,2.441s-12.4-15.241-11.216-21.377,14.119-10.293,14.119-10.293Z" fill="#20afab"/>
            <path id="Path_64804" d="M477.355,261.539l-2.573,4.223,10.952,5.806,11.282-.066s3.563-2.243,2.771-6.268-5.608-3.629-5.608-3.629l-7.456,3.695Z" fill="#fdd247"/>
            <path id="Path_64805" d="M483.821,322.24a4.131,4.131,0,0,1-.2-1.781c.2-.726,4.816-5.344,4.816-5.344s1.583.66,1.979.462.66-1.518.66-1.518l.594.2,1.913,2.837Z" fill="#018a89"/>
            <path id="Path_64806" d="M495.764,320.326a4.131,4.131,0,0,1-.2-1.781c.2-.726,3.695-4.421,3.695-4.421s1.583.66,1.979.462.726-1.583.726-1.583l.594.264,1.781,2.837Z" fill="#018a89"/>
            <ellipse id="Ellipse_2437" cx="1.452" cy="1.715" rx="1.452" ry="1.715" transform="translate(498.007 251.709)" fill="#f6b690"/>
          </g>
          <g id="Group_51048" transform="translate(42.899 52.442)">
            <path id="Path_64807" d="M482.766,253.688a13.209,13.209,0,0,1-2.045,1.781c-1.056.66-4.816.2-4.816.2l-8.049,3.1c0,1.781,3.761,3.233,8.841,2.243a73.888,73.888,0,0,0,7.324-1.781l6.2-6.334Z" fill="#f6b690"/>
            <path id="Path_64808" d="M489.034,239.107c-1.32,8.247-7.654,13.987-7.654,13.987l4.684,6.07s10.623-11.678,11.48-20.123h-8.511Z" fill="#d1eaed"/>
          </g>
        </g>
        <g id="Group_51050" transform="translate(557.352 215.749)">
          <path id="Path_64809" d="M491.673,262.133l.264,3.695H486.79l-.33-7.72-.726-3.959,4.025-1.583Z" fill="#f4a086"/>
          <path id="Path_64810" d="M498.4,248.08a24.123,24.123,0,0,1,0,5.344,4.536,4.536,0,0,0,.132,2.111c.858,2.837.792,7.522-3.167,7.72-4.487.264-8.115-2.441-8.445-6.664s1.32-11.282,1.32-11.282l7.917.66Z" fill="#f6b690"/>
          <path id="Path_64811" d="M485.669,244.715a6.734,6.734,0,0,0-7.851-2.507c-5.08,1.715-5.278,7.917-3.761,11.876s6.664,12.206,3.959,14.119c6-.858,7.258-6.532,5.41-12.6s-2.111-10.952-.066-10.095S485.669,244.715,485.669,244.715Z" fill="#222954"/>
          <path id="Path_64812" d="M512.324,252.236l.66-1.715s.33-5.74,1.056-6.07,3.1,2.573,2.9,4.75a13.044,13.044,0,0,1-1.847,2.573l-.792,1.979Z" fill="#f4a086"/>
          <path id="Path_64813" d="M487.384,256.921l-.858,1.188s-6.928-1.715-6.466-8.907c.33-5.014,4.355-4.684,4.553-4.355,0,0,.4-5.542,7.324-5.806s9.171,5.41,8.511,9.963c-3.695,1.122-7.785-1.254-9.633.66S489.5,255.733,487.384,256.921Z" fill="#222954"/>
          <path id="Path_64814" d="M511.862,251.247,505.2,260.88l-12.008,5.014,3.563,8.247,13-8.247s5.872-12.536,5.872-12.47S511.862,251.247,511.862,251.247Z" fill="#20afab"/>
          <ellipse id="Ellipse_2438" cx="1.452" cy="1.979" rx="1.452" ry="1.979" transform="translate(485.603 253.424)" fill="#f6b690"/>
          <path id="Path_64815" d="M492.992,265.762h-6.862c-4.75,3.035-2.9,12.932-3.035,17.682,2.705,0,4.948-.066,14.845,0C498.007,272.756,496.027,267.675,492.992,265.762Z" fill="#018a89"/>
          <path id="Path_64816" d="M479.6,319.8a58.335,58.335,0,0,0,21.311-2.705c11.216-3.629.924-11.414.924-11.414Z" fill="#135759"/>
          <path id="Path_64817" d="M482.832,286.941l13.2-.2-9.9,27.513s-.4,5.674-1.056,7.522-3.365,15.7-3.365,15.7h-3.167s.924-20.651,1.979-24.544C480.72,305.085,482.832,286.941,482.832,286.941Z" fill="#f6b690"/>
          <path id="Path_64818" d="M483.1,282.323v1.122c2.705,0,4.948-.066,14.845,0v-1.122Z" fill="#20afab"/>
          <path id="Path_64819" d="M492.926,286.743h5.542L501.7,312.8l-.528,24.478-3.035,1.056-.858-.792c0-5.938-3.1-19.068-2.111-22.367-1.386-5.146-7.851-19.926-7.851-19.926Z" fill="#f6b690"/>
          <path id="Path_64820" d="M483.1,283.51a20.736,20.736,0,0,1-2.507,8.577c-1.517,2.969-8.379,12.14-6.6,26.194,10.689,6.07,19.86-7.258,27.975-7.785,3.629-.33,4.157,1.781,4.157,1.781a69.4,69.4,0,0,0-1.781-10.359c-1.979-7.588-6.2-14.449-6.466-18.408H483.1Z" fill="#018a89"/>
          <path id="Path_64821" d="M481.842,337.085l.66,3.167h-6.994a2.35,2.35,0,0,1,1.583-1.979c1.452-.33.792-1.254,1.583-1.386s.99.66,1.979.66S481.842,337.085,481.842,337.085Z" fill="#0a3c5f"/>
          <path id="Path_64822" d="M496.885,337.349l-.33,2.9h10.886a2.35,2.35,0,0,0-1.583-1.979c-1.452-.33-3.563-.726-4.487-1.386-.66-.462-1.583.66-2.573.66A8.957,8.957,0,0,1,496.885,337.349Z" fill="#0a3c5f"/>
          <path id="Path_64823" d="M474.123,290.438l-1.056,3.035.264,5.278s-.264,1.715-1.32,1.781-4.157-3.167-4.157-4.091,2.507-3.893,2.507-3.893l.858-2.771Z" fill="#f6b690"/>
          <path id="Path_64824" d="M475.706,339.46a1.756,1.756,0,0,0-.2.792H482.5l-.132-.792Z" fill="#222954"/>
          <path id="Path_64825" d="M496.621,339.46l-.066.792h10.886l-.2-.792Z" fill="#222954"/>
          <path id="Path_64826" d="M487.648,266.554c2.969,2.177-1.979,10.491-9.567,14.713-2.9,7.654-4.355,11.348-4.355,11.348l-4.157-1.188s2.309-10.557,4.553-14.647C478.015,272.1,483.492,263.519,487.648,266.554Z" fill="#20afab"/>
        </g>
        <g id="Group_51051" transform="translate(600.349 144.549)">
          <path id="Path_64827" d="M515.1,257.185c.99,3.5,6.8,4.882,10.689,14.515s.528,24.808-11.612,24.346-20.651-5.344-23.093-13.658,7.983-16.957,8.445-24.412,10.095-7.785,10.095-7.785Z" fill="#222954"/>
          <path id="Path_64828" d="M493.388,246.364s-.924,3.167.066,4.684a5.065,5.065,0,0,0,3.3,1.781l.858-6.928Z" fill="#161c3a"/>
          <path id="Path_64829" d="M509.157,255.865a63.636,63.636,0,0,0,.132,9.237,50.72,50.72,0,0,1-6.334,0l.33-7.72Z" fill="#f4a086"/>
          <path id="Path_64830" d="M496.159,245.507s-1.452,7.456.264,12.734,3.893,5.014,5.278,4.882a9.015,9.015,0,0,0,6.73-6.73c2.837-2.111,4.157-4.091,3.3-7.917-1.122-4.882-5.278-6.862-9.765-6.466C498.535,242.406,496.159,245.507,496.159,245.507Z" fill="#f6b690"/>
          <path id="Path_64831" d="M477.949,344.409s1.254,14.977,32.461,16.693,24.808-19.134,24.808-19.134Z" fill="#fdac47"/>
          <path id="Path_64832" d="M500.778,245.309c-1.452,2.177-9.039.528-7.324,5.674-2.705-3.167-.99-8.973,3.893-11.084s10.227-.066,10.82,3.365c2.969-1.452,5.146-.264,6,1.781.858,2.177-.132,7.72,1.056,12.536s-5.278,0-5.278,0l-1.188-2.969C508.827,254.612,501.108,252.83,500.778,245.309Z" fill="#222954"/>
          <path id="Path_64833" d="M505.528,264.706c9.963,0,13.262,2.9,14.515,5.014s.99,5.938.2,8.973-7.39,16.495-3.1,21.641h-19.4a86.915,86.915,0,0,0-1.649-17.814c-1.847-8.247-1.649-14.977,2.045-16.759C501.174,264.31,505.528,264.706,505.528,264.706Z" fill="#fdd247"/>
          <path id="Path_64834" d="M497.809,300.269c-1.847,16.759-10.227,54.432-10.227,54.432s.792,20.255-3.695,50.276c1.517,4.684,4.091,2.177,4.091,2.177a2.878,2.878,0,0,0,1.847-2.837c.858-18.474,11.942-39.851,9.237-46.647,2.045-6.268,26.853-39.059,16.033-57.4Z" fill="#f6b690"/>
          <path id="Path_64835" d="M500.316,300.269s1.583,23.422,14.053,58.325c-.132,15.109,9.567,36.156,8.511,44.931,3.365-.528,3.563,5.014,3.365-.528-.66-18.342,3.827-28.569-.66-45.327,1.254-21.311,3.827-40.709-8.379-57.4Z" fill="#f6b690"/>
          <path id="Path_64836" d="M497.809,300.269s-3.3,36.816-19.86,44.14c5.938,21.179,39.455.99,49.616.528,8.775-.4,7.39,5.872,7.39,5.872a13.774,13.774,0,0,0,.726-2.837,45.139,45.139,0,0,0-1.122-17.088c-2.771-10.293-17.352-30.614-17.352-30.614Z" fill="#fdd247"/>
          <path id="Path_64837" d="M484.085,403.459c-1.122-.264-1.913,3.695-7.785,4.421a3.928,3.928,0,0,0-3.431,3.5h19.6L490.353,403s-.726-.264-.99-.066-1.847,2.243-3.3,2.375S484.085,403.459,484.085,403.459Z" fill="#018a89"/>
          <path id="Path_64838" d="M473.2,410.255a6.18,6.18,0,0,0-.264,1.056h19.6l-.264-1.056Z" fill="#0a3c5f"/>
          <path id="Path_64839" d="M523.013,401.81c.2-.792,2.837-1.188,3.167,0,.99,3.629,3.1,4.157,3.3,9.567H519.054C518.922,406.1,521.5,406.89,523.013,401.81Z" fill="#018a89"/>
          <path id="Path_64840" d="M519.054,410.189c0,.33-.066.726-.066,1.188h10.425c0-.4-.066-.792-.066-1.188Z" fill="#0a3c5f"/>
          <path id="Path_64841" d="M512.654,267.873c-2.507,1.781-14.647,27.975-14.647,27.975l-18.276,15.7a44.5,44.5,0,0,1-6.664,2.507c-1.913.33-5.476,3.629-5.212,4.882s3.695,4.289,8.775,2.177,3.563-4.816,5.938-6.334,20.453-12.866,20.453-12.866,15.967-21.707,17.946-26.787C522.881,270.117,517.009,264.838,512.654,267.873Z" fill="#f6b690"/>
          <path id="Path_64842" d="M507.772,254.414s.066-2.111,1.056-2.111,1.649.924,1.583,2.111-1.122,2.573-2.045,2.507C507.772,256.789,507.772,254.414,507.772,254.414Z" fill="#f6b690"/>
        </g>
      </g>
    </g>
  </g>
</svg>
