<svg xmlns="http://www.w3.org/2000/svg" xmlns:xlink="http://www.w3.org/1999/xlink" width="342" height="283" viewBox="0 0 342 283">
  <defs>
    <clipPath id="clip-path">
      <rect id="Rectangle_22155" data-name="Rectangle 22155" width="342" height="283" transform="translate(735 1319)" fill="#888a95" stroke="#707070" stroke-width="1"/>
    </clipPath>
  </defs>
  <g id="Mask_Group_176" data-name="Mask Group 176" transform="translate(-735 -1319)" clip-path="url(#clip-path)">
    <g id="AP-Family-Illustration" transform="translate(432.203 1200.298)">
      <g id="Group_50560" transform="translate(30.273 282.978) rotate(-97)" opacity="0.747">
        <path id="Path_41656" d="M87.032,392.316c0-45.479-20.031-95.333-44.982-98.365l-1.342-.149c-35.737-3.131-58.4,27.288-90.76,36.582s-12.277-59.4-72.022-18.888c-17,13.47-46.573,42.149-27.288,124.857-6.859,61.782-15.16,130.523,37.03,133.7C-90.015,571.4-27.685,601.77,8,589.493c35.439-12.178,44.187-66.952,64.665-84C106.914,477.062,87.032,454.049,87.032,392.316Z" fill="#e3eded"/>
      </g>
      <g id="parent-AP" transform="translate(-73.012 -238.431)">
        <g id="Group_51028" transform="translate(264.737 369.46)">
          <path id="Path_64601" d="M330.184,156.667s-3.38,6.014-3.032,9.344,4.175,5.716,7.157,5.169a55.253,55.253,0,0,1,8.5-.4s1.292-9-.1-10.488a22.106,22.106,0,0,1-5.368,1.789c-.149-.149,3.579-6.76.746-10.985C335.2,146.776,330.184,156.667,330.184,156.667Z" fill="#cc524c"/>
          <path id="Path_64602" d="M352.253,167.6s.547-1.441,1.292-1.243,1.094,1.292,1.889,1.988,3.33,1.392,2.684,1.988-5.318.348-6.014.149C351.358,170.237,352.253,167.6,352.253,167.6Z" fill="#80cfd4"/>
          <path id="Path_64603" d="M337.789,156.966s-3.38,6.014-3.032,9.344,1.541,4.175,4.573,4.275c3.479.1,13.221,0,13.221,0s.646-2.734-.746-4.175a50.846,50.846,0,0,1-8.251-1.044c-.149-.149,4.921-9.742,2.088-14.017C342.809,147.124,337.789,156.966,337.789,156.966Z" fill="#f15f46"/>
          <path id="Path_64604" d="M328.842,136.885s6.263.646,10.338,4.125,7.356,9.344,7.356,9.344a11.979,11.979,0,0,1-8.649,7.555c-6.809,1.541-8,0-8,0s-1.789-2.088-3.231-3.728-3.231-3.28-4.175-6.462a11.476,11.476,0,0,0-2.137-4.424s.05-.895,1.938-2.286C324.22,139.569,328.842,136.885,328.842,136.885Z" fill="#fa9837"/>
          <path id="Path_64605" d="M319.7,145.086s-.5,5.915-.6,11.333-.994,13.669-.994,13.669h2.386a59.209,59.209,0,0,0,3.529-13.47c.7-6.462,1.094-12.028,1.094-12.028Z" fill="#ffcaa6"/>
          <path id="Path_64606" d="M318.106,153.635s.5-5.964,1.243-8.052c1.143-3.231,1.491-4.076,4.97-2.436s.5,11.084.5,11.084A8.873,8.873,0,0,1,318.106,153.635Z" fill="#fa9837"/>
          <path id="Path_64607" d="M322.132,141.359s.944,3.579,3.728,3.231,3.231-6.014,2.833-7.108S322.132,141.359,322.132,141.359Z" fill="#f2b186"/>
          <g id="Group_51027" transform="translate(3.188 1.508)">
            <path id="Path_64608" d="M310.452,129.628c.646,6.014,5.12,11.382,9.792,10.885,4.722-.5,7.9-6.71,7.257-12.774-.646-6.014-4.921-9.543-9.593-9C313.186,119.24,309.756,123.564,310.452,129.628Z" fill="#ffcaa6"/>
          </g>
          <path id="Path_64609" d="M331.725,147.572a57.18,57.18,0,0,1,.944,10.885,113.58,113.58,0,0,1-1.044,11.631h2.386a32.2,32.2,0,0,0,3.529-11.432,61.3,61.3,0,0,0,0-12.078Z" fill="#ffcaa6"/>
          <path id="Path_64610" d="M331.626,153.437s-.845-7.356-.895-9.593,1.591-4.672,5.12-3.231c3.579,1.441,3.28,12.774,3.28,12.774S334.509,155.127,331.626,153.437Z" fill="#fa9837"/>
          <path id="Path_64611" d="M332.222,169.59a6.736,6.736,0,0,0-2.535-.3c-.6.249-2.485,2.187-2.187,2.187a1.986,1.986,0,0,0,.895-.348s-.646.646-.4.7a3.781,3.781,0,0,0,1.044-.4s-.447.5-.2.6.845-.4.845-.4-.4.5.1.447,1.044-.746,1.243-.845a5.082,5.082,0,0,0,1.988-.149c.944-.4.994-.994.994-.994A1.948,1.948,0,0,0,332.222,169.59Z" fill="#ffcaa6"/>
          <path id="Path_64612" d="M318.653,169.491a6.736,6.736,0,0,0-2.535-.3c-.6.249-2.485,2.187-2.187,2.187a2.233,2.233,0,0,0,.895-.348s-.646.646-.4.7a3.781,3.781,0,0,0,1.044-.4s-.447.5-.2.6.845-.4.845-.4-.4.5.1.447,1.044-.746,1.243-.845a5.082,5.082,0,0,0,1.988-.149c.895-.4.994-.994.994-.994A1.948,1.948,0,0,0,318.653,169.491Z" fill="#ffcaa6"/>
          <path id="Path_64613" d="M337.889,153.785l.845-.249a28.7,28.7,0,0,0-.4-8.748,33.922,33.922,0,0,1,1.74,12.426,9.53,9.53,0,0,1-2.386.746S337.789,155.773,337.889,153.785Z" fill="#ed8629"/>
          <path id="Path_64614" d="M332.521,153.834l-.746-.348s-.249-4.225-.746-7.8a108.681,108.681,0,0,1,0,12.724,4.6,4.6,0,0,0,1.64.149A37.768,37.768,0,0,0,332.521,153.834Z" fill="#ed8629"/>
          <path id="Path_64615" d="M325.214,152.542a30.59,30.59,0,0,1-3.082-5.467,25.034,25.034,0,0,1,.5,7.505,6.426,6.426,0,0,0,2.187-.2C325.015,153.437,325.214,152.542,325.214,152.542Z" fill="#ed8629"/>
          <path id="Path_64616" d="M324.816,126.895a6.491,6.491,0,0,0,.249,4.225c.994,2.038,2.336,2.982,2.585,4.374s1.889,2.883,3.33.2a7.854,7.854,0,0,0,.6-6.611c-.6-1.143-.547-3.827-1.292-5.815a6.7,6.7,0,0,0-7.157-4.473c-4.374.249-5.07,2.088-7.406,2.933-2.386.895-4.324,1.591-5.219,4.871-.895,3.231,1.193,4.622,1.889,5.666s.547,3.231,2.883,4.424c-1.044-3.628-1.093-4.573.149-5.915s1.69-.447,4.871-1.243A8.02,8.02,0,0,0,324.816,126.895Z" fill="#51495b"/>
        </g>
        <path id="Path_64617" d="M513.245,483.72a2.383,2.383,0,0,0,.994-1.64,12.981,12.981,0,0,0-.348-3.827l4.97-.5A11.814,11.814,0,0,0,520,479.794a1.651,1.651,0,0,0,1.342.447s2.585,3.579-2.485,5.02C513.841,486.7,513.245,483.72,513.245,483.72Z" fill="#ffcaa6"/>
        <path id="Path_64618" d="M513.245,483.72s1.839,2.585,5.666,1.094,2.336-4.523,2.336-4.523a7.463,7.463,0,0,1,2.783-.1c1.591.249,2.734,6.362,2.734,6.362l.447,38.67s-20.379,2.088-29.127-6.064c5.865-11.382,11.183-16.7,12.873-22.168,1.69-5.517-.5-12.178-.5-12.178Z" fill="#efe6e8"/>
        <path id="Path_64619" d="M524.925,482.925l-.4-.994a34.1,34.1,0,0,0-4.921,7.754c-1.591,3.877-6.312,5.169-6.312,5.169l-3.032,3.877-1.392,2.634a3.508,3.508,0,0,0,3.181,1.889c2.485.1,3.827,2.038,3.678,6.064a114.336,114.336,0,0,1-1.69,12.525l9.99,1.839Z" fill="#e0d5d8"/>
        <g id="Group_51030" transform="translate(190.229 319.915)">
          <path id="Path_64620" d="M371.886,176.3s7.207,21.373,5.915,29.673-5.915,7.356-5.915,7.356-2.386-4.374-3.231-4.125,2.883-5.467-3.777-24.256S371.886,176.3,371.886,176.3Z" fill="#ffcaa6"/>
          <path id="Path_64621" d="M346.239,158.8l3.628-8.7,8.052,3.628s-1.143,5.567-1.094,5.766a11.986,11.986,0,0,0,1.839,1.243s2.336,7.7-5.766,7.953C344.8,168.895,346.239,158.8,346.239,158.8Z" fill="#ffcaa6"/>
          <path id="Path_64622" d="M346.239,158.8s1.938,8.748,7.654,8.3,4.772-6.362,4.772-6.362,7.754,3.976,9.593,7.654-3.579,16.4-3.38,23.411a88.387,88.387,0,0,0,1.441,13.072,33.985,33.985,0,0,1-18.788,4.225c-10.289-.944-13.47-1.889-13.47-1.889s-7.207-20.677-4.921-32.556C331.427,162.831,337.938,158.8,346.239,158.8Z" fill="#f15f46"/>
          <path id="Path_64623" d="M321.337,218.7s-12.178-2.833-10.935-11.432c1.292-8.6,16.054-8.251,30.27-2.187s21.572,4.175,21.572,4.175l-5.418,8.847Z" fill="#6dc4c6"/>
          <path id="Path_64624" d="M327.848,220.189h33.5l-14.514-6.809s-17-10.289-26.94-6.163C310.1,211.242,315.472,218.748,327.848,220.189Z" fill="#80cfd4"/>
          <path id="Path_64625" d="M366.22,212.734s17-10.289,26.94-6.163,4.125,11.83-8.847,13.072c-12.923,1.193-32.854,0-32.854,0Z" fill="#80cfd4"/>
          <path id="Path_64626" d="M342.312,175.555s-2.485,13.52,3.33,25.4,11.183,13.022,11.183,13.022l-1.292,4.424A32.819,32.819,0,0,1,335.2,200.954c-6.511-14.116-4.97-26.293-4.97-26.293Z" fill="#ffcaa6"/>
          <path id="Path_64627" d="M364.878,137.531c0,8.748-4.175,17.3-9.295,17.446-5.169.149-9.295-8.251-9.295-17s4.175-14.613,9.295-14.712S364.878,128.783,364.878,137.531Z" fill="#ffcaa6"/>
          <g id="Group_51029" transform="translate(43.542 75.498)">
            <path id="Path_64628" d="M312.589,144.689h28.878a2.983,2.983,0,0,0,2.237-2.883v-20.18a2.938,2.938,0,0,0-2.933-2.933H313.335a2.938,2.938,0,0,0-2.933,2.933h0v20.18A2.847,2.847,0,0,0,312.589,144.689Z" fill="#51495b"/>
          </g>
          <path id="Path_64629" d="M349.569,150.852s1.69,2.734,3.728,3.628a6.618,6.618,0,0,0,4.523,0l-.3,1.491a12.08,12.08,0,0,1-5.318,2.088,13.2,13.2,0,0,1-5.368-.646Z" fill="#f2b186"/>
          <path id="Path_64630" d="M364.977,220.189l-9.1-1.789-7.654.994v.845Z" fill="#51495b"/>
          <path id="Path_64631" d="M367.512,167.2a32.682,32.682,0,0,1,4.324,7.157,91.577,91.577,0,0,1,3.827,11.531l-10.537,2.535a127.386,127.386,0,0,0,2.237-13.172A54.457,54.457,0,0,0,367.512,167.2Z" fill="#cc524c"/>
          <path id="Path_64632" d="M330.135,186.341h13.37l1.094-16.4-14.464,3.33S328.4,181.37,330.135,186.341Z" fill="#f15f46"/>
          <path id="Path_64633" d="M341.915,186.341h.895s-.447-9.941.646-14.563a53.9,53.9,0,0,0,10.438,30.27v7.058a26.839,26.839,0,0,1-3.877-.8C349.271,207.266,341.915,198.717,341.915,186.341Z" fill="#cc524c"/>
          <path id="Path_64634" d="M334.509,163.179a25.769,25.769,0,0,0-4.374,12.277c-.7,7.456,0,10.885,0,10.885h.7s2.088,11.034,5.716,17.1c-1.094-.4-4.225-1.292-4.225-1.292a57.534,57.534,0,0,1-4.026-22.814C328.842,167.105,334.509,163.179,334.509,163.179Z" fill="#cc524c"/>
          <path id="Path_64635" d="M364.878,138.525a42.9,42.9,0,0,0,2.038-10.587c.2-5.368-3.678-8.45-8.3-9.146s-7.953,1.591-10.637,1.64c-2.684.1-6.014-.5-7.157,3.678-1.193,4.175,1.789,7.008,1.889,9.295s-1.392,6.561-.149,9,1.789,3.827,5.467,5.07c-.249-3.628,1.69-5.915,2.137-8.9s.05-5.07,2.237-6.163,2.137,1.74,7.008.994C364.232,132.66,365.126,133.456,364.878,138.525Z" fill="#51495b"/>
          <path id="Path_64636" d="M363.188,220.189l20.08-25.9h-6.71l-22.715,22.715v3.181Z" fill="#443d4f"/>
        </g>
        <g id="Group_51031" transform="translate(196.179 340.001)">
          <path id="Path_64638" d="M310.551,130.076c.994,5.964,5.716,11.084,10.388,10.338s7.505-7.157,6.561-13.122c-.994-5.964-5.418-9.245-10.09-8.5C312.689,119.588,309.557,124.111,310.551,130.076Z" fill="#ffcaa6"/>
        </g>
        <path id="Path_64639" d="M510.412,484.764s-2.237,1.491-2.187,3.579c.1,2.038,1.143,13.022,4.772,13.569s11.233-6.809,11.233-6.809l-.845-1.74s-7.555,3.38-8.7,2.734S514.438,487.1,510.412,484.764Z" fill="#ffcaa6"/>
        <path id="Path_64640" d="M523.036,493.562s.6-.895.994-1.541c.4-.6,1.044-1.292,1.093-1.044.05.2-.8,1.591-.7,1.591s1.74-1.094,1.74-.845-1.044,1.143-.944,1.143,1.193-.895,1.193-.6-.845.895-.845.994,1.342-.149,1.143.149-.994.4-1.093.646a3.07,3.07,0,0,1-1.342,1.292C523.583,495.6,523.036,493.562,523.036,493.562Z" fill="#ffcaa6"/>
        <path id="Path_64641" d="M523.633,480.092s.994,1.988,1.292,2.833c.6-.547,1.889-1.541,1.889-1.541S524.975,479.943,523.633,480.092Z" fill="#ffcaa6"/>
        <path id="Path_64642" d="M532.381,478.9s-.05-.5.3-.547a.473.473,0,0,1,.447.2c.05,0,.149-.3.4-.3s.447.249.5.249.149-.3.4-.2c.3.1.348.2.348.2.1-.05.249-.05.3.05.1.149.1.746-.1.845-.2.05-.249-.249-.3-.249s-.2.3-.4.348-.3-.3-.348-.249c-.05,0-.3.3-.5.249-.2,0-.249-.348-.3-.3a.911.911,0,0,1-.5.348C532.331,479.545,532.331,479.048,532.381,478.9Z" fill="#ffcaa6"/>
        <path id="Path_64643" d="M514.239,480.191a5.786,5.786,0,0,0,3.181.149,5.351,5.351,0,0,0,2.286-1.044l.348.447s-.348,1.143-2.485,1.938a4.481,4.481,0,0,1-3.28.249A5.078,5.078,0,0,0,514.239,480.191Z" fill="#f2b186"/>
        <path id="Path_64644" d="M515.581,463.044a24.575,24.575,0,0,0,5.318,4.026,5.305,5.305,0,0,1,2.833,4.622,17.376,17.376,0,0,0,.547-5.766,9.258,9.258,0,0,0-10.985-7.853c-7.356,1.292-8.5,7.008-8.5,9.245s.3,7.406,2.783,9.742a11.035,11.035,0,0,0,5.716,2.634,12.2,12.2,0,0,1-1.74-6.412C511.455,469.406,515.034,467.517,515.581,463.044Z" fill="#51495b"/>
        <path id="Path_64645" d="M507.032,461.95a6.258,6.258,0,0,0-5.815-3.728c-4.225.149-5.269,4.175-6.263,7.456-1.044,3.33-5.12,3.877-4.424,8.7s6.213,6.909,9.593,4.473c3.43-2.435,1.591-7.853,1.591-12.973s3.28-4.97,4.821-2.783C507.976,463.242,507.032,461.95,507.032,461.95Z" fill="#51495b"/>
        <g id="Group_51032" transform="translate(153.609 395.278)">
          <path id="Path_64646" d="M312.937,133.505a13.088,13.088,0,0,1,13.072-13.072h0a13.4,13.4,0,0,1,6.014,1.441,13.074,13.074,0,0,0-17.1,19.782,14.35,14.35,0,0,0,2.535,1.74A13.074,13.074,0,0,1,312.937,133.505Z" fill="#c9e9f4"/>
          <path id="Path_64647" d="M315.323,134.947a13.091,13.091,0,0,1,17.446-12.327c-.249-.249-.547-.547-.8-.746a13.067,13.067,0,0,0-14.563,21.472,15.362,15.362,0,0,0,1.591.7A13.028,13.028,0,0,1,315.323,134.947Z" fill="#fff"/>
          <path id="Path_64648" d="M331.725,123.664a10.372,10.372,0,0,1,2.137.2,10.922,10.922,0,0,0-.994-1.143A13.072,13.072,0,0,0,319.1,144.142a17.134,17.134,0,0,0,2.286.6,13.119,13.119,0,0,1,2.436-18.341,12.61,12.61,0,0,1,7.9-2.734Z" fill="#acdbe8"/>
          <path id="Path_64649" d="M336.5,131.766a13.114,13.114,0,0,0-2.684-7.953,14.844,14.844,0,0,0-2.137-.2,13.085,13.085,0,0,0-10.388,21.025,14.843,14.843,0,0,0,2.137.2A13.088,13.088,0,0,0,336.5,131.766Z" fill="#c9e9f4"/>
        </g>
        <g id="Group_51033" transform="translate(313.814 392.664)">
          <path id="Path_64650" d="M322.083,120.532s7.207-.1,8.947,4.772-1.292,8.2-8.7,7.9-7.7-4.424-7.356-7.654C315.224,122.272,318.255,120.433,322.083,120.532Z" fill="#c9e9f4"/>
          <path id="Path_64651" d="M328.2,122.322s-.149-3.231,2.783-2.137,2.038,3.827-.646,3.877A7.3,7.3,0,0,0,328.2,122.322Z" fill="#c9e9f4"/>
          <path id="Path_64652" d="M318.255,121.576s.1-3.131-2.634-2.833-2.684,3.28-1.789,4.275a2.908,2.908,0,0,0,2.485.7Z" fill="#c9e9f4"/>
          <path id="Path_64653" d="M318.951,132.064s-3.131,5.368-3.479,9-.1,5.964,6.959,5.964,9.444-1.292,9.742-4.473c.348-3.181-5.617-10.488-5.617-10.488Z" fill="#c9e9f4"/>
          <path id="Path_64654" d="M327.451,133.9s7.9-.547,8.1,1.591-7.058,0-7.058,0Z" fill="#c9e9f4"/>
          <path id="Path_64655" d="M318.255,133.654s-6.064.6-6.959,2.187,1.74,3.131,6.809-.944C319.945,133.8,318.255,133.654,318.255,133.654Z" fill="#c9e9f4"/>
          <path id="Path_64656" d="M328.644,145.633s4.424,2.386,6.76,1.789,1.093-2.783-.547-3.082-4.772-.547-4.772-.547Z" fill="#c9e9f4"/>
          <path id="Path_64657" d="M318.4,145.633s-4.424,2.386-6.76,1.789-1.094-2.783.547-3.082,4.772-.547,4.772-.547Z" fill="#c9e9f4"/>
          <circle id="Ellipse_2434" cx="2.485" cy="2.485" r="2.485" transform="translate(320.393 126.497)" fill="#fff"/>
          <path id="Path_64658" d="M325.363,125.7a.392.392,0,0,0-.4-.4.366.366,0,0,0-.4.4.392.392,0,0,0,.4.4h0A.392.392,0,0,0,325.363,125.7Z" fill="#fff"/>
          <path id="Path_64659" d="M321.536,125.453a.392.392,0,0,0-.4-.4.366.366,0,0,0-.4.4.392.392,0,0,0,.4.4h0C321.387,125.8,321.536,125.652,321.536,125.453Z" fill="#fff"/>
          <path id="Path_64660" d="M331.079,122.123a.895.895,0,1,0-.895.895A.891.891,0,0,0,331.079,122.123Z" fill="#fff"/>
          <path id="Path_64661" d="M316.963,121.427a.895.895,0,1,0-.895.895A.834.834,0,0,0,316.963,121.427Z" fill="#fff"/>
          <path id="Path_64662" d="M320.343,138.724s-1.591,5.418,3.131,5.418c4.722-.05,3.479-4.473,2.187-6.909C324.319,134.8,321.586,134.9,320.343,138.724Z" fill="#fff"/>
          <path id="Path_64663" d="M322.679,127.392s1.143-.05,1.292.348-1.094.7-1.094.7-.994-.1-1.143-.6C321.635,127.392,322.679,127.392,322.679,127.392Z" fill="#c9e9f4"/>
          <path id="Path_64664" d="M321.188,129.032a1.636,1.636,0,0,0,1.69,1.044c1.342,0,1.64-.845,1.64-.994,0-.1-.149-.1-.2.05a1.605,1.605,0,0,1-1.491.746,1.817,1.817,0,0,1-1.441-.944C321.287,128.833,321.138,128.883,321.188,129.032Z" fill="#c9e9f4"/>
          <path id="Path_64665" d="M322.828,128.386v1.591h.2l-.05-1.591Z" fill="#c9e9f4"/>
        </g>
      </g>
    </g>
  </g>
</svg>
