<?xml version="1.0" encoding="utf-8"?>
<!-- Generator: Adobe Illustrator 26.0.3, SVG Export Plug-In . SVG Version: 6.00 Build 0)  -->
<svg version="1.1" id="Layer_1" xmlns="http://www.w3.org/2000/svg" xmlns:xlink="http://www.w3.org/1999/xlink" x="0px" y="0px"
	 viewBox="0 0 342 283" enable-background="new 0 0 342 283" xml:space="preserve">
<g id="Mask_Group_172" transform="translate(-755 -1315)">
	<g id="FA-Family-Illustration" transform="translate(467.11 1192.221)">
		<g id="Group_50560" transform="translate(30.273 282.972) rotate(-97)" opacity="0.75">
			<path id="Path_41656" fill="#E3EDED" d="M84.8,377c0-45.5-20-95.3-45-98.4l-1.3-0.1c-35.7-3.1-58.4,27.3-90.8,36.6
				c-32.4,9.3-12.3-59.4-72-18.9c-17,13.5-46.6,42.1-27.3,124.9c-6.9,61.8-15.2,130.5,37,133.7c22.3,1.3,84.6,31.7,120.3,19.4
				c35.4-12.2,44.2-67,64.7-84C104.7,461.7,84.8,438.8,84.8,377z"/>
		</g>
		<g id="Mask_Group_128" transform="translate(66.433 32.175)">
			<g id="parents" transform="translate(0.017 29.14)">
				<path id="Path_64121" fill="#FFB9A4" d="M431.2,156.9c0,0,1.1,3.7-0.3,6c-0.9,1.5-4.6,0.3-5.1,2.5c-1,4.3,4.1,12.2,4.1,12.4
					c-0.2,2.9,18.5-13.9,18.5-13.9s-7.1-0.2-8.8-1.7c-1.4-1.2-1.7-6.1-1.7-6.1L431.2,156.9z"/>
				<path id="Path_64122" fill="#F29D8A" d="M431.6,158.5c0.1,0.7,0.1,1.5,0,2.2c0,0,4,0.7,6.8-1.4c0,0-0.4-2.8-0.4-3.7
					S431.6,158.5,431.6,158.5z"/>
				<path id="Path_64123" fill="#FFB9A4" d="M441.1,149.4c-1.8,7.1-6,10-8.6,9.7c-1.4-0.1-4.1-2.3-5.4-9.7c-0.9-5.2,3.1-9.5,7-9.5
					S442.4,144.3,441.1,149.4z"/>
				<path id="Path_64124" fill="#FFAC8B" d="M336.5,269.9c0.1,1.2,0.1,2.5,0,3.7c0,0,0.9,0.8,3.3,0s2-1.3,2-1.3l0.1-3.1L336.5,269.9
					z"/>
				<path id="Path_64125" fill="#FFAC8B" d="M351.4,267.2c0,0,0.1,3.5,0,5.3c0,0,0.9,0.5,3.3-0.2s2-1.3,2-1.3l0.1-3.1L351.4,267.2z"
					/>
				<path id="Path_64126" fill="#414052" d="M332.7,203c0,0,1.2,20.4,1.1,30.1s-0.8,26.8,2.2,37c0,0,3.5,2.9,7.1-1
					c0,0,1.2-14.7,2.4-24.3c1.2-9.6,3.2-25.3,3.2-25.3l0,21c0,7.9,2.6,27.5,2.6,27.5s3.7,2.6,6.7,0.6c0,0,0.8-16.5,2.9-30.8
					c2.1-14.3,1.6-36.4,1.1-40.2c-0.4-3.7-17.3-5.9-21.1-4C337.1,195.4,332.4,198,332.7,203z"/>
				<g id="Group_50744" transform="translate(38.354 74.831)">
					<g id="Group_50741">
						<path id="Path_64127" fill="#515063" d="M295.9,124.3c-0.2,0-0.3-0.1-0.3-0.3c-0.1-0.4-0.1-0.7-0.1-0.7c0-0.2,0.1-0.4,0.3-0.4
							c0.2,0,0.4,0.1,0.4,0.3l0.1,0.7C296.4,124.1,296.2,124.3,295.9,124.3L295.9,124.3L295.9,124.3z"/>
					</g>
					<g id="Group_50742" transform="translate(0.372 2.209)">
						<path id="Path_64128" fill="#515063" d="M298.1,191.2c-0.2,0-0.3-0.1-0.3-0.3c-0.1-0.4-0.2-0.9-0.3-1.5c0-0.2,0.1-0.4,0.3-0.4
							c0.2,0,0.4,0.1,0.4,0.3l0,0c0.1,0.5,0.2,1,0.3,1.4C298.5,190.9,298.4,191.1,298.1,191.2C298.1,191.1,298.1,191.2,298.1,191.2z
							 M297.5,188.2c-0.2,0-0.3-0.1-0.3-0.3c0-0.5-0.1-1-0.2-1.5c0-0.2,0.1-0.4,0.3-0.4c0.2,0,0.4,0.1,0.4,0.3l0,0
							c0,0.5,0.1,1,0.2,1.5c0,0.2-0.1,0.3-0.2,0.4C297.6,188.2,297.6,188.2,297.5,188.2L297.5,188.2L297.5,188.2z M297.2,185.2
							c-0.2,0-0.3-0.1-0.3-0.3c0,0,0,0,0,0l-0.1-1.5c0-0.2,0.1-0.4,0.3-0.4s0.4,0.1,0.4,0.3c0,0,0,0,0,0l0,0l0.1,1.5
							C297.6,185,297.4,185.2,297.2,185.2C297.2,185.2,297.2,185.2,297.2,185.2L297.2,185.2z M296.9,182.2c-0.2,0-0.3-0.1-0.3-0.3
							c0,0,0,0,0,0c0-0.5,0-1-0.1-1.5c0-0.2,0.1-0.4,0.3-0.4l0,0c0.2,0,0.4,0.1,0.4,0.3l0,0c0,0.5,0,1,0.1,1.5
							C297.3,182,297.1,182.2,296.9,182.2z M296.7,179.2c-0.2,0-0.3-0.1-0.3-0.3c0,0,0,0,0,0c0-0.5,0-1,0-1.5c0-0.2,0.1-0.4,0.3-0.4
							s0.4,0.1,0.4,0.3c0,0,0,0,0,0l0,0c0,0.5,0,1,0,1.5C297.1,179,297,179.2,296.7,179.2C296.8,179.2,296.7,179.2,296.7,179.2
							L296.7,179.2z M296.6,176.2c-0.2,0-0.3-0.1-0.3-0.3c0,0,0,0,0,0c0-0.5,0-1,0-1.5c0-0.2,0.1-0.4,0.3-0.4c0.2,0,0.4,0.2,0.4,0.3
							l0,0c0,0.5,0,1,0,1.5C297,176,296.8,176.2,296.6,176.2C296.6,176.2,296.6,176.2,296.6,176.2z M296.5,173.2
							c-0.2,0-0.3-0.1-0.3-0.3c0,0,0,0,0,0c0-0.5,0-1,0-1.5c0-0.2,0.1-0.4,0.3-0.4s0.4,0.1,0.4,0.3c0,0,0,0,0,0c0,0.5,0,1,0,1.5
							C296.9,173,296.7,173.2,296.5,173.2L296.5,173.2z M296.5,170.2c-0.2,0-0.3-0.1-0.3-0.3c0,0,0,0,0,0l0,0v-1.5
							c0-0.2,0.2-0.4,0.4-0.4s0.4,0.2,0.4,0.4l0,0v1.5C296.8,170,296.7,170.2,296.5,170.2L296.5,170.2z M296.5,167.2
							c-0.2,0-0.3-0.1-0.3-0.3c0,0,0,0,0,0l0,0v-1.5c0-0.2,0.2-0.4,0.4-0.3c0.2,0,0.3,0.2,0.3,0.4v1.5
							C296.8,167,296.7,167.1,296.5,167.2L296.5,167.2z M296.5,164.2c-0.2,0-0.3-0.1-0.3-0.3c0,0,0,0,0,0l0,0v-1.5
							c0-0.2,0.2-0.4,0.4-0.3c0.2,0,0.3,0.2,0.3,0.4l0,0v1.5C296.8,164,296.7,164.1,296.5,164.2L296.5,164.2z M296.5,161.1
							c-0.2,0-0.3-0.1-0.3-0.3c0,0,0,0,0,0l0,0c0-0.5,0-1,0-1.5c0-0.2,0.2-0.4,0.4-0.3c0.2,0,0.4,0.2,0.4,0.4c0,0,0,0,0,0
							c0,0.5,0,1,0,1.5C296.9,161,296.7,161.1,296.5,161.1L296.5,161.1z M296.6,158.2c-0.2,0-0.3-0.1-0.3-0.3c0,0,0,0,0,0l0,0
							c0-0.5,0-1,0-1.5c0-0.2,0.2-0.4,0.4-0.4c0.2,0,0.4,0.2,0.4,0.4c0,0,0,0,0,0c0,0.5,0,1,0,1.5
							C296.9,158,296.8,158.1,296.6,158.2L296.6,158.2z M296.6,155.1c-0.2,0-0.3-0.1-0.3-0.3c0,0,0,0,0,0l0,0c0-0.5,0-1,0-1.5
							c0-0.2,0.1-0.3,0.3-0.3c0,0,0,0,0,0l0,0c0.2,0,0.4,0.2,0.3,0.4l0,0c0,0.5,0,1,0,1.5C297,155,296.9,155.1,296.6,155.1
							L296.6,155.1z M296.7,152.1c-0.2,0-0.3-0.1-0.3-0.3c0,0,0,0,0,0l0,0c0-0.5,0-1,0-1.5c0-0.2,0.1-0.3,0.3-0.3c0,0,0,0,0,0l0,0
							c0.2,0,0.4,0.2,0.3,0.4l0,0c0,0.5,0,1,0,1.5C297.1,151.9,296.9,152.1,296.7,152.1L296.7,152.1z M296.9,149.1
							c-0.2,0-0.3-0.1-0.4-0.3c0,0,0-0.1,0-0.1l0,0l0-1.5c0-0.2,0.2-0.4,0.4-0.3c0.2,0,0.3,0.2,0.3,0.4l0,1.5
							C297.2,149,297.1,149.1,296.9,149.1L296.9,149.1z M297,146.1c-0.2,0-0.4-0.2-0.4-0.4c0,0,0,0,0,0l0,0l0-1.5
							c0-0.2,0.2-0.4,0.4-0.3c0.2,0,0.4,0.2,0.4,0.4c0,0,0,0,0,0l0,0l0,1.5C297.3,145.9,297.2,146.1,297,146.1z M297.1,143.1
							c-0.2,0-0.4-0.2-0.4-0.4c0,0,0,0,0,0l0,0l0-1.5c0-0.2,0.2-0.4,0.4-0.4c0.2,0,0.4,0.2,0.4,0.4c0,0,0,0,0,0l0,0l0,1.5
							C297.5,143,297.3,143.1,297.1,143.1L297.1,143.1z M297.2,140.1c-0.2,0-0.3-0.1-0.3-0.3c0,0,0,0,0,0l0,0v-1.5
							c0-0.2,0.2-0.4,0.3-0.4l0,0c0.2,0,0.4,0.2,0.4,0.3v1.5C297.6,139.9,297.4,140.1,297.2,140.1
							C297.2,140.1,297.2,140.1,297.2,140.1z M297.1,137.1c-0.2,0-0.3-0.1-0.3-0.3c0,0,0,0,0,0c0-0.5,0-1,0-1.5
							c0-0.2,0.2-0.4,0.4-0.4c0.2,0,0.4,0.1,0.4,0.3l0,0c0,0.5,0,1,0,1.5C297.5,136.9,297.4,137.1,297.1,137.1
							C297.1,137.1,297.1,137.1,297.1,137.1L297.1,137.1z M297,134.1c-0.2,0-0.3-0.1-0.3-0.3c0,0,0,0,0,0c0-0.5,0-1-0.1-1.5
							c0-0.2,0.2-0.4,0.4-0.4c0.2,0,0.4,0.1,0.4,0.3c0,0.5,0.1,1,0.1,1.5C297.4,133.9,297.2,134,297,134.1
							C297,134.1,297,134.1,297,134.1L297,134.1z M296.7,131.1c-0.2,0-0.3-0.1-0.3-0.3c0,0,0,0,0,0l-0.1-1.5c0-0.2,0.1-0.4,0.3-0.4
							s0.4,0.1,0.4,0.3c0,0,0,0,0,0l0.1,1.5C297.1,130.9,297,131.1,296.7,131.1C296.7,131.1,296.7,131.1,296.7,131.1L296.7,131.1z
							 M296.4,128.1c-0.2,0-0.3-0.1-0.3-0.3c0,0,0,0,0,0c0-0.5-0.1-1-0.2-1.5c0-0.2,0.1-0.4,0.3-0.4c0.2,0,0.4,0.1,0.4,0.3
							c0,0.5,0.1,1,0.2,1.5C296.8,127.8,296.7,128,296.4,128.1C296.4,128.1,296.4,128.1,296.4,128.1L296.4,128.1z M296,125.1
							c-0.2,0-0.3-0.1-0.3-0.3c-0.1-0.5-0.1-1-0.2-1.5c0-0.2,0.1-0.4,0.3-0.4c0.2,0,0.4,0.1,0.4,0.3l0,0l0,0c0,0.4,0.1,0.9,0.2,1.5
							c0,0.2-0.1,0.3-0.2,0.4C296.2,125.1,296.2,125.1,296,125.1L296,125.1C296.1,125.1,296.1,125.1,296,125.1L296,125.1z"/>
					</g>
					<g id="Group_50743" transform="translate(2.879 71.223)">
						<path id="Path_64129" fill="#515063" d="M296.1,124.3c-0.2,0-0.3-0.1-0.3-0.2c0-0.2-0.1-0.5-0.2-0.7c-0.1-0.2,0.1-0.4,0.2-0.5
							s0.4,0.1,0.5,0.3c0,0.2,0.1,0.5,0.2,0.7c0.1,0.2,0,0.4-0.2,0.4c0,0,0,0,0,0C296.2,124.3,296.1,124.3,296.1,124.3z"/>
					</g>
				</g>
				<g id="Group_50745" transform="translate(53.524 96.145)">
					<path id="Path_64130" fill="#515063" d="M298.9,172.2c-0.2,0-0.3-0.1-0.3-0.3c0,0,0,0,0,0l-0.1-1.5c0-0.2,0.2-0.4,0.4-0.4
						c0.2,0,0.4,0.1,0.4,0.3l0.1,1.5C299.2,172,299.1,172.2,298.9,172.2L298.9,172.2z M298.6,169.3c-0.2,0-0.3-0.1-0.3-0.3
						c0,0,0,0,0,0l-0.1-1.5c0-0.2,0.1-0.4,0.3-0.4s0.4,0.1,0.4,0.3c0,0,0,0,0,0l0.1,1.5C299,169.1,298.8,169.2,298.6,169.3
						L298.6,169.3z M298.3,166.3c-0.2,0-0.3-0.1-0.3-0.3c0,0,0,0,0,0l-0.1-1.5c0-0.2,0.1-0.4,0.3-0.4s0.4,0.1,0.4,0.3c0,0,0,0,0,0
						l0.1,1.5C298.7,166.1,298.5,166.3,298.3,166.3C298.3,166.3,298.3,166.3,298.3,166.3L298.3,166.3z M298,163.4
						c-0.2,0-0.3-0.1-0.3-0.3c0,0,0,0,0,0l-0.1-1.5c0-0.2,0.2-0.4,0.4-0.4c0.2,0,0.4,0.1,0.4,0.3l0.1,1.5
						C298.4,163.2,298.2,163.4,298,163.4C298,163.4,298,163.4,298,163.4L298,163.4z M297.7,160.4c-0.2,0-0.3-0.1-0.3-0.3
						c0,0,0,0,0,0l-0.1-1.5c0-0.2,0.2-0.4,0.4-0.4c0.2,0,0.4,0.1,0.4,0.3l0.1,1.5C298.1,160.2,298,160.4,297.7,160.4L297.7,160.4z
						 M297.5,157.5c-0.2,0-0.3-0.1-0.3-0.3c0,0,0,0,0,0l-0.1-1.5c0-0.2,0.1-0.4,0.3-0.4s0.4,0.1,0.4,0.3c0,0,0,0,0,0l0,0l0.1,1.5
						C297.8,157.3,297.7,157.5,297.5,157.5L297.5,157.5z M297.2,154.5c-0.2,0-0.3-0.1-0.3-0.3c0,0,0,0,0,0c0-0.5-0.1-1-0.1-1.5
						c0-0.2,0.1-0.4,0.3-0.4s0.4,0.1,0.4,0.3c0,0,0,0,0,0l0,0c0.1,0.5,0.1,1,0.1,1.5C297.6,154.3,297.4,154.5,297.2,154.5
						L297.2,154.5z M297,151.5c-0.2,0-0.3-0.1-0.3-0.3c0,0,0,0,0,0c0-0.5,0-1-0.1-1.5c0-0.2,0.2-0.4,0.4-0.4c0.2,0,0.4,0.1,0.4,0.3
						l0,0c0,0.4,0,0.9,0.1,1.5C297.4,151.4,297.2,151.5,297,151.5C297,151.5,297,151.5,297,151.5L297,151.5z M296.8,148.6
						c-0.2,0-0.3-0.1-0.3-0.3c0,0,0,0,0,0c0-0.5,0-1,0-1.5c0-0.2,0.1-0.4,0.3-0.4s0.4,0.1,0.4,0.3c0,0,0,0,0,0l0,0c0,0.5,0,1,0,1.5
						C297.2,148.4,297,148.6,296.8,148.6L296.8,148.6z M296.8,145.6c-0.2,0-0.3-0.1-0.3-0.3c0,0,0,0,0,0l0,0v-1.5
						c0-0.2,0.2-0.4,0.4-0.4s0.4,0.2,0.4,0.4l0,0v1.4C297.1,145.4,297,145.6,296.8,145.6L296.8,145.6z M296.8,142.7
						c-0.2,0-0.3-0.1-0.3-0.3c0,0,0,0,0,0l0,0v-1.5c0-0.2,0.2-0.4,0.4-0.4c0,0,0,0,0,0c0.2,0,0.3,0.1,0.3,0.4l0,0v1.5
						C297.1,142.5,297,142.6,296.8,142.7L296.8,142.7z M296.8,139.7c-0.2,0-0.3-0.1-0.3-0.3c0,0,0,0,0,0l0,0l0-1.5
						c0-0.2,0.2-0.4,0.4-0.4c0.2,0,0.4,0.2,0.4,0.4c0,0,0,0,0,0l0,1.5C297.2,139.6,297,139.7,296.8,139.7L296.8,139.7z M296.9,136.7
						c-0.2,0-0.3-0.1-0.3-0.3c0,0,0,0,0,0l0,0v-1.5c0-0.2,0.2-0.4,0.4-0.3c0.2,0,0.3,0.2,0.3,0.4v1.5
						C297.2,136.6,297.1,136.7,296.9,136.7L296.9,136.7z M296.9,133.8c-0.2,0-0.3-0.1-0.3-0.3c0,0,0,0,0,0l0,0V132
						c0-0.2,0.2-0.4,0.3-0.4c0.2-0.1,0.3,0.1,0.4,0.3v1.5C297.2,133.6,297.1,133.8,296.9,133.8L296.9,133.8z M296.8,130.8
						c-0.2,0-0.3-0.1-0.3-0.3c0,0,0,0,0,0l0-0.7c0-0.2,0-0.5,0-0.7c0-0.2,0.1-0.4,0.3-0.4s0.4,0.1,0.4,0.3c0,0,0,0,0,0l0,0
						c0,0.5,0.1,1,0.1,1.5C297.2,130.7,297,130.8,296.8,130.8L296.8,130.8z M296.7,127.9c-0.2,0-0.3-0.1-0.3-0.3c0,0,0,0,0,0
						c0-0.5-0.1-1-0.1-1.4c0-0.2,0.2-0.4,0.4-0.4c0.2,0,0.4,0.1,0.4,0.3l0,0c0.1,0.4,0.1,0.9,0.1,1.5
						C297.1,127.7,296.9,127.8,296.7,127.9L296.7,127.9z M296.3,125c-0.2,0-0.3-0.1-0.3-0.3c0-0.4-0.2-0.8-0.3-1.1
						c-0.1-0.1-0.2-0.2-0.1-0.4c0-0.2,0.2-0.3,0.4-0.3c0.2,0.1,0.5,0.2,0.8,1.6c0,0.2-0.1,0.4-0.3,0.4
						C296.4,125,296.4,125,296.3,125L296.3,125z"/>
				</g>
				<path id="Path_64131" fill="#7B6683" d="M339.4,147.5c0,0,1.2,1.7-3.8,3.5c-5.1,1.7-9.6,5.3-10.6,8.7s4.9,18,5.3,20.2
					s0.1,15.4,0.4,18.7s2,4,2,4c1.1-2.1,3.5-3.2,5.8-2.9c4.3,0.3,7.7,3.2,14.9,1.9s9.1-3.9,9.1-3.9s-0.7-8.7-0.5-13.8
					s0.4-29.4,0.4-29.4c-1.6-1.4-3.5-2.4-5.5-3c-3.6-1-4.9-2.9-5.1-3.2S339.3,147.2,339.4,147.5z"/>
				<path id="Path_64132" fill="#FFAC8B" d="M340.1,148.5c1.1,2,3.2,3.4,5.5,3.8c4,0.7,5.5-1.2,6.4-3.8S340.1,148.5,340.1,148.5z"/>
				<path id="Path_64133" fill="#FFAC8B" d="M352.2,136.5c0,0,0.3-1.7,1.8-0.8s0,6.4-1.8,5.3C351.4,140.5,351.7,138.8,352.2,136.5z"
					/>
				<path id="Path_64134" fill="#FFAC8B" d="M344.5,126.8c-1.8,0.8-5.4,2.8-5.7,5.5c-0.5,2.8-0.2,5.7,0.6,8.4
					c0.9,2.8,10.2,3.2,11.8,2.2c1-0.8,1.8-1.9,2-3.2c0.1-2.3,0.1-4.5,0-6.8C352.9,131.4,345.6,126.3,344.5,126.8z"/>
				<path id="Path_64135" fill="#8B7394" d="M363.4,154.9c-1-0.5-3-0.9-3.5,4.1s1.7,14.3-0.6,15.2c-1.1-0.4-2.3-0.2-3.3,0.4
					c-1.8,1-9.4,9.9-9.4,9.9s7.5,3.9,14.3,2.7s9-9.9,8.1-18.3C367.9,160.4,364.5,155.4,363.4,154.9z"/>
				<path id="Path_64136" fill="#7B6683" d="M359.3,174.1c0,0-7.3,6.3-5.9,12.7c-1.7-0.4-3.4-0.9-5-1.6c-2.2-1-0.5-4.8,2.8-6.9
					s5.9-3.9,6.6-4.1C358.2,174.1,358.7,174.1,359.3,174.1z"/>
				<path id="Path_64137" fill="#8B7394" d="M322.8,166.5c-1.3,9.9,2,19.5,10.3,22c8.3,2.5,18.9-3.9,21-10.1c0.6-1.9,0-5.4-1.8-6.1
					s-5.8-0.3-8.7,1.7s-7.5,0.1-7.5-3.7s-0.2-10.1-3-13C330.3,154.5,324.1,156.5,322.8,166.5z"/>
				<path id="Path_64138" fill="#5E3C38" d="M340.8,131.9c2.5-3,3.4-3.4,4.2-2.4s2,1.6,4.4,2c1.3,0.1,2.4,0.9,2.8,2.1
					c0.2,0.3,3.5,0.8,4.2-2.8c0.7-3.6-3.8-8-8.9-8.1s-8.7,1.4-9.6,6.6c-0.9,5.2,0.2,14.4,0.5,16.7s2,3.7,5.4,4s9.1-0.2,10-3.4
					s-0.9-2.9-0.6-7.1c0,0.3-0.2,0.6-0.5,0.6c0,0,0,0-0.1,0c-0.1,0-0.2,0-0.3-0.1c-1.6-0.4-3.2-0.3-4.7,0.4
					c-0.6,0.3-1.5-0.5-3.8-0.1c-2.3,0.4-3,0.2-4.3-1.6C338.6,137.4,338.2,134.8,340.8,131.9z"/>
				<path id="Path_64139" fill="#515063" d="M379.6,265.6c0,0-3.8,1.9-5.3,7.6s2.1,8.2,7.6,7.7s11.1-4,11.1-4s-0.2-3.3-2.9-4.8
					c1.2-1.8,1.9-3.9,1.8-6c0-1.6-0.5-3.2-1.4-4.6C390.6,261.5,383,263.1,379.6,265.6z"/>
				<path id="Path_64140" fill="#FFAC8B" d="M338.2,136.5c-0.1-0.7-0.7-1.1-1.4-1.1c-0.2,0-0.4,0.1-0.6,0.3c-1.6,0.9,0,6.4,2,5.3
					C339.2,140.6,338.8,138.8,338.2,136.5z"/>
				<path id="Path_64141" fill="#323645" d="M400.6,273.2c0,0,1.1-1,1.8-1s2.2,1.8,3.4,2.1c1.1,0.2,2.2,0.8,3,1.5
					c0.3,0.4,0.5,0.6-0.2,0.8s-4.7,1.1-5.3,1.3C402.8,278,399.6,274.5,400.6,273.2z"/>
				<path id="Path_64142" fill="#FFAC8B" d="M343.6,174c-1.5-0.8-3.2-1.5-4.8-2.1c-1.7-0.4-2.7-0.1-3.6,2s-0.5,4.4,0,4.6
					c0.3,0.2,0.7,0.1,0.9-0.2c0,0,0,0,0,0c0-0.1,0-0.1,0.1-0.2c0,0,0.1,1.3,0.7,1.3c0.7,0,1.1-1.3,1.1-1.3s0,0.9,0.5,0.9
					s1.1-1.4,1.1-1.4s0,1.3,0.8,0.6s0.9-2,1.5-2.7C342.5,175,343,174.4,343.6,174z"/>
				<path id="Path_64143" fill="#F29072" d="M336.9,173.6c-0.7,1.4-1.1,3-1.1,4.6c0,0.2,0.3,0.2,0.3-0.1c0-1.5,0.4-3,1.1-4.4
					c0,0,0-0.1,0-0.2c0,0,0,0,0,0C337.1,173.5,337,173.5,336.9,173.6L336.9,173.6z"/>
				<path id="Path_64144" fill="#F29072" d="M338.8,173.6c-0.7,1.4-1.1,3-1.1,4.6c0,0.2,0.3,0.2,0.3-0.1c0-1.5,0.4-3,1.1-4.4
					c0,0,0-0.1,0-0.2c0,0,0,0,0,0C338.9,173.5,338.9,173.5,338.8,173.6L338.8,173.6z"/>
				<path id="Path_64145" fill="#5E5D70" d="M390.2,266.7c0,0-3.8,1.9-5.3,7.6c-1.5,5.6,2.1,8.2,7.6,7.7s11.1-4,11.1-4
					s-0.2-3.3-2.9-4.8c1.2-1.8,1.9-3.9,1.8-6c0-1.6-0.5-3.2-1.4-4.6C401.1,262.6,393.4,264.1,390.2,266.7z"/>
				<path id="Path_64146" fill="#F29072" d="M340.6,174.2c-0.7,1.1-1.1,2.3-1.1,3.5c0,0.2,0.3,0.1,0.3-0.1c0.1-1.2,0.4-2.4,1.1-3.4
					C341,174.1,340.7,174,340.6,174.2z"/>
				<path id="Path_64147" fill="#A9C4DE" d="M386.5,243c0,0-3-0.9-7.4,3.9s-4.6,9.2-3.6,13.4s5.1,5,7.2,6s2.2,2.4,8.2,1.2
					c3.8-0.8,7.4-2.2,10.7-4.2c0-1.7-0.2-3.5-0.5-5.2c-0.5-3-0.4-12.7-0.4-12.7c-1.5-1.4-3.4-2.3-5.5-2.4
					C391.9,242.8,386.5,243,386.5,243z"/>
				<path id="Path_64148" fill="#FFAC8B" d="M354.2,176.6c1-0.4,1.9-1,2.7-1.6c0.7-0.5,1.5-0.8,2.3-0.9c-0.6-1-1.6-1.8-2.7-2.3
					c-1.7-0.6-4.3,0.4-4.3,0.4C353.5,173.4,354.2,174.9,354.2,176.6z"/>
				<path id="Path_64149" fill="#BA7F6F" d="M383.9,262c0,0,2.9,5.6,4.8,6.8c1.9,1.2,3.2,0.4,3.3-0.5s-2.1-5.2-2.1-5.2l0.7-0.2
					c1.9,1.1,4,2.1,6,2.9c2.1,0.8,3.4-0.5,2.6-1.7s-2.7-3.5-2.7-3.5c-1.4-0.7-2.9-1.1-4.5-1.1C389.4,259.4,383.9,262,383.9,262z"/>
				<g id="Group_50747" transform="translate(54.777 148.023)">
					<path id="Path_64150" fill="#AB8989" d="M298.5,124.4c1-0.3,3-1.8,4.2-0.8s5.6,4.3,6.9,4.8c1.3,0.4,4.4-0.2,4.4,2.9
						c-1.2,1-2.7,1.5-4.3,1.4c-3,0.1-6.8-1.6-8.9-1.8c-2.2-0.2-4.8-0.2-5.1-0.6s0.6-4.9,0.8-5.6
						C296.6,123.9,298.5,124.4,298.5,124.4z"/>
					<path id="Path_64151" fill="#573A3C" d="M313.9,131.2c0,0,0.2-0.1,0.4,0.8c0,0.2-1.7,1.7-4.5,1.6c-2.9,0-5.8-0.8-8.4-2.3
						l-0.9-0.3l0,1.1l-5-0.4l0-2.4c0,0,2.5-0.2,7.1,1.5C306.5,132.5,310.7,133.6,313.9,131.2z"/>
					<path id="Path_64152" fill="#AB8989" d="M306.7,126.6c-0.8,0.1-1.6,0.5-2,1.2c-0.8,1.2-6.3-3.5-6.3-3.5s2.4-2.4,3.9-1.3
						S305.3,125.4,306.7,126.6z"/>
					<path id="Path_64153" fill="#573A3C" d="M303.8,126.7c0.7-0.6,1.6-0.8,2.5-0.8c0.2,0,0.1,0.3,0,0.3c-0.8,0-1.7,0.3-2.3,0.7
						C303.8,127.1,303.7,126.8,303.8,126.7z"/>
					<path id="Path_64154" fill="#573A3C" d="M303,125.7c0.7-0.6,1.6-0.8,2.5-0.8c0.1,0,0.1,0.3,0,0.3c-0.8,0-1.7,0.3-2.3,0.7
						C302.9,126.1,302.8,125.8,303,125.7z"/>
					<path id="Path_64155" fill="#573A3C" d="M301.7,125c0.7-0.6,1.6-0.8,2.5-0.8c0.2,0,0.1,0.3,0,0.3c-0.8,0-1.7,0.3-2.3,0.7
						C301.7,125.4,301.6,125.1,301.7,125z"/>
					<g id="Group_50746" transform="translate(4.46 0.429)">
						<path id="Path_64156" fill="#573A3C" d="M296,124.2c-0.1,0-0.3,0-0.4-0.1c-0.1-0.2-0.1-0.3,0-0.5c0.6-1.3,2.9-0.3,3-0.3
							l0.3,0.1l-0.3,0.1C297.8,123.9,296.9,124.1,296,124.2z M297.2,123.2c-0.5-0.1-1,0.1-1.3,0.5c0,0.1-0.1,0.1,0,0.2
							c0.1,0.2,1.2-0.1,2.3-0.4C297.8,123.3,297.5,123.2,297.2,123.2L297.2,123.2z"/>
					</g>
				</g>
				<g id="Group_50749" transform="translate(39.772 149.279)">
					<path id="Path_64157" fill="#AB8989" d="M298.6,124.4c1.1-0.3,3.1-1.8,4.4-0.8s5.9,4.3,7.3,4.8c1.4,0.4,4.6-0.2,4.6,2.9
						c0,0-1.3,1.3-4.5,1.4s-7.1-1.6-9.3-1.8s-5.1-0.2-5.3-0.6s0.6-4.9,0.8-5.6S298.6,124.4,298.6,124.4z"/>
					<path id="Path_64158" fill="#573A3C" d="M314.9,131.3c0,0,0.2-0.1,0.4,0.8c0,0.2-1.8,1.7-4.7,1.6c-3.1,0-6.1-0.8-8.7-2.3
						l-0.9-0.3l0,1.1l-5.3-0.4l0-2.4c0,0,2.7-0.2,7.5,1.5C307,132.5,311.4,133.6,314.9,131.3z"/>
					<path id="Path_64159" fill="#AB8989" d="M307.3,126.6c-0.8,0.1-1.6,0.5-2.1,1.2c-0.9,1.2-6.6-3.5-6.6-3.5s2.6-2.4,4.1-1.3
						S305.8,125.4,307.3,126.6z"/>
					<path id="Path_64160" fill="#573A3C" d="M304.3,126.7c0.7-0.6,1.7-0.8,2.6-0.8c0.2,0,0.1,0.3,0,0.3c-0.9,0-1.7,0.2-2.4,0.7
						C304.2,127.1,304.1,126.8,304.3,126.7z"/>
					<path id="Path_64161" fill="#573A3C" d="M303.3,125.8c0.7-0.6,1.7-0.8,2.6-0.8c0.2,0,0.1,0.3,0,0.3c-0.9,0-1.7,0.2-2.4,0.7
						C303.3,126.1,303.2,125.9,303.3,125.8z"/>
					<path id="Path_64162" fill="#573A3C" d="M302,125c0.7-0.6,1.7-0.8,2.6-0.8c0.2,0,0.1,0.3,0,0.3c-0.9,0-1.7,0.2-2.4,0.7
						C302,125.4,301.9,125.2,302,125z"/>
					<g id="Group_50748" transform="translate(4.687 0.429)">
						<path id="Path_64163" fill="#573A3C" d="M296,124.2c-0.1,0-0.3,0-0.4-0.1c-0.1-0.2-0.1-0.3,0-0.5c0.6-1.3,3.1-0.3,3.2-0.3
							l0.4,0.1l-0.4,0.1C297.9,123.9,297,124.1,296,124.2z M297.2,123.2c-0.6-0.1-1.2,0.1-1.4,0.5c0,0.1-0.1,0.1,0,0.2
							c0.1,0.2,1.3-0.1,2.5-0.4C297.9,123.3,297.6,123.2,297.2,123.2L297.2,123.2z"/>
					</g>
				</g>
				<path id="Path_64164" fill="#BAB1A2" d="M349.9,203c0-0.5-0.3-1-0.7-1c-0.4,0-0.7,0.4-0.7,1s0.3,1,0.7,1
					C349.6,204,349.9,203.5,349.9,203z"/>
				<path id="Path_64165" fill="#C4DCF2" d="M399.4,244.3c-0.7-0.1-2.2,1-3,4.6c-0.8,3.5-2.6,7.9-6.3,8.6c-3.6,0.6-4.4,0.7-4.4,0.7
					c-0.5,0.6-0.8,1.3-0.9,2.1c0,1,0.2,2.8,5.3,3.2s9.2,0.1,11.4-5C403.7,253.5,403.2,244.6,399.4,244.3z"/>
				<path id="Path_64166" fill="#FFB9A4" d="M387.4,243.8c0,0-0.8,2.4,0.5,3.4c1.2,1,3.8,0.4,5-0.5c1-1.1,1.8-2.4,2.4-3.8
					c0,0-1,0.3-1.1-0.9C394,240.8,387.4,243.8,387.4,243.8z"/>
				<path id="Path_64167" fill="#F29D8A" d="M387.4,243.8c0,0-0.6,1,0.8,1.7c1.7,0.9,3.7,0.1,5-0.8c0.7-0.5,1.4-1.1,2-1.8
					c0,0-1,0.3-1.1-0.9S387.4,243.8,387.4,243.8z"/>
				<path id="Path_64168" fill="#FFB9A4" d="M383.9,239.1c-0.3-0.3-0.8-0.5-1.1-0.2c-0.6,0.3-0.8,1-0.5,1.6c0.1,0.2,0.3,0.4,0.5,0.5
					c0.5,0.4,1.2,0.5,1.8,0.2c0.4,1.1,1.1,2,2,2.6c1.4,1,3.2,1.3,4.9,1c1.7-0.5,2.9-2,3.1-3.8c0.1-1.5,0.2-2.1,0.2-2.1
					s0.4,0,0.8-0.9s0.4-2-0.2-2.4s-0.8,0.1-0.8,0.1c0-0.9-0.2-1.9-0.6-2.7c-0.8-1.4-8.5-2.5-10.2-0.3
					C382,234.8,382.4,238.2,383.9,239.1z"/>
				<path id="Path_64169" fill="#C78877" d="M378.7,253c-0.2,1.9,0.1,3.8,0.7,5.6c0.9,2.6,4.1,5.4,5.9,5.5s2.3-0.9,1.7-2
					c-0.6-1.2-1-2.5-1.3-3.9c1.5-0.1,3-0.3,4.4-0.7c0.9,0.2,1.7,0.7,2.4,1.3c1.5,1.1,3.2,0.1,2.8-1.2c-0.4-1.3-2.4-3.5-4.7-5.2
					c-1.2-0.9-2.5-1.6-3.8-2.2C386.8,250.2,383.5,254.2,378.7,253z"/>
				<path id="Path_64170" fill="#BA7F6F" d="M378.6,253.6c0,1.2,0.1,2.3,0.3,3.5c2.4,0.1,4.7-0.6,6.5-2.1c2.7-2.4,2.8-4.1,2.8-4.1
					l-1.2-0.7L378.6,253.6z"/>
				<path id="Path_64171" fill="#FFB9A4" d="M446.4,260.2c0,0,3.7,11.1,3,13.2s-5.6,4.8-7.4,6.1s-1.5,1.8,1,1.9s5.6-0.3,7.4-1.5
					s4.2-1.9,4.3-2.1s-1.7-4.5-1.7-5.9s-0.5-12.7-0.6-14.1C452.5,256.4,446.4,260.2,446.4,260.2z"/>
				<path id="Path_64172" fill="#FFB9A4" d="M429.6,259.4c0,0,0.8,11.7-0.3,13.5c-1.2,1.9-7.2,4.7-9.2,5.5c-2.1,0.8-1.9,1.3,0.5,2.1
					s6.1-0.3,8.1-1c2-0.7,4.5-0.7,4.7-1s-0.5-4.8-0.2-6.2s2.7-12.4,2.9-13.8S429.6,259.4,429.6,259.4z"/>
				<path id="Path_64173" fill="#6E475E" d="M443.7,278.4c-1.2,0.6-2.2,1.3-3.2,2.2c-0.7,0.9,2,1.7,5,1.3c2-0.2,3.9-0.9,5.6-1.9
					c1-0.5,3.8-1.4,3.9-1.8c-0.1-0.8-0.3-1.6-0.6-2.3c-1.5,0.7-2.9,1.6-4.3,2.6C447.4,280.3,444.8,279.5,443.7,278.4z"/>
				<path id="Path_64174" fill="#6E475E" d="M422.5,277.3c0,0-4,1.3-4.1,2c-0.1,1.1,2,1.4,4.9,1.5c2,0.1,4-0.2,5.9-1
					c1.1-0.3,4-0.7,4.2-1.2c0.1-0.8,0.1-1.5,0-2.3c-1.7,0.4-3.3,1-4.9,1.7C425.5,279.7,423.4,278.6,422.5,277.3z"/>
				<path id="Path_64175" fill="#C78877" d="M384,244.7c-1.8-0.2-3.6,0.3-5.1,1.2c0,0-1.1-1.1-2-0.2c-0.9,0.9-1.3,3.1,0.6,3.1
					c-0.7,1.2-0.6,2.7,0.2,3.8c1.3,2,2.9,2.4,6,1.8s4.4-4,3.7-5.7c-0.3-0.9-0.9-1.8-1.7-2.4c0.5-0.2,0.8-0.8,0.6-1.3v-0.1
					C385.9,243.9,384.3,243.4,384,244.7z"/>
				<path id="Path_64176" fill="#FFEEE6" d="M387.2,233.9c-0.7,0.1-1.7,1-1.5,1.6c0.2,0.6,2-0.1,2.4-0.6
					C388.6,234.4,388,233.8,387.2,233.9z"/>
				<path id="Path_64177" fill="#C29791" d="M426.7,197.9l0,24.8c0,11.6-0.2,19.6,0,27.9c0.2,8.3,0.6,10.9,0.6,10.9s9.9,2,14.8,1
					s11.7-3.1,11.7-3.1s0.3-27.3,0-35.3s-2.7-22.8-3.7-28C449,190.9,426.7,197.9,426.7,197.9z"/>
				<path id="Path_64178" fill="#FFEEE6" d="M383.9,239.1c0,0-1.5-1.1-1-3.9s3.8-1.4,4.5-0.4c0.7,0.9,2.4,1.7,4.7,0.7
					c2.8-1.2,3.9-2.5,2.7-4.6s-4.6-4.2-8.6-1.8s-4.7,4-4.4,6.9c0.1,1,0.4,2,1,2.9C382.8,238.8,383.1,238.6,383.9,239.1z"/>
				<path id="Path_64179" fill="#C2404F" d="M428,163.8c-1.2,1.6-2.1,3.4-2.8,5.3c-1.4,3.7-1.7,7.7-0.9,11.6
					c0.8,4.4,0.9,8.9,0.5,13.3c-0.4,3.1-1.5,3.5,1.2,5.4s2.7,3.5,8.1,3.1c5.4-0.4,7.2-2,10.8-3.8c3.6-1.7,5.6-1.2,6.1-3.5
					s0-16.8,0.2-16.8s6.5,6.1,6.5,6.1l6.7-1.3c0,0-5.9-8.9-9.6-13.6c-3.8-4.7-5.7-6.1-8.6-5.8c-1.3,0.1-7.9,6.7-11.6,6.7
					C429.8,170.4,428,163.8,428,163.8z"/>
				<path id="Path_64180" fill="#B53246" d="M428,163.8c-1.1,0-2.1,0.5-2.7,1.3c-1.2,1.4-2,5.6-2.9,9.5c-0.9,3.9-2.1,8.2-2.1,8.2
					l2.9,8.9c1-0.4,1.8-1.2,2.1-2.3c0.3-1.6,0.4-7.1-0.5-9.3s-1.1-6.7,0.8-11.2S428,163.8,428,163.8z"/>
				<path id="Path_64181" fill="#FFB9A4" d="M423.5,191.7c0,0,2.7-2.1,0.3-6.1c-2.3-4-8.8-13.3-9.6-15.4s-1.1-2.8-4.1-3.1l-3-0.3
					c0,0-3-0.7-3-0.3s1.1,1.4,2.5,1.6l1.3,0.2c0,0-3.3,0.9-5.6,1.5c-2.9,0.8-2.4,1.8-2.4,1.8s-0.7,0.5-0.5,0.8c0.3,0.5,1.5,0,1.5,0
					s-0.8,0.8,0.1,0.9c0.5,0,1.1-0.2,1.6-0.3c0,0-1,0.7,0.2,0.9c0.7,0.1,8.4-1.2,8.6-1.1s4.8,12,5.3,14.1
					C417.5,189.2,421,192.4,423.5,191.7z"/>
				<path id="Path_64182" fill="#F29D8A" d="M405.3,169.6c-1.7,0.3-3.4,0.8-5.1,1.5c-0.3,0.1-0.3,0.5,0,0.4c1.7-0.7,3.5-1.2,5.3-1.6
					C405.7,169.9,405.6,169.6,405.3,169.6z"/>
				<path id="Path_64183" fill="#F29D8A" d="M406.2,170.6c-1.7,0.3-3.4,0.8-5.1,1.5c-0.3,0.1-0.3,0.5,0,0.4c1.7-0.7,3.5-1.2,5.3-1.6
					C406.6,170.9,406.5,170.6,406.2,170.6z"/>
				<path id="Path_64184" fill="#F29D8A" d="M406.9,171.8c-1.4,0.2-2.8,0.6-4.2,1.1c-0.2,0.1-0.3,0.5-0.1,0.4c1.4-0.6,2.8-1,4.3-1.2
					C407.2,172.1,407.1,171.7,406.9,171.8z"/>
				<path id="Path_64185" fill="#FFB9A4" d="M463.5,182.2c-1.4-1.2-6.1,0.4-6.8,1.2c-0.7,0.8-2.5,4.9-6.7,7.6c0,0-3-1.4-4.2-2.2
					c-1.6-0.9-2.6-0.1-3.9,1.4s-1.9,2.9-1.6,3.3c0.3,0.2,0.7,0.2,1,0l0,0c0,0-0.4,1,0,1.3c0.8,0.3,1.2-0.5,1.2-0.5s-0.3,0.9,0.5,0.9
					c0.4,0,1-0.6,1-0.6s-0.3,0.9,0.6,0.7c0.6-0.1,2.2-1.8,2.5-1.7s2.5,2,3.9,1.6c1.4-0.5,9-5.8,11.1-7.8
					C464.8,185,465.6,184,463.5,182.2z"/>
				<g id="Group_50750" transform="translate(145.688 67.187)">
					<path id="Path_64186" fill="#F29D8A" d="M295.6,126.6L295.6,126.6c-0.1,0-0.2-0.1-0.2-0.2c0,0,0,0,0,0c0.6-1.4,1.5-2.7,2.8-3.6
						c0.1-0.1,0.2-0.1,0.2,0.1s0,0.2,0,0.2c-1.1,0.9-2,2.1-2.6,3.4C295.8,126.5,295.7,126.6,295.6,126.6z"/>
				</g>
				<g id="Group_50751" transform="translate(146.874 67.891)">
					<path id="Path_64187" fill="#F29D8A" d="M295.6,126.6L295.6,126.6c-0.1,0-0.2-0.1-0.2-0.2c0,0,0,0,0,0c0.6-1.4,1.5-2.7,2.8-3.6
						c0.1-0.1,0.2-0.1,0.2,0c0.1,0.1,0.1,0.2,0,0.2l0,0l0,0c-1.1,0.9-2,2.1-2.6,3.4C295.8,126.5,295.7,126.6,295.6,126.6z"/>
				</g>
				<g id="Group_50752" transform="translate(148.481 68.927)">
					<path id="Path_64188" fill="#F29D8A" d="M295.6,126.1L295.6,126.1c-0.1,0-0.2-0.1-0.2-0.2c0,0,0,0,0,0c0.5-1.3,1.3-2.3,2.4-3.1
						c0.1-0.1,0.2-0.1,0.2,0.1s0,0.2,0,0.2l0,0c-1,0.7-1.8,1.7-2.2,2.9C295.8,126,295.7,126.1,295.6,126.1z"/>
				</g>
				<g id="Group_50753" transform="translate(0 63.978)">
					<path id="Path_64189" fill="#628E9C" d="M308.6,197c-0.4-3.8,0.1-7.6,1.5-11.1c2.3-5.8-1-8.9,1.3-14.9s2.6-6.2,2.4-10.9
						s1.9-6.5,3.3-11.1c0.9-2.8,1.4-5.7,1.4-8.7c0.8,2.5,1,5.2,0.8,7.8c-0.2,5.1-1.5,5.8-1.3,10.1s0.2,6.7-1.6,10.7
						c-1.8,4.1-1.7,4.4-1.6,9.1s0.8,8.3-1.5,12.6c-1.5,2.9-2.5,6.1-3.1,9.3C310.2,199.9,308.7,199.3,308.6,197z"/>
					<path id="Path_64190" fill="#628E9C" d="M303.8,195.9c-1.2-3.2-1.5-6.7-1-10.1c1-5.6-2.9-7.6-1.9-13.4s1.2-6,0-10.1
						s0.4-6.2,0.8-10.5c0.3-2.7,0.1-5.3-0.5-8c1.3,2,2.1,4.3,2.4,6.7c0.8,4.5-0.2,5.5,0.9,9.2s1.6,5.8,0.7,9.7
						c-0.9,4-0.7,4.2,0.4,8.4s2.6,7.1,1.2,11.4c-0.8,2.9-1.2,5.9-1,8.8C304.9,197.9,304,197,303.8,195.9z"/>
					<path id="Path_64191" fill="#628E9C" d="M304.5,194.3c-0.7-4.6-0.6-9.4,0.4-14c1.7-7.5-1.9-10.9,0-18.6c1.8-7.7,2-8,1.4-13.8
						s1.3-8.3,2.3-14.2c0.6-3.6,0.8-7.3,0.6-10.9c0,0,1.3,3.2,1.5,9.5s-1,7.4-0.3,12.7s0.8,8.2-0.6,13.4s-1.3,5.6-0.7,11.5
						s1.6,10.2-0.3,15.7c-1.2,3.8-2,7.8-2.2,11.9C306.5,197.6,304.8,197.2,304.5,194.3z"/>
					<path id="Path_64192" fill="#6C9AAB" d="M308.5,198.9c-0.8-2.7-1-5.6-0.5-8.4c0.8-4.6-2-6.4-1.1-11.1s1-4.9,0.2-8.4
						s0.4-5,0.8-8.6c0.2-2.2,0.2-4.4-0.1-6.6c0.9,1.7,1.5,3.7,1.6,5.6c0.5,3.8-0.3,4.5,0.5,7.6s1.1,4.8,0.3,8.1
						c-0.7,3.2-0.6,3.5,0.1,6.9s1.7,6,0.6,9.4c-0.7,2.4-1,4.8-0.9,7.3C309.3,200.5,308.6,199.8,308.5,198.9z"/>
					<path id="Path_64193" fill="#6C9AAB" d="M303,195.6c0,0-2.9-3.3-2.5-9.3c0.3-6-0.9-6.8-2.2-10.4c-1.4-3.6,1.6-7.4,0-11.1
						c-1.6-3.7-3.9-4.4-2.2-9.3s1.9-6.4,1.3-9.9s1.9-9.8,1.9-9.8s-1.1,6.8,0,10.9c1.2,4.2-1.1,6.1,0.1,10.3
						c2.5,8.4,0.6,12.6,2.8,16.7s1.8,7.3,1.4,11.3s1.5,12,1.5,12C304.2,196.9,303.5,196.3,303,195.6z"/>
					<path id="Path_64194" fill="#6C9AAB" d="M314.6,154.9c-1,5.9,0.1,6.9,1.1,10.6s-2.4,7.2-1.2,11.1s3.4,4.8,1.2,9.5
						s-2.6,6.1-2.3,9.7s-2.9,9.5-2.9,9.5s1.9-6.6,1.2-10.8c-0.7-4.3,1.8-5.9,1-10.2c-1.6-8.6,0.7-12.6-0.9-16.9
						c-1.7-4.3-1-7.5-0.1-11.3s0.2-20.2,0.2-20.2S315.6,149,314.6,154.9z"/>
					<path id="Path_64195" fill="#EBE3DF" d="M297.4,194.8c-0.5,1.1,2.3,21.1,3.4,22.2c1.7,1.7,13.1,1.3,14.9,0.2s3.9-21.8,3.8-22.8
						S297.8,193.8,297.4,194.8z"/>
				</g>
				<path id="Path_64196" fill="#DECBC5" d="M492.6,193.7V181c0-0.2-0.2-0.4-0.4-0.4s-0.4,0.2-0.4,0.4v12.8
					c-0.2,0.1-0.3,0.4-0.3,0.6v0.1c0,0.4,0.3,0.8,0.7,0.8c0.4,0,0.8-0.3,0.8-0.7c0,0,0,0,0-0.1v-0.1
					C493,194.1,492.8,193.8,492.6,193.7z"/>
				<rect id="Rectangle_21848" x="481.1" y="181.8" fill="#DECBC5" width="2.3" height="96"/>
				<path id="Path_64197" fill="#EBE3DF" d="M488.8,150.5h-14.6l-6.3,32l27.2-0.1L488.8,150.5z"/>
				<path id="Path_64198" fill="#DECBC5" d="M483.5,273.2h-2.3l-10.4,2.8c-1,0.3-1.7,1.2-1.7,2.2v0.3l26.5,0v-0.3
					c0-1-0.7-1.9-1.7-2.2L483.5,273.2z"/>
				<path id="Path_64199" fill="#C78877" d="M431.7,141.1c-0.5-0.8-3.5,2.1-3.7,3.4c-0.5,3.3,0,2.6-0.3,5.9c-0.1,1.3,0.8,2.4,1.1,5
					c0.1,1-0.4,2.1-1.2,2.7c0,0-1.8-0.5-2-1.6s-0.1-2.6-0.3-3.4c-0.2-1-1.1-1.6-0.8-3.9c0.3-2.3-1.1-6.2,2.8-9.8s10-3.9,13.4-0.7
					s4,8.2,3.3,11.2c-0.7,3.2-2.3,3.2-2.2,4.5c0.1,1.3-0.5,1.9-1.6,2.7c-0.5,0.4-1.1,0.7-1.6,1.1c-0.7-0.7-1-1.6-0.9-2.5
					c0-1.9,0.9-2.6,0.3-3.3s-1.9-1.3-1-4.3S434.4,145.2,431.7,141.1z"/>
			</g>
		</g>
	</g>
</g>
</svg>
