<svg xmlns="http://www.w3.org/2000/svg" xmlns:xlink="http://www.w3.org/1999/xlink" width="342" height="283" viewBox="0 0 342 283">
  <defs>
    <clipPath id="clip-path">
      <rect id="Rectangle_22182" data-name="Rectangle 22182" width="342" height="283" transform="translate(735 1304)" fill="#888a95" stroke="#707070" stroke-width="1"/>
    </clipPath>
  </defs>
  <g id="Mask_Group_193" data-name="Mask Group 193" transform="translate(-735 -1304)" clip-path="url(#clip-path)">
    <g id="DA-Family-Illustration" transform="translate(436.185 1177.348)">
      <g id="Group_50560" transform="translate(30.273 282.978) rotate(-97)" opacity="0.746">
        <path id="Path_41656" d="M79.626,387.4c0-45.479-20.031-95.333-44.982-98.365l-1.342-.149c-35.737-3.131-58.4,27.288-90.76,36.582s-12.277-59.4-72.022-18.888c-17,13.47-46.573,42.149-27.288,124.857-6.859,61.782-15.16,130.523,37.03,133.7C-97.42,566.48-35.091,596.849.6,584.572c35.439-12.178,44.187-66.952,64.665-84C99.508,472.141,79.626,449.128,79.626,387.4Z" fill="#e3eded"/>
      </g>
      <g id="parent-DA" transform="translate(-134.323 -204.021)">
        <path id="Path_64701" d="M659.623,531.337l-4.672-52.189h13.52v52.189Z" fill="#c9e9f4"/>
        <path id="Path_64702" d="M677.218,531.337l4.672-52.189h-13.52v52.189Z" fill="#c9e9f4"/>
        <g id="Group_51040" transform="translate(201.836 297.448)">
          <path id="Path_64703" d="M357.323,188.975a2.585,2.585,0,0,0-1.342-.249,59.987,59.987,0,0,0-7.108,1.392c-.5.3-3.181,3.728-2.982,4.026s1.044.05,1.342,0a3.342,3.342,0,0,1,1.193-.2,17.661,17.661,0,0,0,2.286-.149c.5-.05,5.666-2.336,5.666-2.336A2.88,2.88,0,0,0,357.323,188.975Z" fill="#f2b186"/>
          <path id="Path_64704" d="M382.821,183.508s-5.517,12.178-6.809,12.525-18.689-7.058-18.689-7.058l-1.988,2.933s18.589,10.637,18.639,11.084,7.8-1.64,8.052-1.889,5.368-9.2,5.368-9.2Z" fill="#f2b186"/>
          <path id="Path_64705" d="M366.717,208.459S347.084,198.22,345,197.822c-3.777-.7-6.213,1.143-9.593,4.871s-21.77,30.121-21.77,30.121h3.579s24.7-20.876,25.747-21.025,21.472,8.35,21.472,8.35Z" fill="#f2b186"/>
          <path id="Path_64706" d="M321.387,228.192a14.679,14.679,0,0,1,.3,2.933c-.05,1.093-.547,1.64-1.938,1.64H306.475s-.348-.944.2-1.441,5.02-2.137,7.207-3.28c2.187-1.193,5.418-3.38,5.418-3.38Z" fill="#f2b186"/>
          <path id="Path_64707" d="M371.19,208.459s-19.633-10.239-21.721-10.637c-3.777-.7-6.213,1.143-9.593,4.871s-21.77,30.121-21.77,30.121h3.579s24.7-20.876,25.747-21.025,16.353,8.45,16.353,8.45Z" fill="#ffcaa6"/>
          <g id="Group_51038" transform="translate(55.409 78.514)">
            <path id="Path_64708" d="M342.461,140.265c-4.175-3.032-9.841-6.909-11.432-6.809-2.634.149-17.893-6.809-17.893-6.809l-5.318,11.631c3.976,2.336,15.209,8.549,23.013,9A11.614,11.614,0,0,0,342.461,140.265Z" fill="#f15f46"/>
            <path id="Path_64709" d="M335.751,154.282c8.847,0,11.432-10.488,11.432-10.488s-2.038-1.591-4.722-3.529a11.6,11.6,0,0,1-11.631,7.008c-7.853-.4-19.086-6.66-23.013-9l-1.441,3.231C306.376,141.458,326.9,154.282,335.751,154.282Z" fill="#cc524c"/>
          </g>
          <path id="Path_64710" d="M398.13,163.874a67.792,67.792,0,0,1,8.847,25.25c2.187,15.11-4.424,33.153-4.424,33.153S391.668,218.5,386.4,211.938c2.734-4.225,3.529-10.438,3.28-12.128s-3.28-4.125-3.28-4.125-4.125-4.622-4.772-8.45,6.263-16.949,6.263-16.949Z" fill="#efe6e8"/>
          <g id="Group_51039" transform="translate(66.89 10.007)">
            <path id="Path_64711" d="M325.363,137.283c2.386,7.9.646,16.75-4.374,18.241s-11.333-4.921-13.718-12.774.1-14.315,5.07-15.806C317.361,125.453,322.977,129.38,325.363,137.283Z" fill="#ffcaa6"/>
          </g>
          <path id="Path_64712" d="M390.326,167.9a13.179,13.179,0,0,0-1.789-5.07c-1.64-2.833,4.672-6.76,4.672-6.76l4.921,7.853C398.13,163.874,393.209,168.547,390.326,167.9Z" fill="#ffcaa6"/>
          <path id="Path_64713" d="M389.531,164.769a19.177,19.177,0,0,0,3.728-8.7l1.292,2.088s-.2,7.108-4.225,9.742A24.1,24.1,0,0,0,389.531,164.769Z" fill="#f2b186"/>
          <path id="Path_64714" d="M392.513,186.937l.845.3s3.827-7.356,4.722-13.42c-.994,16.154-5.915,27.586-8.947,31.363a29.343,29.343,0,0,0,.348-5.915c-.05-.1-1.839-2.436-1.839-2.436l-5.318-7.356-.6-1.839s-.646-1.292.8-5.07a69.961,69.961,0,0,1,5.269-9.692Z" fill="#e0d5d8"/>
          <path id="Path_64715" d="M384.262,183.508s-4.424,14.514-6.114,15.209-20.975-4.225-20.975-4.225l-.2,2.585s20.13,11.283,24.852,9.593,10.885-20.279,10.885-20.279Z" fill="#ffcaa6"/>
          <path id="Path_64716" d="M383.318,183.508l10.09,3.728s4.722-10.488,4.772-14.166-6.462-7.8-9.493-3.877C385.6,173.169,383.318,183.508,383.318,183.508Z" fill="#efe6e8"/>
          <path id="Path_64717" d="M325.86,228.192a14.677,14.677,0,0,1,.3,2.933c-.05,1.093-.547,1.64-1.938,1.64H310.949s-.348-.944.2-1.441,5.02-2.137,7.207-3.28c2.187-1.193,5.418-3.38,5.418-3.38Z" fill="#ffcaa6"/>
          <path id="Path_64718" d="M334.459,170.386l5.666,25.8,23.759,5.567.5-2.237-22.317-4.821-5.517-25Z" fill="#51495b"/>
          <path id="Path_64719" d="M357.174,194.492s-6.809-1.889-7.953-1.541-3.43,2.535-3.43,2.535l.944.2,2.088-1.143-.8,1.441,3.976.845,4.871.2A3.246,3.246,0,0,0,357.174,194.492Z" fill="#ffcaa6"/>
          <path id="Path_64720" d="M379.242,147.273a14.094,14.094,0,0,0,3.082,6.412c2.336,2.535,5.318,2.933,7.555,4.821,2.237,1.839,4.175,2.237,7.008-.895,2.883-3.131,3.38-6.511,1.938-9.493s-3.877-4.921-5.567-7.754c-1.69-2.783-5.666-7.008-11.134-6.511s-10.836,4.076-10.786,7.157S369.3,146.826,370,151.15s5.915,5.766,5.915,5.766-2.286-3.082-.646-6.213A6.6,6.6,0,0,1,379.242,147.273Z" fill="#fa9837"/>
          <path id="Path_64721" d="M385.356,134.6s-3.43-4.225,1.342-7.008c4.821-2.783,9.295,1.292,9.891,5.666s-2.684,5.219-5.368,4.622C388.636,137.233,385.356,134.6,385.356,134.6Z" fill="#fa9837"/>
        </g>
        <g id="Group_51043" transform="translate(304.183 334.801)">
          <path id="Path_64722" d="M326.009,173.169s6.909,1.093,9.692.547a5.62,5.62,0,0,1,2.435-2.485l2.336,1.292s.05,2.982-.547,3.231c-.646.249-9.1,1.392-11.084,1.69C326.8,177.742,326.009,173.169,326.009,173.169Z" fill="#f2b186"/>
          <path id="Path_64723" d="M349.47,161.19,347.133,159l-12.774,11.929,5.219,4.722,3.33-1.938Z" fill="#cc524c"/>
          <path id="Path_64724" d="M348.475,160.594l-1.292-1.143-12.128,11.482,4.871,4.473,4.125-2.038Z" fill="#e0d5d8"/>
          <path id="Path_64725" d="M350.116,159.6l-1.044.2L335.7,171.28l3.877,3.082h1.044Z" fill="#efe6e8"/>
          <path id="Path_64726" d="M324.518,180.724s10.587-5.915,14.315-4.97c3.678.994,15.806,13.917,15.806,13.917l-2.833,2.634s-13.768-8.5-14.514-8.35c-.7.149-9.841,4.523-9.841,4.523Z" fill="#f2b186"/>
          <path id="Path_64727" d="M351.806,191.411l-.4.447s-1.491,3.579-.2,3.579h9.2s1.193-.3.7-.994-1.839-.895-3.728-2.485-3.43-2.982-3.43-2.982Z" fill="#f2b186"/>
          <path id="Path_64728" d="M327.5,180.724s10.587-5.915,14.315-4.97c3.678.994,15.806,13.917,15.806,13.917l-2.833,2.634s-13.768-8.5-14.514-8.35c-.7.149-9.841,4.523-9.841,4.523Z" fill="#ffcaa6"/>
          <g id="Group_51041" transform="translate(1.833 52.593)">
            <path id="Path_64729" d="M310.8,135.344c-.2,2.286,3.131,4.772,10.736,4.324,3.777-.2,6.312-3.479,8.6-4.97l-3.827-7.6-1.143-.1c-.994.7-3.28,1.988-5.766,3.628C316.068,132.859,311,133.058,310.8,135.344Z" fill="#51495b"/>
            <path id="Path_64730" d="M306.376,133.8s2.436,9.046,9.991,9.046,14.514-6.66,14.514-6.66l-.7-1.441c-2.286,1.491-6.511,3.927-10.338,4.125-7.654.447-8.3-1.541-8.1-3.827s4.324-1.789,7.654-3.976c2.485-1.64,4.821-3.28,5.766-4.026l-4.076-.348Z" fill="#443d4f"/>
          </g>
          <path id="Path_64731" d="M312.49,151.349l3.479-6.263,3.877,5.368-.944,4.622Z" fill="#ffcaa6"/>
          <path id="Path_64732" d="M312.49,151.349a63.73,63.73,0,0,0-5.02,12.824c-2.237,7.9-.646,19.235.447,22.665,9.792-.994,16.1-8.251,16.1-8.251s-1.143-15.706-3.827-22.914C316.068,151.8,312.49,151.349,312.49,151.349Z" fill="#80cfd4"/>
          <g id="Group_51042" transform="translate(8.38 2.352)">
            <path id="Path_64733" d="M323.971,140.364c-2.436,5.865-8.45,10.04-12.973,8.151s-5.865-9.046-3.43-14.961,7.7-8.2,12.227-6.312S326.407,134.5,323.971,140.364Z" fill="#ffcaa6"/>
          </g>
          <path id="Path_64734" d="M319.747,151.051a10,10,0,0,1-4.374-4.871c-.547,1.044-.994,1.789-.994,1.789a6.007,6.007,0,0,0,5.07,4.622C319.647,151.6,319.747,151.051,319.747,151.051Z" fill="#f2b186"/>
          <path id="Path_64735" d="M314.776,164.272l-1.74-5.964a51.941,51.941,0,0,0,1.74,12.675,31.2,31.2,0,0,0,5.12,11.283,8.377,8.377,0,0,0,3.38-2.783C324.468,177.593,314.776,164.272,314.776,164.272Z" fill="#6dc4c6"/>
          <path id="Path_64736" d="M354.838,191.411l-.447.447s-1.491,3.579-.2,3.579h9.2s1.193-.3.7-.994-1.839-.895-3.728-2.485-3.43-2.982-3.43-2.982Z" fill="#ffcaa6"/>
          <path id="Path_64737" d="M343.505,176.6a12.636,12.636,0,0,1-3.976,1.392c-2.684.547-9.841,4.772-9.841,4.772l-1.243-2.485,9.991-4.424,4.622.5Z" fill="#f2b186"/>
          <path id="Path_64738" d="M354.937,167.95,343.8,177.444l-7.456-5.964L350.116,159.6Z" fill="#f15f46"/>
          <path id="Path_64739" d="M339.678,174.511a3.537,3.537,0,0,1,.845-2.038,8.571,8.571,0,0,1,2.137-1.392c.646-.447.944-.746.944,0s-1.243,1.392-1.193,1.591a27.107,27.107,0,0,0,2.883,0c.7.05,1.591.249,1.342.746a6,6,0,0,1-1.044,1.193c-.249.348-2.933,2.684-5.318,2.088C337.938,176.1,339.678,174.511,339.678,174.511Z" fill="#ffcaa6"/>
          <path id="Path_64740" d="M321.934,161.588s2.982,11.432,5.219,12.973,12.774-.348,12.774-.348l.4,2.485s-9.046,4.672-15.458,3.33-10.09-15.806-10.09-15.806Z" fill="#ffcaa6"/>
          <path id="Path_64741" d="M325.562,138.078s-.5,3.927-2.982,5.915-6.114,4.523-8.5,2.684-2.833-4.622-2.088-6.014,1.591-3.778,2.088-4.921c.5-1.193.6-6.263,5.12-8.251s10.338-.05,12.973,2.684,4.076,5.865,3.33,8.35c-.8,2.535-3.479,2.833-5.318,1.64A27.482,27.482,0,0,0,325.562,138.078Z" fill="#fa9837"/>
        </g>
        <path id="Path_64742" d="M656.492,477.11h23.361s21.721-32.556,20.18-39.763-18.142,13.37-21.075,27.536c3.479-14.862,16.353-47.219,15.011-53.283s-16.75,14.762-21.224,53.283c3.33-41.751,5.666-59.645,5.467-63.969-.2-4.275-9.941,3.28-12.674,22.417-2.734,19.086-1.094,44.883-1.094,44.883s-3.777-30.618-8.847-43.044-7.356-12.227-8.35-7.9c-.994,4.275,3.082,30.021,9.941,50.052-10.339-23.361-14.066-30.568-15.359-28.928-1.243,1.64-.7,10.04,3.927,19.385C650.428,467.169,656.492,477.11,656.492,477.11Z" fill="#c9e9f4"/>
      </g>
    </g>
  </g>
</svg>
