<svg id="quiz-family" data-name="quiz family" xmlns="http://www.w3.org/2000/svg" viewBox="0 0 249 185"><defs><style>.cls-1{fill:#4794a1;opacity:0.5;}.cls-2{fill:#ff9e9e;}.cls-3{fill:#ff9d9d;}.cls-4{fill:#84bac9;}.cls-5{fill:#252334;}.cls-6{fill:#964436;}.cls-7{fill:#b55c41;}.cls-8{fill:#f49595;}.cls-9{fill:#82737e;}.cls-10{fill:#d85c3d;}.cls-11{fill:#ee7878;}.cls-12{fill:#afcdfb;}.cls-13{fill:#ed7878;}.cls-14{fill:#3b3b4f;}.cls-15{fill:#ffd9c0;}.cls-16{fill:#ffb0b0;}.cls-17{fill:#4d4d6b;}.cls-18{fill:#2c3e42;}</style></defs><path id="Path_67123" data-name="Path 67123" class="cls-1" d="M77.3,22.5C46.1,27.1,13.2,46,12.9,63.7v1c.4,25.2,22.9,37.9,31.6,59.5s-40.9,2.9-8.8,40.3c10.5,10.4,20.6,10.7,85.8,10.8,20.3.3,90.2,12,92.1-32.1-.7-15.7,15.7-62.1,4.7-85.7S169.1,33.4,156,21C134.1.1,119.7,16.2,77.3,22.5Z"/><path class="cls-2" d="M112.4,133.9s3.7,7.7,12.6,4.4c2.4-.9,4.1-1.6,5.3-2.2a5.4,5.4,0,0,0,3-5.8h0l-19.7-6.7-3.3,5.7Z"/><path class="cls-3" d="M147.1,75.7s2.8-2.8,5.7-1.4,1,4.9,1,4.9l-3.6-.3Z"/><path class="cls-4" d="M106.2,80.9l6.1-3.4a7.5,7.5,0,0,1,6.6,5.5c1.7,5.4,3.7,27.4,3.7,27.4l-10.2-5.3Z"/><path class="cls-5" d="M117.6,49.5c-.7-3-1.5-6.2-3.7-8.3l-.3-.2,1.8-1.5a4.5,4.5,0,0,0-3.3-2.8,15.5,15.5,0,0,1-4.3-1.4,21.2,21.2,0,0,0-2-1.2,6,6,0,0,0-3.5-.3A7.1,7.1,0,0,0,98.2,35a21.1,21.1,0,0,1-2.3,1.9,10.1,10.1,0,0,1-3.1.5,7.2,7.2,0,0,0-5.5,4.2c-.6,1.6-.7,3.6-1.9,4.8a9,9,0,0,1-2.6,1.7,7.9,7.9,0,0,0-3.6,6.1c-.2,1.9.3,3.9-.7,5.4a12.1,12.1,0,0,1-1.6,1.6,10.7,10.7,0,0,0-3,5.1,2.6,2.6,0,0,0,2.3,3.2h0c-.6,3.6-1.3,10.2-.4,15.6.6,3.8,2.7.4,4.7-4.3a11.2,11.2,0,0,1,3.6.9,15.3,15.3,0,0,0,11.3-1.1,1.1,1.1,0,0,1,.8-.3c.8-.1,1.4.9,2.2,1.1s2.2-1,3.2-.7.8.4,1.1.2l.5-.7c.3-.2.6-.1,1-.1s2.4-1.1,2.9-2.4.9-2.6,1.9-3.5,1.3-.7,1.8-1.3.7-2.8,1.1-4.1,2.5-2.9,3.3-4.7.1-4.2.8-6.2,1.4-2.4,1.8-3.7S117.9,51.1,117.6,49.5Z"/><path class="cls-6" d="M103.1,72.4h0l.4-3-9.2-6.2c0,.1-.8,4.5-1.5,8A31.8,31.8,0,0,0,103.1,72.4Z"/><path class="cls-7" d="M90.7,78A19.8,19.8,0,0,1,93,82a8.2,8.2,0,0,0,3.1,3.3l1.3.6c2.3,1.3,2.6,4.6,4.7,6.3,0-.1.1,0,.3.1l.3-1c.4-1.5.3-3.1.8-4.7a15.3,15.3,0,0,0,1.2-3.8,7.5,7.5,0,0,1,0-1.5,9.5,9.5,0,0,1,.9-2.7,9,9,0,0,0,.6-2.2l-1.2-.2-2.3-.4.3-2.6v-.8a31.8,31.8,0,0,1-10.3-1.2,5.1,5.1,0,0,1-.2,1.3c-.1.4-.1.8-.2,1.2a2.9,2.9,0,0,1-2,2.3l-1.4.6Z"/><path class="cls-4" d="M118.7,97.8s-2.1-5.1-3.9-10.4c-1.3-3.7-2.4-7.6-2.5-9.9a56,56,0,0,0-6.1-1.1,9,9,0,0,1-.6,2.2,9.5,9.5,0,0,0-.9,2.7,7.5,7.5,0,0,0,0,1.5,15.3,15.3,0,0,1-1.2,3.8c-.5,1.6-.4,3.2-.8,4.7l-.3,1c-.2-.1-.3-.2-.3-.1-2.1-1.7-2.4-5-4.7-6.3l-1.3-.6A8.2,8.2,0,0,1,93,82a26.4,26.4,0,0,0-2.7-4.6l-1-.9a1.2,1.2,0,0,0-1.4-.1l-.7.3c-2.5,1.1-6.9,2.2-8.4,3.4,0,0,8.3,33.8,7.6,35.7s-.3,15.3-.3,15.3,1.1-.6,9.3-.4c2.7,0,16.9.8,19.5.1,0,0-1.6-21.2-1.1-26.2C113.8,104.6,116.9,102.8,118.7,97.8Z"/><path class="cls-7" d="M115.1,56.7S110,67.4,107.3,70s-7.4,2.2-11.1-2.2-1.8-9.9-1.8-9.9l3-11.3,6.1-1.9,9.8-3.2L117,51.8Z"/><path class="cls-7" d="M96.3,52.7s-1-3-3.6-2.1-1.8,9,2.6,7.3Z"/><path class="cls-6" d="M95,56.2c-.1,0-.2-.1-.2-.3,0-3.1-2.1-3.4-2.2-3.4a.3.3,0,0,1-.3-.3c.1-.2.2-.3.4-.3s2.8.3,2.7,4a.3.3,0,0,1-.3.3Z"/><path class="cls-6" d="M93.5,55.9c-.2,0-.3-.1-.3-.2a1.3,1.3,0,0,1-.1-.6A2.2,2.2,0,0,1,94,53c.1-.1.3,0,.4.1a.2.2,0,0,1-.1.4,1.5,1.5,0,0,0-.6,1.5.7.7,0,0,0,.1.5.5.5,0,0,1-.2.4Z"/><path class="cls-5" d="M94.7,48.3,96,52s4.8,2.9,8.7-.4,4.9-3.2,5.6-3.1,2.3,2,4.6,8.8a45.1,45.1,0,0,0,3.8-9.3c.9-4-1.3-11.5-6.9-10.5Z"/><path class="cls-5" d="M118.5,32.2a8.8,8.8,0,0,1-.9-2c-.2-1.2.5-2.7-.4-3.6s-2.1-.4-2.8-1.1-.4-.7-.7-1-2.2-.7-3.2,0l-.8.6a5.9,5.9,0,0,1-2.3.1,3.9,3.9,0,0,0-3.6,4,1.2,1.2,0,0,0-1.1.9,3.8,3.8,0,0,0,.1,1.5,17.2,17.2,0,0,0,.7,2.1c.3.6.8,1.3,1.4,1.1l-1.3.4c1.2.1,1.1,2,2.1,2.5a2.5,2.5,0,0,0,1.7,0,7.4,7.4,0,0,1,3.9.1,11,11,0,0,0,2.6.6,7.2,7.2,0,0,0,3.7-1.1c.1-.1.3-.2.3-.3s-.2-.7-.3-1.1.7-1.1,1-1.7A2,2,0,0,0,118.5,32.2Z"/><path class="cls-5" d="M78.8,120.3c1,2.1,4.4,21,4.8,23.6s-12.5,18.8-16.1,30.8c0,0,14.2-.4,23.6,1s26.4-.7,30.4-.4-6.1-47.6-6.1-47.6Z"/><path class="cls-8" d="M152.7,55.3s-.9-3.4-3.7-2.5-2,9.4,2.7,7.7Z"/><path class="cls-9" d="M170.8,136.4l5.3,5.6s4.2,7.6,5,19.5,2.3,13,2.3,13-14.1,2.7-22.7,2.5l-18.4-.4c-2.8-.1-5.8-.5-5.8-.5l1.7-35.8Z"/><path class="cls-10" d="M172.8,49.7l.3,9.1s-4.4,11.1-7.1,9.7,4.5-13,4.5-13Z"/><path class="cls-11" d="M166.5,74.6c.1-4.2.8-9.3.7-9.4l-13.5,5V74A67.3,67.3,0,0,0,166.5,74.6Z"/><path class="cls-2" d="M151.7,50.4s-3.8,12.9-3.3,16.8,5.6,6,11.5,4.9,8.1-6.9,8.1-6.9l3.6-8.3-1.8-11.3-16.4-.5Z"/><path class="cls-2" d="M169.9,60.2s3-1.8,4.8.8-4.7,8.7-7.5,4.2Z"/><path class="cls-10" d="M168.9,48.7s-12.8-4.3-12.3.2c.3,2.8,5.7,3,9.5,2.8a3.1,3.1,0,0,1,3.2,4.2h0c-.8,1.9-2,3.9-1.5,4.8s1.3.7,1.6.4l4.3-5.7Z"/><path class="cls-10" d="M157.7,48.2s-5.2-.3-7-1.9-1.4-7.9.9-8.9,2.1.2,3.1.9a7.4,7.4,0,0,0,5.2,1.5c4.4-.5,12.3.2,13.1,5h0s5,.8,4.6,4.3-4.5,9.7-4.5,9.7l-2-4.8-1.5-3.7Z"/><path class="cls-2" d="M154.8,103.7c2.4,1.1,14.7-16.8,18.1-22.9l-1.9-.3a9,9,0,0,1-3.6-1.8c-.7-.8-.9-2.1-.9-4.6a33.7,33.7,0,0,1-12.8-1.8V78l-11.2,2.4C142.6,81,149,100.8,154.8,103.7Z"/><path class="cls-12" d="M182.4,83.5c-1.8-.5-3.8-1-5.5-1.3l-1.1-.3,1.4-2.4s-6.3-1.1-7.6-.7h-.2a1.4,1.4,0,0,0-1,.7c-1.8,2.2-6.6,8.2-6.9,8.8s-4.2,5.9-6.9,11.1c0,0,.8-8.6,1.3-11.9s2.2-2.7.2-4.7a30.7,30.7,0,0,1-5-6.2c-.2-.6-8.2.7-7.7,1.6a3.2,3.2,0,0,1,.5,1.3s-8.4,1.1-8.6,1.4.7,1,2,2.5c-.2,1.4-5.8,6.2-6,7.9-.2,3.4,5.2,4,5.2,8.2s0,7.4.1,11.2.1,7.7.2,11.5.8,14.9.9,17.9c0,.3.2.4.5.2l2.7.9a32.3,32.3,0,0,0,19.5,3.9,53,53,0,0,0,5.5-1l10.2-2.1c3.8-8.1,2.8-17.6,3.9-26.6a105.4,105.4,0,0,1,3.6-15.5l2.6-9.9C187.1,87.1,185.7,84.4,182.4,83.5Z"/><path class="cls-13" d="M169.1,63.5h-.2a.3.3,0,0,1,0-.4c2.6-2.6,5-.8,5-.8s.2.3.1.4-.3.2-.4.1-2.1-1.6-4.3.7Z"/><path class="cls-13" d="M170.6,64.4h-.3c0-.2,0-.3.2-.4l.4-.3a1.4,1.4,0,0,0,.6-1.5c-.1-.2,0-.3.2-.4a.3.3,0,0,1,.3.3,2.1,2.1,0,0,1-.7,2.1l-.6.3Z"/><path class="cls-3" d="M127.2,145.1h-.6a3.7,3.7,0,0,0-4.3,3.5c-.1,3.3-1,12.6-.7,12.7l1,.2a4.3,4.3,0,0,0,4.4-3c.2-.6,1.2-3.6,1.2-3.9l.3-.8a4,4,0,0,1,1.5-1.4,107.3,107.3,0,0,0,9.3-5.8c-2.7-4.6-5.4-6.8-6.4-8.9C130,141.3,127.2,145.1,127.2,145.1Z"/><path class="cls-14" d="M154.9,121.8c-3.3-3.5-19.8-2.7-22.5-3.6l4.2-7-14.4-4.7-3.1-.3S108.9,125,125,129.1a80.4,80.4,0,0,0,12.4,2.1c-1.3,1.4-3.2,3.7-5.1,6.1a47,47,0,0,0,8.7,11.3c6.5-4.3,12.1-11.3,13.8-12.7S158.6,125.8,154.9,121.8Z"/><path class="cls-15" d="M132.1,63.2a3.1,3.1,0,0,0,.1-3.8,16.6,16.6,0,0,1-1.3-1.4,14,14,0,0,1-1-1.6,4.6,4.6,0,0,0-4-1.9,3.3,3.3,0,0,1-1,0l-1-.4a4.8,4.8,0,0,0-4.9.8,2.8,2.8,0,0,1-1.8.6,4.3,4.3,0,0,0-3.3,1.1,3.9,3.9,0,0,0-1.3,3,2.7,2.7,0,0,1-.8,1.9,4.6,4.6,0,0,0-1.5,3.7,1.8,1.8,0,0,1-.3,1.2,1.7,1.7,0,0,0,0,1.7,2.6,2.6,0,0,1,.5.9,2.2,2.2,0,0,1-.1,1.1,2.2,2.2,0,0,0,1.3,2.6,3.8,3.8,0,0,1,1,.3c.3.2.3.6.4.9a3,3,0,0,0,2.3,1.9,2.6,2.6,0,0,1,1.8.9,3.5,3.5,0,0,0,2,1,2.8,2.8,0,0,0,2.7-1.7c.2-.3.2-.6.4-.8s.9-.7,1.4-1c4.2-2.3,4.2-7.7,8.1-10.4Z"/><path class="cls-11" d="M122.3,80.4c-.1-3.3-.4-7.3-.3-7.4l7,4v2.2A13.2,13.2,0,0,1,122.3,80.4Z"/><path class="cls-3" d="M131.6,61.8s3.2,8.7,3.1,11.6-3,5.4-7.8,5.2a8.7,8.7,0,0,1-6.9-4.2l-3.4-5.7,1.8-5.3,12.5-2.9Z"/><path class="cls-3" d="M118.3,71.1s-2.4-1.1-3.3,1,4.4,6.2,5.8,2.6Z"/><path class="cls-13" d="M119.5,73.8h-.1c-1.9-1.9-3.3-.7-3.4-.7s-.2.1-.2,0-.1-.2,0-.2,1.8-1.5,3.9.6v.3Z"/><path class="cls-13" d="M118.4,74.6h-.1l-.4-.3a1.6,1.6,0,0,1-.6-1.7h.2c.1,0,.1.1.1.2a1.3,1.3,0,0,0,.5,1.3l.4.3c.1,0,.1.1.1.2Z"/><path class="cls-3" d="M122.3,82.3V80.4a13.2,13.2,0,0,0,6.7-1.2v1.3a1.6,1.6,0,0,0,1.7,1.6l2.7-.3-2.8,5.3-8.9.6-3.9-3.4Z"/><path class="cls-15" d="M115.9,69.2l1.9,1.8s1,.6,1.2-.4a39.4,39.4,0,0,0-.4-4.8s12.8-1.8,13-5.6a14.2,14.2,0,0,0-1.2-6.5,28.5,28.5,0,0,1-5.5.8c-1.6-.1-7.8,5.3-8.3,6.2a22.8,22.8,0,0,0-1.4,5Z"/><path class="cls-16" d="M136.9,151.4h-.6a3.6,3.6,0,0,0-2.3,1.3,4.3,4.3,0,0,0-.6,3.8c1.2,3.3,4,12.9,4.3,12.8l1-.2a4.4,4.4,0,0,0,3.3-4.7c-.1-.7-.3-4-.4-4.4v-.8a3.7,3.7,0,0,1,.9-2c1.1-1.2,3.9-5,6.9-9.4a33.2,33.2,0,0,1-9.9-6.2C138.1,146.5,136.9,151.4,136.9,151.4Z"/><path class="cls-17" d="M154.6,118.9c-4.3-2.1-15.1-3.9-18-3.8l-2.9.7-15.1,1-2.9.9s-2.5,21.2,13.9,19.1a75.1,75.1,0,0,0,12.3-2.7,78.7,78.7,0,0,0-2.4,7.6,51.2,51.2,0,0,0,12.2,7.3c4.4-6.5,7-15.1,8.1-17C161.8,128.5,159.5,121.2,154.6,118.9Z"/><path class="cls-18" d="M150,76.2s-1.7-2-3.4-1.8-15,6.9-15.3,7.1.1,3.8-3.3,4.3-6.6-3.2-6.6-3.2-9.1,4.2-9.5,7.9-.9,23.6,2.7,28.2c1.2,1.5,3.5,2.2,6.1,2.5,7.2.6,15.2.2,19.9-5.3a4.5,4.5,0,0,0,1-1.5c-.2-1.1-5.2-17.5-5.8-20.7,0,0,5.1-9.4,13.1-15.2,2-1.4,2.2-2,2.2-2Z"/><path class="cls-18" d="M115.1,88.1s3.9-.9,5.1,1.6,3.2,20.6,3.2,20.6h10.7V118Z"/><path class="cls-2" d="M134.1,119v-4.7l2.6,2.3s5.3-1.1,7.3,3.7l-9.9-.8Z"/><path class="cls-14" d="M178.6,117.3l-2.2.8-2.1-.9c-.6,3.8-.6,6.3.7,6.1,4.7-.6,7.9-1.5,8.7-3.1l-2.1-1.6A7.8,7.8,0,0,0,178.6,117.3Z"/><path class="cls-12" d="M185.1,111.6c.2-2.6,3.4-16.7,3.2-21a6.7,6.7,0,0,0-3.4-5.8s-3.3,4.3-3.1,4.9-5.9,17.8-7.5,27.5l2.1.9,2.2-.8a7.8,7.8,0,0,1,3,1.3l2.1,1.6h0C184.5,118.6,184.8,114.1,185.1,111.6Z"/><path class="cls-2" d="M164.6,112.1a11.1,11.1,0,0,1,7.3,1.8c1.8,1.2,3.3,2.9,5.5,3.3s1.7,0,2.3.6-5.8,16.4-14,18.3-30.5-7.1-31.4-7-5.9,1.3-7.6.5-7.5-6.5-3.7-9.4c0,0,.5-1.3,2.9-1.3s34.1,2.6,34.1,2.6Z"/><path class="cls-3" d="M138.9,129.3c-.2.1-4.6-.2-4.6-.2a2.7,2.7,0,0,1-1.6,1.3c-1.2.4-9.9,1.7-10.5,1.4a3,3,0,0,1-1.2-3.6s-1.9-1.7-.8-3.6c0,0-1.3-1.9-.1-3.3a3,3,0,0,1-.6-1.8,1.8,1.8,0,0,1,2.1-1.5h0s11-.2,12.1,1.2a5.3,5.3,0,0,1,.9,1.9l4.3.2Z"/><path class="cls-3" d="M122.1,118a56.8,56.8,0,0,1-6.1-2,1.4,1.4,0,0,0-1.9,1h0a1.3,1.3,0,0,0,.7,1.6l4.7,2.6h-3.3a1.2,1.2,0,0,0-1.3,1.2h0a1,1,0,0,0,.8,1.2l3.9,1.3h-.2a2,2,0,0,0-1.3,1.9h0a1.9,1.9,0,0,0,1.8,1.8h.3l-.3.3a2.4,2.4,0,0,0-.5,1.8h0a1.9,1.9,0,0,0,2,1.4l1.6-.2,2.2-3.2Z"/><path class="cls-14" d="M106.6,121.7l9.5,2.9,4.8-2.2a2.7,2.7,0,0,0,0-3.3c-1.8-2.6-12.5-8.6-12.6-8.6a2.3,2.3,0,0,0-2.7.6Z"/><path class="cls-7" d="M119.7,86.3a.9.9,0,0,0-1.4.3l-2.7,5.2.2-3.8,1.6-3.9a1,1,0,0,0-.6-1.3.9.9,0,0,0-1.2.5L114,86.2h0l1-3a1.1,1.1,0,0,0-1-1.4h0a1.1,1.1,0,0,0-1.2.7l-.2.6a1.9,1.9,0,0,0-2.1,1l-.9,2.3a6.5,6.5,0,0,0-.4,1.3s-1.1,7.1-1.3,8.1,2.7,10.9,2.7,10.9l-7.4,13.1,9.6,3.5,6.8-16.9a5.6,5.6,0,0,0-.4-4.4l-2.7-5,3.5-9.8A.8.8,0,0,0,119.7,86.3Z"/><path class="cls-7" d="M119.7,86.3a.9.9,0,0,0-1.4.3l-2.7,5.2.2-3.8,1.6-3.9a1,1,0,0,0-.6-1.3.9.9,0,0,0-1.2.5L114,86.2h0l1-3a1.1,1.1,0,0,0-1-1.4h0a1.1,1.1,0,0,0-1.2.7l-.2.6a1.9,1.9,0,0,0-2.1,1l-.9,2.3a6.5,6.5,0,0,0-.4,1.3s-1.1,7.1-1.3,8.1,2.7,10.9,2.7,10.9l-7.4,13.1,9.6,3.5,6.8-16.9a5.6,5.6,0,0,0-.4-4.4l-2.7-5,3.5-9.8A.8.8,0,0,0,119.7,86.3Z"/><path class="cls-6" d="M114.6,94.5h-.1a.5.5,0,0,1-.3-.5l.8-2.4a.4.4,0,0,1,.7.3l-.8,2.4C114.9,94.4,114.7,94.5,114.6,94.5Z"/><path class="cls-6" d="M112.4,92.2h-.1c-.2,0-.3-.2-.3-.4l.7-3.9h0l.5-1.3a.4.4,0,0,1,.7.3l-.5,1.2-.6,3.9C112.7,92.1,112.6,92.2,112.4,92.2Z"/><path class="cls-4" d="M82.9,138.2a15.3,15.3,0,0,0,8.5,5.1,21.2,21.2,0,0,0,4.4.6c3.1.1,6.5-.7,8.7-2.9s2.7-4,4.6-5.5a20.7,20.7,0,0,1,3.5-2.2,14.3,14.3,0,0,0,4.7-5.1c1-2.1,1.6-4.6,3.6-5.8,0,0-3.5,2.3-15.3-11.3,0,0-9.1,10.6-10,10.6S91.7,105.9,90,96.1s-1.6-15.6-7.1-16.5-9.4,4.7-9.7,5.5C71.9,88.4,65,117.1,82.9,138.2Z"/></svg>