<?xml version="1.0" encoding="utf-8"?>
<!-- Generator: Adobe Illustrator 26.0.3, SVG Export Plug-In . SVG Version: 6.00 Build 0)  -->
<svg version="1.1" id="Layer_1" xmlns="http://www.w3.org/2000/svg" xmlns:xlink="http://www.w3.org/1999/xlink" x="0px" y="0px"
	 viewBox="0 0 429.3 404.3" style="enable-background:new 0 0 429.3 404.3;" xml:space="preserve">
<style type="text/css">
	.st0{fill:#F4E9F0;}
	.st1{fill:#E49FC2;}
</style>
<g>
	<path id="Path_80573" class="st0" d="M428.8,0c-3.5,18.9-13.3,60.6-40.6,88.1c-10.3,10.5-23.2,18.3-37.4,22.4
		c-63.9,19.5-91-32.1-147.4-26.1c-65.3,6.9-80.2,81.5-139.6,72.3C35.3,152.3,13,131.3,0,116c-0.2,71.6,0.2,122.7,0,194.3h428.8
		C429.7,206,429.1,104.6,428.8,0z"/>
	<path id="Path_80574" class="st1" d="M0.5,49.8C4,76,13.8,133.6,41.1,171.5c12.8,17.8,25.6,26,37.4,30.9
		c63.9,26.9,91-44.3,147.4-36.1c65.3,9.6,80.2,112.6,139.6,99.9c28.6-6.1,50.9-35,63.8-56.3c0.2,98.9-0.2,95.4,0,194.2H0.5
		C-0.4,260.2,0.2,194.3,0.5,49.8z"/>
</g>
</svg>
