<?xml version="1.0" encoding="utf-8"?>
<!-- Generator: Adobe Illustrator 26.0.2, SVG Export Plug-In . SVG Version: 6.00 Build 0)  -->
<svg version="1.1" id="_x2014_ÎÓÈ_x5F_1" xmlns="http://www.w3.org/2000/svg" xmlns:xlink="http://www.w3.org/1999/xlink" x="0px" y="0px" viewbox="0 0 3365.2 3342.2" style="enable-background:new 0 0 3365.2 3342.2;" xml:space="preserve">

<path id="Path_67314_00000050627155243190338660000003375234127422991241_" class="st0" d="M2808.2,1481.8
	c-245.4-82.4-534-200.5-593.9-462.8c-50.6-219.2,78.7-447.8,26.2-667C2070-348.7,1050.8,170.3,694.8,425.1
	c-479.6,346.6-792.5,880.6-667,1452c88.1,399.1,294.1,747.5,556.4,1036.1c292.3,316.6,854.3,429,1262.8,429
	c474,0,970.5-164.9,1302.1-507.7C3385.2,2589,3598.8,1749.7,2808.2,1481.8" style="fill: #EEE2F7;"/>
<g>
	<path class="st1" d="M1733,2212.7c18.8,8.3,38.4,15.9,57.9,21.7c2.6,0.8,2.2-12.2,1.9-13.4c-1.4-5.5-5.4-8.1-8.5-12.4
		c-8.2-10.9-14.3-23-23.8-33.1c-16.4-17.4-18.5-25.4-10.6-49.3c9.7-29.4,25.1-58,37.5-86.3c0.5,27.7-1.6,55.9,2.2,83.4
		c4,28.8,7.2,57.7,9.5,86.6c10.3-0.9,20.5-2.3,30.6-4.4c9.6-2,18.4-2.6,28.2-3.5c19.9-2,39.8-5.3,58.9-11.7
		c15-5,31.5-13.6,47.6-11.4c19.1,2.6,37.1,4.7,56.5,4.4c-6.2-20.8-11.8-41.6-15.4-63c-5.6-33.4-6-67.3-8.7-100.9
		c-2-25.6,11.8-58.4,32.1-74.6c3.8-3,8-5.7,10.9-9.6c7.8-10.4,3.7-25.2-2.5-36.6c-16.9-30.9-39.8-53.8-75.5-54.9
		c-3.8-0.1-7.7-0.3-11.2-2c-26.3-12.4,8.9-79.3,17.1-95.6c15.5-30.7,33.5-61.6,33.9-97.1c0.4-28.7-14.2-57.2-37.8-73.6
		c-20.6-14.4-48-19.3-71.8-11.4c-45.1,15-72.3,54.3-81.1,99.6c-5.5,28.2-9.9,118.2,25.9,130c10.4,3.4,19.2-0.5,29.4-1.2
		c-1,6-1.9,12-2.9,18.1c-0.6,3.7-1.3,7.6-3.7,10.5c-2,2.4-5,3.6-7.9,4.7c-11.5,4.3-23.7,6.8-36,8.3c-17.7,2.1-35.2,8.6-43.6,25.3
		c-25.9,51.8-49.1,105-69.3,159.3c-15,40.4-49.7,103-31.7,146.5c8.5,20.4,30.1,33.2,49.3,41.9
		C1724.7,2209,1728.8,2210.9,1733,2212.7z" style="fill: #B57369;"/>
	<path class="st2" d="M1620.4,3026.8c-0.3,0.1-0.5,0.2-0.8,0.3c-27.2,8.7-26.6,9.1-45,30.6c-16.3,19.1-37.9,35.1-56.3,52.1
		c-5.6,5.2-11.7,11.6-10.6,19.2c40.5,2.1,81.5-5.6,118.5-22.2c5.6-2.5,11.5-5.5,14.4-10.9c2.2-3.9,2.5-8.6,2.7-13.1
		c0.4-6.5,7-58.7-2.2-59.4C1633.2,3022.6,1627.5,3024.5,1620.4,3026.8z" style="fill: #2C3E42;"/>
	<path class="st2" d="M2024.7,3006.9c-8.6,2.3-23.9,7.1-28.1,15.9c-17.4,36.8-6,90.4-4.6,130.2c0.1,3.7,0.4,7.8,3.1,10.4
		c5.6,5.2,14.4-1.1,19-7.3c30.5-41.6,52.2-87.6,27.5-136.9C2037.4,3011,2035.3,3004.1,2024.7,3006.9z" style="fill: #2C3E42;"/>
	<path class="st3" d="M2008.3,2923.1c-4.7-14.4-8.8-28.8-15.1-43.1c-22.9-52.2-45.8-104.4-67.2-157.2c-3.3-8.3-6.7-16.8-6.8-25.7
		c-0.1-8.8,3.1-17.4,6.2-25.6c23.8-63.7,50.9-125.5,81.3-186.3c18.7-43.1,44-94.7,48.2-141.8c2-22.2,0.5-51-7.8-72.1
		c-2.1-5.4-38.1-69.5-34.5-69.6c-64.1,2.9-128.1,5.7-192.2,8.6c-7.8,0.3-15.8,0.8-22.7,4.3c-7.8,4-13,11.5-18,18.7
		c-52.3,76.2-102,154.1-148.9,233.7c-39.7,67.4-76.5,132.4-73.8,213.5c1.8,54.1,6.3,108,11,161.9c2.7,31.5,4.9,63.6,9.8,94.9
		c5.4,34.1,8.5,67,10.7,101.4c4.4-2.3,55.7-2.5,55.1,0.1c7-35.2,7.7-71.4,11.9-107.1c4.4-37.8,8.4-75.7,12.2-113.6
		c4.8-47.4,1.3-101.2,22-145.1c17.6-37.7,44.3-65.7,67.6-99.7c13.7-19.9,25.8-39.8,42.3-57.7c-12.7,58.9-14.2,130.4-2.1,189.6
		c10.2,49.9,39.2,92.9,66.7,134.7c41.5,63.2,92.3,120.8,130.2,186.3c0.3,0.4,0.5,0.9,1,1.2c0.8,0.4,1.7,0.1,2.6-0.2
		c12.3-4.8,25.9-8.4,37.4-15c0.5-0.3,1-0.6,1.2-1c0.4-0.7,0.2-1.6-0.1-2.4C2027.8,2980.1,2017.6,2951.7,2008.3,2923.1z" style="fill: #84BAC9;"/>
</g>
<path class="st4" d="M1526.8,1745.6c-2.1-1.4-4.6-2.2-7.1-3c-23.2-7.7-44.9-18.3-68-25.6c-5.2-1.6-11.7-4.4-17.2-2.2
	c-5.2,2-5.9,7.6-4.6,14.2c2.2,11.5,10.7,26.3,12.7,30.8c5.7,13.1,11.5,26.1,17.2,39.2c1.2,2.4,2.3,4.8,3.3,7.2c2,4.3,3.9,8.7,5.8,13
	c11.6-10.4,25.3-18,36.8-28.6c7.5-6.9,13.3-17.2,18.7-25.6C1528.3,1759.1,1535.5,1751.5,1526.8,1745.6z" style="fill: #89509E;"/>
<path class="st5" d="M1344.4,1800.7c-158.1-6.2-316.4-7.1-474.5-2.8c-13.9,151.1-14.7,303-14.2,454.5c0,9.4,0.3,19.5,5.7,27
	c0.3,0.4,0.6,0.8,1,1.2c4.8,5.8,12.3,8.6,19.4,11.1c70.7,24.4,121.8,12.7,193,15.8c88.6,3.8,177.1,6.9,265.2-6.5
	c11.2-1.7,7.3-175.1,8.6-191.8C1350.5,2085,1364.1,1801.6,1344.4,1800.7z M1292.9,1929c0,105.3-12.4,216.7-0.8,321
	c-124.7,0.2-261.6,10.8-384.2-7.7c-4.8-62.6,0.9-125.2,3.7-187.8c3.2-70.6-2-141.3,0-212c22.5-7.1,64.1,3.3,88.6,3
	c33-0.4,66-2.2,99-3.6c63.7-2.8,128.2-5.4,191.5,3.9c0.5,0.1,0.8,0.6,0.8,1C1292.5,1874.2,1292.9,1901.6,1292.9,1929z" style="fill: #FFFFFF;"/>
<path class="st6" d="M1090.9,2170.8C1090.9,2170.8,1090.9,2170.8,1090.9,2170.8c8.1,11.5,13.8,19.6,15.9,22.7
	c1.2,1.7,86.2-123.2,93.2-134.4c33.4-53.3,66.7-106.6,99.7-160.1c7.3-11.9,122.3-198.4,119.3-200.1c-19.5-11-33.6-28.3-51.8-38.9
	c-90.5,137.6-180.4,281.1-261.2,424.9c-11.1-19.8-109.6-192-108.8-192.3c-19.1,6.2-42.3,11.2-59.1,23
	C975.7,2003.9,1035.5,2092.3,1090.9,2170.8z" style="fill: #252334;"/>
<path class="st5" d="M1337.6,1043.9c-158.1-6.2-316.4-7.1-474.5-2.8c-13.9,151.1-14.7,303-14.2,454.5c0,9.4,0.3,19.5,5.7,27
	c0.3,0.4,0.6,0.8,1,1.2c4.8,5.8,12.3,8.6,19.4,11.1c70.7,24.4,121.8,12.7,193,15.8c88.6,3.8,177.1,6.8,265.2-6.5
	c11.2-1.7,7.3-175.1,8.6-191.8C1343.7,1328.2,1357.4,1044.8,1337.6,1043.9z M1286.1,1172.2c0,105.3-12.4,216.7-0.8,321
	c-124.7,0.2-261.6,10.8-384.2-7.7c-4.8-62.6,0.9-125.2,3.7-187.8c3.2-70.6-2-141.3,0-212c22.5-7.1,64.1,3.3,88.6,3
	c33-0.4,66-2.2,99-3.6c63.7-2.8,128.2-5.4,191.5,3.9c0.5,0.1,0.8,0.6,0.8,1C1285.7,1117.4,1286.1,1144.8,1286.1,1172.2z" style="fill: #FFFFFF;"/>
<path class="st6" d="M1084.1,1414C1084.1,1414,1084.1,1414,1084.1,1414c8.1,11.5,13.8,19.6,15.9,22.7c1.2,1.7,86.2-123.2,93.2-134.4
	c33.4-53.3,66.7-106.6,99.7-160.1c7.3-11.9,122.3-198.4,119.3-200.1c-19.5-11-33.6-28.3-51.8-38.9
	c-90.5,137.6-180.4,281.1-261.2,424.9c-11.1-19.8-109.6-192-108.8-192.3c-19.1,6.2-42.3,11.2-59.1,23
	C968.9,1247,1028.8,1335.5,1084.1,1414z" style="fill: #252334;"/>
<path class="st5" d="M1509,1775.3c5.8-10.2,9.4-22.5,9.5-33.4c7,3.2,15.4,4.2,22.8,6.4c27.3,8.1,54.3,14.3,80.4,26.3
	c7,3.2,11.6,10,15.8,16.4c13.8,21.2,32.7,45.7,18,72.6c-2.4,8.2-5.5,16.3-10.2,23.5c-5,7.8-11.7,14.4-18.4,20.7
	c-21.2,19.9-53.8,46.8-84.2,33.8c-29.6-12.7-38.8-44.3-51-70.9c-5.2-11.3-9.2-23.8-15.3-34.6c-5.7-10.1-9.2-21.2-14.6-31.7
	c14.6-3.2,29.9-7.6,39.8-18.8C1504.4,1782.6,1506.9,1779.1,1509,1775.3z" style="fill: #FFFFFF;"/>
<path class="st5" d="M1963.7,1998.6c3.6,27.7,9.1,43.4,36.4,49.1c0,38.4,4.7,72.7,8.4,110.5c0.7,5,1.1,10.8-2.5,14.3
	c-2.7,2.6-6.7,3.1-10.4,3.3c-30.6,1.8-61.2-2.2-91.6-6.3c-24.1-3.3-48.5-6.7-71.2-15.7c-22.8-9-45.6-23.8-69.7-19.4
	c-1.7-93.6,9.9-186.9,22.2-279.7c0.6-4.7,1.4-9.7,4.5-13.3c3-3.5,7.7-5.1,12.1-6.3c14.1-3.9,28.6-6.4,43.1-7.4
	c-18.3,1.3-2.7,109.9,1.8,120.5c2.7,6.3,5.9,13.4,3.3,19.8c10.8-26.1,29.8-48,47.2-69.9c16.7-20.8,32.3-40.2,47.8-62.2
	c2.4-3.5,39.5,11.8,43.9,14.2C1970.1,1899,1956.6,1944.7,1963.7,1998.6z" style="fill: #FFFFFF;"/>
<path class="st4" d="M2168.8,2428.9c31-19.5,54.9-50.5,64.2-86c2-7.7,3.4-15.8,1.6-23.5c-2.9-12.1-17.2-20.9-25.8-29.3
	c-12.8-12.4-24.4-26.1-38-37.6c-8.6-7.3-17.1-14.6-25.7-21.9c-51.7-44.1-103.2-88.4-154.7-132.7c-66.9-57.7-133.8-115.4-200.3-173.6
	c-28.4-24.9-56.8-49.8-85-75c-11.1-9.9-22.1-19.8-33.1-29.8c-11.1-10.1-21.1-21.2-32-31.7c-3.4-3.3-6.9-6.6-11-9
	c-0.2-0.1-0.5-0.3-0.8-0.3c-0.4,0-0.8,0.4-1,0.8c-0.5,1.1-0.1,2.4,0.3,3.5c3.8,11,6,20.9,4.6,32.7c-0.8,6.5-3.2,13.7-9.1,16.4
	c-3.6,1.6-7.8,1.3-11.6,0.4c-3.4-0.8-6.8-2.1-9.9-3.7c-3.9-2.1-8.4-4.8-12.4-2.8c5.3,8.2,12.4,15.4,15.6,24.8
	c2.2,6.3,1,13.5-2.3,19.4c-3.3,5.8-8.5,10.4-14.2,13.9c-12.9,7.9-22.7-0.3-34.3-6.3c-1,2.2,1.4,4.4,3.1,6.1c4,4.2,5.1,10.5,5,16.3
	c-0.1,4.7-1,9.8-4.7,12.8c-1.6,1.3-3.6,2-5.5,2.7c-6.1,2.1-13.3,5.4-19.8,5.8c-6.1,0.3-10.9-2.2-16.3-2.9c1.9,4.8,6.9,7.9,10.4,11.5
	c3.8,4,7.6,7.9,11.8,11.4c6.9,5.7,13.7,11.4,20.5,17.2c13.6,11.6,27,23.5,40.3,35.5c26.7,24,53,48.3,79.8,72.1
	c42.1,37.3,79.8,78.5,122.5,114.6c80.2,67.7,159.6,134.5,238.1,204.1c15.3,13.6,31.5,26.4,46.9,39.5c10.8,9.1,21.1,26.8,37.8,23.1
	C2139.8,2443.9,2155,2437.6,2168.8,2428.9z" style="fill: #89509E;"/>
<path class="st1" d="M2131.2,2005.4c-44.3-46.6-75.3-100.7-124.2-145l-14.5,21.2c-3.6,14.7-6.7,29.6-8.9,44.7
	c-2.6,21.9-3.3,43.9-1.9,65.9c0,0.1,0,0.3,0,0.4c6,7.1,12.2,13.9,19,20.1c26.6,24.4,54.7,46.2,79.7,72.5c3.1,3.3,6.4,7,6.8,11.5
	c0.4,4.5-2.2,8.7-4.6,12.5c-25.4,39.4-48.7,80-72.3,120.5c-9.7,16.7-16.5,34.9-27.3,51.1c-2.8,4.1-22.3,32.9-28.9,27.3
	c-7.8-6.6-15.5-13.2-23.5-19.6c-5.3,23.1,7.2,56.4,34.7,55.1c21.4-1,36-24.2,51.4-36.6c21-16.8,40.6-36.2,60-54.8
	c38.5-36.8,79.1-77.9,98.8-128.3C2194.8,2075,2162.9,2038.8,2131.2,2005.4z" style="fill: #B57369;"/>
<path class="st1" d="M1839.1,2246.3c16,2.5,32.8,5.3,48.8,4c9.2-0.8,19,2.8,28.1,4.7c5.5,1.2,11.1,2.5,16.8,2.3
	c10.5-0.4,21.9-4.5,30.8-9.8c2.4-1.5,5-3.3,5.7-6c0.7-2.8-0.9-5.8-3.2-7.6s-5.2-2.5-8-3c-8.5-1.6-17.2-1.4-25.8-1.6
	c-4.6-0.1-13.8,0.1-16.3-4.9c0-0.1,13.1-2.3,14.5-2.3c4.7,0.1,13.1,2.2,15.9-2.2c0.1-0.2,0.3-0.4,0.2-0.6c-0.1-0.2-0.3-0.4-0.6-0.5
	c-5.1-2-10.2-3.9-15.5-5c-7.8-1.6-14.8,0-22.3,2.2c-7.6,2.2-15.5,3.8-23.5,4.6c-7.7,0.8-12-2.3-18.2-6c-8.3-4.8-16.8-9.2-25.2-13.8
	c-16.5-8.9-33-17.6-49.9-25.8c-13.2-6.4-26.6-12.5-38.7-20.8c-10.6-7.4-20.1-16.4-31.5-22.5c3.1,1.7-28.3,55.1-25.6,61
	c0.5,1,1.5,1.7,2.5,2.3c9.9,5.9,19.4,12.7,29.7,17.8c33.1,16.4,71,27.3,107.4,32.8C1836.6,2245.9,1837.9,2246.1,1839.1,2246.3z" style="fill: #B57369;"/>
<path class="st6" d="M1915.3,1704.7c3.5,1.8,7.7-0.7,10.3-3.7c8-9.6,11.5-25.7,27.8-23.9c9.7,1,16,11.9,15.3,21.6
	c-0.7,9.7-6.4,18.3-12.5,26c-4.6,5.7-9.5,11.5-11.6,18.5c-1.3,4.2-1.5,8.6-1.2,13c0.3,5.5,1.3,11,2.9,16.3c0.6,2,1.4,4,3.2,5.1
	c3.7,2.3,8.1-1.3,10.9-4.6c18-20.6,41.4-34.2,56.9-57.8c13.1-20,21.3-43.7,20.8-67.7c-0.2-8.2-1.8-16.6-8.1-22.3
	c8,6.3,18-1.4,24.2-6.8c13.4-11.8,23.1-25.6,18.9-43.5c-6.8-29.1-23.1-62.3-55.8-62.4c-27.3-0.1-60.9,13.6-68.2,42.5
	c-40.1-39.1-128.1,23.3-126.5,73.1c20.5-27.7,81.1-18.2,96.9,11.3C1927.3,1654.4,1900.1,1696.7,1915.3,1704.7z" style="fill: #252334;"/>
<g>
	<path class="st7" d="M1797.6,2518.1c0.3-0.3,0.7-0.7,1.1-1l20.8-139.7l-3.8-0.6l-21.7,145.7
		C1795,2520.9,1796.3,2519.4,1797.6,2518.1z" style="fill: #C1E4F5;"/>
</g>
<g>
	<path class="st5" d="M1996.8,2011c0-0.4-0.1-0.8-0.1-1.2c0-0.6,0-1.3,0-1.9l-15.9-19.4l-3,2.4l18.8,22.9l0.1-0.1
		C1996.7,2012.8,1996.7,2011.9,1996.8,2011z" style="fill: #FFFFFF;"/>
</g>
<path class="st5" d="M1644.7,1597.7c-7.7,0-15.2,6.8-14.8,14.8c0.4,8,6.5,14.8,14.8,14.8c7.7,0,15.2-6.8,14.8-14.8
	C1659.2,1604.4,1653,1597.7,1644.7,1597.7z" style="fill: #FFFFFF;"/>
<path class="st5" d="M1764.3,1532.6c0,0-0.1,0-0.1,0.1c-1.4,0.5-1.8,1.7-1.7,2.9c-0.1,1.2,0.3,2.4,1.7,3c0.1,0,0.1,0.1,0.2,0.1
	c3,4.4,10.2,2.5,10.2-3C1774.5,1530.1,1767.2,1528.1,1764.3,1532.6z" style="fill: #FFFFFF;"/>
<path class="st5" d="M1592.8,2147.6c-8.7,0-16.9,7.6-16.5,16.5c0.4,9,7.3,16.5,16.5,16.5c8.7,0,16.9-7.6,16.5-16.5
	C1609,2155.2,1602.1,2147.6,1592.8,2147.6z" style="fill: #FFFFFF;"/>
<path class="st5" d="M1535.9,2313.6c-11-4.6-18.8,8.6-12.4,17c0.4,0.6,0.9,1.2,1.5,1.7c0.4,0.4,0.9,0.8,1.4,1.1
	c1.3,0.8,2.7,1.1,4,1.1c0,0,0.1,0,0.1,0c0.6,0,1.2-0.1,1.7-0.2C1542.8,2333.1,1547,2318.2,1535.9,2313.6z" style="fill: #FFFFFF;"/>
<path class="st5" d="M1455.9,2145.5c-6.5,0-6.5,10.2,0,10.2C1462.5,2155.7,1462.5,2145.5,1455.9,2145.5z" style="fill: #FFFFFF;"/>
<path class="st5" d="M477.6,2297.5c-0.2-4.5-1.7-9.1-5.1-12.2c-3.4-3.1-7.5-5.1-12.2-5.1c-4.4,0-9.1,1.9-12.2,5.1
	c-1.7,1.6-2.9,3.4-3.6,5.6c-1.1,2.1-1.6,4.3-1.5,6.7c0.2,4.5,1.7,9.1,5.1,12.2c3.4,3.1,7.5,5.1,12.2,5.1c4.4,0,9.1-1.9,12.2-5.1
	c1.7-1.6,2.9-3.4,3.6-5.6C477.2,2302.1,477.7,2299.9,477.6,2297.5z" style="fill: #FFFFFF;"/>
<path class="st5" d="M244.4,2284.9c-1.1-3-3.2-5.2-6.5-5.6c-2.9-0.4-6.4,0.9-7.8,3.7c-0.2,0.4-0.3,0.7-0.5,1.1
	c-0.7,0.4-1.3,0.8-1.8,1.4c-3.2,3.5-3.2,8.4,0,11.9c1.8,2,4.5,3.3,7.3,3.4c3.3,0,6.5-1.8,8.2-4.7c1.1-1.8,1.8-4,1.8-6.1
	C245,2288.5,244.9,2286.3,244.4,2284.9z" style="fill: #FFFFFF;"/>
<path class="st5" d="M199,2062.2c-3.2-2.9-7.1-4.8-11.5-4.8c-4.2,0-8.6,1.8-11.5,4.8c-1.6,1.5-2.7,3.2-3.4,5.2c-1,1.9-1.5,4-1.4,6.3
	c0.2,4.2,1.6,8.6,4.8,11.5c3.2,2.9,7.1,4.8,11.5,4.8c4.2,0,8.6-1.8,11.5-4.8c1.6-1.5,2.7-3.2,3.4-5.2c1-1.9,1.5-4,1.4-6.3
	C203.6,2069.5,202.2,2065.1,199,2062.2z" style="fill: #FFFFFF;"/>
<path class="st5" d="M1099,1279.1c-12.1,0-12.1,18.7,0,18.7C1111.1,1297.9,1111.1,1279.1,1099,1279.1z" style="fill: #FFFFFF;"/>
<path class="st5" d="M1101.4,1443c-0.4-9.4-7.7-17.4-17.4-17.4c-9.1,0-17.8,8-17.4,17.4c0.4,9.4,7.7,17.4,17.4,17.4
	C1093.1,1460.4,1101.8,1452.4,1101.4,1443z" style="fill: #FFFFFF;"/>
<path class="st5" d="M2457.8,2166c-0.2-4.6-1.7-9.4-5.2-12.6c-3.5-3.2-7.8-5.2-12.6-5.2c-4.6,0-9.4,2-12.6,5.2
	c-1.7,1.6-3,3.5-3.7,5.8c-1.1,2.1-1.6,4.4-1.5,6.9c0.2,4.6,1.7,9.4,5.2,12.6c3.5,3.2,7.8,5.2,12.6,5.2c4.6,0,9.4-2,12.6-5.2
	c1.7-1.6,3-3.5,3.7-5.8C2457.3,2170.8,2457.8,2168.5,2457.8,2166z" style="fill: #FFFFFF;"/>
<path class="st5" d="M2537.7,2144.6c-7.6,0-7.7,11.9,0,11.9C2545.3,2156.5,2545.3,2144.6,2537.7,2144.6z" style="fill: #FFFFFF;"/>
<path class="st5" d="M2566.3,1940.8c-1.7-1.7-4.2-2.7-6.6-2.7c-2.5,0-4.8,1.1-6.6,2.7c-1.8,1.7-2.6,4.2-2.7,6.6
	c-0.1,3,1.8,6.9,4.6,8.1c1.8,0.8,3.4,1.8,5.5,1.5c1.8-0.2,3.6-1.2,4.9-2.2C2569.7,1951.4,2570.2,1944.8,2566.3,1940.8z" style="fill: #FFFFFF;"/>
<path class="st5" d="M2273.1,2026.2c-1.7-2.6-4-5.1-6.7-6.7c-0.7-0.5-1.4-1-2.1-1.4c-4.1-2.2-9.1-3.3-13.7-1.8
	c-1.4,0.6-2.8,1.2-4.2,1.8c-2.7,1.6-4.8,3.7-6.4,6.4c-1.7,2.4-2.6,6.6-2.6,9.5c0-0.3,0.3,3.4,0.7,4.9c1,3.5,1.5,3.9,3.3,6.2
	c1.6,2.1,3.2,3.7,5.7,5.1c1.7,0.9,3.9,1.8,5.9,2.4c2.4,0.7,4.8,0.9,7.1,0.3c2.4-0.1,4.6-0.8,6.6-2.1c2.1-1.1,3.8-2.7,5-4.6
	c1.6-1.7,2.6-3.8,3.2-6.1C2275.9,2035.4,2275.7,2030.3,2273.1,2026.2z" style="fill: #FFFFFF;"/>
<path class="st5" d="M2332.3,1649.7c-0.3-0.7-0.8-1.5-1.5-1.9c-0.2-0.1-0.4-0.2-0.6-0.3c-1.8-0.8-4.3-1.4-6.1,0
	c-1.1,0.8-2.1,1.6-3,2.6c-0.3,0.4-0.7,0.8-1,1.1c-0.7,0.8-1.4,1.8-1.7,2.9c-0.3,1.2-0.1,2.1,0,3.3c0.2,1.7,2.2,3.6,3.9,3.9
	c1.1,0.2,2.2,0.4,3.3,0c0.8-0.3,1.6-0.7,2.3-1.2c0.6-0.5,1.2-1,1.7-1.5c1-0.9,1.8-1.9,2.6-3
	C2333.7,1654,2333.1,1651.6,2332.3,1649.7z" style="fill: #FFFFFF;"/>
<path class="st5" d="M2478.6,2798.5c-0.2-4.6-1.7-9.4-5.2-12.6c-3.5-3.2-7.8-5.2-12.6-5.2c-4.6,0-9.4,2-12.6,5.2
	c-1.7,1.6-3,3.5-3.7,5.7c-1.1,2.1-1.6,4.4-1.5,6.9c0.2,4.6,1.7,9.4,5.2,12.6c3.5,3.2,7.8,5.2,12.6,5.2c4.6,0,9.4-2,12.6-5.2
	c1.7-1.6,3-3.5,3.7-5.7C2478.2,2803.3,2478.7,2801,2478.6,2798.5z" style="fill: #FFFFFF;"/>
<path class="st5" d="M2504.1,2876.4c-0.1-0.8-0.2-1.5-0.3-2.3c-0.3-1.9-2.7-3.5-4.6-3.5c-1.9,0.1-4.3,1.4-4.6,3.5
	c-0.1,0.8-0.2,1.5-0.3,2.3c-1.5,1.7-2.2,3.9-1.6,6.2c0.7,2.7,3.5,5,6.4,4.9c2.7-0.1,5-1.6,6.1-4.1
	C2506.4,2880.9,2505.8,2878.3,2504.1,2876.4z" style="fill: #FFFFFF;"/>
<path class="st5" d="M1779.9,2949c-11.2,0-11.2,17.4,0,17.4C1791.1,2966.5,1791.2,2949,1779.9,2949z" style="fill: #FFFFFF;"/>
<path class="st5" d="M1431.6,3033.5c-0.5-3.4-2.9-6.4-6.3-7.3c-2.4-0.6-4.9-0.2-6.9,1c-2.4-0.9-4.2,1.7-4.6,3.8
	c-0.1,0.5-0.2,1.1-0.2,1.6c-0.2,1-0.1,2.2,0.1,3.1c0.4,2,1.7,3.7,3,5.2c1.3,1.4,3.2,2.2,5.1,2.4c1.6,0.2,3.1,0,4.6-0.6
	C1430.1,3041.1,1432.2,3037.4,1431.6,3033.5z" style="fill: #FFFFFF;"/>
<path class="st5" d="M1322.5,3006.7c-2.4,0.5-5.1,0.7-6.8,2.6c-1.8,2-1.8,4.7,0,6.7c1.7,1.9,4.4,2.1,6.8,2.6c3.9,0.9,7.9-1.8,7.9-6
	C1330.4,3008.5,1326.4,3005.8,1322.5,3006.7z" style="fill: #FFFFFF;"/>
<path class="st5" d="M1252.8,3031.1c-2.3,0-4.7,1-6.4,2.6c-1.6,1.6-2.7,4.1-2.6,6.4c0.2,4.9,4,9,9,9c2.3,0,4.7-1,6.4-2.6
	c1.6-1.6,2.7-4.1,2.6-6.4C1261.6,3035.2,1257.8,3031.1,1252.8,3031.1z" style="fill: #FFFFFF;"/>
<path class="st5" d="M1164.7,3065.3c-1.5-3.6-5.8-5.4-9.3-4.2c-6.2-0.5-11.8,5.5-9,11.8c2.7,6.2,10.5,6.7,14.6,2
	C1164.5,3073.4,1166.3,3069,1164.7,3065.3z" style="fill: #FFFFFF;"/>
<path class="st5" d="M1192.4,2579.9c-8.1,0-15.8,7.1-15.4,15.4c0.4,8.4,6.8,15.4,15.4,15.4c8.1,0,15.8-7.1,15.4-15.4
	C1207.4,2587,1201,2579.9,1192.4,2579.9z" style="fill: #FFFFFF;"/>
<path class="st5" d="M1125,2547.4c-0.6-0.6-1.1-1.1-1.7-1.7c-0.7-0.7-1.2-1.6-2.3-1.6s-1.7,0.8-2.3,1.6c-0.5,0.6-1.1,1.1-1.7,1.7
	c-1.6,1.6-2.1,4.1-1.2,6.2c0.8,2,2.9,3.6,5.2,3.5c2-0.1,3.9-1.1,4.9-2.8C1127.1,2552.1,1126.7,2549.2,1125,2547.4z" style="fill: #FFFFFF;"/>
<path class="st5" d="M1031.7,2477.2c-0.3-0.4-0.6-0.9-0.9-1.3c1-2.2-0.7-4.9-3.2-4.9c-2.5,0-4.2,2.7-3.2,4.9
	c-0.3,0.4-0.6,0.9-0.9,1.3c-1.2,1.9-0.6,4.7,1.1,6.1c0.1,1,0.3,1.9,0.4,2.9c0.4,2.5,4.6,2.5,5,0c0.1-1,0.3-1.9,0.4-2.9
	C1032.3,2482,1032.9,2479.1,1031.7,2477.2z" style="fill: #FFFFFF;"/>
<path class="st5" d="M423.6,1516.4c-10.6,0-10.6,16.4,0,16.4C434.2,1532.8,434.2,1516.4,423.6,1516.4z" style="fill: #FFFFFF;"/>
<path class="st5" d="M368.7,1461.3c-3.7,0-3.7,5.7,0,5.7C372.4,1467.1,372.4,1461.3,368.7,1461.3z" style="fill: #FFFFFF;"/>
<path class="st5" d="M374.2,1820.2c-1.4,0.1-2.7,0.5-3.9,1.4c-1.1,0.8-1.7,1.9-2.1,3c-2,0.6-2,3.3,0,3.9c0.3,0.9,0.8,1.8,1.5,2.5
	c1.1,1.2,2.9,1.9,4.5,1.9c3.3,0,6.5-2.9,6.4-6.4C380.4,1823.3,377.8,1820.1,374.2,1820.2z" style="fill: #FFFFFF;"/>
<path class="st5" d="M429.2,2534.4c-7.4,0-14.5,6.5-14.2,14.2c0.3,7.7,6.2,14.2,14.2,14.2c7.4,0,14.5-6.5,14.2-14.2
	C443,2540.9,437.2,2534.4,429.2,2534.4z" style="fill: #FFFFFF;"/>
</svg>
