<?xml version="1.0" encoding="utf-8"?>
<!-- Generator: Adobe Illustrator 26.0.2, SVG Export Plug-In . SVG Version: 6.00 Build 0)  -->
<svg version="1.1" id="_x2018_ÎÓÈ_x5F_1" xmlns="http://www.w3.org/2000/svg" xmlns:xlink="http://www.w3.org/1999/xlink"
	 x="0px" y="0px" viewBox="0 0 2154.1 1822.3" style="enable-background:new 0 0 2154.1 1822.3;" xml:space="preserve">
<style type="text/css">
	.st0{clip-path:url(#SVGID_00000124853622636241436830000006088972927166515092_);fill:#E5EDED;}
	.st1{clip-path:url(#SVGID_00000124853622636241436830000006088972927166515092_);}
	.st2{fill:#CADBD7;}
	.st3{fill:#D67F7F;}
	.st4{fill:#8FB9C7;}
	.st5{fill:#FB9391;}
	.st6{fill:#060633;}
	.st7{fill:#252333;}
	.st8{fill:#EA6868;}
	.st9{fill:#DD5E58;}
	.st10{fill:#303E42;}
	.st11{fill:#0B0755;}
	.st12{fill:#FFFFFF;}
	.st13{fill:#131375;}
	.st14{fill:#83BFBF;}
	.st15{fill:#D0665D;}
	.st16{clip-path:url(#SVGID_00000124853622636241436830000006088972927166515092_);fill:#DD5E58;}
	.st17{clip-path:url(#SVGID_00000124853622636241436830000006088972927166515092_);fill:none;}
</style>
<g>
	<defs>
		<path id="SVGID_1_" d="M1827.7,1451.5c-53.8,72.4-74.8,285.6-350.2,336.6c-281.3,52.1-430.9,18.3-609.1-19.1
			c-21.9-4.6-44.3-9.2-67.3-13.8c-18.5-3.7-37.4-7.2-57-10.7c-99-17.4-214-31.2-364.8-31.2c-50.6,0-94.5-8.3-132.5-23.1
			c-39.7-15.5-73.1-38.1-101.1-66C9.3,1488.9-0.4,1230.5,1,1073.6c0.5-52.6,2.2-93.8,0.8-115.1c-20.4-309.4,137.2-411,234.6-469.2
			c240.5-143.7,140.8-189,211.1-302.3C529.2,55.1,662.8,19.8,715.6,9.3c243.7-48.3,478.5,104.2,722.5,155.9c2.1,0.5,4.2,0.9,6.3,1.3
			c22.2,4.5,44.5,8.2,66.9,10.8c34.7,4,69.8,5.5,104.7,8.6c2.1,0.2,4.2,0.4,6.3,0.6c34.4,3.3,68.5,8.5,101.6,19.7
			c100.7,34.2,184.6,126.4,217.9,239.5c17,57.5,21.3,118.9,36.1,177.2c40.8,160.9,127.2,266.9,169.3,427.4
			C2198.7,1246.3,1945.5,1292.9,1827.7,1451.5z"/>
	</defs>
	<clipPath id="SVGID_00000021797743291826201190000008871143691105015170_">
		<use xlink:href="#SVGID_1_"  style="overflow:visible;"/>
	</clipPath>
	<path style="clip-path:url(#SVGID_00000021797743291826201190000008871143691105015170_);fill:#E5EDED;" d="M1827.7,1451.5
		c-53.8,72.4-74.8,285.6-350.2,336.6c-281.3,52.1-430.9,18.3-609.1-19.1c-21.9-4.6-44.3-9.2-67.3-13.8c-18.5-3.7-37.4-7.2-57-10.7
		c-99-17.4-214-31.2-364.8-31.2c-50.6,0-94.5-8.3-132.5-23.1c-39.7-15.5-73.1-38.1-101.1-66C9.3,1488.9-0.4,1230.5,1,1073.6
		c0.5-52.6,2.2-93.8,0.8-115.1c-20.4-309.4,137.2-411,234.6-469.2c240.5-143.7,140.8-189,211.1-302.3
		C529.2,55.1,662.8,19.8,715.6,9.3c243.7-48.3,478.5,104.2,722.5,155.9c2.1,0.5,4.2,0.9,6.3,1.3c22.2,4.5,44.5,8.2,66.9,10.8
		c34.7,4,69.8,5.5,104.7,8.6c2.1,0.2,4.2,0.4,6.3,0.6c34.4,3.3,68.5,8.5,101.6,19.7c100.7,34.2,184.6,126.4,217.9,239.5
		c17,57.5,21.3,118.9,36.1,177.2c40.8,160.9,127.2,266.9,169.3,427.4C2198.7,1246.3,1945.5,1292.9,1827.7,1451.5z"/>
	<g style="clip-path:url(#SVGID_00000021797743291826201190000008871143691105015170_);">
		<path class="st2" d="M440.5,1691.8c0.2,0,0.3-0.1,0.5-0.1c1.4-0.5,2.1-2,1.6-3.4C313.4,1332.9,200,1083.1,123.4,985.2
			c-1.7-2.2-2.9-3.7-3.4-4.5c-0.7-1.2-2.4-1.6-3.6-0.9c-1.2,0.7-1.6,2.4-0.9,3.6c0.6,1.1,1.8,2.6,3.8,5.1
			c76.3,97.5,189.4,346.8,318.4,701.7C438.1,1691.3,439.3,1692,440.5,1691.8z"/>
		<path class="st2" d="M72.9,969.4c9,11,52.5,29.6,55.6,27c3.1-2.6-6.9-48.8-15.9-59.8c-9-11-25.3-12.5-36.2-3.5
			C65.4,942.2,63.8,958.4,72.9,969.4z"/>
		<path class="st2" d="M156.5,999.5c-3.4,14.1,8.2,61.1,12.2,62.1c4,1,35.6-35.7,39-49.8c3.4-14.1-5.3-28.4-19.5-31.7
			C174.1,976.7,159.9,985.4,156.5,999.5z"/>
		<path class="st2" d="M110.8,1085.4c14.5,0.1,57.7-21.7,57.7-25.9c0-4.2-42.8-26.7-57.3-26.8c-14.5-0.1-26.4,11.6-26.6,26.1
			C84.5,1073.4,96.2,1085.3,110.8,1085.4z"/>
		<path class="st2" d="M294.2,1232.2c-8.2,23,2.6,103.5,9.1,105.8c6.6,2.3,65.9-53.1,74.1-76c8.2-23-3.8-48.3-26.7-56.5
			C327.7,1197.3,302.4,1209.2,294.2,1232.2z"/>
		<path class="st2" d="M202.4,1367.2c24.2,2.8,100.2-25.8,101-32.7c0.8-6.9-66.5-52.3-90.8-55.1c-24.2-2.8-46.2,14.5-49,38.8
			C160.8,1342.5,178.1,1364.4,202.4,1367.2z"/>
		<path class="st2" d="M362.7,1319.1c-16,25.2-24.8,124.2-17.6,128.8c7.2,4.6,93-45.6,109-70.8c16-25.2,8.5-58.7-16.7-74.7
			C412.1,1286.4,378.7,1293.8,362.7,1319.1z"/>
		<path class="st2" d="M230.5,1496.5c29.9,0.4,118.7-44,118.9-52.5c0.1-8.5-87.6-55.2-117.4-55.6c-29.9-0.4-54.4,23.5-54.8,53.4
			C176.7,1471.5,200.6,1496.1,230.5,1496.5z"/>
		<path class="st2" d="M408.6,1434.8c-16,25.2-24.8,124.2-17.6,128.8c7.2,4.6,93-45.6,109-70.8c16-25.2,8.5-58.7-16.7-74.7
			C458,1402.1,424.6,1409.6,408.6,1434.8z"/>
		<path class="st2" d="M276.4,1612.2c29.9,0.4,118.7-44,118.9-52.5c0.1-8.5-87.6-55.2-117.4-55.6c-29.9-0.4-54.4,23.5-54.8,53.4
			C222.6,1587.2,246.5,1611.8,276.4,1612.2z"/>
		<path class="st2" d="M502.9,1578.1c-24.4,17.2-70.2,105.4-65.3,112.3c4.9,7,103.3-6.7,127.7-24c24.4-17.2,30.2-51,13-75.4
			C561.1,1566.7,527.3,1560.9,502.9,1578.1z"/>
		<path class="st2" d="M317.7,1726.9c29.6,4.1,123.3-28.8,124.5-37.3c1.2-8.4-80-65.8-109.6-69.9c-29.6-4.1-56.9,16.5-61,46.1
			C267.4,1695.4,288.1,1722.7,317.7,1726.9z"/>
		<path class="st2" d="M199,1072c-3.4,14.4,8.3,62.1,12.4,63.1c4.1,1,36.2-36.2,39.6-50.6c3.4-14.4-5.4-28.8-19.8-32.3
			C216.9,1048.8,202.4,1057.6,199,1072z"/>
		<path class="st2" d="M154.5,1160c14.8,0.1,58.6-22.1,58.7-26.3c0-4.2-43.4-27.1-58.2-27.2c-14.8-0.1-26.9,11.8-27,26.5
			C127.8,1147.8,139.7,1159.9,154.5,1160z"/>
		<path class="st2" d="M246.6,1138.8c-6.6,19.9,4.5,88.9,10.2,90.7c5.7,1.9,55.5-47.1,62-67c6.6-19.9-4.3-41.4-24.2-48
			C274.7,1108,253.2,1118.9,246.6,1138.8z"/>
		<path class="st2" d="M174,1264.5c21,0.2,83.3-31.3,83.3-37.3c0-6-61.7-38.5-82.7-38.7c-21-0.2-38.2,16.7-38.3,37.7
			S153,1264.4,174,1264.5z"/>
	</g>
	<g style="clip-path:url(#SVGID_00000021797743291826201190000008871143691105015170_);">
		<path class="st2" d="M1026.9,1810.8c0.1,0,0.2,0,0.3,0c0.9-0.1,1.6-0.8,1.5-1.7c-18.3-233-44.6-400.4-74.1-471.4
			c-0.7-1.6-1.1-2.7-1.3-3.3c-0.2-0.9-1.1-1.4-2-1.1c-0.9,0.2-1.4,1.1-1.1,2c0.2,0.8,0.7,1.8,1.4,3.7
			c29.4,70.7,55.6,237.7,73.8,470.4C1025.6,1810.1,1026.2,1810.7,1026.9,1810.8z"/>
		<path class="st2" d="M927.2,1320c3.6,8,26.4,26.3,28.7,25.3c2.3-1,4-30.2,0.4-38.2c-3.6-8-13-11.6-21-8.1S923.6,1311.9,927.2,1320
			z"/>
		<path class="st2" d="M972,1351.7c-4.4,7.9-5.2,37.7-3,39c2.2,1.2,27.1-15.4,31.5-23.2c4.4-7.9,1.5-17.8-6.4-22.1
			C986.3,1341,976.4,1343.9,972,1351.7z"/>
		<path class="st2" d="M930.6,1395.3c8.6,2.5,37.9-3.4,38.6-5.9c0.7-2.5-21.1-22.9-29.7-25.4c-8.6-2.5-17.6,2.5-20.1,11.2
			C917,1383.8,922,1392.8,930.6,1395.3z"/>
		<path class="st2" d="M1015.6,1513c-8.7,12.3-15.5,62-12,64.5c3.5,2.5,48-20.7,56.7-33.1c8.7-12.3,5.7-29.4-6.6-38.1
			C1041.4,1497.7,1024.3,1500.7,1015.6,1513z"/>
		<path class="st2" d="M938.7,1578.2c14,5.7,63.9,1.2,65.6-2.8c1.6-4-31-42.1-45-47.8c-14-5.7-29.9,1-35.6,15
			C918,1556.6,924.7,1572.6,938.7,1578.2z"/>
		<path class="st2" d="M1042.1,1576c-13.7,12.4-35.3,69.9-31.7,73.8c3.5,3.9,62.9-11.8,76.6-24.2c13.7-12.4,14.8-33.5,2.4-47.2
			C1076.9,1564.7,1055.8,1563.6,1042.1,1576z"/>
		<path class="st2" d="M934.1,1659.8c17.7,5.2,78-6.6,79.4-11.7c1.5-5.1-43-47.3-60.8-52.5c-17.7-5.2-36.3,5-41.4,22.7
			C906.2,1636.1,916.4,1654.7,934.1,1659.8z"/>
		<path class="st2" d="M1050.3,1652.5c-13.7,12.4-35.3,69.9-31.7,73.8c3.5,3.9,62.9-11.8,76.6-24.2c13.7-12.4,14.8-33.5,2.4-47.2
			C1085.2,1641.2,1064,1640.1,1050.3,1652.5z"/>
		<path class="st2" d="M942.4,1736.3c17.7,5.2,78-6.6,79.4-11.7c1.5-5.1-43-47.3-60.8-52.5c-17.7-5.2-36.3,5-41.4,22.7
			C914.4,1712.6,924.6,1731.2,942.4,1736.3z"/>
		<path class="st2" d="M1082.9,1753.4c-17.4,6.2-59.2,51.2-57.4,56.1c1.8,5,62.6,13,80,6.8c17.4-6.2,26.4-25.4,20.2-42.8
			C1119.4,1756.2,1100.3,1747.2,1082.9,1753.4z"/>
		<path class="st2" d="M948,1811.4c16.9,7.3,78.2,3.2,80.3-1.7c2.1-4.8-36.8-52.4-53.7-59.7c-16.9-7.3-36.6,0.4-44,17.4
			C923.3,1784.4,931.1,1804.1,948,1811.4z"/>
		<path class="st2" d="M985.4,1401.9c-4.4,8-5.3,38.3-3,39.6c2.3,1.3,27.5-15.6,32-23.6c4.4-8,1.5-18.1-6.5-22.5
			C999.9,1391,989.8,1393.9,985.4,1401.9z"/>
		<path class="st2" d="M944.4,1447c8.8,2.5,38.6-3.5,39.3-6c0.7-2.5-21.4-23.3-30.2-25.8c-8.8-2.5-17.9,2.6-20.4,11.4
			C930.5,1435.3,935.6,1444.5,944.4,1447z"/>
		<path class="st2" d="M1002.7,1449.5c-7.2,10.8-12,53.7-8.9,55.7c3.1,2.1,40.8-18.9,48-29.7c7.2-10.8,4.3-25.4-6.5-32.6
			C1024.5,1435.8,1009.9,1438.7,1002.7,1449.5z"/>
		<path class="st2" d="M938.7,1512.4c12.5,3.6,54.8-4.9,55.8-8.5c1-3.6-30.4-33.1-42.9-36.7c-12.5-3.6-25.5,3.7-29,16.1
			S926.2,1508.8,938.7,1512.4z"/>
	</g>
	<g style="clip-path:url(#SVGID_00000021797743291826201190000008871143691105015170_);">
		<path class="st2" d="M1662.6,1536.4c-0.1,0-0.3-0.1-0.4-0.1c-1.1-0.4-1.7-1.7-1.3-2.8c108.6-299.1,203.8-509.2,268.3-591.6
			c1.4-1.8,2.5-3.2,2.9-3.8c0.6-1,2-1.4,3-0.8c1,0.6,1.4,2,0.8,3c-0.5,0.9-1.5,2.2-3.2,4.3c-64.2,82.1-159.2,291.7-267.6,590.4
			C1664.7,1536,1663.6,1536.6,1662.6,1536.4z"/>
		<path class="st2" d="M1971.6,928.6c-7.6,9.2-44.2,24.9-46.8,22.7c-2.6-2.2,5.8-41,13.4-50.3c7.6-9.2,21.3-10.5,30.5-2.9
			C1977.9,905.7,1979.3,919.4,1971.6,928.6z"/>
		<path class="st2" d="M1901.3,954c2.9,11.9-6.8,51.4-10.2,52.2c-3.4,0.8-30-30-32.8-41.9c-2.9-11.9,4.5-23.9,16.4-26.7
			C1886.5,934.8,1898.5,942.1,1901.3,954z"/>
		<path class="st2" d="M1939.8,1026.2c-12.2,0.1-48.5-18.2-48.6-21.7c0-3.5,36-22.5,48.2-22.6c12.2-0.1,22.2,9.7,22.3,22
			C1961.9,1016.1,1952.1,1026.1,1939.8,1026.2z"/>
		<path class="st2" d="M1785.6,1149.8c6.9,19.3-2.1,87-7.6,89c-5.5,2-55.5-44.6-62.4-63.9c-6.9-19.3,3.1-40.6,22.5-47.5
			C1757.4,1120.4,1778.6,1130.4,1785.6,1149.8z"/>
		<path class="st2" d="M1862.8,1263.3c-20.4,2.4-84.3-21.7-85-27.5c-0.7-5.8,55.9-44,76.3-46.4c20.4-2.4,38.9,12.2,41.3,32.6
			C1897.8,1242.4,1883.2,1260.9,1862.8,1263.3z"/>
		<path class="st2" d="M1728,1222.8c13.5,21.2,20.9,104.5,14.8,108.3c-6.1,3.8-78.2-38.3-91.7-59.5c-13.5-21.2-7.2-49.3,14-62.8
			C1686.4,1195.3,1714.5,1201.6,1728,1222.8z"/>
		<path class="st2" d="M1839.2,1372c-25.1,0.3-99.9-37-100-44.2c-0.1-7.2,73.6-46.5,98.8-46.8s45.8,19.8,46.1,44.9
			C1884.4,1351,1864.3,1371.7,1839.2,1372z"/>
		<path class="st2" d="M1689.4,1320.2c13.5,21.2,20.9,104.5,14.8,108.3c-6.1,3.8-78.2-38.3-91.7-59.5c-13.5-21.2-7.2-49.3,14-62.8
			C1647.8,1292.7,1676,1299,1689.4,1320.2z"/>
		<path class="st2" d="M1800.6,1469.4c-25.1,0.3-99.9-37-100-44.2c-0.1-7.2,73.6-46.5,98.8-46.8c25.1-0.3,45.8,19.8,46.1,44.9
			C1845.9,1448.4,1825.8,1469,1800.6,1469.4z"/>
		<path class="st2" d="M1610.1,1440.8c20.5,14.5,59.1,88.6,55,94.5c-4.1,5.9-86.9-5.6-107.4-20.1c-20.5-14.5-25.4-42.9-10.9-63.4
			C1561.2,1431.2,1589.6,1426.3,1610.1,1440.8z"/>
		<path class="st2" d="M1765.9,1565.8c-24.9,3.5-103.7-24.2-104.7-31.3c-1-7.1,67.2-55.3,92.1-58.8c24.9-3.5,47.9,13.9,51.4,38.8
			C1808.2,1539.4,1790.8,1562.4,1765.9,1565.8z"/>
		<path class="st2" d="M1865.6,1015c2.9,12.1-7,52.2-10.4,53.1c-3.4,0.8-30.5-30.5-33.4-42.5c-2.9-12.1,4.5-24.2,16.6-27.1
			C1850.5,995.4,1862.7,1002.9,1865.6,1015z"/>
		<path class="st2" d="M1903,1089c-12.4,0.1-49.3-18.5-49.4-22.1c0-3.5,36.5-22.8,49-22.9c12.4-0.1,22.6,9.9,22.7,22.3
			C1925.5,1078.7,1915.5,1088.9,1903,1089z"/>
		<path class="st2" d="M1825.6,1071.2c5.5,16.8-3.8,74.8-8.6,76.3c-4.8,1.6-46.7-39.6-52.2-56.4c-5.5-16.8,3.6-34.8,20.4-40.4
			C1802,1045.3,1820,1054.4,1825.6,1071.2z"/>
		<path class="st2" d="M1886.7,1176.9c-17.7,0.2-70.1-26.3-70.1-31.4c0-5,51.9-32.4,69.6-32.6c17.7-0.2,32.1,14,32.2,31.7
			S1904.4,1176.8,1886.7,1176.9z"/>
	</g>
	<g style="clip-path:url(#SVGID_00000021797743291826201190000008871143691105015170_);">
		<path class="st3" d="M1152.8,1015.2c0,0,40.2-33.2,55.5-43.8c15.3-10.7,22.2-32.4,31.1-26.1c8.8,6.3-10.2,36.8-10.2,36.8
			s37.6-5.1,48.9-8.5c11.3-3.3,33.1-4.1,36.2,4c3.1,8.1-52.4,20.3-52.4,20.3s47.7-5.7,52.2,1.2c4.5,6.9-55.3,23-55.3,23
			s50.6-8.5,55.2-5.7c4.5,2.8,1.1,8.7-16,16.1c-17.2,7.4-36.7,10.5-36.7,10.5s36-3.3,40.5-2.2c4.5,1.1,9.8,5.9-16.8,14.1
			c-26.6,8.2-85.5,17-117.4,9L1152.8,1015.2L1152.8,1015.2z"/>
		<path class="st4" d="M783.7,747.8c0,0,190.9,258.3,376.1,254.1l32.3,73.1c0,0-160.3,64.8-280.5-3.6
			C791.5,1003.1,790.1,946,790.1,946L783.7,747.8z"/>
		<path class="st5" d="M827.9,2130.1c0,0,12.7,122.8,13.4,124.4c0.7,1.5-8.6,14-8.6,14l-33.2,3.7l-29-15.7c0,0-10.8-99.1-12.9-114.5
			C755.6,2126.5,827.9,2130.1,827.9,2130.1L827.9,2130.1z"/>
		<path class="st6" d="M770.6,2256.4c0,0,36.9,15.7,70.6-4c0,0,122.7,55.5,116.5,91.1c0,0,4.6,11-49.7,5.1
			c-54.4-5.9-138.9-14-141.1-15.4C764.7,2331.9,753.7,2336.9,770.6,2256.4L770.6,2256.4z"/>
		<path class="st5" d="M454.4,2105.3c0,0-40.1,119.3-39.4,120.9c0.7,1.5-8.5,14-8.5,14l-33.2,3.7l-29-15.7c0,0,22.9-98.8,20.8-114.3
			C363,2098.4,454.4,2105.3,454.4,2105.3L454.4,2105.3z"/>
		<path class="st6" d="M344.2,2228.1c0,0,36.9,15.7,70.7-4c0,0,122.7,55.5,116.4,91.1c0,0,4.6,11-49.7,5.1
			c-54.4-5.9-138.9-14-141.1-15.4C338.4,2303.6,327.3,2308.6,344.2,2228.1L344.2,2228.1z"/>
		<path class="st7" d="M816.8,1368.6l9,835.5l-110.3-7.3c0,0-73-664.6-89.3-668.6c-16.4-4-178.5,650.8-178.5,650.8l-126.6-8.4
			l121.3-848.5L816.8,1368.6L816.8,1368.6z"/>
		<path class="st4" d="M679.6,711.8c0,0,61.2-1.3,109.6,40.6c33.5,29,33.3,152.8,33.3,152.8l-2.4,477.8c0,0-202.4,63.7-381.7-25.3
			l2.5-183c0,0-147.9-38.8-73-236.3c74.9-197.6,172.7-218.6,233.4-231.7C662,693.5,679.6,711.8,679.6,711.8L679.6,711.8z"/>
		<path class="st8" d="M736.5,547.1c0,0,7.6-12.1,14-7.4c16.2,12,0.7,28.3-9.8,32.1L736.5,547.1L736.5,547.1z"/>
		<path class="st5" d="M739,502.9L739,502.9c-0.1-1.2-0.1-2.5-0.1-3.8c-1.4-56-49.7-99.7-106.4-94.6c-47.2,4.3-85,42.9-88.2,90.1
			c-1.2,17.6,2.3,34.1,9.2,48.7c9.6,22.6,18,41.9,26.8,57.8c14.6,26.4,19.7,57.1,15.4,86.9l-3.4,23.5c60.6,30.4,87.2,0.1,87.2,0.1
			l0.1-43c0-5.6,4.3-10.2,9.9-10.7l0.1,0C763.7,651.4,739.8,536.4,739,502.9L739,502.9z"/>
		<polygon class="st9" points="535.6,510.9 563.6,576.1 581.2,572.1 589.8,486.9 535.6,510.9 		"/>
		<path class="st5" d="M583.9,570c-1.6-3.1-4.5-5.5-7.7-6.7c-6.8-2.6-18.7-5.2-26.7,3.1c-11.7,12.3,13.2,43.4,36.6,27
			C586.1,593.5,592.7,586.5,583.9,570L583.9,570z"/>
		<path class="st9" d="M723.3,452.8c0,0,14.1,11.1,18.3,81.2c0,0,4-78.5-3.5-86.9C730.6,438.8,723.3,452.8,723.3,452.8L723.3,452.8z
			"/>
		<path class="st9" d="M571.2,390.5c3.1-3.1,8.7-5.7,11.3-2.1c1,1.4,1.1,3.3,0.9,5.1c-0.4,5.1-1.6,10.2-3.6,14.9
			c17.9-21.1,47.9-27.8,75.6-27.4c27.7,0.3,55.3,6.3,82.9,4.9c11-0.6,24.1-1.4,30.6,7.5c4.5,6.2,3.5,15.3-1,21.5
			c-4.5,6.2-11.8,9.9-19.2,11.7c5.7-2.4,12.9-0.8,17,3.8c4.1,4.6,4.9,11.9,1.8,17.3c-4.7,8.2-15.6,10.1-25,10.9
			c-30.1,2.5-60.3,3.5-90.5,2.8c4.4,3.5,8.8,7.1,13.2,10.6c1.5,1.2,3.1,2.5,3.8,4.3c1,2.5,0.1,5.3-1.3,7.5c-3.7,5.8-10.8,8.6-17.6,9
			c-6.8,0.5-13.6-1.1-20.4-2.1c-9.9-1.6-19.9-2.2-29.8-2c-2.1,0.1-4.2,0.2-6.1,1.1c-2.5,1.2-4.2,3.6-6,5.7
			c-10.6,12.8-27.4,18.3-43.3,23.2c-4.9,1.5-11.5,2.5-14.2-1.9c-1.1-1.7-1.2-3.8-1.3-5.8c-0.9-23.9,4.9-48.1,16.5-69
			c-3,5.4-10.3,6.7-13.6,0.5c-4.2-7.9,5.8-14.5,11.4-17.8c5.1-3,10-3.6,13.8-8.7C563.2,408.1,563.8,398.2,571.2,390.5z"/>
		<g>
			<polygon class="st10" points="965.9,968.8 834.5,977.7 844.7,1127.3 976.1,1118.4 965.9,968.8 			"/>
			<polygon class="st11" points="963.2,1090 1100.3,1003.7 1099.6,992.7 960.4,1049.8 963.2,1090 			"/>
			<polygon class="st10" points="1104.1,966 1089.9,969.2 1102.8,1026.3 1117.1,1023 1104.1,966 			"/>
			<path class="st10" d="M849.9,1105c-25.9-0.2-50.7-15.3-66.2-40.4c-11.8-19.1-15-39.6-8.3-53.5c3.3-6.9,9-11.8,16.4-14.2
				c21.6-7.1,52.5,8.6,55.9,10.4l-6.8,13c-7.9-4.1-31.2-13.8-44.6-9.4c-3.7,1.2-6.1,3.3-7.7,6.7c-4.5,9.3-1.6,24.7,7.5,39.3
				c10,16.1,29.4,33.3,54,33.5L849.9,1105L849.9,1105z"/>
		</g>
		<path class="st5" d="M700.3,1032.8c0,0,42.8-25.6,58.8-33.5c16-7.8,26.1-28,33.2-20.3c7.1,7.7-15.7,34.4-15.7,34.4
			s24.6,2.8,35.6,1.5c11-1.3,12.2,2,13.6,10.5c1.5,8.5-21.8,9.3-21.8,9.3s23.8-6.5,24.8,9.3c0.5,8.2-31.8,14-31.8,14
			s22.1-8.7,25.8-5.1c3.7,3.5,13.3,20.2-3.8,24.5c-17.1,4.3-23.3,1.6-23.3,1.6s31.1-4.2,35-2.3c3.9,1.9,10.8,14.7-15.2,18.1
			c-26,3.5-81.8,1.9-109.9-11.7L700.3,1032.8L700.3,1032.8z"/>
		<path class="st4" d="M439.2,1170.5c0,0,78.3,10.4,129.7,0.9c51.4-9.5,122.5-35.1,138.9-64.4l-10.2-100.1l-196.2-4.1l-83.5,133
			L439.2,1170.5z"/>
		<path class="st7" d="M698.7,1005.7l-197.4-4.1l0.7,2.3l0,0l194.6,4.1l10.1,98.7c-15.9,27.7-82.8,53.4-137.9,63.6
			c-48.4,8.9-121.8,0.1-128.8-0.8l-0.1-0.2l-1,2.4l0.3,0c0.3,0,15.7,2,37.1,3.5c27.3,1.8,64.4,2.7,93-2.6
			c55.8-10.3,123.8-36.6,139.7-65l0.2-0.3L698.7,1005.7z"/>
	</g>
	<g style="clip-path:url(#SVGID_00000021797743291826201190000008871143691105015170_);">
		<path class="st7" d="M1462.8,407.3c60,11.6,105,55.7,142,174.4c37,118.7,149.6,81.7,160.8,157.3c11.3,75.6-52.9,210.5-133.3,187.9
			c-80.4-22.5-157.8-139.7-202.8-141.3c-45-1.6-123.8-30.6-136.7-127C1280,562.1,1319.2,379.6,1462.8,407.3z"/>
		<g>
			<path class="st8" d="M1330.9,562.2c0,0-8.2-12.2-14.5-7.2c-16.2,12.8,1.5,29.5,12.4,33.1L1330.9,562.2z"/>
			<path class="st5" d="M1432.7,413.1c50,2.9,90.5,43.5,93.5,93.5c1,16.4-2.1,32.1-8.2,46c-13.5,34.8-24.7,62.8-38.7,83.3
				c-14.2,20.7-20.6,45.8-16.9,70.7l3.8,25.1c-57.8,29.4-83.4,5.4-83.4,5.4l-0.4-62.8l0,0c-62.8-7.1-55.2-122.9-55.4-157.1l0.1,0
				c-0.1-1.3-0.1-2.6-0.1-3.9C1326.6,456,1374.5,409.7,1432.7,413.1z"/>
			<path class="st7" d="M1441.2,513.9c17.7,20.6,36.4,40.8,49.7,64.4c1.5,2.6,11.9,22.1,8.9,24.4c16.1-12.4,26.3-30.8,34.9-49.2
				c14.9-31.9,10.3-70.1-8.4-99.4c-18.5-29-49.3-43.9-83.1-46.4c-36.2-2.7-75.7,9.7-97.6,40.1c-20.6,28.5-21.3,64.4-23.5,98.1
				c2.4-37.8,53-66.3,83.4-79.8c-0.9,0.4,22.9,32.5,24.1,34.1C1433.4,504.7,1437.2,509.3,1441.2,513.9z"/>
			<path class="st5" d="M1487.7,580.8c1.6-3.2,4.4-5.7,7.7-7.1c6.9-2.8,19-5.9,27.4,2.4c12.3,12.2-12.1,44.8-36.6,28.8
				C1486.2,604.9,1479.2,598,1487.7,580.8z"/>
		</g>
		<path class="st5" d="M1378.4,2170c0,0,11.8,138.1-1.2,154.6c-7.4,9.4-170.1,43.8-177,22.2c-6.8-21.6,115.4-64.1,120.7-105.6
			c5.3-41.5,0.3-90.6,0.3-90.6L1378.4,2170z"/>
		<path class="st12" d="M1383.3,2270.5c-79.9,51.2-109.4,39.5-120.1,26.7c-32.8,20.4-66.6,38.1-63,49.7
			c6.8,21.6,169.5-12.8,177-22.2C1382,2318.6,1383.4,2296.3,1383.3,2270.5z"/>
		<path class="st5" d="M1742.9,2092c0,0,47.6,130.2,39.3,149.6c-4.7,11-152.7,86.9-164.9,67.8c-12.2-19,94.6-92.1,88.8-133.6
			c-5.8-41.4-23.9-75.7-23.9-75.7L1742.9,2092z"/>
		<path class="st12" d="M1774,2187.6c-63.7,70.4-95.3,66.8-108.9,57.3c-26.3,28.3-54.3,54.3-47.7,64.5
			c12.2,19,160.2-56.8,164.9-67.8C1785.4,2234.4,1780.9,2212.5,1774,2187.6z"/>
		<path class="st5" d="M1308.1,1159.1c0,0-60.3,158-62.7,264.2c-2.4,106.1,71.5,521.7,76.8,803.4l60.6,20.5
			c0,0,36.2-734.7,50.7-804.6c14.5-70,141.2,408.2,269.2,715.1l58.8-11.4c0,0-86.7-371.6-106-564.2
			c-19.3-192.6-50.2-318.4-71.9-342.1C1561.8,1216.2,1308.1,1159.1,1308.1,1159.1z"/>
		<path class="st10" d="M1308.1,1159.1c0,0-47.2,141.6-62.8,210.4c-15.5,68.9,28.3,563.7,28.3,563.7s159.4-16,266.5,32.9
			c107.1,48.9,223-94.5,316.7-94.5c93.7,0,121.2-96,121.2-96s-217.8-161.3-279.3-335.9c-61.5-174.6-157.5-278.8-157.5-278.8
			S1400.8,1178.2,1308.1,1159.1z"/>
		<path class="st5" d="M1207.4,1182.5L1315,1222l115.3-104.1c0,0,232.4-12.6,232.4-76.6c0-90.4-11.2-171.9-34.9-223.2
			c-6.9-14.8-14.7-27.1-23.8-36.4c-0.1-0.1-0.1-0.1-0.1-0.2c-0.1-0.1-0.1-0.1-0.1-0.1s0,0,0,0c-7.7-7.9-16.2-13.5-25.4-16.6
			c-57.9-19.3-112.2-33-112.2-33l-4.5-32l-79.1,5.2l0.2,24.8c0,0-95.1,26.4-118,54.3c-78,95-29.7,198.7-19.3,275.1
			C1256.1,1138.7,1207.4,1182.5,1207.4,1182.5z"/>
		<path class="st13" d="M1456.8,987.7c16,0,34.3-3.9,53.1-15.4c0.9-0.6,1.2-1.7,0.6-2.6c-0.5-0.9-1.7-1.2-2.6-0.6
			c-54,33.2-103.6,0.4-104.1,0c-0.9-0.6-2-0.4-2.6,0.5c-0.6,0.9-0.4,2.1,0.5,2.6C1402,972.4,1424.9,987.7,1456.8,987.7z"/>
		<path class="st12" d="M1466.1,731.8c0,0-52.6,25-83.4-2c0,0-141.3,41.3-160.6,78.1c-19.3,36.8-14.2,50-14.2,50l59.1,56.9
			c0,0-8.6,27.7-7.4,37.9s15.2,44.3,15.2,44.3s-11.6,120.8,33.3,162.2c0,0,126.8,51.4,233.3,1.8l26.4-61.8
			c4.5-13.7,2.9-39.3,0.7-53.5l-19.6-126.2l122.4-43.1C1671.3,876.3,1667.5,738.5,1466.1,731.8z"/>
		<path class="st5" d="M1662.7,1022.8c0,0,1,119.3-26,153.2c-26.9,33.9-174.9,78.7-197.4,86.7v-41.3c0,0,101.4-43.7,126-108.6
			c3.2-8.4,4.2-41.3,4.5-56.1L1662.7,1022.8z"/>
		<g>
			<path class="st2" d="M1521.3,1012c-18.6,2-76.5-20.4-77.1-25.7c-0.6-5.3,51.2-39.6,69.8-41.6c18.6-2,35.3,11.4,37.3,30
				C1553.3,993.3,1539.9,1010,1521.3,1012z"/>
			<path class="st2" d="M1363.1,997.7c5,18-7.7,78.8-12.9,80.2c-5.1,1.4-47.3-44.2-52.3-62.2c-5-18,5.6-36.6,23.6-41.6
				C1339.5,969.2,1358.1,979.7,1363.1,997.7z"/>
			<path class="st2" d="M1169.3,884.7c19.4,3.1,72.2,41.8,71.3,47.4c-0.9,5.6-63,26.1-82.5,23c-19.4-3.1-32.7-21.3-29.6-40.8
				C1131.6,894.9,1149.9,881.6,1169.3,884.7z"/>
			<path class="st2" d="M1222,1047.6c20.3,12.6,61.1,80.8,57.5,86.6c-3.6,5.8-82.8-0.5-103.1-13.1c-20.3-12.6-26.5-39.3-13.9-59.6
				C1175,1041.2,1201.7,1035,1222,1047.6z"/>
			<path class="st2" d="M1324.9,914.6c-15.9,11.6-80.6,21.5-84,16.9c-3.3-4.5,26.1-63,42-74.6c15.9-11.6,38.2-8,49.8,7.9
				C1344.3,880.7,1340.8,903,1324.9,914.6z"/>
			<path class="st2" d="M1410.2,1137.2c-18.7,0.6-74.8-26.1-74.9-31.5c-0.2-5.3,54.1-35.6,72.8-36.2c18.7-0.6,34.3,14.1,34.9,32.7
				C1443.5,1121,1428.8,1136.6,1410.2,1137.2z"/>
			<path class="st14" d="M1246.2,1324.6h71.9c42.7,0,77.2-34.6,77.2-77.2v-77.6h-226.4v77.6
				C1168.9,1290,1203.5,1324.6,1246.2,1324.6z"/>
			<g>
				<path class="st2" d="M1307.1,1170.2c0.4-1.3,45.4-134.4,139.1-183.1l-1.1-2.1c-94.5,49.1-139.8,183.1-140.2,184.4L1307.1,1170.2
					z"/>
			</g>
			<g>
				<path class="st2" d="M1275.4,1169.9l2.4-0.1c0-2.1-12.8-228.3-83.6-320.3l-1.9,1.5C1261.7,941.2,1275.3,1167.7,1275.4,1169.9z"
					/>
			</g>
			<g>
				<path class="st2" d="M1290.9,1174c2.3-196.5,98.2-349.3,99.2-350.8l-2-1.3c-1,1.5-97.2,154.9-99.6,352L1290.9,1174z"/>
			</g>
			<path class="st15" d="M1453.3,793.2c-11.7-37.4-54.6-12.9-54.6-12.9s-16.4-46.7-49.7-26c-33.3,20.7,20.5,104.4,20.5,104.4
				S1464.9,830.7,1453.3,793.2z"/>
			<path class="st15" d="M1209.5,789c-27.4-12.2-35,24.8-35,24.8s-35.1-14.2-40.1,15.4c-5,29.6,70.3,41.1,70.3,41.1
				S1236.9,801.2,1209.5,789z"/>
		</g>
		<path class="st5" d="M1461.6,1217.2c0,0-47-4.3-61.8-4.5c-14.7-0.1-28.9-11.2-31.9-3.2c-3,8,23,19.5,23,19.5s-26.8,13.4-35.7,16.3
			c-8.9,2.9-23.4,12-21.8,18.7c1.6,6.7,43.2-10.1,43.2-10.1s-33.7,17.5-33.5,24c0.2,6.5,46.3-9.6,46.3-9.6s-36.8,16.9-38.6,20.8
			c-1.7,3.8,3.1,6.2,17.6,3.4c14.5-2.8,28.6-9.5,28.6-9.5s-25,13.8-27.4,16.6c-2.4,2.7-3.8,8.2,17.3,1.7c21-6.5,64.2-27.9,81.5-47.3
			L1461.6,1217.2z"/>
		<path class="st5" d="M1160.4,1281.4c0,0,43.5-10.1,42.9-16.4c-0.6-6.3-36.1-6.2-35.6-6.4c0.5-0.2,37.5-6.4,39.5-15
			c2-8.6-38.8-6.7-38.8-6.7s35.1-3.3,36.2-9.3c1.1-6-32.8-6.5-32.9-8.8c0-2.3,29.1,0.3,30.7-7.1c1.7-7.4-39.2-12.7-44.6-6
			c-5.4,6.6,0,13.4,0,13.4s-7.9,12-3.7,18.8c0,0-4.2,19.2,3.9,22.7C1158,1260.7,1147.9,1274.5,1160.4,1281.4L1160.4,1281.4z"/>
	</g>
	<path style="clip-path:url(#SVGID_00000021797743291826201190000008871143691105015170_);fill:#DD5E58;" d="M1164.9,376.2
		c-50.4-65.1-116.9,14.7-116.9,14.7s-66.5-79.8-116.9-14.7C880.7,441.2,1048,566.5,1048,566.5S1215.3,441.2,1164.9,376.2z"/>
	<path style="clip-path:url(#SVGID_00000021797743291826201190000008871143691105015170_);fill:none;" d="M1827.7,1451.5
		c-53.8,72.4-74.8,285.6-350.2,336.6c-281.3,52.1-430.9,18.3-609.1-19.1c-21.9-4.6-44.3-9.2-67.3-13.8c-18.5-3.7-37.4-7.2-57-10.7
		c-99-17.4-214-31.2-364.8-31.2c-50.6,0-94.5-8.3-132.5-23.1c-39.7-15.5-73.1-38.1-101.1-66C9.3,1488.9-0.4,1230.5,1,1073.6
		c0.5-52.6,2.2-93.8,0.8-115.1c-20.4-309.4,137.2-411,234.6-469.2c240.5-143.7,140.8-189,211.1-302.3
		C529.2,55.1,662.8,19.8,715.6,9.3c243.7-48.3,478.5,104.2,722.5,155.9c2.1,0.5,4.2,0.9,6.3,1.3c22.2,4.5,44.5,8.2,66.9,10.8
		c34.7,4,69.8,5.5,104.7,8.6c2.1,0.2,4.2,0.4,6.3,0.6c34.4,3.3,68.5,8.5,101.6,19.7c100.7,34.2,184.6,126.4,217.9,239.5
		c17,57.5,21.3,118.9,36.1,177.2c40.8,160.9,127.2,266.9,169.3,427.4C2198.7,1246.3,1945.5,1292.9,1827.7,1451.5z"/>
</g>
</svg>
