<svg width="216" height="216" viewBox="0 0 216 216" fill="none" xmlns="http://www.w3.org/2000/svg">
<g filter="url(#filter0_d_28591_1442)">
<path d="M8 108C8 52.7715 52.7715 8 108 8C163.228 8 208 52.7715 208 108C208 163.228 163.228 208 108 208C52.7715 208 8 163.228 8 108Z" fill="white"/>
<path d="M108 9C162.676 9 207 53.3238 207 108C207 162.676 162.676 207 108 207C53.3238 207 9 162.676 9 108C9 53.3238 53.3238 9 108 9Z" stroke="#C3D7DB" stroke-width="2"/>
<path d="M98.8608 110.933H79.8007V76.6055C79.8007 75.9572 79.8007 74.7903 79.8007 73.1047C79.8007 71.4191 79.8331 69.5391 79.8979 67.4645C79.9628 65.3899 80.0276 63.5423 80.0924 61.9215C79.2496 62.894 78.4717 63.7368 77.7585 64.4499C77.1102 65.163 76.4295 65.8113 75.7164 66.3948L67.8395 72.9102L58.115 60.9491L81.9401 41.5H98.8608V110.933Z" fill="#2C2E35"/>
<path d="M136.537 65.4223C140.427 65.4223 143.96 66.2975 147.137 68.048C150.314 69.7984 152.842 72.3268 154.722 75.6331C156.602 78.9394 157.542 82.9913 157.542 87.7888C157.542 92.9752 156.505 97.3836 154.43 101.014C152.356 104.58 149.244 107.303 145.095 109.183C140.946 110.998 135.694 111.906 129.341 111.906C125.322 111.906 121.659 111.581 118.352 110.933C115.046 110.285 112.096 109.345 109.503 108.113V92.7483C111.967 93.8504 114.916 94.8552 118.352 95.7629C121.788 96.6705 124.933 97.1243 127.785 97.1243C130.119 97.1243 132.064 96.8002 133.62 96.1518C135.241 95.5035 136.472 94.5311 137.315 93.2345C138.158 91.8731 138.579 90.2523 138.579 88.3722C138.579 85.7142 137.607 83.6396 135.662 82.1485C133.782 80.6574 130.929 79.9119 127.104 79.9119C125.354 79.9119 123.636 80.1064 121.95 80.4954C120.33 80.8195 118.871 81.1761 117.574 81.5651L110.67 78.1615L113.296 41.5H152.874V57.1565H129.244L128.369 66.2975C129.406 66.1031 130.443 65.9086 131.48 65.7141C132.583 65.5196 134.268 65.4223 136.537 65.4223Z" fill="#2C2E35"/>
<path d="M82.1489 131.204C82.1489 134.483 81.5275 137.219 80.2848 139.414C79.0686 141.609 77.35 143.248 75.1291 144.332C72.9081 145.416 70.2906 145.958 67.2764 145.958H58.115V117.641H67.911C70.9516 117.641 73.5294 118.17 75.6446 119.227C77.7598 120.258 79.3727 121.779 80.4831 123.788C81.5936 125.797 82.1489 128.27 82.1489 131.204ZM74.2169 131.482C74.2169 129.763 73.9789 128.336 73.503 127.199C73.0535 126.062 72.3661 125.216 71.4407 124.661C70.5417 124.105 69.3916 123.828 67.9903 123.828H65.7693V139.692H67.4747C69.8014 139.692 71.5068 139.017 72.5908 137.669C73.6749 136.321 74.2169 134.258 74.2169 131.482Z" fill="#2C2E35"/>
<path d="M103.837 145.958L102.448 140.643H93.2474L91.8197 145.958H83.4118L92.6525 117.522H102.845L112.205 145.958H103.837ZM99.6326 129.737C99.5005 129.235 99.3154 128.521 99.0774 127.595C98.8395 126.644 98.6015 125.665 98.3635 124.661C98.1256 123.656 97.9405 122.836 97.8083 122.202C97.7025 122.836 97.5307 123.629 97.2927 124.581C97.0812 125.533 96.8565 126.472 96.6185 127.397C96.407 128.322 96.2219 129.102 96.0633 129.737L94.8338 134.377H100.862L99.6326 129.737Z" fill="#2C2E35"/>
<path d="M122.993 128.151L127.871 117.641H136.16L126.84 134.893V145.958H119.146V135.131L109.826 117.641H118.154L122.993 128.151Z" fill="#2C2E35"/>
<path d="M157.737 137.352C157.737 138.885 157.341 140.339 156.548 141.714C155.781 143.089 154.578 144.213 152.939 145.085C151.326 145.931 149.224 146.354 146.633 146.354C145.337 146.354 144.2 146.288 143.222 146.156C142.27 146.05 141.371 145.865 140.525 145.601C139.679 145.337 138.806 144.993 137.907 144.57V137.748C139.441 138.515 140.988 139.11 142.548 139.533C144.108 139.93 145.522 140.128 146.791 140.128C147.558 140.128 148.179 140.035 148.655 139.85C149.131 139.665 149.488 139.414 149.726 139.097C149.964 138.779 150.083 138.422 150.083 138.026C150.083 137.524 149.911 137.101 149.567 136.757C149.224 136.413 148.682 136.056 147.941 135.686C147.201 135.316 146.21 134.853 144.967 134.298C143.909 133.822 142.958 133.32 142.111 132.791C141.265 132.262 140.538 131.667 139.93 131.006C139.348 130.345 138.899 129.578 138.582 128.706C138.264 127.807 138.106 126.749 138.106 125.533C138.106 123.709 138.555 122.188 139.454 120.972C140.353 119.729 141.596 118.804 143.182 118.196C144.795 117.561 146.659 117.244 148.774 117.244C150.625 117.244 152.291 117.456 153.771 117.879C155.252 118.275 156.574 118.738 157.737 119.267L155.397 125.176C154.181 124.621 152.978 124.185 151.788 123.867C150.625 123.524 149.541 123.352 148.536 123.352C147.875 123.352 147.333 123.431 146.91 123.59C146.487 123.748 146.17 123.973 145.958 124.264C145.773 124.528 145.681 124.832 145.681 125.176C145.681 125.626 145.853 126.022 146.196 126.366C146.54 126.71 147.109 127.093 147.902 127.516C148.721 127.913 149.832 128.428 151.233 129.063C152.608 129.671 153.771 130.345 154.723 131.085C155.702 131.799 156.442 132.659 156.944 133.663C157.473 134.642 157.737 135.871 157.737 137.352Z" fill="#2C2E35"/>
<path d="M58.1149 154.655C58.1149 153.437 59.1021 152.45 60.3199 152.45H155.685C156.903 152.45 157.89 153.437 157.89 154.655V172.295C157.89 173.513 156.903 174.5 155.685 174.5H60.3199C59.1021 174.5 58.1149 173.513 58.1149 172.295V154.655Z" fill="#2C2E35"/>
<path d="M70.5471 157.04C71.6549 157.04 72.564 157.179 73.2744 157.455C73.9848 157.731 74.5147 158.146 74.8638 158.699C75.213 159.239 75.3876 159.924 75.3876 160.753C75.3876 161.414 75.2612 161.973 75.0083 162.43C74.7675 162.874 74.4544 163.241 74.0691 163.529C73.6838 163.806 73.2804 164.028 72.859 164.196L76.4713 169.91H74.2316L71.1251 164.701H68.8854V169.91H66.9348V157.04H70.5471ZM70.4207 158.699H68.8854V163.079H70.511C71.1732 163.079 71.7151 162.994 72.1365 162.826C72.57 162.658 72.8831 162.406 73.0757 162.069C73.2804 161.733 73.3828 161.318 73.3828 160.826C73.3828 160.309 73.2744 159.9 73.0577 159.6C72.853 159.287 72.5279 159.059 72.0824 158.915C71.6489 158.771 71.095 158.699 70.4207 158.699Z" fill="white"/>
<path d="M82.338 169.91H77.3349V168.792L78.8701 168.342V158.627L77.3349 158.158V157.04H82.338V158.158L80.8208 158.627V168.342L82.338 168.792V169.91Z" fill="white"/>
<path d="M92.1547 166.431C92.1547 167.2 91.9681 167.855 91.5948 168.396C91.2215 168.936 90.6857 169.357 89.9873 169.657C89.2889 169.946 88.4581 170.09 87.4948 170.09C87.0252 170.09 86.5736 170.06 86.1402 170C85.7067 169.952 85.3033 169.88 84.9301 169.784C84.5568 169.687 84.2256 169.567 83.9367 169.423V167.585C84.4183 167.801 84.9842 167.999 85.6344 168.179C86.2847 168.348 86.947 168.432 87.6212 168.432C88.1992 168.432 88.6808 168.354 89.0662 168.197C89.4515 168.041 89.7405 167.825 89.9331 167.549C90.1258 167.272 90.2221 166.948 90.2221 166.575C90.2221 166.179 90.1197 165.848 89.9151 165.584C89.7224 165.308 89.4154 165.055 88.9939 164.827C88.5845 164.587 88.0306 164.334 87.3323 164.07C86.8506 163.89 86.4111 163.691 86.0138 163.475C85.6284 163.247 85.2853 162.982 84.9842 162.682C84.6952 162.382 84.4725 162.033 84.316 161.637C84.1594 161.24 84.0811 160.777 84.0811 160.249C84.0811 159.54 84.2558 158.933 84.6049 158.428C84.9662 157.924 85.4599 157.539 86.086 157.275C86.7121 156.998 87.4406 156.86 88.2715 156.86C88.9698 156.86 89.614 156.932 90.204 157.076C90.8061 157.209 91.3781 157.395 91.9199 157.635L91.3058 159.239C90.8121 159.035 90.3124 158.867 89.8067 158.735C89.301 158.603 88.7712 158.536 88.2173 158.536C87.7356 158.536 87.3323 158.609 87.0071 158.753C86.682 158.897 86.4352 159.095 86.2666 159.348C86.1101 159.6 86.0318 159.894 86.0318 160.231C86.0318 160.627 86.1221 160.958 86.3027 161.222C86.4834 161.486 86.7723 161.733 87.1697 161.961C87.567 162.177 88.0908 162.418 88.741 162.682C89.4635 162.958 90.0776 163.259 90.5833 163.583C91.1011 163.908 91.4924 164.298 91.7573 164.755C92.0222 165.199 92.1547 165.758 92.1547 166.431Z" fill="white"/>
<path d="M104.379 169.91H102.121L97.8947 163.98L96.6304 165.025V169.91H94.6798V157.04H96.6304V163.259C96.9435 162.886 97.2566 162.52 97.5696 162.159C97.8827 161.799 98.1958 161.438 98.5088 161.078L101.995 157.04H104.234L99.3036 162.664L104.379 169.91Z" fill="white"/>
<path d="M112.716 169.91H110.784V157.04H118.044V158.699H112.716V162.898H117.701V164.557H112.716V169.91Z" fill="white"/>
<path d="M123.938 157.04C125.046 157.04 125.955 157.179 126.665 157.455C127.376 157.731 127.906 158.146 128.255 158.699C128.604 159.239 128.779 159.924 128.779 160.753C128.779 161.414 128.652 161.973 128.399 162.43C128.159 162.874 127.845 163.241 127.46 163.529C127.075 163.806 126.671 164.028 126.25 164.196L129.862 169.91H127.623L124.516 164.701H122.276V169.91H120.326V157.04H123.938ZM123.811 158.699H122.276V163.079H123.902C124.564 163.079 125.106 162.994 125.528 162.826C125.961 162.658 126.274 162.406 126.467 162.069C126.671 161.733 126.774 161.318 126.774 160.826C126.774 160.309 126.665 159.9 126.449 159.6C126.244 159.287 125.919 159.059 125.473 158.915C125.04 158.771 124.486 158.699 123.811 158.699Z" fill="white"/>
<path d="M139.016 169.91H131.755V157.04H139.016V158.699H133.706V162.376H138.691V164.016H133.706V168.233H139.016V169.91Z" fill="white"/>
<path d="M149.07 169.91H141.809V157.04H149.07V158.699H143.76V162.376H148.745V164.016H143.76V168.233H149.07V169.91Z" fill="white"/>
</g>
<defs>
<filter id="filter0_d_28591_1442" x="0" y="0" width="216" height="216" filterUnits="userSpaceOnUse" color-interpolation-filters="sRGB">
<feFlood flood-opacity="0" result="BackgroundImageFix"/>
<feColorMatrix in="SourceAlpha" type="matrix" values="0 0 0 0 0 0 0 0 0 0 0 0 0 0 0 0 0 0 127 0" result="hardAlpha"/>
<feOffset/>
<feGaussianBlur stdDeviation="4"/>
<feComposite in2="hardAlpha" operator="out"/>
<feColorMatrix type="matrix" values="0 0 0 0 0 0 0 0 0 0 0 0 0 0 0 0 0 0 0.16 0"/>
<feBlend mode="normal" in2="BackgroundImageFix" result="effect1_dropShadow_28591_1442"/>
<feBlend mode="normal" in="SourceGraphic" in2="effect1_dropShadow_28591_1442" result="shape"/>
</filter>
</defs>
</svg>
