<svg width="120" height="120" viewBox="0 0 120 120" fill="none" xmlns="http://www.w3.org/2000/svg">
<g clip-path="url(#clip0_14709_25332)">
<path d="M91.1538 7.18213C95.1827 12.9523 90.4582 22.3075 96.4375 26.6437C102.259 30.8689 109.412 23.9421 114.896 27.5783C123.035 32.9729 121.55 57.6498 109.651 72.9843C106.074 77.5979 103.083 79.3904 101.76 84.6058C98.9171 95.8047 108.908 102.467 107.009 108.007C102.724 120.482 36.8664 130.946 10.4439 93.4659C-1.89878 75.959 -3.7425 50.6846 7.28144 31.4834C27.2082 -3.20589 82.1102 -5.76235 91.1538 7.18213Z" fill="white"/>
<path d="M45.4752 111.161C44.9886 111.058 44.5277 111.412 44.5021 111.907C44.4722 112.475 44.4637 113.154 44.5704 113.431C44.771 113.947 49.6065 114.387 50.857 114.31C52.005 114.246 48.9535 111.882 45.4752 111.161Z" fill="#252334"/>
<path d="M45.8634 108.711L46.2261 111.318C46.3158 111.959 45.6713 112.466 45.0781 112.206C45.0695 112.202 45.061 112.198 45.0525 112.193C44.8305 112.091 44.6726 111.886 44.6086 111.651L44.0068 109.308L45.8634 108.711Z" fill="#E4D9D3"/>
<path d="M46.9515 60.6758C47.8136 67.9781 48.3813 76.292 48.3044 85.4466C48.2276 94.6567 47.5106 103.013 46.5162 110.337C46.3284 110.478 45.8931 110.759 45.2657 110.832C44.5999 110.909 44.092 110.704 43.8786 110.606C40.5966 104.093 40.4003 99.219 40.8783 95.9071C41.16 93.9567 41.5484 93.436 41.6337 91.4088C41.8343 86.744 40.0119 84.0467 37.9335 78.9338C34.9844 71.6955 33.5077 68.072 34.8521 65.2936C35.3685 64.2309 37.4299 60.9233 46.9515 60.6758Z" fill="#252334"/>
<path d="M16.662 110.183C16.4016 110.529 16.376 110.998 16.6022 111.37C17.1528 112.275 18.4033 113.811 20.486 114.225C23.465 114.818 19.7391 112.637 18.8855 109.552C18.3563 107.627 17.3832 109.227 16.662 110.183Z" fill="#252334"/>
<path d="M18.2161 106.44L17.418 109.108C17.2687 109.611 17.657 110.124 18.1777 110.094C18.1863 110.094 18.1948 110.094 18.2033 110.094C18.4466 110.077 18.6685 109.936 18.7923 109.727L20.1538 107.478L18.2161 106.44Z" fill="#E4D9D3"/>
<path d="M27.0075 64.854C25.6161 73.9702 25.1851 79.2069 25.1083 82.4462C25.0912 83.2059 25.0656 84.9002 24.3657 86.9574C23.2261 90.3034 21.1178 92.1983 20.1917 93.2312C18.1943 95.4547 16.3634 99.5775 17.3108 107.955C18.1004 108.254 18.89 108.553 19.6795 108.852C23.1707 103.419 26.713 97.4051 30.1657 90.8155C34.839 81.8914 38.5564 73.3898 41.5311 65.5923C36.687 65.3405 31.8473 65.0973 27.0075 64.854Z" fill="#252334"/>
<path d="M21.7288 29.6568C23.453 28.8587 25.4461 27.8258 26.3466 27.2369C29.6627 25.0688 28.8647 21.9532 31.993 15.1374C33.7812 11.2408 36.0731 6.40106 39.863 5.87185C41.0964 5.70113 42.7779 5.9444 43.2431 6.88334C43.9644 8.34722 41.3525 10.7202 39.7648 12.7133C33.2904 20.835 35.7061 32.8321 35.8768 33.7582C36.8242 38.8498 38.8344 37.8639 44.5747 48.0769C48.8597 55.7036 53.7251 64.3632 50.4089 69.7236C48.8298 72.2758 45.8935 73.2788 44.6046 73.7184C39.8416 75.3487 38.0022 72.7794 31.4809 73.4239C26.1161 73.9574 24.6736 75.959 22.0958 74.6701C18.8607 73.0483 18.1779 68.4091 18.0626 67.6324C17.5974 64.457 18.6601 62.895 19.5308 59.199C19.6247 58.7893 21.2422 51.6278 19.7527 44.095C18.4169 37.356 15.3099 33.9289 17.1109 31.7779C17.7297 31.0395 18.259 31.2572 21.7288 29.6568Z" fill="#C3D7DB"/>
<path d="M20.7811 23.9421L20.269 27.7662C20.1495 28.671 19.8891 29.5501 19.505 30.3781L18.835 31.8206C18.835 31.8206 22.1426 31.8292 24.7161 29.3922C24.938 29.1831 24.763 28.8075 24.46 28.8417C23.4912 28.4021 22.8681 27.4333 22.8681 26.3706V24.5567L20.7811 23.9421Z" fill="#E4D9D3"/>
<path d="M24.1401 22.3287C25.4204 21.0184 25.8301 18.4705 24.9979 17.7236C24.1315 16.9426 21.558 17.809 20.4057 19.2089C20.0898 19.593 19.8594 20.0454 19.1936 20.6087C18.4681 21.2233 18.1394 21.1977 17.7254 21.7312C17.1066 22.5293 17.2389 23.5194 17.2688 23.7371C17.2773 23.8096 17.495 25.2436 18.1906 25.3802C18.7071 25.4826 19.2789 24.8297 19.646 25.0943C19.6801 25.1199 19.7015 25.1455 19.7185 25.1626C20.0856 25.5083 20.7812 26.0759 21.9677 26.6649C21.972 26.3618 21.9933 25.982 22.0701 25.5552C22.1 25.393 22.2238 24.7528 22.5055 24.1767C22.9792 23.2164 23.645 22.8366 24.1401 22.3287Z" fill="#252334"/>
<path d="M20.4911 26.1444C20.4911 26.1444 21.8696 27.5443 23.8243 26.951C25.5741 26.4218 24.8998 22.3758 23.5682 21.7954C23.1244 21.6034 22.3391 21.6631 21.7629 21.9789C21.4215 22.1667 21.3361 22.346 20.7728 22.6405C20.2563 22.9136 20.0856 22.888 19.9491 23.0672C19.7826 23.2892 19.7314 23.7586 20.3502 24.8384C19.932 24.5738 19.4924 24.5397 19.2363 24.7403C19.1936 24.7744 19.0912 24.8854 19.0528 25.0262C18.9162 25.5469 19.4668 26.0292 20.4911 26.1444Z" fill="#E4D9D3"/>
<path d="M55.608 32.8105C54.366 33.9031 56.6365 42.1017 63.0853 44.5429C68.1684 46.4677 74.2373 44.3338 77.148 40.1043C78.8253 37.6674 80.3446 33.3141 78.4838 31.1973C78.3985 31.0991 77.3443 29.9425 75.842 30.0236C72.3637 30.2157 72.1418 36.7498 68.4116 37.5521C67.5367 37.7399 67.2209 37.4497 59.9015 34.2573C56.3719 32.7166 55.9025 32.5502 55.608 32.8105Z" fill="#A676AB"/>
<path d="M70.3492 9.68307L39.3601 8.01433C36.808 7.87775 34.7295 9.75562 34.7295 12.2139V29.1916C34.7295 31.6456 36.808 33.6899 39.3601 33.7539L49.4921 34.0015L54.2209 39.5881C54.5069 39.9253 55.0062 39.9808 55.3562 39.7119L59.9015 34.2575L70.3492 34.5136C72.7136 34.5734 74.6171 32.7168 74.6171 30.3738V14.1558C74.6171 11.8127 72.7136 9.80684 70.3492 9.68307Z" fill="#471859"/>
<path d="M70.9674 9.18795L39.9783 7.51921C37.4261 7.38264 35.3477 9.2605 35.3477 11.7188V28.6964C35.3477 31.1505 37.4261 33.1948 39.9783 33.2588L50.1103 33.5063L54.7238 38.9564C55.0525 39.3448 55.65 39.3491 55.9829 38.965L60.5196 33.7624L70.9674 34.0185C73.3318 34.0782 75.2353 32.2217 75.2353 29.8786V13.665C75.2353 11.3176 73.3275 9.31599 70.9674 9.18795Z" fill="#8A50A0"/>
<path d="M65.9358 19.2814C65.765 16.0677 63.5799 13.3661 60.8612 13.0247C58.6974 12.7516 56.7726 13.9765 55.7483 15.9525C54.7198 13.8783 52.7779 12.4614 50.5756 12.5211C47.7716 12.5979 45.4969 15.1416 45.3176 18.4193C45.1981 20.5831 45.9834 22.572 47.2723 23.9121L55.185 30.3566C55.5264 30.634 55.9745 30.6468 56.3117 30.3907L64.0622 24.5096C65.2998 23.289 66.051 21.4068 65.9358 19.2814Z" fill="white"/>
<path d="M46.1279 36.2508C46.1279 36.2508 46.1279 32.606 46.6401 31.4665C47.1522 30.3269 48.1808 30.105 48.4753 30.472C48.6161 30.647 48.3856 32.1835 47.9631 33.6345C47.9119 33.8095 47.5577 34.9277 47.451 35.7514C47.3357 36.5879 46.4139 36.4385 46.1279 36.2508Z" fill="#E4D9D3"/>
<path d="M45.8848 35.2562C46.1707 35.0727 46.6914 34.791 47.3999 34.7014C48.0272 34.6203 48.5437 34.727 48.8595 34.8166C48.7101 35.6787 46.4225 47.6971 36.2436 51.726C30.5076 53.9965 22.3047 53.7105 17.4351 48.3031C14.8999 45.4863 12.4502 40.3777 13.9567 36.0757C14.7207 33.9033 16.6754 31.4066 18.8477 31.4578C20.1281 31.4877 20.939 32.3882 23.2052 34.8807C29.6071 41.9141 30.2088 42.486 31.3569 42.9597C35.0529 44.4876 38.7659 42.6695 39.6579 42.2299C43.8831 40.1643 45.5177 36.208 45.8848 35.2562Z" fill="#E3EDED"/>
<path d="M64.7709 35.6702C64.1008 34.5947 64.9373 33.6814 64.3313 32.7382C63.9216 32.098 63.1278 31.8718 63.0467 31.97C62.94 32.098 63.9472 32.9174 63.7807 33.1778C63.6911 33.3186 63.307 33.2333 62.0949 32.8833C60.3579 32.384 60.0549 32.2517 59.9695 32.3712C59.7903 32.623 60.6652 33.9588 62.0138 34.7142C62.8247 35.1709 63.5289 35.2605 63.8576 35.9647C64.0453 36.3702 64.0027 36.75 64.2587 36.8439C64.5233 36.9421 64.9501 36.6817 65.027 36.3659C65.0952 36.1056 64.8989 35.8751 64.7709 35.6702Z" fill="#E4D9D3"/>
<path d="M87.2317 54.2742C92.1952 56.6514 96.9112 55.9429 100.21 55.4478C103.936 54.8887 107.525 54.3467 108.938 51.5598C110.334 48.8027 109.088 44.8421 106.885 42.6869C104.299 40.156 101.717 41.415 99.9201 38.9482C98.0764 36.4174 100.253 34.3645 98.6013 31.5434C96.5229 27.9883 92.0501 29.4948 89.8735 25.897C88.0895 22.9437 90.2747 20.5323 88.4822 18.6374C85.9897 16.0126 78.7258 17.4167 77.5649 20.511C77.1083 21.7188 77.7997 22.6236 78.3076 24.3222C79.9293 29.7296 76.6132 32.7939 76.3102 37.702C75.8962 44.3343 81.1115 51.3421 87.2317 54.2742Z" fill="#252334"/>
<path d="M90.5988 110.691C90.5988 110.691 85.6309 111.323 85.4389 112.45C85.217 113.76 90.9658 112.608 90.9658 112.608C90.9658 112.608 91.845 112.322 90.5988 110.691Z" fill="#252334"/>
<path d="M90.279 108.002L90.3985 110.777C90.3985 110.777 89.7925 111.545 89.0968 110.99L88.542 108.002H90.279Z" fill="#E4D9D3"/>
<path d="M82.4982 112.036C82.4982 112.036 77.5304 112.667 77.3383 113.794C77.1164 115.104 82.8652 113.952 82.8652 113.952C82.8652 113.952 83.7486 113.662 82.4982 112.036Z" fill="#252334"/>
<path d="M82.1823 109.347L82.3018 112.121C82.3018 112.121 81.6958 112.889 81.0001 112.334L80.4453 109.347H82.1823Z" fill="#E4D9D3"/>
<path d="M75.4824 63.6166C75.7428 67.6284 76.3872 73.4071 78.12 80.2144C78.7431 82.6642 79.3705 84.7042 80.7831 88.9465C82.4689 94.0125 84.8504 100.931 87.9489 109.287C88.8494 109.424 89.7457 109.56 90.6462 109.701C92.507 102.915 91.9735 97.5804 90.0615 93.3424C88.9305 90.8286 88.2647 90.8073 87.0996 88.0033C85.8619 85.0243 85.354 82.0197 85.6699 71.8835C85.7595 69.0112 85.9259 65.1957 86.2588 60.6846C82.6653 61.6534 79.076 62.635 75.4824 63.6166Z" fill="#252334"/>
<path d="M81.7097 62.9805C79.4477 65.8272 73.0928 74.5934 72.9093 87.3501C72.7386 99.249 78.0308 107.725 80.1562 110.772C81.0396 110.691 81.9231 110.61 82.8108 110.529C83.0327 108.011 83.148 104.225 82.3712 99.7441C81.2146 93.0691 79.3837 92.3478 79.6568 88.5409C80.0025 83.7651 83.0199 82.9969 87.7231 74.3246C90.2582 69.6512 93.2842 64.0646 91.3167 61.9989C90.9411 61.6063 89.1187 60.0016 81.7097 62.9805Z" fill="#252334"/>
<path d="M79.4091 28.0352C76.2253 28.6157 74.3175 30.8008 73.7883 31.4197C73.1353 32.1921 71.202 34.7017 71.1636 41.1334C71.1294 47.2962 72.8878 48.0089 73.4213 53.8602C74.2066 62.4856 70.8904 66.5315 73.2036 68.4777C75.1711 70.1336 77.5654 67.193 84.202 67.5089C89.6776 67.7735 90.7318 69.9031 95.4393 69.3697C96.1606 69.2886 102.443 68.5118 103.412 65.2213C104.086 62.938 101.606 61.4399 98.2049 55.9088C94.9485 50.6166 93.348 45.6872 92.5542 43.2417C90.1557 35.8583 91.1501 33.8395 88.44 31.138C88.1028 30.8008 84.3129 27.1432 79.4091 28.0352Z" fill="#E5A9EB"/>
<path d="M82.627 22.1753C82.627 22.1753 81.9783 26.6822 84.4494 29.1021C84.6244 29.2728 84.5433 29.5715 84.3043 29.6185C83.1563 29.8617 80.4846 30.2501 77.894 29.3795C77.6678 29.3027 77.6165 29.0039 77.8043 28.8588C78.3464 28.4235 79.2597 27.5912 79.742 26.5968C80.4632 25.1159 80.5913 22.5935 80.5913 22.5935L82.627 22.1753Z" fill="#E4D9D3"/>
<path d="M82.7034 23.7845C82.7034 23.7845 81.5852 25.3166 79.8354 24.6764C78.2691 24.1045 79.2037 20.0543 80.4457 19.5934C80.8597 19.4397 81.6236 19.508 82.1315 19.8239C82.49 20.0458 83.446 21.2365 82.8997 22.5681C83.2966 22.4529 83.6466 22.5596 83.7319 22.7559C83.8429 23.0034 83.5058 23.3449 83.4332 23.4217C83.1686 23.6863 82.8485 23.7631 82.7034 23.7845Z" fill="#E4D9D3"/>
<path d="M63.2588 36.1527C63.8478 35.9308 64.441 35.7089 65.03 35.487C65.3757 36.1186 67.6931 40.1859 72.0336 40.8047C76.1222 41.3852 79.9633 38.611 81.7472 35.8924C83.4416 33.3146 83.0959 31.0654 84.6793 30.5746C86.2755 30.0838 88.2515 31.855 89.1904 33.0671C91.4097 35.9393 91.3329 40.2243 89.9587 43.2972C87.7266 48.2906 81.7259 50.8513 76.613 50.3306C68.6918 49.524 65.0214 41.5473 64.4026 40.1091C63.7325 38.547 63.4167 37.1472 63.2588 36.1527Z" fill="#E9C9EC"/>
<path d="M42.202 8.16809C40.9045 8.15955 40.8106 6.20913 42.1081 6.12377C42.2404 6.11523 42.3855 6.11524 42.5391 6.13231C44.6133 6.32863 44.9761 7.43828 45.4968 7.69008C45.8766 7.86933 43.9646 8.17662 42.202 8.16809Z" fill="#E4D9D3"/>
</g>
<defs>
<clipPath id="clip0_14709_25332">
<rect width="120" height="120" fill="white"/>
</clipPath>
</defs>
</svg>
