<svg width="120" height="120" viewBox="0 0 120 120" fill="none" xmlns="http://www.w3.org/2000/svg">
<path d="M107.993 20.3477C105.429 16.8204 98.3825 7.39222 85.6751 2.66572C64.6561 -5.15388 44.6749 6.03175 32.0503 13.0987C20.3519 19.6489 3.13716 29.2879 3.06272 42.3757C2.99656 54.4422 17.5689 56.7372 19.8763 71.9422C22.3367 88.1851 7.26405 95.8931 11.1801 106.438C15.7453 118.719 41.0442 121.287 56.977 119.48C63.0971 118.785 96.6167 114.985 112.049 84.695C122.635 63.9282 120.927 38.1289 107.993 20.3477Z" fill="white"/>
<path d="M69.5102 59.6689C69.5102 59.6689 68.6252 59.8013 68.5343 60.2313C68.4433 60.6614 68.3523 61.1163 68.7079 62.2906C69.0636 63.465 69.0222 63.9654 69.4523 64.044C69.8782 64.1184 70.7176 60.9922 69.5102 59.6689Z" fill="#252334"/>
<path d="M69.4449 58.4285C69.4366 58.5153 69.1182 59.4788 68.9363 60.0246C68.8618 60.2479 68.9445 60.4919 69.1389 60.6284C69.4242 60.8227 69.8088 60.7648 70.0197 60.4919C70.3753 60.0329 70.8881 59.3423 71.1486 58.8709L69.4449 58.4285Z" fill="#252334"/>
<path d="M49.4683 46.0973C48.7116 44.5921 52.8881 41.1144 53.4463 40.6512C54.538 39.7415 65.0868 31.1404 71.2276 35.3417C76.3965 38.8773 74.6267 48.872 74.2835 50.8279C73.5557 54.9341 71.8933 58.0438 70.6528 59.9583C69.9787 59.582 69.3047 59.2099 68.6307 58.8336C68.1965 56.6543 67.9318 54.8142 67.7623 53.4703C67.5183 51.4771 67.295 49.6783 67.2413 47.3047C67.1544 43.5459 67.5928 42.8015 66.989 42.3343C65.6575 41.3087 62.8952 44.4597 57.1142 46.0187C54.6952 46.6679 50.1589 47.4701 49.4683 46.0973Z" fill="#252334"/>
<path opacity="0.3" d="M53.4457 40.6514C53.7724 40.3785 54.955 39.415 56.6049 38.3109C57.1094 39.0139 57.6346 39.3447 58.0771 39.4935C60.1116 40.1882 61.5465 37.7609 65.1193 37.6906C66.0331 37.6741 68.539 37.6244 69.8044 39.1751C71.3137 41.0318 69.3826 43.1201 70.6562 47.2718C71.3179 49.4262 72.0002 49.3931 72.0912 50.9976C72.2317 53.5324 70.5777 54.5083 70.6769 56.7289C70.7017 57.3161 70.8671 58.0356 71.3179 58.8544C71.0904 59.2514 70.863 59.6235 70.6521 59.9502C69.9781 59.5739 69.304 59.2017 68.63 58.8254C68.1958 56.6462 67.9312 54.8061 67.7616 53.4621C67.5177 51.469 67.2944 49.6702 67.2406 47.2966C67.1538 43.5377 67.5921 42.7934 66.9883 42.3261C65.6568 41.3006 62.8945 44.4516 57.1136 46.0106C54.6904 46.6639 50.1541 47.4661 49.4635 46.0933C48.715 44.5922 52.8916 41.1145 53.4457 40.6514Z" fill="#252334"/>
<path d="M78.1914 76.6523C78.1914 76.6523 87.5203 90.7326 75.1727 109.452C74.0231 111.198 71.4097 111.02 70.4917 109.142L64.6611 97.1835C63.7265 95.2647 63.6438 93.0441 64.4337 91.0634L68.4944 80.8909L78.1914 76.6523Z" fill="#252334"/>
<path d="M56.1715 53.4334C56.1715 53.4334 42.604 43.3725 23.2555 54.707C21.4526 55.7615 21.4898 58.3832 23.3176 59.3963L34.9498 65.8554C36.8148 66.8892 39.0312 67.0918 41.0492 66.4054L51.4202 62.8905L56.1715 53.4334Z" fill="#252334"/>
<path d="M79.4863 75.4243C79.4863 75.4243 88.8152 89.5046 76.4676 108.224C75.318 109.97 72.7046 109.792 71.7866 107.914L65.956 95.9554C65.0215 94.0367 64.9388 91.8161 65.7286 89.8354L69.7893 79.6629L79.4863 75.4243Z" fill="#C3D7DB"/>
<path d="M57.4703 52.2054C57.4703 52.2054 43.9028 42.1445 24.5544 53.479C22.7514 54.5335 22.7887 57.1552 24.6164 58.1683L36.2486 64.6274C38.1136 65.6612 40.33 65.8638 42.348 65.1774L52.719 61.6625L57.4703 52.2054Z" fill="#C3D7DB"/>
<path d="M73.5763 22.4198C91.4278 8.90189 116.45 18.2804 116.462 18.3135C116.495 18.3259 124.534 43.811 110.086 60.9182C96.9813 76.4333 71.4921 85.4232 66.6126 87.04C66.0875 87.2137 65.2439 87.4329 65.0206 86.9284C60.6456 77.1032 53.8681 70.3215 45.1842 66.021C44.7045 65.7811 44.9816 64.9665 45.1759 64.4703C47.0202 59.7479 57.354 34.7053 73.5763 22.4198Z" fill="#85BBCA"/>
<path d="M104.309 29.838C98.9831 24.2183 92.2014 18.8509 85.7754 16.5517C99.0327 13.0368 112.406 16.9363 115.693 18.0404C116.181 18.2058 116.553 18.5986 116.69 19.0949C117.616 22.4402 120.804 35.9994 116.591 49.05C115.007 43.2277 109.635 35.4577 104.309 29.838Z" fill="#C3D7DB"/>
<path d="M74.2745 33.4357C67.7574 39.6136 68.0386 50.4891 74.8989 57.7256C81.7591 64.9622 92.6057 65.8182 99.1227 59.6402C105.64 53.4623 105.359 42.5868 98.4983 35.3503C91.638 28.1096 80.7915 27.2536 74.2745 33.4357Z" fill="url(#paint0_linear_14709_25225)"/>
<path d="M80.2174 47.673C88.3595 41.5571 94.9675 43.5998 102.295 41.0732C105.099 47.5324 104.069 54.9385 99.1192 59.636C92.6022 65.814 81.7598 64.958 74.8954 57.7214C74.333 57.1301 73.8161 56.514 73.3447 55.8771C74.792 53.09 76.657 50.3526 80.2174 47.673Z" fill="url(#paint1_linear_14709_25225)"/>
<path d="M75.3132 34.5273C69.342 40.1925 69.5984 50.1583 75.8839 56.7911C82.1735 63.4239 92.1144 64.2096 98.0856 58.5444C104.057 52.8792 103.8 42.9134 97.5149 36.2806C91.2253 29.6478 81.2844 28.8621 75.3132 34.5273Z" fill="url(#paint2_linear_14709_25225)"/>
<path d="M76.7813 36.0738C71.5793 41.007 71.8026 49.6909 77.2817 55.4677C82.7608 61.2446 91.4198 61.9269 96.6219 56.9936C101.824 52.0603 101.601 43.3765 96.1215 37.5997C90.6424 31.8228 81.9834 31.1405 76.7813 36.0738Z" fill="#252334"/>
<path d="M44.7009 65.5866C42.9228 67.2737 46.1069 73.5178 51.8134 79.5345C57.5199 85.5512 63.5862 89.0619 65.3644 87.3789C67.1425 85.6918 63.9584 79.4476 58.2519 73.431C52.5453 67.4102 46.4791 63.8994 44.7009 65.5866Z" fill="#85BBCA"/>
<path d="M54.4336 72.6908L58.8665 77.3677C61.2277 79.857 61.8397 83.5249 60.4213 86.647L59.0733 89.6078C58.5771 90.6994 57.138 90.9393 56.311 90.0709L41.6063 74.564C40.7834 73.6956 41.1018 72.269 42.2142 71.8307L45.2453 70.6439C48.4418 69.3951 52.0724 70.2056 54.4336 72.6908Z" fill="#C3D7DB"/>
<path d="M41.057 72.7365C39.3781 74.3286 41.8386 79.6423 46.5444 84.6086C51.2543 89.5749 56.4316 92.3124 58.1104 90.7204C59.7893 89.1283 57.3289 83.8146 52.6231 78.8483C47.909 73.882 42.7318 71.1445 41.057 72.7365Z" fill="#C3D7DB"/>
<path d="M43.0996 74.8947C41.826 76.1022 43.691 80.1423 47.272 83.9177C50.8531 87.6931 54.7856 89.7731 56.0592 88.5615C57.3329 87.354 55.4679 83.3139 51.8869 79.5385C48.3099 75.7631 44.3774 73.6831 43.0996 74.8947Z" fill="#252334"/>
<path d="M47.653 80.3287C48.4759 81.9951 39.2379 88.5949 31.0255 92.8913C29.5947 93.6398 25.7945 95.5709 20.4891 97.4069C11.7473 100.434 6.52047 102.563 4.52318 100.409C3.22061 98.9989 3.57623 96.1167 4.65137 94.2642C6.84301 90.4888 11.2263 92.3579 15.9073 88.3592C19.691 85.1296 18.62 82.3756 21.9198 80.8042C25.0791 79.299 27.2087 81.2715 32.9194 81.8587C41.7728 82.7643 47.0327 79.0757 47.653 80.3287Z" fill="#C3D7DB"/>
<path d="M51.7347 84.4802C44.1798 87.0771 40.0115 90.745 37.5925 93.652C34.7185 97.1008 34.4704 99.28 30.8604 101.765C27.3042 104.213 24.637 104.097 22.3006 107.195C21.7796 107.885 19.4928 110.916 20.4522 113.054C22.0773 116.677 32.6881 117.028 40.2555 112.732C41.74 111.888 47.4962 108.621 48.4225 103.113C48.8773 100.421 47.8187 99.3172 47.7402 96.0587C47.6575 92.6761 48.683 88.7973 51.7347 84.4802Z" fill="#C3D7DB"/>
<path d="M46.9757 27.2122C47.4884 26.348 48.3775 24.8014 47.9019 23.1887C47.4471 21.638 45.8674 20.4595 44.263 20.2279C43.8702 20.17 42.6131 20.046 40.5992 21.2493C37.7129 22.9696 38.1512 25.5334 35.9058 26.2611C34.5908 26.6871 34.2187 25.9179 32.0725 26.3728C30.4391 26.7201 30.2117 27.2577 28.9298 27.6671C26.0145 28.5934 24.9435 26.5093 21.7553 27.0096C19.4685 27.3694 16.975 28.9201 16.5863 30.8512C16.3589 31.9842 17.0619 32.2241 17.128 34.0477C17.2066 36.169 16.2969 36.8844 15.9867 38.8279C15.6807 40.7425 16.0984 42.9838 17.1363 44.5634C19.7166 48.5001 25.8863 47.9997 26.5562 47.9336C29.8313 47.6234 31.9898 46.081 34.8307 43.9969C38.7177 41.1477 41.4718 36.504 46.9757 27.2122Z" fill="#252334"/>
<path d="M68.1768 16.3079L69.4338 15.0921C69.7605 14.7861 70.1079 14.476 70.4759 14.1658C71.0135 13.711 71.5428 13.2975 72.0514 12.9253C72.0514 12.9253 72.1589 13.1403 71.8695 13.4546C71.58 13.7689 71.0135 14.2361 70.8729 14.3561C70.7323 14.476 71.2326 14.9267 70.939 15.4643C70.6454 16.0019 69.9301 16.0391 69.6737 15.791L68.7515 16.6883L68.1768 16.3079Z" fill="#E4D9D3"/>
<path d="M68.7216 15.6335C69.0938 16.0181 69.4659 16.4068 69.8381 16.7914C69.7554 17.4447 69.5404 18.4744 68.9077 19.5165C67.4273 21.9604 65.2729 21.8156 61.9896 24.3133C60.5174 25.4339 61.0922 25.3553 57.8585 28.3657C55.1748 30.8675 53.8102 32.1205 52.7475 32.2362C49.3566 32.6125 46.2842 27.1086 45.7549 26.1327C49.1292 24.3794 52.0073 23.1926 54.0666 22.4235C58.7062 20.6867 62.5478 19.7811 67.3611 16.5846C67.9401 16.1959 68.4073 15.861 68.7216 15.6335Z" fill="#D5B8D8"/>
<path d="M61.4807 68.3447C61.4641 68.3489 61.431 68.353 61.3814 68.3571C61.1664 68.3778 60.6702 68.4357 60.3683 68.903C60.0003 69.4736 60.1285 70.71 60.3352 72.1863C60.542 73.6625 61.2615 72.3186 61.3318 72.0912C61.398 71.8638 62.1133 68.7624 62.1133 68.7624L61.4807 68.3447Z" fill="#252334"/>
<path d="M62.6809 68.0966L61.4899 69.3661C61.4899 69.3661 61.0847 69.333 61.1509 68.7872L61.3163 67.4143L62.6809 68.0966Z" fill="#E4D9D3"/>
<path d="M47.802 42.3388C49.8986 41.8219 57.2964 40.2753 63.4784 44.6504C64.1814 45.1466 65.546 46.1307 66.5716 47.6608C69.888 52.6147 68.023 60.9181 62.6638 68.6674C62.0518 68.3242 61.4398 67.981 60.8278 67.6377C60.3771 66.0788 59.9181 63.7424 60.2613 61.0008C60.7244 57.3081 62.2751 55.7367 61.4646 53.5947C60.5301 51.126 57.3336 50.2122 56.7299 50.055C52.268 48.8806 49.729 52.2632 45.7593 51.1012C43.6999 50.4975 42.2898 48.9799 41.376 47.6732C43.5221 45.895 45.66 44.1169 47.802 42.3388Z" fill="#252334"/>
<path d="M23.3467 31.9097C23.8471 32.5837 24.8437 33.7085 26.4109 34.1675C28.863 34.887 31.1705 33.5265 33.0023 32.41C35.6571 30.7932 35.0989 30.1605 37.6461 28.4444C40.6152 26.443 45.5815 25.5084 46.1853 25.4009C47.9344 25.0949 48.8235 24.9461 49.4603 25.1321C51.8422 25.8351 53.6492 28.8 53.6658 31.4465C53.6699 32.1909 53.3846 33.6134 52.8098 36.4584C52.5079 37.9553 52.2929 38.8319 52.7354 39.1917C53.5211 39.8285 55.5721 38.2034 56.0394 38.7327C56.3247 39.0594 55.7954 39.9567 55.6962 40.118C54.1413 42.748 51.5155 43.087 48.9269 44.8569C44.8661 47.6316 46.177 50.3112 42.4595 51.9611C40.1148 52.999 38.8081 52.2836 37.092 53.8302C35.3925 55.3685 35.8598 56.8158 34.3463 57.7131C32.0182 59.0943 28.0277 57.3616 28.0195 56.241C28.0112 55.4305 30.1036 55.6331 31.7494 53.6731C33.1802 51.9735 32.3614 50.919 33.8583 48.6571C34.9293 47.0403 35.4421 47.4372 37.1499 45.32C38.254 43.9471 39.325 42.6239 39.5318 40.7176C39.7137 39.0552 39.1596 37.6865 38.7833 36.938C38.3822 37.488 35.0782 41.8548 29.7811 41.7927C28.7473 41.7803 24.947 41.7348 22.7802 38.6665C20.9194 36.0283 21.5562 32.989 21.6885 32.41C22.2426 32.2529 22.7968 32.0834 23.3467 31.9097Z" fill="#D5B8D8"/>
<path d="M44.7217 23.3789C44.7217 23.3789 44.4943 25.2439 43.8079 25.6698C43.1214 26.0998 42.0132 26.6581 41.8891 26.8111C41.7692 26.9641 46.1484 27.419 48.3152 26.3149C48.3152 26.3149 48.3855 25.9593 47.4882 25.8352C47.2483 25.8021 46.7025 25.736 46.4833 25.7566C45.9375 25.8021 45.4661 25.3721 45.4702 24.8262L45.4743 23.7966L44.7217 23.3789Z" fill="#E4D9D3"/>
<path d="M44.6219 24.0364C44.6219 24.0364 45.0727 24.6484 45.7756 24.3921C46.4042 24.1605 46.0238 22.5354 45.5234 22.3534C45.358 22.2914 45.052 22.3203 44.8452 22.4485C44.7005 22.5395 44.3201 23.015 44.5434 23.5526C44.3862 23.5071 44.2456 23.5485 44.2084 23.6271C44.1629 23.7263 44.2994 23.8628 44.3283 23.8917C44.4358 23.9992 44.5599 24.0282 44.6219 24.0364Z" fill="#E4D9D3"/>
<path d="M23.173 5.62667C19.1825 3.64593 15.3782 4.1835 13.476 5.02294C11.2306 6.01538 10.4863 6.76384 8.49726 7.13601C6.73154 7.47096 4.89553 5.29999 3.51852 6.83414C3.42754 6.93752 3.31176 7.06571 3.18357 7.28901C2.19527 8.9927 3.36138 11.0561 3.03884 14.6537C2.87343 16.4939 2.47646 17.0067 2.10429 20.5464C1.9637 21.8903 1.99264 22.0888 2.03399 22.2459C2.63773 24.636 7.42625 24.1812 10.7964 23.1515C15.4443 21.729 16.9371 19.3472 19.9889 20.4306C21.3948 20.9309 22.4659 21.9316 23.1482 22.6966C22.838 17.0356 23.4872 11.296 23.173 5.62667Z" fill="#8A50A0"/>
<path d="M23.1607 38.1001C23.3426 38.1001 23.4873 37.9512 23.4873 37.7734V4.0718C23.4873 3.88985 23.3385 3.74512 23.1607 3.74512C22.9787 3.74512 22.834 3.89398 22.834 4.0718V37.7734C22.834 37.9512 22.9787 38.1001 23.1607 38.1001Z" fill="#A2A7AE"/>
<path d="M22.0976 32.2985C22.0976 32.2985 21.8164 31.1572 21.8164 30.5949C21.8164 30.0325 23.3671 30.0325 23.6483 30.0325C23.9295 30.0325 23.7889 31.0208 23.2265 31.0911C22.8171 31.1407 22.7799 31.6783 22.7882 31.976C22.7923 32.0876 22.7137 32.1828 22.6062 32.2034L22.0976 32.2985Z" fill="#E4D9D3"/>
<defs>
<linearGradient id="paint0_linear_14709_25225" x1="99.1224" y1="59.6362" x2="74.275" y2="33.4347" gradientUnits="userSpaceOnUse">
<stop offset="0.00359712" stop-color="#EBEFF2"/>
<stop offset="1" stop-color="white"/>
</linearGradient>
<linearGradient id="paint1_linear_14709_25225" x1="98.6936" y1="60.0433" x2="73.846" y2="33.8415" gradientUnits="userSpaceOnUse">
<stop offset="0.00359712" stop-color="#EBEFF2"/>
<stop offset="1" stop-color="white"/>
</linearGradient>
<linearGradient id="paint2_linear_14709_25225" x1="91.2123" y1="34.5221" x2="84.0751" y2="53.5217" gradientUnits="userSpaceOnUse">
<stop offset="0.00359712" stop-color="#EBEFF2"/>
<stop offset="1" stop-color="white"/>
</linearGradient>
</defs>
</svg>
