<svg width="120" height="120" viewBox="0 0 120 120" fill="none" xmlns="http://www.w3.org/2000/svg">
<path d="M105.111 103.119C102.659 105.699 100.336 107.367 98.5022 108.682C76.9487 124.146 51.4481 119.641 46.0265 118.54C38.0206 116.915 22.553 113.774 11.367 100.616C-5.55341 80.7173 8.16973 60.4238 21.2929 39.7276C23.693 35.9432 25.2874 3.87241 51.0666 0.503751C66.6671 -1.5363 84.8518 2.57809 98.0222 13.6098C125.666 36.7661 123.699 83.5545 105.111 103.119Z" fill="white"/>
<g opacity="0.3">
<path d="M60.7867 23.343C60.6452 23.2358 60.6067 23.0344 60.7052 22.8801C60.9152 22.5415 61.1424 22.2115 61.3824 21.8901C61.4981 21.7358 61.7167 21.7015 61.8753 21.8172L61.8796 21.8215C62.0296 21.9372 62.0596 22.1558 61.9438 22.3101C61.7167 22.6144 61.5024 22.9315 61.301 23.2487C61.1981 23.4115 60.9838 23.463 60.8167 23.3601C60.8038 23.3601 60.7952 23.3515 60.7867 23.343ZM62.681 20.9429C62.6681 20.9343 62.6596 20.9258 62.651 20.9172C62.5139 20.7801 62.5096 20.5572 62.6467 20.42C62.9253 20.1372 63.221 19.8629 63.5253 19.6057C63.671 19.4814 63.8939 19.4986 64.0225 19.6443C64.1468 19.79 64.1296 20.0129 63.9839 20.1415C63.6967 20.3858 63.4182 20.6472 63.1524 20.9172C63.0196 21.0415 62.8224 21.0501 62.681 20.9429ZM65.0596 19.0186C65.0296 18.9929 64.9996 18.9629 64.9782 18.9286C64.8753 18.7657 64.9225 18.5471 65.0854 18.4443C65.4196 18.23 65.7711 18.0286 66.1225 17.8443C66.294 17.7543 66.5082 17.8228 66.5982 17.9943C66.6882 18.1657 66.6197 18.38 66.4482 18.47C66.1139 18.6457 65.7839 18.8386 65.4625 19.04C65.3382 19.1214 65.1754 19.1086 65.0596 19.0186ZM67.8111 17.6728C67.7597 17.6343 67.7211 17.5785 67.6954 17.5143C67.6311 17.33 67.7254 17.1285 67.9097 17.0642C68.2869 16.9314 68.6683 16.8114 69.054 16.7128C69.2426 16.6657 69.4355 16.7771 69.4826 16.9657C69.5297 17.1542 69.4183 17.3471 69.2297 17.3943C68.8654 17.4885 68.4969 17.6043 68.1411 17.7285C68.0254 17.7714 67.9011 17.7457 67.8111 17.6728ZM70.7898 16.9785C70.7169 16.9228 70.6698 16.8414 70.6569 16.7428C70.6355 16.5499 70.7726 16.3742 70.9655 16.3528C71.3598 16.3056 71.7627 16.2756 72.1612 16.2628C72.3541 16.2542 72.517 16.4085 72.5255 16.6014C72.5341 16.7942 72.3798 16.9571 72.187 16.9657C71.8098 16.9785 71.4284 17.0085 71.0512 17.0514C70.9526 17.06 70.8626 17.0342 70.7898 16.9785ZM73.8541 16.9571C73.7599 16.8842 73.7084 16.7685 73.7213 16.6442C73.7427 16.4514 73.9142 16.3099 74.107 16.3314C74.5013 16.3742 74.8999 16.4342 75.2899 16.5071C75.4785 16.5457 75.607 16.7299 75.5685 16.9185C75.5299 17.1071 75.3456 17.2357 75.157 17.1971C74.7842 17.1242 74.407 17.0685 74.0299 17.03C73.9613 17.0214 73.9013 16.9957 73.8541 16.9571ZM84.5259 24.2001C84.4873 24.1701 84.453 24.1316 84.4316 24.0844C84.2558 23.7501 84.063 23.4201 83.8615 23.0987C83.7587 22.9358 83.8058 22.7172 83.9687 22.6144C84.1316 22.5115 84.3501 22.5587 84.453 22.7215C84.6673 23.0558 84.8687 23.4073 85.053 23.7587C85.143 23.9301 85.0787 24.1444 84.903 24.2344C84.7787 24.303 84.633 24.2816 84.5259 24.2001ZM76.8414 17.6128C76.7257 17.5228 76.6742 17.3685 76.7256 17.2228C76.7899 17.0385 76.9871 16.94 77.1714 17.0042C77.5485 17.1328 77.9214 17.2785 78.2857 17.4414C78.4614 17.5185 78.5428 17.7285 78.4657 17.9043C78.3886 18.08 78.1785 18.1614 78.0028 18.0843C77.6557 17.93 77.3 17.7928 76.9442 17.6728C76.9057 17.6557 76.8671 17.6385 76.8414 17.6128ZM82.8072 21.6672C82.7901 21.6544 82.773 21.6372 82.7558 21.6201C82.5115 21.3329 82.2501 21.0543 81.9801 20.7886C81.8429 20.6515 81.8386 20.4286 81.9758 20.2915C82.1129 20.1543 82.3358 20.15 82.4729 20.2872C82.7558 20.5658 83.0301 20.8615 83.2915 21.1615C83.4158 21.3072 83.403 21.5301 83.253 21.6586C83.1244 21.7701 82.9358 21.7701 82.8072 21.6672ZM79.6057 18.9243C79.4643 18.8171 79.4257 18.6157 79.5243 18.4614C79.6272 18.2986 79.8414 18.2471 80.0086 18.3457C80.3472 18.5557 80.6815 18.7829 80.9986 19.0186L81.0029 19.0229C81.1529 19.1386 81.1829 19.3572 81.0672 19.5114C80.9515 19.6657 80.7329 19.7 80.5743 19.5843C80.27 19.3572 79.9529 19.1429 79.6357 18.9457C79.6229 18.9371 79.6143 18.9286 79.6057 18.9243Z" fill="#8A50A0"/>
<path d="M85.4688 26.4803C85.4131 26.4374 85.3702 26.3774 85.3488 26.3088C85.2931 26.1374 85.2374 25.9617 85.1774 25.7902C85.1131 25.6059 85.2074 25.4045 85.3917 25.3402C85.576 25.2759 85.7774 25.3702 85.8417 25.5545C85.906 25.7345 85.966 25.9188 86.026 26.0988C86.0817 26.2831 85.9788 26.4803 85.7945 26.5403C85.6788 26.5745 85.5588 26.5488 85.4688 26.4803Z" fill="#BDD0FB"/>
</g>
<g opacity="0.3">
<path d="M84.4098 37.1388C84.2769 37.036 84.2341 36.8474 84.3198 36.6931C84.4055 36.5345 84.4912 36.3717 84.5727 36.2088C84.6584 36.0331 84.8684 35.9645 85.0441 36.0502C85.2198 36.1359 85.2884 36.3459 85.2027 36.5217C85.117 36.6931 85.027 36.8645 84.937 37.0317C84.8427 37.2031 84.6284 37.2631 84.4612 37.1688C84.4398 37.1603 84.4227 37.1517 84.4098 37.1388Z" fill="#BDD0FB"/>
<path d="M64.023 41.3692C63.8944 41.2707 63.7701 41.1678 63.6458 41.0649C63.4958 40.9407 63.4787 40.7178 63.603 40.5721C63.7273 40.4221 63.9501 40.4049 64.0958 40.5249C64.383 40.7649 64.683 40.9921 64.983 41.2064C65.1416 41.3178 65.1802 41.5364 65.0687 41.695C64.9573 41.8535 64.7387 41.8921 64.5802 41.7807C64.3916 41.6478 64.203 41.5107 64.023 41.3692ZM62.3001 39.7835C62.2829 39.7706 62.2701 39.7578 62.2572 39.7449C61.9915 39.4535 61.7386 39.1535 61.4986 38.8406C61.3786 38.6863 61.4086 38.4677 61.5629 38.3477C61.7172 38.2277 61.9358 38.2577 62.0558 38.412C62.2829 38.7078 62.523 38.9949 62.7758 39.2692C62.9087 39.4106 62.8958 39.6335 62.7544 39.7663C62.6258 39.8821 62.433 39.8864 62.3001 39.7835ZM66.1616 42.7364C66.0288 42.6336 65.9859 42.4493 66.0673 42.2993C66.1573 42.1278 66.3673 42.0593 66.5388 42.1493C66.8688 42.3207 67.2116 42.475 67.5545 42.6207C67.7345 42.6936 67.8202 42.8993 67.7474 43.0793C67.6745 43.2593 67.4688 43.345 67.2888 43.2722C66.9245 43.1221 66.5645 42.955 66.2173 42.7793C66.1959 42.7621 66.1788 42.7493 66.1616 42.7364ZM60.5258 37.3491C60.4915 37.3234 60.4615 37.2891 60.4358 37.2463C60.2429 36.9077 60.0586 36.552 59.8957 36.2005C59.8143 36.0248 59.8915 35.8148 60.0672 35.7334C60.2429 35.652 60.4529 35.7291 60.5343 35.9048C60.6886 36.2434 60.8643 36.5777 61.0486 36.8991C61.1429 37.0663 61.0872 37.2806 60.9158 37.3791C60.7915 37.4477 60.6372 37.4306 60.5258 37.3491ZM68.9731 43.8079C68.866 43.7264 68.8145 43.5807 68.8488 43.4436C68.896 43.255 69.0888 43.1436 69.2774 43.1907C69.6374 43.285 70.006 43.3622 70.3703 43.4264C70.5632 43.4607 70.6917 43.6407 70.6575 43.8336C70.6232 44.0265 70.4432 44.155 70.2503 44.1207C69.8646 44.0565 69.4746 43.9707 69.0974 43.8722C69.0545 43.8593 69.0117 43.8379 68.9731 43.8079ZM71.9518 44.2365C71.8661 44.1679 71.8103 44.065 71.8146 43.9493C71.8189 43.7565 71.9818 43.6022 72.1789 43.6107C72.5518 43.6236 72.9289 43.6193 73.2975 43.6022C73.4904 43.5936 73.6575 43.7393 73.6661 43.9365C73.6747 44.1293 73.5247 44.2965 73.3318 44.305C72.9418 44.3265 72.5432 44.3265 72.1532 44.3136C72.0803 44.3093 72.0118 44.2793 71.9518 44.2365ZM74.9561 44.005C74.8918 43.9536 74.8447 43.8807 74.8276 43.795C74.7933 43.6064 74.9176 43.4222 75.1061 43.3836C75.4704 43.315 75.839 43.2293 76.199 43.1307C76.3876 43.0793 76.5805 43.1864 76.6319 43.375C76.6833 43.5636 76.5762 43.7564 76.3876 43.8079C76.0104 43.9107 75.6247 44.0007 75.239 44.0736C75.1318 44.0907 75.0333 44.065 74.9561 44.005ZM77.8362 43.1264C77.7891 43.0921 77.7548 43.045 77.7291 42.9893C77.6519 42.8093 77.7334 42.6036 77.9134 42.5264C78.2562 42.3807 78.5948 42.2136 78.9205 42.0421C79.092 41.9521 79.3062 42.0164 79.3962 42.1878C79.4862 42.3593 79.422 42.5736 79.2505 42.6636C78.9077 42.8479 78.5477 43.0193 78.1876 43.1736C78.0676 43.225 77.9348 43.1993 77.8362 43.1264ZM80.4548 41.635C80.4291 41.6135 80.4077 41.5921 80.3863 41.5621C80.2706 41.4035 80.3048 41.185 80.4634 41.0735C80.7634 40.8549 81.0591 40.6192 81.3377 40.3792C81.4834 40.2506 81.7063 40.2678 81.8349 40.4135C81.9635 40.5592 81.9463 40.7821 81.8006 40.9107C81.5049 41.1678 81.192 41.4121 80.8791 41.6435C80.7463 41.7335 80.5748 41.725 80.4548 41.635ZM82.6792 39.6035C82.6749 39.5992 82.6663 39.5949 82.662 39.5906C82.5163 39.4621 82.5035 39.2392 82.632 39.0935C82.812 38.8878 82.9878 38.6735 83.1592 38.4592C83.2192 38.382 83.2792 38.3006 83.3392 38.2235C83.4549 38.0692 83.6735 38.0349 83.8321 38.1506C83.9907 38.2663 84.0207 38.4849 83.9049 38.6435C83.8449 38.7249 83.7806 38.8106 83.7164 38.892C83.5406 39.1192 83.3521 39.342 83.1635 39.5606C83.0349 39.6978 82.8249 39.7192 82.6792 39.6035Z" fill="#BDD0FB"/>
<path d="M59.3294 34.5718C59.2737 34.5289 59.2308 34.4689 59.2094 34.3961C59.1537 34.2161 59.1023 34.0275 59.0508 33.8432C59.0037 33.6546 59.1151 33.4617 59.3037 33.4146C59.4923 33.3675 59.6851 33.4789 59.7323 33.6675C59.7794 33.8432 59.8309 34.0232 59.8823 34.1946C59.938 34.3789 59.8351 34.5761 59.6509 34.6318C59.5351 34.6661 59.4151 34.6404 59.3294 34.5718Z" fill="#BDD0FB"/>
</g>
<path d="M62.2051 31.6489C62.2051 31.7174 62.2523 31.7817 62.3208 31.8031L64.2237 32.4117C64.4595 33.316 64.8366 34.1861 65.3638 34.9918L64.5323 36.809C64.5023 36.8733 64.5195 36.9461 64.5666 36.9976L66.3024 38.6519C66.3538 38.699 66.431 38.7119 66.491 38.6776L68.2653 37.7604C69.0924 38.249 69.9839 38.5876 70.8968 38.7762L71.5911 40.6491C71.6168 40.7134 71.6768 40.7562 71.7497 40.7562L74.1454 40.7005C74.214 40.7005 74.2783 40.6534 74.2997 40.5848L74.9083 38.6819C75.8126 38.4462 76.6826 38.069 77.4884 37.5419L79.3056 38.3733C79.3699 38.4033 79.4427 38.3862 79.4941 38.339L81.1485 36.6033C81.1956 36.5518 81.2085 36.4747 81.1742 36.4147L80.257 34.6404C80.7456 33.8132 81.0842 32.9217 81.2728 32.0089L83.1457 31.3146C83.21 31.2888 83.2528 31.2288 83.2528 31.156L83.1971 28.7602C83.1971 28.6916 83.15 28.6274 83.0814 28.6059L81.1785 27.9973C80.9428 27.093 80.5656 26.223 80.0384 25.4173L80.8699 23.6001C80.8999 23.5358 80.8828 23.4629 80.8356 23.4115L79.0999 21.7572C79.0484 21.71 78.9713 21.6972 78.9113 21.7315L77.1369 22.6486C76.3098 22.16 75.4183 21.8215 74.5055 21.6329L73.8111 19.76C73.7854 19.6957 73.7254 19.6528 73.6526 19.6528L71.2568 19.7085C71.1882 19.7085 71.1239 19.7557 71.1025 19.8243L70.4939 21.7272C69.5896 21.9629 68.7196 22.34 67.9138 22.8672L66.0967 22.0358C66.0324 22.0058 65.9595 22.0229 65.9081 22.07L64.2538 23.8058C64.2066 23.8572 64.1938 23.9344 64.228 23.9944L65.1452 25.7687C64.6566 26.5959 64.318 27.4873 64.1295 28.4002L62.2566 29.0945C62.1923 29.1202 62.1494 29.1802 62.1494 29.2531L62.2051 31.6489Z" fill="#8A50A0"/>
<path d="M71.2188 32.1076C70.293 31.3876 70.0059 30.0718 70.6016 29.0218C71.2574 27.8646 72.7274 27.4575 73.8846 28.1089C74.446 28.4261 74.8489 28.9404 75.0203 29.5618C75.1918 30.1832 75.1146 30.8304 74.7974 31.3918C74.1417 32.549 72.6717 32.9562 71.5145 32.3047C71.4117 32.2447 71.3131 32.1762 71.2188 32.1076ZM73.8374 28.7475C73.7646 28.6918 73.6917 28.6403 73.6103 28.5975C72.7231 28.096 71.5959 28.4089 71.0945 29.2961C70.5931 30.1832 70.9059 31.3104 71.7931 31.8119C72.6803 32.3133 73.8074 32.0004 74.3089 31.1133C74.5532 30.6847 74.6132 30.1832 74.4803 29.7118C74.3732 29.3261 74.1503 28.9918 73.8374 28.7475Z" fill="#F4F7FA"/>
<path d="M69.1234 34.8849C68.9648 34.7606 68.8105 34.6278 68.6605 34.4863C68.6134 34.4435 68.5662 34.3963 68.5234 34.3492C68.3005 34.122 68.0948 33.8778 67.9148 33.6206C67.9105 33.6163 67.9105 33.612 67.9062 33.612C67.8976 33.6035 67.8933 33.5906 67.8848 33.582C67.8719 33.5606 67.859 33.5435 67.8462 33.522C67.8119 33.4706 67.8162 33.402 67.8505 33.3549C67.8591 33.342 67.8719 33.3335 67.8848 33.3249C67.9491 33.282 68.0348 33.2992 68.0819 33.3635C68.3048 33.6935 68.5662 34.002 68.8576 34.2806C70.3063 35.6607 72.2992 36.1192 74.1121 35.6735C75.1192 35.4249 76.0707 34.8978 76.8379 34.092C76.9707 33.9506 77.0993 33.8049 77.2193 33.6506C78.0165 32.6306 78.4322 31.3748 78.3979 30.0634C78.3636 28.5548 77.7422 27.1533 76.6536 26.1118C74.3992 23.9604 70.8248 24.0461 68.6734 26.2961C68.5405 26.4333 68.4162 26.579 68.3005 26.729C67.7948 27.3804 67.4348 28.1348 67.2505 28.9448C67.2462 28.9662 67.2376 28.9833 67.2247 29.0005C67.1905 29.0433 67.139 29.0648 67.0833 29.0519C67.0062 29.0348 66.959 28.9576 66.9762 28.8848C67.169 28.0362 67.5419 27.2433 68.0776 26.5619C68.2019 26.4033 68.3305 26.2533 68.4719 26.1076C70.7263 23.7461 74.4849 23.6561 76.8507 25.9104C77.995 27.0033 78.6465 28.4776 78.685 30.0591C78.7193 31.4348 78.2822 32.7549 77.4464 33.8263C77.3222 33.9849 77.1893 34.1392 77.0479 34.2892C75.955 35.4335 74.4807 36.085 72.8992 36.1235C71.5106 36.1535 70.1948 35.7207 69.1234 34.8849Z" fill="#F4F7FA"/>
<g opacity="0.3">
<path d="M45.6364 23.2914C45.5636 23.2356 45.5336 23.1328 45.5679 23.0385C45.6364 22.8671 45.7093 22.6956 45.7864 22.5285C45.8379 22.4213 45.9664 22.3742 46.0736 22.4213C46.1807 22.4728 46.2279 22.6013 46.1807 22.7085C46.1079 22.8671 46.035 23.0299 45.9707 23.1928C45.9279 23.3042 45.7993 23.3599 45.6879 23.3171C45.6707 23.3128 45.6536 23.3042 45.6364 23.2914Z" fill="#BDD0FB"/>
<path d="M46.3908 21.7999C46.3051 21.7313 46.2793 21.607 46.3393 21.5127C46.5065 21.2427 46.6908 20.9813 46.8879 20.7284C46.9308 20.677 46.9694 20.6213 47.0122 20.5698C47.0894 20.4756 47.2265 20.4713 47.3165 20.5398C47.4108 20.617 47.4237 20.7541 47.3465 20.8441C47.3079 20.8956 47.2651 20.9427 47.2265 20.9941C47.0422 21.2341 46.8665 21.4827 46.7036 21.7399C46.6393 21.8427 46.5065 21.8727 46.4036 21.8084C46.4036 21.8084 46.3951 21.8042 46.3908 21.7999ZM47.8094 20.0513C47.8008 20.047 47.7922 20.0384 47.7879 20.0298C47.7065 19.9441 47.7065 19.807 47.7922 19.7212C48.0708 19.4555 48.3665 19.2027 48.6708 18.9712C48.7651 18.8984 48.9023 18.9198 48.9751 19.0141C49.048 19.1084 49.0266 19.2455 48.9323 19.3184C48.6408 19.537 48.358 19.777 48.0922 20.0341C48.0151 20.1113 47.8951 20.1155 47.8094 20.0513ZM49.6137 18.7012C49.5923 18.6841 49.5751 18.6627 49.558 18.6369C49.498 18.5341 49.5366 18.4012 49.6394 18.3412C49.9737 18.1526 50.3209 17.9769 50.6766 17.8312C50.788 17.7841 50.9123 17.8355 50.9595 17.9469C51.0066 18.0583 50.9552 18.1826 50.8437 18.2298C50.5052 18.3712 50.1709 18.5341 49.8537 18.7141C49.7766 18.7612 49.6823 18.7527 49.6137 18.7012ZM51.6923 17.8312C51.6581 17.8055 51.628 17.7669 51.6152 17.7198C51.5852 17.6041 51.6495 17.484 51.7652 17.454C52.1338 17.3512 52.5152 17.2698 52.8967 17.214C53.0167 17.1969 53.1238 17.2783 53.1452 17.3983C53.1624 17.5183 53.0809 17.6255 52.9609 17.6469C52.6009 17.7026 52.2366 17.7798 51.8852 17.8783C51.8166 17.8912 51.7438 17.8741 51.6923 17.8312ZM53.921 17.5012C53.8695 17.4626 53.8395 17.4026 53.8353 17.334C53.831 17.214 53.9252 17.1155 54.0453 17.1112C54.431 17.1026 54.8167 17.1155 55.1981 17.154C55.3181 17.1669 55.4039 17.2698 55.3953 17.3898C55.3867 17.5098 55.2796 17.5955 55.1596 17.5869C54.7953 17.5526 54.4267 17.5398 54.0581 17.5483C54.0067 17.5483 53.9595 17.5312 53.921 17.5012ZM56.1625 17.7155C56.0982 17.6641 56.0639 17.5826 56.0853 17.4969C56.111 17.3812 56.2267 17.3083 56.3425 17.334C56.7153 17.4198 57.0925 17.5269 57.4525 17.6555C57.5639 17.6983 57.6239 17.8183 57.5853 17.9341C57.5468 18.0455 57.4225 18.1055 57.3068 18.0669C56.9639 17.9426 56.6082 17.8398 56.2482 17.7626C56.2182 17.7498 56.1882 17.7369 56.1625 17.7155ZM58.2839 18.4784C58.2025 18.4141 58.1768 18.3026 58.2239 18.2084C58.2796 18.1012 58.4082 18.0583 58.5154 18.1141C58.8582 18.2855 59.1925 18.4826 59.514 18.6969C59.6125 18.7655 59.6383 18.8984 59.574 18.9969C59.5054 19.0955 59.3725 19.1212 59.274 19.0569C58.9697 18.8512 58.6482 18.6627 58.3225 18.4998C58.3054 18.4912 58.2925 18.4826 58.2839 18.4784ZM60.9583 20.5227C60.9497 20.5141 60.9369 20.5056 60.9283 20.497C60.7183 20.2613 60.4868 20.0341 60.2511 19.8198C60.2168 19.7855 60.1783 19.7555 60.144 19.7255C60.054 19.6484 60.0454 19.5112 60.1226 19.4212C60.1997 19.3312 60.3411 19.3184 60.4268 19.3998C60.4654 19.4341 60.504 19.4684 60.5426 19.5027C60.7911 19.7255 61.0311 19.9655 61.254 20.2098C61.3354 20.2998 61.3269 20.437 61.2369 20.5141C61.1554 20.5827 61.0397 20.587 60.9583 20.5227Z" fill="#8A50A0"/>
</g>
<g opacity="0.3">
<path d="M48.6364 33.9547C48.5421 33.8818 48.525 33.7489 48.5978 33.6504C48.6707 33.5561 48.8078 33.5347 48.9021 33.6075C49.1893 33.8261 49.4936 34.0275 49.8021 34.2075C49.905 34.2675 49.9393 34.4004 49.8793 34.5032C49.8193 34.6061 49.6864 34.6404 49.5836 34.5804C49.2578 34.3961 48.9407 34.1861 48.6364 33.9547ZM47.7921 33.2346C47.7878 33.2304 47.7792 33.2261 47.775 33.2175C47.5049 32.9561 47.2435 32.6732 47.0078 32.3818C46.9306 32.2875 46.9478 32.1503 47.0378 32.0775C47.1321 32.0003 47.2692 32.0175 47.3421 32.1075C47.5692 32.3861 47.8178 32.6561 48.075 32.9046C48.1607 32.9861 48.165 33.1232 48.0792 33.2132C48.0021 33.2946 47.8778 33.2989 47.7921 33.2346ZM50.5522 35.069C50.475 35.009 50.445 34.9061 50.4879 34.8118C50.535 34.7004 50.6636 34.649 50.7707 34.6961C51.1008 34.8375 51.4479 34.9618 51.7908 35.0604C51.9065 35.0947 51.9708 35.2147 51.9365 35.3304C51.9022 35.4461 51.7822 35.5104 51.6665 35.4761C51.3065 35.369 50.9465 35.2404 50.595 35.0947C50.5822 35.0904 50.565 35.0818 50.5522 35.069ZM46.3949 31.5117C46.3735 31.4946 46.3563 31.4775 46.3435 31.456C46.1421 31.1346 45.9578 30.8003 45.7992 30.4574C45.7478 30.3503 45.7949 30.2217 45.902 30.1703C46.0092 30.1189 46.1378 30.166 46.1892 30.2731C46.3435 30.5989 46.5149 30.9203 46.7078 31.2246C46.7721 31.3275 46.7421 31.4603 46.6392 31.5246C46.5664 31.5717 46.4635 31.5675 46.3949 31.5117ZM52.6779 35.6861C52.6179 35.639 52.5836 35.5619 52.5965 35.4804C52.6137 35.3604 52.7294 35.2833 52.8451 35.3004C53.2008 35.3604 53.5651 35.3947 53.9251 35.4076C54.0451 35.4118 54.1394 35.5147 54.1351 35.6347C54.1308 35.7547 54.028 35.849 53.908 35.8447C53.5308 35.8276 53.1494 35.789 52.7765 35.729C52.7379 35.7247 52.7079 35.7076 52.6779 35.6861ZM54.8937 35.7761C54.8466 35.7419 54.8166 35.6861 54.8123 35.6218C54.8037 35.5018 54.8937 35.399 55.0094 35.3861C55.3694 35.3561 55.7294 35.3047 56.0809 35.2361C56.1966 35.2104 56.3123 35.2876 56.338 35.4076C56.3637 35.5233 56.2866 35.639 56.1709 35.6647C55.8023 35.7419 55.4209 35.7933 55.0437 35.8233C54.988 35.8276 54.9323 35.8104 54.8937 35.7761ZM57.0623 35.3347C57.028 35.309 57.0023 35.2747 56.9895 35.2318C56.9509 35.1161 57.0109 34.9961 57.1266 34.9575C57.4695 34.8418 57.8081 34.709 58.1338 34.5504C58.2409 34.499 58.3695 34.5461 58.4209 34.6533C58.4724 34.7604 58.4252 34.889 58.3181 34.9404C57.9795 35.1033 57.6238 35.2447 57.2638 35.3647C57.1952 35.3904 57.1181 35.3776 57.0623 35.3347Z" fill="#BDD0FB"/>
<path d="M45.452 29.493C45.4177 29.4673 45.392 29.433 45.3791 29.3901C45.3234 29.2144 45.2677 29.0344 45.2248 28.8587C45.1948 28.743 45.2634 28.623 45.3791 28.593C45.4948 28.563 45.6148 28.6316 45.6448 28.7473C45.6877 28.9144 45.7391 29.0858 45.7948 29.253C45.8334 29.3687 45.7691 29.4887 45.6577 29.5273C45.5805 29.553 45.5077 29.5359 45.452 29.493Z" fill="#BDD0FB"/>
</g>
<path d="M47.3159 27.393C47.3159 27.4401 47.3459 27.483 47.3931 27.4958L48.6659 27.903C48.8245 28.5073 49.0774 29.0902 49.4288 29.6302L48.8717 30.8431C48.8502 30.8859 48.8631 30.9373 48.8974 30.9673L50.0588 32.0731C50.0931 32.1074 50.1446 32.1117 50.1831 32.0902L51.3703 31.4774C51.9232 31.8031 52.5189 32.0302 53.1318 32.1588L53.5989 33.4146C53.6161 33.4574 53.6589 33.4874 53.7061 33.4874L55.309 33.4488C55.3561 33.4488 55.399 33.4188 55.4118 33.3717L55.819 32.0988C56.4233 31.9402 57.0062 31.6874 57.5462 31.3359L58.7591 31.8931C58.8019 31.9145 58.8534 31.9017 58.8834 31.8674L59.9891 30.7059C60.0234 30.6716 60.0277 30.6202 60.0062 30.5816L59.3934 29.3944C59.7191 28.8416 59.9462 28.2458 60.0748 27.633L61.3306 27.1658C61.3734 27.1487 61.4034 27.1058 61.4034 27.0587L61.3648 25.4558C61.3648 25.4086 61.3348 25.3658 61.2877 25.3529L60.0148 24.9458C59.8562 24.3415 59.6034 23.7586 59.2519 23.2186L59.8091 22.0057C59.8305 21.9628 59.8177 21.9114 59.7834 21.8814L58.6219 20.7757C58.5876 20.7414 58.5362 20.7371 58.4976 20.7585L57.3105 21.3714C56.7576 21.0457 56.1619 20.8185 55.549 20.6899L55.0818 19.4342C55.0647 19.3913 55.0218 19.3613 54.9747 19.3613L53.3718 19.3999C53.3246 19.3999 53.2818 19.4299 53.2689 19.477L52.8618 20.7499C52.2575 20.9085 51.6746 21.1614 51.1346 21.5128L49.9217 20.9557C49.8788 20.9342 49.8274 20.9471 49.7974 20.9814L48.6917 22.1428C48.6574 22.1771 48.6531 22.2285 48.6745 22.2671L49.2874 23.4543C48.9617 24.0072 48.7345 24.6029 48.6059 25.2158L47.3502 25.6829C47.3073 25.7001 47.2773 25.7429 47.2773 25.7901L47.3159 27.393Z" fill="#8A50A0"/>
<path d="M53.3293 27.7186C53.055 27.5043 52.8536 27.2086 52.7593 26.8657C52.6436 26.4414 52.695 26 52.9136 25.6185C53.3593 24.83 54.3622 24.5514 55.1508 24.9971C55.9394 25.4428 56.218 26.4457 55.7722 27.2343C55.5579 27.6157 55.2065 27.89 54.7822 28.0057C54.3579 28.1215 53.9165 28.07 53.535 27.8515C53.4579 27.8129 53.3893 27.77 53.3293 27.7186ZM55.0822 25.4728C55.0351 25.4385 54.9879 25.4043 54.9365 25.3742C54.3579 25.0485 53.6208 25.25 53.2907 25.8328C53.1322 26.1114 53.0936 26.4371 53.1793 26.75C53.265 27.0629 53.4665 27.32 53.7493 27.4786C54.0279 27.6372 54.3579 27.6757 54.6665 27.59C54.9794 27.5043 55.2365 27.3029 55.3951 27.02C55.6865 26.4929 55.5451 25.8371 55.0822 25.4728Z" fill="#F4F7FA"/>
<path d="M51.8633 29.6515C51.7561 29.5658 51.649 29.4758 51.5504 29.3815C51.349 29.1887 51.169 28.9787 51.0104 28.7472C51.0018 28.7387 50.9975 28.7258 50.989 28.7172C50.9333 28.6358 50.9418 28.5329 50.9975 28.4644C51.0104 28.4472 51.0275 28.4301 51.049 28.4172C51.1475 28.3487 51.2847 28.3744 51.349 28.4729C51.4947 28.6872 51.6618 28.8887 51.8504 29.0644C51.859 29.073 51.8718 29.0858 51.8804 29.0944C52.3304 29.5144 52.8662 29.8058 53.449 29.9601C53.7662 30.0416 54.0919 30.0801 54.4262 30.0758C54.4305 30.0758 54.4305 30.0758 54.4348 30.0758C54.4433 30.0758 54.4519 30.0758 54.4605 30.0758C55.4377 30.0544 56.3462 29.6515 57.0191 28.9444C57.1048 28.8544 57.1863 28.7601 57.2634 28.6615C57.7777 28.0015 58.0477 27.1872 58.0263 26.3386C58.0049 25.3614 57.602 24.4528 56.8948 23.78C56.1877 23.1071 55.2619 22.7471 54.2891 22.7685C53.3119 22.7899 52.4033 23.1928 51.7304 23.9C51.6447 23.99 51.5633 24.0843 51.4861 24.1828C51.1561 24.6071 50.9247 25.0957 50.809 25.6143C50.8004 25.6486 50.7875 25.6743 50.7704 25.7C50.719 25.7643 50.6375 25.7986 50.5518 25.7772C50.4361 25.7514 50.3632 25.6357 50.389 25.5157C50.5218 24.9329 50.779 24.3843 51.1475 23.9128C51.2333 23.8057 51.3233 23.6985 51.4175 23.6C52.1719 22.8114 53.1876 22.3614 54.2805 22.3356C55.3734 22.3099 56.4063 22.7085 57.1991 23.4671C57.9877 24.2214 58.4377 25.2371 58.4634 26.33C58.4849 27.2815 58.1849 28.1901 57.6106 28.9272C57.5249 29.0387 57.4348 29.1415 57.3363 29.2444C55.8705 30.7744 53.4962 30.9244 51.8633 29.6515Z" fill="#F4F7FA"/>
<path d="M9.12996 93.3389C9.12996 94.359 9.9657 95.1904 10.9814 95.1904H111.205C112.225 95.1904 113.057 94.359 113.057 93.3389L113.893 35.746C113.893 34.726 112.693 32.7417 110.494 32.8874L12.5458 30.3545C11.2686 30.3202 10.03 30.813 9.12568 31.7173C8.22137 32.6217 7.72421 33.856 7.75421 35.1332L9.12996 93.3389Z" fill="#252334"/>
<path d="M10.9602 91.5645C10.9602 92.5288 11.7488 93.3174 12.7131 93.3174H108.788C109.753 93.3174 110.541 92.5288 110.541 91.5645L111.33 39.2774C111.236 36.1316 108.48 35.0002 106.808 35.0688L12.936 32.5487C12.036 32.523 11.1702 32.8701 10.5316 33.5044C9.89734 34.1387 9.5459 35.0088 9.56733 35.9045L10.9602 91.5645Z" fill="#F0E1F2"/>
<path d="M109.505 66.7027C109.373 66.7027 109.265 66.5913 109.27 66.4627L109.334 62.224C109.334 62.0911 109.445 61.9969 109.574 61.9883C109.707 61.9883 109.81 62.0997 109.81 62.2283L109.745 66.467C109.741 66.5998 109.634 66.7027 109.505 66.7027Z" fill="#8A50A0"/>
<path d="M109.659 56.3137C109.655 56.3137 109.655 56.3137 109.659 56.3137C109.526 56.3137 109.419 56.2023 109.424 56.0737L109.664 39.8347C109.659 38.8662 109.364 38.0904 108.789 37.5375C107.713 36.5089 106.008 36.5604 105.935 36.5647L75.9298 35.7589C75.797 35.7546 75.6941 35.6475 75.6984 35.5146C75.7027 35.3861 75.8055 35.2832 75.9341 35.2832C75.9384 35.2832 75.9384 35.2832 75.9427 35.2832L105.931 36.0889C106.115 36.0804 107.919 36.0461 109.115 37.1947C109.788 37.8418 110.131 38.729 110.139 39.839L109.899 56.0823C109.895 56.2109 109.788 56.3137 109.659 56.3137Z" fill="#8A50A0"/>
<path d="M1.11143 99.9735H119.044C119.104 99.9735 119.156 99.9221 119.156 99.8621V95.0277C119.156 94.9677 119.104 94.9163 119.044 94.9163H1.11143C1.05143 94.9163 1 94.9677 1 95.0277V99.8578C1 99.9221 1.05143 99.9735 1.11143 99.9735Z" fill="#252334"/>
<path d="M96.4842 86.9445H21.988C19.4936 86.9445 17.4707 84.9216 17.4707 82.4272V46.2463C17.4707 43.722 19.5365 41.6905 22.0608 41.7333L96.557 42.9419C99.0214 42.9805 100.997 44.9906 100.997 47.4549V82.4272C101.001 84.9259 98.9785 86.9445 96.4842 86.9445Z" fill="#8A50A0"/>
<path d="M58.9013 79.1616C50.1197 79.1616 42.9795 72.0171 42.9795 63.2397C42.9795 54.4623 50.124 47.3179 58.9013 47.3179C67.683 47.3179 74.8232 54.4623 74.8232 63.2397C74.8232 72.0171 67.683 79.1616 58.9013 79.1616ZM58.9013 49.9794C51.594 49.9794 45.6453 55.9238 45.6453 63.2354C45.6453 70.547 51.5897 76.4915 58.9013 76.4915C66.2087 76.4915 72.1574 70.547 72.1574 63.2354C72.1574 55.9238 66.2129 49.9794 58.9013 49.9794Z" fill="#D5B8D8"/>
<path fill-rule="evenodd" clip-rule="evenodd" d="M53.9121 69.3686V57.9212C53.9121 56.6997 55.245 55.9411 56.295 56.5626L65.9424 62.2884C66.971 62.9013 66.971 64.3928 65.9424 65.0013L56.295 70.7272C55.245 71.3487 53.9121 70.5944 53.9121 69.3686Z" fill="white"/>
<path opacity="0.58" d="M97.062 87.3086H25.2315C24.4987 87.3086 23.9072 86.7471 23.9072 86.0571C23.9072 85.3671 24.503 84.8057 25.1715 84.8057H97.002C97.7949 84.8057 98.3906 85.3671 98.3906 86.0571C98.3906 86.7471 97.7949 87.3086 97.062 87.3086Z" fill="white"/>
<path d="M54.7995 87.3086H25.1587C24.4687 87.3086 23.9072 86.7471 23.9072 86.0571C23.9072 85.3671 24.4687 84.8057 25.1587 84.8057H54.7995C55.4895 84.8057 56.0509 85.3671 56.0509 86.0571C56.0509 86.7471 55.4895 87.3086 54.7995 87.3086Z" fill="#252334"/>
<path d="M54.8729 88.3203C56.2363 88.3203 57.3416 87.2151 57.3416 85.8517C57.3416 84.4883 56.2363 83.3831 54.8729 83.3831C53.5095 83.3831 52.4043 84.4883 52.4043 85.8517C52.4043 87.2151 53.5095 88.3203 54.8729 88.3203Z" fill="white"/>
<path d="M114.295 69.9084C114.295 69.9084 119.052 72.5441 119.447 77.0057C119.841 81.4672 119.481 99.9777 109.941 104.534C100.4 109.089 87.7743 108.039 82.9399 107.542C78.1055 107.045 75.4268 103.758 74.8268 101.499C74.2268 99.2363 73.2625 90.8103 78.3455 88.0931C83.4285 85.3759 88.7686 81.2101 94.1088 77.1557C99.4446 73.1056 108.591 66.484 114.295 69.9084Z" fill="#888A95"/>
<path d="M79.8461 89.6316C79.8461 89.6316 81.1319 89.7002 81.2862 92.3402C81.2862 92.3402 78.3075 95.0103 74.2874 95.6446C73.9874 95.6918 74.7074 93.5831 74.8189 93.296C75.3374 91.9374 76.9661 91.0631 79.8461 89.6316Z" fill="white"/>
<path d="M94.3068 86.5246H91.5981C91.5981 86.5246 83.2836 77.34 77.8278 76.4143C77.8278 76.4143 74.0305 81.2616 78.0292 90.3175C78.3506 91.0461 79.2507 91.3675 79.9235 90.939C80.125 90.8104 80.2664 90.639 80.3564 90.4247L80.035 82.693C80.035 82.693 87.128 88.8989 88.3623 90.0947C89.5924 91.2904 95.8582 90.5618 94.3068 86.5246Z" fill="#252334"/>
<path d="M68.1105 105.811C69.2463 104.816 71.0549 103.698 73.665 103.381L74.5479 103.921C74.5479 103.921 73.9864 104.752 72.9578 105.631C72.0106 106.179 70.5535 106.925 69.3406 107.084C68.162 107.238 67.9905 106.526 68.1105 105.811Z" fill="white"/>
<path d="M74.8192 93.3004C75.5177 93.5275 75.8263 94.5176 77.6007 93.8618C79.3193 93.2275 80.5964 92.4089 81.2522 91.9375C81.265 92.0661 81.2779 92.1989 81.2865 92.3404C81.2865 92.3404 78.1492 95.3276 74.1249 95.9619C73.8248 96.009 73.5848 95.709 73.692 95.4219C73.8891 94.9119 74.2406 94.1318 74.8192 93.3004Z" fill="#252334"/>
<path d="M67.254 106.659C67.4769 106.406 67.764 106.111 68.1112 105.811C67.9912 106.526 68.1669 107.238 69.3412 107.084C70.5498 106.921 72.0113 106.179 72.9584 105.631C71.7713 106.642 69.9712 107.714 67.6954 107.649C67.1854 107.632 66.9197 107.036 67.254 106.659Z" fill="#252334"/>
<path d="M94.2081 88.4875L81.5178 88.6247C81.5178 88.6247 74.2704 94.6206 72.959 103.762C72.959 103.762 72.7404 104.435 74.0519 104.551C74.0519 104.551 78.432 101.688 81.2906 96.6306C84.7921 90.429 91.7309 93.2191 91.7309 93.2191C94.0109 91.5733 97.2339 91.239 99.6597 90.6947L94.2081 88.4875Z" fill="#252334"/>
<path d="M93.9076 78.2656C93.9076 78.2656 92.5404 85.1101 85.8502 87.8187L83.4716 87.5402L82.9102 88.4359L88.4946 88.6159C88.4946 88.6159 93.269 86.7258 95.7976 81.5743C95.8748 81.3986 97.2677 78.5228 93.9076 78.2656Z" fill="white"/>
<path d="M93.1751 88.3759C93.1751 88.3759 94.7265 84.1543 95.0608 80.0528C95.0608 80.0528 93.9251 79.0756 93.2136 78.6556C92.9822 78.5185 92.8965 78.2313 93.0122 77.9913C93.5351 76.9113 96.6937 72.6598 96.9294 72.604C98.2152 72.2826 103.487 69.7754 107.203 74.8541C108.797 77.0356 106.885 83.7472 99.6552 90.6945L98.1638 90.9816L93.1751 88.3759Z" fill="#C3D7DB"/>
<path d="M99.1614 80.9744C99.1614 80.9744 94.8455 86.0831 89.3297 86.8331C89.3297 86.8331 87.9025 85.5345 86.8439 85.9974C85.7853 86.4602 84.3281 88.5088 84.3281 88.5088H91.4126C91.4126 88.5088 98.1113 88.2731 101.459 84.2102C101.189 82.7873 100.379 81.9387 99.1614 80.9744Z" fill="white"/>
<path d="M101.677 69.0127L102.62 72.1628C102.663 72.3085 102.612 72.4628 102.487 72.5485C102.033 72.8614 100.846 73.4785 99.213 72.8785C99.0287 72.8099 98.9002 72.6342 98.883 72.4371L98.6602 69.6941L101.677 69.0127Z" fill="white"/>
<path d="M96.1494 66.4625C96.1494 66.4625 96.6123 69.7283 97.868 70.7312C99.1238 71.7341 101.567 70.9798 102.39 68.5197L100.744 64.311L96.1494 66.4625Z" fill="white"/>
<path d="M100.933 67.0325C100.838 67.0625 100.735 67.0025 100.723 66.904C100.675 66.604 100.564 66.0082 100.337 65.6011C100.337 65.6011 100.457 65.1725 99.2525 65.8197C98.0525 66.4668 96.2439 67.4183 95.181 66.8525C94.1438 66.2997 93.0938 63.5224 95.8324 64.0367C95.9353 64.0582 96.0339 63.9725 96.0253 63.8696C95.991 63.4153 96.0382 62.361 97.1011 62.0267C98.0954 61.7095 97.5639 62.2238 97.7868 62.4938C97.8511 62.5753 97.7054 62.2238 99.1154 62.4296C99.5997 62.4981 100.221 61.2124 101.413 61.7353C102.394 62.1681 102.548 62.7724 102.531 63.1496C102.527 63.2696 102.651 63.3553 102.763 63.3039C103.063 63.1667 103.547 63.0939 104.01 63.6725C104.648 64.4739 103.736 65.1725 103.461 65.3525C103.418 65.3825 103.388 65.4339 103.388 65.4854C103.384 65.9011 103.32 67.7226 102.407 68.7512C102.33 68.8412 102.184 68.8154 102.137 68.704L101.434 67.0325C101.4 66.9554 101.314 66.9168 101.233 66.9425L100.933 67.0325Z" fill="#252334"/>
<path d="M100.915 67.3712C100.915 67.3712 101.344 65.6226 101.995 66.1926C102.647 66.7583 101.824 68.0098 101.078 68.2455L100.915 67.3712Z" fill="#252334"/>
<path d="M84.684 88.9029L81.5039 78.2955C81.3753 77.8626 80.9896 77.554 80.5396 77.524L76.2452 77.2283C75.808 77.1983 75.4823 77.6269 75.628 78.0383L79.1853 88.17C79.301 88.4957 79.5924 88.7272 79.9353 88.7615L84.1654 89.2329L84.684 88.9029Z" fill="#888A95"/>
<path d="M78.8172 81.8917C79.0529 82.3717 79.4644 82.6503 79.7344 82.5174C80.0044 82.3846 80.0258 81.8874 79.7901 81.4074C79.5543 80.9274 79.1429 80.6488 78.8729 80.7817C78.6029 80.9145 78.5815 81.4117 78.8172 81.8917Z" fill="#91B3FA"/>
<path d="M84.1614 89.2329C84.1699 89.2329 84.1742 89.2329 84.1828 89.2329L93.1959 88.7786C93.4187 88.7657 93.5902 88.5771 93.5773 88.3543C93.5645 88.1314 93.3759 87.9557 93.153 87.9728L84.1399 88.4271C83.9171 88.44 83.7456 88.6286 83.7585 88.8514C83.7713 89.0657 83.9513 89.2329 84.1614 89.2329Z" fill="#888A95"/>
<path d="M95.0608 80.1215C95.0994 80.1215 95.1337 80.0915 95.1337 80.0486C95.1294 78.1672 95.8537 75.6685 95.8623 75.6428C95.8751 75.6042 95.8537 75.5657 95.8151 75.5528C95.7766 75.54 95.738 75.5614 95.7251 75.6C95.7166 75.6257 94.9837 78.1457 94.9923 80.0486C94.9923 80.0872 95.0223 80.1215 95.0608 80.1215Z" fill="#85BBCA"/>
<path d="M99.1627 81.0473C99.1842 81.0473 99.2056 81.0387 99.2185 81.0216C99.2399 80.9959 101.211 78.493 101.889 76.7743C101.901 76.7358 101.884 76.6972 101.85 76.68C101.811 76.6672 101.773 76.6843 101.756 76.7186C101.087 78.4158 99.1285 80.9059 99.107 80.9316C99.0813 80.9616 99.0899 81.0087 99.1199 81.0302C99.1284 81.0387 99.1456 81.0473 99.1627 81.0473Z" fill="#85BBCA"/>
<path d="M101.935 84.8745L101.986 84.8531C104.836 83.6316 106.598 80.2287 106.615 80.1944C106.632 80.1601 106.619 80.1172 106.585 80.1001C106.55 80.0829 106.508 80.0958 106.49 80.1301C106.473 80.1644 104.759 83.4816 101.986 84.6988L101.69 84.2831C101.669 84.2488 101.622 84.2445 101.592 84.2659C101.557 84.2873 101.553 84.3345 101.575 84.3645L101.935 84.8745Z" fill="#85BBCA"/>
</svg>
