<svg width="40" height="40" viewBox="0 0 40 40" fill="none" xmlns="http://www.w3.org/2000/svg">
<path d="M15.0002 1.66675V5.00008H25.0002V1.66675H28.3335V5.00008H35.0002C35.4422 5.00008 35.8661 5.17568 36.1787 5.48824C36.4912 5.8008 36.6668 6.22472 36.6668 6.66675V33.3334C36.6668 33.7754 36.4912 34.1994 36.1787 34.5119C35.8661 34.8245 35.4422 35.0001 35.0002 35.0001H5.00016C4.55814 35.0001 4.13421 34.8245 3.82165 34.5119C3.50909 34.1994 3.3335 33.7754 3.3335 33.3334V6.66675C3.3335 6.22472 3.50909 5.8008 3.82165 5.48824C4.13421 5.17568 4.55814 5.00008 5.00016 5.00008H11.6668V1.66675H15.0002ZM33.3335 13.3334H6.66683V31.6667H33.3335V13.3334ZM25.0602 16.8934L27.4168 19.2501L19.1668 27.5001L13.2735 21.6067L15.6335 19.2501L19.1685 22.7867L25.0618 16.8934H25.0602Z" fill="#523DAD"/>
</svg>
