<svg width="48" height="48" viewBox="0 0 48 48" fill="none" xmlns="http://www.w3.org/2000/svg">
<g clip-path="url(#clip0_4116_402)">
<path d="M5.40938 18.0938L6.29062 19.6312C7.06875 20.9906 8.34375 21.9937 9.85312 22.425L15.2812 23.9719C16.8938 24.4312 18 25.9031 18 27.5813V31.3219C18 32.3531 18.5812 33.2906 19.5 33.75C20.4188 34.2094 21 35.1469 21 36.1781V39.8344C21 41.2969 22.3969 42.3563 23.8031 41.9531C25.3125 41.5219 26.4844 40.3125 26.8688 38.7844L27.1312 37.7344C27.525 36.15 28.5563 34.7906 29.9719 33.9844L30.7312 33.5531C32.1375 32.7562 33 31.2563 33 29.6438V28.8656C33 27.675 32.5219 26.5312 31.6781 25.6875L31.3125 25.3219C30.4688 24.4781 29.325 24 28.1344 24H24.0938C23.0531 24 22.0219 23.7281 21.1125 23.2125L17.8781 21.3656C17.475 21.1312 17.1656 20.7562 17.0156 20.3156C16.7156 19.4156 17.1187 18.4406 17.9719 18.0187L18.525 17.7375C19.1438 17.4281 19.8656 17.3719 20.5219 17.5969L22.6969 18.3187C23.4656 18.5719 24.3094 18.2812 24.75 17.6156C25.1906 16.9594 25.1437 16.0875 24.6375 15.4781L23.3625 13.95C22.425 12.825 22.4344 11.1844 23.3906 10.0781L24.8625 8.3625C25.6875 7.39687 25.8188 6.01875 25.1906 4.92188L24.9656 4.52812C24.6375 4.50937 24.3187 4.5 23.9906 4.5C15.2906 4.5 7.9125 10.2094 5.40938 18.0938ZM43.5 24C43.5 20.55 42.6 17.3063 41.025 14.4844L38.625 15.45C37.1531 16.0406 36.3937 17.6813 36.8906 19.1813L38.475 23.9344C38.8031 24.9094 39.6 25.65 40.5938 25.8938L43.3219 26.5781C43.4344 25.7344 43.4906 24.8719 43.4906 24H43.5ZM0 24C0 17.6348 2.52856 11.5303 7.02944 7.02944C11.5303 2.52856 17.6348 0 24 0C30.3652 0 36.4697 2.52856 40.9706 7.02944C45.4714 11.5303 48 17.6348 48 24C48 30.3652 45.4714 36.4697 40.9706 40.9706C36.4697 45.4714 30.3652 48 24 48C17.6348 48 11.5303 45.4714 7.02944 40.9706C2.52856 36.4697 0 30.3652 0 24Z" fill="#8A50A0"/>
</g>
<defs>
<clipPath id="clip0_4116_402">
<rect width="48" height="48" fill="white"/>
</clipPath>
</defs>
</svg>
