<svg width="48" height="48" viewBox="0 0 48 48" fill="none" xmlns="http://www.w3.org/2000/svg">
<g clip-path="url(#clip0_4116_390)">
<path d="M20.1937 9H13.5H10.1063H9V9.825V13.5V17.2875V25.6312L0.01875 18.9844C0.16875 17.2875 1.04062 15.7125 2.42812 14.6906L4.5 13.1531V9C4.5 6.51562 6.51562 4.5 9 4.5H16.1813L20.8594 1.04063C21.7687 0.365625 22.8656 0 24 0C25.1344 0 26.2313 0.365625 27.1406 1.03125L31.8187 4.5H39C41.4844 4.5 43.5 6.51562 43.5 9V13.1531L45.5719 14.6906C46.9594 15.7125 47.8312 17.2875 47.9812 18.9844L39 25.6312V17.2875V13.5V9.825V9H37.8938H34.5H27.8063H20.1937ZM0 42V22.6969L20.4 37.8094C21.4406 38.5781 22.7062 39 24 39C25.2938 39 26.5594 38.5875 27.6 37.8094L48 22.6969V42C48 45.3094 45.3094 48 42 48H6C2.69063 48 0 45.3094 0 42ZM16.5 15H31.5C32.325 15 33 15.675 33 16.5C33 17.325 32.325 18 31.5 18H16.5C15.675 18 15 17.325 15 16.5C15 15.675 15.675 15 16.5 15ZM16.5 21H31.5C32.325 21 33 21.675 33 22.5C33 23.325 32.325 24 31.5 24H16.5C15.675 24 15 23.325 15 22.5C15 21.675 15.675 21 16.5 21Z" fill="#8A50A0"/>
</g>
<defs>
<clipPath id="clip0_4116_390">
<rect width="48" height="48" fill="white"/>
</clipPath>
</defs>
</svg>
