<svg width="40" height="40" viewBox="0 0 40 40" fill="none" xmlns="http://www.w3.org/2000/svg">
<g clip-path="url(#clip0_1423_2403)">
<path d="M31.6669 28.3333V31.6666H11.6669V28.3333C11.6669 28.3333 11.6669 21.6666 21.6669 21.6666C31.6669 21.6666 31.6669 28.3333 31.6669 28.3333ZM26.6669 13.3333C26.6669 12.3443 26.3737 11.3776 25.8243 10.5554C25.2749 9.73316 24.494 9.09229 23.5803 8.71386C22.6667 8.33542 21.6614 8.2364 20.6915 8.42933C19.7216 8.62225 18.8306 9.09846 18.1314 9.79772C17.4321 10.497 16.9559 11.3879 16.763 12.3578C16.5701 13.3277 16.6691 14.333 17.0475 15.2467C17.426 16.1603 18.0668 16.9412 18.8891 17.4906C19.7113 18.04 20.678 18.3333 21.6669 18.3333C22.993 18.3333 24.2648 17.8065 25.2024 16.8688C26.1401 15.9311 26.6669 14.6593 26.6669 13.3333ZM32.0002 21.7666C32.9113 22.6071 33.6458 23.6207 34.1609 24.7481C34.676 25.8756 34.9613 27.0943 35.0002 28.3333V31.6666H40.0002V28.3333C40.0002 28.3333 40.0002 22.5833 32.0002 21.7666ZM30.0002 8.33325C29.4967 8.33356 28.9962 8.41228 28.5169 8.56659C29.492 9.96487 30.0148 11.6286 30.0148 13.3333C30.0148 15.0379 29.492 16.7016 28.5169 18.0999C28.9962 18.2542 29.4967 18.333 30.0002 18.3333C31.3263 18.3333 32.5981 17.8065 33.5358 16.8688C34.4735 15.9311 35.0002 14.6593 35.0002 13.3333C35.0002 12.0072 34.4735 10.7354 33.5358 9.79772C32.5981 8.86004 31.3263 8.33325 30.0002 8.33325ZM13.3336 16.6666H8.33358V11.6666H5.00024V16.6666H0.000244141V19.9999H5.00024V24.9999H8.33358V19.9999H13.3336V16.6666Z" fill="#523DAD"/>
</g>
<defs>
<clipPath id="clip0_1423_2403">
<rect width="40" height="40" fill="white" transform="translate(0.000244141)"/>
</clipPath>
</defs>
</svg>
