<svg width="48" height="40" viewBox="0 0 48 40" fill="none" xmlns="http://www.w3.org/2000/svg">
<path d="M10.8 0.800049C12.3913 0.800049 13.9174 1.43219 15.0426 2.55741C16.1679 3.68263 16.8 5.20875 16.8 6.80005C16.8 8.39135 16.1679 9.91747 15.0426 11.0427C13.9174 12.1679 12.3913 12.8 10.8 12.8C9.2087 12.8 7.68258 12.1679 6.55736 11.0427C5.43214 9.91747 4.8 8.39135 4.8 6.80005C4.8 5.20875 5.43214 3.68263 6.55736 2.55741C7.68258 1.43219 9.2087 0.800049 10.8 0.800049ZM38.4 0.800049C39.9913 0.800049 41.5174 1.43219 42.6426 2.55741C43.7679 3.68263 44.4 5.20875 44.4 6.80005C44.4 8.39135 43.7679 9.91747 42.6426 11.0427C41.5174 12.1679 39.9913 12.8 38.4 12.8C36.8087 12.8 35.2826 12.1679 34.1574 11.0427C33.0321 9.91747 32.4 8.39135 32.4 6.80005C32.4 5.20875 33.0321 3.68263 34.1574 2.55741C35.2826 1.43219 36.8087 0.800049 38.4 0.800049ZM0 23.2026C0 18.7851 3.585 15.2 8.0025 15.2H11.205C12.3975 15.2 13.53 15.4625 14.55 15.9275C14.4525 16.4675 14.4075 17.03 14.4075 17.6C14.4075 20.465 15.6675 23.0375 17.655 24.8C17.64 24.8 17.625 24.8 17.6025 24.8H1.5975C0.72 24.8 0 24.0801 0 23.2026ZM30.3975 24.8C30.3825 24.8 30.3675 24.8 30.345 24.8C32.34 23.0375 33.5925 20.465 33.5925 17.6C33.5925 17.03 33.54 16.475 33.45 15.9275C34.47 15.455 35.6025 15.2 36.795 15.2H39.9975C44.415 15.2 48 18.7851 48 23.2026C48 24.0876 47.28 24.8 46.4025 24.8H30.3975ZM16.8 17.6C16.8 15.6905 17.5586 13.8591 18.9088 12.5089C20.2591 11.1586 22.0904 10.4 24 10.4C25.9096 10.4 27.7409 11.1586 29.0912 12.5089C30.4414 13.8591 31.2 15.6905 31.2 17.6C31.2 19.5096 30.4414 21.341 29.0912 22.6912C27.7409 24.0415 25.9096 24.8 24 24.8C22.0904 24.8 20.2591 24.0415 18.9088 22.6912C17.5586 21.341 16.8 19.5096 16.8 17.6ZM9.6 37.1975C9.6 31.6775 14.0775 27.2 19.5975 27.2H28.4025C33.9225 27.2 38.4 31.6775 38.4 37.1975C38.4 38.3 37.5075 39.2001 36.3975 39.2001H11.6025C10.5 39.2001 9.6 38.3075 9.6 37.1975Z" fill="#8A50A0"/>
</svg>
