<svg width="40" height="40" viewBox="0 0 40 40" fill="none" xmlns="http://www.w3.org/2000/svg">
<path d="M35.572 12.3083C35.3869 11.6193 35.0242 10.9909 34.52 10.4861C34.0159 9.98133 33.388 9.6178 32.6992 9.43192C30.1637 8.75 20.0002 8.75 20.0002 8.75C20.0002 8.75 9.83674 8.75 7.3013 9.42829C6.6122 9.61357 5.98398 9.97689 5.47973 10.4818C4.97548 10.9867 4.61294 11.6154 4.42854 12.3047C3.75024 14.8438 3.75024 20.1395 3.75024 20.1395C3.75024 20.1395 3.75024 25.4353 4.42854 27.9707C4.80214 29.3708 5.90482 30.4735 7.3013 30.8471C9.83674 31.529 20.0002 31.529 20.0002 31.529C20.0002 31.529 30.1637 31.529 32.6992 30.8471C34.0993 30.4735 35.1983 29.3708 35.572 27.9707C36.2502 25.4353 36.2502 20.1395 36.2502 20.1395C36.2502 20.1395 36.2502 14.8438 35.572 12.3083ZM16.772 25V15.279L25.1872 20.1032L16.772 25Z" fill="#523DAD"/>
</svg>
