<svg width="230" height="200" viewBox="0 0 230 200" fill="none" xmlns="http://www.w3.org/2000/svg">
<path d="M230 96.4283C230 41.9089 195.071 2.89392 147.596 2.02896C78.0055 0.76106 77.7543 41.4041 47.8584 69.421C6.20766 108.454 28.0107 198.147 129.005 198.147C230 198.147 230 139.842 230 96.4283Z" fill="#D5B8D8"/>
<path d="M90.8835 60.4683L112.036 67.8984C113.174 68.2775 113.856 69.4148 113.629 70.6279C113.401 71.7651 112.416 72.6749 111.278 72.6749L88.8364 72.9024L90.8835 60.4683Z" fill="white"/>
<path fill-rule="evenodd" clip-rule="evenodd" d="M112.036 67.8984L90.8835 60.4683L88.8364 72.9024L111.278 72.6749C112.416 72.6749 113.401 71.7651 113.629 70.6279C113.856 69.4148 113.174 68.2775 112.036 67.8984ZM112.651 70.4385C112.784 69.7166 112.385 69.0641 111.722 68.843L111.714 68.8405L91.6732 61.8009L90.0114 71.8948L111.278 71.6792C111.875 71.6792 112.501 71.1736 112.651 70.4385Z" fill="#252334"/>
<path d="M10.0576 33.0979L90.1204 58.2694C90.9544 58.4969 91.4851 59.3309 91.4093 60.2407L89.7414 73.0539C89.5897 73.9637 88.8315 74.6461 87.9217 74.6461L3.46155 72.2957L10.0576 33.0979Z" fill="white"/>
<path fill-rule="evenodd" clip-rule="evenodd" d="M9.26548 31.8052L90.4029 57.3146C91.7448 57.6916 92.5115 59.004 92.4015 60.3234L92.3996 60.3464L90.7264 73.2001L90.7235 73.2177C90.4976 74.5726 89.3529 75.6418 87.9217 75.6418H87.9079L2.28973 73.2592L9.26548 31.8052ZM90.1204 58.2695L10.0576 33.0979L3.46153 72.2958L87.9217 74.6461C88.8315 74.6461 89.5897 73.9638 89.7413 73.054L91.4093 60.2407C91.4851 59.3309 90.9544 58.4969 90.1204 58.2695Z" fill="#252334"/>
<path d="M5.58806 76.2383C9.15146 76.6932 12.4116 74.267 12.8665 70.7794L17.8704 35.2208C18.4011 31.7331 15.8992 28.473 12.3358 27.9423C8.77238 27.4873 5.51225 29.9135 5.05735 33.4011L0.0534224 68.9597C-0.40148 72.5232 2.10048 75.7833 5.58806 76.2383Z" fill="#252334"/>
<path d="M35.3071 69.4145C35.6862 69.4145 35.9895 69.1112 36.0653 68.7321L38.5673 46.5175C38.6431 46.0626 38.3398 45.6835 37.8849 45.6835C37.43 45.6077 37.0509 45.9109 37.0509 46.3658L34.549 68.5805C34.4731 69.0354 34.7764 69.4145 35.2313 69.4145C35.3071 69.4145 35.3071 69.4145 35.3071 69.4145Z" fill="#252334"/>
<path fill-rule="evenodd" clip-rule="evenodd" d="M37.9054 45.435C38.5106 45.4466 38.9078 45.9651 38.8138 46.5517L36.3114 68.7708L36.3093 68.7812C36.2156 69.2497 35.8302 69.6637 35.307 69.6637H35.2316C34.6149 69.6637 34.2071 69.1401 34.3022 68.5468L36.802 46.3512C36.8103 45.7474 37.3224 45.3489 37.9054 45.435ZM37.8439 45.9293C37.5302 45.877 37.2997 46.0755 37.2997 46.3661V46.3801L34.7947 68.6217C34.7425 68.9354 34.9406 69.1658 35.2312 69.1658H35.3064C35.5388 69.1658 35.7583 68.9775 35.8191 68.6932L38.3213 46.4768C38.3736 46.1631 38.1754 45.9327 37.8848 45.9327H37.8642L37.8439 45.9293Z" fill="white"/>
<path d="M73.9774 89.2638C73.9774 89.2638 75.1147 73.797 75.4938 71.3708C75.8728 68.9447 74.2807 68.4897 73.5225 68.793C72.5369 69.1721 71.7787 71.2192 71.3238 72.8114C70.9447 74.0245 69.8075 74.9343 68.5186 74.8584L62.9839 74.7826L66.699 89.5671L73.9774 89.2638Z" fill="white"/>
<path fill-rule="evenodd" clip-rule="evenodd" d="M74.9704 89.337L74.9053 90.2218L65.9308 90.5958L61.7027 73.7694L68.5547 73.8633L68.5771 73.8646C69.3425 73.9096 70.1044 73.3599 70.3702 72.5249C70.6037 71.7093 70.9244 70.7414 71.3292 69.9111C71.5326 69.4939 71.7712 69.0819 72.0506 68.7338C72.3217 68.396 72.6854 68.0501 73.159 67.8662C73.8635 67.5872 74.8416 67.6719 75.5799 68.3003C76.3733 68.9755 76.7008 70.0952 76.4775 71.5247C76.2955 72.6897 75.9197 77.1101 75.586 81.3062C75.4203 83.3895 75.2664 85.3973 75.1539 86.8845C75.0976 87.628 75.0518 88.2412 75.0199 88.6685L74.9704 89.337C74.9704 89.3371 74.9704 89.337 73.9774 89.264C73.9774 89.264 75.1147 73.7971 75.4938 71.3709C75.8728 68.9448 74.2807 68.4899 73.5225 68.7931C72.5369 69.1722 71.7787 71.2193 71.3238 72.8115C70.9447 74.0246 69.8075 74.9344 68.5186 74.8586L62.9839 74.7828L66.699 89.5672L73.9774 89.264L74.9704 89.337Z" fill="#252334"/>
<path d="M64.4947 105.731C63.7365 96.5575 63.6607 87.3077 63.6607 87.3077L76.9287 86.8528L90.5758 109.143C91.9405 111.418 95.1248 111.873 97.096 110.053C101.873 105.807 107.938 99.9693 115.368 97.164C125.603 93.2215 146.377 93.5248 154.49 96.1026C162.602 98.6046 168.288 100.803 177.841 107.248C177.841 107.248 160.782 124.913 162.526 143.944C164.042 160.624 168.971 186.402 169.426 192.391C169.501 193.074 168.971 193.68 168.212 193.68C168.212 193.68 166.277 197.649 135.411 198.147C104.545 198.645 100.584 194.817 100.584 194.817C100.053 194.817 99.6738 194.438 99.7496 193.908C100.205 188.6 103.844 162.367 105.133 149.782C105.436 146.825 105.588 143.489 105.512 139.925C100.053 142.882 91.9405 151.753 80.7954 150.54C68.4372 149.403 65.1771 113.616 64.4947 105.731Z" fill="#8A50A0"/>
<path d="M175.04 160.548L165.108 170.556C164.198 171.465 162.758 171.465 161.848 170.556L158.285 167.22C157.451 166.386 155.783 165.476 154.57 165.476L150.779 165.779C146.912 166.082 145.547 169.342 145.547 169.342C144.865 170.631 145.32 172.224 146.609 173.285C146.609 173.285 148.201 174.574 149.717 174.877C152.219 175.332 152.219 175.332 152.219 175.332C152.219 175.332 154.873 176.166 156.768 177.607C158.664 178.971 161.621 180.336 165.032 180.109H165.336C167.383 179.957 169.354 179.199 170.87 177.834L182.167 168.129L175.04 160.548Z" fill="white"/>
<path fill-rule="evenodd" clip-rule="evenodd" d="M175.06 159.115L164.404 169.852C164.404 169.852 164.403 169.852 164.403 169.853C163.882 170.373 163.073 170.372 162.552 169.852L162.541 169.84L158.976 166.504C158.469 165.999 157.754 165.509 157.01 165.142C156.271 164.778 155.392 164.48 154.57 164.48H154.53L150.701 164.787C150.701 164.787 150.701 164.787 150.701 164.787C148.475 164.961 146.951 165.996 145.997 166.983C145.524 167.473 145.188 167.952 144.97 168.312C144.86 168.493 144.779 168.645 144.723 168.757C144.695 168.813 144.674 168.858 144.658 168.892C144.655 168.899 144.652 168.905 144.649 168.911C143.719 170.711 144.428 172.779 145.976 174.054L145.982 174.059L146.609 173.285C145.32 172.224 144.865 170.632 145.547 169.343C145.547 169.343 146.912 166.083 150.779 165.779L154.57 165.476C155.783 165.476 157.451 166.386 158.285 167.22L161.848 170.556C162.758 171.466 164.198 171.466 165.108 170.556L175.04 160.548L182.167 168.13L170.87 177.834C169.354 179.199 167.383 179.957 165.336 180.109H165.032C161.621 180.336 158.664 178.972 156.768 177.607C155.437 176.595 153.731 175.882 152.834 175.548C152.454 175.406 152.219 175.332 152.219 175.332C152.219 175.332 152.219 175.332 151.602 175.22C151.456 175.194 151.276 175.161 151.053 175.12C150.715 175.059 150.279 174.98 149.717 174.877C148.201 174.574 146.609 173.285 146.609 173.285C145.982 174.059 145.982 174.059 145.982 174.059L145.984 174.06L145.986 174.062L145.991 174.066L146.01 174.081C146.025 174.093 146.046 174.109 146.072 174.13C146.126 174.171 146.202 174.228 146.296 174.297C146.486 174.434 146.754 174.62 147.074 174.816C147.696 175.198 148.592 175.668 149.522 175.854L149.531 175.855L151.976 176.3C151.988 176.304 152.003 176.309 152.02 176.315C152.09 176.338 152.193 176.374 152.325 176.421C152.588 176.517 152.96 176.659 153.389 176.844C154.256 177.218 155.31 177.749 156.166 178.4L156.176 178.407L156.187 178.415C158.198 179.863 161.367 181.341 165.065 181.105H165.373L165.409 181.102C167.645 180.936 169.829 180.107 171.528 178.582L183.606 168.206L175.06 159.115Z" fill="#252334"/>
<path d="M162.83 136.134L162.906 135.679C162.982 135.149 163.21 134.618 163.589 134.315C165.56 132.419 169.275 135.604 169.275 135.604C177.387 142.048 174.051 149.478 174.051 149.478L166.621 166.007L176.023 176.621C176.023 176.621 205.895 158.652 201.876 136.21C198.995 119.985 177.918 107.399 177.918 107.399L166.925 114.754L161.011 126.885L162.83 136.134Z" fill="#8A50A0"/>
<path d="M141.746 94.8891L141.367 73.8118L127.872 78.5125L127.796 94.6617C127.872 97.2395 130.07 98.7559 130.07 98.7559C132.8 100.803 136.591 100.5 139.396 98.6042L140.078 98.1493C141.14 97.467 141.822 96.2539 141.746 94.8891Z" fill="white"/>
<path fill-rule="evenodd" clip-rule="evenodd" d="M127.872 78.5126L127.796 94.6618C127.872 97.2396 130.07 98.756 130.07 98.756C132.8 100.803 136.591 100.5 139.396 98.6044L140.078 98.1495C141.14 97.4671 141.822 96.254 141.746 94.8893L141.367 73.8119L127.872 78.5126ZM142.741 94.8538C142.83 96.5831 141.962 98.1183 140.624 98.9822L139.953 99.4294C139.952 99.4299 139.952 99.4305 139.951 99.4311C136.881 101.504 132.625 101.908 129.484 99.5608L129.46 99.5433C129.436 99.5264 129.405 99.5033 129.367 99.4741C129.292 99.4159 129.189 99.333 129.068 99.2263C128.826 99.0137 128.506 98.7017 128.183 98.2963C127.541 97.491 126.847 96.2654 126.8 94.6911L126.8 94.6741L126.879 77.804L142.338 72.4194L142.741 94.8538Z" fill="#252334"/>
<path d="M117.943 55.1607C121.431 54.3267 117.64 58.7242 129.998 52.5829C134.926 50.1568 133.334 56.6013 134.623 55.9947C139.323 53.6444 140.612 53.1137 143.19 53.2653C144.858 53.4169 148.801 55.9189 148.649 58.1935C148.194 65.5478 144.707 64.2589 143.645 70.7034C142.887 75.2525 141.901 76.7688 140.309 77.7545C138.641 78.7401 136.973 76.6172 135.078 77.527C132.652 78.6643 133.94 82.9859 131.818 85.2604C130.453 86.701 126.889 87.9141 120.597 86.0944C119.535 85.7912 118.929 84.8055 119.005 83.7441C119.156 82.3794 119.308 80.6356 119.611 79.0434C121.052 71.31 123.326 69.1871 122.113 67.4432C120.142 64.7896 114.986 67.4432 113.622 65.2445C112.181 63.0458 113.242 56.3738 117.943 55.1607Z" fill="#252334"/>
<path d="M132.503 65.472L131.821 67.5191C131.517 68.5048 131.29 69.4904 131.062 70.476C130.759 72.3715 130.001 75.5558 129.622 77.2996C128.409 83.0618 120.675 78.3611 120.675 78.3611L119.917 76.9964L118.932 76.7689C118.78 76.6931 118.553 76.6173 118.401 76.5415C118.022 76.2382 117.946 75.7075 118.173 75.3284C119.159 73.1296 121.206 68.2015 121.509 64.0315C121.509 64.0315 126.968 61.5295 132.503 65.472Z" fill="white"/>
<path d="M126.208 80.9389C126.891 80.9389 127.497 80.8631 128.028 80.5598C129.241 80.0291 129.999 78.9676 130.378 77.4513C130.454 76.9964 130.606 76.3898 130.757 75.7075C131.136 74.0395 131.591 71.9166 131.819 70.5519C131.97 69.5662 132.274 68.6564 132.577 67.7466L133.259 65.6995C133.335 65.3962 133.259 65.0172 132.956 64.8655C127.194 60.7713 121.508 63.2733 121.204 63.425C120.977 63.5766 120.749 63.8041 120.749 64.0315C120.446 68.1257 118.399 73.1297 117.489 75.0251C117.186 75.7833 117.338 76.6173 117.944 77.148C118.172 77.3755 118.475 77.5271 118.778 77.6029L119.385 77.7546L119.915 78.816C119.991 78.9676 120.067 79.0435 120.219 79.1193C120.446 79.1193 123.479 80.9389 126.208 80.9389ZM131.591 65.7753L131.061 67.2917C130.757 68.2773 130.454 69.3388 130.302 70.3244C130.075 71.6891 129.62 73.7362 129.241 75.4042C129.089 76.0107 128.938 76.6173 128.862 77.148C128.634 78.2095 128.179 78.8918 127.421 79.1951C125.602 79.9533 122.493 78.5885 121.204 77.8304L120.598 76.6173C120.522 76.3898 120.295 76.2382 120.067 76.2382L119.081 76.0107C119.006 76.0107 118.93 76.0107 118.93 75.9349C118.778 75.8591 118.854 75.7075 118.854 75.6317C119.915 73.2055 121.735 68.6564 122.19 64.5622C123.479 64.1831 127.421 63.1217 131.591 65.7753Z" fill="#252334"/>
<path d="M132.199 72.2197C132.199 72.2197 133.791 67.2915 135.914 68.5046C138.037 69.7177 136.065 75.1008 132.199 72.2197Z" fill="white"/>
</svg>
