<svg width="376" height="300" viewBox="0 0 376 300" fill="none" xmlns="http://www.w3.org/2000/svg">
<g clip-path="url(#clip0_6120_2845)">
<path opacity="0.4" d="M0 144.425C0.000295429 61.0392 51.8434 1.36721 122.308 0.0442913C225.599 -1.89491 225.972 60.2671 270.345 103.118C332.166 162.817 299.804 300 149.902 300C0 300 -0.000234198 210.824 0 144.425Z" fill="#E3EDED"/>
<path d="M210.56 58.991L172.275 72.4441C170.217 73.1305 168.982 75.1896 169.394 77.3861C169.805 79.4452 171.589 81.0926 173.648 81.0926L214.265 81.5044L210.56 58.991Z" fill="white"/>
<path fill-rule="evenodd" clip-rule="evenodd" d="M172.275 72.4441L210.56 58.991L214.265 81.5044L173.648 81.0926C171.589 81.0926 169.805 79.4452 169.394 77.3861C168.982 75.1896 170.217 73.1305 172.275 72.4441ZM171.163 77.0433C170.923 75.7362 171.645 74.5547 172.845 74.1544L172.859 74.1498L209.131 61.404L212.139 79.68L173.648 79.2897C172.568 79.2897 171.434 78.3741 171.163 77.0433Z" fill="#252334"/>
<path d="M356.848 9.43408L211.941 55.0101C210.432 55.4219 209.471 56.9319 209.608 58.5793L212.627 81.7791C212.902 83.4264 214.274 84.6619 215.921 84.6619L368.786 80.4063L356.848 9.43408Z" fill="white"/>
<path fill-rule="evenodd" clip-rule="evenodd" d="M358.281 7.09351L211.43 53.2812C209.001 53.9639 207.614 56.3401 207.813 58.7291L207.816 58.7707L210.844 82.0438L210.85 82.0756C211.258 84.5288 213.33 86.4648 215.921 86.4648H215.946L370.907 82.1509L358.281 7.09351ZM211.941 55.0102L356.848 9.4342L368.786 80.4064L215.921 84.662C214.274 84.662 212.902 83.4265 212.627 81.7792L209.608 58.5794C209.471 56.9321 210.432 55.422 211.941 55.0102Z" fill="#252334"/>
<path d="M364.937 87.5447C358.488 88.3684 352.587 83.9755 351.764 77.6608L342.707 13.2778C341.747 6.96308 346.275 1.06016 352.725 0.099224C359.174 -0.724438 365.075 3.66842 365.898 9.98317L374.955 74.3661C375.778 80.8181 371.25 86.7211 364.937 87.5447Z" fill="#252334"/>
<path d="M311.149 75.1897C310.462 75.1897 309.914 74.6406 309.776 73.9542L305.248 33.732C305.111 32.9083 305.66 32.222 306.483 32.222C307.306 32.0847 307.992 32.6338 307.992 33.4574L312.521 73.6796C312.658 74.5033 312.109 75.1897 311.286 75.1897C311.149 75.1897 311.149 75.1897 311.149 75.1897Z" fill="#252334"/>
<path fill-rule="evenodd" clip-rule="evenodd" d="M306.446 31.7717C305.35 31.7925 304.632 32.7314 304.802 33.7936L309.331 74.0238L309.335 74.0426C309.504 74.8909 310.202 75.6404 311.149 75.6404H311.285C312.401 75.6404 313.139 74.6923 312.967 73.6181L308.443 33.4305C308.428 32.3373 307.501 31.6156 306.446 31.7717ZM306.557 32.6666C307.125 32.5719 307.542 32.9312 307.542 33.4575V33.4828L312.076 73.7539C312.17 74.3218 311.812 74.739 311.286 74.739H311.15C310.729 74.739 310.332 74.398 310.222 73.8833L305.693 33.6578C305.599 33.0899 305.957 32.6727 306.483 32.6727H306.52L306.557 32.6666Z" fill="white"/>
<path d="M241.158 111.129C241.158 111.129 239.1 83.1247 238.414 78.7319C237.728 74.339 240.61 73.5153 241.982 74.0644C243.766 74.7508 245.138 78.4573 245.961 81.3401C246.647 83.5366 248.706 85.1839 251.038 85.0466L261.056 84.9093L254.332 111.678L241.158 111.129Z" fill="white"/>
<path fill-rule="evenodd" clip-rule="evenodd" d="M239.361 111.261L239.479 112.864L255.722 113.541L263.375 83.0746L250.973 83.2445L250.933 83.2469C249.547 83.3284 248.168 82.3331 247.687 80.8212C247.265 79.3445 246.684 77.5919 245.952 76.0886C245.584 75.3331 245.152 74.5872 244.646 73.9569C244.155 73.3454 243.497 72.719 242.64 72.386C241.365 71.8809 239.595 72.0342 238.258 73.172C236.822 74.3946 236.229 76.4219 236.634 79.0101C236.963 81.1197 237.643 89.1233 238.247 96.7208C238.547 100.493 238.826 104.128 239.029 106.821C239.131 108.167 239.214 109.277 239.272 110.051L239.361 111.261C239.361 111.262 239.361 111.261 241.159 111.129C241.159 111.129 239.1 83.1247 238.414 78.7318C237.728 74.3389 240.61 73.5153 241.982 74.0644C243.766 74.7508 245.138 78.4573 245.961 81.3401C246.647 83.5365 248.706 85.1838 251.039 85.0465L261.056 84.9093L254.332 111.678L241.159 111.129L239.361 111.261Z" fill="#252334"/>
<path d="M258.322 140.945C259.694 124.335 259.831 107.587 259.831 107.587L235.817 106.763L211.117 147.123C208.647 151.241 202.884 152.065 199.316 148.77C190.671 141.083 179.693 130.512 166.246 125.433C147.721 118.295 110.122 118.844 95.4389 123.511C80.7561 128.041 70.4645 132.022 53.1745 143.691C53.1745 143.691 84.0495 175.676 80.8934 210.133C78.1489 240.334 69.2295 287.008 68.4061 297.853C68.2689 299.089 69.2295 300.187 70.6017 300.187L193.004 302.246C193.964 302.246 194.651 301.56 194.513 300.599C193.69 290.989 187.103 243.491 184.771 220.703C184.222 215.35 183.947 209.309 184.084 202.857C193.964 208.211 208.647 224.273 228.819 222.076C251.186 220.017 257.087 155.222 258.322 140.945Z" fill="#C3D7DB"/>
<path d="M58.2438 240.197L76.22 258.317C77.8666 259.965 80.4738 259.965 82.1205 258.317L88.5699 252.277C90.0794 250.767 93.0983 249.12 95.2938 249.12L102.155 249.669C109.153 250.218 111.623 256.121 111.623 256.121C112.858 258.455 112.035 261.337 109.702 263.259C109.702 263.259 106.82 265.593 104.076 266.142C99.5477 266.966 99.5477 266.966 99.5477 266.966C99.5477 266.966 94.7449 268.476 91.3144 271.084C87.8838 273.555 82.5322 276.026 76.3572 275.614H75.8083C72.1033 275.34 68.5355 273.967 65.7911 271.496L45.345 253.924L58.2438 240.197Z" fill="white"/>
<path fill-rule="evenodd" clip-rule="evenodd" d="M58.2087 237.602L77.4943 257.043C77.4949 257.043 77.4956 257.044 77.4963 257.045C78.4393 257.986 79.904 257.985 80.8463 257.043L80.8673 257.022L87.318 250.98C88.2372 250.067 89.5311 249.179 90.8778 248.515C92.2142 247.856 93.8048 247.317 95.2939 247.317H95.3658L102.296 247.872C102.295 247.872 102.296 247.872 102.296 247.872C106.325 248.188 109.083 250.061 110.809 251.848C111.667 252.735 112.273 253.603 112.669 254.255C112.867 254.582 113.014 254.858 113.115 255.06C113.166 255.161 113.205 255.244 113.233 255.306C113.239 255.318 113.244 255.329 113.249 255.34C114.932 258.599 113.649 262.343 110.848 264.651L110.836 264.661L109.702 263.259C112.035 261.337 112.858 258.455 111.623 256.121C111.623 256.121 109.153 250.218 102.155 249.669L95.2939 249.12C93.0983 249.12 90.0794 250.767 88.57 252.277L82.1205 258.317C80.4739 259.965 77.8667 259.965 76.22 258.317L58.2439 240.197L45.345 253.924L65.7911 271.496C68.5355 273.967 72.1033 275.34 75.8083 275.614H76.3572C82.5322 276.026 87.8839 273.555 91.3144 271.084C93.7247 269.252 96.8123 267.961 98.4357 267.356C99.1229 267.099 99.5477 266.966 99.5477 266.966C99.5477 266.966 99.5478 266.966 100.665 266.763C100.929 266.715 101.255 266.655 101.659 266.582C102.27 266.471 103.059 266.327 104.076 266.142C106.821 265.593 109.702 263.259 109.702 263.259C110.836 264.661 110.836 264.66 110.836 264.661L110.834 264.663L110.83 264.665L110.82 264.674L110.787 264.7C110.76 264.721 110.721 264.751 110.673 264.789C110.577 264.863 110.439 264.967 110.268 265.091C109.925 265.34 109.44 265.676 108.86 266.032C107.734 266.722 106.113 267.573 104.429 267.91L104.414 267.913L99.989 268.718C99.966 268.726 99.9391 268.734 99.9085 268.745C99.7825 268.787 99.5946 268.852 99.3567 268.938C98.8802 269.11 98.2071 269.367 97.4316 269.702C95.8617 270.38 93.9536 271.342 92.4048 272.519L92.3863 272.534L92.3674 272.547C88.726 275.17 82.9907 277.845 76.2985 277.417H75.7417L75.6752 277.412C71.6294 277.112 67.6761 275.611 64.6015 272.85L42.7412 254.063L58.2087 237.602Z" fill="#252334"/>
<path d="M80.3424 195.994L80.2052 195.17C80.068 194.209 79.6563 193.248 78.9702 192.699C75.4024 189.267 68.6785 195.033 68.6785 195.033C53.9958 206.701 60.0336 220.154 60.0336 220.154L73.4813 250.081L56.4658 269.3C56.4658 269.3 2.40025 236.765 9.67303 196.131C14.8875 166.754 53.0352 143.966 53.0352 143.966L72.9324 157.281L83.6357 179.246L80.3424 195.994Z" fill="#C3D7DB"/>
<path d="M118.504 121.315L119.19 83.1521L143.615 91.6633L143.752 120.903C143.615 125.571 139.636 128.316 139.636 128.316C134.696 132.023 127.835 131.474 122.757 128.042L121.522 127.218C119.601 125.983 118.366 123.786 118.504 121.315Z" fill="white"/>
<path fill-rule="evenodd" clip-rule="evenodd" d="M143.615 91.6633L143.752 120.903C143.615 125.571 139.636 128.316 139.636 128.316C134.696 132.023 127.835 131.474 122.757 128.042L121.522 127.218C119.601 125.983 118.366 123.786 118.503 121.315L119.19 83.1521L143.615 91.6633ZM116.702 121.251C116.541 124.382 118.112 127.162 120.534 128.726L121.748 129.535C121.75 129.537 121.751 129.538 121.753 129.539C127.309 133.292 135.012 134.024 140.697 129.773L140.741 129.742C140.783 129.711 140.839 129.669 140.908 129.617C141.044 129.511 141.231 129.361 141.45 129.168C141.887 128.783 142.467 128.218 143.052 127.484C144.214 126.026 145.47 123.807 145.554 120.956L145.555 120.926L145.411 90.3802L117.432 80.6309L116.702 121.251Z" fill="#252334"/>
<path d="M161.585 49.3818C155.273 47.8717 162.134 55.8338 139.767 44.7143C130.847 40.3215 133.729 51.99 131.396 50.8918C122.888 46.6362 120.555 45.6753 115.89 45.9498C112.871 46.2244 105.735 50.7545 106.01 54.8728C106.833 68.1887 113.145 65.855 115.067 77.5236C116.439 85.7602 118.223 88.5057 121.104 90.2903C124.123 92.0749 127.142 88.2312 130.573 89.8785C134.964 91.9376 132.631 99.7624 136.473 103.881C138.943 106.489 145.393 108.685 156.782 105.391C158.703 104.842 159.801 103.057 159.664 101.135C159.389 98.6642 159.115 95.5069 158.566 92.624C155.959 78.6218 151.842 74.778 154.038 71.6206C157.605 66.8159 166.937 71.6206 169.407 67.6396C172.014 63.6586 170.093 51.5782 161.585 49.3818Z" fill="#252334"/>
<path d="M135.233 68.0514L136.468 71.7579C137.017 73.5425 137.428 75.327 137.84 77.1116C138.389 80.5436 139.761 86.3092 140.447 89.4666C142.643 99.8996 156.64 91.3885 156.64 91.3885L158.012 88.9175L159.796 88.5056C160.07 88.3684 160.482 88.2311 160.756 88.0938C161.442 87.5447 161.58 86.5838 161.168 85.8974C159.384 81.9163 155.679 72.9933 155.13 65.4431C155.13 65.4431 145.25 60.9129 135.233 68.0514Z" fill="white"/>
<path d="M146.626 96.056C145.391 96.056 144.293 95.9187 143.332 95.3696C141.137 94.4087 139.765 92.4868 139.078 89.7413C138.941 88.9176 138.667 87.8194 138.392 86.5839C137.706 83.5638 136.883 79.72 136.471 77.2491C136.197 75.4645 135.648 73.8171 135.099 72.1698L133.864 68.4633C133.727 67.9142 133.864 67.2278 134.413 66.9533C144.842 59.5403 155.133 64.0704 155.682 64.345C156.094 64.6196 156.506 65.0314 156.506 65.4432C157.055 72.8562 160.76 81.9165 162.406 85.3484C162.955 86.7212 162.681 88.2312 161.583 89.1922C161.171 89.604 160.622 89.8785 160.073 90.0158L158.976 90.2904L158.015 92.2122C157.878 92.4868 157.741 92.6241 157.466 92.7613C157.055 92.7613 151.566 96.056 146.626 96.056ZM136.883 68.6006L137.843 71.3461C138.392 73.1307 138.941 75.0526 139.216 76.8372C139.627 79.3082 140.451 83.0147 141.137 86.0348C141.411 87.133 141.686 88.2312 141.823 89.1922C142.235 91.114 143.058 92.3495 144.43 92.8986C147.723 94.2714 153.35 91.8004 155.682 90.4276L156.78 88.2312C156.917 87.8194 157.329 87.5448 157.741 87.5448L159.525 87.133C159.662 87.133 159.799 87.133 159.799 86.9957C160.073 86.8584 159.936 86.5839 159.936 86.4466C158.015 82.0538 154.722 73.8171 153.898 66.4042C151.566 65.7178 144.43 63.7959 136.883 68.6006Z" fill="#252334"/>
<path d="M135.783 80.2693C135.783 80.2693 132.902 71.3463 129.06 73.5427C125.217 75.7391 128.785 85.4858 135.783 80.2693Z" fill="white"/>
</g>
<defs>
<clipPath id="clip0_6120_2845">
<rect width="375" height="300" fill="white" transform="translate(0.5)"/>
</clipPath>
</defs>
</svg>
