<svg width="108" height="32" viewBox="0 0 108 32" fill="none" xmlns="http://www.w3.org/2000/svg">
<g clip-path="url(#clip0_1501_608)">
<path d="M104 32H4C1.76 32 0 30.24 0 28V4C0 1.76 1.76 0 4 0H104C106.24 0 108 1.76 108 4V28C108 30.24 106.24 32 104 32Z" fill="#252334"/>
<path d="M104 0.64C105.84 0.64 107.36 2.16 107.36 4V28C107.36 29.84 105.84 31.36 104 31.36H4C2.16 31.36 0.64 29.84 0.64 28V4C0.64 2.16 2.16 0.64 4 0.64H104ZM104 0H4C1.76 0 0 1.84 0 4V28C0 30.24 1.76 32 4 32H104C106.24 32 108 30.24 108 28V4C108 1.84 106.24 0 104 0Z" fill="white"/>
<path d="M37.92 8.16002C37.92 8.80002 37.76 9.36002 37.36 9.76002C36.88 10.24 36.32 10.48 35.6 10.48C34.88 10.48 34.32 10.24 33.84 9.76002C33.36 9.28002 33.12 8.72002 33.12 8.00002C33.12 7.28002 33.36 6.72002 33.84 6.24002C34.32 5.76002 34.88 5.52002 35.6 5.52002C35.92 5.52002 36.24 5.60002 36.56 5.76002C36.88 5.92002 37.12 6.08002 37.28 6.32002L36.88 6.72002C36.56 6.32002 36.16 6.16002 35.6 6.16002C35.12 6.16002 34.64 6.32002 34.32 6.72002C33.92 7.04002 33.76 7.52002 33.76 8.08002C33.76 8.64002 33.92 9.12002 34.32 9.44002C34.72 9.76002 35.12 10 35.6 10C36.16 10 36.56 9.84002 36.96 9.44002C37.2 9.20002 37.36 8.88002 37.36 8.48002H35.6V7.84002H37.92V8.16002ZM41.6 6.16002H39.44V7.68002H41.44V8.24002H39.44V9.76002H41.6V10.4H38.8V5.60002H41.6V6.16002ZM44.24 10.4H43.6V6.16002H42.24V5.60002H45.6V6.16002H44.24V10.4ZM47.92 10.4V5.60002H48.56V10.4H47.92ZM51.28 10.4H50.64V6.16002H49.28V5.60002H52.56V6.16002H51.2L51.28 10.4ZM58.88 9.76002C58.4 10.24 57.84 10.48 57.12 10.48C56.4 10.48 55.84 10.24 55.36 9.76002C54.88 9.28002 54.64 8.72002 54.64 8.00002C54.64 7.28002 54.88 6.72002 55.36 6.24002C55.84 5.76002 56.4 5.52002 57.12 5.52002C57.84 5.52002 58.4 5.76002 58.88 6.24002C59.36 6.72002 59.6 7.28002 59.6 8.00002C59.6 8.72002 59.36 9.28002 58.88 9.76002ZM55.84 9.36002C56.16 9.68002 56.64 9.92002 57.12 9.92002C57.6 9.92002 58.08 9.76002 58.4 9.36002C58.72 9.04002 58.96 8.56002 58.96 8.00002C58.96 7.44002 58.8 6.96002 58.4 6.64002C58.08 6.32002 57.6 6.08002 57.12 6.08002C56.64 6.08002 56.16 6.24002 55.84 6.64002C55.52 6.96002 55.28 7.44002 55.28 8.00002C55.28 8.56002 55.44 9.04002 55.84 9.36002ZM60.48 10.4V5.60002H61.2L63.52 9.36002V5.60002H64.16V10.4H63.52L61.04 6.48002V10.4H60.48Z" fill="white" stroke="white" stroke-width="0.2" stroke-miterlimit="10"/>
<path d="M54.48 17.4399C52.56 17.4399 51.04 18.8799 51.04 20.8799C51.04 22.7999 52.56 24.3199 54.48 24.3199C56.4 24.3199 57.92 22.8799 57.92 20.8799C57.92 18.7999 56.4 17.4399 54.48 17.4399ZM54.48 22.8799C53.44 22.8799 52.56 21.9999 52.56 20.7999C52.56 19.5999 53.44 18.7199 54.48 18.7199C55.52 18.7199 56.4 19.5199 56.4 20.7999C56.4 21.9999 55.52 22.8799 54.48 22.8799ZM47.04 17.4399C45.12 17.4399 43.6 18.8799 43.6 20.8799C43.6 22.7999 45.12 24.3199 47.04 24.3199C48.96 24.3199 50.48 22.8799 50.48 20.8799C50.48 18.7999 48.96 17.4399 47.04 17.4399ZM47.04 22.8799C46 22.8799 45.12 21.9999 45.12 20.7999C45.12 19.5999 46 18.7199 47.04 18.7199C48.08 18.7199 48.96 19.5199 48.96 20.7999C48.96 21.9999 48.08 22.8799 47.04 22.8799ZM38.16 18.4799V19.9199H41.6C41.52 20.7199 41.2 21.3599 40.8 21.7599C40.32 22.2399 39.52 22.7999 38.16 22.7999C36 22.7999 34.4 21.1199 34.4 18.9599C34.4 16.7999 36.08 15.1199 38.16 15.1199C39.28 15.1199 40.16 15.5999 40.8 16.1599L41.84 15.1199C40.96 14.3199 39.84 13.6799 38.24 13.6799C35.36 13.6799 32.88 16.0799 32.88 18.9599C32.88 21.8399 35.36 24.2399 38.24 24.2399C39.84 24.2399 40.96 23.7599 41.92 22.7199C42.88 21.7599 43.2 20.3999 43.2 19.3599C43.2 19.0399 43.2 18.7199 43.12 18.4799H38.16ZM74.48 19.5999C74.16 18.7999 73.36 17.4399 71.6 17.4399C69.84 17.4399 68.4 18.7999 68.4 20.8799C68.4 22.7999 69.84 24.3199 71.76 24.3199C73.28 24.3199 74.24 23.3599 74.56 22.7999L73.44 21.9999C73.04 22.5599 72.56 22.9599 71.76 22.9599C70.96 22.9599 70.48 22.6399 70.08 21.9199L74.64 19.9999L74.48 19.5999ZM69.84 20.7199C69.84 19.4399 70.88 18.7199 71.6 18.7199C72.16 18.7199 72.72 19.0399 72.88 19.4399L69.84 20.7199ZM66.08 23.9999H67.6V13.9999H66.08V23.9999ZM63.68 18.1599C63.28 17.7599 62.64 17.3599 61.84 17.3599C60.16 17.3599 58.56 18.8799 58.56 20.7999C58.56 22.7199 60.08 24.1599 61.84 24.1599C62.64 24.1599 63.28 23.7599 63.6 23.3599H63.68V23.8399C63.68 25.1199 62.96 25.8399 61.84 25.8399C60.96 25.8399 60.32 25.1999 60.16 24.6399L58.88 25.1999C59.28 26.0799 60.24 27.1999 61.92 27.1999C63.68 27.1999 65.12 26.1599 65.12 23.6799V17.5999H63.68V18.1599ZM61.92 22.8799C60.88 22.8799 60 21.9999 60 20.7999C60 19.5999 60.88 18.7199 61.92 18.7199C62.96 18.7199 63.76 19.5999 63.76 20.7999C63.76 21.9999 62.96 22.8799 61.92 22.8799ZM81.44 13.9999H77.84V23.9999H79.36V20.2399H81.44C83.12 20.2399 84.72 19.0399 84.72 17.1199C84.72 15.1999 83.12 13.9999 81.44 13.9999ZM81.52 18.7999H79.36V15.3599H81.52C82.64 15.3599 83.28 16.3199 83.28 17.0399C83.2 17.9199 82.56 18.7999 81.52 18.7999ZM90.72 17.3599C89.6 17.3599 88.48 17.8399 88.08 18.8799L89.44 19.4399C89.76 18.8799 90.24 18.7199 90.8 18.7199C91.6 18.7199 92.32 19.1999 92.4 19.9999V20.0799C92.16 19.9199 91.52 19.6799 90.88 19.6799C89.44 19.6799 88 20.4799 88 21.9199C88 23.2799 89.2 24.1599 90.48 24.1599C91.52 24.1599 92 23.6799 92.4 23.1999H92.48V23.9999H93.92V20.1599C93.76 18.3999 92.4 17.3599 90.72 17.3599ZM90.56 22.8799C90.08 22.8799 89.36 22.6399 89.36 21.9999C89.36 21.1999 90.24 20.9599 90.96 20.9599C91.6 20.9599 91.92 21.1199 92.32 21.2799C92.16 22.2399 91.36 22.8799 90.56 22.8799ZM98.96 17.5999L97.28 21.9199H97.2L95.44 17.5999H93.84L96.48 23.6799L94.96 27.0399H96.48L100.56 17.5999H98.96ZM85.52 23.9999H87.04V13.9999H85.52V23.9999Z" fill="white"/>
<path d="M8.32 6C8.08 6.24 8 6.64 8 7.12V24.8C8 25.28 8.16 25.68 8.4 25.92L8.48 26L18.4 16.08V15.92L8.32 6Z" fill="url(#paint0_linear_1501_608)"/>
<path d="M21.6 19.4399L18.32 16.1599V15.9199L21.6 12.6399L21.68 12.7199L25.6 14.9599C26.72 15.5999 26.72 16.6399 25.6 17.2799L21.6 19.4399Z" fill="url(#paint1_linear_1501_608)"/>
<path d="M21.68 19.36L18.32 16L8.32001 26C8.72001 26.4 9.28001 26.4 10 26.08L21.68 19.36Z" fill="url(#paint2_linear_1501_608)"/>
<path d="M21.68 12.64L10 6.00004C9.28001 5.60004 8.72001 5.68004 8.32001 6.08004L18.32 16L21.68 12.64Z" fill="url(#paint3_linear_1501_608)"/>
<path opacity="0.2" d="M21.6 19.28L10 25.84C9.36001 26.24 8.80001 26.16 8.40001 25.84L8.32001 25.92L8.40001 26C8.80001 26.32 9.36001 26.4 10 26L21.6 19.28Z" fill="#252334"/>
<path opacity="0.12" d="M8.32 25.84C8.08 25.6 8 25.2 8 24.72V24.8C8 25.28 8.16 25.68 8.4 25.92V25.84H8.32ZM25.6 17.04L21.6 19.28L21.68 19.36L25.6 17.12C26.16 16.8 26.4 16.4 26.4 16C26.4 16.4 26.08 16.72 25.6 17.04Z" fill="#252334"/>
<path opacity="0.25" d="M10 6.08009L25.6 14.9601C26.08 15.2801 26.4 15.6001 26.4 16.0001C26.4 15.6001 26.16 15.2001 25.6 14.8801L10 6.08009C8.88 5.36009 8 5.84009 8 7.12009V7.20009C8 6.00009 8.88 5.44009 10 6.08009Z" fill="white"/>
</g>
<defs>
<linearGradient id="paint0_linear_1501_608" x1="17.436" y1="6.964" x2="4.0096" y2="20.3896" gradientUnits="userSpaceOnUse">
<stop stop-color="#00A0FF"/>
<stop offset="0.007" stop-color="#00A1FF"/>
<stop offset="0.26" stop-color="#00BEFF"/>
<stop offset="0.512" stop-color="#00D2FF"/>
<stop offset="0.76" stop-color="#00DFFF"/>
<stop offset="1" stop-color="#00E3FF"/>
</linearGradient>
<linearGradient id="paint1_linear_1501_608" x1="27.0672" y1="16.0399" x2="7.70961" y2="16.0399" gradientUnits="userSpaceOnUse">
<stop stop-color="#FFE000"/>
<stop offset="0.409" stop-color="#FFBD00"/>
<stop offset="0.775" stop-color="#FFA500"/>
<stop offset="1" stop-color="#FF9C00"/>
</linearGradient>
<linearGradient id="paint2_linear_1501_608" x1="19.8528" y1="17.828" x2="1.6464" y2="36.0344" gradientUnits="userSpaceOnUse">
<stop stop-color="#FF3A44"/>
<stop offset="1" stop-color="#C31162"/>
</linearGradient>
<linearGradient id="paint3_linear_1501_608" x1="5.80881" y1="0.169641" x2="13.9392" y2="8.30004" gradientUnits="userSpaceOnUse">
<stop stop-color="#32A071"/>
<stop offset="0.069" stop-color="#2DA771"/>
<stop offset="0.476" stop-color="#15CF74"/>
<stop offset="0.801" stop-color="#06E775"/>
<stop offset="1" stop-color="#00F076"/>
</linearGradient>
<clipPath id="clip0_1501_608">
<rect width="108" height="32" fill="white"/>
</clipPath>
</defs>
</svg>
