<svg width="96" height="32" viewBox="0 0 96 32" fill="none" xmlns="http://www.w3.org/2000/svg">
<g clip-path="url(#clip0_1501_602)">
<path d="M88.08 0H6C5.44 0 4.96 0.08 4.4 0.16C3.92 0.24 3.36 0.4 2.88 0.64C2.4 0.88 2 1.2 1.6 1.6C1.2 2 0.88 2.4 0.64 2.88C0.4 3.36 0.24 3.92 0.16 4.4C0.08 4.96 0 5.52 0 6V25.92C0 26.48 0.08 26.96 0.16 27.52C0.24 28.08 0.4 28.56 0.64 29.04C0.88 29.6 1.2 30 1.6 30.4C2 30.8 2.4 31.12 2.88 31.36C3.36 31.6 3.84 31.76 4.4 31.84C4.96 31.92 5.44 32 6 32H89.68C90.24 32 90.72 31.92 91.28 31.84C91.84 31.76 92.32 31.6 92.8 31.36C93.28 31.12 93.68 30.8 94.08 30.4C94.48 30 94.8 29.6 95.04 29.12C95.28 28.64 95.44 28.16 95.52 27.6C95.6 27.04 95.68 26.56 95.68 26V25.28V7.6V6.72V6C95.68 5.44 95.6 4.96 95.52 4.4C95.44 3.84 95.28 3.36 95.04 2.88C94.56 1.92 93.76 1.12 92.8 0.64C92.32 0.4 91.84 0.24 91.28 0.16C90.72 0.08 90.24 0 89.68 0L88.08 0Z" fill="white"/>
<path d="M6.72001 31.28H6.00001C5.52001 31.28 4.96001 31.2 4.48001 31.12C4.00001 31.04 3.60001 30.88 3.12001 30.72C2.72001 30.48 2.32001 30.24 2.00001 29.92C1.68001 29.6 1.36001 29.2 1.20001 28.8C0.960015 28.4 0.880015 27.92 0.800015 27.44C0.720015 26.96 0.640015 26.48 0.640015 25.92V6.71997V5.99997C0.640015 5.51997 0.720015 4.95997 0.800015 4.47997C0.880015 4.07997 1.04001 3.59997 1.28001 3.19997C1.52001 2.79997 1.76001 2.39997 2.08001 2.07997C2.40001 1.75997 2.80001 1.51997 3.20001 1.27997C3.60001 1.03997 4.08001 0.959971 4.56001 0.879971C5.04001 0.799971 5.52001 0.719971 6.08001 0.719971H89.76C90.24 0.719971 90.72 0.799971 91.28 0.879971C91.76 0.959971 92.16 1.11997 92.64 1.27997C93.44 1.67997 94.16 2.39997 94.56 3.19997C94.8 3.59997 94.88 4.07997 94.96 4.47997C95.04 4.95997 95.12 5.51997 95.12 5.99997V25.92C95.12 26.4 95.04 26.88 94.96 27.44C94.88 27.92 94.72 28.32 94.56 28.8C94.32 29.2 94.08 29.6 93.76 29.92C93.44 30.24 93.04 30.56 92.64 30.72C92.24 30.96 91.76 31.12 91.28 31.12C90.8 31.2 90.32 31.28 89.76 31.28H6.72001Z" fill="#252334"/>
<path d="M19.84 16.24C19.84 14.88 20.56 13.6 21.76 12.88C21.04 11.84 19.84 11.2 18.56 11.12C17.2 10.96 15.92 11.92 15.2 11.92C14.48 11.92 13.44 11.12 12.32 11.12C10.8 11.2 9.44 12 8.72 13.28C7.2 15.92 8.32 19.92 9.84 22.08C10.56 23.12 11.44 24.32 12.56 24.32C13.68 24.24 14.08 23.6 15.44 23.6C16.8 23.6 17.12 24.32 18.32 24.32C19.52 24.32 20.24 23.28 20.96 22.16C21.52 21.44 21.92 20.56 22.16 19.68C20.72 19.2 19.84 17.76 19.84 16.24ZM17.6 9.75996C18.24 8.95996 18.56 7.99996 18.48 6.95996C17.52 7.03996 16.56 7.51996 15.92 8.31996C15.28 9.03996 14.96 9.99996 15.04 11.04C16.08 11.04 16.96 10.56 17.6 9.75996ZM33.84 21.68H30.08L29.2 24.4H27.6L31.2 14.48H32.8L36.4 24.4H34.8L33.84 21.68ZM30.48 20.48H33.52L32 16.08H31.92L30.48 20.48ZM44.16 20.8C44.16 23.04 42.96 24.48 41.12 24.48C40.16 24.56 39.28 24 38.88 23.2V26.8H37.36V17.2H38.8V18.4C39.28 17.6 40.16 17.12 41.12 17.12C42.88 17.04 44.16 18.56 44.16 20.8ZM42.56 20.8C42.56 19.36 41.84 18.4 40.64 18.4C39.52 18.4 38.72 19.36 38.72 20.8C38.72 22.24 39.52 23.2 40.64 23.2C41.84 23.2 42.56 22.24 42.56 20.8ZM52.08 20.8C52.08 23.04 50.88 24.48 49.04 24.48C48.08 24.56 47.2 24 46.8 23.2V26.8H45.28V17.2H46.72V18.4C47.2 17.6 48.08 17.12 49.04 17.12C50.88 17.04 52.08 18.56 52.08 20.8ZM50.56 20.8C50.56 19.36 49.84 18.4 48.64 18.4C47.52 18.4 46.72 19.36 46.72 20.8C46.72 22.24 47.52 23.2 48.64 23.2C49.84 23.2 50.56 22.24 50.56 20.8ZM57.36 21.6C57.44 22.56 58.4 23.2 59.76 23.2C61.04 23.2 61.92 22.56 61.92 21.68C61.92 20.88 61.36 20.48 60.08 20.16L58.8 19.84C56.96 19.44 56.16 18.56 56.16 17.2C56.16 15.52 57.68 14.32 59.76 14.32C61.84 14.32 63.28 15.52 63.36 17.2H61.84C61.76 16.24 60.96 15.6 59.76 15.6C58.56 15.6 57.76 16.24 57.76 17.12C57.76 17.84 58.32 18.24 59.6 18.56L60.72 18.8C62.72 19.28 63.6 20.08 63.6 21.52C63.6 23.36 62.16 24.56 59.76 24.56C57.52 24.56 56.08 23.44 56 21.6H57.36ZM66.64 15.44V17.12H68V18.32H66.64V22.32C66.64 22.96 66.88 23.2 67.52 23.2H68V24.4C67.76 24.48 67.44 24.48 67.2 24.48C65.76 24.48 65.2 23.92 65.2 22.56V18.4H64.16V17.2H65.2V15.52H66.64V15.44ZM68.88 20.8C68.88 18.56 70.24 17.12 72.32 17.12C74.4 17.12 75.76 18.56 75.76 20.8C75.76 23.12 74.4 24.48 72.32 24.48C70.16 24.48 68.88 23.04 68.88 20.8ZM74.24 20.8C74.24 19.2 73.52 18.32 72.32 18.32C71.12 18.32 70.4 19.2 70.4 20.8C70.4 22.4 71.12 23.28 72.32 23.28C73.52 23.28 74.24 22.32 74.24 20.8ZM76.96 17.12H78.4V18.4C78.56 17.6 79.36 17.04 80.16 17.12C80.32 17.12 80.48 17.12 80.64 17.2V18.56C80.4 18.48 80.16 18.48 80 18.48C79.2 18.48 78.48 19.12 78.48 19.92V24.48H76.96V17.12ZM87.52 22.24C87.36 23.52 86.08 24.48 84.4 24.48C82.32 24.48 80.96 23.04 80.96 20.8C80.96 18.56 82.24 17.04 84.32 17.04C86.32 17.04 87.6 18.4 87.6 20.64V21.12H82.48V21.2C82.4 22.24 83.12 23.12 84.16 23.28H84.4C85.12 23.36 85.84 22.96 86.08 22.24H87.52ZM82.48 20.08H86.08C86.16 19.12 85.36 18.32 84.4 18.24H84.24C83.28 18.24 82.48 19.04 82.48 20.08Z" fill="white"/>
<path d="M30.24 6.95997C31.44 6.87997 32.4 7.75997 32.48 8.87997V9.27997C32.48 10.8 31.68 11.68 30.24 11.68H28.48V6.87997L30.24 6.95997ZM29.28 11.12H30.16C30.96 11.2 31.68 10.56 31.76 9.67997V9.35997C31.84 8.55997 31.28 7.75997 30.48 7.67997H29.28V11.12ZM33.36 9.91997C33.28 8.95997 34 8.15997 34.88 8.07997C35.84 7.99997 36.64 8.71997 36.72 9.59997V9.91997C36.8 10.88 36.16 11.68 35.2 11.76C34.24 11.84 33.44 11.2 33.36 10.24V9.91997ZM36 9.91997C36 9.11997 35.68 8.71997 35.04 8.71997C34.4 8.71997 34.08 9.19997 34.08 9.91997C34.08 10.72 34.4 11.2 35.04 11.2C35.68 11.2 36 10.72 36 9.91997ZM41.28 11.76H40.56L39.84 9.11997H39.76L39.04 11.76H38.32L37.36 8.15997H38.08L38.72 10.88H38.8L39.52 8.15997H40.24L40.96 10.88H41.04L41.68 8.15997H42.4L41.28 11.76ZM43.12 8.15997H43.84V8.71997H43.92C44.08 8.31997 44.56 8.07997 44.96 8.07997C45.6 7.99997 46.16 8.47997 46.24 9.19997V11.76H45.52V9.59997C45.52 9.03997 45.28 8.71997 44.72 8.71997C44.24 8.71997 43.84 9.03997 43.84 9.51997V11.76H43.12V8.15997ZM47.28 6.71997H48V11.76H47.28V6.71997ZM48.96 9.91997C48.88 8.95997 49.52 8.15997 50.48 8.07997C51.44 7.99997 52.24 8.63997 52.32 9.59997V9.91997C52.4 10.88 51.76 11.68 50.8 11.76C49.84 11.84 49.04 11.2 48.96 10.24V9.91997ZM51.68 9.91997C51.68 9.11997 51.36 8.71997 50.72 8.71997C50.08 8.71997 49.76 9.19997 49.76 9.91997C49.76 10.72 50.08 11.2 50.72 11.2C51.28 11.2 51.68 10.72 51.68 9.91997ZM53.12 10.72C53.12 10.08 53.6 9.67997 54.48 9.67997L55.44 9.59997V9.27997C55.44 8.87997 55.2 8.71997 54.72 8.71997C54.32 8.71997 54.08 8.87997 54 9.11997H53.28C53.36 8.47997 53.92 8.07997 54.72 8.07997C55.6 8.07997 56.16 8.55997 56.16 9.27997V11.76H55.44V11.28H55.36C55.12 11.68 54.72 11.84 54.24 11.84C53.68 11.92 53.12 11.44 53.04 10.88C53.12 10.8 53.12 10.8 53.12 10.72ZM55.44 10.4V10.08L54.56 10.16C54.08 10.16 53.84 10.4 53.84 10.64C53.84 10.96 54.16 11.12 54.48 11.12C54.96 11.28 55.36 10.96 55.44 10.4C55.44 10.48 55.44 10.48 55.44 10.4ZM57.04 9.91997C57.04 8.79997 57.6 8.07997 58.56 8.07997C59.04 8.07997 59.44 8.31997 59.68 8.71997H59.76V6.71997H60.48V11.76H59.76V11.2H59.68C59.44 11.6 59.04 11.84 58.56 11.84C57.68 11.84 57.04 11.12 57.04 9.91997ZM57.84 9.91997C57.84 10.72 58.16 11.12 58.8 11.12C59.44 11.12 59.76 10.64 59.76 9.91997C59.76 9.19997 59.36 8.71997 58.8 8.71997C58.16 8.71997 57.84 9.19997 57.84 9.91997ZM63.36 9.91997C63.28 8.95997 63.92 8.15997 64.88 8.07997C65.84 7.99997 66.64 8.63997 66.72 9.59997V9.91997C66.8 10.88 66.16 11.68 65.2 11.76C64.24 11.84 63.44 11.2 63.36 10.24V9.91997ZM66.08 9.91997C66.08 9.11997 65.76 8.71997 65.12 8.71997C64.48 8.71997 64.16 9.19997 64.16 9.91997C64.16 10.72 64.48 11.2 65.12 11.2C65.68 11.2 66.08 10.72 66.08 9.91997ZM67.76 8.15997H68.48V8.71997H68.56C68.72 8.31997 69.2 8.07997 69.6 8.07997C70.24 7.99997 70.8 8.47997 70.88 9.19997V11.76H70.16V9.59997C70.16 9.03997 69.92 8.71997 69.36 8.71997C68.88 8.71997 68.48 9.03997 68.48 9.51997V11.76H67.76V8.15997ZM74.8 7.27997V8.15997H75.6V8.79997H74.8V10.64C74.8 11.04 74.96 11.2 75.28 11.2H75.52V11.76H75.12C74.32 11.76 74 11.52 74 10.8V8.79997H73.44V8.23997H74V7.27997H74.8ZM76.56 6.71997H77.28V8.71997H77.36C77.52 8.31997 78 7.99997 78.48 8.07997C79.12 8.07997 79.68 8.55997 79.76 9.19997V11.76H79.04V9.59997C79.04 9.03997 78.8 8.71997 78.24 8.71997C77.76 8.71997 77.36 9.03997 77.36 9.51997V11.76H76.64V6.71997H76.56ZM83.84 10.8C83.68 11.44 82.96 11.92 82.32 11.84C81.44 11.84 80.64 11.12 80.64 10.24V9.99997C80.48 9.11997 81.12 8.23997 82.08 8.15997H82.32C83.36 8.15997 83.92 8.87997 83.92 9.99997V10.24H81.36V10.32C81.28 10.88 81.68 11.28 82.24 11.36H82.32C82.64 11.44 83.04 11.2 83.2 10.96H83.84V10.8ZM81.28 9.59997H83.12C83.12 9.11997 82.8 8.71997 82.32 8.63997H82.24C81.76 8.71997 81.28 9.11997 81.28 9.59997Z" fill="white"/>
</g>
<defs>
<clipPath id="clip0_1501_602">
<rect width="95.76" height="32" fill="white"/>
</clipPath>
</defs>
</svg>
