<?xml version="1.0" encoding="utf-8"?>
<!-- Generator: Adobe Illustrator 26.1.0, SVG Export Plug-In . SVG Version: 6.00 Build 0)  -->
<svg version="1.1" id="Layer_1" xmlns="http://www.w3.org/2000/svg" xmlns:xlink="http://www.w3.org/1999/xlink" x="0px" y="0px"
	 viewBox="0 0 601.2 499.8" style="enable-background:new 0 0 601.2 499.8;" xml:space="preserve">
<style type="text/css">
	.st0{opacity:0.107;}
	.st1{fill:#85BBCA;}
	.st2{fill:#FB735D;}
	.st3{fill:#0E3353;}
	.st4{fill:#E46450;}
	.st5{fill:#E26760;}
	.st6{fill:#F1BBA4;}
	.st7{fill:#E45454;}
</style>
<g id="Group_50832" transform="translate(601.286) rotate(90)" class="st0">
	<path id="Path_41656" class="st1" d="M488.3,198.7c0-91.5-40.3-191.8-90.5-197.9c-0.9-0.1-1.8-0.2-2.7-0.3
		c-71.9-6.3-117.5,54.9-182.6,73.6c-65.1,18.7-24.7-119.5-144.9-38c-34.2,27.1-93.7,84.8-54.9,251.2
		c-13.8,124.3-30.5,262.6,74.5,269c44.9,2.7,170.3,63.8,242.1,39.1c71.3-24.5,88.9-134.7,130.1-169
		C528.3,369.3,488.3,323,488.3,198.7z"/>
</g>
<g id="couple-AP" transform="translate(-654.557 -291.263)">
	<path id="Path_64572" class="st2" d="M973.6,480L973.6,480c-6.4,2.3-13.4-1-15.8-7.3l-8.3-22.7l11.6-4.2L973.6,480z"/>
	
		<rect id="Rectangle_21890" x="939.3" y="432.1" transform="matrix(0.866 -0.5 0.5 0.866 -94.7765 534.719)" class="st3" width="22.1" height="24.3"/>
	<path id="Path_64573" class="st3" d="M938.4,698.7c0,0,21.1-92.3,18.2-145.3l-5-47.3c0,0-20.7-3.6-31.4,6.1
		c-7.2,6.5-5.9,27.3-5.6,28.2L927.3,699L938.4,698.7z"/>
	<path id="Path_64574" class="st3" d="M897.2,699.5c0,0,30.4-91,32.4-144l0.2-38c0,0-37.1-16.1-37.2-19.7
		c-0.5-57.1-6.4,40.3-6.4,40.3v160.6L897.2,699.5z"/>
	<path id="Path_64575" class="st3" d="M911.4,372.9c-5.9,10.1-2.5,23.1,7.6,29.1c0,0,0,0,0.1,0c10.2,5.9,20.1,1.4,26-8.8
		c2.6-4.4,6.9-7.6,6.2-12.3c-1.1-6.6-5.1-12.3-10.8-15.8C930.3,359.3,917.3,362.8,911.4,372.9z"/>
	
		<rect id="Rectangle_21891" x="904.9" y="399.1" transform="matrix(0.3063 -0.9519 0.9519 0.3063 250.0773 1160.0813)" class="st4" width="32.3" height="18.8"/>
	<g id="Group_51025">
		<path id="Path_64576" class="st2" d="M929.9,372.5l21.4,8.6c-0.2-1.2,0.7,3.7-0.6,7.4l-4.8,13.6c-2.9,8-11.7,12.2-19.7,9.4l0,0
			c-8-2.9-12.2-11.7-9.4-19.7l3.2-9.3C920,382.4,926.8,371.2,929.9,372.5z"/>
	</g>
	<path id="Path_64577" class="st3" d="M966.3,393.5c-0.5,11.7,8.6,21.6,20.3,22.1c0.1,0,0.1,0,0.2,0c11.8,0.5,19.6-8.1,20-19.8
		c0.2-4.8,1.1-10-1.4-13.7c-3.9-5.5-10.2-8.9-17-9.1C976.6,372.5,966.7,381.7,966.3,393.5z"/>
	
		<rect id="Rectangle_21892" x="974" y="409.5" transform="matrix(0.213 -0.977 0.977 0.213 370.7826 1296.5051)" class="st4" width="32.3" height="17.1"/>
	<g id="Group_51026">
		<path id="Path_64578" class="st2" d="M984.1,383.4l21.3-1.5c1.4,2,2.4,4.4,2.9,6.8l2.1,14.3c1.3,8.4-0.8,16-13,17.5l0,0
			c-8.4,1.3-16.2-4.5-17.5-12.9c0,0,0,0,0-0.1l-1.5-9.8C978.4,397.8,980.8,383.7,984.1,383.4z"/>
	</g>
	<path id="Path_64579" class="st3" d="M883.3,530.3l-4.8-90.2c-0.2-12,8.7-22.1,22.2-22.4l6.6-0.1l12.1,3.8l10.3-4.2h2.1
		c13.6-0.2,24.7,9.3,24.9,21.2l4.4,86.4L883.3,530.3z"/>
	<path id="Path_64580" class="st5" d="M887.3,710.6h9.7l0.2-11.5l-9.7-0.3L887.3,710.6z"/>
	<path id="Path_64581" class="st3" d="M890.6,720.2h21.9c0-2.1-1.3-4.1-3.2-5c-1.9-0.9-7.2-2.6-10-3.6c-1.1-0.4-1.9-1.4-2-2.6
		l-0.1-1.4h-10.1v9.1C887.1,718.6,888.7,720.2,890.6,720.2z"/>
	<path id="Path_64582" class="st5" d="M928.3,710.6h9.7l0.2-11.5l-9.7-0.3L928.3,710.6z"/>
	<path id="Path_64583" class="st3" d="M931.6,720.2h21.9c0-2.1-1.3-4.1-3.2-5c-1.9-0.9-7.2-2.6-10-3.6c-1.1-0.4-1.9-1.4-2-2.6
		l-0.1-1.4h-10.1v9.1C928.1,718.6,929.7,720.2,931.6,720.2z"/>
	<path id="Path_64584" class="st5" d="M974.1,708.9h9.7l0.2-11.4l-9.7-0.3L974.1,708.9z"/>
	<path id="Path_64585" class="st3" d="M977.4,718.5h21.9c0-2.1-1.3-4.1-3.2-5c-1.9-0.9-7.2-2.6-10-3.6c-1.1-0.4-1.9-1.4-2-2.6
		l-0.1-1.4h-10.1v9.1C973.9,716.9,975.5,718.5,977.4,718.5z"/>
	<path id="Path_64586" class="st5" d="M1016.6,709.8l9.5-1.5l-1.6-11.4l-9.6,1.2L1016.6,709.8z"/>
	<path id="Path_64587" class="st3" d="M1019.7,719.6h21.9c0-2.1-1.3-4.1-3.2-5c-1.9-0.9-7.2-2.6-10-3.6c-1.1-0.4-1.9-1.4-2-2.6
		l-0.1-1.4h-10.1v9.1C1016.2,718,1017.8,719.6,1019.7,719.6z"/>
	<path id="Path_64588" class="st6" d="M993.2,431.5l-9.3-0.8c-10.2,0-18.4,8.2-18.4,18.4v11.2l4.8,52.3l30,8.8l9.2-58.2v-2.4
		C1009.7,450.7,1004.1,433.2,993.2,431.5z"/>
	<path id="Path_64589" class="st7" d="M1024.7,698.9l-23-186.3l-0.4,0.1v-0.1h-30.9l-2.2,5.4c-7.2,17.9-9.9,37.2-7.8,56.4
		l13.8,124.4h9.7l4.7-87.5l26.2,87.5L1024.7,698.9L1024.7,698.9z"/>
	<path id="Path_64590" class="st6" d="M1024.7,487.5L1024.7,487.5c-3.8,3.6-9.8,3.5-13.4-0.2c0,0,0,0-0.1-0.1l-38.7-41
		c-0.9-0.9-0.9-2.5,0-3.4l0.1-0.1l10.2-9.8c0.9-0.9,2.5-0.9,3.4,0l0.1,0.1l38.7,41C1028.6,477.8,1028.5,483.8,1024.7,487.5z"/>
	<path id="Path_64591" class="st3" d="M990.7,401.3l-5.1,0.7l-2.9-20.5l22.4,0.3l0,0c1.5,9.3-4.8,18-14.1,19.4
		C990.9,401.2,990.8,401.3,990.7,401.3z"/>
	<path id="Path_64592" class="st3" d="M992.6,406.3l-0.1-24.6l-20.4-0.6l-4.9,19.3l-0.1,0.1c-4,0.7-6.9,4.2-6.9,8.2
		c0,4.1,2.9,7.6,7,8.2l0.1,0.1l18.9,4.7c0.9,0.3,1.8,0.4,2.7,0.4c4.6,0,8.3-3.7,8.3-8.3l0,0C997.3,410.6,995.5,407.6,992.6,406.3z"
		/>
	<path id="Path_64593" class="st2" d="M997.5,410.5l0.7-0.1l-2.7-10.4l-2.1,0.5c-1.5,0.3-2.4,1.7-2.2,3.2l0.6,3.1
		C992.4,409.3,994.9,411,997.5,410.5z"/>
	<path id="Path_64594" class="st2" d="M917.3,393.3l0.7,0.3l3.7-10l-2-0.8c-1.4-0.6-3,0-3.6,1.4l0,0l-1.2,2.9
		c-1.1,2.3-0.1,5.1,2.2,6.1C917.2,393.2,917.2,393.3,917.3,393.3z"/>
	<path id="Path_64595" class="st2" d="M1010.3,402l-1.7,0.9l-3.5-6.6l3.9-2.1l2.3,4.4C1011.9,399.8,1011.5,401.3,1010.3,402
		L1010.3,402z"/>
	<path id="Path_64596" class="st2" d="M974.9,457.1c1.3-0.4,2.5-1.1,3.5-2.1l3.7-3.9c1-1.2,1.3-2.9,0.7-4.4
		c-0.9-2.1-2.7-2.6-3.8-2.2l-7.1,3.3c0.1-0.9-0.5-1.6-1.4-1.7c-0.3,0-0.6,0-0.8,0.1l-8.4,6.4l2.3,7.7L974.9,457.1z"/>
	<path id="Path_64597" class="st3" d="M920.9,383.2l-4.4-1.9l14.4-15.6l10.2,11.2l-5.8-2.2c-2.8-1.1-6,0.3-7.2,3.1l-1.3,3.1
		C925.8,383.1,923.1,384.2,920.9,383.2z"/>
	<path id="Path_64598" class="st2" d="M963.7,460.5l-11.6,4.4c-18.5,7-39.1,4.9-55.8-5.7l-7.6-4.8l11.8-13.8l1.6,1.2
		c13,9.9,29.4,14.4,45.6,12.4l13.7-1.7L963.7,460.5z"/>
	<path id="Path_64599" class="st4" d="M930.3,417.2l-23,0.4c0.3,4.3,3.9,7.6,8.2,7.5l6.9-0.1C926.6,424.8,930.1,421.4,930.3,417.2z"
		/>
	<path id="Path_64600" class="st2" d="M1006.6,462.4l-0.9-0.9c-1.8-1.7-1.8-4.5-0.1-6.3l0.1-0.1l2.3-2.3l7.3,7.3l-2.3,2.3
		C1011.3,464.1,1008.4,464.2,1006.6,462.4L1006.6,462.4z"/>
</g>
</svg>
