<?xml version="1.0" encoding="utf-8"?>
<!-- Generator: Adobe Illustrator 26.1.0, SVG Export Plug-In . SVG Version: 6.00 Build 0)  -->
<svg version="1.1" id="Layer_1" xmlns="http://www.w3.org/2000/svg" xmlns:xlink="http://www.w3.org/1999/xlink" x="0px" y="0px"
	 viewBox="0 0 601.2 499.8" style="enable-background:new 0 0 601.2 499.8;" xml:space="preserve">
<style type="text/css">
	.st0{opacity:0.107;}
	.st1{fill:#85BBCA;}
	.st2{fill:#E46450;}
	.st3{fill:#FB735D;}
	.st4{fill:#0E3353;}
	.st5{fill:#FFFFFF;}
	.st6{fill:#ECD9CD;}
	.st7{fill:#733444;}
	.st8{fill:#7C4949;}
</style>
<g id="Group_50832" transform="translate(601.286) rotate(90)" class="st0">
	<path id="Path_41656" class="st1" d="M488.3,198.7c0-91.5-40.3-191.8-90.5-197.9c-0.9-0.1-1.8-0.2-2.7-0.3
		c-71.9-6.3-117.5,54.9-182.6,73.6c-65.1,18.7-24.7-119.5-144.9-38c-34.2,27.1-93.7,84.8-54.9,251.2
		c-13.8,124.3-30.5,262.6,74.5,269c44.9,2.7,170.3,63.8,242.1,39.1c71.3-24.5,88.9-134.7,130.1-169
		C528.2,369.2,488.3,322.9,488.3,198.7z"/>
</g>
<g id="couple-DA" transform="translate(-681.7 -264.772)">
	
		<rect id="Rectangle_21893" x="991.7" y="412.9" transform="matrix(0.7071 -0.7071 0.7071 0.7071 0.5333 841.3264)" class="st2" width="48.3" height="14.3"/>
	<path id="Path_64666" class="st3" d="M1117.5,458.6l-16.1,56.2l1.6-53.9l-9.7-61.2l14.5-2.3L1117.5,458.6z"/>
	<ellipse id="Ellipse_2435" class="st4" cx="1080" cy="325.6" rx="17.6" ry="10.2"/>
	<path id="Path_64667" class="st3" d="M1083.5,628.5l12,2.7l-1.9,43.3l-8.6,0.6L1083.5,628.5z"/>
	<path id="Path_64668" class="st4" d="M1094.2,671.7L1094.2,671.7c-0.2,2.2,1.2,5.6,3.4,5.7c0,0,13.1,2,12.6,8.6l-21.2-1.5
		c-2.8-0.2-5-2.6-4.8-5.5l0,0l0.1-0.9l0.2-3.2l0.3-4L1094.2,671.7z"/>
	<path id="Path_64669" class="st3" d="M1028,628.5l12,2.7l-1.9,43.3l-8.6,0.6L1028,628.5z"/>
	<path id="Path_64670" class="st4" d="M1038.7,671.7L1038.7,671.7c-0.2,2.2,1.2,5.6,3.4,5.7c0,0,13.1,2,12.6,8.6l-21.2-1.5
		c-2.8-0.2-5-2.6-4.8-5.5l0,0l0.1-0.9l0.2-3.2l0.3-4L1038.7,671.7z"/>
	<path id="Path_64671" class="st4" d="M1081.8,344.4c-4,11.4-3,21.7-14.3,17.8s-16.7-18.9-12.8-30.3c4-11.4,15.8-14.8,27.1-10.8
		c5.4,2,9.9,5.9,12.6,11.1C1097.1,337.2,1083.9,338.5,1081.8,344.4z"/>
	
		<rect id="Rectangle_21894" x="1054.8" y="354.7" transform="matrix(9.230402e-02 -0.9957 0.9957 9.230402e-02 609.7252 1397.5814)" class="st2" width="33.2" height="19.3"/>
	<g id="Group_51036">
		<path id="Path_64672" class="st3" d="M1073,328.2l21.5,3.9c-0.5-1.1,1.6,3.5,1.2,7.5l-1.6,14.7c-0.9,8.6-5.3,15.3-14,14.3
			l-3.4-0.3c-6.4-1.1-14.9-8.7-14-17.3l1-10C1063.7,340.9,1069.7,327.6,1073,328.2z"/>
	</g>
	<path id="Path_64673" class="st4" d="M1062.7,339.5l-0.6,19.6l9.2-17.9c4.4,1,8.8-1.8,9.8-6.2v-0.1l1.5-7l-19.4-2.1L1062.7,339.5z"
		/>
	<path id="Path_64674" class="st3" d="M1069.6,351.8l0.7,0.2l2-10.7l-2.1-0.5c-1.4-0.4-2.9,0.4-3.4,1.8v0.1l-0.8,3.1
		C1065.4,348.5,1067,351.1,1069.6,351.8z"/>
	<path id="Path_64675" class="st5" d="M1081.1,358l4.3,0.5c1.3,0.2,2.2,1.3,2.1,2.6l0,0l-9.1-1.1l0,0
		C1078.7,358.8,1079.8,357.9,1081.1,358z"/>
	<path id="Path_64676" class="st4" d="M1081.8,375.1l-10.1-1.1c-3.4-0.4-6.3-2.5-7.8-5.6l-8.7-18.9l11.5,0.5l0.5,1.1
		c1.1,2.3,3.3,3.9,5.9,4.2l20.4,2.3l-1,9C1091.9,371.9,1087.2,375.7,1081.8,375.1C1081.9,375.1,1081.8,375.1,1081.8,375.1z"/>
	<path id="Path_64677" class="st3" d="M1087.9,361.2l-9.3-1.1l0,0c0.2-1.6,1.7-2.8,3.3-2.6l3.4,0.4c1.6,0.1,2.8,1.5,2.6,3.1
		C1087.9,361.1,1087.9,361.2,1087.9,361.2L1087.9,361.2z"/>
	<path id="Path_64678" class="st6" d="M1103.4,484.5l-69.7-0.2l-3.8-84.8c0-10.5,8.6-19.3,21.5-19.3l32.9-0.2
		c12.9,0,23.4,8.5,23.4,19L1103.4,484.5z"/>
	<path id="Path_64679" class="st7" d="M1104.6,494.3l-1.3-9.8l-69.7-0.2l-8,175l18,0.5l3.9-12c9.7-31.4,16.8-63.5,21.3-96
		l10.1,108.7h18.1l2.1-12.9C1106.9,599.6,1108.7,542.8,1104.6,494.3z"/>
	<path id="Path_64680" class="st2" d="M1071.9,408.4l-11.7-28.5h19.5L1071.9,408.4z"/>
	<path id="Path_64681" class="st6" d="M1054,398.2l-34.1,31.1l-13.6-13.7l30.9-30.9L1054,398.2z"/>
	<path id="Path_64682" class="st6" d="M1107.4,395l5.8,35l-17.5,6.5l1-38.8L1107.4,395z"/>
	<path id="Path_64683" class="st4" d="M1087.1,380.2v104.3h4V380.9C1089.8,380.6,1088.5,380.4,1087.1,380.2z M1049.6,484.4h4V380.1
		c-1.3,0-2.7,0.2-4,0.4V484.4z"/>
	<path id="Path_64684" class="st3" d="M1005.9,429.2l-13.2-37.9l-0.6-3.1l0.2-8c0.2-0.8-0.2-1.6-1-1.8l0,0c-0.3-0.1-1,0.6-1.3,0.8
		l-0.9-2.3c-1.3-3.3-3.9-4.4-6.6-2.9c-2.3,1.3-1.9,6-0.7,8.3l6,11.5l5.8,41.8c0.6,4.4,4.6,7.5,9,6.9c0.6-0.1,1.3-0.2,1.9-0.5h0.1
		L1005.9,429.2z"/>
	<path id="Path_64685" class="st3" d="M895.9,512l25,34.4l-8.5,66.3l-5.7,65.6l-8.6,0.7v-66.6L895.9,512z"/>
	<path id="Path_64686" class="st4" d="M907.2,675.5L907.2,675.5c-0.1,2.2,1.3,5.6,3.5,5.7c0,0,13.1,1.9,12.7,8.5l-21.2-1.3
		c-2.8-0.2-5-2.6-4.8-5.4l0.1-0.9l0.2-3.2l0.2-4L907.2,675.5z"/>
	<path id="Path_64687" class="st3" d="M875.8,514.1l20.2,31.3l-12.7,60.5l-26.4,69.6l-8.6-0.5l19.3-75.6L875.8,514.1z"/>
	<path id="Path_64688" class="st4" d="M857.9,672.8L857.9,672.8c-0.4,2.2,0.5,5.7,2.7,6.1c0,0,12.7,3.7,11.4,10.2l-20.9-4.1
		c-2.7-0.5-4.5-3.1-4-5.8c0-0.1,0-0.1,0-0.2l0.2-0.9l0.6-3.2l0.8-3.9L857.9,672.8z"/>
	<path id="Path_64689" class="st4" d="M893.8,339.4c-6.3,10.3-3.1,23.7,7.2,30c0,0,0.1,0,0.1,0.1c10.3,6.3,24.2,1.3,30.5-9
		s2.7-22.1-7.6-28.4C913.7,325.9,900.2,329.1,893.8,339.4z"/>
	
		<rect id="Rectangle_21895" x="885.9" y="362.9" transform="matrix(0.446 -0.895 0.895 0.446 166.5149 1014.1152)" class="st2" width="33.2" height="19.3"/>
	<g id="Group_51037">
		<path id="Path_64690" class="st3" d="M914.7,339.4l19.9,9.3c-0.2-1.2,0.6,3.8-0.8,7.6l-5.3,13.9c-3.1,8.2-9.1,13.5-17.3,10.4
			l-3.2-1.2c-8.2-3.1-12.3-12.3-9.2-20.5l3.5-9.5C902.4,349.4,911.7,337.9,914.7,339.4z"/>
	</g>
	<path id="Path_64691" class="st8" d="M930.7,601.8l-2.5-0.2c-10.9-1-20.5-7.5-25.3-17.3l-8.2-16.5l-5.9,11.1
		c-5.9,11.1-17.9,17.6-30.4,16.5l0,0l20.3-188.3l47.3,70.7L930.7,601.8z"/>
	<path id="Path_64692" class="st3" d="M924.3,371.8l2.3,1c1.6,0.7,3.5,0,4.2-1.6c0.2-0.4,0.3-0.8,0.3-1.2l0.3-6.3l-7.2-0.3
		L924.3,371.8z"/>
	<path id="Path_64693" class="st3" d="M911.4,364.7l0.7,0.2l2.6-10.7l-2.1-0.6c-1.4-0.5-3,0.3-3.5,1.8v0.1l-1,3.1
		C907.4,361.2,908.9,363.9,911.4,364.7z"/>
	<path id="Path_64694" class="st4" d="M914.7,356.9l-2.5-0.9l-11.8-8.4l6.5-15.2l15.1,1l12.5,15.3l0,0c-2.6-1.2-5.6-0.2-7,2.2
		l-2,3.5C923,358.1,918.1,358.4,914.7,356.9z"/>
	<path id="Path_64695" class="st4" d="M897,366.4L897,366.4l-1.6-1.7l5.2-21.4l15.5,6l-7.6,14.5C904.7,370.1,898.4,367.2,897,366.4z
		"/>
	<path id="Path_64696" class="st3" d="M910.3,366.9l0.7,0.3l3.8-10.3l-2-0.8c-1.4-0.6-3.1,0-3.7,1.4c0,0,0,0,0,0.1l-1.3,3
		C906.8,363,907.8,365.8,910.3,366.9L910.3,366.9z"/>
	<path id="Path_64697" class="st8" d="M903.3,385.5l-9.5,0.8c-10.3,1.7-14.2,3.8-15.6,21.7l-8.3,108.5l56.5-16l-1-85.4l-0.4-2.5
		C923.3,402.3,914.6,385.5,903.3,385.5z"/>
	<circle id="Ellipse_2436" class="st4" cx="879.9" cy="386.5" r="15.9"/>
	<path id="Path_64698" class="st4" d="M893.4,394.7l-26.1-18l26.1-36.8l14.5,24.9L893.4,394.7z"/>
	<path id="Path_64699" class="st3" d="M943.3,437.1c-0.2-0.4-14.8-26.8-14.8-26.8l-2.8-12.7c-0.6-2.6-3.1-4.3-5.7-3.8
		c-2.4,0.4-3.9,2.7-3.5,5.1c0.1,0.5,0.3,1,0.6,1.4l0.3,0.2c-0.3,0.1-0.6,0.2-0.8,0.5c-0.4,0.7-0.3,1.6,0.4,2l4.6,5.8l1.5,2.8
		c0,0,8.7,28.6,8.8,28.7c0,3.4,2.7,6.1,6.1,6.1s6.1-2.7,6.1-6.1C944.2,439.2,944,438.1,943.3,437.1z"/>
	<path id="Path_64700" class="st3" d="M934.2,445l-35.7-33.9l6.4-15.2l36.9,39.3L934.2,445z"/>
	
		<rect id="Rectangle_21896" x="900" y="396.9" transform="matrix(0.7071 -0.7071 0.7071 0.7071 -25.2746 764.129)" class="st8" width="19.5" height="31.4"/>
</g>
</svg>
