<?xml version="1.0" encoding="utf-8"?>
<!-- Generator: Adobe Illustrator 26.1.0, SVG Export Plug-In . SVG Version: 6.00 Build 0)  -->
<svg version="1.1" id="Layer_1" xmlns="http://www.w3.org/2000/svg" xmlns:xlink="http://www.w3.org/1999/xlink" x="0px" y="0px"
	 viewBox="0 0 601.3 499.8" style="enable-background:new 0 0 601.3 499.8;" xml:space="preserve">
<style type="text/css">
	.st0{opacity:0.107;}
	.st1{fill:#85BBCA;}
	.st2{fill:#733444;}
	.st3{fill:#0E3353;}
	.st4{fill:#FB735D;}
	.st5{fill:#E46450;}
	.st6{fill:#B7B3B4;}
</style>
<g id="Group_50832" transform="translate(601.286) rotate(90)" class="st0">
	<path id="Path_41656" class="st1" d="M488.3,198.6c0-91.5-40.3-191.8-90.5-197.9c-0.9-0.1-1.8-0.2-2.7-0.3
		C323.2-5.9,277.6,55.3,212.5,74C147.4,92.7,187.8-45.5,67.6,36c-34.2,27.1-93.7,84.8-54.9,251.2c-13.8,124.3-30.5,262.6,74.5,269
		c44.9,2.8,170.3,63.9,242.1,39.2c71.3-24.5,88.9-134.7,130.1-169C528.2,369.2,488.3,322.9,488.3,198.6z"/>
</g>
<g id="couple" transform="translate(-659.161 -300.572)">
	<path id="Path_64267" class="st2" d="M1046.7,443.1l-37.2-25.1l34.1-53.5l22,9.9L1046.7,443.1z"/>
	<path id="Path_64268" class="st3" d="M901.3,374.2c0.9,12.1-7.6,24.5-19.7,25.4s-23.1-9.9-24-22c-0.1-4.8,1-9.5,3.1-13.8
		c3.9-5.7,10.1-9.3,17-9.8c12-1,22.6,7.9,23.6,19.9C901.3,374.1,901.3,374.1,901.3,374.2z"/>
	<path id="Path_64269" class="st4" d="M812.1,525.8c0.3,0,0.7,0.1,1,0.1c0.8,1,2,1.5,3.3,1.3c1.8-0.1,3.9-0.3,6.1-0.5
		c0.5,0,1,0,1.5,0.1l-17.2,28.6l-3.6,12.5c-0.8,2.5-3.3,4.1-5.9,3.5c-2.3-0.6-3.7-3-3.1-5.3c0.1-0.5,0.3-0.9,0.6-1.4l1.7-2.7
		l-1.9,1.2c-0.6,0.4-1.4,0.3-1.8-0.3c0,0,0-0.1-0.1-0.1c-0.4-0.6-0.2-1.5,0.5-1.9l0,0l6.7-4.3l1.7-2.7L812.1,525.8z"/>
	<path id="Path_64270" class="st4" d="M957.2,507.7c-0.3,0.1-0.7,0.2-1,0.3c-0.6,1.1-1.8,1.7-3,1.8c-1.8,0.2-3.9,0.4-6.1,0.5
		l-1.5,0.3l21.6,25.3l5.6,11.7c1.1,2.4,4,3.5,6.4,2.4c2.2-1,3.2-3.6,2.2-5.8c-0.2-0.5-0.5-0.9-0.8-1.2l-2.1-2.4l2.1,0.9
		c0.7,0.3,1.6,0,1.9-0.7s-0.1-1.5-0.8-1.8l-7.3-3.1l-2.1-2.4L957.2,507.7z"/>
	<path id="Path_64271" class="st4" d="M877.4,670.2l-12.1,2.4l0.6,43.4l8.6,0.8L877.4,670.2z"/>
	<path id="Path_64272" class="st3" d="M865.4,713.2L865.4,713.2c0.1,2.2-1.4,5.6-3.6,5.6c0,0-13.2,1.6-12.9,8.3l21.3-0.8
		c2.8-0.1,5-2.5,4.9-5.3v-0.9l-0.1-3.2l-0.2-4L865.4,713.2z"/>
	<path id="Path_64273" class="st4" d="M1053.7,551.2l31.4,30.8l-5,66.7l-2.1,65.9l-8.5,1.1l-3.6-66.5L1053.7,551.2z"/>
	<path id="Path_64274" class="st3" d="M1078.4,711.8L1078.4,711.8c0,2.2,1.6,5.5,3.8,5.5c0,0,13.2,1.2,13.2,7.8l-21.3-0.1
		c-2.8,0-5.1-2.3-5.1-5.2l0,0v-8.1L1078.4,711.8z"/>
	<path id="Path_64275" class="st4" d="M1037.9,548.4l18.3,28.9l-10.7,57.4l-32.4,76.3l-8.6-1.1l24.2-79.9L1037.9,548.4z"/>
	<path id="Path_64276" class="st3" d="M1014.2,708.4L1014.2,708.4c-0.6,2.1,0.1,5.7,2.3,6.3c0,0,12.5,4.5,10.8,10.9l-20.6-5.5
		c-2.7-0.7-4.3-3.5-3.6-6.2v-0.1l0.2-0.8l0.8-3.1l1-3.9L1014.2,708.4z"/>
	<path id="Path_64277" class="st4" d="M939.3,662.4l-10.6,6.1l14.6,40.9l8.4-2L939.3,662.4z"/>
	<path id="Path_64278" class="st3" d="M941.9,706.9L941.9,706.9c0.8,2.1,0.5,5.7-1.6,6.5c0,0-11.9,5.8-9.5,12l19.8-7.7
		c2.6-1,3.9-4,2.9-6.6l-0.3-0.8l-1.2-3l-1.4-3.7L941.9,706.9z"/>
	<path id="Path_64279" class="st3" d="M856.7,639.9h23l-4.6,67.3h-18.4V639.9z"/>
	<path id="Path_64280" class="st3" d="M909.1,640.9l21.4-8.5l20.5,64.3l-17,6.8L909.1,640.9z"/>
	
		<rect id="Rectangle_21859" x="869.2" y="384.9" transform="matrix(0.9854 -0.1701 0.1701 0.9854 -55.4907 155.3397)" class="st5" width="19.3" height="33.2"/>
	<g id="Group_50833">
		<path id="Path_64281" class="st4" d="M882.7,364.6l-22-0.7c0.7-1-2.3,3.1-2.7,7.1l-2.1,19.5c-1,8.7,5.8,11.8,14.6,12.8l0,0
			c8.7,1,16.5-5.2,17.5-13.9c0-0.1,0-0.1,0-0.2l1.2-10.1C889.1,379.1,886.1,364.7,882.7,364.6z"/>
	</g>
	<path id="Path_64282" class="st2" d="M1039.6,376.2c-0.5,12.1,8.8,22.3,20.9,22.9c12.1,0.5,21.8-10.5,22.3-22.6
		s-8.3-20.6-20.4-21.2C1050.4,354.8,1040.1,364.1,1039.6,376.2L1039.6,376.2z"/>
	
		<rect id="Rectangle_21860" x="1046.5" y="396.2" transform="matrix(0.1701 -0.9854 0.9854 0.1701 482.2856 1384.4214)" class="st5" width="33.2" height="19.3"/>
	<g id="Group_50834">
		<path id="Path_64283" class="st4" d="M1057.9,366l21.9-1.5c1.5,2.1,2.5,4.5,3,7l2.1,14.7c1.2,8.7-1.4,15.9-10.1,17.1l-3.4,0.9
			c-8.7,1.2-16.7-4.8-18-13.5l-1.5-10.1C1052,380.8,1054.5,366.3,1057.9,366z"/>
	</g>
	<path id="Path_64284" class="st6" d="M945.3,481.5l24.5,43.5l-7.4,10.7L929.8,496L899,447.2l23.7-17.1L945.3,481.5z"/>
	<path id="Path_64285" class="st6" d="M820.3,502.2l-20.4,45.6l8.4,10l28.7-42.5l26.1-51.5l-22-29.7L820.3,502.2z"/>
	<path id="Path_64286" class="st6" d="M943,662.3H810L840.6,439c0-12.3,9.7-22.6,24.3-22.6h33.5c14.6,0,26.3,10,26.3,22.3l0.3,74
		L943,662.3z"/>
	<path id="Path_64287" class="st3" d="M1094.3,606.2l-82.4,0.3l21.7-126.2l-6-29.4l-6.5-11.4c0-12.3,4.7-22.8,19.2-22.8h33.5
		c14.6,0,26.3,10,26.3,22.3l-11.5,38.4L1094.3,606.2z"/>
	<circle id="Ellipse_2424" class="st3" cx="864.3" cy="359.1" r="6.9"/>
	<path id="Path_64288" class="st4" d="M990.5,542.7l6.4-10.9l17.4-65.3c1.1-3.9,12.2,6.9,12.2,6.9l-24.6,60.8l-0.7,3l1.7,7.4
		c0.2,0.8-0.3,1.5-1,1.7s-1.5-0.3-1.7-1l-0.5-2.1l-0.7,3c-0.6,2.4-3.1,3.9-5.5,3.3c-0.4-0.1-0.7-0.2-1.1-0.4c-2.3-1.2-3.2-3.9-2-6.2
		C990.4,542.8,990.5,542.8,990.5,542.7z"/>
	<path id="Path_64289" class="st3" d="M891,377l-1.2,19.9l-8.1,3.6c-3.4,1.6-7.6,0.1-9.2-3.3c-0.2-0.5-0.4-1-0.5-1.6l-2.8-13.1
		c-0.5-3.2-3.3-5.5-6.5-5.5l0,0c-1.1,0-2-0.9-2-2v-11.2H891L891,377L891,377z"/>
	<path id="Path_64290" class="st6" d="M896.8,408.2l-32.2,3.2l2.2,5h31.6L896.8,408.2z"/>
	<path id="Path_64291" class="st3" d="M1025.7,477.5l-16.3-6l13.9-37.4l16.2,6L1025.7,477.5z"/>
	<path id="Path_64292" class="st4" d="M1104,494c-0.3,0.1-5.1-27.4-5.4-27.3c-0.6,0.9-9.9-0.9-12.2-0.8c-0.4,0.1,4.4,22.7,5.6,30
		c0.3,1.6,1,3.1,2,4.4l18.9,22.4l5.2,11.9c1.1,2.4,3.8,3.6,6.3,2.7c2.2-0.9,3.3-3.5,2.4-5.7c-0.2-0.5-0.5-0.9-0.8-1.3l-3.7-1.1
		l2.1,1c0.7,0.3,1.5,0.1,1.9-0.6c0.3-0.7,0-1.5-0.7-1.9l-5.6-4.8l-2-2.5L1104,494z"/>
	
		<rect id="Rectangle_21861" x="1083.6" y="437.9" transform="matrix(0.9992 -4.035791e-02 4.035791e-02 0.9992 -17.5713 44.4538)" class="st3" width="17.3" height="39.1"/>
	<path id="Path_64293" class="st2" d="M1068.6,385.6L1068.6,385.6l-18.1,50.8l-28-12.9L1048,366l19.9-2.3l12,0.9v1.3
		C1080.1,374.1,1075.8,381.7,1068.6,385.6z"/>
	<circle id="Ellipse_2425" class="st2" cx="1029.3" cy="429" r="22.6"/>
	<path id="Path_64294" class="st3" d="M925,507.9h-63.2c-3,0-5.7,2-6.5,4.9l-16.1,57.1c-0.6,2.1,0.6,4.2,2.7,4.8h0.1
		c2.1,0.4,4.1-0.9,4.6-2.9l14.5-51.3c0.8-2.9,3.5-4.9,6.5-4.9h57.7L925,507.9z"/>
	<rect id="Rectangle_21862" x="867" y="505" class="st6" width="3" height="13.8"/>
	<rect id="Rectangle_21863" x="919.7" y="504.7" class="st6" width="3" height="13.8"/>
	<path id="Path_64295" class="st4" d="M858.4,387l-2.4-0.5c-1.7-0.4-2.8-2-2.5-3.8c0.1-0.4,0.2-0.8,0.5-1.1l3.5-5.3l6,3.9L858.4,387
		z"/>
	<path id="Path_64296" class="st4" d="M1081.5,389.5l2.5-0.2c1.8-0.1,3.1-1.7,2.9-3.4c0-0.4-0.1-0.8-0.3-1.2l-2.8-5.7l-6.4,3.2
		L1081.5,389.5z"/>
	<path id="Path_64297" class="st3" d="M895.3,365h-26.5l-3.7-12.8l17.9,2L895.3,365z"/>
	<path id="Path_64298" class="st3" d="M880.9,401l-9.7,4.2c-5.6,2.4-12.2-0.1-14.6-5.7c-0.7-1.6-1-3.3-0.9-5l0.1-4.1l15.9,1.5
		l7.1,2.8L880.9,401z"/>
	<path id="Path_64299" class="st4" d="M1071.5,395.2l0.7-0.1l-1.5-10.9l-2.2,0.2c-1.5,0.1-2.7,1.5-2.6,3l0.3,3.2
		C1066.4,393.3,1068.8,395.4,1071.5,395.2z"/>
</g>
</svg>
