<svg xmlns="http://www.w3.org/2000/svg" width="105.893" height="105.893" viewBox="0 0 105.893 105.893">
  <path id="PDS_Icon_purple" d="M111.493,56.67a52.949,52.949,0,1,0-31.906,48.662c.153,0,.344.038.5.038v-.23A53.14,53.14,0,0,0,111.493,56.67Zm-52.87,48.05a47.431,47.431,0,0,1-9.947-1.033,20.271,20.271,0,0,0,5.2-3.749,22.1,22.1,0,0,0,4.782-7.422,22.156,22.156,0,0,0,4.361,6.465,20.547,20.547,0,0,0,6.618,4.438A49.626,49.626,0,0,1,58.623,104.72ZM72.242,72.125c-5.432.191-8.8,1.722-10.9,3.367,1.224-3.826,4.285-8.569,12.012-8.569H85.594c-1.071,3.826-4.476,11.133-15.111,11.133H62.908c1.569-1.377,4.4-2.793,9.449-2.984a1.487,1.487,0,0,0,1.415-1.53A1.514,1.514,0,0,0,72.242,72.125ZM58.47,33.716a5.263,5.263,0,0,1-1.148-3.252h0a5.226,5.226,0,0,1,1.109-3.252,5.263,5.263,0,0,1,1.148,3.252A5.469,5.469,0,0,1,58.47,33.716ZM44.927,59.386c4.093.153,6.733,1.109,8.416,2.219H43.665c-9.526,0-11.974-7.307-12.625-11.018H40.8c8.608,0,12.472,4.744,14.231,8.569-2.1-1.415-5.279-2.6-9.985-2.754a1.514,1.514,0,0,0-1.53,1.415A1.472,1.472,0,0,0,44.927,59.386Zm32.939,41.24c-4.82-.383-8.684-2.028-11.515-4.9C61.8,91.139,60.957,84.52,60.8,82.225h9.717c14.308,0,19.166-11.247,19.7-17.215l.23-2.3H73.39c-5.968,0-9.985,2.3-12.586,5.318V54.757h8.072A12.274,12.274,0,0,0,81.615,43.586l.23-2.257H70.6c-5.356,0-8.3,2.793-9.794,5.891V36.968a9.15,9.15,0,0,0-1.186-14l-1.109-.8-1.109.8a9.162,9.162,0,0,0-3.9,7.5,9.056,9.056,0,0,0,2.716,6.465V53.15c-3.06-3.711-7.919-6.733-15.341-6.733H26.679v2.1c.038,5.93,3.673,17.215,16.986,17.215H56.136V82.378c0,.077.038,8.646-5.547,14.308a16.784,16.784,0,0,1-9.6,4.667,47.966,47.966,0,1,1,36.879-.727ZM63.9,50.587A6.351,6.351,0,0,1,70.521,45.5h6.274c-.88,2.181-2.984,5.088-8.034,5.088Z" transform="translate(-5.6 -3.8)" fill="#d5b8d8"/>
</svg>
