<?xml version="1.0" encoding="utf-8"?>
<!-- Generator: Adobe Illustrator 26.0.2, SVG Export Plug-In . SVG Version: 6.00 Build 0)  -->
<svg version="1.1" id="Layer_1" xmlns="http://www.w3.org/2000/svg" xmlns:xlink="http://www.w3.org/1999/xlink" x="0px" y="0px"
	 viewBox="0 0 500 500" style="enable-background:new 0 0 500 500;" xml:space="preserve">
    <style type="text/css">
	.logo{fill:#89509E;}
</style>
    <path class="logo" d="M500.5,249.5C500.2,111.6,387.9-0.3,250.1-0.1C112.2,0.1,0.2,112.4,0.5,250.2C0.7,388.1,113,500.1,250.8,499.9
	c35.1-0.1,68.6-7.4,98.9-20.6c0.8,0,1.6,0.1,2.4,0.1v-1.2C439.6,439.1,500.6,351.3,500.5,249.5z M250.8,476.4
	c-16.1,0-31.8-1.7-47-4.9c9.1-4.6,17.4-10.5,24.6-17.8c10.7-10.8,17.8-23.2,22.6-35c4.7,10.4,11.3,21.1,20.7,30.5
	c8.9,9,19.4,15.9,31.3,20.9C286.2,474.2,268.8,476.4,250.8,476.4z M315.1,322.6c-25.7,0.9-41.6,8.1-51.4,16
	c5.8-18,20.3-40.5,56.7-40.5h57.9c-5,18.1-21,52.6-71.4,52.6H271c7.4-6.5,20.7-13.2,44.5-14.1c3.9-0.1,6.9-3.4,6.8-7.3
	C322.2,325.5,318.9,322.5,315.1,322.6z M250,141.2c-3.4-4.3-5.3-9.7-5.3-15.3v0c0-5.6,1.9-11,5.3-15.3c3.4,4.3,5.3,9.7,5.4,15.3
	C255.3,131.4,253.4,136.8,250,141.2z M186.1,262.4c19.3,0.7,31.8,5.3,39.7,10.4h-45.6c-45,0-56.6-34.4-59.5-51.9h46
	c40.6,0,58.9,22.4,67.1,40.4c-10-6.6-24.9-12.2-47.2-13c-3.8-0.1-7.1,2.9-7.3,6.8C179.2,259,182.2,262.2,186.1,262.4z M341.6,457.2
	c-22.7-1.8-41-9.5-54.4-23.1c-21.5-21.7-25.5-52.8-26.2-63.8h45.8c67.6,0,90.5-53.1,93.1-81.2l1-10.8h-80.6
	c-28.1,0-47.1,10.8-59.5,25.2v-63h38.1c43.7,0,58.5-34.5,60.2-52.7l1-10.7h-53c-25.3,0-39.2,13.2-46.2,27.7v-48.3
	c8.1-8.1,12.9-19.1,12.9-30.7c0-14.1-7-27.3-18.5-35.4l-5.3-3.7l-5.3,3.7c-11.5,8.1-18.4,21.4-18.4,35.5c0,11.6,4.8,22.5,12.9,30.5
	V233c-14.4-17.5-37.3-31.7-72.4-31.7H100l0.1,9.9c0.2,28.1,17.3,81.2,80.1,81.2h58.9v78.6c0,0.4,0.2,40.8-26.2,67.5
	c-11.6,11.8-26.8,19.2-45.4,22.1C83.6,427.4,24.1,345.7,23.9,250.2C23.7,125.3,125.2,23.5,250.1,23.3
	C375,23.1,476.8,124.6,477,249.5C477.1,342.1,421.4,422,341.6,457.2z M275.8,220.9c2.7-10.1,10.2-24.1,31.3-24.1h29.7
	c-4.1,10.3-14,24.1-37.9,24.1H275.8z"/>
</svg>