<svg width="220" height="80" viewBox="0 0 220 80" fill="none" xmlns="http://www.w3.org/2000/svg">
<path d="M92.7481 22.6236V7.71387H98.1719C99.3983 7.71387 100.407 7.93193 101.17 8.3953C101.933 8.85867 102.505 9.43107 102.86 10.167C103.214 10.903 103.405 11.6662 103.405 12.5111C103.405 13.5742 103.159 14.4464 102.696 15.1824C102.206 15.9183 101.606 16.4362 100.843 16.8178C100.08 17.1721 99.2348 17.3629 98.3626 17.3629H96.0732V22.6236H92.7481ZM96.046 14.6372H98.0083C98.6079 14.6372 99.0985 14.4464 99.4801 14.0648C99.8616 13.6832 100.025 13.1926 100.025 12.5929C100.025 11.966 99.8344 11.4481 99.4801 11.0665C99.0985 10.6849 98.6079 10.4668 97.9811 10.4668H96.046V14.6372V14.6372Z" fill="#D5B8D8"/>
<path d="M112.181 19.4616L113.489 21.5059C113.353 21.6149 113.08 21.7785 112.699 22.0238C112.317 22.2691 111.827 22.4872 111.2 22.7052C110.573 22.9233 109.81 23.0051 108.91 23.0051C107.711 23.0051 106.703 22.7597 105.83 22.2964C104.958 21.833 104.304 21.1516 103.841 20.3066C103.378 19.4616 103.159 18.4804 103.159 17.3901C103.159 16.4088 103.378 15.4821 103.786 14.6371C104.195 13.7921 104.822 13.1107 105.64 12.5928C106.457 12.0749 107.411 11.8296 108.556 11.8296C109.701 11.8296 110.627 12.0749 111.418 12.5928C112.181 13.1107 112.753 13.8194 113.162 14.7189C113.544 15.6183 113.762 16.6541 113.762 17.8262V18.3713H106.294C106.321 18.9165 106.566 19.4071 107.057 19.8432C107.548 20.2793 108.202 20.4974 109.047 20.4974C109.891 20.4974 110.546 20.3611 111.091 20.1158C111.554 19.8432 111.936 19.6252 112.181 19.4616ZM106.267 16.2725H110.682C110.682 15.9727 110.6 15.6729 110.437 15.373C110.273 15.0732 110.055 14.8006 109.728 14.6098C109.401 14.3918 108.992 14.31 108.501 14.31C108.011 14.31 107.602 14.419 107.248 14.6098C106.893 14.8006 106.648 15.0732 106.485 15.373C106.348 15.6729 106.267 15.9727 106.267 16.2725Z" fill="#D5B8D8"/>
<path d="M115.097 22.6235V12.1294H118.177L118.286 13.4378C118.558 13.0834 118.913 12.7291 119.403 12.402C119.867 12.0749 120.466 11.9114 121.229 11.9114C121.502 11.9114 121.747 11.9386 121.965 11.9659C122.156 11.9931 122.374 12.0477 122.565 12.1294L122.02 14.9914C121.693 14.8824 121.311 14.8279 120.848 14.8279C120.085 14.8279 119.485 15.046 118.995 15.5093C118.531 15.9727 118.286 16.5996 118.286 17.4446V22.6235H115.097Z" fill="#D5B8D8"/>
<path d="M122.756 21.4516L124.336 19.4073C124.691 19.7071 125.127 19.9797 125.699 20.1977C126.244 20.4158 126.789 20.4975 127.307 20.4975C127.771 20.4975 128.179 20.443 128.479 20.3067C128.779 20.1705 128.943 19.9524 128.943 19.6253C128.943 19.4345 128.888 19.271 128.752 19.1347C128.615 18.9984 128.397 18.8894 128.043 18.7531C127.689 18.6168 127.171 18.4533 126.517 18.2897C125.972 18.1534 125.454 17.9354 124.963 17.6901C124.473 17.4447 124.064 17.0904 123.737 16.6815C123.41 16.2454 123.246 15.7275 123.246 15.0734C123.246 14.4192 123.437 13.8468 123.819 13.3562C124.2 12.8655 124.745 12.4839 125.399 12.2113C126.081 11.9388 126.817 11.8025 127.662 11.8025C128.561 11.8025 129.351 11.9115 130.033 12.1023C130.714 12.2931 131.314 12.5929 131.886 12.9746L130.523 15.1006C130.196 14.8826 129.815 14.6645 129.351 14.501C128.888 14.3374 128.397 14.2284 127.852 14.2284C127.362 14.2284 127.007 14.3102 126.789 14.4464C126.571 14.5827 126.462 14.7735 126.462 15.0188C126.462 15.3732 126.708 15.6185 127.171 15.782C127.634 15.9456 128.261 16.1364 129.024 16.3272C130.087 16.5998 130.85 17.0086 131.341 17.5538C131.832 18.0717 132.077 18.7803 132.077 19.6526C132.077 20.4158 131.859 21.0427 131.395 21.5333C130.959 22.024 130.36 22.4056 129.651 22.6509C128.943 22.8962 128.207 23.0052 127.416 23.0052C126.49 23.0052 125.59 22.8689 124.745 22.6236C123.955 22.3238 123.274 21.9422 122.756 21.4516Z" fill="#D5B8D8"/>
<path d="M132.676 17.363C132.676 16.3272 132.922 15.4004 133.385 14.5555C133.848 13.7105 134.53 13.0291 135.375 12.5384C136.22 12.0478 137.201 11.8025 138.318 11.8025C139.436 11.8025 140.417 12.0478 141.262 12.5384C142.107 13.0291 142.761 13.7105 143.224 14.5555C143.687 15.4004 143.933 16.3544 143.933 17.363C143.933 18.3987 143.687 19.3255 143.224 20.1705C142.761 21.0154 142.107 21.6969 141.262 22.2148C140.417 22.7326 139.436 22.978 138.318 22.978C137.201 22.978 136.22 22.7326 135.375 22.2148C134.53 21.6969 133.876 21.0427 133.385 20.1705C132.922 19.3255 132.676 18.3987 132.676 17.363ZM138.291 20.1977C138.836 20.1977 139.299 20.0614 139.654 19.7889C140.008 19.5163 140.308 19.1619 140.499 18.7258C140.689 18.2897 140.798 17.8263 140.798 17.363C140.798 16.8996 140.689 16.4362 140.499 16.0001C140.308 15.564 140.035 15.2369 139.654 14.9643C139.299 14.6918 138.836 14.5555 138.291 14.5555C137.746 14.5555 137.31 14.6918 136.928 14.9643C136.547 15.2369 136.274 15.5912 136.056 16.0001C135.865 16.4362 135.756 16.8723 135.756 17.363C135.756 17.8536 135.865 18.2897 136.056 18.7258C136.247 19.1619 136.547 19.5163 136.928 19.7889C137.31 20.0614 137.773 20.1977 138.291 20.1977Z" fill="#D5B8D8"/>
<path d="M144.941 22.6236V12.1296H148.021L148.103 13.2744C148.457 12.8655 148.893 12.5112 149.465 12.2659C150.038 12.0206 150.61 11.8843 151.21 11.8843C152.409 11.8843 153.363 12.2386 154.071 12.9473C154.78 13.656 155.134 14.719 155.134 16.1091V22.6236H151.918V16.5998C151.918 16.0274 151.782 15.564 151.482 15.2097C151.182 14.8553 150.774 14.6918 150.256 14.6918C149.547 14.6918 149.029 14.9098 148.648 15.3732C148.293 15.8366 148.103 16.3817 148.103 16.9814V22.6236H144.941Z" fill="#D5B8D8"/>
<path d="M163.202 22.6235L163.12 21.6422C162.384 22.5144 161.321 22.9505 159.959 22.9505C159.468 22.9505 158.95 22.8688 158.405 22.678C157.86 22.4872 157.397 22.1601 157.015 21.6967C156.633 21.2333 156.443 20.5519 156.443 19.7342C156.443 18.9165 156.661 18.235 157.069 17.6626C157.506 17.0902 158.078 16.6814 158.814 16.3815C159.55 16.0817 160.367 15.9454 161.267 15.9454C161.648 15.9454 162.003 15.9454 162.384 15.9727C162.766 15.9999 163.011 15.9999 163.12 16.0272V15.8091C163.12 15.264 162.902 14.8824 162.493 14.6643C162.084 14.4463 161.621 14.31 161.103 14.31C160.395 14.31 159.822 14.3918 159.332 14.5826C158.841 14.7734 158.459 14.9642 158.132 15.1822L156.824 13.2197C157.26 12.8654 157.833 12.5655 158.596 12.2657C159.332 11.9659 160.34 11.8296 161.567 11.8296C163.147 11.8296 164.347 12.2657 165.11 13.1107C165.873 13.9557 166.254 15.1277 166.254 16.5723V22.6235H163.202ZM163.12 18.8347V17.9897C163.038 17.9625 162.902 17.9625 162.684 17.9352C162.466 17.908 162.248 17.908 161.975 17.908C161.076 17.908 160.449 18.0442 160.068 18.2896C159.686 18.5349 159.522 18.8892 159.522 19.3526C159.522 20.2248 160.04 20.6609 161.076 20.6609C161.594 20.6609 162.057 20.4974 162.466 20.1976C162.902 19.8705 163.12 19.4344 163.12 18.8347Z" fill="#D5B8D8"/>
<path d="M167.644 22.6236V7.71387H170.86V22.6236H167.644Z" fill="#D5B8D8"/>
<path d="M92.7481 47.0462V32.1365H98.3899C99.9162 32.1365 101.279 32.409 102.478 32.9269C103.677 33.4448 104.631 34.2625 105.313 35.3801C105.994 36.4976 106.348 37.915 106.348 39.6595C106.348 41.2949 105.994 42.6578 105.313 43.7481C104.631 44.8383 103.677 45.6561 102.478 46.2012C101.279 46.7464 99.9162 47.0189 98.3899 47.0189H92.7481V47.0462ZM96.1277 44.0479H98.1719C99.6709 44.0479 100.816 43.6663 101.606 42.8758C102.424 42.0854 102.805 41.0223 102.805 39.6595C102.805 38.2966 102.424 37.1791 101.688 36.3613C100.952 35.5436 99.7526 35.1075 98.1446 35.1075H96.1005V44.0479H96.1277Z" fill="#D5B8D8"/>
<path d="M116.078 43.8842L117.386 45.9285C117.25 46.0375 116.978 46.2011 116.596 46.4464C116.215 46.6917 115.724 46.9098 115.097 47.1278C114.47 47.3459 113.707 47.4277 112.808 47.4277C111.608 47.4277 110.6 47.1824 109.728 46.719C108.856 46.2556 108.202 45.5742 107.738 44.7292C107.275 43.8842 107.057 42.903 107.057 41.8127C107.057 40.8314 107.275 39.9047 107.684 39.0597C108.12 38.2147 108.719 37.5333 109.537 37.0154C110.355 36.4975 111.309 36.2522 112.453 36.2522C113.598 36.2522 114.525 36.4975 115.315 37.0154C116.078 37.5333 116.651 38.242 117.059 39.1415C117.441 40.041 117.659 41.0767 117.659 42.2488V42.7939H110.191C110.218 43.3391 110.464 43.8297 110.954 44.2658C111.445 44.7019 112.099 44.92 112.944 44.92C113.789 44.92 114.443 44.7837 114.988 44.5384C115.479 44.2658 115.86 44.0478 116.078 43.8842ZM110.164 40.6951H114.579C114.579 40.3953 114.497 40.0955 114.334 39.7956C114.17 39.4958 113.952 39.2232 113.625 39.0324C113.298 38.8144 112.889 38.7326 112.399 38.7326C111.908 38.7326 111.499 38.8416 111.145 39.0324C110.818 39.2505 110.546 39.4958 110.382 39.7956C110.246 40.0955 110.164 40.3953 110.164 40.6951Z" fill="#D5B8D8"/>
<path d="M121.775 47.046L117.359 36.552H120.93L123.41 43.4481L125.808 36.552H129.324L124.827 47.046H121.775Z" fill="#D5B8D8"/>
<path d="M138.127 43.8842L139.436 45.9285C139.299 46.0375 139.027 46.2011 138.645 46.4464C138.264 46.6917 137.773 46.9098 137.146 47.1278C136.519 47.3459 135.756 47.4277 134.857 47.4277C133.658 47.4277 132.649 47.1824 131.777 46.719C130.905 46.2556 130.251 45.5742 129.787 44.7292C129.324 43.8842 129.106 42.903 129.106 41.8127C129.106 40.8314 129.324 39.9047 129.733 39.0597C130.169 38.2147 130.769 37.5333 131.586 37.0154C132.404 36.4975 133.358 36.2522 134.503 36.2522C135.647 36.2522 136.574 36.4975 137.364 37.0154C138.127 37.5333 138.7 38.242 139.109 39.1415C139.49 40.041 139.708 41.0767 139.708 42.2488V42.7939H132.24C132.268 43.3391 132.513 43.8297 133.004 44.2658C133.494 44.7019 134.148 44.92 134.993 44.92C135.838 44.92 136.492 44.7837 137.037 44.5384C137.501 44.2658 137.882 44.0478 138.127 43.8842ZM132.213 40.6951H136.628C136.628 40.3953 136.547 40.0955 136.383 39.7956C136.22 39.4958 136.002 39.2232 135.674 39.0324C135.347 38.8144 134.939 38.7326 134.448 38.7326C133.957 38.7326 133.549 38.8416 133.194 39.0324C132.867 39.2505 132.595 39.4958 132.431 39.7956C132.295 40.0955 132.213 40.3953 132.213 40.6951Z" fill="#D5B8D8"/>
<path d="M141.044 47.0462V32.1365H144.26V47.0462H141.044Z" fill="#D5B8D8"/>
<path d="M145.732 41.8127C145.732 40.7769 145.977 39.8502 146.44 39.0052C146.903 38.1602 147.585 37.4788 148.43 36.9881C149.275 36.4975 150.256 36.2522 151.373 36.2522C152.491 36.2522 153.472 36.4975 154.317 36.9881C155.162 37.4788 155.816 38.1602 156.279 39.0052C156.742 39.8502 156.988 40.8042 156.988 41.8127C156.988 42.8484 156.742 43.7752 156.279 44.6202C155.816 45.4651 155.162 46.1466 154.317 46.6645C153.472 47.1824 152.491 47.4277 151.373 47.4277C150.256 47.4277 149.275 47.1824 148.43 46.6645C147.585 46.1466 146.931 45.4924 146.44 44.6202C145.95 43.7752 145.732 42.8212 145.732 41.8127ZM151.346 44.6202C151.891 44.6202 152.354 44.4839 152.709 44.2113C153.063 43.9387 153.363 43.5844 153.554 43.1483C153.744 42.7122 153.853 42.2488 153.853 41.7854C153.853 41.322 153.744 40.8587 153.554 40.4226C153.363 39.9864 153.09 39.6594 152.709 39.3868C152.354 39.1142 151.891 38.9779 151.346 38.9779C150.801 38.9779 150.365 39.1142 149.983 39.3868C149.602 39.6594 149.329 40.0137 149.111 40.4226C148.92 40.8587 148.811 41.2948 148.811 41.7854C148.811 42.2761 148.92 42.7122 149.111 43.1483C149.302 43.5844 149.602 43.9387 149.983 44.2113C150.365 44.4839 150.828 44.6202 151.346 44.6202Z" fill="#D5B8D8"/>
<path d="M157.969 51.5164V36.5521H161.049C161.076 36.7429 161.103 36.9337 161.103 37.1245C161.13 37.3153 161.13 37.5061 161.158 37.6969C161.512 37.2608 161.948 36.9337 162.466 36.7157C163.011 36.4976 163.556 36.3613 164.129 36.3613C165.164 36.3613 166.009 36.6066 166.69 37.1245C167.372 37.6424 167.89 38.2966 168.244 39.1143C168.598 39.932 168.762 40.8043 168.762 41.731C168.762 42.7123 168.598 43.53 168.271 44.2659C167.944 44.9746 167.535 45.5743 166.99 46.0376C166.445 46.501 165.873 46.8554 165.219 47.0734C164.565 47.2915 163.938 47.4005 163.284 47.4005C162.766 47.4005 162.357 47.346 162.03 47.2642C161.703 47.1825 161.403 47.0734 161.131 46.9917V51.5164H157.969ZM161.158 41.4857V44.2659C161.594 44.5385 162.221 44.702 163.011 44.702C163.801 44.702 164.428 44.4295 164.864 43.8843C165.328 43.3392 165.546 42.6578 165.546 41.7855C165.546 41.3221 165.464 40.886 165.328 40.4772C165.191 40.0683 164.946 39.7412 164.646 39.4959C164.319 39.2506 163.91 39.1143 163.365 39.1143C162.657 39.1143 162.112 39.3596 161.73 39.8503C161.349 40.3409 161.158 40.886 161.158 41.4857Z" fill="#D5B8D8"/>
<path d="M169.798 47.046V36.552H172.877L172.986 37.724C173.313 37.3152 173.722 36.9881 174.24 36.7155C174.758 36.4429 175.33 36.3066 176.039 36.3066C176.884 36.3066 177.538 36.4702 178.028 36.77C178.519 37.0698 178.873 37.4242 179.119 37.7513C179.555 37.2879 180.073 36.9336 180.699 36.6882C181.326 36.4429 181.953 36.3066 182.635 36.3066C183.97 36.3066 184.978 36.6882 185.687 37.4514C186.396 38.2146 186.75 39.2504 186.75 40.5588V47.046H183.534V41.0767C183.534 40.477 183.398 39.9864 183.125 39.632C182.853 39.2777 182.444 39.1141 181.871 39.1141C181.272 39.1141 180.754 39.3322 180.372 39.7683C179.991 40.2044 179.8 40.7496 179.8 41.431V47.0732H176.693V41.1039C176.693 40.5043 176.557 40.0136 176.284 39.6593C176.012 39.3049 175.603 39.1414 175.03 39.1414C174.431 39.1414 173.94 39.3595 173.559 39.7956C173.177 40.2317 172.986 40.7768 172.986 41.4583V47.1005H169.798V47.046Z" fill="#D5B8D8"/>
<path d="M196.78 43.8842L198.088 45.9285C197.952 46.0375 197.679 46.2011 197.298 46.4464C196.916 46.6917 196.425 46.9098 195.799 47.1278C195.172 47.3459 194.409 47.4277 193.509 47.4277C192.31 47.4277 191.302 47.1824 190.429 46.719C189.557 46.2556 188.903 45.5742 188.44 44.7292C187.976 43.8842 187.758 42.903 187.758 41.8127C187.758 40.8314 187.976 39.9047 188.385 39.0597C188.821 38.2147 189.421 37.5333 190.239 37.0154C191.056 36.4975 192.01 36.2522 193.155 36.2522C194.3 36.2522 195.226 36.4975 196.017 37.0154C196.78 37.5333 197.352 38.242 197.761 39.1415C198.143 40.041 198.361 41.0767 198.361 42.2488V42.7939H190.893C190.92 43.3391 191.165 43.8297 191.656 44.2658C192.146 44.7019 192.801 44.92 193.645 44.92C194.49 44.92 195.145 44.7837 195.69 44.5384C196.153 44.2658 196.534 44.0478 196.78 43.8842ZM190.838 40.6951H195.254C195.254 40.3953 195.172 40.0955 195.008 39.7956C194.845 39.4958 194.627 39.2232 194.3 39.0324C193.973 38.8144 193.564 38.7326 193.073 38.7326C192.583 38.7326 192.174 38.8416 191.819 39.0324C191.492 39.2505 191.22 39.4958 191.056 39.7956C190.92 40.0955 190.838 40.3953 190.838 40.6951Z" fill="#D5B8D8"/>
<path d="M199.26 47.046V36.552H202.34L202.422 37.6968C202.776 37.2879 203.212 36.9336 203.784 36.6882C204.357 36.4429 204.929 36.3066 205.529 36.3066C206.728 36.3066 207.682 36.661 208.39 37.3697C209.099 38.0784 209.453 39.1414 209.453 40.5315V47.0187H206.237V40.9949C206.237 40.4225 206.101 39.9591 205.801 39.6048C205.501 39.2504 205.092 39.0869 204.575 39.0869C203.866 39.0869 203.348 39.3049 202.967 39.7683C202.612 40.2317 202.422 40.7768 202.422 41.3765V47.0187H199.26V47.046Z" fill="#D5B8D8"/>
<path d="M212.152 43.0393V39.087H210.489V36.5521H212.152V33.1177H215.368V36.5521H218.066V39.087H215.368V43.2301C215.368 43.748 215.477 44.1296 215.667 44.4022C215.858 44.6747 216.185 44.811 216.621 44.811C216.948 44.811 217.221 44.7565 217.466 44.6475C217.711 44.5385 217.93 44.4022 218.148 44.2659L219.456 46.2284C218.447 47.0461 217.357 47.4277 216.158 47.4277C215.15 47.4277 214.359 47.2369 213.787 46.8826C213.214 46.501 212.806 45.9831 212.533 45.3289C212.261 44.6747 212.152 43.9115 212.152 43.0393Z" fill="#D5B8D8"/>
<path d="M91.7125 69.8059L93.8928 67.4618C94.2744 67.8707 94.7923 68.2795 95.4464 68.6884C96.1005 69.0973 96.8636 69.2881 97.7085 69.2881C98.0628 69.2881 98.3899 69.2335 98.717 69.0973C99.044 68.961 99.3166 68.7974 99.5346 68.5521C99.7526 68.3068 99.8617 68.007 99.8617 67.6799C99.8617 67.1347 99.5891 66.6986 99.044 66.3715C98.4989 66.0717 97.654 65.7719 96.5093 65.472C95.3646 65.1995 94.4379 64.6816 93.7021 63.9729C92.9662 63.2642 92.5846 62.3375 92.5846 61.1927C92.5846 60.3477 92.7754 59.5845 93.1842 58.903C93.593 58.2216 94.1927 57.6492 94.983 57.2131C95.8007 56.777 96.8091 56.5862 98.0356 56.5862C99.044 56.5862 99.8889 56.7225 100.598 56.9678C101.279 57.2404 101.851 57.5129 102.26 57.84C102.669 58.1398 102.969 58.4124 103.132 58.6032L101.197 60.7565C100.87 60.5112 100.434 60.2114 99.8889 59.8843C99.3438 59.5572 98.717 59.3937 97.9811 59.3937C97.4905 59.3937 97.0544 59.53 96.6456 59.8025C96.2368 60.0751 96.0187 60.4022 96.0187 60.7838C96.0187 61.3017 96.2913 61.7105 96.8364 62.0104C97.3815 62.3102 98.1173 62.5828 99.044 62.8008C99.7799 62.9916 100.489 63.2369 101.143 63.6185C101.824 63.9729 102.369 64.4635 102.805 65.1177C103.241 65.7719 103.459 66.5896 103.459 67.6254C103.459 68.5249 103.214 69.3153 102.696 70.024C102.178 70.7327 101.497 71.2778 100.652 71.6867C99.7799 72.0955 98.826 72.2864 97.7358 72.2864C96.7546 72.2864 95.8825 72.1773 95.1193 71.932C94.3562 71.6867 93.7021 71.3869 93.1297 71.0053C92.5574 70.6237 92.094 70.2148 91.7125 69.8059Z" fill="#D5B8D8"/>
<path d="M111.881 68.4159L113.762 70.5147C113.326 71.0053 112.753 71.4142 112.045 71.7412C111.336 72.0956 110.491 72.2591 109.537 72.2591C108.42 72.2591 107.438 72.0138 106.594 71.5232C105.749 71.0325 105.095 70.3784 104.604 69.5334C104.113 68.6884 103.895 67.7344 103.895 66.6441C103.895 65.6084 104.141 64.6544 104.631 63.8094C105.122 62.9644 105.803 62.3102 106.648 61.7923C107.493 61.3017 108.474 61.0564 109.564 61.0564C110.518 61.0564 111.336 61.2199 112.045 61.5198C112.753 61.8196 113.326 62.2557 113.789 62.7736L111.854 64.8724C111.608 64.5998 111.336 64.3545 110.982 64.1637C110.627 63.9457 110.191 63.8639 109.619 63.8639C109.101 63.8639 108.665 64.0002 108.311 64.2455C107.929 64.5181 107.657 64.8452 107.438 65.2813C107.248 65.7174 107.139 66.1535 107.139 66.6441C107.139 67.1075 107.248 67.5436 107.438 67.9797C107.629 68.4159 107.929 68.7429 108.311 69.0428C108.692 69.3153 109.128 69.4516 109.619 69.4516C110.164 69.4516 110.627 69.3426 111.009 69.1245C111.363 68.8792 111.663 68.6612 111.881 68.4159Z" fill="#D5B8D8"/>
<path d="M114.797 71.9046V56.9949H117.986V62.4191C118.34 62.0102 118.777 61.7104 119.349 61.4923C119.921 61.2743 120.494 61.1652 121.066 61.1652C122.265 61.1652 123.219 61.5196 123.955 62.2555C124.691 62.9915 125.045 64.0272 125.045 65.4174V71.9046H121.856V65.908C121.856 65.3083 121.693 64.8177 121.393 64.4906C121.093 64.1363 120.657 63.9727 120.139 63.9727C119.458 63.9727 118.94 64.1908 118.558 64.6542C118.204 65.1175 118.013 65.6627 118.013 66.2623V71.9046H114.797Z" fill="#D5B8D8"/>
<path d="M125.754 66.644C125.754 65.6082 125.999 64.6814 126.462 63.8365C126.926 62.9915 127.607 62.3101 128.452 61.8194C129.297 61.3288 130.278 61.0835 131.395 61.0835C132.513 61.0835 133.494 61.3288 134.339 61.8194C135.184 62.3101 135.838 62.9915 136.301 63.8365C136.765 64.6814 137.01 65.6355 137.01 66.644C137.01 67.6797 136.765 68.6065 136.301 69.4515C135.838 70.2964 135.184 70.9779 134.339 71.4958C133.494 72.0136 132.513 72.259 131.395 72.259C130.278 72.259 129.297 72.0136 128.452 71.4958C127.607 70.9779 126.953 70.3237 126.462 69.4515C125.999 68.6065 125.754 67.6797 125.754 66.644ZM131.395 69.4787C131.941 69.4787 132.404 69.3424 132.758 69.0699C133.113 68.7973 133.412 68.4429 133.603 68.0068C133.794 67.5707 133.903 67.1073 133.903 66.644C133.903 66.1806 133.794 65.7172 133.603 65.2811C133.412 64.845 133.14 64.5179 132.758 64.2453C132.404 63.9728 131.941 63.8365 131.395 63.8365C130.85 63.8365 130.414 63.9728 130.033 64.2453C129.651 64.5179 129.379 64.8723 129.161 65.2811C128.97 65.7172 128.861 66.1533 128.861 66.644C128.861 67.1346 128.97 67.5707 129.161 68.0068C129.351 68.4429 129.651 68.7973 130.033 69.0699C130.414 69.3424 130.85 69.4787 131.395 69.4787Z" fill="#D5B8D8"/>
<path d="M137.719 66.644C137.719 65.6082 137.964 64.6814 138.427 63.8365C138.891 62.9915 139.572 62.3101 140.417 61.8194C141.262 61.3288 142.243 61.0835 143.36 61.0835C144.478 61.0835 145.459 61.3288 146.304 61.8194C147.149 62.3101 147.803 62.9915 148.266 63.8365C148.73 64.6814 148.975 65.6355 148.975 66.644C148.975 67.6797 148.73 68.6065 148.266 69.4515C147.803 70.2964 147.149 70.9779 146.304 71.4958C145.459 72.0136 144.478 72.259 143.36 72.259C142.243 72.259 141.262 72.0136 140.417 71.4958C139.572 70.9779 138.918 70.3237 138.427 69.4515C137.964 68.6065 137.719 67.6797 137.719 66.644ZM143.333 69.4787C143.878 69.4787 144.342 69.3424 144.696 69.0699C145.05 68.7973 145.35 68.4429 145.541 68.0068C145.731 67.5707 145.841 67.1073 145.841 66.644C145.841 66.1806 145.731 65.7172 145.541 65.2811C145.35 64.845 145.077 64.5179 144.696 64.2453C144.342 63.9728 143.878 63.8365 143.333 63.8365C142.788 63.8365 142.352 63.9728 141.97 64.2453C141.589 64.5179 141.316 64.8723 141.098 65.2811C140.907 65.7172 140.798 66.1533 140.798 66.644C140.798 67.1346 140.907 67.5707 141.098 68.0068C141.289 68.4429 141.589 68.7973 141.97 69.0699C142.352 69.3424 142.815 69.4787 143.333 69.4787Z" fill="#D5B8D8"/>
<path d="M149.683 71.9046V56.9949H152.9V71.9046H149.683Z" fill="#D5B8D8"/>
<path d="M79.9928 39.9319C79.9656 17.8808 61.9774 -0.0272262 39.9282 3.10743e-05C17.8791 0.0272883 -0.0273458 18.0171 -9.09987e-05 40.0682C0.0271638 62.1193 18.0153 80.0545 40.0645 80C45.679 80 51.0482 78.8007 55.8996 76.7019C56.0358 76.7019 56.1448 76.7292 56.2811 76.7292V76.5384C70.2628 70.2692 80.0201 56.2317 79.9928 39.9319ZM40.0645 76.2385C37.4753 76.2385 34.9678 75.966 32.5422 75.4481C34.0139 74.7121 35.3222 73.7581 36.4669 72.6133C38.1839 70.8961 39.3014 68.9063 40.0918 67.0256C40.8549 68.6883 41.9178 70.4055 43.3896 71.9046C44.8068 73.3493 46.4966 74.4668 48.4045 75.2573C45.7062 75.8842 42.9263 76.2385 40.0645 76.2385ZM50.3396 51.6252C46.2241 51.7615 43.6894 52.9336 42.1086 54.1874C43.0353 51.2982 45.3519 47.7002 51.1845 47.7002H60.4511C59.6607 50.5895 57.0715 56.1227 49.0313 56.1227H43.3078C44.4798 55.0869 46.6329 53.9966 50.4213 53.8603C51.0482 53.8331 51.5388 53.3152 51.5115 52.6883C51.4843 52.0886 50.9392 51.6252 50.3396 51.6252ZM39.9282 22.5963C39.3831 21.9149 39.0833 21.0426 39.0833 20.1431C39.0833 19.2436 39.3831 18.3714 39.9282 17.69C40.4733 18.3714 40.7731 19.2436 40.7731 20.1431C40.7731 21.0426 40.4733 21.9149 39.9282 22.5963ZM29.7077 42.0034C32.8147 42.1125 34.7771 42.8484 36.058 43.6661H28.7537C21.5585 43.6661 19.7051 38.1602 19.2146 35.3527H26.5734C33.06 35.3527 36.0035 38.9506 37.3118 41.8126C35.7037 40.7496 33.3326 39.8501 29.7622 39.7411C29.1626 39.7411 28.6175 40.2045 28.5902 40.8314C28.5902 41.4583 29.0808 41.9762 29.7077 42.0034ZM54.5913 73.1585C50.9664 72.8859 48.0502 71.6321 45.897 69.4787C42.4629 66.0171 41.8088 61.029 41.6998 59.2845H49.0313C59.8515 59.2845 63.5036 50.7803 63.9125 46.2828L64.076 44.5656H51.1845C46.6874 44.5656 43.6621 46.2828 41.6725 48.5997V38.5145H47.7504C54.7548 38.5145 57.126 33.0085 57.3986 30.092L57.5621 28.3748H49.0586C45.0249 28.3748 42.79 30.5009 41.6725 32.8177V25.0767C42.9808 23.7956 43.7439 22.0239 43.7166 20.1704C43.7166 17.908 42.5992 15.8092 40.7459 14.5009L39.901 13.9012L39.0561 14.5009C37.2027 15.8092 36.1125 17.9353 36.1125 20.1704C36.1125 22.0239 36.8757 23.7683 38.1567 25.0494V37.3152C35.84 34.5077 32.1879 32.2453 26.5734 32.2453H15.9167V33.8263C15.944 38.3237 18.6695 46.828 28.7265 46.828H38.1567V59.3936C38.1567 59.4481 38.1839 65.9353 33.9594 70.1874C32.1061 72.0682 29.6532 73.2402 26.6824 73.7309C13.3003 68.4157 3.78833 55.3322 3.76107 40.0409C3.73382 20.0614 19.9504 3.78879 39.9282 3.76153C59.906 3.73427 76.2044 19.9523 76.2317 39.9591C76.2589 54.7598 67.3466 67.5435 54.5913 73.1585ZM44.0437 35.3527C44.4798 33.7445 45.679 31.5094 49.0586 31.5094H53.8009C53.1468 33.1721 51.566 35.3527 47.7504 35.3527H44.0437Z" fill="#D5B8D8"/>
</svg>
