<?xml version="1.0" encoding="UTF-8"?><svg id="Layer_1" xmlns="http://www.w3.org/2000/svg" viewBox="0 0 1521 293.5"><defs><style>.cls-1{letter-spacing:.3em;}.cls-2{fill:#fff;font-size:72px;}.cls-3,.cls-4{letter-spacing:.3em;}.cls-5,.cls-6{letter-spacing:.3em;}.cls-7{letter-spacing:.3em;}.cls-7,.cls-8,.cls-4{font-family:Effra-Bold, Effra;font-weight:700;}.cls-6{font-family:Effra-Regular, Effra;}.cls-9{fill:#d5b8d8;stroke-width:0px;}.cls-10{letter-spacing:.3em;}</style></defs><path class="cls-9" d="M293.5,146.5C293.4,65.6,227.4-.1,146.5,0S-.1,66.1,0,147c.1,80.9,66.1,146.7,147,146.5,20.6,0,40.3-4.4,58.1-12.1.5,0,.9.1,1.4.1v-.7c51.3-23,87.1-74.5,87-134.3ZM147,279.7c-9.5,0-18.7-1-27.6-2.9,5.4-2.7,10.2-6.2,14.4-10.4,6.3-6.3,10.4-13.6,13.3-20.5,2.8,6.1,6.7,12.4,12.1,17.9,5.2,5.3,11.4,9.4,18.4,12.3-9.9,2.3-20.1,3.6-30.6,3.6ZM184.7,189.4c-15.1.5-24.4,4.8-30.2,9.4,3.4-10.6,11.9-23.8,33.3-23.8h34c-2.9,10.6-12.4,30.9-41.9,30.9h-21c4.3-3.8,12.2-7.8,26.1-8.3,2.3-.1,4.1-2,4-4.3-.1-2.2-2.1-3.9-4.3-3.9ZM146.5,82.9c-2-2.5-3.1-5.7-3.1-9h0c0-3.3,1.1-6.5,3.1-9,2,2.5,3.1,5.7,3.1,9s-1.1,6.5-3.1,9ZM109,154.1c11.4.4,18.6,3.1,23.3,6.1h-26.8c-26.4,0-33.2-20.2-35-30.5h27c23.8,0,34.6,13.2,39.4,23.7-5.9-3.9-14.6-7.2-27.7-7.6-2.2,0-4.2,1.7-4.3,4,0,2.3,1.8,4.2,4.1,4.3ZM200.3,268.4c-13.3-1-24-5.6-31.9-13.5-12.6-12.7-15-31-15.4-37.4h26.9c39.7,0,53.1-31.2,54.6-47.7l.6-6.3h-47.3c-16.5,0-27.6,6.3-34.9,14.8v-37h22.3c25.7,0,34.4-20.2,35.4-30.9l.6-6.3h-31.2c-14.8,0-23,7.8-27.1,16.3v-28.4c4.8-4.7,7.6-11.2,7.5-18,0-8.3-4.1-16-10.9-20.8l-3.1-2.2-3.1,2.2c-6.8,4.8-10.8,12.6-10.8,20.8s2.8,13.2,7.5,17.9v45c-8.5-10.3-21.9-18.6-42.5-18.6h-39.1v5.8c0,16.5,10.1,47.7,47,47.7h34.6v46.1c0,.2.1,24-15.4,39.6-6.8,6.9-15.8,11.2-26.7,13C48.8,251,13.9,203,13.8,146.9c-.1-73.3,59.4-133,132.7-133.1,73.3-.1,133.1,59.4,133.2,132.8,0,54.3-32.6,101.2-79.4,121.8ZM161.6,129.7c1.6-5.9,6-14.1,18.4-14.1h17.4c-2.4,6.1-8.2,14.1-22.2,14.1h-13.6Z"/><text class="cls-2" transform="translate(334.8 123)"><tspan class="cls-6" x="0" y="0">PDS:</tspan><tspan class="cls-4" x="238.5" y="0">THE PE</tspan><tspan class="cls-7" x="603.2" y="0">R</tspan><tspan class="cls-4" x="667.4" y="0">SONAL</tspan><tspan class="cls-8"><tspan class="cls-5" x="0" y="86.4">DEVE</tspan><tspan class="cls-10" x="268.9" y="86.4">L</tspan><tspan class="cls-3" x="328.6" y="86.4">O</tspan><tspan class="cls-1" x="405.8" y="86.4">P</tspan><tspan class="cls-3" x="468.3" y="86.4">MENT SCHOOL</tspan></tspan></text></svg>