<svg width="1920" height="1084" viewBox="0 0 1920 1084" fill="none" xmlns="http://www.w3.org/2000/svg">
<mask id="mask0_5684_84" style="mask-type:luminance" maskUnits="userSpaceOnUse" x="0" y="0" width="1920" height="1084">
<path d="M1920 0.189941H0V1083.19H1920V0.189941Z" fill="white"/>
</mask>
<g mask="url(#mask0_5684_84)">
<path d="M1920 0.679932H0V1083.68H1920V0.679932Z" fill="white"/>
<path d="M1920 0.189941H0V1083.19H1920V0.189941Z" fill="white"/>
<path d="M1524.59 641.43C1524.59 641.43 1422.39 586.07 1364.91 590.33C1307.42 594.59 1260.58 609.49 1213.74 694.66C1166.9 779.83 1139.22 718.08 1077.48 726.6C1015.74 735.12 1000.83 805.38 945.47 852.22C890.11 899.06 873.08 926.74 758.11 909.71C643.14 892.68 489.84 933.13 423.84 1139.66V1373.48H1923.22V371.04C1923.22 371.04 1829.07 326.33 1735.39 471.11C1641.71 615.89 1622.55 656.34 1524.61 641.44L1524.59 641.43Z" fill="url(#paint0_linear_5684_84)"/>
<path d="M1923 488.42V-118.32H1334.88C1334.88 -118.32 1237.67 -39.7401 1402.93 23.4399C1568.19 86.6299 1479.08 151.43 1479.08 151.43C1479.08 151.43 1290.67 345.2 1537.41 431.72C1786.91 519.21 1923.01 488.43 1923.01 488.43L1923 488.42Z" fill="#E1EBEB"/>
<path d="M-351 162.93V769.68H237.12C237.12 769.68 334.33 691.1 169.07 627.92C3.81 564.73 92.92 499.93 92.92 499.93C92.92 499.93 281.33 306.16 34.59 219.64C-214.91 132.14 -351 162.93 -351 162.93Z" fill="#E1EBEB"/>
<path d="M201.5 1678.68C480.68 1678.68 707 1452.36 707 1173.18C707 894 480.68 667.68 201.5 667.68C-77.6799 667.68 -304 894 -304 1173.18C-304 1452.36 -77.6799 1678.68 201.5 1678.68Z" fill="#242334"/>
<path d="M1896 -173.82C1891.3 -145.65 1821.71 -35.0401 1718.21 25.5399C1686.61 44.0399 1676.52 62.8099 1661.25 91.2199C1640.84 129.19 1615.45 176.45 1536.09 223.5C1508.61 239.79 1480.84 248.06 1453.54 248.06C1433.4 248.06 1413.48 243.55 1394.31 234.66C1329.46 204.57 1274.37 122.6 1230.6 -8.99007C1199.94 -101.15 1188.58 -170.3 1187.99 -173.81" stroke="url(#paint1_linear_5684_84)" stroke-miterlimit="10"/>
<path d="M1279 -175.82C1286.85 -129.3 1300.59 -76.6601 1327.82 -4.45006C1359.95 80.7499 1397.03 136.67 1432.23 152.99C1439.34 156.29 1446.3 157.89 1453.51 157.89C1464.76 157.89 1476.76 154.02 1490.18 146.06C1547.99 111.78 1564.48 81.0999 1581.94 48.6099C1599.44 16.0399 1619.28 -20.8701 1672.72 -52.1501C1748.33 -96.4101 1789.36 -160.83 1794.99 -175.81" stroke="url(#paint2_linear_5684_84)" stroke-miterlimit="10"/>
<path d="M1872 -173.82C1868.33 -151.82 1803.05 -50.2001 1706.84 6.11993C1669.78 27.8099 1657.27 51.0899 1641.43 80.5699C1621.35 117.94 1598.59 160.29 1524.62 204.14C1500.56 218.4 1476.8 225.55 1453.55 225.55C1436.66 225.55 1420.06 221.78 1403.8 214.24C1344.79 186.87 1293.71 109.37 1251.97 -16.1001C1221.85 -106.64 1211.58 -170.38 1211 -173.82" stroke="url(#paint3_linear_5684_84)" stroke-miterlimit="10"/>
<path d="M1256 -173.82C1270.95 -85.2601 1326.53 128.78 1422.76 173.41C1447.46 184.87 1473.27 182.25 1501.66 165.42C1564.86 127.95 1583.62 93.0299 1601.77 59.2599C1618.65 27.8399 1636.11 -4.64006 1684.1 -32.7301C1768.84 -82.3301 1816.54 -160.04 1821 -173.81M1821 -173.81C1810.83 -153.56 1821.07 -174.21 1821 -173.81Z" stroke="url(#paint4_linear_5684_84)" stroke-miterlimit="10"/>
<path d="M1234 -173.82C1234 -173.82 1313.53 303.13 1513.14 184.78C1640.32 109.37 1603.18 40.7199 1695.47 -13.3101C1787.76 -67.3301 1844.75 -162.31 1847 -175.82" stroke="url(#paint5_linear_5684_84)" stroke-miterlimit="10"/>
<path d="M-61.65 745.92C-9.93002 766.18 51.03 798.87 98.48 845C126.23 871.98 148.19 876.97 181.44 884.52C225.88 894.61 281.18 907.17 351.47 974.76C375.81 998.16 392.06 1024.13 399.75 1051.94C405.42 1072.45 406.45 1094.03 402.79 1116.06C396.27 1155.36 374.29 1195.96 337.13 1237.53" stroke="white" stroke-miterlimit="10"/>
<path d="M194 1237.19C259.99 1185.95 288.78 1146.41 294.9 1109.45C296.25 1101.28 295.92 1093.74 293.89 1086.39C290.72 1074.93 283.4 1063.79 271.51 1052.36C220.3 1003.12 184.39 994.97 146.37 986.33C108.26 977.67 65.06 967.86 18.13 922.23C-6.76999 898.02 -32.53 878.27 -62 863.18" stroke="white" stroke-miterlimit="10"/>
<path d="M-60.75 778.64C-15.41 798.13 35.85 827.14 75.89 866.07C108.43 897.71 135.68 903.9 170.17 911.73C213.9 921.66 263.46 932.91 328.98 995.91C350.29 1016.4 364.27 1038.6 370.82 1062.28C375.58 1079.48 376.42 1097.46 373.32 1116.15C366.92 1154.71 343.29 1195.23 302.76 1237.33" stroke="white" stroke-miterlimit="10"/>
<path d="M231 1237.19C282.22 1194.28 311.1 1157.26 318.38 1113.35C323.09 1084.96 313.15 1059.4 288.01 1035.21C232.03 981.38 191.16 972.11 151.64 963.13C114.87 954.78 76.86 946.15 34.72 905.18C2.93 874.27 -25.1 850.94 -61 834.19" stroke="white" stroke-miterlimit="10"/>
<path d="M266.14 1237.31C337.84 1167.89 377.44 1088.2 304.49 1018.06C191.83 909.74 132.35 966.92 51.3 888.12C14.31 852.15 -19.76 828.32 -61.01 810.19" stroke="white" stroke-miterlimit="10"/>
<path d="M1537.39 1201.18C1542.09 1173.01 1611.68 1062.4 1715.18 1001.82C1746.78 983.32 1756.87 964.55 1772.14 936.14C1792.55 898.17 1817.94 850.91 1897.3 803.86C1924.78 787.57 1952.55 779.3 1979.85 779.3C1999.99 779.3 2019.91 783.81 2039.08 792.7C2103.93 822.79 2159.02 904.76 2202.79 1036.35C2233.45 1128.51 2244.81 1197.66 2245.4 1201.17" stroke="#8E499A" stroke-miterlimit="10"/>
<path d="M2154.39 1203.18C2146.54 1156.66 2132.8 1104.02 2105.57 1031.81C2073.44 946.61 2036.36 890.69 2001.16 874.37C1994.05 871.07 1987.09 869.47 1979.88 869.47C1968.63 869.47 1956.63 873.34 1943.21 881.3C1885.4 915.58 1868.91 946.26 1851.45 978.75C1833.95 1011.32 1814.11 1048.23 1760.67 1079.51C1685.06 1123.77 1644.03 1188.19 1638.4 1203.17" stroke="#8E499A" stroke-miterlimit="10"/>
<path d="M1561.39 1201.18C1565.06 1179.18 1630.34 1077.56 1726.55 1021.24C1763.61 999.55 1776.12 976.27 1791.96 946.79C1812.04 909.42 1834.8 867.07 1908.77 823.22C1932.83 808.96 1956.59 801.81 1979.84 801.81C1996.73 801.81 2013.33 805.58 2029.59 813.12C2088.6 840.49 2139.68 917.99 2181.42 1043.46C2211.54 1134 2221.81 1197.74 2222.39 1201.18" stroke="#8E499A" stroke-miterlimit="10"/>
<path d="M2177.39 1201.18C2162.44 1112.62 2106.86 898.58 2010.63 853.95C1985.93 842.49 1960.12 845.11 1931.73 861.94C1868.53 899.41 1849.77 934.33 1831.62 968.1C1814.74 999.52 1797.28 1032 1749.29 1060.09C1664.55 1109.69 1616.85 1187.4 1612.39 1201.17M1612.39 1201.17C1612.32 1201.57 1622.56 1180.92 1612.39 1201.17Z" stroke="#8E499A" stroke-miterlimit="10"/>
<path d="M2199.39 1201.18C2199.39 1201.18 2119.86 724.23 1920.25 842.58C1793.07 917.99 1830.21 986.64 1737.92 1040.67C1645.63 1094.69 1588.64 1189.67 1586.39 1203.18" stroke="#8E499A" stroke-miterlimit="10"/>
</g>
<defs>
<linearGradient id="paint0_linear_5684_84" x1="717.84" y1="609.16" x2="1952.82" y2="1322.18" gradientUnits="userSpaceOnUse">
<stop stop-color="#E1D6D0"/>
<stop offset="1" stop-color="#D2B4D5"/>
</linearGradient>
<linearGradient id="paint1_linear_5684_84" x1="1632.41" y1="-326.21" x2="1329.47" y2="198.49" gradientUnits="userSpaceOnUse">
<stop stop-color="#E1D6D0"/>
<stop offset="1" stop-color="#D2B4D5"/>
</linearGradient>
<linearGradient id="paint2_linear_5684_84" x1="1601.87" y1="-287.42" x2="1368.38" y2="117.01" gradientUnits="userSpaceOnUse">
<stop stop-color="#E1D6D0"/>
<stop offset="1" stop-color="#D2B4D5"/>
</linearGradient>
<linearGradient id="paint3_linear_5684_84" x1="1625.48" y1="-316.35" x2="1339.79" y2="178.47" gradientUnits="userSpaceOnUse">
<stop stop-color="#E1D6D0"/>
<stop offset="1" stop-color="#D2B4D5"/>
</linearGradient>
<linearGradient id="paint4_linear_5684_84" x1="1609.8" y1="-296.34" x2="1359.18" y2="137.75" gradientUnits="userSpaceOnUse">
<stop stop-color="#E1D6D0"/>
<stop offset="1" stop-color="#D2B4D5"/>
</linearGradient>
<linearGradient id="paint5_linear_5684_84" x1="1618.44" y1="-307.98" x2="1348.45" y2="159.66" gradientUnits="userSpaceOnUse">
<stop stop-color="#E1D6D0"/>
<stop offset="1" stop-color="#D2B4D5"/>
</linearGradient>
</defs>
</svg>
