<svg width="29" height="50" viewBox="0 0 29 50" fill="none" xmlns="http://www.w3.org/2000/svg">
<path d="M23.383 23.4868H17.3962C18.3172 16.8421 21.9356 16.5132 23.6462 16.3816C25.3567 16.25 26.6067 14.8026 26.6067 13.0921V3.28947C26.6067 1.51316 25.1593 0 23.3172 0C23.2514 0 23.1856 0 23.1199 0C12.8567 0.592105 0.488281 5.78947 0.488281 27.4342V44.4737C0.488281 47.3026 2.79091 49.6053 5.61986 49.6053H23.3172C26.1462 49.6053 28.4488 47.3026 28.4488 44.4737V28.6184C28.5146 25.7895 26.212 23.4868 23.383 23.4868ZM22.0014 43.0921H7.06723V27.4342C7.06723 12.3684 13.7778 8.1579 20.0935 6.97369V10.3947C15.6856 11.7105 10.6856 15.6579 10.6856 26.7763C10.6856 28.5526 12.133 30.0658 13.9751 30.0658H22.0014V43.0921Z" fill="url(#paint0_linear_1323_3297)"/>
<defs>
<linearGradient id="paint0_linear_1323_3297" x1="14.5099" y1="-0.0170063" x2="14.5099" y2="49.606" gradientUnits="userSpaceOnUse">
<stop stop-color="#E3EDED"/>
<stop offset="1" stop-color="#D5B8D8"/>
</linearGradient>
</defs>
</svg>
