<svg width="350" height="250" viewBox="0 0 350 250" fill="none" xmlns="http://www.w3.org/2000/svg">
<path d="M332.578 1.25H17.6611C10.6651 1.25 5 6.91731 5 13.9111V212.836C5 219.831 10.6651 225.497 17.6611 225.497H332.58C339.57 225.497 345.241 219.831 345.241 212.836V13.9111C345.241 6.91949 339.57 1.25 332.578 1.25ZM332.718 212.836C332.718 212.916 332.654 212.977 332.578 212.977H17.6611C17.5805 212.977 17.5217 212.914 17.5217 212.836V13.9111C17.5217 13.837 17.5805 13.7717 17.6611 13.7717H332.58C332.657 13.7717 332.72 13.837 332.72 13.9111V212.836H332.718Z" fill="#D5B8D8"/>
<path d="M341.044 232.5L221.992 233.5C220.573 233.5 219.249 234.317 218.478 235.668L217.71 237.011C216.938 238.364 215.614 239.179 214.195 239.179H136.037C134.617 239.179 133.294 238.362 132.522 237.011L131.754 235.668C130.982 234.317 129.658 233.5 128.239 233.5L9.1907 232.5C6.52499 232.5 4.5392 235.286 5.0932 238.245L5.20832 238.855C6.40627 245.235 11.3707 249.798 17.1195 249.798H333.119C338.868 249.798 343.832 245.237 345.03 238.855L345.145 238.245C345.696 235.286 343.708 232.5 341.044 232.5Z" fill="#D5B8D8"/>
<path d="M233.538 84.5717C231.796 81.6945 228.947 79.4467 225.515 78.2444C222.084 77.0421 218.455 77.0204 215.297 78.1813C212.024 79.3857 209.641 81.7054 208.584 84.7155C206.45 90.8053 210.573 97.8143 217.774 100.337C219.538 100.955 221.324 101.247 223.049 101.247C228.368 101.247 233.092 98.4656 234.704 93.8677C235.758 90.8576 235.344 87.5556 233.538 84.5717Z" fill="#D5B8D8"/>
<path d="M132.502 100.337C139.703 97.8121 143.826 90.8053 141.692 84.7155C140.637 81.7054 138.252 79.3858 134.979 78.1813C131.821 77.0204 128.192 77.0422 124.762 78.2444C121.331 79.4467 118.48 81.6945 116.738 84.5717C114.932 87.5557 114.516 90.8554 115.572 93.8655C117.184 98.4656 121.908 101.245 127.227 101.245C128.952 101.247 130.738 100.955 132.502 100.337Z" fill="#D5B8D8"/>
<path d="M186.782 126.275C173.136 123.807 159.36 125.689 147.993 131.572C141.94 134.704 136.92 139.01 133.071 144.366C132.095 145.725 131.781 147.557 132.213 149.391C132.672 151.349 133.901 153.022 135.493 153.865C138.642 155.529 142.208 154.69 144.464 151.793C144.676 151.58 144.856 151.312 145.044 151.029C145.34 150.669 145.645 150.316 145.95 149.983C146.701 149.16 147.527 148.354 148.402 147.587C148.531 147.474 148.681 147.356 148.84 147.232C148.993 147.15 149.149 147.041 149.304 146.897C149.38 146.827 149.498 146.716 149.657 146.559C149.829 146.433 149.999 146.309 150.173 146.185C151.16 145.488 152.214 144.819 153.305 144.2C154.314 143.625 155.376 143.081 156.461 142.582C156.635 142.502 156.812 142.423 156.988 142.345L157.404 142.171C158.025 141.929 158.613 141.7 159.212 141.491C161.588 140.657 164.095 139.995 166.659 139.522C167.271 139.409 167.878 139.315 168.521 139.215L168.578 139.206C168.737 139.189 168.896 139.171 169.055 139.154C169.24 139.132 169.427 139.113 169.612 139.093C171.087 138.945 172.592 138.856 174.086 138.827C175.482 138.801 176.889 138.827 178.272 138.906C178.956 138.945 179.647 138.997 180.324 139.06C180.662 139.093 180.999 139.128 181.337 139.165C181.472 139.18 181.607 139.197 181.742 139.213C184.541 139.653 187.004 140.204 189.271 140.901C190.437 141.258 191.587 141.661 192.691 142.096C193.055 142.314 193.41 142.51 193.791 142.571C194.342 142.826 194.891 143.09 195.424 143.362C196.644 143.987 197.827 144.671 198.938 145.394C199.434 145.716 199.929 146.054 200.403 146.398C200.491 146.49 200.593 146.579 200.708 146.66C201.116 146.947 201.229 147.036 201.257 147.06C202.229 147.868 203.143 148.724 203.973 149.602C204.335 149.983 204.681 150.375 205.012 150.765C205.071 150.861 205.136 150.948 205.2 151.029L205.197 151.031C205.208 151.042 205.224 151.061 205.245 151.085C205.291 151.142 205.337 151.192 205.378 151.24C205.522 151.41 205.592 151.499 205.607 151.519C206.4 152.621 207.569 153.96 209.595 154.518C210.174 154.677 210.786 154.755 211.398 154.755C212.668 154.755 213.936 154.42 214.912 153.793C216.547 152.738 217.791 150.881 218.159 148.946C218.475 147.287 218.135 145.662 217.207 144.37C210.505 135.037 199.7 128.612 186.782 126.275Z" fill="#D5B8D8"/>
</svg>
