<svg width="28" height="32" viewBox="0 0 28 32" fill="none" xmlns="http://www.w3.org/2000/svg">
<path d="M27.9919 13.1194C25.2403 13.126 22.5562 12.2678 20.3188 10.6663V21.8363C20.318 23.9051 19.6857 25.9243 18.5063 27.6241C17.3269 29.3238 15.6568 30.6229 13.7191 31.3478C11.7815 32.0727 9.66869 32.1888 7.6633 31.6805C5.65791 31.1722 3.85549 30.0638 2.49705 28.5035C1.13861 26.9431 0.288902 25.0053 0.0615451 22.949C-0.165812 20.8927 0.240018 18.8161 1.22477 16.9967C2.20952 15.1773 3.72626 13.7019 5.57217 12.7677C7.41808 11.8336 9.50517 11.4853 11.5544 11.7694V17.3875C10.6167 17.0925 9.60972 17.1014 8.67734 17.4129C7.74497 17.7243 6.93486 18.3225 6.36269 19.1218C5.79052 19.9211 5.48555 20.8808 5.49134 21.8638C5.49713 22.8468 5.81338 23.8029 6.39493 24.5954C6.97647 25.3879 7.79358 25.9765 8.72955 26.2769C9.66553 26.5774 10.6725 26.5744 11.6067 26.2684C12.5409 25.9624 13.3545 25.3691 13.9313 24.5731C14.5082 23.7772 14.8188 22.8193 14.8188 21.8363V0H20.3188C20.3149 0.464463 20.3539 0.928292 20.435 1.38563C20.6261 2.40655 21.0235 3.37775 21.6028 4.23983C22.1822 5.10191 22.9313 5.83674 23.8044 6.39937C25.0465 7.22068 26.5028 7.65844 27.9919 7.65812V13.1194Z" fill="#D5B8D8"/>
</svg>
