<svg width="24" height="24" viewBox="0 0 24 24" fill="none" xmlns="http://www.w3.org/2000/svg">
<g clip-path="url(#clip0_10414_1422)">
<path d="M10.4915 14.2786L14.4 12.0158L10.4915 9.75293V14.2786Z" fill="#D5B8D8"/>
<path d="M12 0.015625C5.34857 0.015625 0 5.3642 0 12.0156C0 18.6671 5.34857 24.0156 12 24.0156C18.6514 24.0156 24 18.6671 24 12.0156C24 5.3642 18.6514 0.015625 12 0.015625ZM19.5429 12.0156C19.5429 13.2499 19.4743 14.4156 19.2 15.6499C18.9943 16.2671 18.5143 16.8156 17.8971 16.9528C16.7314 17.2271 12 17.2271 12 17.2271C12 17.2271 7.33714 17.2271 6.10286 16.8842C5.48571 16.6785 4.93714 16.1985 4.8 15.5813C4.59429 14.4156 4.45714 13.1813 4.45714 11.9471C4.45714 10.7128 4.52571 9.54705 4.8 8.31277C5.00571 7.69563 5.48571 7.14705 6.10286 6.94134C7.26857 6.59848 12 6.59848 12 6.59848C12 6.59848 16.7314 6.59848 17.8971 6.94134C18.5143 7.14705 19.0629 7.62705 19.2 8.2442C19.4057 9.61563 19.5429 10.8499 19.5429 12.0156Z" fill="#D5B8D8"/>
</g>
<defs>
<clipPath id="clip0_10414_1422">
<rect width="24" height="24" fill="white"/>
</clipPath>
</defs>
</svg>
