<svg width="24" height="24" viewBox="0 0 24 24" fill="none" xmlns="http://www.w3.org/2000/svg">
<g clip-path="url(#clip0_10414_1432)">
<path d="M14.1943 11.9318C14.1943 13.1661 13.1657 14.1947 11.9314 14.1947C10.6971 14.1947 9.66858 13.1661 9.66858 11.9318C9.66858 10.6975 10.6971 9.66895 11.9314 9.66895C13.1657 9.66895 14.1943 10.6975 14.1943 11.9318Z" fill="#D5B8D8"/>
<path d="M17.28 7.88574C17.0743 7.26859 16.5943 6.78859 15.9772 6.58288C15.5657 6.44574 15.1543 6.37717 14.6743 6.37717C13.92 6.37717 13.7143 6.30859 11.9315 6.30859C10.1486 6.30859 9.87431 6.30859 9.18859 6.37717C8.77716 6.37717 8.29717 6.44574 7.88574 6.58288C7.26859 6.78859 6.78859 7.26859 6.58288 7.88574C6.44574 8.29717 6.37717 8.70859 6.37717 9.18859C6.37717 9.94288 6.30859 10.1486 6.30859 11.9315C6.30859 13.7143 6.30859 13.9886 6.37717 14.6743C6.37717 15.0857 6.44574 15.5657 6.58288 15.9772C6.78859 16.5943 7.26859 17.0743 7.88574 17.28C8.29717 17.4172 8.70859 17.4857 9.18859 17.4857C9.94288 17.4857 10.1486 17.5543 11.9315 17.5543C13.7143 17.5543 13.9886 17.5543 14.6743 17.4857C15.0857 17.4857 15.5657 17.4172 15.9772 17.28C16.5943 17.0743 17.0743 16.5943 17.28 15.9772C17.4172 15.5657 17.4857 15.1543 17.4857 14.6743C17.4857 13.92 17.5543 13.7143 17.5543 11.9315C17.5543 10.1486 17.5543 9.87431 17.4857 9.18859C17.4857 8.70859 17.4172 8.29717 17.28 7.88574ZM11.9315 15.4286C10.0115 15.4286 8.43431 13.8515 8.43431 11.9315C8.43431 10.0115 10.0115 8.43431 11.9315 8.43431C13.8515 8.43431 15.4286 10.0115 15.4286 11.9315C15.4286 13.8515 13.8515 15.4286 11.9315 15.4286ZM15.5657 9.12002C15.0857 9.12002 14.7429 8.77717 14.7429 8.29717C14.7429 7.81717 15.0857 7.47431 15.5657 7.47431C16.0457 7.47431 16.3886 7.81717 16.3886 8.29717C16.3886 8.70859 16.0457 9.12002 15.5657 9.12002Z" fill="#D5B8D8"/>
<path d="M11.9314 0C5.34857 0 0 5.34857 0 11.9314C0 18.5143 5.34857 23.8629 11.9314 23.8629C18.5143 23.8629 23.8629 18.5143 23.8629 11.9314C23.8629 5.34857 18.5143 0 11.9314 0ZM18.72 14.7429C18.72 15.2914 18.5829 15.84 18.3771 16.3886C18.0343 17.28 17.28 18.0343 16.3886 18.3771C15.84 18.5829 15.2914 18.6514 14.7429 18.72C13.9886 18.72 13.7829 18.7886 11.9314 18.7886C10.08 18.7886 9.80571 18.7886 9.12 18.72C8.57143 18.72 8.02286 18.5829 7.47429 18.3771C6.58286 18.0343 5.82857 17.28 5.48571 16.3886C5.28 15.84 5.21143 15.2914 5.14286 14.7429C5.14286 13.9886 5.07429 13.7829 5.07429 11.9314C5.07429 10.08 5.07429 9.80571 5.14286 9.12C5.14286 8.57143 5.28 8.02286 5.48571 7.47429C5.82857 6.58286 6.58286 5.82857 7.47429 5.48571C8.02286 5.28 8.57143 5.21143 9.12 5.14286C9.87429 5.14286 10.08 5.07429 11.9314 5.07429C13.7829 5.07429 14.0571 5.07429 14.7429 5.14286C15.2914 5.14286 15.84 5.28 16.3886 5.48571C17.28 5.82857 18.0343 6.58286 18.3771 7.47429C18.5829 8.02286 18.6514 8.57143 18.72 9.12C18.72 9.87429 18.7886 10.08 18.7886 11.9314C18.7886 13.7829 18.7886 13.9886 18.72 14.7429Z" fill="#D5B8D8"/>
</g>
<defs>
<clipPath id="clip0_10414_1432">
<rect width="24" height="24" fill="white"/>
</clipPath>
</defs>
</svg>
