<svg width="24" height="24" viewBox="0 0 24 24" fill="none" xmlns="http://www.w3.org/2000/svg">
<g clip-path="url(#clip0_10414_1427)">
<path d="M12 0C5.34857 0 0 5.34857 0 12C0 18.6514 5.34857 24 12 24C18.6514 24 24 18.6514 24 12C24 5.34857 18.6514 0 12 0ZM17.4857 9.39429C17.4857 9.53143 17.4857 9.6 17.4857 9.73714C17.4857 14.0571 14.0571 17.5543 9.73714 17.5543C9.66857 17.5543 9.66857 17.5543 9.6 17.5543C8.09143 17.5543 6.65143 17.1429 5.34857 16.32C5.55429 16.32 5.76 16.3886 6.03429 16.3886C7.26857 16.3886 8.50286 15.9771 9.46286 15.2229C8.29714 15.2229 7.26857 14.4 6.85714 13.3029C6.99429 13.3029 7.2 13.3714 7.40571 13.3714C7.68 13.3714 7.88571 13.3714 8.16 13.3029C6.85714 13.0286 5.96571 11.9314 5.96571 10.6286V10.56C6.37714 10.7657 6.78857 10.9029 7.2 10.9029C6.44571 10.4229 5.96571 9.53143 5.96571 8.64C5.96571 8.16 6.10286 7.68 6.30857 7.26857C7.68 8.98286 9.80571 10.0114 12 10.1486C11.6571 8.64 12.6171 7.2 14.0571 6.85714C14.2629 6.78857 14.4686 6.78857 14.6743 6.78857C15.4286 6.78857 16.1829 7.13143 16.6629 7.68C17.28 7.54286 17.8971 7.33714 18.4457 6.99429C18.24 7.61143 17.8286 8.16 17.2114 8.50286C17.76 8.43429 18.3086 8.29714 18.7886 8.09143C18.5143 8.50286 18.0343 8.98286 17.4857 9.39429Z" fill="#D5B8D8"/>
</g>
<defs>
<clipPath id="clip0_10414_1427">
<rect width="24" height="24" fill="white"/>
</clipPath>
</defs>
</svg>
