<svg width="24" height="24" viewBox="0 0 24 24" fill="none" xmlns="http://www.w3.org/2000/svg">
<g clip-path="url(#clip0_10414_1437)">
<path d="M11.9973 9.09375C11.723 9.09375 11.4487 9.16233 11.243 9.2309C11.1745 9.2309 11.1059 9.29947 11.0373 9.29947C10.4887 9.50518 10.0773 9.84804 9.73445 10.2595C9.66588 10.328 9.66587 10.3966 9.5973 10.4652C9.46015 10.6709 9.32301 10.9452 9.25444 11.1509C9.18587 11.288 9.18589 11.4252 9.18589 11.4937C9.18589 11.6309 9.18588 11.6995 9.11731 11.8366C9.11731 11.9052 9.11731 11.9052 9.11731 11.9738C9.11731 12.0423 9.11731 12.1109 9.11731 12.1795C9.11731 12.4537 9.18587 12.6595 9.25444 12.9338C9.25444 13.0023 9.32302 13.0709 9.32302 13.0709C9.39159 13.2766 9.46015 13.4137 9.5973 13.5509C9.66587 13.6195 9.73445 13.7566 9.80302 13.8252C10.0087 14.0309 10.2145 14.2366 10.4887 14.4423C10.6259 14.5109 10.6945 14.5795 10.8316 14.648C10.9687 14.7166 11.0373 14.7166 11.1745 14.7852H11.243C11.3116 14.7852 11.3116 14.7852 11.3802 14.8538C11.5859 14.9223 11.723 14.9223 11.9287 14.9223C11.9973 14.9223 11.9973 14.9223 12.0659 14.9223C12.203 14.9223 12.4087 14.9223 12.5459 14.8538C12.6145 14.8538 12.683 14.8538 12.7516 14.7852C12.8202 14.7166 12.8887 14.7852 12.8887 14.7166C13.0259 14.648 13.163 14.5795 13.3002 14.5109C13.3687 14.4423 13.5059 14.4423 13.5745 14.3738C14.123 14.0309 14.4659 13.5509 14.7402 12.9338C14.7402 12.8652 14.8087 12.7966 14.8087 12.728V12.6595V12.5909V12.5223C14.8087 12.4537 14.8087 12.4538 14.8087 12.3852V12.3166C14.8087 12.248 14.8087 12.248 14.8087 12.1795V12.1109V12.0423V11.9052C14.8087 11.6995 14.8087 11.5623 14.7402 11.3566C14.7402 11.2195 14.6716 11.0823 14.6716 10.9452C14.5345 10.5338 14.2602 10.1223 13.9173 9.77946C13.7116 9.57375 13.4373 9.36804 13.163 9.2309C12.8202 9.16233 12.4087 9.09375 11.9973 9.09375Z" fill="#D5B8D8"/>
<path d="M11.9973 -0.0263672C5.34589 -0.0263672 -0.00268555 5.3222 -0.00268555 11.9736C-0.00268555 16.0879 2.05446 19.8593 5.5516 22.0536V20.2022C1.02589 16.6365 0.203029 10.0536 3.76874 5.52791C7.33446 1.0022 13.9173 0.179347 18.443 3.74506C22.9688 7.31078 23.7916 13.8936 20.2259 18.4193C19.6773 19.1051 19.1288 19.6536 18.443 20.2022V22.0536C23.9973 18.4879 25.643 11.0822 22.0773 5.52791C19.883 2.09934 16.1116 -0.0263672 11.9973 -0.0263672Z" fill="#D5B8D8"/>
<path d="M11.9973 4.56836C7.88297 4.56836 4.59155 7.85979 4.59155 11.9741C4.59155 13.7569 5.2087 15.4712 6.44299 16.8426C6.58013 16.6369 6.6487 16.4998 6.78585 16.2941C6.99156 16.0198 7.1287 15.8141 7.40299 15.5398C5.41441 13.0026 5.89441 9.29979 8.43156 7.31122C10.9687 5.32265 14.6716 5.80265 16.6601 8.33979C18.3058 10.4655 18.3058 13.4141 16.6601 15.5398C17.003 15.9512 17.3458 16.3626 17.6201 16.8426C20.2944 13.7569 19.9516 9.09407 16.9344 6.41979C15.4944 5.25407 13.7801 4.56836 11.9973 4.56836Z" fill="#D5B8D8"/>
<path d="M15.563 16.636C15.083 16.0874 14.3973 15.676 13.7116 15.6074C13.643 15.6074 13.643 15.676 13.5744 15.676L13.4373 15.7446L13.3687 15.8131L13.2316 15.8817C13.163 15.8817 13.163 15.8817 13.0944 15.9503H13.0259H12.9573H12.8887H12.8202H12.7516H12.683H12.5459C12.4773 15.9503 12.4087 15.9503 12.4087 15.9503C12.3402 15.9503 12.2716 15.9503 12.2716 15.9503C12.203 15.9503 12.203 15.9503 12.1344 15.9503H11.9973C11.9287 15.9503 11.8602 15.9503 11.8602 15.9503C11.7916 15.9503 11.723 15.9503 11.723 15.9503H11.5859H11.5173H11.4487H11.3802H11.3116H11.243H11.1744C11.1059 15.9503 11.1059 15.9503 11.0373 15.8817L10.9002 15.8131L10.8316 15.7446L10.6944 15.676C10.6259 15.676 10.6259 15.6074 10.5573 15.6074C9.80302 15.676 9.1173 16.0874 8.6373 16.636C8.50015 16.7731 8.36301 16.9789 8.22587 17.116C8.02015 17.3903 7.88302 17.6646 7.74588 17.9389C7.47159 18.556 7.26587 19.2417 7.26587 19.9274V22.3274C7.26587 22.6703 7.4716 23.0131 7.81445 23.2189C7.88302 23.2189 7.88301 23.2874 7.95158 23.2874C10.6259 24.316 13.643 24.316 16.3173 23.2874C16.3859 23.2874 16.3859 23.2874 16.4544 23.2189C16.7973 23.0817 17.003 22.7389 17.003 22.3274V19.9274C17.003 19.2417 16.7973 18.556 16.523 17.9389C16.1802 17.4589 15.9059 17.0474 15.563 16.636Z" fill="#D5B8D8"/>
</g>
<defs>
<clipPath id="clip0_10414_1437">
<rect width="24" height="24" fill="white"/>
</clipPath>
</defs>
</svg>
