<svg width="24" height="24" viewBox="0 0 24 24" fill="none" xmlns="http://www.w3.org/2000/svg">
<g clip-path="url(#clip0_10414_1430)">
<path d="M12 0C5.34857 0 0 5.34857 0 12C0 17.8286 4.18286 22.7657 9.94286 23.7943V14.4686H7.06286V11.1086H9.94286V8.64C9.94286 5.76 11.6571 4.25143 14.2629 4.25143C15.1543 4.25143 15.9771 4.32 16.8686 4.38857V7.40571H15.0857C13.7143 7.40571 13.44 8.09143 13.44 9.05143V11.1771H16.7314L16.32 14.5371H13.44V23.9314C20.0229 23.1086 24.6857 17.1429 23.8629 10.6286C23.1086 4.52571 18.0343 0 12 0Z" fill="#D5B8D8"/>
</g>
<defs>
<clipPath id="clip0_10414_1430">
<rect width="24" height="24" fill="white"/>
</clipPath>
</defs>
</svg>
