<svg width="60" height="60" viewBox="0 0 60 60" fill="none" xmlns="http://www.w3.org/2000/svg">
<g id="Isolation_Mode" clip-path="url(#clip0_2_99)">
<g id="Podcast_icon_final">
<g id="logo_podcasts_192px">
<path id="Shape" d="M6 24.6667C4.00001 24.6667 2.66667 26.2222 2.66667 28V31.7778C2.66667 33.7778 4.22223 35.1111 6 35.1111C7.77778 35.1111 9.33334 33.5555 9.33334 31.7778V28C9.33334 26 7.77778 24.6667 6 24.6667Z" fill="#252334"/>
<path id="Shape-2" d="M54 24.6667C52 24.6667 50.6667 26.2222 50.6667 28V31.7778C50.6667 33.7778 52.2222 35.1111 54 35.1111C55.7778 35.1111 57.3333 33.5555 57.3333 31.7778V28C57.3333 26 55.7778 24.6667 54 24.6667Z" fill="#252334"/>
<path id="Shape-3" d="M17.7778 36C15.7778 36 14.4444 37.5556 14.4444 39.3333V43.1111C14.4444 45.1111 16 46.4444 17.7778 46.4444C19.5556 46.4444 21.1111 44.8889 21.1111 43.1111V39.3333C21.1111 37.3333 19.5556 36 17.7778 36Z" fill="#252334"/>
<path id="Shape-4" d="M17.7778 13.3333C15.7778 13.3333 14.4444 14.8889 14.4444 16.6667V28.8889C14.4444 30.6667 16 32.2222 17.7778 32.2222C19.5556 32.2222 21.1111 30.6667 21.1111 28.8889V16.6667C21.1111 14.6667 19.5556 13.3333 17.7778 13.3333Z" fill="#252334"/>
<path id="Shape-5" d="M42.2222 13.3333C40.2222 13.3333 38.8889 14.8889 38.8889 16.6667V20.4445C38.8889 22.4445 40.4444 23.7778 42.2222 23.7778C44 23.7778 45.5556 22.2222 45.5556 20.4445V16.6667C45.5556 14.6667 44 13.3333 42.2222 13.3333Z" fill="#252334"/>
<path id="Shape-6" d="M30 2.44444C28 2.44444 26.6667 4 26.6667 5.77778V9.55555C26.6667 11.5556 28.2222 12.8889 30 12.8889C31.7778 12.8889 33.3333 11.3333 33.3333 9.55555V5.77778C33.3333 3.77778 31.7778 2.44444 30 2.44444Z" fill="#252334"/>
<path id="Shape-7" d="M30 46.8889C28 46.8889 26.6667 48.4444 26.6667 50.2222V54C26.6667 56 28.2222 57.3333 30 57.3333C31.7778 57.3333 33.3333 55.7778 33.3333 54V50.2222C33.3333 48.2222 31.7778 46.8889 30 46.8889Z" fill="#252334"/>
<path id="Shape-8" d="M42.2222 27.5555C40.2222 27.5555 38.8889 29.1111 38.8889 30.8889V43.1111C38.8889 45.1111 40.4444 46.4444 42.2222 46.4444C44 46.4444 45.5556 44.8889 45.5556 43.1111V30.8889C45.5556 28.8889 44 27.5555 42.2222 27.5555Z" fill="#252334"/>
<path id="Shape-9" d="M33.3333 20C33.3333 18 31.7778 16.6667 30 16.6667C28.2222 16.6667 26.6667 18.2222 26.6667 20V40C26.6667 42 28.2222 43.3333 30 43.3333C31.7778 43.3333 33.3333 41.7778 33.3333 40V20Z" fill="#252334"/>
</g>
</g>
</g>
<defs>
<clipPath id="clip0_2_99">
<rect width="60" height="60" fill="white"/>
</clipPath>
</defs>
</svg>
