<svg width="57" height="51" viewBox="0 0 57 51" fill="none" xmlns="http://www.w3.org/2000/svg">
<g id="youtube 1">
<path id="Vector" d="M54.3974 12.3615C53.774 10.0008 51.9432 8.14805 49.6177 7.52051C45.4021 6.375 28.5 6.375 28.5 6.375C28.5 6.375 11.5979 6.375 7.3823 7.52051C5.05678 8.14805 3.22605 10.0008 2.60261 12.3615C1.47449 16.6348 1.47449 25.5398 1.47449 25.5398C1.47449 25.5398 1.47449 34.4449 2.60261 38.7182C3.22605 41.0789 5.05678 42.852 7.3823 43.4795C11.5979 44.625 28.5 44.625 28.5 44.625C28.5 44.625 45.4021 44.625 49.6177 43.4795C51.9432 42.852 53.774 41.0689 54.3974 38.7182C55.5255 34.4449 55.5255 25.5398 55.5255 25.5398C55.5255 25.5398 55.5255 16.6348 54.3974 12.3615ZM22.9781 33.6281V17.4516L37.0995 25.5398L22.9781 33.6281Z" fill="#252334"/>
</g>
</svg>
