<svg width="48" height="55" viewBox="0 0 48 55" fill="none" xmlns="http://www.w3.org/2000/svg">
<g id="podcast-light 1" clip-path="url(#clip0_2_82)">
<path id="Vector" d="M44.5714 24.0625C44.5714 31.7217 40.4143 38.4033 34.2321 41.959C34.0821 43.1943 33.8893 44.4727 33.6964 45.6973L33.6321 46.1055C42.0857 42.3994 48 33.9238 48 24.0625C48 10.7744 37.2536 0 24 0C10.7464 0 0 10.7744 0 24.0625C0 33.9238 5.91429 42.3887 14.3786 46.1162L14.3143 45.7188C14.1107 44.4834 13.9179 43.1943 13.7679 41.959C7.58571 38.4033 3.42857 31.7217 3.42857 24.0625C3.42857 12.6758 12.6429 3.4375 24 3.4375C35.3571 3.4375 44.5714 12.6758 44.5714 24.0625ZM39.4286 24.0625C39.4286 15.5225 32.5179 8.59375 24 8.59375C15.4821 8.59375 8.57143 15.5225 8.57143 24.0625C8.57143 28.6172 10.5321 32.71 13.6607 35.5459C13.8321 34.7832 14.1214 34.0527 14.5286 33.3652C14.7536 32.9893 15.0107 32.6455 15.2786 32.3232C13.2429 30.1641 12 27.2637 12 24.0625C12 17.4131 17.3679 12.0312 24 12.0312C30.6321 12.0312 36 17.4131 36 24.0625C36 27.2637 34.7571 30.1641 32.7214 32.3232C32.9893 32.6348 33.2464 32.9785 33.4714 33.3652C33.8786 34.042 34.1571 34.7725 34.3393 35.5459C37.4679 32.71 39.4286 28.6172 39.4286 24.0625ZM24 20.625C24.9093 20.625 25.7814 20.9872 26.4244 21.6318C27.0673 22.2765 27.4286 23.1508 27.4286 24.0625C27.4286 24.9742 27.0673 25.8485 26.4244 26.4932C25.7814 27.1378 24.9093 27.5 24 27.5C23.0907 27.5 22.2186 27.1378 21.5756 26.4932C20.9327 25.8485 20.5714 24.9742 20.5714 24.0625C20.5714 23.1508 20.9327 22.2765 21.5756 21.6318C22.2186 20.9872 23.0907 20.625 24 20.625ZM24 30.9375C25.8186 30.9375 27.5628 30.2132 28.8487 28.9239C30.1347 27.6345 30.8571 25.8859 30.8571 24.0625C30.8571 22.2391 30.1347 20.4905 28.8487 19.2011C27.5628 17.9118 25.8186 17.1875 24 17.1875C22.1814 17.1875 20.4372 17.9118 19.1513 19.2011C17.8653 20.4905 17.1429 22.2391 17.1429 24.0625C17.1429 25.8859 17.8653 27.6345 19.1513 28.9239C20.4372 30.2132 22.1814 30.9375 24 30.9375ZM22.4464 51.3691C22.0607 49.9082 21.525 47.3193 21.0857 44.6016C20.625 41.7656 20.3036 39.0908 20.3036 37.5439C20.3036 37.082 20.4 36.9209 20.4214 36.8887C20.4429 36.8564 20.4964 36.7598 20.7214 36.6416C21.2786 36.3301 22.3607 36.0938 24.0107 36.0938C25.6607 36.0938 26.7429 36.3301 27.3 36.6416C27.525 36.7598 27.5786 36.8564 27.6 36.8887C27.6214 36.9209 27.7179 37.082 27.7179 37.5439C27.7179 39.0801 27.4071 41.7549 26.9357 44.5908C26.4964 47.2979 25.9607 49.8975 25.5643 51.3691C25.4571 51.4121 25.2964 51.4551 25.0393 51.498C24.75 51.541 24.4071 51.5625 24 51.5625C23.5929 51.5625 23.25 51.541 22.9607 51.498C22.7143 51.4551 22.5429 51.4121 22.4357 51.3691H22.4464ZM19.1679 52.3896C19.7357 54.5166 21.9 55 24 55C26.1 55 28.2643 54.5059 28.8321 52.3896C29.7 49.1777 31.1357 41.2285 31.1357 37.5439C31.1357 33.623 27.6643 32.6562 24 32.6562C20.3357 32.6562 16.8643 33.623 16.8643 37.5439C16.8643 41.2393 18.3 49.1992 19.1679 52.3896Z" fill="#252334"/>
</g>
<defs>
<clipPath id="clip0_2_82">
<rect width="48" height="55" fill="white"/>
</clipPath>
</defs>
</svg>
