<svg width="56" height="58" viewBox="0 0 56 58" fill="none" xmlns="http://www.w3.org/2000/svg">
<g id="spotify 1" clip-path="url(#clip0_2_78)">
<path id="Vector" d="M28 0.90625C12.5435 0.90625 0 13.4918 0 29C0 44.5082 12.5435 57.0938 28 57.0938C43.4565 57.0938 56 44.5082 56 29C56 13.4918 43.4565 0.90625 28 0.90625ZM39.3694 42.2426C38.8952 42.2426 38.6016 42.0953 38.1613 41.8348C31.1161 37.5754 22.9194 37.3941 14.8242 39.0594C14.3839 39.1727 13.8081 39.3539 13.4806 39.3539C12.3855 39.3539 11.6968 38.4816 11.6968 37.5641C11.6968 36.3973 12.3855 35.8422 13.2323 35.6609C22.479 33.6105 31.929 33.7918 39.9903 38.6289C40.679 39.0707 41.0855 39.4672 41.0855 40.498C41.0855 41.5289 40.2839 42.2426 39.3694 42.2426ZM42.4065 34.8113C41.8194 34.8113 41.4242 34.5508 41.0177 34.3355C33.9613 30.1441 23.4387 28.4563 14.079 31.0051C13.5371 31.1523 13.2435 31.2996 12.7355 31.2996C11.5274 31.2996 10.5452 30.3141 10.5452 29.102C10.5452 27.8898 11.1323 27.0855 12.2952 26.757C15.4339 25.8734 18.6403 25.2164 23.3371 25.2164C30.6645 25.2164 37.7435 27.0402 43.321 30.3707C44.2355 30.9145 44.5968 31.6168 44.5968 32.6023C44.5855 33.8258 43.6371 34.8113 42.4065 34.8113ZM45.9065 26.1793C45.3194 26.1793 44.9581 26.032 44.45 25.7375C36.4113 20.923 22.0387 19.7676 12.7355 22.373C12.329 22.4863 11.821 22.6676 11.279 22.6676C9.78871 22.6676 8.64839 21.5008 8.64839 19.9941C8.64839 18.4535 9.59677 17.5813 10.6129 17.2867C14.5871 16.1199 19.0355 15.5648 23.879 15.5648C32.121 15.5648 40.7581 17.2867 47.0694 20.9797C47.95 21.4895 48.5258 22.1918 48.5258 23.5398C48.5258 25.0805 47.2839 26.1793 45.9065 26.1793Z" fill="#252334"/>
</g>
<defs>
<clipPath id="clip0_2_78">
<rect width="56" height="58" fill="white"/>
</clipPath>
</defs>
</svg>
