<svg width="30" height="30" viewBox="0 0 30 30" fill="none" xmlns="http://www.w3.org/2000/svg">
<g clip-path="url(#clip0_13325_145)">
<path d="M5.86401 0C5.50965 0 5.22207 0.290157 5.22207 0.64194V5.84165C2.62606 6.16519 0.600098 8.36063 0.600098 11.0414C0.600098 12.2739 1.04432 13.3934 1.75559 14.2922V24.9073C1.75559 25.1435 1.88655 25.3618 2.09453 25.4747C2.18954 25.5235 2.29482 25.5492 2.39753 25.5492C2.52335 25.5492 2.6466 25.5133 2.75445 25.4414L5.22207 23.798V29.3581C5.22207 29.7124 5.50965 30 5.86401 30H28.7446C29.099 30 29.3865 29.7124 29.3865 29.3581V7.57489H29.3609C29.3609 7.40799 29.3198 7.24365 29.1965 7.1204L22.2636 0.190014C22.1403 0.0667618 21.976 0.0231098 21.8091 0.0256776V0H5.86401ZM5.86401 7.06134C8.05944 7.06134 9.84403 8.8485 9.84403 11.0414C9.84403 13.2342 8.05944 15.0214 5.86401 15.0214C3.66857 15.0214 1.88398 13.2368 1.88398 11.0414C1.88398 8.84593 3.66857 7.06134 5.86401 7.06134ZM3.03947 15.4682C3.85602 15.992 4.82149 16.3053 5.86401 16.3053C6.90652 16.3053 7.87199 15.992 8.69111 15.4682V23.7081L6.22092 22.0622C6.00523 21.9158 5.72535 21.9158 5.50965 22.0622L3.03947 23.7081V15.4682ZM22.451 2.19287L27.1937 6.93295H22.451V2.19287ZM28.1001 8.21683V28.7161H6.50595V23.798L8.97613 25.4414C9.17128 25.5723 9.42292 25.5852 9.63604 25.4747C9.84146 25.3592 9.97242 25.1409 9.97242 24.9073V14.2922C10.6863 13.3934 11.1279 12.2739 11.1279 11.0414C11.1279 8.36063 9.10195 6.16262 6.50338 5.84165V1.28388H21.1671V7.57489C21.1671 7.92924 21.4547 8.21683 21.8091 8.21683H28.1001Z" fill="#8A50A0" stroke="#8A50A0" stroke-width="0.2"/>
</g>
<defs>
<clipPath id="clip0_13325_145">
<rect width="30" height="30" fill="white"/>
</clipPath>
</defs>
</svg>
