<?xml version="1.0" encoding="utf-8"?>
<!-- Generator: Adobe Illustrator 26.0.1, SVG Export Plug-In . SVG Version: 6.00 Build 0)  -->
<svg version="1.1" id="Layer_1" xmlns="http://www.w3.org/2000/svg" xmlns:xlink="http://www.w3.org/1999/xlink" x="0px" y="0px"
	 viewBox="0 0 512 512" style="enable-background:new 0 0 512 512;" xml:space="preserve">
<style type="text/css">
	.st0{fill:#8A50A0;}
</style>
<g>
	<g>
		<g>
			<path class="st0" d="M256.4,2.1c-141.5,0-256,114.5-256,256s114.5,256,256,256s256-114.5,256-256S397.9,2.1,256.4,2.1z
				 M256.4,480c-122.3,0-221.9-99.5-221.9-221.9S134.1,36.2,256.4,36.2s221.9,99.6,221.9,221.9S378.7,480,256.4,480z"/>
		</g>
	</g>
	<g>
		<g>
			<path class="st0" d="M249.9,314.1c-12.1,0-21.9,10.1-21.9,22.2c0,11.8,9.5,22.2,21.9,22.2c12.4,0,22.2-10.4,22.2-22.2
				C272.1,324.2,262,314.1,249.9,314.1z"/>
		</g>
	</g>
	<g>
		<g>
			<path class="st0" d="M253.7,145.8c-39,0-56.9,23.1-56.9,38.7c0,11.3,9.5,16.5,17.3,16.5c15.6,0,9.2-22.2,38.7-22.2
				c14.4,0,26,6.3,26,19.6c0,15.6-16.2,24.5-25.7,32.6c-8.4,7.2-19.3,19.1-19.3,43.9c0,15,4,19.3,15.9,19.3c14.1,0,17-6.4,17-11.8
				c0-15,0.3-23.7,16.2-36.1c7.8-6.1,32.3-25.7,32.3-52.8S290.6,145.8,253.7,145.8z"/>
		</g>
	</g>
</g>
</svg>
