<?xml version="1.0" encoding="utf-8"?>
<!-- Generator: Adobe Illustrator 26.0.1, SVG Export Plug-In . SVG Version: 6.00 Build 0)  -->
<svg version="1.1" id="Layer_1" xmlns="http://www.w3.org/2000/svg" xmlns:xlink="http://www.w3.org/1999/xlink" x="0px" y="0px"
	 viewBox="0 0 512 512" style="enable-background:new 0 0 512 512;" xml:space="preserve">
<style type="text/css">
	.st0{fill:#8A50A0;}
</style>
<path class="st0" d="M488.1,82.2h-128v-8c0-13.2-10.8-24-24-24h-160c-13.2,0-24,10.8-24,24v8h-128c-13.2,0-24,10.8-24,24v336
	c0,13.2,10.8,24,24,24h160c13.2,0,24-10.8,24-24v-8h96v8c0,13.2,10.8,24,24,24h160c13.2,0,24-10.8,24-24v-336
	C512.1,92.9,501.3,82.2,488.1,82.2z M496.1,442.1c0,4.4-3.6,8-8,8h-160c-4.4,0-8-3.6-8-8v-8h16c13.2,0,24-10.8,24-24v-48.4v-32v-32
	V98.1h128c4.4,0,8,3.6,8,8V442.1z M192.1,442.1c0,4.4-3.6,8-8,8h-160c-4.4,0-8-3.6-8-8v-336c0-4.4,3.6-8,8-8h128v312
	c0,13.2,10.8,24,24,24h16L192.1,442.1L192.1,442.1z M192.1,418.1h-16c-4.4,0-8-3.6-8-8v-312v-8v-8v-8c0-4.4,3.6-8,8-8h160
	c4.4,0,8,3.6,8,8v8v8v8v312c0,4.4-3.6,8-8,8h-16h-8h-8h-96h-8L192.1,418.1L192.1,418.1z M400.1,210.1h-20v-16h20h12c4.4,0,8-3.6,8-8
	c0-4.4-3.6-8-8-8h-8c-13.2,0-24-10.8-24-24c0-11.9,8.7-21.7,20-23.6v-8.4h16v8h20v16h-20h-12c-4.4,0-8,3.6-8,8c0,4.4,3.6,8,8,8h8
	c13.2,0,24,10.8,24,24c0,11.9-8.7,21.7-20,23.6v8.4h-16L400.1,210.1L400.1,210.1z M96.1,210.1h-20v-16h20h12c4.4,0,8-3.6,8-8
	c0-4.4-3.6-8-8-8h-8c-13.2,0-24-10.8-24-24c0-11.9,8.7-21.7,20-23.6v-8.4h16v8h20v16h-20h-12c-4.4,0-8,3.6-8,8c0,4.4,3.6,8,8,8h8
	c13.2,0,24,10.8,24,24c0,11.9-8.7,21.7-20,23.6v8.4h-16L96.1,210.1L96.1,210.1z M248.1,178.1h-20v-16h20h12c4.4,0,8-3.6,8-8
	s-3.6-8-8-8h-8c-13.2,0-24-10.8-24-24c0-11.9,8.7-21.7,20-23.6v-8.4h16v8h20v16h-20h-12c-4.4,0-8,3.6-8,8c0,4.4,3.6,8,8,8h8
	c13.2,0,24,10.8,24,24c0,11.9-8.7,21.7-20,23.6v8.4h-16V178.1z M208.1,226.1h-8v-16h8h96h8v16h-8H208.1z M304.1,250.1h8v16h-8h-72
	v-16H304.1z M208.1,265.9l-8-0.2l0.4-15.6l7.6,0.2l8,0.2v15.6L208.1,265.9z M304.1,290.1h8v16h-8h-72v-16H304.1z M208.1,305.9
	l-8-0.2l0.4-15.6l7.6,0.2l8,0.2v15.6L208.1,305.9z M376.1,242.1h96v16h-96V242.1z M392.1,282.1h80v16h-80L392.1,282.1L392.1,282.1z
	 M376.1,298.1l-16-0.4l0.4-15.6l15.6,0.4L376.1,298.1L376.1,298.1z M448.1,314.1v16h-56v-16H448.1z M376.1,330.1l-16-0.4l0.4-15.6
	l15.6,0.4L376.1,330.1L376.1,330.1z M392.1,346.1h80v16h-80L392.1,346.1L392.1,346.1z M376.1,362.1l-16-0.4l0.4-15.6l15.6,0.4
	L376.1,362.1L376.1,362.1z M40.1,242.1h96v16h-96V242.1z M72.1,298.1h64v16h-64V298.1z M56.1,314.1l-16-0.4l0.4-15.6l15.6,0.4
	L56.1,314.1L56.1,314.1z M72.1,330.1h64v16h-64V330.1z M224.1,394.1h64c6.1,0,11.8-2.3,16-6.2c4.9-4.4,8-10.7,8-17.8
	c0-7.1-3.1-13.4-8-17.8c-4.3-3.8-9.8-6.2-16-6.2h-64c-6.1,0-11.8,2.3-16,6.2c-4.9,4.4-8,10.7-8,17.8c0,7.1,3.1,13.4,8,17.8
	C212.3,391.8,218,394.1,224.1,394.1z M224.1,362.1h64c4.4,0,8,3.6,8,8s-3.6,8-8,8h-64c-4.4,0-8-3.6-8-8S219.7,362.1,224.1,362.1z
	 M72.1,378.1h64v16h-8h-56c-4.4,0-8,3.6-8,8s3.6,8,8,8h56h8v16h-64c-13.2,0-24-10.8-24-24C48.1,388.9,58.9,378.1,72.1,378.1z
	 M464.1,402.1c0,13.2-10.8,24-24,24h-64v-16h8h56c4.4,0,8-3.6,8-8s-3.6-8-8-8h-56h-8v-16h64C453.3,378.1,464.1,388.9,464.1,402.1z"
	/>
</svg>
