<svg width="29" height="30" viewBox="0 0 29 30" fill="none" xmlns="http://www.w3.org/2000/svg">
<path d="M0 18.8903C0 22.8964 3.45513 27.007 9.38107 27.6825C8.74331 26.8952 8.20592 26.0316 7.78126 25.1117C4.18171 24.0741 2.22195 21.3966 2.22195 18.8903V17.7793C2.22195 17.4846 2.339 17.2021 2.54735 16.9937C2.75569 16.7854 3.03827 16.6683 3.33292 16.6683H7.12579C7.34576 15.8928 7.63684 15.1507 7.99901 14.4464H3.33292C2.44898 14.4464 1.60123 14.7975 0.976191 15.4225C0.351146 16.0476 0 16.8953 0 17.7793V18.8903ZM17.2201 6.11405C17.2201 6.74731 17.1246 7.35834 16.9446 7.93605C15.8825 8.10493 14.8477 8.41427 13.8672 8.85594C14.5276 8.18975 14.925 7.30725 14.986 6.37115C15.0469 5.43506 14.7675 4.50847 14.199 3.76221C13.6306 3.01596 12.8116 2.50035 11.8929 2.31045C10.9743 2.12055 10.0179 2.26916 9.20021 2.72888C8.38249 3.1886 7.75854 3.92843 7.44338 4.81199C7.12822 5.69555 7.1431 6.66325 7.48528 7.5367C7.82745 8.41015 8.47386 9.13045 9.30532 9.56481C10.1368 9.99918 11.0972 10.1183 12.0096 9.90025C11.121 10.5056 10.3157 11.225 9.61437 12.04C8.5042 11.7603 7.49488 11.1745 6.70137 10.3493C5.90786 9.52401 5.36206 8.4925 5.12614 7.37222C4.89021 6.25194 4.97365 5.08792 5.36694 4.01273C5.76023 2.93755 6.44757 1.99443 7.35066 1.29079C8.25376 0.587152 9.33632 0.151278 10.475 0.0328148C11.6137 -0.0856483 12.7628 0.118062 13.7914 0.620742C14.82 1.12342 15.6868 1.90487 16.2929 2.87607C16.8991 3.84728 17.2204 4.9692 17.2201 6.11405ZM18.8866 14.1686C18.5182 14.1686 18.165 14.3149 17.9046 14.5754C17.6442 14.8358 17.4978 15.189 17.4978 15.5573C17.4978 15.9256 17.6442 16.2789 17.9046 16.5393C18.165 16.7997 18.5182 16.9461 18.8866 16.9461C19.2549 16.9461 19.6081 16.7997 19.8685 16.5393C20.129 16.2789 20.2753 15.9256 20.2753 15.5573C20.2753 15.189 20.129 14.8358 19.8685 14.5754C19.6081 14.3149 19.2549 14.1686 18.8866 14.1686ZM18.8866 25.5561C19.1812 25.5561 19.4638 25.4391 19.6721 25.2307C19.8805 25.0224 19.9975 24.7398 19.9975 24.4451V20.0012C19.9975 19.7066 19.8805 19.424 19.6721 19.2157C19.4638 19.0073 19.1812 18.8903 18.8866 18.8903C18.5919 18.8903 18.3093 19.0073 18.101 19.2157C17.8926 19.424 17.7756 19.7066 17.7756 20.0012V24.4451C17.7756 24.7398 17.8926 25.0224 18.101 25.2307C18.3093 25.4391 18.5919 25.5561 18.8866 25.5561ZM18.8866 10.0025C17.5735 10.0025 16.2733 10.2611 15.0602 10.7636C13.8471 11.2661 12.7448 12.0026 11.8164 12.931C10.8879 13.8595 10.1514 14.9618 9.6489 16.1749C9.14642 17.388 8.88779 18.6882 8.88779 20.0012C8.88779 21.3143 9.14642 22.6145 9.6489 23.8276C10.1514 25.0407 10.8879 26.143 11.8164 27.0714C12.7448 27.9999 13.8471 28.7364 15.0602 29.2389C16.2733 29.7414 17.5735 30 18.8866 30C21.5384 30 24.0816 28.9466 25.9568 27.0714C27.8319 25.1963 28.8853 22.6531 28.8853 20.0012C28.8853 17.3494 27.8319 14.8062 25.9568 12.931C24.0816 11.0559 21.5384 10.0025 18.8866 10.0025ZM18.8866 12.2244C20.9491 12.2244 22.9272 13.0438 24.3856 14.5022C25.844 15.9606 26.6634 17.9387 26.6634 20.0012C26.6634 22.0638 25.844 24.0418 24.3856 25.5003C22.9272 26.9587 20.9491 27.778 18.8866 27.778C16.824 27.778 14.846 26.9587 13.3875 25.5003C11.9291 24.0418 11.1097 22.0638 11.1097 20.0012C11.1097 17.9387 11.9291 15.9606 13.3875 14.5022C14.846 13.0438 16.824 12.2244 18.8866 12.2244Z" fill="#8A50A0"/>
</svg>
