<svg width="30" height="30" viewBox="0 0 30 30" fill="none" xmlns="http://www.w3.org/2000/svg">
<path fill-rule="evenodd" clip-rule="evenodd" d="M0 3V27C0 27.796 0.316 28.559 0.879 29.121C1.441 29.684 2.204 30 3 30C8.154 30 21.846 30 27 30C27.796 30 28.559 29.684 29.121 29.121C29.684 28.559 30 27.796 30 27V3C30 2.204 29.684 1.441 29.121 0.879C28.559 0.316 27.796 0 27 0C21.846 0 8.154 0 3 0C2.204 0 1.441 0.316 0.879 0.879C0.316 1.441 0 2.204 0 3ZM28 10V27C28 27.265 27.895 27.52 27.707 27.707C27.52 27.895 27.265 28 27 28H3C2.735 28 2.48 27.895 2.293 27.707C2.105 27.52 2 27.265 2 27V10H28ZM28 8H2V3C2 2.735 2.105 2.48 2.293 2.293C2.48 2.105 2.735 2 3 2H27C27.265 2 27.52 2.105 27.707 2.293C27.895 2.48 28 2.735 28 3V8Z" fill="#8A50A0"/>
</svg>
