<svg width="30" height="30" viewBox="0 0 30 30" fill="none" xmlns="http://www.w3.org/2000/svg">
<path d="M12.1277 29.0426C12.1277 29.2965 12.0268 29.54 11.8472 29.7196C11.6677 29.8991 11.4241 30 11.1702 30H2.23404C1.64154 30 1.0733 29.7646 0.654336 29.3457C0.235372 28.9267 0 28.3585 0 27.766V2.23404C0 1.64154 0.235372 1.0733 0.654336 0.654336C1.0733 0.235372 1.64154 0 2.23404 0H11.1702C11.4241 0 11.6677 0.100873 11.8472 0.28043C12.0268 0.459986 12.1277 0.703516 12.1277 0.957447C12.1277 1.21138 12.0268 1.45491 11.8472 1.63446C11.6677 1.81402 11.4241 1.91489 11.1702 1.91489H2.23404C2.1494 1.91489 2.06822 1.94852 2.00837 2.00837C1.94852 2.06822 1.91489 2.1494 1.91489 2.23404V27.766C1.91489 27.8506 1.94852 27.9318 2.00837 27.9916C2.06822 28.0515 2.1494 28.0851 2.23404 28.0851H11.1702C11.4241 28.0851 11.6677 28.186 11.8472 28.3655C12.0268 28.5451 12.1277 28.7886 12.1277 29.0426ZM10.4928 14.3234L16.8758 7.94043C17.0573 7.7713 17.2973 7.67923 17.5454 7.68361C17.7934 7.68798 18.0301 7.78847 18.2055 7.96389C18.3809 8.13931 18.4814 8.37597 18.4858 8.62401C18.4901 8.87206 18.3981 9.11212 18.2289 9.29362L13.4816 14.0426H29.0417C29.2956 14.0426 29.5392 14.1434 29.7187 14.323C29.8983 14.5025 29.9992 14.7461 29.9992 15C29.9992 15.2539 29.8983 15.4975 29.7187 15.677C29.5392 15.8566 29.2956 15.9574 29.0417 15.9574H13.4816L18.2289 20.7064C18.323 20.794 18.3985 20.8997 18.4508 21.0172C18.5031 21.1346 18.5313 21.2614 18.5335 21.39C18.5358 21.5185 18.5121 21.6462 18.464 21.7654C18.4158 21.8847 18.3442 21.993 18.2532 22.0839C18.1623 22.1748 18.054 22.2465 17.9348 22.2946C17.8156 22.3428 17.6879 22.3664 17.5593 22.3642C17.4308 22.3619 17.304 22.3338 17.1866 22.2814C17.0691 22.2291 16.9634 22.1536 16.8758 22.0596L10.4928 15.6766C10.3135 15.4971 10.2128 15.2537 10.2128 15C10.2128 14.7463 10.3135 14.5029 10.4928 14.3234Z" fill="#8A50A0"/>
</svg>
