<?xml version="1.0" encoding="utf-8"?>
<!-- Generator: Adobe Illustrator 26.0.1, SVG Export Plug-In . SVG Version: 6.00 Build 0)  -->
<svg version="1.1" id="Layer_1" xmlns="http://www.w3.org/2000/svg" xmlns:xlink="http://www.w3.org/1999/xlink" x="0px" y="0px"
	 viewBox="0 0 512 512" style="enable-background:new 0 0 512 512;" xml:space="preserve">
<style type="text/css">
	.st0{fill:#8A50A0;}
</style>
<g>
	<g>
		<path class="st0" d="M119.6,107.3c-2.4,0-4.7-0.9-6.6-2.5L94.1,88.2c-4.1-3.6-4.5-9.9-0.9-14c3.6-4.1,9.9-4.5,14-0.9l11.4,9.9
			L144.9,52c3.5-4.2,9.8-4.7,14-1.2c4.2,3.5,4.7,9.8,1.2,14l-32.8,38.8c-1.7,2-4.2,3.3-6.8,3.5C120.1,107.3,119.8,107.3,119.6,107.3
			z"/>
	</g>
	<g>
		<path class="st0" d="M136.6,152.2H62.3c-5.5,0-9.9-4.5-9.9-9.9V13.7c0-5.5,4.5-9.9,9.9-9.9h128.6c5.5,0,9.9,4.5,9.9,9.9v65.4
			c0,5.5-4.5,9.9-9.9,9.9c-5.5,0-9.9-4.5-9.9-9.9V23.6H72.2v108.8h64.4c5.5,0,9.9,4.5,9.9,9.9C146.5,147.7,142,152.2,136.6,152.2z"
			/>
	</g>
	<path class="st0" d="M411.8,3.7H283.2c-5.5,0-9.9,4.5-9.9,9.9v128.6c0,5.5,4.5,9.9,9.9,9.9h128.6c5.5,0,9.9-4.5,9.9-9.9V13.7
		C421.7,8.2,417.3,3.7,411.8,3.7z M376.9,93.3c3.8,3.8,3.8,10.2,0,14c-1.9,1.9-4.5,2.9-7,2.9c-2.5,0-5.1-1-7-2.9L347.5,92
		l-15.3,15.3c-1.9,1.9-4.5,2.9-7,2.9s-5.1-1-7-2.9c-3.8-3.8-3.8-10.2,0-14l15.3-15.3l-15.3-15.3c-3.8-3.8-3.8-10.2,0-14
		c3.8-3.8,10.2-3.8,14,0l15.3,15.3l15.3-15.3c3.8-3.8,10.2-3.8,14,0c3.8,3.8,3.8,10.2,0,14l-15.3,15.3L376.9,93.3z"/>
	<path class="st0" d="M382.9,270.8c0-19.6-16-35.6-36.3-35.6c-6.1,0-11.8,1.7-16.8,4.4c-3.7-15.8-17.8-27.6-35.1-27.6
		c-6.2,0-11.9,1.7-17,4.5c-3.8-15.6-17.9-27.2-35-27.2c-5.7,0-11,1.5-15.8,3.8v-60.9c0-19.7-16-35.7-36.1-35.7
		c-19.6,0-35.6,16-35.6,35.7V282c-37.9-22-56.9-14.2-66.2-2.6c-16.3,20.1-7,59.9,11.4,77.1c41.2,41.2,72.8,147.8,73.1,148.9
		c1.2,4.2,5.1,7.1,9.5,7.1h156c5.3,0,9.7-4.2,9.9-9.5c1.8-39.9,33.3-145.9,33.6-147V356c0.2-0.6,0.2-1.2,0.3-1.7c0-0.1,0-0.2,0-0.2
		c0-0.2,0.1-0.5,0.1-0.7v-82.5H382.9z M329.9,492.7H190.3c-8.1-25.5-37.3-111.6-76.2-150.5c-12.4-11.5-17.9-40.1-9.7-50.2
		c6.7-8.3,26-3,50.8,13.6v47.8c0,5.5,4.5,9.9,9.9,9.9s9.9-4.5,9.9-9.9V132.3c0-8.8,7.1-15.8,16.3-15.8c8.7,0,15.8,7.1,15.8,15.8V225
		v51.3c0,5.5,4.5,9.9,9.9,9.9s9.9-4.5,9.9-9.9V225c0-8.7,7.1-15.8,16.3-15.8c8.7,0,15.8,7.1,15.8,15.8v22.7v40
		c0,5.5,4.5,9.9,9.9,9.9c5.5,0,9.9-4.5,9.9-9.9v-40c0-8.7,7.1-15.8,16.4-15.8c8.7,0,15.8,7.1,15.8,15.8v23.2v29.4
		c0,5.5,4.5,9.9,9.9,9.9c5.5,0,9.9-4.5,9.9-9.9v-29.4c0-8.7,7.1-15.8,16.3-15.8c8.8,0,15.8,7.1,15.8,15.8v80.9
		C359.7,363.5,334.8,448.3,329.9,492.7z"/>
</g>
</svg>
