<?xml version="1.0" encoding="utf-8"?>
<!-- Generator: Adobe Illustrator 26.0.2, SVG Export Plug-In . SVG Version: 6.00 Build 0)  -->
<svg version="1.1" id="icon-check" focusable="false" xmlns="http://www.w3.org/2000/svg" xmlns:xlink="http://www.w3.org/1999/xlink" x="0px" y="0px" viewbox="0 0 512 512" style="enable-background:new 0 0 512 512;" xml:space="preserve">

<path id="check-mark" class="st0" d="M369.5,175.4c7.8,7.8,7.9,20.4,0.1,28.2l-0.1,0.1L235.6,337.6c-7.8,7.8-20.4,7.9-28.2,0.1
	l-0.1-0.1l-63.7-63.7c-7.8-7.8-7.8-20.5,0-28.3s20.5-7.8,28.3,0l49.6,49.7l119.8-119.8C349.1,167.6,361.7,167.6,369.5,175.4z
	 M512,256.5C512,397.6,397.6,512,256.5,512S1,397.6,1,256.5S115.4,1,256.5,1l0,0c141-0.1,255.4,114.2,255.5,255.2
	C512,256.3,512,256.4,512,256.5L512,256.5z M472.1,256.5c0-119.1-96.5-215.6-215.6-215.6S40.9,137.4,40.9,256.5
	s96.5,215.6,215.6,215.6l0,0c119,0.1,215.5-96.4,215.6-215.4C472.1,256.6,472.1,256.6,472.1,256.5L472.1,256.5z" style="fill: #71C2C1;"/>
</svg>
