<svg width="100" height="100" viewBox="0 0 100 100" fill="none" xmlns="http://www.w3.org/2000/svg">
<path d="M50 100C22.4448 100 0 77.5961 0 50C0 22.4448 22.4039 0 50 0C77.5552 0 100 22.4039 100 50C99.9592 77.5961 77.5552 100 50 100ZM50 3.39329C24.2846 3.39329 3.35244 24.3254 3.35244 50.0409C3.35244 75.7564 24.2846 96.6885 50 96.6885C75.7155 96.6885 96.6476 75.7564 96.6476 50.0409C96.6067 24.3254 75.7155 3.39329 50 3.39329Z" fill="#8A50A0"/>
<path d="M74.2024 37.7752C73.2621 37.7752 72.5262 37.0393 72.5262 36.099C72.5262 33.1963 70.155 30.8251 67.2523 30.8251C64.3496 30.8251 61.9784 33.1963 61.9784 36.099C61.9784 37.0393 61.2425 37.7752 60.3022 37.7752C59.3619 37.7752 58.626 37.0393 58.626 36.099C58.626 31.3566 62.5099 27.4727 67.2523 27.4727C71.9947 27.4727 75.8787 31.3566 75.8787 36.099C75.8787 37.0393 75.1018 37.7752 74.2024 37.7752Z" fill="#8A50A0"/>
<path d="M33.5775 42.9692C37.3867 42.4982 40.093 39.0284 39.622 35.2191C39.151 31.4098 35.6812 28.7036 31.8719 29.1746C28.0626 29.6455 25.3564 33.1154 25.8274 36.9246C26.2984 40.7339 29.7682 43.4401 33.5775 42.9692Z" fill="#8A50A0"/>
</svg>
