<svg width="384" height="219" viewBox="0 0 384 219" fill="none" xmlns="http://www.w3.org/2000/svg">
<g clip-path="url(#clip0_8041_2200)">
<path d="M3.46574 59.3562C-2.98406 41.9701 5.96276 22.9844 23.4478 16.9502C40.9335 10.9168 63.382 13.46 69.8318 30.8468C72.0947 36.9477 69.4173 49.9043 68.1848 55.7708C68.1848 55.7708 67.3464 62.284 69.4987 65.8316C71.9769 69.9156 76.1921 71.1595 80.0118 71.3156C81.3869 71.3715 81.7505 73.2345 80.4845 73.7419C69.959 77.9565 50.3522 84.1009 30.5731 81.3626C15.6549 79.297 7.93261 71.4005 3.46501 59.3569L3.46574 59.3562Z" fill="#FDD247"/>
<path d="M243.419 14.4364C232.769 28.272 235.395 62.1398 251.802 66.8901C268.21 71.6396 294.506 61.8524 309.518 64.3157C325.262 66.8988 328.051 79.8779 321.523 86.2989C320.867 86.9441 321.462 88.0379 322.36 87.8397C345.144 82.813 364.263 29.6285 337.59 10.5695C309.582 -9.44323 252.16 3.0823 243.419 14.4371V14.4364Z" fill="#D1EAED"/>
<path d="M270.672 43.7625C275.596 43.3368 279.241 39.008 278.815 34.0936C278.388 29.1793 274.051 25.5405 269.128 25.9662C264.204 26.3918 260.559 30.7207 260.985 35.635C261.411 40.5493 265.748 44.1881 270.672 43.7625Z" fill="white"/>
<path d="M293.809 42.9233C298.519 41.4318 301.127 36.4112 299.632 31.7093C298.138 27.0075 293.108 24.4051 288.397 25.8966C283.687 27.3881 281.079 32.4087 282.573 37.1106C284.068 41.8124 289.098 44.4148 293.809 42.9233Z" fill="white"/>
<path d="M318.634 40.2828C322.128 36.7949 322.128 31.1398 318.634 27.6518C315.139 24.1639 309.473 24.1639 305.979 27.6518C302.484 31.1398 302.484 36.7948 305.979 40.2828C309.473 43.7707 315.139 43.7708 318.634 40.2828Z" fill="white"/>
<path d="M144.634 45.1034H180.127C180.127 45.1034 179.506 40.314 173.794 38.7688C167.391 37.0364 164.353 40.3524 164.353 40.3524C164.353 40.3524 165.7 38.5032 165.113 34.9693C164.465 31.0624 162.777 28.3611 157.785 28.3618C149.594 28.3625 147.978 36.6198 150.516 40.0135C147.215 37.2889 142.372 40.6921 144.633 45.1041L144.634 45.1034Z" fill="url(#paint0_linear_8041_2200)"/>
<path d="M382.347 88.4982H362.544C362.544 88.4982 360.402 84.6842 364.257 83.1383C367.309 81.9146 367.793 85.0689 367.793 85.0689C367.793 85.0689 366.696 83.7342 366.881 81.183C367.086 78.3634 369.358 76.5068 372.962 76.5068C378.875 76.5068 379.362 82.374 377.758 84.8236C379.957 82.8567 383.682 85.3135 382.347 88.4982H382.347Z" fill="url(#paint1_linear_8041_2200)"/>
<path d="M16.4177 98.8751H35.6508C35.6508 98.8751 39.096 93.7141 33.5326 91.3959C29.001 89.5082 27.4049 94.4159 27.4049 94.4159C27.4049 94.4159 28.0034 87.7155 23.0849 87.8643C18.1665 88.013 16.718 92.0215 18.205 95.6076C17.4677 92.9259 11.7829 95.4588 12.6962 98.8751H16.417H16.4177Z" fill="url(#paint2_linear_8041_2200)"/>
<path d="M255.748 81.7729L236.855 88.2215C236.855 88.2215 244.843 85.0404 243.036 82.9342C241.228 80.828 230.82 84.3524 226.845 84.6536C222.871 84.9548 219.523 83.7942 213.693 84.9112C207.864 86.0289 208.051 91.6515 206.87 94.5634C205.689 97.4759 201.625 102.779 201.625 102.779L215.483 109.227C215.483 109.227 223.257 98.9994 224.593 98.3781C230.251 95.7464 254.591 93.9595 256.422 82.9857C256.521 82.3949 256.378 81.7715 255.747 81.7715L255.748 81.7729Z" fill="#F9A487"/>
<path d="M89.4775 218.999H149.267C147.662 201.332 146.154 184.454 145.567 177.045C145.734 174.245 145.901 171.245 146.049 168.103H98.4498L91.6699 181.027C91.6699 181.027 85.0834 190.2 85.5887 202.707C85.7247 206.077 87.2401 211.95 89.4775 219V218.999Z" fill="#272A52"/>
<path d="M114.78 219L116.404 209.308L126.172 200.969L123.749 168.102H75.7373L73.7311 181.93C73.7311 181.93 61.7034 198.513 62.9206 218.999H114.78V219Z" fill="#133E62"/>
<path d="M59.9066 96.1015C60.8991 96.8614 61.7121 97.4405 62.3942 98.2454C64.1008 100.261 65.6256 102.42 67.3075 104.455C73.0294 111.381 79.3869 117.775 86.1159 123.778L114.891 89.965L111.585 77.4576L89.6244 66.6079L90.1741 82.0438C90.1741 82.0438 72.6171 87.9444 59.9066 96.1015Z" fill="#F9A487"/>
<path d="M199.737 104.703C200.846 105.473 202.025 106.159 203.196 106.831C205.284 108.029 207.428 109.142 209.61 110.16C211.832 111.196 214.092 112.148 216.337 113.13C216.755 113.313 217.173 113.498 217.589 113.684C220.661 107.774 222.584 103.658 222.584 103.658C222.584 103.658 222.484 102.098 215.82 98.7411C209.157 95.3843 205.705 95.7617 205.705 95.7617C205.705 95.7617 202.897 99.6069 199.141 104.282C199.34 104.423 199.539 104.565 199.737 104.704V104.703Z" fill="#69C3C5"/>
<path d="M214.751 100.627C207.035 96.7393 203.038 97.1762 203.038 97.1762C203.038 97.1762 181.885 126.133 175.341 126.133C174.069 126.133 172.171 124.802 169.823 122.634H169.826C160.1 113.655 142.637 90.2733 129.807 87.376L121.385 128.162C121.385 128.162 128.629 134.74 138.208 142.425V142.426C151.368 152.988 168.936 165.643 178.18 166.207C194.152 167.179 222.584 106.321 222.584 106.321C222.584 106.321 222.468 104.514 214.751 100.627Z" fill="#D1EAED"/>
<path d="M158.557 157.357C154.975 119.554 142.284 104.279 142.284 104.279L129.756 135.452C132.213 137.532 135.086 139.919 138.208 142.424V142.426C144.451 147.437 151.688 152.918 158.557 157.357Z" fill="#B7DDDF"/>
<path d="M87.808 91.1394C83.0132 88.3153 83.9512 84.7634 84.2057 84.0376C77.6875 86.3681 67.8318 90.8396 59.6157 96.3381C53.64 100.337 63.6689 120.47 59.0006 127.886L71.962 141.104H71.9627C78.827 131.927 85.0877 124.986 85.0877 124.986L107.574 98.5634C98.1509 97.7941 92.3854 93.8356 87.808 91.1394Z" fill="#D1EAED"/>
<path d="M138.114 94.7237C136.718 92.19 135.108 90.1513 133.253 88.7484C131.136 87.2518 124.916 86.1472 118.217 85.1289C118.454 85.547 119.464 86.0717 119.762 86.4665C120.569 87.5298 121.123 88.7636 122.14 89.6585C122.262 89.7666 122.189 89.9633 122.047 90.0069C119.244 90.8778 118.142 94.5031 115.186 94.9741C113.633 95.2216 111.912 95.0097 110.342 95.0097C108.561 95.0097 106.78 95.0264 104.999 94.9981C101.788 94.9466 98.5189 94.7187 95.4808 93.6031C92.8682 92.6436 90.8358 91.1631 88.77 89.3508C87.9083 88.5945 86.3311 87.397 85.9567 86.0833C83.155 89.1599 79.4778 93.9776 76.599 100.491C73.3596 107.82 71.1323 117.294 72.3059 128.843C75.4312 159.599 73.7166 181.344 73.7166 181.344H145.813C145.813 181.344 150.768 117.69 138.115 94.7245L138.114 94.7237Z" fill="#D1EAED"/>
<path d="M94.1676 156.811C84.7489 151.523 95.4547 114.213 82.614 105.268C76.5219 101.024 74.0511 118.548 73.1371 138.228C74.8589 160.907 73.9922 177.133 73.7646 180.635C73.7646 180.639 73.7646 180.642 73.7646 180.645C73.7631 180.673 73.7609 180.7 73.7595 180.726C73.7595 180.73 73.7595 180.733 73.7588 180.737C73.7326 181.137 73.7159 181.344 73.7159 181.344H145.813C145.813 181.344 146.234 175.924 146.517 167.679C136.994 158.516 104.799 162.777 94.1683 156.81L94.1676 156.811Z" fill="#B7DDDF"/>
<path d="M111.547 98.6549C126.37 97.9233 124.665 90.3781 123.32 88.8772C122.375 87.8233 120.525 86.2709 118.377 85.1539C105.809 83.28 90.1741 82.0439 90.1741 82.0439C90.1741 82.0439 87.315 83.5623 84.2355 87.2166C85.1561 90.6328 97.719 99.3379 111.547 98.6556V98.6549Z" fill="#F9A487"/>
<path d="M181.104 135.305C180.932 135.305 180.77 135.197 180.71 135.026C179.596 131.862 177.859 129.657 176.782 128.503C177.001 130.022 177.046 132.574 175.619 135.093C175.506 135.294 175.25 135.364 175.05 135.25C174.849 135.137 174.778 134.882 174.892 134.682C176.895 131.144 175.695 127.412 175.683 127.375L175.236 126.023L176.343 126.92C176.48 127.031 179.716 129.693 181.497 134.749C181.574 134.967 181.459 135.205 181.242 135.281C181.196 135.297 181.15 135.305 181.103 135.305H181.104Z" fill="#B7DDDF"/>
<path d="M113.266 45.8238C114.642 49.42 113.311 51.7846 113.877 52.9371C114.443 54.0904 117.684 59.79 117.828 65.2101C117.972 70.6302 116.314 76.8059 110.8 77.6398C105.287 78.4738 93.1779 70.1875 93.1779 70.1875C93.1779 70.1875 90.153 50.7794 89.2942 48.1542C88.4355 45.5284 91.1048 38.9971 91.1048 38.9971L111.242 42.176C111.242 42.176 112.098 42.7755 113.265 45.8238H113.266Z" fill="#F9A487"/>
<path d="M90.3973 61.4012C90.8358 65.7145 89.5727 68.8064 86.1028 68.8064C82.6328 68.8064 79.2393 65.7145 78.8008 61.4012C78.3623 57.0879 80.8201 53.5918 84.29 53.5918C87.76 53.5918 89.9589 57.0886 90.3973 61.4012Z" fill="#F9A487"/>
<path d="M87.3171 44.4512C87.3171 44.4512 85.8941 48.6026 86.9492 54.1875C86.9492 54.1875 88.3671 68.9448 93.0216 75.5807C96.2669 80.2075 103.994 85.587 114.84 83.398C120.844 82.1867 123.461 75.4754 122.11 70.3347C121.021 66.189 118.181 63.3316 116.103 63.299C114.193 63.2692 113.47 65.2811 111.256 65.6099C108.543 66.0127 107.447 64.4755 105.968 64.9966C104.49 65.5177 103.721 69.5414 100.181 68.6182C96.6414 67.695 91.435 63.7345 91.2248 45.5638C88.157 44.4867 87.3179 44.4519 87.3179 44.4519L87.3171 44.4512Z" fill="#212B54"/>
<path d="M101.014 44.6247C99.5245 47.0917 92.9758 48.7595 87.283 45.1459C81.9355 41.7521 82.2264 33.7504 90.1348 36.2166C88.7947 31.2486 93.1329 29.7542 96.4188 32.2908C98.3872 26.3147 107.518 26.7669 106.948 34.167C110.531 30.3798 116.668 32.8816 118.16 36.5991C119.651 40.3165 116.911 46.5706 111.34 47.9256C106.04 49.2146 101.014 44.6247 101.014 44.6247Z" fill="#133E62"/>
<path d="M169.598 191.133L151.42 180.872C151.42 180.872 159.942 182.028 159.407 179.307C158.873 176.585 148.075 174.54 144.467 172.849C140.858 171.158 138.516 168.503 132.891 166.611C127.266 164.72 127.843 165.914 124.847 166.874C121.85 167.835 115.166 168.118 115.166 168.118L119.083 182.87C119.083 182.87 131.932 182.277 133.266 182.902C138.915 185.552 166.936 194.92 169.587 192.521C170.031 192.119 170.147 191.443 169.598 191.133Z" fill="#F9A487"/>
<path d="M112.477 167.902C112.595 169.245 112.823 170.589 113.056 171.916C113.472 174.284 113.99 176.64 114.604 178.965C115.229 181.331 115.946 183.673 116.628 186.023C116.755 186.461 116.88 186.899 117.004 187.338C123.518 185.907 127.917 184.743 127.917 184.743C127.917 184.743 129.053 183.666 127.366 176.409C125.68 169.151 123.179 166.748 123.179 166.748C123.179 166.748 118.421 167.059 112.418 167.175C112.437 167.419 112.455 167.662 112.476 167.902H112.477Z" fill="#69C3C5"/>
<path d="M125.231 176.798C123.278 168.394 120.382 165.611 120.382 165.611C120.382 165.611 84.5547 167.949 80.362 162.933C79.5468 161.958 79.3542 159.651 79.5185 156.462L79.5207 156.464C80.1977 143.259 86.9979 114.896 81.0077 103.206C81.0077 103.206 69.6547 89.9554 56.5588 97.8969C43.4629 105.838 44.2366 122.88 44.2366 122.88C44.2366 122.88 43.817 132.646 44.041 144.911H44.0395C44.3456 161.764 45.8639 183.337 51.3532 190.782C60.8366 203.645 125.869 186.449 125.869 186.449C125.869 186.449 127.185 185.203 125.232 176.798H125.231Z" fill="#D1EAED"/>
<path d="M76.9982 173.226C76.8877 173.094 76.8666 172.902 76.9597 172.746C78.6801 169.865 79.264 167.121 79.4618 165.556C78.4336 166.699 76.4987 168.366 73.6475 168.887C73.4206 168.928 73.2032 168.778 73.1618 168.551C73.1203 168.325 73.2708 168.108 73.4977 168.067C77.5028 167.335 79.605 164.025 79.6261 163.992L80.3787 162.784L80.3983 164.206C80.4013 164.382 80.4267 168.568 77.6774 173.172C77.5596 173.37 77.3029 173.435 77.1044 173.317C77.0622 173.292 77.0266 173.261 76.9975 173.225L76.9982 173.226Z" fill="#ABD6D6"/>
<path d="M249.149 201.53C249.149 201.53 242.711 201.681 239.598 205.55C236.359 209.574 233.553 211.762 227.168 213.073C223.627 213.8 215.031 213.058 209.963 211.295C210.525 206.271 219.998 207.986 223.225 208.03C227.484 208.087 228.63 205.668 233.017 199.396C235.92 195.248 246.62 198.126 248.455 197.288C257.804 193.014 249.149 201.53 249.149 201.53Z" fill="#F6A086"/>
<path d="M234.614 204.131L235.405 203.687C234.653 206.821 232.639 209.352 230.981 207.445C229.539 205.786 223.696 207.282 221.498 206.566C220.06 206.098 220.041 204.06 221.478 203.586C224.536 202.579 229.459 204.38 232.389 200.301L234.614 204.131Z" fill="#F6A086"/>
<path d="M214.822 110.751C214.822 110.751 211.446 108.052 206.833 106.203C202.034 104.279 198.513 103.745 192.304 105.725C188.861 106.824 181.732 111.675 178.181 115.692C181.138 119.797 188.552 113.668 191.344 112.051C195.928 109.396 201.093 112.405 210.029 117.485C218.966 122.565 214.823 110.751 214.823 110.751H214.822Z" fill="#F6A086"/>
<path d="M214.323 109.228L208.734 106.087L204.21 115.692L211.699 120.101L214.323 109.228Z" fill="#70D7DD"/>
<path d="M203.185 109.878H204.093C201.898 107.514 198.9 106.293 198.391 108.767C197.949 110.918 192.122 112.472 190.557 114.172C189.533 115.284 190.518 117.069 192.003 116.779C195.163 116.16 199.148 112.856 203.185 112.987V109.877V109.878Z" fill="#F6A086"/>
<path d="M293.05 95.2218C279.533 99.8349 254.888 128.492 254.888 128.492L212.691 107.148L207.489 119.01C207.489 119.01 250.27 155.349 259.898 153.715C269.526 152.082 300.851 127.676 308.905 115.296C317.025 102.813 306.567 90.6087 293.05 95.2218Z" fill="#64C0C6"/>
<path d="M272.133 147.73C281.461 141.768 293.159 132.411 301.232 124.299L282.242 107.407C282.242 107.407 273.042 127.705 272.133 147.73Z" fill="#3AAFB7"/>
<path d="M332.938 218.829C337.432 200.443 337.937 182.105 328.351 169.989C310.28 171.832 291.052 173.66 291.052 173.66L290.776 188.334C290.776 188.334 283.183 207.344 280.691 218.829H332.938V218.829Z" fill="#B7DDDF"/>
<path opacity="0.58" d="M307.932 189.188L297.044 218.829H304.163L307.932 189.188Z" fill="#A6D5D8"/>
<path d="M304.163 218.829H341.447C345.329 208.322 346.126 197.444 343.852 190.138C340.547 179.517 335.873 174.633 332.214 169.764C319.615 170.362 303.578 172.922 303.578 172.922C303.578 172.922 302.477 175.739 304.009 181.489C305.542 187.239 307.932 189.188 307.932 189.188C307.932 189.188 305.257 211.164 304.163 218.829Z" fill="#D1EAED"/>
<path d="M302.701 93.9625C315.425 93.842 322.964 95.4678 327.941 106.62C333.302 118.632 326.228 154.85 332.214 169.764C324.46 170.498 290.617 174.549 290.617 174.549C290.617 174.549 289.953 168.549 288.558 159.076C288.204 156.676 285.953 141.661 285.953 141.661C285.953 141.661 279.606 137.889 279.075 131.76C278.543 125.63 279.899 109.268 285.032 101.373C288.855 95.4939 294.877 94.0358 302.701 93.961V93.9625Z" fill="#64C0C6"/>
<path d="M301.117 173.223C306.123 172.603 312.26 171.859 318.007 171.206L326.228 123.777L319.3 130.131L301.118 173.223H301.117Z" fill="#3AAFB7"/>
<path d="M306.431 158.29L309.009 172.26L301.492 173.178C301.492 173.178 290.425 136.388 289.898 126.453C289.372 116.518 293.361 95.5766 293.361 95.5766C293.361 95.5766 315.892 93.0509 310.042 100.418C304.192 107.786 301.047 119.444 301.047 119.444L306.43 158.29" fill="white"/>
<path d="M308.495 76.8363L308.185 96.91C308.185 96.91 307.346 101.899 298.587 101.417C292.304 100.936 292.824 97.5247 292.824 97.5247L295.761 76.5939L307 74.8491L308.495 76.837V76.8363Z" fill="#F6A086"/>
<path d="M298.896 97.4157C294.792 97.1015 293.591 95.5381 293.251 94.4908L292.826 97.5246C292.826 97.5246 292.305 100.936 298.589 101.417C307.348 101.899 308.187 96.9099 308.187 96.9099L308.254 92.5806C307.501 94.4335 305.257 97.7663 298.896 97.4157H298.896Z" fill="#70D7DD"/>
<path d="M300.726 47.1287C304.985 47.2346 314.896 67.7416 313.467 73.5921C312.064 79.3352 298.326 90.8693 288.882 89.8801C283.322 89.298 283.433 82.3697 283.303 77.3378C283.254 75.4254 283.326 72.9055 283.601 70.3166C284.049 66.0948 285.032 61.6907 286.897 59.4401C289.904 55.8097 300.727 47.1279 300.727 47.1279L300.726 47.1287Z" fill="#F6A086"/>
<path d="M296.439 60.3631C293.503 62.7996 283.62 66.5475 278.835 63.0216C274.05 59.4958 277.12 53.2831 280.345 51.0513C283.57 48.8196 287.283 47.8819 287.283 47.8819C287.283 47.8819 285.171 42.4167 290.386 39.494C295.602 36.572 299.161 42.5249 299.161 42.5249C299.161 42.5249 300.807 39.4033 308.078 39.5267C315.349 39.65 321.625 42.6649 324.643 48.2861C330.507 59.212 329.477 68.2843 321.874 72.4292C315.263 76.0335 306.898 73.6326 306.898 73.6326C306.898 73.6326 302.431 72.7515 301.643 66.0895C300.868 59.5314 299.376 57.9259 296.439 60.3624V60.3631Z" fill="#222B54"/>
<path d="M317.265 76.1402C316.911 79.8344 313.677 82.6033 310.581 82.366C307.484 82.1294 305.699 78.9758 306.052 75.2816C306.405 71.5874 309.202 68.7852 312.298 69.0218C315.394 69.2591 317.618 72.4453 317.265 76.1395V76.1402Z" fill="#F6A086"/>
<path d="M314.975 95.1042C311.416 93.13 308.231 94.0126 308.231 94.0126C308.231 94.0126 298.421 102.506 298.572 118.939C298.722 135.372 306.525 158.773 306.525 158.773L306.992 120.231C306.992 120.231 306.045 120.242 302.83 118.854C306.008 101.956 314.976 95.1034 314.976 95.1034L314.975 95.1042Z" fill="#3AAFB7"/>
<path d="M293.165 95.1042C293.165 95.1042 292.273 99.5823 291.596 120.065C290.919 140.5 297.832 159.477 297.832 159.477C297.832 159.477 281.88 119.13 283.03 116.623C284.79 114.798 287.034 113.604 287.034 113.604C287.034 113.604 284.994 101.628 286.684 98.4261C289.852 95.4214 293.165 95.1035 293.165 95.1035L293.165 95.1042Z" fill="#3AAFB7"/>
<g style="mix-blend-mode:multiply" opacity="0.33">
<path d="M308.252 155.049C308.252 155.049 314.279 94.9307 306.932 104.012C299.584 113.094 286.689 143.644 287.043 146.044C287.974 152.36 290.093 170.164 290.393 172.643L308.252 155.048V155.049Z" fill="#3AAFB7"/>
</g>
<path d="M241.278 193.487C241.278 193.487 241.124 190.724 242.851 189.34C244.579 187.957 284.584 162.219 284.584 162.219C284.584 162.219 302.445 102.069 312.174 98.882C320.274 96.2285 323.686 103.637 328.154 110.73C329.889 120.595 316.04 150.073 309.864 169.22C305.133 183.884 254.001 202.645 246.891 204.613C243.782 198.791 241.278 193.488 241.278 193.488V193.487Z" fill="#64C0C6"/>
<path d="M241.278 193.487L238.2 194.976L243.848 206.256L246.891 204.612L241.278 193.487Z" fill="#64C0C6"/>
<path d="M103.545 37.744C106.89 39.5708 111.374 39.4002 114.393 36.7438C117.109 34.3538 118.217 30.1138 116.606 26.9059C115.099 23.9026 111.239 22.2297 107.97 23.3691C106.371 23.9273 104.666 25.3948 104.803 27.2397C104.92 28.819 106.35 29.6537 107.728 30.0187C109.833 30.5769 112.307 30.6952 114.488 30.5195C116.48 30.3591 118.408 29.7684 119.969 28.4365C123.048 25.8107 122.649 21.5757 119.557 19.3273C115.675 16.5047 110.485 18.4237 106.358 19.8542C102.899 21.0524 97.1251 22.6811 94.8069 18.7786C93.9394 17.3176 93.4675 14.7069 94.3852 13.1189C95.489 11.2087 98.4347 10.8973 99.8941 12.3685C102.824 15.3239 102.25 20.1859 99.9217 23.4105C98.6797 25.1299 96.9346 26.527 94.9684 27.3029C94.01 27.681 92.9847 27.9234 91.9638 27.9662C90.6469 28.0207 88.3077 27.3784 88.8341 25.5254C89.4631 23.3125 93.5671 23.74 95.188 23.9715C97.4567 24.2952 99.6294 25.0413 101.804 25.7098C105.711 26.9102 109.857 27.8617 113.846 26.1184C117.242 24.6335 120.193 21.4495 120.848 17.7371C121.416 14.5175 120.179 10.6128 116.581 10.0968C112.49 9.51035 109.413 13.2017 108.544 16.8545C107.408 21.6316 109.028 26.506 107.866 31.2685C107.288 33.6346 106.017 35.7343 103.854 36.9696C101.934 38.0662 99.6279 38.5242 97.4734 38.7586C95.2818 38.9967 92.5128 38.7833 91.7922 36.312C91.1007 33.9423 92.4422 31.5044 92.76 29.1609C93.0698 26.8768 92.195 24.8918 91.1639 22.9511C90.1132 20.9726 88.8843 18.7938 89.3417 16.4183C90.3524 11.1688 96.968 14.2156 100.189 14.4101C101.756 14.5045 103.518 14.2693 104.709 13.0972C105.533 12.2857 105.946 11.1078 106.174 10.0082C106.662 7.65236 106.308 4.78842 104.033 3.56984C101.439 2.18069 98.1329 3.35718 96.5245 5.81758C94.5699 8.80925 95.8715 12.2741 97.8151 14.7679C98.7306 15.943 99.905 17.073 101.338 17.5825C103.054 18.1921 104.924 17.4054 106.562 16.7921C108.504 16.0656 111.061 15.1315 112.627 16.9707C113.799 18.3453 113.793 20.5655 112.974 22.1651C110.767 26.4726 104.874 26.7273 100.913 28.1441C96.9346 29.5666 94.4448 32.572 92.0612 35.9331C89.5998 39.4038 86.961 43.1902 82.569 44.1679C80.1898 44.6977 77.6652 44.2317 75.8931 42.5704C74.3203 41.0963 73.4681 38.8421 74.2025 36.6814C74.9682 34.4293 77.0573 32.8834 79.4169 33.0873C81.3961 33.2586 83.4714 34.2842 85.4413 33.3414C88.7781 31.7439 88.5055 26.6983 87.3849 23.9106C85.9524 20.3455 82.3749 18.6153 78.7755 20.5618C75.8167 22.1614 73.5233 25.045 73.023 28.3727C72.6289 30.9971 73.1787 34.0388 75.3426 35.6994C78.2003 37.892 81.7626 36.4332 84.7927 35.277C85.3649 35.0586 86.1619 34.6979 86.7821 34.8445C87.5711 35.0317 87.9376 36.0369 88.0685 36.7554C88.4029 38.5902 87.7696 40.5948 87.169 42.3382C86.1386 45.3327 84.4291 49.0828 80.7395 49.0545C78.6948 49.0386 77.996 47.1915 77.9146 45.369C77.8491 43.9131 78.2309 42.4724 78.569 41.0579C78.8998 39.6731 79.2314 38.2883 79.563 36.9028C80.8457 31.5393 82.3414 26.1721 83.3893 20.7643C83.8095 18.5935 83.9702 16.3015 83.0599 14.27C82.3342 12.6508 80.9664 11.298 79.1609 11.0105C75.195 10.3791 71.3295 14.3658 69.9756 17.7922C68.6354 21.1824 69.6403 25.5842 73.1416 27.059C75.3346 27.9829 77.6928 27.2492 79.9382 26.797C81.9139 26.3986 83.9041 26.1576 85.9081 26.1663C89.6405 26.1823 94.756 26.7861 95.713 31.1473C97.0029 37.0262 88.0408 39.2957 84.8414 35.5536C83.2933 33.7427 83.2496 30.9289 83.7427 28.7661C84.1811 26.8449 84.6785 24.9347 85.1293 23.0157C86.4018 17.6006 87.8234 11.9287 87.8489 6.36918C87.8561 4.76447 87.811 2.8368 86.4527 1.79966C85.5278 1.09347 84.1157 0.451884 83.1049 1.45709C82.2353 2.32222 82.2302 3.80064 82.4905 4.88568C82.8963 6.57602 84.1535 8.09218 85.7307 8.79038C87.2111 9.44576 88.8959 9.22803 90.476 9.02916C94.804 8.48338 98.8899 6.87432 103.165 6.01282C107.022 5.23551 110.992 4.73544 114.909 4.73472C116.238 4.73472 117.559 4.87479 118.832 5.23115C123.171 6.44756 125.742 10.0961 126.737 14.3782C127.644 18.2785 127.462 22.4046 126.991 26.392C126.495 30.5878 125.567 34.7211 124.467 38.813C122.865 44.7717 120.493 51.0773 121.295 57.2813C122.11 63.581 126.617 68.6368 131.553 72.1757C136.635 75.8192 142.637 78.056 148.707 79.5591C156.161 81.404 163.882 82.2111 171.575 82.6299C180.742 83.1285 189.951 83.045 199.147 82.7917C204.159 82.6538 209.172 82.4666 214.184 82.2416C218.306 82.0565 222.432 81.616 226.494 80.7726C232.966 79.4292 239.943 77.037 244.673 72.0741C248.738 67.8102 250.175 61.7869 248.675 56.2238C247.301 51.1288 242.944 48.2025 237.923 47.3344C231.778 46.2726 225.225 47.6233 219.359 49.7716C212.651 52.2276 206.334 55.9807 201.106 60.9348C189.5 71.9311 181.311 86.4352 175.299 101.047C169.396 115.395 165.131 130.92 164.566 146.355C164.057 160.278 165.918 175.447 174.135 186.851C180.308 195.419 189.746 200.542 200.301 201.586C211.677 202.711 223.634 199.529 233.854 194.22C238.059 192.036 241.591 188.24 244.487 184.553C248.818 179.043 252.082 172.585 253.502 165.752C255.189 157.636 254.065 149.383 250.62 142.027C247.422 135.198 242.783 128.975 236.817 124.378C227.014 116.824 214.079 114.533 201.881 117.475C196.259 118.83 190.825 121.245 186.073 124.634C181.058 128.208 177.308 133.003 174.638 138.527C168.517 151.192 167.543 167.07 173.983 179.438C179.992 190.978 192.215 197.611 205.002 198.794C217.496 199.95 230.858 195.777 239.277 185.795C243.535 180.747 246.302 174.463 248.01 168.166C249.679 162.017 250.213 155.541 249.077 149.328C247.921 143.005 244.973 137.193 240.644 132.543C235.314 126.818 228.087 122.739 220.595 120.486C213.592 118.38 205.994 118.104 198.845 120.271C192.298 122.255 186.391 126.188 181.851 131.365C173.382 141.019 169.801 154.497 171.775 166.892C172.644 172.347 174.664 177.602 177.919 182.012C181.433 186.773 186.272 190.322 191.751 192.544C198.713 195.366 206.779 196.307 214.33 195.582C220.293 195.009 226.123 193.025 230.968 189.313C239.347 182.894 243.613 172.479 244.923 162.36C245.45 158.284 245.557 154.092 244.919 150.056C244.197 145.49 242.357 141.024 239.94 137.153C236.931 132.335 232.75 128.288 227.665 125.716C221.098 122.394 213.533 121.73 206.201 122.7C199.038 123.648 191.928 126.043 186.214 130.732C181.657 134.472 178.329 139.486 176.33 144.986C174.555 149.871 173.78 155.093 173.816 160.232C173.849 164.991 174.72 169.47 176.775 173.723C182.21 184.973 193.488 192.136 206.044 192.542C213.269 192.776 221.211 191.287 227.525 187.396C232.292 184.459 236.006 180.097 238.39 175.052C242.607 166.127 243.264 155.297 241.028 145.919C240.642 144.298 240.153 142.685 239.444 141.182C238.797 139.813 237.853 138.689 236.844 137.577C233.239 133.604 228.801 130.326 223.852 128.202C217.194 125.345 209.775 124.846 202.624 126.593C196.271 128.145 189.786 131.068 185.221 135.973C178.602 143.087 175.991 153.287 176.973 162.648C178 172.442 183.149 181.6 191.831 186.324C196.866 189.064 202.664 190.143 208.431 190.016C214.137 189.892 219.933 188.693 224.991 185.803C233.525 180.925 238.4 171.839 239.289 162.304C240.154 153.015 237.51 143.197 231.452 136.231C228.524 132.863 224.754 130.253 220.468 128.899C214.658 127.063 207.866 127.348 201.959 129.039C196.067 130.726 190.681 134.151 186.763 138.949C182.941 143.629 180.629 149.382 180.01 155.32C179.339 161.757 180.689 168.23 183.522 173.914C185.946 178.777 189.287 183.007 194.195 185.479C202.745 189.786 213.482 188.508 221.955 184.022C230.906 179.284 237.574 170.512 237.857 160.243C238.033 153.89 235.884 147.759 232.76 142.404C229.187 136.28 223.302 132.17 216.278 130.937C210.307 129.889 203.865 130.693 198.215 133.149C191.888 135.898 186.825 141.12 183.986 147.397C181.091 153.8 180.521 161.133 182.486 167.75C184.404 174.209 188.724 180.194 194.696 183.368C205.272 188.992 218.527 184.328 226.362 175.592C230.261 171.244 232.971 165.769 233.438 159.966C233.946 153.637 231.552 147.502 227.759 142.648C221.067 134.08 208.98 130.342 198.752 135.545C193.608 138.162 189.769 142.751 187.538 148.024C184.959 154.117 184.01 161.438 185.864 167.737C188.734 177.49 198.716 183.164 208.72 181.782C210.931 181.477 213.113 180.821 215.099 179.748C217.928 178.22 220.342 175.766 222.517 173.429C227.679 167.885 231.726 160.609 229.973 152.965C229 148.72 226.434 144.937 223.388 141.945C220.963 139.563 217.992 137.722 214.67 136.853C208.733 135.301 202.364 137.063 197.568 141.015C192.24 145.405 189.155 152.173 188.877 158.945C188.624 165.082 190.757 171.556 195.639 175.347C200.944 179.466 207.95 178.753 213.755 175.618C220.898 171.762 228.175 164.769 227.575 156.083C227.114 149.399 222.389 143.5 216.372 140.959C210.497 138.478 202.031 138.912 197.58 144.249C194.553 147.88 193.036 152.728 192.698 157.334C192.365 161.875 193.232 166.9 196.436 170.225C200.241 174.175 206.234 174.162 211.301 172.719C216.227 171.317 220.492 168.002 222.254 163.059C225.3 154.514 220.23 143.668 210.895 142.693C205.711 142.151 200.949 144.752 198.379 149.367C196.053 153.544 195.457 158.875 197.073 163.296C198.836 168.12 203.504 171.037 208.72 170.198C214.377 169.288 218.698 164.002 219.504 158.484C220.481 151.792 215.299 144.977 208.334 145.087C204.581 145.146 201.605 147.485 199.827 150.729C198.097 153.89 197.229 157.986 198.615 161.347C200.495 165.905 205.886 168.339 210.663 166.995C212.845 166.381 214.796 164.96 215.9 162.938C217.301 160.368 217.203 157.324 216.475 154.624C215.772 152.019 214.346 149.42 211.822 148.248C209.866 147.341 207.596 147.48 205.623 148.412C200.79 150.692 199.336 156.617 201.83 161.025C203.161 163.377 205.702 164.507 208.371 163.718C210.902 162.969 213.045 160.807 213.77 158.262C214.578 155.426 213.443 151.872 210.928 150.341C208.757 149.02 206.078 150.058 204.742 152.165C203.295 154.448 203.721 157.441 205.519 159.309C207.373 161.236 210.402 160.344 210.784 157.562C210.988 156.079 210.33 154.468 209.323 153.427C208.807 152.893 208.046 152.562 207.426 153.184C206.521 154.091 206.383 156.808 207.749 157.298C208.211 157.464 208.434 156.719 207.975 156.555C207.268 156.302 207.53 154.535 207.771 154.034C208.487 152.547 209.854 155.731 209.97 156.264C210.31 157.834 209.354 160.027 207.431 159.592C205.77 159.217 204.746 157.115 204.633 155.529C204.452 152.981 206.659 149.993 209.434 150.57C212.615 151.23 213.893 155.633 212.915 158.439C212.022 161.003 209.433 163.18 206.687 163.212C203.574 163.248 201.847 160.27 201.428 157.506C200.73 152.908 204.567 148.099 209.376 148.41C211.975 148.577 213.894 150.432 214.956 152.684C216.208 155.337 216.757 158.763 215.67 161.63C213.899 166.307 208.176 167.612 204.035 165.769C201.636 164.701 199.624 162.567 198.978 159.973C198.043 156.216 199.523 151.747 202.06 148.814C207.597 142.41 217.285 147.465 218.672 154.561C219.758 160.115 216.381 166.385 211.142 168.691C206.16 170.883 200.474 168.811 198.213 164.028C196.267 159.912 196.619 154.657 198.635 150.518C200.897 145.873 205.333 143.04 210.46 143.428C219.684 144.125 224.585 154.974 221.38 163.232C219.45 168.204 214.825 171.2 209.808 172.307C204.775 173.418 199.194 172.928 196.037 168.533C193.399 164.861 193.015 159.87 193.679 155.435C194.322 151.133 196.063 146.483 199.378 143.461C201.711 141.334 204.904 140.549 207.94 140.377C212.037 140.145 216.015 141.166 219.333 143.495C224.885 147.391 228.322 154.524 226.189 161.406C224.854 165.717 221.647 169.009 218.178 171.762C214.957 174.319 211.246 176.46 207.206 177.227C201.035 178.398 195.321 175.543 192.258 170.249C185.762 159.024 191.742 142.291 204.429 138.011C210.699 135.896 217.292 137.504 222.069 141.779C225.231 144.608 227.921 148.341 229.058 152.504C230.029 156.062 229.706 159.804 228.353 163.286C226.92 166.97 224.492 170.237 221.788 173.103C219.687 175.33 217.385 177.668 214.665 179.121C210.721 181.227 206.006 181.655 201.736 180.844C197.118 179.967 192.845 177.599 189.911 173.937C186.313 169.444 185.274 163.516 185.864 157.789C186.512 151.496 188.841 145.101 193.367 140.462C197.049 136.686 202.004 134.348 207.19 133.962C218.727 133.104 228.852 141.56 231.917 152.336C235.191 163.848 228.039 175.676 217.942 181.414C213.016 184.212 207.239 185.676 201.683 184.856C195.456 183.937 190.268 180.153 186.796 175.044C179.051 163.641 181.175 147.057 192.093 137.839C201.673 129.749 217.713 128.67 227.135 136.765C229.912 139.151 231.905 142.193 233.526 145.464C234.906 148.248 235.981 151.199 236.582 154.272C237.561 159.282 237.153 164.54 235.095 169.324C231.27 178.222 222.469 184.306 213.309 186.466C204.366 188.575 194.305 186.939 188.231 179.837C184.248 175.181 181.71 168.948 180.888 162.834C180.101 156.975 180.967 150.826 183.563 145.4C186.092 140.113 190.184 135.645 195.254 132.703C200.999 129.369 207.653 128.162 214.133 128.571C218.791 128.865 223.151 130.29 226.882 133.044C230.37 135.619 233.091 139.136 235.023 143.017C238.971 150.947 239.849 160.669 237.116 169.315C235.747 173.647 233.417 177.698 230.168 180.925C226.582 184.488 222.038 186.868 217.205 188.104C206.609 190.815 194.404 189.093 186.511 181.459C179.808 174.975 176.918 165.276 177.654 155.927C178.363 146.935 182.562 137.774 190.319 132.625C193.567 130.469 197.3 128.919 201 127.825C204.823 126.696 208.796 126.156 212.742 126.367C219.082 126.706 225.086 129.036 230.172 132.672C232.118 134.064 233.929 135.642 235.584 137.368C236.633 138.464 237.73 139.602 238.459 140.949C240.071 143.933 240.719 147.528 241.118 150.891C242.263 160.555 240.764 171.41 234.843 179.587C231.461 184.257 226.664 187.65 221.262 189.497C214.152 191.928 206.174 192.57 198.96 190.823C188.061 188.183 178.941 179.696 175.718 168.894C174.469 164.706 174.379 160.167 174.764 155.791C175.219 150.623 176.549 145.448 179.004 140.806C181.788 135.543 186 131.185 191.174 128.25C197.839 124.47 205.838 122.876 213.341 123.064C219.844 123.226 226.186 125.09 231.388 128.925C235.674 132.083 238.998 136.415 241.277 141.23C242.984 144.838 244.152 148.724 244.46 152.75C244.78 156.93 244.47 161.196 243.679 165.341C241.803 175.165 236.915 184.948 228.108 190.367C222.727 193.679 216.476 194.995 210.3 195.001C203.104 195.008 195.776 193.858 189.378 190.618C184.332 188.063 180.045 184.22 177.086 179.387C174.369 174.948 172.801 169.846 172.248 164.629C170.946 152.34 175.058 139.233 183.946 130.227C188.677 125.435 194.652 121.974 201.152 120.446C208.433 118.733 215.986 119.545 222.858 122.061C229.848 124.621 236.473 128.71 241.27 134.43C245.214 139.131 247.721 144.894 248.574 151.038C249.416 157.101 248.674 163.363 246.904 169.274C245.06 175.428 242.23 181.488 237.839 186.291C229.39 195.532 216.566 199.208 204.588 197.981C192.136 196.706 180.317 190.11 174.545 178.826C168.4 166.813 169.326 151.422 175.191 139.128C177.773 133.716 181.39 128.937 186.283 125.415C190.798 122.164 195.924 119.809 201.262 118.42C212.929 115.384 225.396 117.214 235.101 124.076C240.938 128.203 245.5 133.894 248.84 140.206C252.642 147.391 254.383 155.475 253.105 163.702C252.061 170.428 249.156 176.833 245.17 182.389C242.292 186.401 238.733 190.372 234.499 192.981C232.255 194.362 229.724 195.381 227.292 196.353C224.614 197.424 221.878 198.341 219.099 199.076C213.899 200.452 208.533 201.188 203.195 201.005C193.077 200.656 183.522 196.686 176.889 189.079C168.432 179.382 165.675 165.855 165.313 153.129C164.89 138.312 168.018 123.507 172.929 109.43C178.049 94.7584 185.231 80.3175 195.279 68.2819C199.844 62.8139 204.997 57.9649 211.185 54.4166C217.013 51.0751 223.553 48.6445 230.192 47.9412C235.24 47.4063 241.159 47.7953 244.979 51.4024C248.832 55.0408 249.358 61.5409 247.453 66.4297C245.224 72.1511 239.606 75.6921 234.135 77.7846C226.574 80.6761 218.583 81.2973 210.644 81.621C193.592 82.3163 176.271 83.0029 159.386 80.7559C147.167 79.1302 133.484 75.6588 125.669 65.4993C123.843 63.1245 122.527 60.3818 122.084 57.3705C121.674 54.5843 122.017 51.7203 122.597 48.9551C124.045 42.0515 126.453 35.3953 127.492 28.4024C128.415 22.189 128.992 14.675 125.481 9.22512C123.629 6.35031 120.67 4.59972 117.285 4.12434C116.229 3.97628 115.166 3.94797 114.096 3.98063C109.351 4.12506 104.598 4.79278 99.9639 5.95258C96.1332 6.91061 92.5062 8.25403 88.5396 8.44201C86.3647 8.54507 84.5163 7.58413 83.5616 5.59259C83.1195 4.67012 82.6076 2.24747 84.0182 1.75248C85.0392 1.39467 86.3677 2.46883 86.7167 3.39057C87.0148 4.17804 87.0606 5.07511 87.0766 5.91556C87.1261 8.4333 86.7494 10.9801 86.3291 13.4695C85.5154 18.2909 84.3338 23.044 83.1864 27.8029C82.2542 31.6677 82.6447 36.4187 86.9152 37.8086C90.977 39.1302 97.088 36.6945 96.5594 31.5901C96.182 27.9524 92.9367 26.204 89.6784 25.6851C86.0775 25.1125 82.4149 25.4514 78.8359 26.2505C76.4523 26.7825 73.9123 27.1846 72.0079 25.397C70.4918 23.9737 69.8839 21.7528 70.233 19.688C70.6089 17.4598 71.936 15.4603 73.596 13.9427C75.3216 12.3649 77.9153 10.9924 80.1564 12.1428C82.1684 13.1755 82.9784 15.588 82.9639 17.756C82.9472 20.3151 82.1313 22.8821 81.5365 25.3679C80.3018 30.5297 79.0664 35.6922 77.8324 40.8539C77.2092 43.4602 76.0792 49.2418 80.0262 49.7752C82.5908 50.1214 84.8654 48.5755 86.2113 46.4236C87.0846 45.0272 87.6351 43.4138 88.1295 41.8577C88.6225 40.3052 89.0428 38.6251 88.8734 37.0022C88.7614 35.9266 88.2706 34.4983 87.1363 34.1383C85.9881 33.7739 84.6 34.5375 83.55 34.9584C80.501 36.1814 76.5163 36.9659 74.5915 33.6839C73.2223 31.3484 73.4041 28.0083 74.6904 25.5966C76.541 22.1259 81.6281 18.5376 85.0493 21.7528C86.4687 23.0868 87.1791 25.1132 87.3319 27.0496C87.4751 28.8597 87.1871 31.2867 85.5234 32.4233C83.5674 33.7594 81.0522 32.3267 78.9653 32.2948C77.2689 32.2687 75.6924 33.1011 74.6097 34.4257C72.2792 37.2766 72.999 41.1704 75.6371 43.3891C78.6563 45.9286 83.1253 45.504 86.3742 43.3615C89.4042 41.3627 91.3464 38.1874 93.4377 35.3082C94.5633 33.7587 95.7668 32.2353 97.2531 31.0138C99.0906 29.5034 101.292 28.7508 103.539 28.152C107.091 27.2056 111.484 26.2744 113.509 22.7631C114.899 20.3535 114.54 16.5591 111.781 15.4284C108.176 13.9507 104.533 18.3787 101.087 16.6317C98.322 15.2295 95.7268 11.2747 96.4125 8.0392C97.0967 4.8131 101.075 2.4906 103.95 4.43352C106.068 5.86476 105.898 9.18303 104.967 11.3415C103.297 15.2135 98.3336 13.1886 95.4054 12.7248C93.7817 12.4679 91.9572 12.4077 90.4964 13.3686C89.1308 14.2664 88.4924 15.8152 88.4858 17.3909C88.4662 21.8777 92.7833 24.9651 91.918 29.5934C91.5217 31.7156 90.5706 33.7703 90.9196 35.9535C91.1828 37.5981 92.2655 38.8174 93.8318 39.3153C95.513 39.8494 97.3868 39.5904 99.1102 39.2921C101.053 38.956 103.048 38.4378 104.729 37.3259C108.224 35.0136 109.09 30.7387 109.055 26.871C109.015 22.4002 107.921 16.9104 111.158 13.1059C112.488 11.5425 114.692 10.4778 116.717 10.9039C118.641 11.3088 119.785 12.9847 120.114 14.8441C120.816 18.8221 118.214 22.7377 114.849 24.7481C110.939 27.083 106.675 26.3673 102.627 25.1509C98.8862 24.0274 94.7466 22.3443 90.7218 23.2857C89.2988 23.6181 87.7718 24.6552 88.0415 26.3093C88.3317 28.0889 90.1655 28.7704 91.774 28.7465C95.2788 28.6942 98.6412 26.5488 100.651 23.6914C102.669 20.8217 103.241 17.3923 101.93 14.2025C101.393 12.8969 100.561 11.536 99.2113 10.9714C97.7155 10.345 95.8722 10.7021 94.599 11.7501C92.2852 13.6546 92.9614 17.9686 94.692 19.9398C96.872 22.4235 100.814 22.2732 103.797 21.4698C108.314 20.2534 113.615 17.1463 118.204 19.4202C120.086 20.3528 121.64 22.3596 121.373 24.5877C121.117 26.7331 119.258 28.3952 117.334 29.1449C115.203 29.9752 112.855 29.8562 110.65 29.6609C109.09 29.5223 106.461 29.4592 105.718 27.7725C104.719 25.5008 107.88 23.9273 109.665 23.801C111.393 23.6791 113.141 24.2923 114.432 25.4006C117.356 27.9096 117.122 32.5285 114.633 35.4207C111.964 38.5227 107.316 38.9197 103.949 37.0806C103.52 36.8462 103.112 37.5117 103.542 37.7461L103.545 37.744Z" fill="#272A52"/>
<path d="M58.723 44.1845C61.7427 41.1704 61.7427 36.2837 58.723 33.2696C55.7033 30.2556 50.8074 30.2556 47.7876 33.2696C44.7679 36.2837 44.7679 41.1704 47.7876 44.1845C50.8074 47.1985 55.7033 47.1985 58.723 44.1845Z" fill="white"/>
<path d="M40.5547 49.9086C43.5745 46.8945 43.5745 42.0078 40.5547 38.9938C37.535 35.9797 32.6391 35.9797 29.6194 38.9938C26.5996 42.0078 26.5996 46.8945 29.6194 49.9086C32.6391 52.9226 37.535 52.9226 40.5547 49.9086Z" fill="white"/>
<path d="M22.3865 55.6327C25.4062 52.6187 25.4062 47.7319 22.3865 44.7179C19.3668 41.7038 14.4708 41.7038 11.4511 44.7179C8.43137 47.7319 8.43137 52.6187 11.4511 55.6327C14.4708 58.6468 19.3668 58.6468 22.3865 55.6327Z" fill="white"/>
<path d="M312.174 85.1048C313.346 85.1048 314.295 84.1569 314.295 82.9877C314.295 81.8185 313.346 80.8706 312.174 80.8706C311.003 80.8706 310.053 81.8185 310.053 82.9877C310.053 84.1569 311.003 85.1048 312.174 85.1048Z" fill="#222B54"/>
</g>
<defs>
<linearGradient id="paint0_linear_8041_2200" x1="144.053" y1="36.7322" x2="180.126" y2="36.7322" gradientUnits="userSpaceOnUse">
<stop stop-color="#D5ECE4"/>
<stop offset="1" stop-color="#AFE0EA"/>
</linearGradient>
<linearGradient id="paint1_linear_8041_2200" x1="361.95" y1="82.5025" x2="382.629" y2="82.5025" gradientUnits="userSpaceOnUse">
<stop stop-color="#D5ECE4"/>
<stop offset="1" stop-color="#AFE0EA"/>
</linearGradient>
<linearGradient id="paint2_linear_8041_2200" x1="12.598" y1="93.3686" x2="36.7059" y2="93.3686" gradientUnits="userSpaceOnUse">
<stop stop-color="#D5ECE4"/>
<stop offset="1" stop-color="#AFE0EA"/>
</linearGradient>
<clipPath id="clip0_8041_2200">
<rect width="384" height="219" fill="white"/>
</clipPath>
</defs>
</svg>
