<svg width="80" height="80" viewBox="0 0 80 80" fill="none" xmlns="http://www.w3.org/2000/svg">
<path d="M57.0414 27.8789L52.9081 3.87891L33.3081 10.5722C32.9614 9.07891 31.4147 8.19891 29.9481 8.67891L5.70806 16.6522C3.94806 17.2389 4.2414 19.7989 6.0814 19.9856L36.1614 22.9722C36.5614 24.7589 38.0547 26.0922 39.8947 26.2789L57.0414 27.8789Z" fill="#D5B8D8"/>
<path d="M33.308 10.9711C34.108 14.8911 34.9346 18.8111 35.7346 22.7311C35.8146 23.0778 36.3213 22.9178 36.2413 22.5978C35.4413 18.6778 34.6146 14.7578 33.8146 10.8378C33.7613 10.5178 33.228 10.6511 33.308 10.9711Z" fill="#252334"/>
<path d="M31.7615 16.4379C32.1615 18.4112 32.5882 20.3846 32.9882 22.3579C33.0682 22.7046 33.5748 22.5446 33.4948 22.2246C33.0948 20.2512 32.6681 18.2779 32.2681 16.3046C32.1881 15.9846 31.6815 16.1179 31.7615 16.4379Z" fill="#252334"/>
<path d="M48.2417 72.0925C48.2417 72.0925 57.6017 73.7725 64.1084 66.6525C70.6417 59.5058 68.5617 44.4925 68.5617 44.4925L53.5217 40.8125L41.895 59.0525L48.2417 72.0925Z" fill="#FFDCC8"/>
<path d="M62.748 50.2251L54.748 3.74505C54.668 3.21172 54.1613 2.86505 53.628 2.94505C53.0947 3.02505 52.7213 3.53172 52.8013 4.09172L60.9347 51.3717L62.748 50.2251Z" fill="#252334"/>
<path d="M27.9482 57.8785L37.2016 52.5985C37.2016 52.5985 39.1482 39.1585 52.0282 36.6519C61.8149 34.7585 72.4816 39.5585 74.5349 41.2119C76.6149 42.8652 75.0682 45.5852 73.0416 46.4919C71.0149 47.3719 66.6949 47.2119 60.6682 46.5452C60.6682 46.5452 61.4416 52.8919 54.0282 58.1719L48.2416 72.0919L38.4549 77.1852C38.4549 77.1852 30.3216 69.0785 27.9482 57.8785Z" fill="#FFDCC8"/>
<path d="M47.1481 68.8108C47.0148 69.9574 47.3614 71.0508 48.1081 71.9308C48.3214 72.1975 48.6948 71.8241 48.4814 71.5575C47.8414 70.7575 47.5748 69.8241 47.6814 68.8108C47.7348 68.4641 47.2014 68.4641 47.1481 68.8108Z" fill="#252334"/>
<path d="M68.4284 46.7053C68.4284 46.7053 63.4151 49.5053 60.7751 51.5053C58.1351 53.5053 56.5617 57.3986 60.0284 58.9186C60.0284 58.9186 59.1751 60.0653 59.1484 61.3986C59.1217 62.492 59.7084 63.532 61.0151 63.7986C61.0151 63.7986 59.6551 66.0386 61.2551 67.4786C62.6684 68.7586 64.9617 68.0386 66.0017 67.5053C67.0417 66.972 71.6551 63.9053 72.8017 62.7586C73.9217 61.6386 74.1884 59.6653 72.1884 58.332C72.1884 58.332 73.5218 57.5853 74.0551 55.852C74.4551 54.5986 74.2151 52.4653 73.2551 51.8253C73.2551 51.8253 74.3751 49.9586 73.8417 47.772C73.2017 45.052 70.1617 45.692 68.4284 46.7053Z" fill="#FFDCC8"/>
<path d="M60.7483 59.5578C61.8949 59.6912 62.7483 59.2112 63.7083 58.6245C64.8549 57.9045 66.0016 57.1845 67.1216 56.4112C69.2283 54.9978 71.2816 53.5045 73.255 51.9312C73.5216 51.7178 73.1483 51.3445 72.8816 51.5578C71.0416 53.0245 69.1749 54.3845 67.2283 55.6912C66.3216 56.3045 65.3883 56.8912 64.4816 57.5045C63.3616 58.2245 62.1616 59.2112 60.7483 59.0245C60.4016 58.9978 60.4016 59.5312 60.7483 59.5578Z" fill="#252334"/>
<path d="M61.1485 64.4377C63.1751 64.891 64.9085 63.7444 66.5351 62.7044C68.5885 61.4244 70.5351 60.011 72.4018 58.4644C72.6685 58.251 72.2951 57.8777 72.0285 58.091C70.4551 59.371 68.8285 60.5977 67.1218 61.691C65.4418 62.7844 63.4151 64.3577 61.3085 63.9044C60.9618 63.851 60.8018 64.3577 61.1485 64.4377Z" fill="#252334"/>
<path d="M52.2681 60.0926C57.1481 57.266 60.5614 52.386 61.4681 46.8126C61.5214 46.466 61.0147 46.3326 60.9614 46.6793C60.0547 52.1193 56.7747 56.8926 52.0014 59.6393C51.6814 59.7993 51.9481 60.2526 52.2681 60.0926Z" fill="#252334"/>
<path d="M57.3615 55.0256C57.1215 57.1056 58.5616 59.2123 60.6682 59.559C61.0149 59.6123 61.1482 59.1056 60.8016 59.0523C58.9082 58.759 57.6815 56.8923 57.8949 55.0256C57.9215 54.679 57.3882 54.679 57.3615 55.0256Z" fill="#252334"/>
<path d="M59.5483 58.9191C58.0283 61.1057 59.2016 64.0391 61.8149 64.4924C62.1616 64.5457 62.2949 64.0391 61.9483 63.9857C59.6549 63.5591 58.6416 61.1057 60.0016 59.1857C60.2149 58.9191 59.7349 58.6524 59.5483 58.9191Z" fill="#252334"/>
<path d="M60.6951 64.0651C60.1351 65.6384 60.5884 67.3451 62.0284 68.2251C62.3217 68.4117 62.5884 67.9317 62.2951 67.7717C61.0417 67.025 60.7217 65.5317 61.2017 64.2251C61.3084 63.9051 60.8017 63.7451 60.6951 64.0651Z" fill="#252334"/>
<path d="M59.4947 46.7593C61.7347 47.0526 63.9747 47.3193 66.2414 47.4526C68.5347 47.586 70.9614 47.666 73.1214 46.7593C73.4414 46.626 73.3081 46.1193 72.9881 46.2526C70.7748 47.186 68.2414 47.0526 65.8681 46.9193C63.7347 46.786 61.6281 46.5193 59.4947 46.2526C59.1481 46.1993 59.1747 46.7326 59.4947 46.7593Z" fill="#252334"/>
<path d="M59.2548 52.9444C61.8414 51.1844 64.4547 49.3978 67.0414 47.6378C67.3347 47.4511 67.0681 46.9711 66.7747 47.1844C64.1881 48.9444 61.5748 50.7311 58.9881 52.4911C58.6948 52.6778 58.9614 53.1311 59.2548 52.9444Z" fill="#252334"/>
<path d="M74.9617 42.0382C73.095 41.9848 69.1484 41.9848 69.7884 38.9982C69.8684 38.6515 69.335 38.5182 69.2817 38.8648C69.015 40.1448 69.6817 41.3715 70.8283 41.9848C72.055 42.6515 73.6283 42.5448 74.9617 42.5715C75.3083 42.5715 75.3083 42.0382 74.9617 42.0382Z" fill="#252334"/>
<path d="M61.2548 59.0778C59.7615 58.3845 59.8148 56.7311 60.9881 55.6911C61.6015 55.1578 62.6148 54.7578 63.4148 54.7311C64.7481 54.7311 65.4415 55.9578 65.0148 57.1311C64.8815 57.4511 65.4148 57.5845 65.5215 57.2645C65.8948 56.2778 65.6281 55.0778 64.6681 54.4911C63.5215 53.7978 61.8948 54.3578 60.8815 55.0511C59.2281 56.1711 59.0681 58.5978 60.9881 59.4778C61.3081 59.6645 61.5748 59.2111 61.2548 59.0778Z" fill="#252334"/>
<path d="M62.7748 63.9587C61.2815 63.2653 61.3348 61.612 62.5082 60.572C63.1215 60.0387 64.1348 59.6387 64.9348 59.612C66.2682 59.612 66.9615 60.8387 66.5348 62.012C66.4015 62.332 66.9348 62.4653 67.0415 62.1453C67.4148 61.1587 67.1482 59.9587 66.1882 59.372C65.0415 58.6787 63.4148 59.2387 62.4015 59.932C60.7482 61.052 60.5882 63.4787 62.5082 64.3587C62.8282 64.5453 63.0948 64.092 62.7748 63.9587Z" fill="#252334"/>
<path d="M64.5082 67.6376C63.4415 67.131 63.4682 65.9576 64.3215 65.2376C64.7749 64.8643 65.4949 64.5443 66.0815 64.5443C67.0415 64.5443 67.5215 65.4243 67.2015 66.251C67.0682 66.571 67.6015 66.7043 67.7082 66.3843C68.0015 65.611 67.7882 64.6776 67.0415 64.251C66.1615 63.7176 64.9349 64.1443 64.1349 64.6776C62.8549 65.5576 62.7215 67.4243 64.2149 68.1176C64.5615 68.251 64.8282 67.7976 64.5082 67.6376Z" fill="#252334"/>
</svg>
