<svg width="80" height="80" viewBox="0 0 80 80" fill="none" xmlns="http://www.w3.org/2000/svg">
<path d="M21.7846 69.4939L1.35797 44.1072C0.904636 43.5206 0.98465 42.6939 1.57132 42.2406L35.1979 15.1739C35.7846 14.7206 36.6113 14.8006 37.0646 15.3872L57.4913 40.7739C57.9446 41.3606 57.8646 42.1872 57.278 42.6406L23.678 69.7072C23.0913 70.1606 22.2646 70.0806 21.7846 69.4939Z" fill="#D5B8D8"/>
<path d="M68.3978 17.7869C68.3978 17.7869 62.2911 14.3736 54.5845 11.2269C44.9045 7.25357 38.7179 14.7202 34.2379 23.6802C29.7579 32.6669 34.6112 33.3602 36.0245 33.2002C37.4378 33.0136 39.1712 30.1869 39.5978 29.3602C39.5978 29.3602 46.5578 34.6936 48.8245 34.9869C51.0912 35.2802 53.6778 33.3869 51.5978 30.1069C49.5178 26.8269 47.9712 25.4136 47.9712 25.4136L68.3978 17.7869Z" fill="#FFDCC8"/>
<path d="M21.7846 65.6794L1.35797 40.2928C0.904636 39.7061 0.98465 38.8794 1.57132 38.4261L35.1979 11.3594C35.7846 10.9061 36.6113 10.9861 37.0646 11.5728L57.4913 36.9594C57.9446 37.5461 57.8646 38.3728 57.278 38.8261L23.678 65.8661C23.0913 66.3461 22.2646 66.2394 21.7846 65.6794Z" fill="#D5B8D8"/>
<path d="M34.9846 19.76C39.5979 25.4933 44.2113 31.2267 48.8246 36.96C49.038 37.2267 49.4113 36.8533 49.1979 36.5867C44.5846 30.8533 39.9713 25.12 35.358 19.3867C35.1446 19.12 34.7713 19.4933 34.9846 19.76Z" fill="#252334"/>
<path d="M37.7312 28.5588C40.4245 32.2121 43.5446 35.4921 46.2379 39.1454C46.4513 39.4121 46.9046 39.1454 46.6912 38.8788C43.9979 35.2254 40.8779 31.9454 38.1845 28.2921C37.9979 28.0254 37.5445 28.2921 37.7312 28.5588Z" fill="#252334"/>
<path d="M32.4514 22.0002C33.8914 23.7869 35.3314 25.5736 36.7714 27.3602C36.9848 27.6269 37.3581 27.2536 37.1447 26.9869C35.7047 25.2002 34.2648 23.4136 32.8248 21.6269C32.6114 21.3602 32.2381 21.7336 32.4514 22.0002Z" fill="#252334"/>
<path d="M38.5315 36.2927C40.0248 38.1327 41.4915 39.9727 42.9848 41.8127C43.1981 42.0793 43.5715 41.706 43.3582 41.4393C41.8648 39.5993 40.3982 37.7593 38.9048 35.9193C38.6915 35.626 38.3181 36.026 38.5315 36.2927Z" fill="#252334"/>
<path d="M29.1448 24.6135C31.9181 28.1335 34.8514 31.4935 37.5448 35.0669C37.7581 35.3335 38.2114 35.0669 37.9981 34.8002C35.2514 31.2002 32.3181 27.7868 29.5181 24.2402C29.3047 23.9735 28.9314 24.3468 29.1448 24.6135Z" fill="#252334"/>
<path d="M28.0515 35.3589C31.1715 39.0122 34.2382 42.7189 37.0915 46.5856C37.3049 46.8522 37.7582 46.5856 37.5448 46.3189C34.6648 42.4256 31.5715 38.6656 28.4249 34.9856C28.2115 34.7456 27.8382 35.1189 28.0515 35.3589Z" fill="#252334"/>
<path d="M23.3049 29.467C24.5849 31.067 25.8649 32.6404 27.1449 34.2404C27.3582 34.507 27.7315 34.1337 27.5182 33.867C26.2382 32.267 24.9582 30.6937 23.6782 29.0937C23.4649 28.827 23.0916 29.2004 23.3049 29.467Z" fill="#252334"/>
<path d="M28.8244 41.7321C30.7444 44.1321 32.6644 46.5054 34.6111 48.9054C34.8244 49.1721 35.1977 48.7988 34.9844 48.5321C33.0644 46.1321 31.1444 43.7588 29.1978 41.3588C28.9844 41.0654 28.6111 41.4655 28.8244 41.7321Z" fill="#252334"/>
<path d="M20.718 31.6525C23.0114 34.6392 25.5181 37.4392 27.8114 40.4525C28.0247 40.7192 28.478 40.4525 28.2647 40.1858C25.998 37.1725 23.4647 34.3725 21.1714 31.3858C20.9847 31.1192 20.5314 31.3858 20.718 31.6525Z" fill="#252334"/>
<path d="M24.5046 48.4534C25.918 50.2134 27.3313 51.9734 28.7713 53.7334C28.9846 54 29.3579 53.6267 29.1446 53.36C27.7313 51.6 26.3179 49.84 24.8779 48.08C24.6646 47.8134 24.2913 48.1867 24.5046 48.4534Z" fill="#252334"/>
<path d="M14.9312 36.5588C17.9179 40.0521 20.5579 43.8388 23.5712 47.3055C23.7846 47.5721 24.1846 47.1988 23.9446 46.9322C20.9312 43.4655 18.3179 39.6788 15.3046 36.1855C15.0912 35.9188 14.6912 36.2921 14.9312 36.5588Z" fill="#252334"/>
<path d="M16.3181 45.0119C19.1448 48.9319 22.4515 52.4786 25.4115 56.2919C25.6248 56.5586 26.0781 56.2919 25.8648 56.0252C22.9048 52.1852 19.5982 48.6652 16.7715 44.7452C16.5848 44.4786 16.1315 44.7452 16.3181 45.0119Z" fill="#252334"/>
<path d="M11.5979 39.1721C12.8779 40.7721 14.1579 42.3454 15.4379 43.9454C15.6512 44.2121 16.0246 43.8388 15.8112 43.5721C14.5312 41.9721 13.2512 40.3988 11.9712 38.7988C11.7579 38.5321 11.3845 38.9054 11.5979 39.1721Z" fill="#252334"/>
<path d="M79.9447 21.4138C79.9447 21.4138 79.8113 28.7204 77.0913 39.6538C77.0913 39.6538 68.0247 39.4138 63.0913 38.2938C58.158 37.1738 54.8513 34.3471 53.0646 31.4404C53.0646 31.4404 43.1446 31.5471 40.8513 31.4938C38.558 31.4404 37.1446 29.7338 36.798 28.2671C36.4513 26.8271 37.3314 25.7071 39.3047 25.0138C41.278 24.3204 45.7047 22.9071 45.7047 22.9071L68.4247 17.7871L79.9447 21.4138Z" fill="#FFDCC8"/>
<path d="M46.2646 22.7736C48.7712 21.9203 51.3312 21.147 53.8912 20.427C54.2112 20.347 54.0779 19.8136 53.7579 19.9203C51.1979 20.6403 48.6646 21.387 46.1312 22.267C45.8112 22.3736 45.9446 22.8803 46.2646 22.7736Z" fill="#252334"/>
<path d="M36.9581 27.9996C39.6514 28.293 42.8248 27.093 43.0914 24.053C43.1181 23.7063 42.5848 23.7063 42.5581 24.053C42.3181 26.8263 39.3314 27.733 36.9581 27.4663C36.6114 27.4396 36.6381 27.973 36.9581 27.9996Z" fill="#252334"/>
<path d="M22.8511 66.346C22.3178 66.346 21.8111 66.106 21.4378 65.6794L2.31776 41.9194C2.23776 41.8127 2.23781 41.626 2.37114 41.546C2.47781 41.466 2.66445 41.466 2.74445 41.5994L21.8644 65.3594C22.2911 65.8927 23.1178 65.9994 23.6511 65.546L56.1045 39.4394C56.2111 39.3594 56.3978 39.3594 56.4778 39.4927C56.5578 39.5994 56.5578 39.786 56.4245 39.866L23.9978 65.946C23.6511 66.2127 23.2511 66.346 22.8511 66.346Z" fill="#252334"/>
</svg>
