<svg width="80" height="80" viewBox="0 0 80 80" fill="none" xmlns="http://www.w3.org/2000/svg">
<path d="M31.8142 35.0849C32.0483 34.5647 32.0743 34.0444 32.0223 33.6022C31.8923 32.3796 30.6176 31.9633 30.6176 31.9633C30.6176 31.9633 31.0338 30.9748 30.4615 29.9863C30.0193 29.2059 28.7187 28.8938 27.0538 29.0759C25.2589 29.258 10.8735 30.3505 4.99454 42.2646C-0.0260228 52.4358 2.74036e-06 64.0117 2.74036e-06 64.0117C2.74036e-06 64.0117 4.24012 67.0553 13.3448 66.8211C13.3448 66.8211 16.3363 57.0141 18.0272 52.2537C18.4694 50.9791 18.8596 49.6524 19.1718 48.4037C19.8221 47.7014 24.6606 42.5247 26.4295 41.12C28.3284 39.6112 31.1119 38.9609 31.9183 37.4001C32.4125 36.4636 32.1264 35.6312 31.8142 35.0849Z" fill="#FFDCC8"/>
<path d="M18.6517 41.3289C19.7182 41.667 20.7327 42.4735 21.331 43.3839C21.5131 43.6701 21.9553 43.4099 21.7732 43.1238C21.0969 42.0833 19.9783 41.2248 18.7817 40.8086C18.4696 40.7046 18.3135 41.2248 18.6517 41.3289Z" fill="#252334"/>
<path d="M18.2349 42.2113C19.4836 39.2978 22.1369 37.581 24.8683 36.1762C26.8974 35.1357 29.7849 34.3293 30.6953 32.0141C30.8254 31.702 30.3051 31.5719 30.201 31.884C29.5767 33.4448 27.8598 34.1212 26.4291 34.8236C25.1285 35.4479 23.8278 36.0722 22.6052 36.8266C20.5501 38.0752 18.7552 39.7141 17.7667 41.9512C17.6626 42.2373 18.1049 42.5235 18.2349 42.2113Z" fill="#252334"/>
<path d="M21.2266 42.7339C23.0736 40.861 25.4669 39.6904 27.8341 38.6238C29.4469 37.8955 31.1637 37.089 31.8401 35.3461C31.9701 35.034 31.4499 34.9039 31.3459 35.2161C30.5915 37.1931 28.2242 37.8694 26.4813 38.7019C24.4523 39.6904 22.4753 40.7829 20.8625 42.3957C20.6024 42.6039 20.9925 42.968 21.2266 42.7339Z" fill="#252334"/>
<path d="M70.5384 52.2676L20.568 47.7551C20.0455 47.7076 19.6655 47.2564 19.713 46.7339L23.0618 9.65979C23.1093 9.13729 23.5605 8.75729 24.083 8.80479L74.0534 13.3173C74.576 13.3648 74.9559 13.8161 74.9084 14.3386L71.5597 51.4126C71.5122 51.9351 71.0609 52.3151 70.5384 52.2676Z" fill="#252334"/>
<path d="M68.9235 14.5521L26.7669 10.7521C26.2444 10.7046 25.7931 11.0846 25.7456 11.6071L22.7057 45.2848C22.6582 45.8073 23.0381 46.2586 23.5606 46.3061L65.7172 50.1061C66.2397 50.1536 66.691 49.7736 66.7385 49.2511L69.7785 15.5733C69.826 15.0746 69.446 14.5996 68.9235 14.5521Z" fill="#D5B8D8"/>
<path d="M70.6808 34.4071C70.6333 34.4071 70.5858 34.4071 70.5383 34.4071C70.1108 34.3596 69.707 34.1696 69.422 33.8371C69.137 33.5046 69.0183 33.0771 69.042 32.6496C69.0895 32.2221 69.2796 31.8184 69.6121 31.5334C69.9446 31.2483 70.3721 31.1296 70.7996 31.1533C71.2271 31.2008 71.6308 31.3908 71.9158 31.7233C72.2008 32.0559 72.3195 32.4834 72.2958 32.9109C72.2483 33.7659 71.5121 34.4071 70.6808 34.4071ZM70.6808 31.5571C70.3958 31.5571 70.1345 31.6521 69.897 31.8421C69.6595 32.0559 69.4933 32.3409 69.4695 32.6496C69.4458 32.9584 69.5408 33.2909 69.7545 33.5284C69.9683 33.7659 70.2533 33.9321 70.5621 33.9559C70.8708 33.9796 71.2033 33.8846 71.4408 33.6709C71.6783 33.4571 71.8446 33.1721 71.8683 32.8634C71.8921 32.5546 71.797 32.2221 71.5833 31.9846C71.3695 31.7471 71.0845 31.5809 70.7758 31.5571C70.752 31.5571 70.7283 31.5571 70.6808 31.5571Z" fill="#D5B8D8"/>
<path d="M22.8005 29.9672C22.8955 28.8746 22.9905 27.7821 23.0855 26.6659C23.1093 26.3809 22.6818 26.4046 22.658 26.6659C22.563 27.7584 22.468 28.8509 22.373 29.9672C22.3493 30.2522 22.7768 30.2284 22.8005 29.9672Z" fill="#D5B8D8"/>
<path d="M53.5446 51.6034C53.5446 51.6034 49.2263 49.1322 47.7956 48.3518C45.9747 47.3633 44.4399 47.7274 43.8156 48.2737C43.1392 48.846 42.4889 50.2247 43.7376 51.7335C44.9862 53.2423 52.9983 62.2168 55.4956 64.558C58.6952 67.5496 62.7012 67.5496 62.7012 67.5496L64.6522 71.4515C64.6522 71.4515 74.6673 71.4516 80.0001 65.4165C80.0001 65.4165 73.2366 47.1551 71.8839 44.6058C70.5312 42.0565 68.8144 40.3917 66.2911 39.091C63.7678 37.7904 60.4381 38.8309 60.4381 38.8309C60.4381 38.8309 57.0564 37.9204 52.0358 38.7008C47.7956 39.3512 45.6886 40.3917 44.648 41.5883C43.6856 42.6809 44.2318 45.2822 47.6135 45.3602C50.9953 45.4383 53.0763 45.4123 53.0763 45.4123L53.5446 51.6034Z" fill="#FFDCC8"/>
<path d="M53.5442 51.6031C53.5442 51.6031 50.2405 47.1808 48.8618 41.2238C47.4831 35.2667 47.5611 31.7029 49.0699 30.5323C50.2665 29.5958 52.2695 30.1421 52.6077 32.1451C53.5181 37.6339 55.235 40.4434 55.235 40.4434L53.5442 51.6031Z" fill="#FFDCC8"/>
<path d="M48.0556 39.8434C48.4198 41.7164 48.9661 43.5113 49.7205 45.2542C49.8505 45.5664 50.3448 45.4363 50.2147 45.1241C49.4863 43.3552 48.9401 41.5603 48.5499 39.7134C48.4979 39.3752 48.0036 39.5053 48.0556 39.8434Z" fill="#252334"/>
<path d="M53.3102 51.7056C54.2207 52.434 55.1572 53.1624 56.0937 53.8647C56.3538 54.0728 56.6139 53.6046 56.3538 53.4225C55.4433 52.7462 54.5589 52.0438 53.6744 51.3414C53.4143 51.1333 53.0501 51.4975 53.3102 51.7056Z" fill="#252334"/>
<path d="M54.4288 38.7773C55.9376 42.3672 57.6805 46.035 60.4899 48.7924C60.7241 49.0266 61.0882 48.6624 60.8541 48.4283C58.1227 45.7489 56.3799 42.1591 54.9231 38.6473C54.7931 38.3091 54.2988 38.4652 54.4288 38.7773Z" fill="#252334"/>
<path d="M60.5421 39.1946C63.1955 40.5733 65.2766 42.5763 66.7593 45.1776C66.9154 45.4638 67.3836 45.2036 67.2015 44.9175C65.6667 42.2641 63.5076 40.1571 60.8022 38.7523C60.5161 38.5702 60.256 39.0385 60.5421 39.1946Z" fill="#252334"/>
<path d="M49.4863 30.4802C49.5123 31.9629 49.6944 33.8359 50.6049 35.0585C51.2032 35.8649 52.3998 36.1511 53.1542 35.3447C53.3883 35.1106 53.0241 34.7204 52.79 34.9805C51.6454 36.2031 50.6569 34.2001 50.3968 33.3156C50.1367 32.4052 50.0326 31.4427 50.0066 30.4802C50.0066 30.142 49.4863 30.142 49.4863 30.4802Z" fill="#252334"/>
<path d="M44.1276 48.4794C45.4803 49.624 47.7174 51.9652 45.6884 53.6041C45.4282 53.8122 45.7924 54.1764 46.0525 53.9682C48.3157 52.1213 46.0525 49.4419 44.4917 48.0892C44.2316 47.8811 43.8674 48.2453 44.1276 48.4794Z" fill="#252334"/>
<path d="M51.5929 24.0535C51.2027 25.3021 50.8385 26.5508 50.4483 27.8254C50.3442 28.1376 50.8645 28.2937 50.9426 27.9555C51.3328 26.7069 51.6969 25.4582 52.0871 24.1836C52.1912 23.8714 51.6969 23.7153 51.5929 24.0535Z" fill="#252334"/>
<path d="M41.0056 33.4433C42.3062 33.2872 43.6069 33.1312 44.9076 32.9751C45.2457 32.9231 45.2457 32.4028 44.9076 32.4548C43.6069 32.6109 42.3062 32.767 41.0056 32.9231C40.6674 32.9491 40.6674 33.4693 41.0056 33.4433Z" fill="#252334"/>
<path d="M43.9713 26.0572C44.8037 27.0717 45.6102 28.0862 46.4426 29.1268C46.6507 29.3869 47.0148 29.0227 46.8067 28.7626C45.9743 27.7481 45.1679 26.7335 44.3355 25.693C44.1274 25.4329 43.7632 25.7971 43.9713 26.0572Z" fill="#252334"/>
<path d="M12.9546 63.4394C12.9546 63.4394 21.4089 62.0607 23.3079 52.0716C23.3079 52.0716 28.1464 45.178 29.1869 43.6173C30.2274 42.0565 30.0453 40.8859 29.473 40.2876C29.0048 39.8193 27.7562 39.4291 26.2734 40.1315C24.7907 40.8338 16.2843 46.6088 16.2843 46.6088L12.9546 63.4394Z" fill="#FFDCC8"/>
<path d="M16.9609 45.8806C18.3396 45.0482 19.7443 44.2418 21.149 43.4614C21.4352 43.3053 21.175 42.8631 20.8889 43.0192C19.4582 43.7736 18.0795 44.58 16.7008 45.4384C16.4146 45.6205 16.6748 46.0627 16.9609 45.8806Z" fill="#252334"/>
<path d="M29.2649 40.4709C28.0683 41.6935 25.597 43.8266 24.0882 41.7195C23.9061 41.4594 23.4379 41.7195 23.646 41.9797C25.3629 44.3989 28.1723 42.3438 29.6291 40.8351C29.8632 40.601 29.473 40.2107 29.2649 40.4709Z" fill="#252334"/>
</svg>
