<svg width="80" height="80" viewBox="0 0 80 80" fill="none" xmlns="http://www.w3.org/2000/svg">
<path d="M58.3489 56.0816L25.5489 69.9749C24.8822 70.2682 24.0823 69.9482 23.7889 69.2549L5.44225 25.8949C5.14892 25.2282 5.46891 24.4282 6.16224 24.1349L38.9622 10.2416C39.6289 9.94823 40.4289 10.2682 40.7223 10.9616L59.0956 54.3216C59.3356 55.0149 59.0422 55.7882 58.3489 56.0816Z" fill="#D5B8D8"/>
<path d="M15.2821 35.2287C15.1754 35.2287 15.0688 35.202 14.9888 35.1753C14.8021 35.0953 14.6421 34.9353 14.5621 34.7487L12.6421 30.2153C12.4821 29.8153 12.6687 29.3353 13.0687 29.1753L17.6021 27.2553C17.7887 27.1753 18.0287 27.1753 18.2154 27.2553C18.4021 27.3353 18.5621 27.4953 18.6421 27.682L20.5621 32.2153C20.7221 32.6153 20.5354 33.0953 20.1354 33.2553L15.6021 35.1753C15.4954 35.202 15.3888 35.2287 15.2821 35.2287ZM17.8954 27.682C17.8688 27.682 17.8155 27.682 17.7888 27.7086L13.2555 29.6287C13.1221 29.682 13.0688 29.842 13.1221 29.9753L15.0421 34.5086C15.0688 34.562 15.1221 34.6153 15.1754 34.642C15.2554 34.6686 15.3088 34.6686 15.3888 34.642L19.9221 32.722C20.0555 32.6686 20.1088 32.5086 20.0555 32.3753L18.1354 27.842C18.1087 27.7886 18.0554 27.7353 18.0021 27.7086C17.9754 27.7086 17.9221 27.682 17.8954 27.682Z" fill="#252334"/>
<path d="M19.9758 46.2688C19.6558 46.2688 19.3624 46.0821 19.2291 45.7888L17.3091 41.2554C17.1491 40.8554 17.3357 40.3754 17.7357 40.2154L22.2691 38.2954C22.6691 38.1354 23.1491 38.3221 23.3091 38.7221L25.2291 43.2554C25.3891 43.6554 25.2024 44.1354 24.8024 44.2954L20.2691 46.2154C20.1891 46.2688 20.0824 46.2688 19.9758 46.2688ZM22.5891 38.7488C22.5624 38.7488 22.5091 38.7488 22.4824 38.7754L17.9491 40.6954C17.8157 40.7488 17.7624 40.9088 17.8157 41.0421L19.7357 45.5754C19.7891 45.7088 19.9491 45.7621 20.0824 45.7088L24.6157 43.7888C24.7491 43.7354 24.8024 43.5754 24.7491 43.4421L22.8291 38.9088C22.7758 38.8021 22.6958 38.7488 22.5891 38.7488Z" fill="#252334"/>
<path d="M24.642 57.3352C24.5353 57.3352 24.4286 57.3085 24.3486 57.2818C24.162 57.2018 24.002 57.0418 23.922 56.8552L22.002 52.3218C21.842 51.9218 22.0287 51.4418 22.4287 51.2818L26.962 49.3618C27.362 49.2018 27.842 49.3885 28.002 49.7885L29.922 54.3218C30.082 54.7218 29.8953 55.2018 29.4953 55.3618L24.962 57.2818C24.8553 57.3085 24.7487 57.3352 24.642 57.3352ZM27.282 49.8152C27.2553 49.8152 27.202 49.8152 27.1753 49.8418L22.642 51.7618C22.5087 51.8152 22.4553 51.9752 22.5087 52.1085L24.4287 56.6418C24.4553 56.6952 24.5087 56.7485 24.562 56.7752C24.6153 56.8018 24.6953 56.8018 24.7753 56.7752L29.3087 54.8552C29.442 54.8018 29.4953 54.6418 29.442 54.5085L27.522 49.9752C27.4687 49.8685 27.362 49.8152 27.282 49.8152Z" fill="#252334"/>
<path d="M21.3623 26.1876C24.7223 24.7743 28.0823 23.3343 31.4423 21.921C31.7623 21.7876 31.4956 21.3343 31.1756 21.4676C27.8156 22.881 24.4556 24.321 21.0956 25.7343C20.7756 25.8676 21.0423 26.321 21.3623 26.1876Z" fill="#252334"/>
<path d="M22.3486 28.5082C24.962 27.3882 27.5753 26.2949 30.2153 25.1749C30.5353 25.0415 30.2686 24.5882 29.9486 24.7215C27.3353 25.8415 24.722 26.9349 22.082 28.0549C21.762 28.1882 22.0286 28.6415 22.3486 28.5082Z" fill="#252334"/>
<path d="M26.0557 37.254C29.4157 35.8407 32.7756 34.4007 36.1356 32.9874C36.4556 32.854 36.1889 32.4007 35.8689 32.534C32.5089 33.9474 29.149 35.3874 25.789 36.8007C25.469 36.934 25.7357 37.3874 26.0557 37.254Z" fill="#252334"/>
<path d="M27.0155 39.5746C29.6288 38.4546 32.2422 37.3613 34.8822 36.2413C35.2022 36.1079 34.9355 35.6546 34.6155 35.7879C32.0022 36.9079 29.3888 38.0013 26.7488 39.1213C26.4555 39.2279 26.7222 39.7079 27.0155 39.5746Z" fill="#252334"/>
<path d="M30.722 48.3224C34.082 46.9091 37.442 45.4691 40.802 44.0557C41.122 43.9224 40.8553 43.4691 40.5353 43.6024C37.1753 45.0157 33.8154 46.4557 30.4554 47.8691C30.162 47.9757 30.4287 48.4557 30.722 48.3224Z" fill="#252334"/>
<path d="M31.709 50.6156C34.3223 49.4956 36.9356 48.4023 39.5756 47.2823C39.8956 47.149 39.629 46.6956 39.309 46.829C36.6956 47.949 34.0823 49.0423 31.4423 50.1623C31.1223 50.2956 31.389 50.749 31.709 50.6156Z" fill="#252334"/>
<path d="M69.3623 38.7476C69.3623 38.7476 70.3757 24.4543 66.509 17.4943C62.6424 10.5076 53.629 10.4809 47.0957 13.2276C42.7223 15.0676 38.029 19.3343 36.509 20.8809C34.989 22.4276 34.8024 24.0009 35.5757 25.0676C36.509 26.3476 39.3624 26.1343 40.4557 25.5476C40.4557 25.5476 37.0957 31.1476 37.5757 33.9476C37.869 35.6809 39.3357 36.1876 40.7224 36.0276C40.749 36.5876 40.8823 37.1476 41.149 37.6276C42.5623 40.0809 46.4023 39.5743 47.7623 35.5743C48.0557 34.7476 48.3224 33.9209 48.589 33.1743C49.069 33.1476 49.389 33.1209 49.389 33.1209L54.109 51.2276L57.8424 57.9476C57.8424 57.9476 68.589 54.2676 74.829 48.3743L69.3623 38.7476Z" fill="#FFDCC8"/>
<path d="M24.6689 32.1352C25.5489 31.7886 26.4289 31.4419 27.3089 31.0952C27.6289 30.9619 27.4956 30.4552 27.1756 30.5886C26.2956 30.9352 25.4155 31.2819 24.5355 31.6286C24.2155 31.7352 24.3489 32.2686 24.6689 32.1352Z" fill="#252334"/>
<path d="M31.2021 26.4017L33.1488 31.6817L71.0955 17.6283C72.5622 17.095 73.3088 15.4683 72.7488 14.0017C72.2155 12.535 70.5889 11.7883 69.1222 12.3483L31.2021 26.4017Z" fill="#252334"/>
<path d="M31.2023 26.4023C31.2023 26.4023 24.8023 29.789 25.5223 31.5757C26.2423 33.3357 33.1489 31.6823 33.1489 31.6823L31.2023 26.4023Z" fill="#252334"/>
<path d="M64.7886 13.9694L66.7422 19.2461L68.4677 18.6072L66.5142 13.3305L64.7886 13.9694Z" fill="#252334"/>
<path d="M56.5889 20.0018C56.7222 20.3751 57.1489 20.5618 57.5222 20.4284L68.0822 16.5084C68.4555 16.3751 68.6422 15.9484 68.5088 15.5751C68.3755 15.2018 67.9488 15.0151 67.5755 15.1484L57.0155 19.0684C56.6422 19.2018 56.4555 19.6284 56.5889 20.0018Z" fill="#252334"/>
<path d="M54.109 51.2278C54.109 51.2278 49.1223 48.9078 47.1756 44.8812C45.229 40.8545 45.2023 35.8678 45.2023 35.8678C45.2023 35.8678 39.069 28.4012 38.109 25.7345C37.1223 23.0678 38.429 21.4945 40.0556 21.3878C41.6823 21.2812 54.8023 28.9078 54.8023 28.9078L54.109 51.2278Z" fill="#FFDCC8"/>
<path d="M38.2689 22.4819C40.4289 23.3353 43.2023 25.4419 45.4423 23.7086C45.709 23.4953 45.4423 23.0419 45.1756 23.2553C43.0956 24.8286 40.4022 22.7486 38.4022 21.9753C38.0822 21.8419 37.9489 22.3486 38.2689 22.4819Z" fill="#252334"/>
<path d="M49.0687 25.6555C51.042 26.6689 52.9887 27.7355 54.882 28.8822C55.1753 29.0689 55.442 28.5889 55.1487 28.4289C53.2553 27.2822 51.3087 26.2155 49.3353 25.2022C49.042 25.0422 48.7753 25.5222 49.0687 25.6555Z" fill="#252334"/>
<path d="M49.1486 20.1609C49.3886 19.2543 49.602 18.3209 49.842 17.4143C49.922 17.0943 49.4153 16.9343 49.3353 17.2809C49.0953 18.1876 48.882 19.1209 48.642 20.0276C48.5353 20.3476 49.0686 20.5076 49.1486 20.1609Z" fill="#252334"/>
<path d="M40.9358 36.2146C42.0291 35.8146 43.0158 35.308 43.8158 34.428C44.0558 34.1613 43.6558 33.788 43.4425 34.0546C42.7225 34.8813 41.8424 35.3613 40.8024 35.708C40.4558 35.8146 40.6158 36.348 40.9358 36.2146Z" fill="#252334"/>
<path d="M39.7089 29.4943C41.4955 31.921 43.3622 34.2676 45.2555 36.6143C45.4689 36.881 45.8422 36.5076 45.6288 36.241C43.7888 33.921 41.9489 31.601 40.1889 29.2276C39.9489 28.961 39.4955 29.2276 39.7089 29.4943Z" fill="#252334"/>
<path d="M37.7887 23.8147C37.922 21.3347 40.642 21.1747 42.3487 22.188C42.642 22.3747 42.9087 21.8947 42.6153 21.7347C41.5487 21.0947 40.2153 20.748 39.042 21.2547C37.9753 21.708 37.3087 22.668 37.2554 23.8413C37.2287 24.1613 37.762 24.1614 37.7887 23.8147Z" fill="#252334"/>
<path d="M45.1221 36.4006C45.1221 37.094 45.1221 37.7606 45.1221 38.4539C45.1221 38.8006 45.6554 38.8006 45.6554 38.4539C45.6554 37.7606 45.6554 37.094 45.6554 36.4006C45.6554 36.054 45.1221 36.054 45.1221 36.4006Z" fill="#252334"/>
</svg>
