<svg width="71" height="108" viewBox="0 0 71 108" fill="none" xmlns="http://www.w3.org/2000/svg">
<path d="M47.0148 23.6385L38.1367 33.4238L40.7652 36.3209L49.6434 26.5356L47.0148 23.6385Z" fill="#E46450"/>
<path d="M70.3143 41.0288L66.129 57.1309L66.545 41.6878L64.0234 24.1531L67.7927 23.4941L70.3143 41.0288Z" fill="#FB735D"/>
<path d="M60.5634 5.84489C63.0902 5.84489 65.1386 4.53647 65.1386 2.92245C65.1386 1.30843 63.0902 0 60.5634 0C58.0366 0 55.9883 1.30843 55.9883 2.92245C55.9883 4.53647 58.0366 5.84489 60.5634 5.84489Z" fill="#0E3353"/>
<path d="M61.4727 89.707L64.5921 90.4806L64.0982 102.887L61.8626 103.059L61.4727 89.707Z" fill="#FB735D"/>
<path d="M64.2551 102.085C64.2032 102.715 64.5671 103.689 65.139 103.718C65.139 103.718 68.5444 104.291 68.4144 106.182L62.9034 105.752C62.1755 105.695 61.6036 105.007 61.6556 104.176L61.6816 103.918L61.7336 103.002L61.8116 101.855L64.2551 102.085Z" fill="#0E3353"/>
<path d="M47.0469 89.707L50.1663 90.4806L49.6724 102.887L47.4368 103.059L47.0469 89.707Z" fill="#FB735D"/>
<path d="M49.8294 102.085C49.7774 102.715 50.1413 103.689 50.7132 103.718C50.7132 103.718 54.1186 104.291 53.9886 106.182L48.4776 105.752C47.7498 105.695 47.1779 105.007 47.2298 104.176L47.2559 103.918L47.3078 103.002L47.3858 101.855L49.8294 102.085Z" fill="#0E3353"/>
<path d="M61.0324 8.30893C59.9926 11.5752 60.2525 14.5263 57.3151 13.4089C54.3776 12.2915 52.9739 7.99377 53.9877 4.7275C55.0275 1.46124 58.0949 0.487097 61.0324 1.63315C62.4361 2.20618 63.6059 3.32359 64.3078 4.81346C65.0097 6.24603 61.5783 6.6185 61.0324 8.30893Z" fill="#0E3353"/>
<path d="M56.2302 9.05404L55.4336 18.5254L60.4291 19.0358L61.2257 9.56445L56.2302 9.05404Z" fill="#E46450"/>
<path d="M58.7454 3.66776L64.3344 4.78516C64.2044 4.46999 64.7503 5.78796 64.6463 6.93402L64.2304 11.1458C63.9965 13.6098 62.8527 15.5294 60.5911 15.2429L59.7073 15.157C58.0436 14.8418 55.834 12.6643 56.0679 10.2003L56.3279 7.33513C56.3279 7.30648 57.8876 3.49585 58.7454 3.66776Z" fill="#FB735D"/>
<path d="M56.0661 6.90572L55.9102 12.5214L58.3017 7.39279C59.4455 7.67931 60.5893 6.87707 60.8492 5.6164V5.58775L61.2392 3.58215L56.1961 2.98047L56.0661 6.90572Z" fill="#0E3353"/>
<path d="M57.8592 10.4292L58.0412 10.4865L58.5611 7.42081L58.0152 7.27755C57.6512 7.16294 57.2613 7.39216 57.1313 7.79328V7.82193L56.9234 8.71012C56.7674 9.48371 57.1833 10.2286 57.8592 10.4292Z" fill="#FB735D"/>
<path d="M60.8503 12.2053L61.9681 12.3486C62.306 12.4059 62.54 12.721 62.514 13.0935L60.1484 12.7783C60.2264 12.4345 60.5124 12.1766 60.8503 12.2053Z" fill="white"/>
<path d="M61.0319 17.1043L58.4064 16.7891C57.5226 16.6745 56.7687 16.0728 56.3788 15.1846L54.1172 9.76953L57.1066 9.91279L57.2366 10.228C57.5226 10.8869 58.0945 11.3454 58.7703 11.4313L64.0734 12.0903L63.8134 14.6689C63.6574 16.1875 62.4357 17.2762 61.0319 17.1043Z" fill="#0E3353"/>
<path d="M62.6168 13.123L60.1992 12.8078C60.2512 12.3494 60.6411 12.0056 61.0571 12.0629L61.9409 12.1775C62.3568 12.2061 62.6688 12.6073 62.6168 13.0657C62.6168 13.0943 62.6168 13.123 62.6168 13.123Z" fill="#FB735D"/>
<path d="M66.6494 48.4505L48.5308 48.3932L47.543 24.0968C47.543 21.0884 49.7786 18.5671 53.1319 18.5671L61.6844 18.5098C65.0377 18.5098 67.7672 20.9451 67.7672 23.9535L66.6494 48.4505Z" fill="#ECD9CD"/>
<path d="M66.9581 51.2577L66.6202 48.4499L48.5015 48.3926L46.4219 98.5326L51.101 98.6758L52.1148 95.2376C54.6364 86.2411 56.482 77.044 57.6518 67.7323L60.2773 98.8764H64.9825L65.5283 95.1803C67.556 81.4277 68.0239 65.1537 66.9581 51.2577Z" fill="#733444"/>
<path d="M58.4594 26.6461L55.418 18.4805H60.487L58.4594 26.6461Z" fill="#E46450"/>
<path d="M53.806 23.7234L44.9416 32.634L41.4062 28.7088L49.4388 19.8555L53.806 23.7234Z" fill="#ECD9CD"/>
<path d="M67.686 22.8066L69.1937 32.8346L64.6445 34.697L64.9045 23.5802L67.686 22.8066Z" fill="#ECD9CD"/>
<path d="M62.4084 18.5658V48.4492H63.4482V18.7663C63.1102 18.6804 62.7723 18.6231 62.4084 18.5658ZM52.6602 48.4205H53.7V18.5371C53.362 18.5371 52.9981 18.5944 52.6602 18.6517V48.4205Z" fill="#0E3353"/>
<path d="M41.3008 32.606L37.8695 21.7471L37.7135 20.8589L37.7655 18.5668C37.8175 18.3375 37.7135 18.1083 37.5055 18.051C37.4275 18.0224 37.2456 18.2229 37.1676 18.2802L36.9336 17.6213C36.5957 16.6758 35.9198 16.3606 35.218 16.7904C34.6201 17.1628 34.724 18.5094 35.036 19.1684L36.5957 22.4633L38.1034 34.4396C38.2594 35.7003 39.2992 36.5885 40.443 36.4166C40.599 36.3879 40.7809 36.3593 40.9369 36.2733H40.9629L41.3008 32.606Z" fill="#FB735D"/>
<path d="M12.707 56.3281L19.2058 66.1842L16.9962 85.1801L15.5145 103.975L13.2789 104.176V85.0942L12.707 56.3281Z" fill="#FB735D"/>
<path d="M15.6446 103.174C15.6186 103.804 15.9825 104.778 16.5544 104.807C16.5544 104.807 19.9598 105.351 19.8558 107.242L14.3448 106.87C13.6169 106.813 13.045 106.125 13.097 105.323L13.123 105.065L13.175 104.148L13.227 103.002L15.6446 103.174Z" fill="#0E3353"/>
<path d="M7.48071 56.9297L12.7317 65.8976L9.43035 83.2317L2.56763 103.173L0.332031 103.03L5.3491 81.3694L7.48071 56.9297Z" fill="#FB735D"/>
<path d="M2.82918 102.4C2.7252 103.031 2.95914 104.034 3.53104 104.148C3.53104 104.148 6.83243 105.208 6.49449 107.071L1.06149 105.896C0.359621 105.753 -0.108292 105.008 0.021684 104.234C0.021684 104.206 0.021684 104.206 0.021684 104.177L0.0736775 103.919L0.229658 103.002L0.437617 101.885L2.82918 102.4Z" fill="#0E3353"/>
<path d="M12.1631 6.87635C10.5254 9.82745 11.3572 13.6667 14.0347 15.4718C14.0347 15.4718 14.0607 15.4718 14.0607 15.5004C16.7382 17.3055 20.3515 15.8729 21.9892 12.9218C23.6269 9.9707 22.6911 6.58984 20.0136 4.7848C17.3361 3.00841 13.8268 3.92525 12.1631 6.87635Z" fill="#0E3353"/>
<path d="M14.0913 10.8811L10.2422 19.3945L14.7325 21.8608L18.5816 13.3473L14.0913 10.8811Z" fill="#E46450"/>
<path d="M17.5935 6.87655L22.7666 9.54114C22.7146 9.19732 22.9225 10.6299 22.5586 11.7186L21.1809 15.7012C20.375 18.0506 18.8153 19.5691 16.6837 18.6809L15.8518 18.3371C13.7202 17.4489 12.6544 14.813 13.4603 12.4636L14.3701 9.7417C14.3961 9.7417 16.8137 6.44678 17.5935 6.87655Z" fill="#FB735D"/>
<path d="M21.7555 82.0577L21.1056 82.0004C18.2721 81.7139 15.7766 79.8516 14.5288 77.0437L12.3972 72.3163L10.8635 75.4966C9.32975 78.6769 6.21034 80.5392 2.96094 80.2241L8.23796 26.2734L20.5337 46.53L21.7555 82.0577Z" fill="#7C4949"/>
<path d="M20.0885 16.1587L20.6864 16.4452C21.1023 16.6457 21.5962 16.4452 21.7782 15.9868C21.8302 15.8722 21.8562 15.7576 21.8562 15.6429L21.9342 13.8379L20.0625 13.752L20.0885 16.1587Z" fill="#FB735D"/>
<path d="M16.7347 14.1253L16.9166 14.1826L17.5925 11.1169L17.0466 10.945C16.6827 10.8017 16.2667 11.0309 16.1368 11.4607V11.4894L15.8768 12.3776C15.6948 13.1225 16.0848 13.8961 16.7347 14.1253Z" fill="#FB735D"/>
<path d="M17.5962 11.8907L16.9463 11.6328L13.8789 9.22611L15.5686 4.87109L19.4939 5.15761L22.7433 9.54128C22.0674 9.19746 21.2875 9.48397 20.9236 10.1716L20.4037 11.1744C19.7538 12.2345 18.4801 12.3205 17.5962 11.8907Z" fill="#0E3353"/>
<path d="M12.994 14.6126L12.5781 14.1256L13.9299 7.99414L17.9591 9.71323L15.9835 13.8677C14.9957 15.6727 13.358 14.8418 12.994 14.6126Z" fill="#0E3353"/>
<path d="M16.4487 14.7564L16.6307 14.8424L17.6185 11.8913L17.0986 11.6621C16.7347 11.4902 16.2927 11.6621 16.1368 12.0632C16.1368 12.0632 16.1368 12.0632 16.1368 12.0919L15.7988 12.9514C15.5389 13.639 15.7988 14.4413 16.4487 14.7564Z" fill="#FB735D"/>
<path d="M14.6316 20.084L12.1621 20.3132C9.48456 20.8003 8.47075 21.4019 8.10682 26.5306L5.94922 57.6173L20.6365 53.0331L20.3766 28.5648L20.2726 27.8485C19.8306 24.8974 17.5691 20.084 14.6316 20.084Z" fill="#7C4949"/>
<path d="M8.5473 24.9276C10.83 24.9276 12.6805 22.888 12.6805 20.372C12.6805 17.856 10.83 15.8164 8.5473 15.8164C6.26458 15.8164 4.41406 17.856 4.41406 20.372C4.41406 22.888 6.26458 24.9276 8.5473 24.9276Z" fill="#0E3353"/>
<path d="M12.0582 22.7205L5.27344 17.5633L12.0582 7.01953L15.8275 14.1537L12.0582 22.7205Z" fill="#0E3353"/>
<path d="M25.0289 34.8686C24.9769 34.754 21.1816 27.19 21.1816 27.19L20.4537 23.5513C20.2978 22.8063 19.6479 22.3192 18.972 22.4625C18.3481 22.5771 17.9582 23.2361 18.0622 23.9237C18.0882 24.067 18.1401 24.2102 18.2181 24.3248L18.2961 24.3821C18.2181 24.4108 18.1401 24.4394 18.0882 24.5254C17.9842 24.726 18.0102 24.9838 18.1921 25.0984L19.3879 26.7602L19.7778 27.5625C19.7778 27.5625 22.0394 35.7568 22.0654 35.7854C22.0654 36.7596 22.7673 37.5331 23.6511 37.5331C24.535 37.5331 25.2368 36.7596 25.2368 35.7854C25.2628 35.4702 25.2108 35.1551 25.0289 34.8686Z" fill="#FB735D"/>
<path d="M22.6631 37.1323L13.3828 27.4195L15.0465 23.0645L24.6387 34.3245L22.6631 37.1323Z" fill="#FB735D"/>
<path d="M15.2171 22.692L11.6328 26.6426L17.4045 33.004L20.9888 29.0534L15.2171 22.692Z" fill="#7C4949"/>
</svg>
