<svg width="82" height="102" viewBox="0 0 82 102" fill="none" xmlns="http://www.w3.org/2000/svg">
<path d="M62.0444 25.2774L52.9648 18.5251L61.2878 4.13281L66.6575 6.79606L62.0444 25.2774Z" fill="#733444"/>
<path d="M26.5582 6.74184C26.7779 9.99693 24.7033 13.3327 21.75 13.5748C18.7967 13.8169 16.1118 10.9116 15.8922 7.65649C15.8677 6.36522 16.1362 5.10084 16.6488 3.94408C17.6007 2.41069 19.114 1.44224 20.7981 1.30773C23.727 1.03872 26.3142 3.43295 26.5582 6.66113C26.5582 6.71494 26.5582 6.71494 26.5582 6.74184Z" fill="#0E3353"/>
<path d="M4.78481 47.5254C4.85803 47.5254 4.95566 47.5523 5.02889 47.5523C5.22415 47.8213 5.51705 47.9558 5.83435 47.902C6.27368 47.8751 6.78624 47.8213 7.3232 47.7675C7.44524 47.7675 7.56728 47.7675 7.68931 47.7944L3.49122 55.4883L2.61255 58.8509C2.41729 59.5235 1.8071 59.9539 1.1725 59.7925C0.611126 59.6311 0.269427 58.9854 0.415872 58.3667C0.44028 58.2322 0.489089 58.1246 0.562311 57.9901L0.977242 57.2637L0.513493 57.5866C0.367048 57.6942 0.171791 57.6673 0.0741605 57.5059C0.0741605 57.5059 0.0741665 57.479 0.049759 57.479C-0.0478712 57.3175 0.00094389 57.0754 0.171797 56.9678L1.8071 55.8111L2.22202 55.0847L4.78481 47.5254Z" fill="#FB735D"/>
<path d="M40.1985 42.6562C40.1252 42.6832 40.0276 42.71 39.9544 42.737C39.808 43.0329 39.5151 43.1943 39.2222 43.2212C38.7828 43.275 38.2703 43.3288 37.7333 43.3557L37.3672 43.4364L42.6392 50.2425L44.006 53.39C44.2745 54.0356 44.9823 54.3315 45.5681 54.0356C46.1051 53.7666 46.3492 53.0671 46.1051 52.4753C46.0563 52.3408 45.983 52.2332 45.9098 52.1525L45.3973 51.5068L45.9098 51.749C46.0807 51.8297 46.3004 51.749 46.3736 51.5606C46.4468 51.3723 46.3492 51.1571 46.1783 51.0764L44.3966 50.2425L43.884 49.5968L40.1985 42.6562Z" fill="#FB735D"/>
<path d="M20.7229 86.3711L17.7695 87.0167L17.916 98.692L20.015 98.9072L20.7229 86.3711Z" fill="#FB735D"/>
<path d="M17.7941 97.9381C17.8185 98.53 17.4524 99.4446 16.9154 99.4446C16.9154 99.4446 13.6936 99.875 13.7669 101.677L18.9657 101.462C19.6491 101.435 20.186 100.79 20.1616 100.036V99.7943L20.1372 98.9335L20.0884 97.8574L17.7941 97.9381Z" fill="#0E3353"/>
<path d="M63.7539 54.3574L71.4179 62.6431L70.1975 80.5864L69.6849 98.3145L67.6103 98.6104L66.7316 80.7209L63.7539 54.3574Z" fill="#FB735D"/>
<path d="M69.7826 97.5621C69.7826 98.1539 70.1731 99.0416 70.7101 99.0416C70.7101 99.0416 73.9319 99.3645 73.9319 101.14L68.7331 101.113C68.0496 101.113 67.4883 100.494 67.4883 99.7142V97.5352L69.7826 97.5621Z" fill="#0E3353"/>
<path d="M59.8982 53.6055L64.3648 61.38L61.7532 76.8215L53.8451 97.3474L51.7461 97.0514L57.6527 75.5571L59.8982 53.6055Z" fill="#FB735D"/>
<path d="M54.1126 96.6476C53.9662 97.2125 54.137 98.181 54.674 98.3424C54.674 98.3424 57.7249 99.5529 57.31 101.275L52.2821 99.7951C51.6231 99.6068 51.2325 98.8535 51.4034 98.1272V98.1003L51.4522 97.8851L51.6475 97.0511L51.8915 96.002L54.1126 96.6476Z" fill="#0E3353"/>
<path d="M35.8294 84.2734L33.2422 85.9144L36.8057 96.9172L38.8559 96.3791L35.8294 84.2734Z" fill="#FB735D"/>
<path d="M36.467 96.2432C36.6622 96.8082 36.589 97.7766 36.0764 97.9918C36.0764 97.9918 33.1719 99.5521 33.7577 101.22L38.5904 99.1486C39.225 98.8796 39.5423 98.0725 39.2982 97.3731L39.225 97.1579L38.9321 96.3508L38.5904 95.3555L36.467 96.2432Z" fill="#0E3353"/>
<path d="M15.6719 78.2207H21.2856L20.1629 96.3254H15.6719V78.2207Z" fill="#0E3353"/>
<path d="M28.4609 78.4898L33.6842 76.2031L38.6877 93.5008L34.5384 95.3301L28.4609 78.4898Z" fill="#0E3353"/>
<path d="M22.7005 9.23989L18.0586 10.123L19.437 18.924L24.0788 18.0408L22.7005 9.23989Z" fill="#E46450"/>
<path d="M22.0182 4.15899L16.6485 3.97068C16.8194 3.70166 16.0872 4.80463 15.9895 5.88069L15.477 11.1265C15.2329 13.4669 16.8926 14.3009 19.0405 14.5699C21.1639 14.8389 23.0677 13.171 23.3118 10.8306C23.3118 10.8037 23.3118 10.8037 23.3118 10.7768L23.6047 8.05971C23.5803 8.05971 22.8481 4.18589 22.0182 4.15899Z" fill="#FB735D"/>
<path d="M60.3133 7.27995C60.1913 10.535 62.4612 13.279 65.4145 13.4404C68.3678 13.5749 70.7353 10.6157 70.8574 7.36065C70.9794 4.10557 68.8315 1.81893 65.8782 1.65752C62.9493 1.52301 60.4353 4.02486 60.3133 7.27995Z" fill="#733444"/>
<path d="M64.4018 10.4218L63.0234 19.2227L67.6653 20.1058L69.0437 11.3049L64.4018 10.4218Z" fill="#E46450"/>
<path d="M64.777 4.53634L70.1222 4.13281C70.4883 4.69774 70.7324 5.34338 70.8544 6.01592L71.367 9.97045C71.6599 12.3109 71.0253 14.2478 68.9018 14.5706L68.072 14.8127C65.9485 15.1355 63.9959 13.5215 63.6786 11.181L63.3125 8.46396C63.3369 8.51776 63.9471 4.61704 64.777 4.53634Z" fill="#FB735D"/>
<path d="M37.2968 35.6086L43.2766 47.3108L41.4705 50.1893L33.5136 39.5094L25.9961 26.3814L31.7807 21.7812L37.2968 35.6086Z" fill="#B7B3B4"/>
<path d="M6.78772 41.1774L1.80859 53.4445L3.85882 56.1346L10.8638 44.7015L17.2341 30.8472L11.8645 22.8574L6.78772 41.1774Z" fill="#B7B3B4"/>
<path d="M36.7355 84.2466H4.27344L11.7421 24.1755C11.7421 20.8666 14.1097 18.0957 17.6732 18.0957H25.8497C29.4132 18.0957 32.2689 20.7859 32.2689 24.0948L32.3421 44.0019L36.7355 84.2466Z" fill="#B7B3B4"/>
<path d="M73.6626 69.1542L53.5508 69.2349L58.8472 35.2851L57.3828 27.3761L55.7963 24.3093C55.7963 21.0004 56.9434 18.1758 60.4825 18.1758H68.6591C72.2226 18.1758 75.0782 20.8659 75.0782 24.1748L72.2713 34.505L73.6626 69.1542Z" fill="#0E3353"/>
<path d="M17.524 4.53663C18.4541 4.53663 19.2081 3.70558 19.2081 2.68042C19.2081 1.65527 18.4541 0.824219 17.524 0.824219C16.5938 0.824219 15.8398 1.65527 15.8398 2.68042C15.8398 3.70558 16.5938 4.53663 17.524 4.53663Z" fill="#0E3353"/>
<path d="M48.33 52.0711L49.8921 49.1389L54.139 31.5722C54.4075 30.523 57.1167 33.4284 57.1167 33.4284L51.1125 49.7845L50.9416 50.5916L51.3565 52.5823C51.4054 52.7975 51.2833 52.9858 51.1125 53.0396C50.9416 53.0934 50.7464 52.9589 50.6975 52.7706L50.5755 52.2056L50.4046 53.0127C50.2582 53.6583 49.648 54.0618 49.0622 53.9004C48.9646 53.8735 48.8914 53.8466 48.7938 53.7928C48.2324 53.47 48.0127 52.7437 48.3056 52.1249C48.3056 52.098 48.33 52.098 48.33 52.0711Z" fill="#FB735D"/>
<path d="M24.0439 7.49632L23.751 12.8497L21.774 13.8182C20.9442 14.2486 19.919 13.8451 19.5285 12.9304C19.4797 12.7959 19.4309 12.6614 19.4065 12.5L18.7231 8.9759C18.601 8.11505 17.9176 7.49632 17.1366 7.49632C16.8681 7.49632 16.6484 7.2542 16.6484 6.95829V3.94531H24.0439V7.49632Z" fill="#0E3353"/>
<path d="M25.4569 15.8887L17.5977 16.7495L18.1346 18.0946H25.8474L25.4569 15.8887Z" fill="#B7B3B4"/>
<path d="M56.9198 34.5327L52.9414 32.9186L56.334 22.8574L60.2881 24.4715L56.9198 34.5327Z" fill="#0E3353"/>
<path d="M76.028 38.9706C75.9548 38.9975 74.7833 31.5996 74.71 31.6265C74.5636 31.8686 72.2937 31.3843 71.7323 31.4112C71.6347 31.4381 72.8062 37.5179 73.0991 39.4817C73.1724 39.9121 73.3432 40.3156 73.5873 40.6654L78.2003 46.6913L79.4695 49.8926C79.738 50.5382 80.397 50.861 81.0072 50.6189C81.5442 50.3768 81.8126 49.6774 81.593 49.0855C81.5442 48.951 81.4709 48.8434 81.3977 48.7358L80.4946 48.4399L81.0072 48.7089C81.178 48.7896 81.3733 48.7358 81.4709 48.5475C81.5442 48.3592 81.4709 48.144 81.3001 48.0364L79.9332 46.7451L79.4451 46.0726L76.028 38.9706Z" fill="#FB735D"/>
<path d="M75.0824 23.7907L70.8633 23.9785L71.2484 34.4886L75.4676 34.3008L75.0824 23.7907Z" fill="#0E3353"/>
<path d="M67.3886 9.8094L62.9708 23.4754L56.1367 20.0051L62.3606 4.5367L67.2177 3.91797L70.1467 4.16008V4.5098C70.1955 6.71572 69.1459 8.76024 67.3886 9.8094Z" fill="#733444"/>
<path d="M57.7974 27.5638C60.8438 27.5638 63.3135 24.8418 63.3135 21.484C63.3135 18.1263 60.8438 15.4043 57.7974 15.4043C54.7509 15.4043 52.2812 18.1263 52.2812 21.484C52.2812 24.8418 54.7509 27.5638 57.7974 27.5638Z" fill="#733444"/>
<path d="M32.3426 42.709H16.9171C16.1848 42.709 15.5258 43.247 15.3306 44.0272L11.401 59.3879C11.2545 59.9529 11.5474 60.5178 12.06 60.6792H12.0844C12.5969 60.7868 13.0851 60.4371 13.2071 59.8991L16.7462 46.0986C16.9415 45.3184 17.6005 44.7804 18.3327 44.7804H32.4159L32.3426 42.709Z" fill="#0E3353"/>
<path d="M18.9158 41.9297H18.1836V45.6421H18.9158V41.9297Z" fill="#B7B3B4"/>
<path d="M31.7791 41.8496H31.0469V45.562H31.7791V41.8496Z" fill="#B7B3B4"/>
<path d="M16.0869 10.1851L15.5011 10.0506C15.0862 9.94299 14.8177 9.51257 14.8909 9.02835C14.9153 8.92074 14.9397 8.81313 15.013 8.73243L15.8672 7.30664L17.3317 8.35581L16.0869 10.1851Z" fill="#FB735D"/>
<path d="M70.5398 10.8579L71.15 10.8041C71.5893 10.7772 71.9066 10.3467 71.8578 9.88941C71.8578 9.7818 71.8334 9.6742 71.7845 9.56659L71.1012 8.0332L69.5391 8.89406L70.5398 10.8579Z" fill="#FB735D"/>
<path d="M25.0898 4.26761H18.6218L17.7188 0.824219L22.0877 1.36225L25.0898 4.26761Z" fill="#0E3353"/>
<path d="M21.5772 13.9512L19.2096 15.081C17.8428 15.7267 16.2319 15.0541 15.6461 13.5477C15.4753 13.1172 15.402 12.6599 15.4265 12.2026L15.4509 11.0996L19.3317 11.5031L21.0646 12.2564L21.5772 13.9512Z" fill="#0E3353"/>
<path d="M68.0987 12.3928L68.2695 12.3659L67.9034 9.43359L67.3665 9.48739C67.0004 9.51429 66.7075 9.89091 66.7319 10.2944L66.8051 11.1553C66.8539 11.8816 67.4397 12.4466 68.0987 12.3928Z" fill="#FB735D"/>
</svg>
