<svg width="42" height="101" viewBox="0 0 42 101" fill="none" xmlns="http://www.w3.org/2000/svg">
<path d="M24.2618 33.0973C22.629 33.744 20.8431 32.8161 20.2308 31.0446L18.1133 24.6615L21.0727 23.4805L24.2618 33.0973Z" fill="#FB735D"/>
<path d="M19.2226 18.5354L14.3398 21.6426L17.4396 27.5599L22.3223 24.4528L19.2226 18.5354Z" fill="#0E3353"/>
<path d="M15.2812 94.5935C15.2812 94.5935 20.6643 68.6393 19.9245 53.7361L18.6488 40.4357C18.6488 40.4357 13.3678 39.4234 10.638 42.151C8.80106 43.9787 9.13271 49.8275 9.20925 50.0806L12.4493 94.6778L15.2812 94.5935Z" fill="#0E3353"/>
<path d="M4.77121 94.8181C4.77121 94.8181 12.527 69.2296 13.0372 54.3264L13.0882 43.641C13.0882 43.641 3.62314 39.1138 3.59763 38.1015C3.47007 22.0454 1.96484 49.4336 1.96484 49.4336V94.5932L4.77121 94.8181Z" fill="#0E3353"/>
<path d="M8.39517 2.98089C6.88994 5.82094 7.75735 9.47645 10.3341 11.1636C10.3341 11.1636 10.3341 11.1636 10.3596 11.1636C12.9619 12.8226 15.4876 11.5573 16.9928 8.68912C17.6562 7.45187 18.7532 6.55204 18.5746 5.23044C18.294 3.37456 17.2735 1.77177 15.8193 0.787592C13.217 -0.843327 9.9004 0.140845 8.39517 2.98089Z" fill="#0E3353"/>
<path d="M9.83266 7.84653L7.30859 16.4922L11.8742 18.1114L14.3983 9.46576L9.83266 7.84653Z" fill="#E46450"/>
<path d="M13.1142 2.86937L18.5739 5.28763C18.5229 4.9502 18.7525 6.32804 18.4208 7.36845L17.1962 11.1927C16.4564 13.4422 14.2113 14.6232 12.1703 13.8359C10.1293 13.0204 9.05776 10.5459 9.77211 8.29639L10.5885 5.6813C10.5885 5.65318 12.3234 2.50382 13.1142 2.86937Z" fill="#FB735D"/>
<path d="M22.3995 8.77383C22.272 12.0638 24.5936 14.8476 27.5786 14.9882C27.6041 14.9882 27.6041 14.9882 27.6296 14.9882C30.6401 15.1288 32.63 12.7105 32.7321 9.42057C32.7831 8.07085 33.0127 6.60865 32.3749 5.56823C31.3799 4.02167 29.7726 3.06561 28.0378 3.00938C25.0273 2.86878 22.5016 5.45575 22.3995 8.77383Z" fill="#0E3353"/>
<path d="M27.224 10.7631L25.4688 19.6367L29.731 20.6609L31.4863 11.7873L27.224 10.7631Z" fill="#E46450"/>
<path d="M26.9425 5.93351L32.3766 5.51172C32.7338 6.0741 32.9889 6.74897 33.1165 7.42384L33.6522 11.4449C33.9839 13.8069 33.4482 15.944 30.3356 16.3658C28.1926 16.7313 26.2026 15.1004 25.871 12.7384C25.871 12.7384 25.871 12.7384 25.871 12.7103L25.4883 9.95457C25.4883 9.98269 26.1006 6.01787 26.9425 5.93351Z" fill="#FB735D"/>
<path d="M1.22543 47.2413L0.000842597 21.8777C-0.0501822 18.5034 2.22042 15.6633 5.6646 15.579L7.34841 15.5508L10.4354 16.6194L13.0632 15.4384H13.5989C17.0686 15.3821 19.9005 18.0535 19.9515 21.3997L21.0741 45.6947L1.22543 47.2413Z" fill="#0E3353"/>
<path d="M2.24609 97.9392H4.7208L4.77183 94.7054L2.29712 94.6211L2.24609 97.9392Z" fill="#E26760"/>
<path d="M3.08825 100.639H8.67547C8.67547 100.048 8.3438 99.4859 7.85907 99.2328C7.37433 98.9797 6.02218 98.5017 5.30783 98.2205C5.02719 98.108 4.82309 97.8268 4.79758 97.4894L4.77207 97.0957H2.19531V99.6546C2.19531 100.189 2.60351 100.639 3.08825 100.639Z" fill="#0E3353"/>
<path d="M12.707 97.9392H15.1817L15.2328 94.7054L12.7581 94.6211L12.707 97.9392Z" fill="#E26760"/>
<path d="M13.5492 100.639H19.1364C19.1364 100.048 18.8047 99.4859 18.32 99.2328C17.8353 98.9797 16.4831 98.5017 15.7688 98.2205C15.4881 98.108 15.284 97.8268 15.2585 97.4894L15.233 97.0957H12.6562V99.6546C12.6563 100.189 13.0644 100.639 13.5492 100.639Z" fill="#0E3353"/>
<path d="M24.3906 97.4618H26.8653L26.9164 94.2562L24.4417 94.1719L24.3906 97.4618Z" fill="#E26760"/>
<path d="M25.2328 100.16H30.82C30.82 99.5697 30.4883 99.0073 30.0036 98.7542C29.5188 98.5012 28.1667 98.0232 27.4523 97.742C27.1717 97.6295 26.9676 97.3483 26.9421 97.0108L26.9166 96.6172H24.3398V99.176C24.3398 99.7103 24.748 100.16 25.2328 100.16Z" fill="#0E3353"/>
<path d="M35.2345 97.7153L37.6582 97.2935L37.25 94.0879L34.8008 94.4253L35.2345 97.7153Z" fill="#E26760"/>
<path d="M36.0257 100.471H41.613C41.613 99.8803 41.2813 99.3179 40.7966 99.0648C40.3118 98.8117 38.9597 98.3337 38.2453 98.0525C37.9647 97.94 37.7606 97.6588 37.7351 97.3214L37.7096 96.9277H35.1328V99.4866C35.1328 100.021 35.541 100.471 36.0257 100.471Z" fill="#0E3353"/>
<path d="M29.2623 19.4593L26.8896 19.2344C24.2873 19.2344 22.1953 21.5402 22.1953 24.4083V27.5577L23.4199 42.2641L31.0736 44.7386L33.4208 28.3731V27.6983C33.4718 24.8582 32.0431 19.9374 29.2623 19.4593Z" fill="#F1BBA4"/>
<path d="M37.2998 94.6499L31.432 42.2637L31.3299 42.2918V42.2637H23.4466L22.8853 43.7821C21.0484 48.8155 20.3596 54.2425 20.8954 59.6414L24.4161 94.6218H26.8908L28.0898 70.0174L34.7741 94.6218L37.2998 94.6499Z" fill="#E45454"/>
<path d="M37.2983 35.2051C36.3288 36.2173 34.7981 36.1892 33.8796 35.1488C33.8796 35.1488 33.8796 35.1488 33.8541 35.1207L23.9808 23.5918C23.7512 23.3387 23.7512 22.8888 23.9808 22.6357L24.0063 22.6076L26.6086 19.8519C26.8382 19.5988 27.2464 19.5988 27.476 19.8519L27.5015 19.88L37.3748 31.4089C38.2933 32.4775 38.2677 34.1646 37.2983 35.2051Z" fill="#F1BBA4"/>
<path d="M28.6269 10.9661L27.3258 11.1629L26.5859 5.39844L32.3007 5.48279C32.6834 8.09789 31.0761 10.5443 28.7035 10.9379C28.678 10.9379 28.6524 10.9661 28.6269 10.9661Z" fill="#0E3353"/>
<path d="M29.1098 12.3732L29.0843 5.45583L23.8797 5.28711L22.6296 10.7141L22.6041 10.7423C21.5836 10.9391 20.8438 11.9233 20.8438 13.048C20.8438 14.2009 21.5836 15.1851 22.6296 15.3538L22.6551 15.3819L27.477 16.7035C27.7066 16.7879 27.9362 16.816 28.1658 16.816C29.3394 16.816 30.2833 15.7756 30.2833 14.4821C30.3089 13.5823 29.8496 12.7387 29.1098 12.3732Z" fill="#0E3353"/>
<path d="M30.3604 13.5541L30.539 13.526L29.8502 10.6016L29.3144 10.7422C28.9317 10.8265 28.7021 11.2202 28.7532 11.642L28.9062 12.5137C29.0593 13.2167 29.6971 13.6947 30.3604 13.5541Z" fill="#FB735D"/>
<path d="M9.89839 8.71689L10.077 8.80125L11.0209 5.98932L10.5107 5.76436C10.1535 5.59565 9.74531 5.76437 9.59224 6.15804L9.2861 6.9735C9.00546 7.62024 9.26057 8.40758 9.84736 8.68878C9.87287 8.68878 9.87288 8.71689 9.89839 8.71689Z" fill="#FB735D"/>
<path d="M33.6274 11.164L33.1937 11.4171L32.3008 9.5612L33.2958 8.9707L33.8826 10.208C34.0356 10.5454 33.9336 10.9672 33.6274 11.164Z" fill="#FB735D"/>
<path d="M24.5947 26.6567C24.9264 26.5443 25.2325 26.3474 25.4876 26.0662L26.4316 24.9696C26.6867 24.6321 26.7632 24.1541 26.6102 23.7323C26.3806 23.1418 25.9213 23.0012 25.6407 23.1137L23.8293 24.0416C23.8548 23.7886 23.7018 23.5917 23.4721 23.5636C23.3956 23.5636 23.3191 23.5636 23.268 23.5917L21.125 25.3914L21.7118 27.5565L24.5947 26.6567Z" fill="#FB735D"/>
<path d="M10.8179 5.87791L9.69531 5.34363L13.3691 0.957031L15.9714 4.10639L14.4916 3.48777C13.7773 3.17846 12.9609 3.57212 12.6547 4.35946L12.3231 5.23116C12.068 5.84978 11.3791 6.1591 10.8179 5.87791Z" fill="#0E3353"/>
<path d="M21.7359 27.6133L18.7764 28.8506C14.0566 30.8189 8.80107 30.2284 4.5405 27.2478L2.60156 25.898L5.61202 22.0176L6.02021 22.355C9.33683 25.1388 13.5209 26.4042 17.6539 25.8418L21.1491 25.3638L21.7359 27.6133Z" fill="#FB735D"/>
<path d="M13.2155 15.4375L7.34766 15.55C7.42419 16.7591 8.34264 17.687 9.43968 17.6589L11.2 17.6308C12.2716 17.5746 13.1645 16.6185 13.2155 15.4375Z" fill="#E46450"/>
<path d="M32.6828 28.1467L32.4531 27.8936C31.9939 27.4156 31.9939 26.6283 32.4276 26.1221L32.4531 26.094L33.0399 25.4473L34.9023 27.5L34.3156 28.1467C33.8818 28.6247 33.142 28.6529 32.6828 28.1467Z" fill="#FB735D"/>
</svg>
