<svg width="51" height="96" viewBox="0 0 51 96" fill="none" xmlns="http://www.w3.org/2000/svg">
<path d="M11.3919 93.13C11.1104 92.949 9.9845 92.6905 9.8203 92.768C9.25734 92.9749 6.77094 93.8539 6.84131 94.5519C6.93513 95.1207 7.31044 95.2758 7.96722 95.2758C8.9524 95.3017 9.93758 95.2758 10.8993 95.1466C12.0721 94.888 11.5092 93.1817 11.3919 93.13Z" fill="#1F2144"/>
<path d="M10.1252 88.9672C10.0079 90.0271 9.84375 91.9403 9.84375 92.9744C9.84375 93.2588 11.3684 93.5432 11.3919 93.2588C11.5326 92.0954 11.7203 90.4925 11.7907 89.3033C11.7907 89.2257 10.1487 88.7862 10.1252 88.9672Z" fill="#EF9986"/>
<path d="M29.5028 83.0469L28.7991 77.1265C28.7756 76.9455 28.7287 76.7904 28.6349 76.6611C27.8139 70.2753 26.7583 63.9154 25.4682 57.6588C25.4213 57.3227 25.2102 57.0642 24.9052 56.9608C24.8114 56.5988 24.7645 56.1852 24.6707 55.7974C24.2016 53.4189 23.7324 51.0662 23.2633 48.6877C23.0991 47.8862 22.3485 47.8087 21.8794 48.1965C21.6682 47.9638 21.4337 47.7828 21.1757 47.6794C20.4016 47.3692 19.5337 47.6277 18.7831 47.6794C18.2201 47.7311 17.6337 47.8087 17.0473 47.8604C16.7424 47.6019 16.2967 47.5501 15.9448 47.7311C14.1387 47.6019 12.3325 47.757 10.5733 48.1965C9.84612 48.3775 9.14241 48.6618 8.79056 49.2306C8.34489 49.2823 8.0165 49.6701 7.99305 50.1613C7.45355 56.7281 6.9375 63.3207 6.9375 69.9392C6.9375 76.4284 7.61774 82.8918 8.13378 89.381C8.15724 89.9239 8.55601 90.3634 9.04859 90.3893C9.9634 90.5444 10.9017 90.5961 11.8165 90.5444C12.7547 90.4927 12.6609 88.5278 12.7313 87.7522C13.0128 84.624 13.9276 76.4801 14.6547 70.4563C15.03 67.4314 16.3436 59.0291 16.5782 57.7364C17.2584 60.7871 18.5954 63.7085 19.4399 66.7334L24.5299 85.3996C24.6238 85.6839 25.3978 87.959 25.7731 88.1917C26.4534 88.6571 27.8842 88.0108 28.6583 87.8556C29.104 87.7522 28.8929 86.2269 28.7052 85.7615C28.6818 85.6581 28.6583 85.6064 28.6114 85.503C28.6114 85.4513 28.6349 85.3737 28.6349 85.322C29.104 85.2962 29.5966 84.9083 29.5497 84.3137L29.4558 83.564C29.5262 83.4347 29.5497 83.2537 29.5028 83.0469Z" fill="#EB6E70"/>
<path d="M22.6039 33.2018C22.51 30.1253 22.4631 26.997 21.9471 23.9463C21.6422 22.1366 21.1261 18.5688 19.2965 17.8449C19.273 17.819 19.2496 17.819 19.2027 17.7932C18.3582 17.3795 17.3261 17.4571 16.4582 17.4312C15.4965 17.4054 14.3941 17.2503 13.4793 17.6381C13.1509 17.4312 12.7286 17.5088 12.5175 17.8449C12.4003 18 12.283 18.1293 12.1891 18.2844C12.1188 18.362 12.0719 18.4395 12.0484 18.5429C8.45954 23.8429 7.75585 30.4872 7.404 36.9247C6.98178 44.6549 5.38673 49.4636 6.7003 57.1163C6.81759 57.8402 8.34226 58.2021 8.95213 58.0728C11.7435 57.6075 16.9977 52.6436 18.5459 51.1958C20.0471 49.7739 22.9557 46.1285 22.3928 43.4656C22.4397 43.2588 22.4866 43.0261 22.5335 42.7676C22.9792 39.691 22.6742 36.3559 22.6039 33.2018Z" fill="#F3E3D5"/>
<path d="M27.4854 24.9808C26.3361 22.0852 23.7793 20.4565 21.5275 18.7501C21.0583 18.3882 21.0114 18.414 20.9645 18.7501C20.4954 21.8267 20.0028 24.9291 20.0028 28.0315C20.0028 30.4876 20.1435 32.9178 20.1201 35.3739V35.4773C20.1201 35.8134 20.1201 36.2012 20.0966 36.5373C20.0966 36.8217 20.0732 37.1319 20.0732 37.4163C19.8855 40.5446 19.604 43.6211 19.7682 46.7235C19.8621 48.0938 20.2843 52.7474 21.1287 53.2645C21.2225 53.3162 22.1373 53.5488 22.3954 53.2127C23.5213 51.6874 24.1781 49.826 24.3188 47.887C24.483 47.7835 24.5768 47.6026 24.6237 47.4216C25.0225 46.0255 25.1398 44.5777 24.9521 43.1299C24.9052 42.8197 24.7176 42.5353 24.4361 42.406C25.2571 39.5363 25.9842 36.6407 26.6645 33.7451C26.6879 33.7193 26.7114 33.6417 26.7583 33.6159C27.6496 30.7978 28.6114 27.7988 27.4854 24.9808Z" fill="#484A8A"/>
<path d="M12.8935 17.457C12.612 17.457 11.7911 17.8965 11.6972 17.9224C9.65652 18.9824 8.10839 21.1024 6.86519 23.1189C5.95038 24.6701 5.31704 26.3765 5.03556 28.1862C4.35532 31.7798 3.9331 35.3993 3.79236 39.0705C3.69854 41.3197 3.69854 43.569 3.76891 45.7924C3.81583 47.7831 3.65163 49.9289 3.95656 51.8679C4.49606 55.3582 6.67753 51.506 6.959 50.2133C7.63925 47.0851 8.01456 43.2588 8.34295 39.7427C9.02319 32.6071 10.1726 23.4033 10.8293 22.0331C11.4158 20.7921 12.0256 19.6029 12.6355 18.3878C12.7762 18.1292 13.0577 17.457 12.8935 17.457Z" fill="#484A8A"/>
<path d="M28.7981 92.7413C28.5167 92.5604 27.3907 92.3018 27.2265 92.3794C26.6636 92.5862 24.1772 93.4652 24.2476 94.1633C24.3414 94.732 24.7167 94.8872 25.3735 94.8872C26.3586 94.913 27.3438 94.8872 28.3055 94.7579C29.4784 94.5252 28.892 92.8189 28.7981 92.7413Z" fill="#1F2144"/>
<path d="M27.508 88.606C27.3908 89.666 27.2266 91.5792 27.2266 92.6133C27.2266 92.8977 28.7512 93.1821 28.7747 92.8977C28.9154 91.7343 29.1031 90.1314 29.1735 88.9421C29.1735 88.8904 27.5315 88.4251 27.508 88.606Z" fill="#EF9986"/>
<path d="M46.2271 90.0273C45.8987 90.0273 44.7963 90.4669 44.7025 90.5961C44.3037 91.1132 42.6148 93.2849 43.0136 93.8019C43.342 94.2414 43.7408 94.1122 44.3037 93.7761C45.1481 93.2332 45.9691 92.6385 46.7432 91.9664C47.6111 91.1649 46.321 90.0273 46.2271 90.0273Z" fill="#1F2144"/>
<path d="M43.7404 86.693C43.9749 87.7272 44.3737 89.5886 44.6786 90.5969C44.7725 90.8813 46.2971 90.5711 46.2268 90.2867C46.0391 89.175 45.6873 87.5462 45.4058 86.4345C45.4058 86.3311 43.67 86.5121 43.7404 86.693Z" fill="#EF9986"/>
<path d="M22.581 49.283C22.4872 49.0245 22.1353 48.9986 21.8773 48.9986C21.4785 48.9986 20.9625 48.8952 20.6106 49.0503C20.4464 49.1279 20.3291 49.2313 20.2119 49.3606C19.7662 49.9293 19.4613 50.6015 19.3674 51.3513C19.2501 52.3078 19.6724 53.1869 20.1649 53.9625C20.2822 54.0659 20.4464 54.1176 20.5872 54.1434C21.0563 54.0142 21.2909 53.6264 21.3847 53.0834C21.4785 52.6698 21.4785 52.282 21.5254 51.8683C21.5489 52.0493 21.7131 52.1527 21.8773 52.1269C21.9711 52.101 22.0649 52.0235 22.0884 51.92C22.2526 51.5581 22.4168 51.1962 22.5106 50.8083C22.6279 50.343 22.6748 49.8001 22.581 49.283Z" fill="#EF9986"/>
<path d="M36.0227 18.491C35.8585 17.7929 35.9759 17.5344 35.3425 17.612C34.0524 17.8447 32.7623 17.8705 31.4722 17.6637C31.3784 17.5344 31.1907 17.4827 31.05 17.5344C31.0265 17.5344 31.0265 17.5603 31.0031 17.5603C30.9092 17.5344 30.8388 17.5344 30.745 17.5603C30.6981 17.5086 30.6277 17.4569 30.5808 17.431C28.9154 16.8622 29.1031 14.8715 29.5722 13.1652C29.9006 12.6223 30.1351 12.0276 30.2759 11.3813C30.4166 10.2437 30.2994 9.08034 29.9475 7.9945L29.8537 7.81353C29.7598 7.52914 29.5253 7.32231 29.2203 7.52914C28.329 8.20133 27.7426 9.26131 27.5549 10.4247C27.4376 11.3296 27.6487 12.131 27.4376 13.0359C27.4142 13.0876 27.4142 13.1652 27.3907 13.191C27.3438 13.1393 27.2969 13.1393 27.25 13.1652C27.2265 13.0618 27.1327 13.0101 27.0389 13.0359C27.0154 13.0359 27.0154 13.0618 26.992 13.0618C26.992 13.0359 26.9685 13.0359 26.9451 13.0101C27.1092 12.6998 27.2734 12.3637 27.4142 12.0018C27.508 11.8208 27.2265 11.6398 27.1562 11.8467C27.0389 12.1569 26.8981 12.4671 26.7339 12.7515C26.5697 12.9842 26.4525 13.2169 26.3586 13.5013C26.2648 13.9149 26.4759 14.1993 26.7339 14.432C26.7339 14.4579 26.7574 14.4579 26.7809 14.4837H26.8043C26.8512 14.5871 26.9216 14.7164 26.992 14.794V14.9491C26.9685 15.9832 26.9451 17.431 27.6957 18.1807C28.5166 18.9046 29.5956 19.0856 30.5808 18.6978C30.9796 19.0598 31.2142 19.7578 31.3549 20.249C31.4722 20.611 31.7302 21.3349 31.6598 21.7744C31.5425 22.0588 31.6833 22.3949 31.9413 22.5241C32.0586 22.5758 32.1993 22.5758 32.3401 22.5241L35.7413 20.0939C36.5153 19.6803 36.2339 19.4476 36.0227 18.491Z" fill="#EF9986"/>
<path d="M23.1424 27.5662C22.4153 30.0223 22.6264 32.53 22.7437 35.0637C22.8375 37.5973 22.0634 40.2085 22.6029 42.6646C22.6968 43.0782 23.2832 42.9231 23.1893 42.4836C22.6498 40.1568 23.4474 37.4681 23.3301 35.0637C23.2363 32.5818 23.0017 30.1515 23.7054 27.7472C23.8461 27.3335 23.2832 27.1525 23.1424 27.5662Z" fill="#3C3E73"/>
<path d="M22.8607 51.4022C22.7904 51.3247 22.6731 51.273 22.5793 51.2988C22.3212 51.4022 22.2743 51.5832 22.1336 51.79C22.1101 51.8417 22.0867 51.8676 22.0397 51.9193C21.383 51.1954 20.2101 50.4457 19.6941 51.7125C19.6472 51.8676 19.6003 52.0227 19.6003 52.1778C19.6003 52.2037 19.5768 52.2296 19.6003 52.2813C19.6003 53.031 19.8114 53.7549 20.1867 54.3754C20.4682 54.789 21.1249 55.2544 21.5941 55.1768C22.0632 55.1251 22.5323 54.4788 22.6965 54.0134V53.9876C23.2126 53.3154 23.3533 51.9452 22.8607 51.4022Z" fill="#EF9986"/>
<path d="M32.2676 19.5761C31.5405 19.4468 30.4849 20.4292 30.0158 20.9721C29.7109 21.2824 29.5467 21.7477 29.617 22.2131C29.664 22.4199 29.7343 22.6009 29.8047 22.7819C28.2331 26.4789 26.943 30.3311 25.9109 34.2608C25.6763 35.0623 25.4887 35.9154 25.3245 36.7427C23.9171 39.1471 22.8381 41.7066 21.7356 44.2919C21.2196 45.507 19.4838 48.0924 20.5863 49.2816C20.8912 49.5919 22.322 50.4967 22.7912 50.2382C23.2368 50.0314 23.5652 49.3592 23.7998 48.687C23.401 53.7543 21.9936 58.7181 21.1023 63.7337C20.6801 66.0605 20.4221 68.7493 21.9702 70.6883C23.5418 72.6531 26.685 72.4205 28.8664 72.7565C29.3825 72.8083 29.7109 72.1619 29.5936 71.6965C29.2183 70.2746 28.9133 68.8527 28.6319 67.4566C28.4208 63.4493 28.3973 59.4162 28.6084 55.4089C28.7257 52.8236 28.8664 50.2641 29.0072 47.6787C29.0541 46.4895 29.1244 45.3002 29.1948 44.1627C29.2183 43.5163 29.2417 42.8958 29.3121 42.2236V41.4998C29.4528 40.8017 29.5701 40.1295 29.7109 39.4315C29.8281 38.8368 29.2652 38.2164 28.7726 38.3715C29.3356 34.8554 29.9689 31.3394 30.6491 27.7974C30.9306 26.7374 31.1652 25.6516 31.3294 24.5658V24.3848C31.5639 23.9711 31.4936 23.5316 31.517 23.0404C31.5639 22.4458 31.7281 21.8511 31.9627 21.3341C32.1738 20.9204 32.8071 19.6795 32.2676 19.5761Z" fill="#F5A55F"/>
<path d="M38.8609 11.2259C38.3683 10.7605 37.9695 10.1917 37.6646 9.57125C37.5238 9.26101 37.1485 8.33029 36.9843 8.07175C35.9288 6.52055 34.8263 6.23616 33.3955 6.00348C31.9177 5.79665 29.9708 6.21031 28.9856 7.55468C28.7042 7.91663 28.5869 8.25272 28.7276 8.66638C28.8214 8.95077 29.056 9.15759 29.1967 9.41613C29.5251 9.93319 29.7128 10.5278 29.7362 11.1225C29.7362 12.0015 29.4548 12.8546 29.2906 13.7595C29.0325 15.0263 28.7745 16.3707 29.2671 17.6117C29.9708 19.4214 31.7066 19.8351 33.1375 18.8009C33.372 18.6458 33.5831 18.4648 33.7708 18.2321C36.1164 17.7926 39.7757 17.1722 40.151 14.1215C40.3386 12.8288 39.6819 12.079 38.8609 11.2259Z" fill="#1F2144"/>
<path d="M33.676 53.5734C33.676 53.1339 33.3476 52.7719 32.9488 52.7719C32.9254 52.7719 32.9019 52.7719 32.9019 52.7719C32.9254 51.8929 32.9488 50.9881 32.9488 50.0832C32.9254 49.592 32.55 49.23 32.1278 49.2559C32.0809 49.2559 32.034 49.2559 31.9871 49.2817C31.9871 48.0666 32.0106 46.8515 31.9871 45.6106C31.9871 45.4813 31.9636 45.352 31.8933 45.2486C31.9402 43.3096 31.9167 41.4223 31.1896 39.6126C30.955 39.0955 30.4859 39.1213 30.134 39.4057C29.9464 38.656 28.7501 38.7853 28.6328 39.716C26.9674 56.3656 25.302 73.0669 26.3341 89.8199C26.3575 90.2853 26.6859 90.6472 27.1081 90.6731C27.6945 90.7248 28.3044 90.8023 28.8908 90.8282C29.2427 90.8282 29.5476 90.5697 29.618 90.2077C30.5797 84.0288 31.5883 77.8756 32.5031 71.6967C33.371 65.6987 34.0278 59.649 33.676 53.5734Z" fill="#1F2144"/>
<path d="M46.5529 87.0795C46.2949 84.5201 45.9665 81.3659 45.6381 78.8323C45.0751 74.1011 44.4183 69.37 43.6677 64.6129C43.527 63.7081 36.748 63.8373 37.053 64.8715C38.4134 69.5768 39.8208 74.2563 41.1344 78.9616C41.7677 81.2367 42.4714 85.0371 42.9171 87.3639C43.1751 88.7083 43.3862 89.0186 44.4418 88.8376C46.0134 88.5015 46.6702 88.4239 46.5529 87.0795Z" fill="#1F2144"/>
<path d="M27.6457 36.5882C26.5197 40.2594 25.6988 44.4735 23.8457 47.7827C23.7519 47.9378 23.7988 48.1447 23.9395 48.2222C24.0803 48.3257 24.2679 48.2739 24.3383 48.1188C26.2383 44.732 27.0592 40.5179 28.1852 36.7692C28.3494 36.3555 27.7629 36.2004 27.6457 36.5882Z" fill="#ED9547"/>
<path d="M31.7044 21.8785C30.6019 23.3263 29.781 25.0326 29.2649 26.8423C28.4674 29.4794 28.1624 31.8062 27.6464 34.5467C27.3884 35.891 27.1069 37.2354 26.7785 38.5281C26.5439 39.3813 26.1217 40.3637 26.2625 41.2686C26.5439 42.949 28.5847 42.3803 29.6871 42.8456C30.3205 43.13 30.8834 42.1993 30.5316 41.6305C30.4143 41.4754 30.3439 41.3203 30.2266 41.1651C30.2266 41.1134 30.2501 41.0617 30.2501 41.01C30.297 38.5281 30.5316 36.072 30.9538 33.6159C31.0476 33.0213 31.118 32.4008 31.2118 31.8062C31.4698 30.7204 31.7513 29.5828 31.9859 28.4711C32.2673 27.256 32.5723 26.1443 32.9476 24.955C33.1821 24.1536 33.4871 23.2229 33.0883 22.3956C33.8155 21.8009 32.3377 21.077 31.7044 21.8785Z" fill="#F3E3D5"/>
<path d="M33.2088 22.7556C33.1854 22.6522 33.1385 22.5488 33.0916 22.4454C33.7953 21.799 31.6138 20.3254 31.6842 21.3595C31.7076 21.98 31.1681 22.6005 30.9805 22.9883C31.1681 23.4019 31.5904 23.6346 31.9891 23.5829C32.5052 23.5571 32.9743 23.2468 33.2088 22.7556Z" fill="#EF9986"/>
<path d="M49.672 60.7879C48.4522 57.8147 47.0917 54.9967 45.9424 51.9977C46.388 51.8943 46.8806 51.8426 47.1856 51.3772C47.8658 50.4206 47.3732 48.9211 47.209 47.887C46.6695 44.4743 45.9424 41.1134 45.0979 37.8042C44.4646 35.3739 43.6671 32.9954 42.7523 30.6945C42.7054 30.5135 42.6585 30.3584 42.6115 30.1774C42.1424 28.3935 41.0868 25.8082 39.7733 23.9984C38.9757 22.9126 38.2955 21.7233 37.2869 20.7926C37.3572 20.6633 37.4042 20.5082 37.4276 20.3531C37.5449 19.6551 37.2634 18.4917 36.5128 18.3882C36.1375 18.3624 35.6918 18.6726 35.3634 18.8277C34.7067 19.1638 34.0968 19.5775 33.4869 20.017C32.8067 20.5341 32.1264 20.9477 32.4783 21.8526C32.7832 23.7916 32.1733 25.6013 31.5635 27.4111C30.977 29.0916 30.5548 30.8496 30.2733 32.6076C29.7338 35.9944 29.7104 39.4588 29.8042 42.9231C29.9684 50.1104 30.4376 57.5045 31.4697 64.6142C31.7042 66.2688 32.0561 67.9234 32.5487 69.5005C32.877 70.5863 33.3227 72.1375 34.2844 72.7321C36.2548 73.9731 39.1399 71.7756 40.8054 70.7931C42.2128 69.94 43.7375 69.3195 45.309 68.9317C46.6461 68.5956 48.0535 68.4405 49.1794 67.5356C51.5016 65.6742 50.6571 63.1664 49.672 60.7879Z" fill="#F5A55F"/>
<path d="M47.821 53.0574C47.6333 52.3335 47.2815 51.6871 46.8123 51.1959C46.6951 51.0667 46.5543 50.9632 46.3901 50.9115C45.9914 50.8081 45.5222 50.9374 45.1235 51.0149C44.8889 51.0408 44.4901 51.0666 44.4432 51.351C44.3494 51.713 44.5371 52.5144 44.6778 52.8764C44.842 53.2642 45.0062 53.6261 45.2173 53.9622C45.3111 54.1174 45.4753 54.1691 45.6161 54.0656C45.7568 53.9622 45.8037 53.7813 45.7099 53.6262C45.5926 53.3676 45.5222 53.1091 45.4519 52.8505C45.4284 52.7213 45.4284 52.592 45.4049 52.4886C45.7333 52.9798 45.9914 53.5227 46.2025 54.0656C46.3901 54.6603 46.484 55.2549 46.7654 55.772C46.8358 55.9271 47.0234 55.9788 47.1642 55.9012C47.2111 55.8754 47.258 55.8237 47.2815 55.772C47.6802 54.9188 48.0321 54.0139 47.821 53.0574Z" fill="#EF9986"/>
<path d="M39.7519 39.0187C38.3445 35.089 35.3656 29.3237 38.626 25.5491C38.8841 25.2388 38.4853 24.7476 38.2273 25.0579C35.6001 28.0827 36.7026 32.2193 37.9223 35.6836C38.8371 38.2431 39.7519 40.7509 40.6668 43.3104C41.5112 45.6889 42.5667 48.0674 42.9655 50.6269C42.9655 50.6786 42.9421 50.7303 42.9655 50.782L43.0593 51.144C43.1531 51.5835 43.7161 51.4284 43.6457 50.9889C43.1297 46.904 41.1359 42.8709 39.7519 39.0187Z" fill="#ED9547"/>
<path d="M9.30471 19.5775C8.67138 20.8443 8.50718 21.4907 7.96768 22.7575C6.91214 25.2394 5.90351 27.7472 4.98871 30.3067C3.11218 35.6066 1.77514 41.0876 1.51712 46.7495C1.16527 46.8787 0.836877 47.0856 0.578854 47.37C-0.195214 48.3782 0.039361 50.3431 0.0159044 51.5065C0.0159044 53.7558 -0.265575 58.0216 1.77515 59.4176C2.73687 60.1157 4.00352 59.8313 5.03561 59.5986C5.99733 59.4177 7.28744 59.2625 7.54547 58.0474C7.70966 57.1943 7.49856 56.1084 7.45165 55.2553C7.40474 54.3245 7.49856 49.7743 7.35782 47.6285C7.33436 47.2665 5.8566 53.2904 4.58994 53.1353C3.22946 52.6441 3.93315 45.5085 3.7455 45.6378C3.55784 45.767 3.55785 45.767 3.32328 45.8963C3.65167 40.8807 4.84796 36.0461 6.48992 31.3667C7.40473 28.7813 8.41336 26.2218 9.49236 23.7399C10.3603 21.6716 11.1343 19.2414 12.5417 17.5092C12.7059 17.38 9.86767 18.3883 9.30471 19.5775Z" fill="#1F2144"/>
<path d="M29.9232 11.923C29.1491 11.8713 28.375 11.8454 27.601 11.8971C27.6244 11.7679 27.6244 11.6128 27.6479 11.4835C27.6948 11.0698 27.1084 10.8889 27.0615 11.3025C26.9676 11.9489 26.8973 12.621 26.8035 13.2415C26.7565 13.6552 27.343 13.8361 27.3899 13.4225C27.4133 13.1381 27.4837 12.8537 27.5071 12.5435C28.3047 12.5176 29.1022 12.5176 29.8997 12.5693C30.3219 12.5952 30.3219 11.9489 29.9232 11.923Z" fill="#EB6E70"/>
<path d="M21.8285 7.09012C21.7347 7.01256 21.6643 6.935 21.5939 6.83159C21.1248 6.26281 21.0544 6.34038 20.3507 6.21111L19.9285 6.1077C19.5767 5.97843 19.2483 5.74575 18.9902 5.46136C18.6149 5.02185 18.31 4.47893 18.1458 3.91016C17.8878 4.03942 17.489 3.93601 17.3014 4.03942C16.1755 4.50479 15.1199 6.1594 14.8384 7.73646C14.7212 8.35694 14.1816 7.16768 13.6421 7.45207C13.478 7.55549 13.4076 7.50378 13.3138 7.71061C13.2434 8.17597 13.2903 8.66719 13.4545 9.1067C13.6891 9.95986 14.2989 10.1667 14.3928 10.8389C14.6273 12.3384 14.9323 13.4501 14.9088 14.3032C14.9792 15.4149 14.4631 16.5008 13.6187 17.0695C13.4076 17.1988 13.1965 17.3281 12.9619 17.4315C12.7977 17.5349 12.3286 18.5432 12.5162 18.6725C14.7212 20.5081 18.3335 19.991 20.7964 19.7842C20.8433 19.7842 20.9606 18.6983 20.9606 18.6983C20.9606 18.6983 20.5853 18.3622 20.3273 18.1812C19.5532 17.6125 19.0841 17.5866 18.9433 16.113C18.9199 15.6735 18.9199 15.2081 18.9433 14.7686C21.3125 14.4325 21.9692 10.2959 21.8285 7.09012Z" fill="#EF9986"/>
<path d="M23.3801 3.39225C22.7467 1.84104 21.7616 1.42738 20.5887 1.42738C20.3542 0.677634 19.9085 0.315684 18.8529 0.108857C17.4925 -0.149678 16.0851 0.057153 14.8184 0.677635C13.4579 1.27226 12.848 2.25469 12.6604 3.39225C12.6369 3.46981 12.6135 3.54737 12.6135 3.65078C12.4962 6.21027 13.2468 10.2175 14.7246 12.9063L14.748 12.9322C14.6308 12.3375 14.49 11.6653 14.3727 10.8639C14.2555 10.1658 13.669 9.93316 13.4345 9.1317C13.2937 8.69219 13.2468 8.20098 13.2937 7.73562C13.4345 7.55464 13.4579 7.5805 13.6221 7.47708C13.6925 7.45123 13.7629 7.45123 13.8098 7.45123C14.1851 7.47708 14.5135 7.9683 14.6777 7.94245C14.7246 7.94245 14.7715 7.89074 14.795 7.76147C14.8653 7.34782 14.9826 6.96001 15.1233 6.57221V6.54636C15.5925 5.38295 16.39 4.40053 17.2344 4.06444C17.3986 4.01273 17.7974 4.06444 18.0789 3.93517C18.2431 4.5298 18.548 5.04687 18.9233 5.48637C19.1813 5.77076 19.5097 6.00344 19.8616 6.13271C20.0023 6.18442 20.1431 6.21027 20.2838 6.23612C20.9875 6.36539 21.0579 6.28783 21.527 6.8566C21.9023 7.29611 22.1603 7.55465 22.7467 7.42538C24.5998 7.08929 23.8492 4.55565 23.3801 3.39225Z" fill="#813A3B"/>
<path d="M37.3139 20.7667C37.3843 20.6374 37.4312 20.4823 37.4547 20.3272C37.4782 20.172 37.4782 19.9911 37.4547 19.8359H37.4312C36.446 20.6891 35.3436 21.3354 34.1473 21.7749C33.772 21.9042 33.9597 22.5505 34.3115 22.4213C35.3905 22.0335 36.3991 21.4647 37.3139 20.7667Z" fill="#ED9547"/>
<path d="M38.9763 45.3008C38.9763 45.2491 38.9528 45.1974 38.9294 45.1457C38.8121 44.6803 38.6948 44.2149 38.601 43.7754C38.6244 43.5686 38.5072 43.3876 38.3195 43.3359C38.2961 43.3359 38.2491 43.3359 38.2257 43.3359C36.443 43.7237 34.7072 44.3701 33.0418 45.2491C32.948 45.3008 32.9011 45.3784 32.9011 45.5076C32.9011 45.5593 32.8776 45.611 32.9011 45.6627C33.0418 46.2574 33.1591 46.8261 33.2998 47.3949C33.2763 47.55 33.3702 47.731 33.5109 47.7569C33.5578 47.7569 33.6047 47.7569 33.6751 47.731C35.364 47.1105 37.0294 46.4125 38.7183 45.7144C38.8825 45.7144 38.9998 45.5852 38.9998 45.4042C38.9763 45.3525 38.9763 45.3267 38.9763 45.3008ZM33.5344 45.6886C34.9652 44.9647 36.4899 44.3959 38.0381 44.034C38.1319 44.3959 38.2257 44.7579 38.3195 45.1198C36.8183 45.7403 35.3171 46.3608 33.8159 46.9296C33.722 46.5418 33.6047 46.1281 33.5344 45.6886Z" fill="#ED9547"/>
<path d="M18.8983 16.1641C18.8748 15.7246 18.8748 15.2592 18.8983 14.8197C16.8575 14.5094 15.1687 12.6997 14.3242 10.709C14.3477 10.7607 14.3477 10.8124 14.3477 10.8641C14.5822 12.3636 14.8872 13.4753 14.8637 14.3285C14.8637 14.5611 14.8637 14.8197 14.8168 15.0524C14.9341 15.1041 15.0279 15.1816 15.1217 15.2333C16.2946 15.9314 17.6081 16.3709 18.9452 16.4743C18.9452 16.3709 18.9217 16.2675 18.8983 16.1641Z" fill="#D98773"/>
</svg>
