<svg width="40" height="41" viewBox="0 0 40 41" fill="none" xmlns="http://www.w3.org/2000/svg">
<path d="M28.3333 6.33342C28.3333 6.11241 28.2455 5.90045 28.0893 5.74417C27.933 5.58789 27.721 5.50009 27.5 5.50009H23.3333C21.2352 5.39557 19.181 6.12574 17.6195 7.53106C16.0581 8.93637 15.1163 10.9026 15 13.0001V17.5001H10.8333C10.6123 17.5001 10.4004 17.5879 10.2441 17.7442C10.0878 17.9004 10 18.1124 10 18.3334V22.6668C10 22.8878 10.0878 23.0997 10.2441 23.256C10.4004 23.4123 10.6123 23.5001 10.8333 23.5001H15V34.6668C15 34.8878 15.0878 35.0997 15.2441 35.256C15.4004 35.4123 15.6123 35.5001 15.8333 35.5001H20.8333C21.0543 35.5001 21.2663 35.4123 21.4226 35.256C21.5789 35.0997 21.6667 34.8878 21.6667 34.6668V23.5001H26.0333C26.2187 23.5028 26.3996 23.4436 26.5475 23.3319C26.6954 23.2202 26.8018 23.0624 26.85 22.8834L28.05 18.5501C28.0832 18.427 28.0876 18.2979 28.063 18.1727C28.0384 18.0476 27.9855 17.9298 27.9082 17.8284C27.8309 17.7269 27.7314 17.6446 27.6173 17.5877C27.5032 17.5308 27.3775 17.5008 27.25 17.5001H21.6667V13.0001C21.7081 12.5876 21.9019 12.2053 22.21 11.9279C22.5182 11.6505 22.9187 11.498 23.3333 11.5001H27.5C27.721 11.5001 27.933 11.4123 28.0893 11.256C28.2455 11.0997 28.3333 10.8878 28.3333 10.6668V6.33342Z" fill="#71C2C1"/>
</svg>
