<svg width="40" height="41" viewBox="0 0 40 41" fill="none" xmlns="http://www.w3.org/2000/svg">
<path d="M31.6667 28.833V32.1663H11.6667V28.833C11.6667 28.833 11.6667 22.1663 21.6667 22.1663C31.6667 22.1663 31.6667 28.833 31.6667 28.833ZM26.6667 13.833C26.6667 12.8441 26.3734 11.8774 25.824 11.0552C25.2746 10.2329 24.4937 9.59205 23.5801 9.21361C22.6665 8.83517 21.6611 8.73616 20.6912 8.92908C19.7213 9.12201 18.8304 9.59821 18.1311 10.2975C17.4319 10.9967 16.9557 11.8877 16.7627 12.8576C16.5698 13.8275 16.6688 14.8328 17.0473 15.7464C17.4257 16.6601 18.0666 17.441 18.8888 17.9904C19.7111 18.5398 20.6778 18.833 21.6667 18.833C22.9927 18.833 24.2645 18.3062 25.2022 17.3685C26.1399 16.4309 26.6667 15.1591 26.6667 13.833ZM32 22.2663C32.9111 23.1068 33.6455 24.1204 34.1606 25.2479C34.6757 26.3753 34.9611 27.5941 35 28.833V32.1663H40V28.833C40 28.833 40 23.083 32 22.2663ZM30 8.83301C29.4964 8.83331 28.996 8.91203 28.5167 9.06634C29.4918 10.4646 30.0146 12.1283 30.0146 13.833C30.0146 15.5377 29.4918 17.2014 28.5167 18.5997C28.996 18.754 29.4964 18.8327 30 18.833C31.3261 18.833 32.5979 18.3062 33.5355 17.3685C34.4732 16.4309 35 15.1591 35 13.833C35 12.5069 34.4732 11.2352 33.5355 10.2975C32.5979 9.35979 31.3261 8.83301 30 8.83301ZM13.3333 17.1663H8.33333V12.1663H5V17.1663H0V20.4997H5V25.4997H8.33333V20.4997H13.3333V17.1663Z" fill="#71C2C1"/>
</svg>
