<svg width="40" height="41" viewBox="0 0 40 41" fill="none" xmlns="http://www.w3.org/2000/svg">
<path d="M35.5717 12.8083C35.3867 12.1193 35.024 11.4909 34.5198 10.9861C34.0156 10.4813 33.3877 10.1178 32.6989 9.93192C30.1635 9.25 20 9.25 20 9.25C20 9.25 9.8365 9.25 7.30106 9.92829C6.61196 10.1136 5.98374 10.4769 5.47949 10.9818C4.97523 11.4867 4.6127 12.1154 4.42829 12.8047C3.75 15.3438 3.75 20.6395 3.75 20.6395C3.75 20.6395 3.75 25.9353 4.42829 28.4707C4.8019 29.8708 5.90458 30.9735 7.30106 31.3471C9.8365 32.029 20 32.029 20 32.029C20 32.029 30.1635 32.029 32.6989 31.3471C34.0991 30.9735 35.1981 29.8708 35.5717 28.4707C36.25 25.9353 36.25 20.6395 36.25 20.6395C36.25 20.6395 36.25 15.3438 35.5717 12.8083ZM16.7718 25.5V15.779L25.1869 20.6032L16.7718 25.5Z" fill="#71C2C1"/>
</svg>
