<svg xmlns="http://www.w3.org/2000/svg" width="148.965" height="103.203" viewBox="0 0 148.965 103.203">
  <g id="Group_50191" data-name="Group 50191" transform="translate(-343.963 -39.58)">
    <g id="Group_49972" data-name="Group 49972" transform="translate(383.266 39.58)">
      <g id="Group_49898" data-name="Group 49898">
        <g id="Group_49892" data-name="Group 49892" transform="translate(0 3.606)">
          <g id="Group_49891" data-name="Group 49891">
            <path id="Path_67272" data-name="Path 67272" d="M471.711,95.321h-68.23a.332.332,0,0,1-.332-.332V45.342a.332.332,0,0,1,.332-.332h68.23a.332.332,0,0,1,.332.332V94.989A.332.332,0,0,1,471.711,95.321Zm-67.9-.664h67.566V45.674H403.813Z" transform="translate(-403.149 -45.01)" fill="#c9d5ff"/>
          </g>
        </g>
        <g id="Group_49897" data-name="Group 49897" transform="translate(7.697)">
          <g id="Group_49894" data-name="Group 49894">
            <g id="Group_49893" data-name="Group 49893">
              <path id="Path_67273" data-name="Path 67273" d="M417.152,43.85h-2.08a.332.332,0,0,1-.332-.332V40.952a1.372,1.372,0,1,1,2.744,0v2.566A.332.332,0,0,1,417.152,43.85Zm-1.748-.664h1.416V40.952a.708.708,0,0,0-1.416,0Z" transform="translate(-414.74 -39.58)" fill="#c9d5ff"/>
            </g>
          </g>
          <g id="Group_49896" data-name="Group 49896" transform="translate(50.757)">
            <g id="Group_49895" data-name="Group 49895">
              <path id="Path_67274" data-name="Path 67274" d="M493.587,43.85h-2.08a.332.332,0,0,1-.332-.332V40.952a1.372,1.372,0,0,1,2.745,0v2.566A.332.332,0,0,1,493.587,43.85Zm-1.748-.664h1.416V40.952a.708.708,0,0,0-1.416,0Z" transform="translate(-491.175 -39.58)" fill="#c9d5ff"/>
            </g>
          </g>
        </g>
      </g>
      <g id="Group_49963" data-name="Group 49963" transform="translate(6.026 8.91)">
        <g id="Group_49900" data-name="Group 49900">
          <g id="Group_49899" data-name="Group 49899">
            <path id="Path_67275" data-name="Path 67275" d="M420.581,61.688h-8.025a.332.332,0,0,1-.332-.332V53.33a.331.331,0,0,1,.332-.332h8.025a.332.332,0,0,1,.332.332v8.026A.332.332,0,0,1,420.581,61.688Zm-7.693-.664h7.361V53.662h-7.361Z" transform="translate(-412.224 -52.998)" fill="#c9d5ff"/>
          </g>
        </g>
        <g id="Group_49902" data-name="Group 49902" transform="translate(0 8.026)">
          <g id="Group_49901" data-name="Group 49901">
            <path id="Path_67276" data-name="Path 67276" d="M420.581,73.773h-8.025a.331.331,0,0,1-.332-.332V65.416a.331.331,0,0,1,.332-.332h8.025a.332.332,0,0,1,.332.332v8.025A.332.332,0,0,1,420.581,73.773Zm-7.693-.664h7.361V65.748h-7.361Z" transform="translate(-412.224 -65.084)" fill="#c9d5ff"/>
          </g>
        </g>
        <g id="Group_49904" data-name="Group 49904" transform="translate(0 16.051)">
          <g id="Group_49903" data-name="Group 49903">
            <path id="Path_67277" data-name="Path 67277" d="M420.581,85.859h-8.025a.332.332,0,0,1-.332-.332V77.5a.332.332,0,0,1,.332-.332h8.025a.332.332,0,0,1,.332.332v8.026A.332.332,0,0,1,420.581,85.859Zm-7.693-.664h7.361V77.833h-7.361Z" transform="translate(-412.224 -77.169)" fill="#c9d5ff"/>
          </g>
        </g>
        <g id="Group_49906" data-name="Group 49906" transform="translate(0 24.077)">
          <g id="Group_49905" data-name="Group 49905">
            <path id="Path_67278" data-name="Path 67278" d="M420.581,97.945h-8.025a.332.332,0,0,1-.332-.332V89.587a.332.332,0,0,1,.332-.332h8.025a.332.332,0,0,1,.332.332v8.026A.332.332,0,0,1,420.581,97.945Zm-7.693-.664h7.361V89.919h-7.361Z" transform="translate(-412.224 -89.255)" fill="#c9d5ff"/>
          </g>
        </g>
        <g id="Group_49908" data-name="Group 49908" transform="translate(0 32.102)">
          <g id="Group_49907" data-name="Group 49907">
            <path id="Path_67279" data-name="Path 67279" d="M420.581,110.03h-8.025a.331.331,0,0,1-.332-.332v-8.025a.332.332,0,0,1,.332-.332h8.025a.332.332,0,0,1,.332.332V109.7A.332.332,0,0,1,420.581,110.03Zm-7.693-.664h7.361v-7.361h-7.361Z" transform="translate(-412.224 -101.341)" fill="#c9d5ff"/>
          </g>
        </g>
        <g id="Group_49910" data-name="Group 49910" transform="translate(8.025)">
          <g id="Group_49909" data-name="Group 49909">
            <path id="Path_67280" data-name="Path 67280" d="M432.667,61.688h-8.026a.332.332,0,0,1-.332-.332V53.33a.332.332,0,0,1,.332-.332h8.026a.332.332,0,0,1,.332.332v8.026A.332.332,0,0,1,432.667,61.688Zm-7.694-.664h7.362V53.662h-7.362Z" transform="translate(-424.309 -52.998)" fill="#c9d5ff"/>
          </g>
        </g>
        <g id="Group_49912" data-name="Group 49912" transform="translate(16.051)">
          <g id="Group_49911" data-name="Group 49911">
            <path id="Path_67281" data-name="Path 67281" d="M444.752,61.688h-8.025a.332.332,0,0,1-.332-.332V53.33a.332.332,0,0,1,.332-.332h8.025a.331.331,0,0,1,.332.332v8.026A.332.332,0,0,1,444.752,61.688Zm-7.693-.664h7.361V53.662h-7.361Z" transform="translate(-436.395 -52.998)" fill="#c9d5ff"/>
          </g>
        </g>
        <g id="Group_49914" data-name="Group 49914" transform="translate(24.076)">
          <g id="Group_49913" data-name="Group 49913">
            <path id="Path_67282" data-name="Path 67282" d="M456.838,61.688h-8.026a.332.332,0,0,1-.332-.332V53.33a.332.332,0,0,1,.332-.332h8.026a.331.331,0,0,1,.332.332v8.026A.332.332,0,0,1,456.838,61.688Zm-7.694-.664h7.362V53.662h-7.362Z" transform="translate(-448.48 -52.998)" fill="#c9d5ff"/>
          </g>
        </g>
        <g id="Group_49916" data-name="Group 49916" transform="translate(32.102)">
          <g id="Group_49915" data-name="Group 49915">
            <path id="Path_67283" data-name="Path 67283" d="M468.924,61.688H460.9a.332.332,0,0,1-.332-.332V53.33A.332.332,0,0,1,460.9,53h8.026a.331.331,0,0,1,.332.332v8.026A.332.332,0,0,1,468.924,61.688Zm-7.694-.664h7.362V53.662H461.23Z" transform="translate(-460.566 -52.998)" fill="#c9d5ff"/>
          </g>
        </g>
        <g id="Group_49918" data-name="Group 49918" transform="translate(40.127)">
          <g id="Group_49917" data-name="Group 49917">
            <path id="Path_67284" data-name="Path 67284" d="M481.01,61.688h-8.026a.332.332,0,0,1-.332-.332V53.33a.332.332,0,0,1,.332-.332h8.026a.331.331,0,0,1,.332.332v8.026A.332.332,0,0,1,481.01,61.688Zm-7.694-.664h7.362V53.662h-7.362Z" transform="translate(-472.652 -52.998)" fill="#c9d5ff"/>
          </g>
        </g>
        <g id="Group_49920" data-name="Group 49920" transform="translate(48.153)">
          <g id="Group_49919" data-name="Group 49919">
            <path id="Path_67285" data-name="Path 67285" d="M493.1,61.688H485.07a.332.332,0,0,1-.332-.332V53.33A.332.332,0,0,1,485.07,53H493.1a.331.331,0,0,1,.332.332v8.026A.332.332,0,0,1,493.1,61.688Zm-7.693-.664h7.361V53.662H485.4Z" transform="translate(-484.738 -52.998)" fill="#c9d5ff"/>
          </g>
        </g>
        <g id="Group_49922" data-name="Group 49922" transform="translate(8.025 8.026)">
          <g id="Group_49921" data-name="Group 49921">
            <path id="Path_67286" data-name="Path 67286" d="M432.667,73.773h-8.026a.332.332,0,0,1-.332-.332V65.416a.332.332,0,0,1,.332-.332h8.026a.332.332,0,0,1,.332.332v8.025A.332.332,0,0,1,432.667,73.773Zm-7.694-.664h7.362V65.748h-7.362Z" transform="translate(-424.309 -65.084)" fill="#c9d5ff"/>
          </g>
        </g>
        <g id="Group_49924" data-name="Group 49924" transform="translate(16.051 8.026)">
          <g id="Group_49923" data-name="Group 49923">
            <path id="Path_67287" data-name="Path 67287" d="M444.752,73.773h-8.025a.332.332,0,0,1-.332-.332V65.416a.332.332,0,0,1,.332-.332h8.025a.331.331,0,0,1,.332.332v8.025A.331.331,0,0,1,444.752,73.773Zm-7.693-.664h7.361V65.748h-7.361Z" transform="translate(-436.395 -65.084)" fill="#c9d5ff"/>
          </g>
        </g>
        <g id="Group_49926" data-name="Group 49926" transform="translate(24.076 8.026)">
          <g id="Group_49925" data-name="Group 49925">
            <path id="Path_67288" data-name="Path 67288" d="M456.838,73.773h-8.026a.332.332,0,0,1-.332-.332V65.416a.332.332,0,0,1,.332-.332h8.026a.331.331,0,0,1,.332.332v8.025A.331.331,0,0,1,456.838,73.773Zm-7.694-.664h7.362V65.748h-7.362Z" transform="translate(-448.48 -65.084)" fill="#c9d5ff"/>
          </g>
        </g>
        <g id="Group_49928" data-name="Group 49928" transform="translate(32.102 8.026)">
          <g id="Group_49927" data-name="Group 49927">
            <path id="Path_67289" data-name="Path 67289" d="M468.924,73.773H460.9a.332.332,0,0,1-.332-.332V65.416a.332.332,0,0,1,.332-.332h8.026a.331.331,0,0,1,.332.332v8.025A.331.331,0,0,1,468.924,73.773Zm-7.694-.664h7.362V65.748H461.23Z" transform="translate(-460.566 -65.084)" fill="#c9d5ff"/>
          </g>
        </g>
        <g id="Group_49930" data-name="Group 49930" transform="translate(40.127 8.026)">
          <g id="Group_49929" data-name="Group 49929">
            <path id="Path_67290" data-name="Path 67290" d="M481.01,73.773h-8.026a.332.332,0,0,1-.332-.332V65.416a.332.332,0,0,1,.332-.332h8.026a.331.331,0,0,1,.332.332v8.025A.331.331,0,0,1,481.01,73.773Zm-7.694-.664h7.362V65.748h-7.362Z" transform="translate(-472.652 -65.084)" fill="#c9d5ff"/>
          </g>
        </g>
        <g id="Group_49932" data-name="Group 49932" transform="translate(48.153 8.026)">
          <g id="Group_49931" data-name="Group 49931">
            <path id="Path_67291" data-name="Path 67291" d="M493.1,73.773H485.07a.332.332,0,0,1-.332-.332V65.416a.332.332,0,0,1,.332-.332H493.1a.331.331,0,0,1,.332.332v8.025A.331.331,0,0,1,493.1,73.773Zm-7.693-.664h7.361V65.748H485.4Z" transform="translate(-484.738 -65.084)" fill="#c9d5ff"/>
          </g>
        </g>
        <g id="Group_49934" data-name="Group 49934" transform="translate(8.025 16.051)">
          <g id="Group_49933" data-name="Group 49933">
            <path id="Path_67292" data-name="Path 67292" d="M432.667,85.859h-8.026a.332.332,0,0,1-.332-.332V77.5a.332.332,0,0,1,.332-.332h8.026A.332.332,0,0,1,433,77.5v8.026A.332.332,0,0,1,432.667,85.859Zm-7.694-.664h7.362V77.833h-7.362Z" transform="translate(-424.309 -77.169)" fill="#c9d5ff"/>
          </g>
        </g>
        <g id="Group_49936" data-name="Group 49936" transform="translate(16.051 16.051)">
          <g id="Group_49935" data-name="Group 49935">
            <path id="Path_67293" data-name="Path 67293" d="M444.752,85.859h-8.025a.332.332,0,0,1-.332-.332V77.5a.332.332,0,0,1,.332-.332h8.025a.332.332,0,0,1,.332.332v8.026A.332.332,0,0,1,444.752,85.859Zm-7.693-.664h7.361V77.833h-7.361Z" transform="translate(-436.395 -77.169)" fill="#c9d5ff"/>
          </g>
        </g>
        <g id="Group_49938" data-name="Group 49938" transform="translate(24.076 16.051)">
          <g id="Group_49937" data-name="Group 49937">
            <path id="Path_67294" data-name="Path 67294" d="M456.838,85.859h-8.026a.332.332,0,0,1-.332-.332V77.5a.332.332,0,0,1,.332-.332h8.026a.332.332,0,0,1,.332.332v8.026A.332.332,0,0,1,456.838,85.859Zm-7.694-.664h7.362V77.833h-7.362Z" transform="translate(-448.48 -77.169)" fill="#c9d5ff"/>
          </g>
        </g>
        <g id="Group_49940" data-name="Group 49940" transform="translate(32.102 16.051)">
          <g id="Group_49939" data-name="Group 49939">
            <path id="Path_67295" data-name="Path 67295" d="M468.924,85.859H460.9a.332.332,0,0,1-.332-.332V77.5a.332.332,0,0,1,.332-.332h8.026a.332.332,0,0,1,.332.332v8.026A.332.332,0,0,1,468.924,85.859Zm-7.694-.664h7.362V77.833H461.23Z" transform="translate(-460.566 -77.169)" fill="#c9d5ff"/>
          </g>
        </g>
        <g id="Group_49942" data-name="Group 49942" transform="translate(40.127 16.051)">
          <g id="Group_49941" data-name="Group 49941">
            <path id="Path_67296" data-name="Path 67296" d="M481.01,85.859h-8.026a.332.332,0,0,1-.332-.332V77.5a.332.332,0,0,1,.332-.332h8.026a.332.332,0,0,1,.332.332v8.026A.332.332,0,0,1,481.01,85.859Zm-7.694-.664h7.362V77.833h-7.362Z" transform="translate(-472.652 -77.169)" fill="#c9d5ff"/>
          </g>
        </g>
        <g id="Group_49944" data-name="Group 49944" transform="translate(48.153 16.051)">
          <g id="Group_49943" data-name="Group 49943">
            <path id="Path_67297" data-name="Path 67297" d="M493.1,85.859H485.07a.332.332,0,0,1-.332-.332V77.5a.332.332,0,0,1,.332-.332H493.1a.332.332,0,0,1,.332.332v8.026A.332.332,0,0,1,493.1,85.859Zm-7.693-.664h7.361V77.833H485.4Z" transform="translate(-484.738 -77.169)" fill="#c9d5ff"/>
          </g>
        </g>
        <g id="Group_49946" data-name="Group 49946" transform="translate(8.025 24.077)">
          <g id="Group_49945" data-name="Group 49945">
            <path id="Path_67298" data-name="Path 67298" d="M432.667,97.945h-8.026a.332.332,0,0,1-.332-.332V89.587a.332.332,0,0,1,.332-.332h8.026a.332.332,0,0,1,.332.332v8.026A.332.332,0,0,1,432.667,97.945Zm-7.694-.664h7.362V89.919h-7.362Z" transform="translate(-424.309 -89.255)" fill="#c9d5ff"/>
          </g>
        </g>
        <g id="Group_49948" data-name="Group 49948" transform="translate(16.051 24.077)">
          <g id="Group_49947" data-name="Group 49947">
            <path id="Path_67299" data-name="Path 67299" d="M444.752,97.945h-8.025a.332.332,0,0,1-.332-.332V89.587a.332.332,0,0,1,.332-.332h8.025a.332.332,0,0,1,.332.332v8.026A.332.332,0,0,1,444.752,97.945Zm-7.693-.664h7.361V89.919h-7.361Z" transform="translate(-436.395 -89.255)" fill="#c9d5ff"/>
          </g>
        </g>
        <g id="Group_49950" data-name="Group 49950" transform="translate(24.076 24.077)">
          <g id="Group_49949" data-name="Group 49949">
            <path id="Path_67300" data-name="Path 67300" d="M456.838,97.945h-8.026a.332.332,0,0,1-.332-.332V89.587a.332.332,0,0,1,.332-.332h8.026a.332.332,0,0,1,.332.332v8.026A.332.332,0,0,1,456.838,97.945Zm-7.694-.664h7.362V89.919h-7.362Z" transform="translate(-448.48 -89.255)" fill="#c9d5ff"/>
          </g>
        </g>
        <g id="Group_49952" data-name="Group 49952" transform="translate(32.102 24.077)">
          <g id="Group_49951" data-name="Group 49951">
            <path id="Path_67301" data-name="Path 67301" d="M468.924,97.945H460.9a.332.332,0,0,1-.332-.332V89.587a.332.332,0,0,1,.332-.332h8.026a.332.332,0,0,1,.332.332v8.026A.332.332,0,0,1,468.924,97.945Zm-7.694-.664h7.362V89.919H461.23Z" transform="translate(-460.566 -89.255)" fill="#c9d5ff"/>
          </g>
        </g>
        <g id="Group_49954" data-name="Group 49954" transform="translate(40.127 24.077)">
          <g id="Group_49953" data-name="Group 49953">
            <path id="Path_67302" data-name="Path 67302" d="M481.01,97.945h-8.026a.332.332,0,0,1-.332-.332V89.587a.332.332,0,0,1,.332-.332h8.026a.332.332,0,0,1,.332.332v8.026A.332.332,0,0,1,481.01,97.945Zm-7.694-.664h7.362V89.919h-7.362Z" transform="translate(-472.652 -89.255)" fill="#c9d5ff"/>
          </g>
        </g>
        <g id="Group_49956" data-name="Group 49956" transform="translate(48.153 24.077)">
          <g id="Group_49955" data-name="Group 49955">
            <path id="Path_67303" data-name="Path 67303" d="M493.1,97.945H485.07a.332.332,0,0,1-.332-.332V89.587a.332.332,0,0,1,.332-.332H493.1a.332.332,0,0,1,.332.332v8.026A.332.332,0,0,1,493.1,97.945Zm-7.693-.664h7.361V89.919H485.4Z" transform="translate(-484.738 -89.255)" fill="#c9d5ff"/>
          </g>
        </g>
        <g id="Group_49958" data-name="Group 49958" transform="translate(8.025 32.093)">
          <g id="Group_49957" data-name="Group 49957">
            <path id="Path_67304" data-name="Path 67304" d="M432.667,110.017h-8.026a.332.332,0,0,1-.332-.332v-8.026a.332.332,0,0,1,.332-.332h8.026a.332.332,0,0,1,.332.332v8.026A.332.332,0,0,1,432.667,110.017Zm-7.694-.664h7.362v-7.362h-7.362Z" transform="translate(-424.309 -101.327)" fill="#c9d5ff"/>
          </g>
        </g>
        <g id="Group_49960" data-name="Group 49960" transform="translate(16.051 32.093)">
          <g id="Group_49959" data-name="Group 49959">
            <path id="Path_67305" data-name="Path 67305" d="M444.752,110.017h-8.025a.332.332,0,0,1-.332-.332v-8.026a.332.332,0,0,1,.332-.332h8.025a.331.331,0,0,1,.332.332v8.026A.332.332,0,0,1,444.752,110.017Zm-7.693-.664h7.361v-7.362h-7.361Z" transform="translate(-436.395 -101.327)" fill="#c9d5ff"/>
          </g>
        </g>
        <g id="Group_49962" data-name="Group 49962" transform="translate(24.076 32.093)">
          <g id="Group_49961" data-name="Group 49961">
            <path id="Path_67306" data-name="Path 67306" d="M456.838,110.017h-8.026a.332.332,0,0,1-.332-.332v-8.026a.332.332,0,0,1,.332-.332h8.026a.331.331,0,0,1,.332.332v8.026A.332.332,0,0,1,456.838,110.017Zm-7.694-.664h7.362v-7.362h-7.362Z" transform="translate(-448.48 -101.327)" fill="#c9d5ff"/>
          </g>
        </g>
      </g>
      <g id="Group_49965" data-name="Group 49965" transform="translate(10.109 12.536)">
        <g id="Group_49964" data-name="Group 49964">
          <path id="Path_67307" data-name="Path 67307" d="M442.537,61.023H419.655a1.283,1.283,0,0,1-1.283-1.282h0a1.283,1.283,0,0,1,1.283-1.283h22.882a1.283,1.283,0,0,1,1.283,1.283h0A1.283,1.283,0,0,1,442.537,61.023Z" transform="translate(-418.372 -58.458)" fill="#c9d5ff"/>
        </g>
      </g>
      <g id="Group_49967" data-name="Group 49967" transform="translate(42.473 28.415)">
        <g id="Group_49966" data-name="Group 49966">
          <path id="Path_67308" data-name="Path 67308" d="M482.139,84.935H468.392a1.283,1.283,0,0,1-1.283-1.283h0a1.282,1.282,0,0,1,1.283-1.282h13.747a1.282,1.282,0,0,1,1.283,1.282h0A1.283,1.283,0,0,1,482.139,84.935Z" transform="translate(-467.109 -82.37)" fill="#c9d5ff"/>
        </g>
      </g>
      <g id="Group_49969" data-name="Group 49969" transform="translate(10.24 36.083)">
        <g id="Group_49968" data-name="Group 49968">
          <path id="Path_67309" data-name="Path 67309" d="M433.6,96.484H419.852a1.283,1.283,0,0,1-1.283-1.283h0a1.283,1.283,0,0,1,1.283-1.283H433.6a1.283,1.283,0,0,1,1.283,1.283h0A1.283,1.283,0,0,1,433.6,96.484Z" transform="translate(-418.569 -93.918)" fill="#c9d5ff"/>
        </g>
      </g>
      <g id="Group_49971" data-name="Group 49971" transform="translate(17.287 44.571)">
        <g id="Group_49970" data-name="Group 49970" transform="translate(0 0)">
          <circle id="Ellipse_2432" data-name="Ellipse 2432" cx="1.109" cy="1.109" r="1.109" fill="#c9d5ff"/>
        </g>
      </g>
    </g>
    <g id="Group_50029" data-name="Group 50029" transform="translate(434.406 72.331)">
      <g id="Group_49974" data-name="Group 49974" transform="translate(10.135 32.594)">
        <g id="Group_49973" data-name="Group 49973">
          <path id="Path_67310" data-name="Path 67310" d="M495.756,175.723a.29.29,0,0,1-.054,0,.331.331,0,0,1-.274-.381l6.006-37.074a.332.332,0,1,1,.655.106l-6.006,37.075A.332.332,0,0,1,495.756,175.723Z" transform="translate(-495.423 -137.983)" fill="#ff6652"/>
        </g>
      </g>
      <g id="Group_49976" data-name="Group 49976" transform="translate(30.921 66.919)">
        <g id="Group_49975" data-name="Group 49975">
          <path id="Path_67311" data-name="Path 67311" d="M529.807,191.214a1.541,1.541,0,1,1-1.541-1.541A1.541,1.541,0,0,1,529.807,191.214Z" transform="translate(-526.725 -189.673)" fill="#ff6652"/>
        </g>
      </g>
      <g id="Group_49978" data-name="Group 49978" transform="translate(31.605 66.587)">
        <g id="Group_49977" data-name="Group 49977">
          <path id="Path_67312" data-name="Path 67312" d="M540.723,189.837H528.087a.332.332,0,0,1,0-.664h12.636a.332.332,0,1,1,0,.664Z" transform="translate(-527.755 -189.173)" fill="#ff6652"/>
        </g>
      </g>
      <g id="Group_49985" data-name="Group 49985" transform="translate(24.807 66.544)">
        <g id="Group_49980" data-name="Group 49980" transform="translate(5.141)">
          <g id="Group_49979" data-name="Group 49979">
            <path id="Path_67313" data-name="Path 67313" d="M528.593,190.877l-.31-1.768H525.26v1.768l1.174.678h1.041Z" transform="translate(-525.26 -189.109)" fill="#ffcec8"/>
          </g>
        </g>
        <g id="Group_49982" data-name="Group 49982" transform="translate(0 0.757)">
          <g id="Group_49981" data-name="Group 49981">
            <path id="Path_67314" data-name="Path 67314" d="M525.992,191.26l.282,1.394-8.756-.011v-.116a.708.708,0,0,1,.477-.669l4.664-1.609.711.833A2.808,2.808,0,0,0,525.992,191.26Z" transform="translate(-517.518 -190.249)" fill="#426bff"/>
          </g>
        </g>
        <g id="Group_49984" data-name="Group 49984" transform="translate(0 3.15)">
          <g id="Group_49983" data-name="Group 49983">
            <path id="Path_67315" data-name="Path 67315" d="M517.518,193.853v.515l8.869-.009-.113-.494Z" transform="translate(-517.518 -193.853)" fill="#426bff"/>
          </g>
        </g>
      </g>
      <g id="Group_49992" data-name="Group 49992" transform="translate(0 63.365)">
        <g id="Group_49987" data-name="Group 49987" transform="translate(5.048 1.561)">
          <g id="Group_49986" data-name="Group 49986">
            <path id="Path_67316" data-name="Path 67316" d="M490.169,190.206l1.107-1.344-2.336-2.19-.484.516-.692.738.393,1.3.76.712Z" transform="translate(-487.764 -186.673)" fill="#ffcec8"/>
          </g>
        </g>
        <g id="Group_49989" data-name="Group 49989" transform="translate(0.352)">
          <g id="Group_49988" data-name="Group 49988">
            <path id="Path_67317" data-name="Path 67317" d="M487.793,189.417l-.866,1.033-6.235-5.819.079-.084a.707.707,0,0,1,.805-.162l4.5,2.015-.051,1.1A2.734,2.734,0,0,0,487.793,189.417Z" transform="translate(-480.692 -184.322)" fill="#426bff"/>
          </g>
        </g>
        <g id="Group_49991" data-name="Group 49991" transform="translate(0 0.308)">
          <g id="Group_49990" data-name="Group 49990">
            <path id="Path_67318" data-name="Path 67318" d="M480.514,184.786l-.352.376,6.234,5.831.353-.388Z" transform="translate(-480.161 -184.786)" fill="#426bff"/>
          </g>
        </g>
      </g>
      <g id="Group_49994" data-name="Group 49994" transform="translate(27.901 2.622)">
        <g id="Group_49993" data-name="Group 49993">
          <path id="Path_67319" data-name="Path 67319" d="M522.177,94.6l.22,3.718a1.564,1.564,0,0,0,1.723,1.467c.061-.006.125-.014.191-.023l.24,2.271s.31,1.583,2.685,1.274,2-1.824,2-1.824l-.516-4.267a1.212,1.212,0,0,0,1.273-1.17s.009-1.066-1.41-.55l-.258-2.09S523.37,91.559,522.177,94.6Z" transform="translate(-522.177 -92.849)" fill="#ffcec8"/>
        </g>
      </g>
      <g id="Group_49996" data-name="Group 49996" transform="translate(27.038)">
        <g id="Group_49995" data-name="Group 49995">
          <path id="Path_67320" data-name="Path 67320" d="M527.883,92.076s-3.356,2.391-6.143,1.2c0,0-1.136-.628-.8-2.59,0,0,.557-2.039,3.44-1.755,0,0,1.721.207,2.212.8,0,0,.181-.852,1.626-.568,0,0,.723.077.955,1.781a28.112,28.112,0,0,1,.232,3.344,1.321,1.321,0,0,0-1.264-.118Z" transform="translate(-520.878 -88.9)" fill="#384b61"/>
        </g>
      </g>
      <g id="Group_49998" data-name="Group 49998" transform="translate(36.401 16.653)">
        <g id="Group_49997" data-name="Group 49997">
          <path id="Path_67321" data-name="Path 67321" d="M549.186,136.514l6.689-22.536h-20.9l4.43,22.536Z" transform="translate(-534.977 -113.978)" fill="#fda74c"/>
        </g>
      </g>
      <g id="Group_50000" data-name="Group 50000" transform="translate(5.301 38.016)">
        <g id="Group_49999" data-name="Group 49999">
          <path id="Path_67322" data-name="Path 67322" d="M523.792,146.236,491.5,175.513l-3.359-3.156,17.595-22.5,7.464-3.706Z" transform="translate(-488.144 -146.149)" fill="#293545"/>
        </g>
      </g>
      <g id="Group_50002" data-name="Group 50002" transform="translate(20.539 32.58)">
        <g id="Group_50001" data-name="Group 50001">
          <path id="Path_67323" data-name="Path 67323" d="M535.258,137.962l.3,3.322a3.014,3.014,0,0,1-3,3.287H520.6l3.79,27.356h-5.694L511.381,145.6a8.079,8.079,0,0,1,.792-6.186l.837-1.452Z" transform="translate(-511.091 -137.962)" fill="#384b61"/>
        </g>
      </g>
      <g id="Group_50004" data-name="Group 50004" transform="translate(30.044 39.189)">
        <g id="Group_50003" data-name="Group 50003">
          <path id="Path_67324" data-name="Path 67324" d="M545.438,149.587H525.673l-.269-1.672H545.97Z" transform="translate(-525.405 -147.914)" fill="#fda74c"/>
        </g>
      </g>
      <g id="Group_50006" data-name="Group 50006" transform="translate(46.583 32.248)">
        <g id="Group_50005" data-name="Group 50005">
          <path id="Path_67325" data-name="Path 67325" d="M556.7,175.548a.332.332,0,0,1-.327-.279l-6.062-37.421a.332.332,0,0,1,.655-.107l6.062,37.421a.332.332,0,0,1-.275.381A.289.289,0,0,1,556.7,175.548Z" transform="translate(-550.31 -137.462)" fill="#ff6652"/>
        </g>
      </g>
      <g id="Group_50008" data-name="Group 50008" transform="translate(20.017 10.713)">
        <g id="Group_50007" data-name="Group 50007">
          <path id="Path_67326" data-name="Path 67326" d="M520.474,105.515l-3.757.4a5.962,5.962,0,0,0-3.688,1.822h0a5.97,5.97,0,0,0-1.617,3.581l-.384,4.329-.723,10.22h24.52l-.413-3.846,2.726-.673c1.232-.355,2.091-.752,2.367-2h0a3.5,3.5,0,0,0-.143-1.987l-3.246-8.613a5.741,5.741,0,0,0-2.5-2.947h0a5.744,5.744,0,0,0-3.115-.764l-5.327.227s.038,1.474-2.344,1.554C522.829,106.819,520.938,106.892,520.474,105.515Z" transform="translate(-510.305 -105.033)" fill="#8a50a0"/>
        </g>
      </g>
      <g id="Group_50010" data-name="Group 50010" transform="translate(5.091 30.358)">
        <g id="Group_50009" data-name="Group 50009">
          <rect id="Rectangle_21785" data-name="Rectangle 21785" width="53.431" height="2.76" rx="1.38" fill="#426bff"/>
        </g>
      </g>
      <g id="Group_50012" data-name="Group 50012" transform="translate(25.891 16.227)">
        <g id="Group_50011" data-name="Group 50011">
          <path id="Path_67327" data-name="Path 67327" d="M519.35,118.441a.2.2,0,0,1-.2-.2v-4.706a.2.2,0,1,1,.4,0v4.706A.2.2,0,0,1,519.35,118.441Z" transform="translate(-519.151 -113.336)" fill="#ff361c"/>
        </g>
      </g>
      <g id="Group_50014" data-name="Group 50014" transform="translate(30.034 8.197)">
        <g id="Group_50013" data-name="Group 50013">
          <path id="Path_67328" data-name="Path 67328" d="M525.39,102.581a5.118,5.118,0,0,0,3.075-1.337,3.886,3.886,0,0,1-3.006,1.984Z" transform="translate(-525.39 -101.244)" fill="#ff9b8f"/>
        </g>
      </g>
      <g id="Group_50016" data-name="Group 50016" transform="translate(29.784 27.727)">
        <g id="Group_50015" data-name="Group 50015">
          <path id="Path_67329" data-name="Path 67329" d="M528.927,130.655l-1.016.9-2.9.323.443.738h4.324l-.307-.225Z" transform="translate(-525.014 -130.655)" fill="#ffcec8"/>
        </g>
      </g>
      <g id="Group_50018" data-name="Group 50018" transform="translate(33.36 15.53)">
        <g id="Group_50017" data-name="Group 50017">
          <path id="Path_67330" data-name="Path 67330" d="M531.283,126.421a.2.2,0,0,1-.19-.139l-.685-2.175a.2.2,0,0,1,.108-.241l8.744-3.982-2.656-7.329a.2.2,0,0,1,.375-.136l2.718,7.5a.2.2,0,0,1-.1.249l-8.751,3.985.579,1.84,9.706-1.729a.2.2,0,0,1,.23.161.2.2,0,0,1-.161.231l-9.878,1.76A.2.2,0,0,1,531.283,126.421Z" transform="translate(-530.399 -112.287)" fill="#ff361c"/>
        </g>
      </g>
      <g id="Group_50020" data-name="Group 50020" transform="translate(37.923 40.529)">
        <g id="Group_50019" data-name="Group 50019">
          <path id="Path_67331" data-name="Path 67331" d="M537.6,176.429a.332.332,0,0,1-.332-.332V150.265a.332.332,0,0,1,.664,0V176.1A.332.332,0,0,1,537.6,176.429Z" transform="translate(-537.269 -149.933)" fill="#ff6652"/>
        </g>
      </g>
      <g id="Group_50022" data-name="Group 50022" transform="translate(42.987 66.919)">
        <g id="Group_50021" data-name="Group 50021">
          <path id="Path_67332" data-name="Path 67332" d="M547.979,191.214a1.541,1.541,0,1,1-1.541-1.541A1.541,1.541,0,0,1,547.979,191.214Z" transform="translate(-544.896 -189.673)" fill="#ff6652"/>
        </g>
      </g>
      <g id="Group_50024" data-name="Group 50024" transform="translate(29.785 29.411)">
        <g id="Group_50023" data-name="Group 50023">
          <path id="Path_67333" data-name="Path 67333" d="M530.892,134.312h-5.878v-1.121h4.757a1.121,1.121,0,0,1,1.121,1.121Z" transform="translate(-525.014 -133.191)" fill="#293545"/>
        </g>
      </g>
      <g id="Group_50026" data-name="Group 50026" transform="translate(10.785 20.504)">
        <g id="Group_50025" data-name="Group 50025">
          <path id="Path_67334" data-name="Path 67334" d="M516.113,129.806H499.153l-2.695-8.5a1.174,1.174,0,0,1,1.12-1.529h14.495a1.175,1.175,0,0,1,1.12.819Z" transform="translate(-496.403 -119.777)" fill="#293545"/>
        </g>
      </g>
      <g id="Group_50028" data-name="Group 50028" transform="translate(18.394 24.453)">
        <g id="Group_50027" data-name="Group 50027">
          <path id="Path_67335" data-name="Path 67335" d="M509.33,127.528a1.037,1.037,0,1,1,.118-1.311A.94.94,0,0,1,509.33,127.528Z" transform="translate(-507.86 -125.724)" fill="#44576e"/>
        </g>
      </g>
    </g>
    <g id="Group_50087" data-name="Group 50087" transform="translate(398.695 49.864)">
      <g id="Group_50031" data-name="Group 50031" transform="translate(14.002 1.571)">
        <g id="Group_50030" data-name="Group 50030">
          <path id="Path_67336" data-name="Path 67336" d="M447.47,58.585l.123,3.666,2.565,2.985.035,1.055,2.551,1.447,2.379-2.06L454.69,61.8a1.037,1.037,0,0,0,.679-.9.745.745,0,0,0-.282-.677c-.229-.162-.61-.213-1.167.379l-.125-3.168-6.2.207Z" transform="translate(-447.47 -57.433)" fill="#ffcec8"/>
        </g>
      </g>
      <g id="Group_50033" data-name="Group 50033" transform="translate(13.281)">
        <g id="Group_50032" data-name="Group 50032">
          <path id="Path_67337" data-name="Path 67337" d="M453.555,59.806s.856,4.344-5.124,4.844a3.964,3.964,0,0,1-.487.009h0a.736.736,0,0,1-.693-.728l-.023-2.475a1.141,1.141,0,0,1,1.4-.107,2.087,2.087,0,0,0,2.82-.113,2.226,2.226,0,0,0,1.012-1.9,5.1,5.1,0,0,0-.212-1.425.993.993,0,0,0-1.547-.405,3.156,3.156,0,0,1-3.6.28,1.285,1.285,0,0,1-.6-1.612c.465-1.014,1.548-1.3,2.808-1s2.037,1.142,3.658.8c0,0,1-.339,1.269-.79l.138,4.134A1.267,1.267,0,0,0,453.555,59.806Z" transform="translate(-446.383 -55.067)" fill="#384b61"/>
        </g>
      </g>
      <g id="Group_50060" data-name="Group 50060" transform="translate(8.025 35.382)">
        <g id="Group_50040" data-name="Group 50040" transform="translate(17.584 45.768)">
          <g id="Group_50036" data-name="Group 50036">
            <g id="Group_50035" data-name="Group 50035">
              <g id="Group_50034" data-name="Group 50034">
                <path id="Path_67338" data-name="Path 67338" d="M464.949,177.612l.6,8.9h3.444v-9.24Z" transform="translate(-464.949 -177.271)" fill="#ffcec8"/>
              </g>
            </g>
          </g>
          <g id="Group_50039" data-name="Group 50039" transform="translate(0.601 8.649)">
            <g id="Group_50038" data-name="Group 50038">
              <g id="Group_50037" data-name="Group 50037">
                <path id="Path_67339" data-name="Path 67339" d="M465.854,190.886v2.078h7.721a.82.82,0,0,0-.454-1.115c-.795-.288-3.217-.71-3.823-1.555a1,1,0,0,1-1.135.456C467.387,190.548,466.743,189.8,465.854,190.886Z" transform="translate(-465.854 -190.295)" fill="#2e3e52"/>
              </g>
            </g>
          </g>
        </g>
        <g id="Group_50047" data-name="Group 50047" transform="translate(0 45.768)">
          <g id="Group_50043" data-name="Group 50043" transform="translate(4.126)">
            <g id="Group_50042" data-name="Group 50042">
              <g id="Group_50041" data-name="Group 50041">
                <path id="Path_67340" data-name="Path 67340" d="M448.9,177.605l-.549,8.906h-3.444l-.223-9.24Z" transform="translate(-444.682 -177.271)" fill="#ffcec8"/>
              </g>
            </g>
          </g>
          <g id="Group_50046" data-name="Group 50046" transform="translate(0 8.649)">
            <g id="Group_50045" data-name="Group 50045">
              <g id="Group_50044" data-name="Group 50044">
                <path id="Path_67341" data-name="Path 67341" d="M446.262,190.886v2.078h-7.721A.82.82,0,0,1,439,191.85c.794-.288,3.217-.71,3.822-1.555a1,1,0,0,0,1.136.456C444.729,190.548,445.372,189.8,446.262,190.886Z" transform="translate(-438.469 -190.295)" fill="#2e3e52"/>
              </g>
            </g>
          </g>
        </g>
        <g id="Group_50050" data-name="Group 50050" transform="translate(2.803 50.195)">
          <g id="Group_50049" data-name="Group 50049">
            <g id="Group_50048" data-name="Group 50048">
              <path id="Path_67342" data-name="Path 67342" d="M449.552,186.461l-6.862-.5v-2.025l6.862.342Z" transform="translate(-442.69 -183.936)" fill="#2e3e52"/>
            </g>
          </g>
        </g>
        <g id="Group_50053" data-name="Group 50053" transform="translate(16.715 50.195)">
          <g id="Group_50052" data-name="Group 50052">
            <g id="Group_50051" data-name="Group 50051">
              <path id="Path_67343" data-name="Path 67343" d="M463.641,186.461l6.2-.5v-2.025l-6.2.342Z" transform="translate(-463.641 -183.936)" fill="#2e3e52"/>
            </g>
          </g>
        </g>
        <g id="Group_50055" data-name="Group 50055" transform="translate(3.67)">
          <g id="Group_50054" data-name="Group 50054">
            <path id="Path_67344" data-name="Path 67344" d="M450.542,137.654l1.87-19.529,1.556.14,1.767,19.389h7.012l-.542-29.306H444.762l-.767,29.306Z" transform="translate(-443.995 -108.348)" fill="#2e3e52"/>
          </g>
        </g>
        <g id="Group_50057" data-name="Group 50057" transform="translate(15.409 29.14)">
          <g id="Group_50056" data-name="Group 50056">
            <path id="Path_67345" data-name="Path 67345" d="M461.674,152.4l2.175,21.753,4.833-.4V152.23Z" transform="translate(-461.674 -152.23)" fill="#2e3e52"/>
          </g>
        </g>
        <g id="Group_50059" data-name="Group 50059" transform="translate(3.67 28.846)">
          <g id="Group_50058" data-name="Group 50058">
            <path id="Path_67346" data-name="Path 67346" d="M443.995,151.786l.227,21.543,4.971.3,1.35-21.844Z" transform="translate(-443.995 -151.786)" fill="#2e3e52"/>
          </g>
        </g>
      </g>
      <g id="Group_50063" data-name="Group 50063" transform="translate(0 40.66)">
        <g id="Group_50062" data-name="Group 50062">
          <g id="Group_50061" data-name="Group 50061">
            <path id="Path_67347" data-name="Path 67347" d="M429.59,116.3l-.3.709-.957,1.491-.85.23a.508.508,0,0,0-.269.177l-.764.975a.189.189,0,0,0,0,.284.194.194,0,0,0,.252-.017l.276-.242-.541,1.024a.131.131,0,0,0,.026.151.14.14,0,0,0,.145.033c-.071.145-.142.289-.212.434a.19.19,0,0,0,.29.211l1.026-1.175.663-.254-.661.627L426.9,122a.138.138,0,0,0,.005.145.155.155,0,0,0,.179.054l2.5-1.7.826-.621.117.128-.162.644a1.315,1.315,0,0,0,0,.65.545.545,0,0,0,.581.4l.035-.9s.279-1.019.29-1.055.419-1.607.419-1.607l.446-1.031Z" transform="translate(-426.384 -116.297)" fill="#ffcec8"/>
          </g>
        </g>
      </g>
      <g id="Group_50066" data-name="Group 50066" transform="translate(10.926 10.687)">
        <g id="Group_50065" data-name="Group 50065">
          <g id="Group_50064" data-name="Group 50064">
            <path id="Path_67348" data-name="Path 67348" d="M442.837,78.374c.031,5.877.174,14.759.726,18.986,0,0,18.21,1.013,19.351-1.159a82.355,82.355,0,0,1-1.375-12.113,29.26,29.26,0,0,0-2.286-10.07,3.813,3.813,0,0,0-2.662-2.254l-2.718-.6h0a1.314,1.314,0,0,1-1.171,1.077,13.72,13.72,0,0,1-4.315-.976l-.366.093A7.107,7.107,0,0,0,442.837,78.374Z" transform="translate(-442.837 -71.161)" fill="#a479b4"/>
          </g>
        </g>
      </g>
      <g id="Group_50068" data-name="Group 50068" transform="translate(2.199 28.461)">
        <g id="Group_50067" data-name="Group 50067">
          <path id="Path_67349" data-name="Path 67349" d="M434.13,97.927,439.191,102c-1.719,3.324-5.56,10.84-5.56,10.84l-3.935-2.106Z" transform="translate(-429.696 -97.927)" fill="#8a50a0"/>
        </g>
      </g>
      <g id="Group_50070" data-name="Group 50070" transform="translate(6.513 10.788)">
        <g id="Group_50069" data-name="Group 50069">
          <path id="Path_67350" data-name="Path 67350" d="M448.822,109.555l-2.667-38.242-1.438.366a5.675,5.675,0,0,0-3.891,3.625l-4.634,13.97,3.28,3.341.331,18.377,7.149.567A1.8,1.8,0,0,0,448.822,109.555Z" transform="translate(-436.192 -71.313)" fill="#8a50a0"/>
        </g>
      </g>
      <g id="Group_50072" data-name="Group 50072" transform="translate(21.961 10.687)">
        <g id="Group_50071" data-name="Group 50071">
          <path id="Path_67351" data-name="Path 67351" d="M459.455,71.161l4.938,38.439a1.72,1.72,0,0,0,2.53,1.157l5.678-3.315-4.978-21.218-3.644-14.478A26.067,26.067,0,0,0,459.455,71.161Z" transform="translate(-459.455 -71.161)" fill="#8a50a0"/>
        </g>
      </g>
      <g id="Group_50074" data-name="Group 50074" transform="translate(10.475 18.946)">
        <g id="Group_50073" data-name="Group 50073">
          <path id="Path_67352" data-name="Path 67352" d="M442.424,97.575h-.008a.267.267,0,0,1-.258-.274l.39-13.446a.266.266,0,0,1,.531.015l-.39,13.446A.266.266,0,0,1,442.424,97.575Z" transform="translate(-442.158 -83.597)" fill="#e34934"/>
        </g>
      </g>
      <g id="Group_50076" data-name="Group 50076" transform="translate(10.275 18.129)">
        <g id="Group_50075" data-name="Group 50075" transform="translate(0 0)">
          <rect id="Rectangle_21786" data-name="Rectangle 21786" width="6.209" height="9.511" rx="0.894" transform="matrix(-0.988, 0.152, -0.152, -0.988, 7.579, 9.401)" fill="#2e3e52"/>
        </g>
      </g>
      <g id="Group_50078" data-name="Group 50078" transform="translate(14.02 22.29)">
        <g id="Group_50077" data-name="Group 50077">
          <path id="Path_67353" data-name="Path 67353" d="M452.632,90.464a1.3,1.3,0,0,0-.744-.93l-1.376-.9.124.807s-1.723-.788-2.729-.315.009,2.307,1.192,2.555l1.736.663,3.183.4Z" transform="translate(-447.497 -88.634)" fill="#ffcec8"/>
        </g>
      </g>
      <g id="Group_50080" data-name="Group 50080" transform="translate(18.165 11.273)">
        <g id="Group_50079" data-name="Group 50079">
          <path id="Path_67354" data-name="Path 67354" d="M454.559,83.691,464.8,85.486a61.079,61.079,0,0,1-3.371-12.134c-.08-.421.624-.889.632-1.309l.732.109a4.261,4.261,0,0,1,3.2,2.333l5.754,11.7a3.555,3.555,0,0,1-1.3,3.839,4.255,4.255,0,0,1-3.413.7L453.738,87.9Z" transform="translate(-453.738 -72.043)" fill="#8a50a0"/>
        </g>
      </g>
      <g id="Group_50082" data-name="Group 50082" transform="translate(23.668 14.327)">
        <g id="Group_50081" data-name="Group 50081">
          <path id="Path_67355" data-name="Path 67355" d="M468.318,87.663a.268.268,0,0,1-.051-.005L462.24,86.48a.266.266,0,1,1,.1-.522l5.554,1.086L464.015,77a.266.266,0,1,1,.5-.191L468.566,87.3a.265.265,0,0,1-.248.361Z" transform="translate(-462.026 -76.641)" fill="#e34934"/>
        </g>
      </g>
      <g id="Group_50084" data-name="Group 50084" transform="translate(24.536 28.271)">
        <g id="Group_50083" data-name="Group 50083">
          <path id="Path_67356" data-name="Path 67356" d="M469.242,99.372a.229.229,0,0,1-.055-.006l-5.644-1.2a.266.266,0,0,1,.11-.52l5.644,1.2a.265.265,0,0,1-.055.525Z" transform="translate(-463.332 -97.641)" fill="#e34934"/>
        </g>
      </g>
      <g id="Group_50086" data-name="Group 50086" transform="translate(16.328 8.835)">
        <g id="Group_50085" data-name="Group 50085">
          <path id="Path_67357" data-name="Path 67357" d="M451.119,70.325l-.148-.86,5.34-1.093.293,1.853h0l.233,3.4-3.045.351-2.014-.587-.5-.748Z" transform="translate(-450.972 -68.371)" fill="#a479b4"/>
        </g>
      </g>
    </g>
    <g id="Group_50190" data-name="Group 50190" transform="translate(343.962 72.357)">
      <g id="Group_50089" data-name="Group 50089" transform="translate(14.922 66.849)">
        <g id="Group_50088" data-name="Group 50088">
          <circle id="Ellipse_2433" data-name="Ellipse 2433" cx="1.599" cy="1.599" r="1.599" fill="#426bff"/>
        </g>
      </g>
      <g id="Group_50091" data-name="Group 50091" transform="translate(16.337 66.745)">
        <g id="Group_50090" data-name="Group 50090">
          <path id="Path_67358" data-name="Path 67358" d="M381.678,190.115H368.9a.332.332,0,0,1,0-.664h12.782a.332.332,0,0,1,0,.664Z" transform="translate(-368.564 -189.451)" fill="#426bff"/>
        </g>
      </g>
      <g id="Group_50093" data-name="Group 50093" transform="translate(22.563 39.571)">
        <g id="Group_50092" data-name="Group 50092">
          <path id="Path_67359" data-name="Path 67359" d="M378.272,176a.332.332,0,0,1-.332-.332V148.861a.332.332,0,0,1,.664,0v26.807A.332.332,0,0,1,378.272,176Z" transform="translate(-377.94 -148.529)" fill="#426bff"/>
        </g>
      </g>
      <g id="Group_50095" data-name="Group 50095" transform="translate(27.806 66.85)">
        <g id="Group_50094" data-name="Group 50094">
          <path id="Path_67360" data-name="Path 67360" d="M389.035,191.207a1.6,1.6,0,1,1-1.6-1.6A1.6,1.6,0,0,1,389.035,191.207Z" transform="translate(-385.836 -189.608)" fill="#426bff"/>
        </g>
      </g>
      <g id="Group_50097" data-name="Group 50097" transform="translate(13.018 41.77)">
        <g id="Group_50096" data-name="Group 50096">
          <path id="Path_67361" data-name="Path 67361" d="M364.111,153.83H383.82v-1.99H363.566Z" transform="translate(-363.566 -151.84)" fill="#3661ff"/>
        </g>
      </g>
      <g id="Group_50099" data-name="Group 50099" transform="translate(6.091 18.384)">
        <g id="Group_50098" data-name="Group 50098">
          <path id="Path_67362" data-name="Path 67362" d="M360.077,140.009l-6.941-23.386h21.686l-4.6,23.386Z" transform="translate(-353.135 -116.623)" fill="#426bff"/>
        </g>
      </g>
      <g id="Group_50106" data-name="Group 50106" transform="translate(36.308 60.511)">
        <g id="Group_50101" data-name="Group 50101" transform="translate(1.485 4.456)">
          <g id="Group_50100" data-name="Group 50100">
            <path id="Path_67363" data-name="Path 67363" d="M401.769,186.774l2.157,3.9,1.382.064.928.57a.37.37,0,0,1,.175.283h0a.271.271,0,0,1-.286.3l-2.441-.118-1.678-2.7s-.359-.251-.4.114c-.03.289.1,1.683.163,2.251a.194.194,0,0,1-.195.231h0a.26.26,0,0,1-.228-.236l-.282-2.555S400.321,187.137,401.769,186.774Z" transform="translate(-400.876 -186.774)" fill="#ff6652"/>
          </g>
        </g>
        <g id="Group_50103" data-name="Group 50103" transform="translate(2.379 2.61)">
          <g id="Group_50102" data-name="Group 50102">
            <path id="Path_67364" data-name="Path 67364" d="M404.379,189.745l1.382.064-.718-5.816-2.821,1.846Z" transform="translate(-402.221 -183.993)" fill="#ffcdc7"/>
          </g>
        </g>
        <g id="Group_50105" data-name="Group 50105">
          <g id="Group_50104" data-name="Group 50104">
            <path id="Path_67365" data-name="Path 67365" d="M403.839,182.673l-.255-2.423-4.945-.187,2.379,4.456Z" transform="translate(-398.639 -180.063)" fill="#ffcdc7"/>
          </g>
        </g>
      </g>
      <g id="Group_50113" data-name="Group 50113" transform="translate(22.463 58.497)">
        <g id="Group_50108" data-name="Group 50108" transform="translate(0 4.988)">
          <g id="Group_50107" data-name="Group 50107">
            <path id="Path_67366" data-name="Path 67366" d="M380.529,184.6l-.1,4.46,1.161.752.513.96a.37.37,0,0,1,.009.333h0a.272.272,0,0,1-.4.118l-2.049-1.333-.089-3.176s-.184-.4-.4-.1c-.171.235-.758,1.507-.994,2.027a.2.2,0,0,1-.284.1h0a.261.261,0,0,1-.079-.319l1.045-2.349S379.1,184.185,380.529,184.6Z" transform="translate(-377.789 -184.541)" fill="#ff6652"/>
          </g>
        </g>
        <g id="Group_50110" data-name="Group 50110" transform="translate(2.635 4.875)">
          <g id="Group_50109" data-name="Group 50109">
            <path id="Path_67367" data-name="Path 67367" d="M381.758,189l1.161.752,2.311-5.385-3.367.173Z" transform="translate(-381.758 -184.371)" fill="#ffcdc7"/>
          </g>
        </g>
        <g id="Group_50112" data-name="Group 50112" transform="translate(2.74)">
          <g id="Group_50111" data-name="Group 50111">
            <path id="Path_67368" data-name="Path 67368" d="M385.282,181.9l1-2.221-4.176-2.654-.191,5.048Z" transform="translate(-381.915 -177.03)" fill="#ffcdc7"/>
          </g>
        </g>
      </g>
      <g id="Group_50115" data-name="Group 50115" transform="translate(25.157 32.622)">
        <g id="Group_50114" data-name="Group 50114">
          <path id="Path_67369" data-name="Path 67369" d="M381.846,138.065c2.208.527,4.865,1.12,7.053,1.721,2.1.577,4.4.684,6.431,1.465a4.838,4.838,0,0,1,2.523,2,6.309,6.309,0,0,1,.661,2.445c.331,2.961.257,5.975.416,8.949q.277,5.161.566,10.322.067,1.165.132,2.332l-8.011.254-2.79-23.942Z" transform="translate(-381.846 -138.065)" fill="#8b3ea8"/>
        </g>
      </g>
      <g id="Group_50174" data-name="Group 50174" transform="translate(11.16 0)">
        <g id="Group_50136" data-name="Group 50136" transform="translate(23.423 16.091)">
          <g id="Group_50118" data-name="Group 50118" transform="translate(0 1.445)">
            <g id="Group_50117" data-name="Group 50117">
              <g id="Group_50116" data-name="Group 50116">
                <path id="Path_67370" data-name="Path 67370" d="M398.034,115.346a1.747,1.747,0,0,0,.339.92l.065.058a1.12,1.12,0,0,0,.1.456,6.481,6.481,0,0,1,.24.629l-.208.09c-.025.011-1.08.446-1.08.446l-.683.406-.77-1.748Z" transform="translate(-396.041 -115.346)" fill="#ffcdc7"/>
              </g>
            </g>
          </g>
          <g id="Group_50135" data-name="Group 50135" transform="translate(0.377)">
            <g id="Group_50120" data-name="Group 50120" transform="translate(0.412)">
              <g id="Group_50119" data-name="Group 50119">
                <path id="Path_67371" data-name="Path 67371" d="M397.228,115.375l.957-.765,1.1-1.44h0a.333.333,0,0,1,.269.372l-.108.469a.506.506,0,0,0,.5.568h.013Z" transform="translate(-397.228 -113.17)" fill="#ffcdc7"/>
              </g>
            </g>
            <g id="Group_50122" data-name="Group 50122" transform="translate(0 1.119)">
              <g id="Group_50121" data-name="Group 50121">
                <path id="Path_67372" data-name="Path 67372" d="M397.911,115.862l.092-.342,1.018-.4.154.135,1.168-.405a.514.514,0,0,1,.224.217.488.488,0,0,1,.021.377l-.242.094a.343.343,0,0,1,.272.155.291.291,0,0,1-.071.331.376.376,0,0,1,.246.144.352.352,0,0,1-.033.371l-.254.1a.274.274,0,0,1,.255.151.282.282,0,0,1-.13.321l-1.073.244-2.95.843Z" transform="translate(-396.608 -114.855)" fill="#ffcdc7"/>
              </g>
            </g>
            <g id="Group_50125" data-name="Group 50125" transform="translate(2.437 1.674)">
              <g id="Group_50123" data-name="Group 50123" transform="translate(0.133 0.133)">
                <path id="Path_67373" data-name="Path 67373" d="M401.647,115.891l-.909.353h0a.349.349,0,0,0-.211.509l.1.168.092-.088.563-.236Z" transform="translate(-400.478 -115.891)" fill="#ffcdc7"/>
              </g>
              <g id="Group_50124" data-name="Group 50124">
                <path id="Path_67374" data-name="Path 67374" d="M400.561,116.987h-.018a.135.135,0,0,1-.1-.064l-.1-.169a.451.451,0,0,1-.044-.384.534.534,0,0,1,.32-.316l.909-.354a.133.133,0,0,1,.1.248l-.909.353a.273.273,0,0,0-.165.155.187.187,0,0,0,.02.161l.018.03.01,0,.563-.236a.133.133,0,0,1,.1.245l-.54.226-.074.071A.132.132,0,0,1,400.561,116.987Z" transform="translate(-400.277 -115.69)" fill="#ff9284"/>
              </g>
            </g>
            <g id="Group_50128" data-name="Group 50128" transform="translate(2.545 2.16)">
              <g id="Group_50126" data-name="Group 50126" transform="translate(0.133 0.133)">
                <path id="Path_67375" data-name="Path 67375" d="M401.9,116.623l-1.025.4c-.191.074-.288.26-.209.4h0a.333.333,0,0,0,.409.1l.784-.289Z" transform="translate(-400.641 -116.623)" fill="#ffcdc7"/>
              </g>
              <g id="Group_50127" data-name="Group 50127">
                <path id="Path_67376" data-name="Path 67376" d="M400.859,117.618a.418.418,0,0,1-.374-.2.356.356,0,0,1-.021-.3.5.5,0,0,1,.3-.29l1.025-.4a.133.133,0,0,1,.1.248l-1.025.4a.249.249,0,0,0-.145.132.091.091,0,0,0,0,.078.21.21,0,0,0,.248.044l.784-.289a.133.133,0,0,1,.092.249l-.783.289A.57.57,0,0,1,400.859,117.618Z" transform="translate(-400.441 -116.423)" fill="#ff9284"/>
              </g>
            </g>
            <g id="Group_50131" data-name="Group 50131" transform="translate(2.737 3.016)">
              <g id="Group_50129" data-name="Group 50129" transform="translate(0.133 0.133)">
                <path id="Path_67377" data-name="Path 67377" d="M401.3,117.913l-.236.087a.169.169,0,0,0-.124.2h0a.206.206,0,0,0,.114.112.323.323,0,0,0,.2.015Z" transform="translate(-400.93 -117.913)" fill="#ffcdc7"/>
              </g>
              <g id="Group_50130" data-name="Group 50130">
                <path id="Path_67378" data-name="Path 67378" d="M401.106,118.405a.449.449,0,0,1-.174-.035.343.343,0,0,1-.186-.187.259.259,0,0,1,.007-.2.34.34,0,0,1,.195-.176l.237-.087a.133.133,0,1,1,.092.249l-.237.087a.071.071,0,0,0-.044.038.09.09,0,0,0,.042.032.2.2,0,0,0,.121.007.133.133,0,0,1,.058.26A.519.519,0,0,1,401.106,118.405Z" transform="translate(-400.73 -117.712)" fill="#ff9284"/>
              </g>
            </g>
            <g id="Group_50134" data-name="Group 50134" transform="translate(2.084 1.087)">
              <g id="Group_50132" data-name="Group 50132" transform="translate(0.132 0.132)">
                <path id="Path_67379" data-name="Path 67379" d="M401.115,115.006l-1.169.435.061.129a.658.658,0,0,0,.752.3l.389-.141Z" transform="translate(-399.946 -115.006)" fill="#ffcdc7"/>
              </g>
              <g id="Group_50133" data-name="Group 50133">
                <path id="Path_67380" data-name="Path 67380" d="M400.515,115.955a.761.761,0,0,1-.7-.4l-.06-.128a.133.133,0,0,1,0-.107.132.132,0,0,1,.076-.074l1.169-.435a.133.133,0,0,1,.093.249l-1.034.385a.527.527,0,0,0,.6.225l.377-.138a.133.133,0,0,1,.091.25l-.39.142A.876.876,0,0,1,400.515,115.955Z" transform="translate(-399.747 -114.807)" fill="#ff9284"/>
              </g>
            </g>
          </g>
        </g>
        <g id="Group_50138" data-name="Group 50138" transform="translate(12.089 18.568)">
          <g id="Group_50137" data-name="Group 50137">
            <path id="Path_67381" data-name="Path 67381" d="M383.2,119.212l.262,1.189,6.7-3.5,1.472,2.33-6.838,5.439a3.922,3.922,0,0,1-4.895-.008l-.927-.822,2.872-4.159a1.969,1.969,0,0,0,.483-1.61l-.048-.2Z" transform="translate(-378.974 -116.9)" fill="#384b61"/>
          </g>
        </g>
        <g id="Group_50140" data-name="Group 50140" transform="translate(5.344 4.988)">
          <g id="Group_50139" data-name="Group 50139">
            <path id="Path_67382" data-name="Path 67382" d="M373.731,104.243s2.724,0,1.974-5.37l-2.29-2.369s-3.211-.815-3.606,3.869a.75.75,0,0,0-.97.56c-.162.782.523,1.124,1.181,1.1l-.079,4.579h0a3.183,3.183,0,0,0,2.106,2.624,3.29,3.29,0,0,0,2.28-.119c.663-.284,1.946-1.051,1.889-2.078l-2.275-.1Z" transform="translate(-368.816 -96.45)" fill="#ffcdc7"/>
          </g>
        </g>
        <g id="Group_50142" data-name="Group 50142" transform="translate(0.093 14.933)">
          <g id="Group_50141" data-name="Group 50141">
            <path id="Path_67383" data-name="Path 67383" d="M367.28,111.463a1.365,1.365,0,0,0-.324-.037,19.445,19.445,0,0,0-4.34.381c-.824.805-1.707,1.457-1.707,2.609l3.325,4.355s-1.985,2.055.663,1.022l.393,7.142c3.631,0,5.994-.023,9-.037l2.358-6.776a4.875,4.875,0,0,0,.11-2.734l.377-.014c-.258-.674-.525-1.346-.758-2.029a9.472,9.472,0,0,0-1.715-3.023,2.312,2.312,0,0,0-.713-.594,1.687,1.687,0,0,0-1.3.031c-.3.112-.242.52-.289.774a1.117,1.117,0,0,1-.586.823,2.371,2.371,0,0,1-1.168.207,4.741,4.741,0,0,1-2.076-.467,2.437,2.437,0,0,1-1.193-1.542A.184.184,0,0,0,367.28,111.463Z" transform="translate(-360.909 -111.426)" fill="#384b61"/>
          </g>
        </g>
        <g id="Group_50144" data-name="Group 50144" transform="translate(5.121 3.505)">
          <g id="Group_50143" data-name="Group 50143">
            <path id="Path_67384" data-name="Path 67384" d="M369.7,99.624a4.257,4.257,0,0,0,3.632-2.527,2.781,2.781,0,0,0,2.3,1.329c.252.025-.2-2.741-.309-2.937-1.261-2.254-6.756-1.349-6.842,1.423l.246,3.271A.737.737,0,0,1,369.7,99.624Z" transform="translate(-368.481 -94.217)" fill="#384b61"/>
          </g>
        </g>
        <g id="Group_50146" data-name="Group 50146" transform="translate(12.545 16.336)">
          <g id="Group_50145" data-name="Group 50145">
            <path id="Path_67385" data-name="Path 67385" d="M381.553,125.006A.2.2,0,0,1,381.5,125a.2.2,0,0,1-.135-.247c.014-.048,1.4-4.8,1.643-5.57.1-.317-.2-.829-.316-.983l-2.994-4.347a.2.2,0,0,1,.328-.226l2.99,4.342a1.785,1.785,0,0,1,.372,1.332c-.237.764-1.626,5.516-1.64,5.563A.2.2,0,0,1,381.553,125.006Z" transform="translate(-379.661 -113.54)" fill="#212b38"/>
          </g>
        </g>
        <g id="Group_50148" data-name="Group 50148" transform="translate(3.882 19.145)">
          <g id="Group_50147" data-name="Group 50147">
            <path id="Path_67386" data-name="Path 67386" d="M366.813,122.123a.2.2,0,0,1-.2-.2v-3.955a.2.2,0,1,1,.4,0v3.955A.2.2,0,0,1,366.813,122.123Z" transform="translate(-366.614 -117.769)" fill="#194bff"/>
          </g>
        </g>
        <g id="Group_50150" data-name="Group 50150" transform="translate(7.983 11.701)">
          <g id="Group_50149" data-name="Group 50149">
            <path id="Path_67387" data-name="Path 67387" d="M375.067,107.639a2.713,2.713,0,0,1-2.276-1.08,2.744,2.744,0,0,0,2.363,1.913Z" transform="translate(-372.791 -106.559)" fill="#ff887a"/>
          </g>
        </g>
        <g id="Group_50152" data-name="Group 50152" transform="translate(1.373)">
          <g id="Group_50151" data-name="Group 50151">
            <path id="Path_67388" data-name="Path 67388" d="M368.8,91.919a2.98,2.98,0,1,1-2.98-2.98A2.98,2.98,0,0,1,368.8,91.919Z" transform="translate(-362.837 -88.939)" fill="#384b61"/>
          </g>
        </g>
        <g id="Group_50165" data-name="Group 50165" transform="translate(1.566 21.321)">
          <g id="Group_50160" data-name="Group 50160" transform="translate(14.747 1.815)">
            <g id="Group_50154" data-name="Group 50154">
              <g id="Group_50153" data-name="Group 50153">
                <path id="Path_67389" data-name="Path 67389" d="M386.086,127.464l.641-.21,1.565-.121.618.446a.47.47,0,0,0,.268.089l1.1.012a.167.167,0,0,0,.2-.141.165.165,0,0,0-.147-.158l-.319-.06,1.011-.161a.111.111,0,0,0,.039-.206l.42-.079a.155.155,0,0,0-.007-.3l-1.377-.085-.534-.309.8.12,1.173.006a.121.121,0,0,0,.1-.077.125.125,0,0,0-.057-.146l-2.535-.793-.88-.232.027-.142.541-.218a1.172,1.172,0,0,0,.456-.331.435.435,0,0,0-.027-.588l-.655.433-.9.342c-.032.011-1.358.536-1.358.536l-.909.175Z" transform="translate(-385.335 -123.78)" fill="#ffcdc7"/>
              </g>
            </g>
            <g id="Group_50159" data-name="Group 50159" transform="translate(3.341 2.798)">
              <g id="Group_50156" data-name="Group 50156" transform="translate(0.185)">
                <g id="Group_50155" data-name="Group 50155">
                  <path id="Path_67390" data-name="Path 67390" d="M391.675,128.472a.058.058,0,0,1-.022,0l-.964-.345a.067.067,0,0,1-.041-.085.066.066,0,0,1,.085-.04l.952.341,1.159-.035a.07.07,0,0,1,.068.064.067.067,0,0,1-.064.068l-1.172.035Z" transform="translate(-390.645 -127.994)" fill="#ff887a"/>
                </g>
              </g>
              <g id="Group_50158" data-name="Group 50158" transform="translate(0 0.384)">
                <g id="Group_50157" data-name="Group 50157">
                  <path id="Path_67391" data-name="Path 67391" d="M391.636,128.984h0l-.5-.028a.058.058,0,0,1-.019,0l-.7-.252a.066.066,0,1,1,.044-.125l.691.248.493.027a.066.066,0,0,1,.062.07A.067.067,0,0,1,391.636,128.984Z" transform="translate(-390.367 -128.572)" fill="#ff887a"/>
                </g>
              </g>
            </g>
          </g>
          <g id="Group_50162" data-name="Group 50162" transform="translate(4.685 2.941)">
            <g id="Group_50161" data-name="Group 50161">
              <path id="Path_67392" data-name="Path 67392" d="M381.135,128.254l-.967-2.778-9.986,1.567,1.063,4.29Z" transform="translate(-370.182 -125.476)" fill="#384b61"/>
            </g>
          </g>
          <g id="Group_50164" data-name="Group 50164">
            <g id="Group_50163" data-name="Group 50163">
              <path id="Path_67393" data-name="Path 67393" d="M366.115,121.517c-.314-.041-.584-.126-.894-.188a1.982,1.982,0,0,0-2.094.5l3.952,6.765a2.123,2.123,0,0,0,2.77.833l1.992-.981-3.105-7.4A4.474,4.474,0,0,1,366.115,121.517Z" transform="translate(-363.127 -121.047)" fill="#384b61"/>
            </g>
          </g>
        </g>
        <g id="Group_50167" data-name="Group 50167" transform="translate(0 15.158)">
          <g id="Group_50166" data-name="Group 50166">
            <path id="Path_67394" data-name="Path 67394" d="M362.886,119.659l-1.321-2.142a5.02,5.02,0,0,1-.789-2.9,2.743,2.743,0,0,1,1.793-2.7,3.264,3.264,0,0,1,4,1.849l2.216,5.889Z" transform="translate(-360.769 -111.765)" fill="#384b61"/>
          </g>
        </g>
        <g id="Group_50169" data-name="Group 50169" transform="translate(5.793 17.461)">
          <g id="Group_50168" data-name="Group 50168">
            <path id="Path_67395" data-name="Path 67395" d="M372.5,123.255a.2.2,0,0,1-.187-.133l-.906-2.558-1.9-5.061a.2.2,0,1,1,.373-.14l1.905,5.065.908,2.562a.2.2,0,0,1-.122.254A.211.211,0,0,1,372.5,123.255Z" transform="translate(-369.492 -115.233)" fill="#212b38"/>
          </g>
        </g>
        <g id="Group_50171" data-name="Group 50171" transform="translate(8.73 24.064)">
          <g id="Group_50170" data-name="Group 50170">
            <path id="Path_67396" data-name="Path 67396" d="M374.114,126.816a.2.2,0,0,1-.033-.4l7.307-1.242a.2.2,0,1,1,.067.393l-7.307,1.242A.205.205,0,0,1,374.114,126.816Z" transform="translate(-373.915 -125.176)" fill="#212b38"/>
          </g>
        </g>
        <g id="Group_50173" data-name="Group 50173" transform="translate(4.398 26.465)">
          <g id="Group_50172" data-name="Group 50172">
            <path id="Path_67397" data-name="Path 67397" d="M370.951,131.851a3.29,3.29,0,0,1-2.8-1.562l-.733-1.193a.2.2,0,0,1,.339-.209l.733,1.193a2.889,2.889,0,0,0,3.05,1.311l5.279-1.114a.2.2,0,1,1,.082.39l-5.279,1.114A3.285,3.285,0,0,1,370.951,131.851Z" transform="translate(-367.391 -128.793)" fill="#212b38"/>
          </g>
        </g>
      </g>
      <g id="Group_50176" data-name="Group 50176" transform="translate(13.611 32.904)">
        <g id="Group_50175" data-name="Group 50175">
          <path id="Path_67398" data-name="Path 67398" d="M386.765,142.927l-10.236-4.438H366.194s-3.907,5.973.007,8.8h5.136c0,.02,0,.039,0,.059H382.33l-8.236,16.475,8.032,4.607,7.854-16.72a6.385,6.385,0,0,0-3.215-8.787Z" transform="translate(-364.46 -138.489)" fill="#8a50a0"/>
        </g>
      </g>
      <g id="Group_50178" data-name="Group 50178" transform="translate(0 30.363)">
        <g id="Group_50177" data-name="Group 50177">
          <rect id="Rectangle_21787" data-name="Rectangle 21787" width="53.431" height="2.76" rx="1.38" fill="#fda74c"/>
        </g>
      </g>
      <g id="Group_50180" data-name="Group 50180" transform="translate(45.214 32.979)">
        <g id="Group_50179" data-name="Group 50179">
          <path id="Path_67399" data-name="Path 67399" d="M418.611,176.049a.332.332,0,0,1-.327-.276l-6.228-36.783a.332.332,0,1,1,.655-.111l6.229,36.783a.332.332,0,0,1-.272.382A.315.315,0,0,1,418.611,176.049Z" transform="translate(-412.051 -138.602)" fill="#426bff"/>
        </g>
      </g>
      <g id="Group_50182" data-name="Group 50182" transform="translate(0.597 32.979)">
        <g id="Group_50181" data-name="Group 50181">
          <path id="Path_67400" data-name="Path 67400" d="M345.194,176.049a.321.321,0,0,1-.056,0,.332.332,0,0,1-.272-.382l6.228-36.783a.332.332,0,1,1,.655.111l-6.228,36.783A.332.332,0,0,1,345.194,176.049Z" transform="translate(-344.862 -138.602)" fill="#426bff"/>
        </g>
      </g>
      <g id="Group_50189" data-name="Group 50189" transform="translate(25.171 19.956)">
        <g id="Group_50184" data-name="Group 50184" transform="translate(0 9.244)">
          <g id="Group_50183" data-name="Group 50183">
            <path id="Path_67401" data-name="Path 67401" d="M381.868,134.074h6.1v-1.163h-4.937a1.163,1.163,0,0,0-1.163,1.163Z" transform="translate(-381.868 -132.911)" fill="#2d57f0"/>
          </g>
        </g>
        <g id="Group_50186" data-name="Group 50186" transform="translate(5.362)">
          <g id="Group_50185" data-name="Group 50185">
            <path id="Path_67402" data-name="Path 67402" d="M389.943,129.4h17.6l2.8-8.819a1.219,1.219,0,0,0-1.161-1.587H394.134a1.218,1.218,0,0,0-1.161.851Z" transform="translate(-389.943 -118.991)" fill="#2d57f0"/>
          </g>
        </g>
        <g id="Group_50188" data-name="Group 50188" transform="translate(15.826 4.236)">
          <g id="Group_50187" data-name="Group 50187">
            <path id="Path_67403" data-name="Path 67403" d="M407.385,126.782a.894.894,0,1,1-.274-1.3A.944.944,0,0,1,407.385,126.782Z" transform="translate(-405.7 -125.37)" fill="#7895ff"/>
          </g>
        </g>
      </g>
    </g>
  </g>
</svg>
