<svg xmlns="http://www.w3.org/2000/svg" xmlns:xlink="http://www.w3.org/1999/xlink" width="66" height="66" viewBox="0 0 66 66">
  <defs>
    <clipPath id="clip-path">
      <rect id="Rectangle_21774" data-name="Rectangle 21774" width="66" height="66" transform="translate(798 536)" fill="#8a50a0" stroke="#707070" stroke-width="1"/>
    </clipPath>
  </defs>
  <g id="Mask_Group_55" data-name="Mask Group 55" transform="translate(-798 -536)" clip-path="url(#clip-path)">
    <g id="communicate" transform="translate(767.102 509.638)">
      <path id="Path_67112" data-name="Path 67112" d="M44.635,75.264V68.952a1.227,1.227,0,0,0-1.227-1.227h-5.1a4.99,4.99,0,0,1-4.984-4.984V40.252a4.99,4.99,0,0,1,4.984-4.984h34.6A4.99,4.99,0,0,1,77.9,40.252v22.49a4.99,4.99,0,0,1-4.984,4.984H60.62v2.441H72.913a7.439,7.439,0,0,0,7.424-7.424V40.252a7.439,7.439,0,0,0-7.424-7.424H38.322A7.439,7.439,0,0,0,30.9,40.252v22.49a7.439,7.439,0,0,0,7.424,7.424h3.872v7.667a1.193,1.193,0,0,0,.7,1.1,1.25,1.25,0,0,0,.524.115,1.2,1.2,0,0,0,.779-.281l9.673-7.91V67.789a1.5,1.5,0,0,0-.345.192Z" fill="#8a50a0"/>
      <path id="Path_67113" data-name="Path 67113" d="M90.6,47.663H82.522V50.1H90.6a3.85,3.85,0,0,1,3.846,3.846V72.325A3.85,3.85,0,0,1,90.6,76.172H86.433A1.227,1.227,0,0,0,85.206,77.4v4.69l-6.875-5.635a1.214,1.214,0,0,0-.779-.281H62.32a3.85,3.85,0,0,1-3.846-3.846V53.95A3.85,3.85,0,0,1,62.32,50.1H75.737V47.663H62.32a6.3,6.3,0,0,0-6.287,6.287V72.338a6.3,6.3,0,0,0,6.287,6.287h14.8l8.549,6.99a1.224,1.224,0,0,0,2.006-.933V78.638h2.939A6.3,6.3,0,0,0,96.9,72.351V53.95A6.31,6.31,0,0,0,90.6,47.663Z" fill="#8a50a0"/>
    </g>
  </g>
</svg>
