<svg xmlns="http://www.w3.org/2000/svg" xmlns:xlink="http://www.w3.org/1999/xlink" width="66" height="66" viewBox="0 0 66 66">
  <defs>
    <clipPath id="clip-path">
      <rect id="Rectangle_21775" data-name="Rectangle 21775" width="66" height="66" transform="translate(1250 504)" fill="#8a50a0" stroke="#707070" stroke-width="1"/>
    </clipPath>
  </defs>
  <g id="Mask_Group_57" data-name="Mask Group 57" transform="translate(-1250 -504)" clip-path="url(#clip-path)">
    <g id="strength" transform="translate(1236.183 495.681)">
      <g id="Group_49817" data-name="Group 49817">
        <g id="Group_49815" data-name="Group 49815">
          <path id="Path_67117" data-name="Path 67117" d="M46.817,51.484a17.3,17.3,0,1,1,17.3-17.3A17.312,17.312,0,0,1,46.817,51.484Zm0-32.817A15.512,15.512,0,1,0,62.329,34.178,15.528,15.528,0,0,0,46.817,18.667Z" fill="#8a50a0"/>
        </g>
        <g id="Group_49816" data-name="Group 49816">
          <path id="Path_67118" data-name="Path 67118" d="M50.883,42.639a2.2,2.2,0,0,1-1.023-.254l-2.836-1.493a.419.419,0,0,0-.394,0l-2.836,1.493A2.2,2.2,0,0,1,40.6,40.066l.526-3.164A.4.4,0,0,0,41,36.526l-2.3-2.235a2.211,2.211,0,0,1,1.221-3.765l3.174-.46a.423.423,0,0,0,.319-.225l1.418-2.883a2.2,2.2,0,0,1,3.953,0h0l1.418,2.873a.458.458,0,0,0,.319.235l3.174.46a2.173,2.173,0,0,1,1.775,1.5,2.2,2.2,0,0,1-.554,2.263l-2.291,2.235a.4.4,0,0,0-.122.376l.545,3.164a2.213,2.213,0,0,1-2.169,2.573Zm-4.066-3.577a2.173,2.173,0,0,1,1.023.254l2.836,1.493a.4.4,0,0,0,.441-.028.412.412,0,0,0,.169-.413L50.742,37.2a2.2,2.2,0,0,1,.638-1.953l2.291-2.235a.4.4,0,0,0,.1-.432.42.42,0,0,0-.338-.291l-3.174-.46A2.185,2.185,0,0,1,48.6,30.62l-1.418-2.873a.418.418,0,0,0-.751,0L45.014,30.62a2.2,2.2,0,0,1-1.653,1.2l-3.174.46a.405.405,0,0,0-.338.291.4.4,0,0,0,.1.432l2.3,2.235a2.191,2.191,0,0,1,.629,1.953l-.545,3.164a.412.412,0,0,0,.169.413.406.406,0,0,0,.441.028l2.836-1.493A2.381,2.381,0,0,1,46.817,39.061Z" fill="#8a50a0"/>
        </g>
      </g>
      <g id="Group_49818" data-name="Group 49818">
        <path id="Path_67119" data-name="Path 67119" d="M46.817,60.038c-1.512,0-2.742-1.089-3.831-2.047a6.674,6.674,0,0,0-2.15-1.484,6.82,6.82,0,0,0-2.714.207c-1.465.291-2.977.582-4.235-.141-1.277-.742-1.775-2.207-2.263-3.634a6.722,6.722,0,0,0-1.155-2.413,6.722,6.722,0,0,0-2.413-1.155c-1.427-.479-2.9-.986-3.634-2.263-.723-1.258-.432-2.77-.141-4.235a6.82,6.82,0,0,0,.207-2.714A6.674,6.674,0,0,0,23,38.009c-.958-1.089-2.047-2.329-2.047-3.831S22.047,31.437,23,30.347a6.674,6.674,0,0,0,1.484-2.15,6.82,6.82,0,0,0-.207-2.714c-.291-1.465-.582-2.977.141-4.235.742-1.277,2.207-1.775,3.634-2.263a6.722,6.722,0,0,0,2.413-1.155,6.722,6.722,0,0,0,1.155-2.413c.479-1.427.986-2.9,2.263-3.634,1.258-.723,2.77-.432,4.235-.141a6.82,6.82,0,0,0,2.714.207,6.674,6.674,0,0,0,2.15-1.484c1.089-.958,2.329-2.047,3.831-2.047s2.742,1.089,3.831,2.047A6.674,6.674,0,0,0,52.8,11.85a6.82,6.82,0,0,0,2.714-.207c1.465-.291,2.977-.582,4.235.141,1.277.742,1.775,2.207,2.263,3.634a6.722,6.722,0,0,0,1.155,2.413,6.722,6.722,0,0,0,2.413,1.155c1.427.479,2.9.986,3.634,2.263.723,1.258.432,2.77.141,4.235a6.82,6.82,0,0,0-.207,2.714,6.674,6.674,0,0,0,1.484,2.15c.958,1.089,2.047,2.329,2.047,3.831s-1.089,2.742-2.047,3.84a6.674,6.674,0,0,0-1.484,2.15,6.82,6.82,0,0,0,.207,2.714c.291,1.465.582,2.977-.141,4.235-.742,1.277-2.207,1.775-3.634,2.263a6.722,6.722,0,0,0-2.413,1.155,6.722,6.722,0,0,0-1.155,2.413c-.479,1.427-.986,2.9-2.263,3.634-1.258.723-2.77.432-4.235.141a6.82,6.82,0,0,0-2.714-.207A6.674,6.674,0,0,0,50.648,58C49.568,58.958,48.329,60.038,46.817,60.038Zm-6.657-5.38A4.188,4.188,0,0,1,41.3,54.8a7.6,7.6,0,0,1,2.864,1.869c.892.789,1.822,1.6,2.657,1.6s1.765-.817,2.657-1.6a7.571,7.571,0,0,1,2.864-1.859,7.849,7.849,0,0,1,3.512.178c1.146.225,2.329.451,3,.066.695-.4,1.089-1.549,1.465-2.667a7.884,7.884,0,0,1,1.577-3.1,7.762,7.762,0,0,1,3.1-1.577c1.108-.376,2.263-.77,2.667-1.465.394-.676.16-1.859-.066-3a8,8,0,0,1-.178-3.512,7.8,7.8,0,0,1,1.859-2.864c.789-.892,1.6-1.822,1.6-2.657s-.817-1.765-1.6-2.657A7.711,7.711,0,0,1,67.4,28.695a7.855,7.855,0,0,1,.178-3.512c.225-1.146.46-2.319.066-3-.4-.695-1.549-1.089-2.667-1.465a7.884,7.884,0,0,1-3.1-1.577,7.884,7.884,0,0,1-1.577-3.1c-.376-1.108-.77-2.263-1.465-2.667-.676-.385-1.85-.16-3,.066a8.035,8.035,0,0,1-3.521.178,7.685,7.685,0,0,1-2.864-1.859c-.892-.789-1.822-1.6-2.657-1.6s-1.765.817-2.657,1.6a7.711,7.711,0,0,1-2.864,1.869,7.855,7.855,0,0,1-3.512-.178c-1.136-.225-2.319-.451-3-.066-.695.4-1.089,1.549-1.465,2.667a7.884,7.884,0,0,1-1.577,3.1,7.884,7.884,0,0,1-3.1,1.577c-1.117.376-2.263.77-2.667,1.465-.394.676-.16,1.859.066,3a8.035,8.035,0,0,1,.178,3.521,7.685,7.685,0,0,1-1.859,2.864c-.789.892-1.6,1.822-1.6,2.657s.817,1.765,1.6,2.657a7.571,7.571,0,0,1,1.859,2.864,7.9,7.9,0,0,1-.178,3.521c-.225,1.136-.46,2.319-.066,3,.4.695,1.549,1.089,2.667,1.465a7.884,7.884,0,0,1,3.1,1.577,7.884,7.884,0,0,1,1.577,3.1c.376,1.108.77,2.263,1.465,2.667.676.385,1.859.16,3-.066A10.194,10.194,0,0,1,40.16,54.657Z" fill="#8a50a0"/>
      </g>
      <g id="Group_49819" data-name="Group 49819">
        <path id="Path_67120" data-name="Path 67120" d="M42.291,74.319a1.423,1.423,0,0,1-1.127-.573l-4.075-5.239-6.131,2.526a1.415,1.415,0,0,1-1.5-.235,2.306,2.306,0,0,1-.507-2.319l3.775-13.211a.889.889,0,0,1,1.709.488L30.667,68.948a1.177,1.177,0,0,0-.038.291l6.009-2.479a1.4,1.4,0,0,1,1.7.451l3.991,5.136a1.257,1.257,0,0,0,.113-.291l3.512-13.211a.889.889,0,0,1,1.718.46L44.16,72.516a2.308,2.308,0,0,1-1.587,1.765A.969.969,0,0,1,42.291,74.319Z" fill="#8a50a0"/>
      </g>
      <g id="Group_49820" data-name="Group 49820">
        <path id="Path_67121" data-name="Path 67121" d="M51.343,74.319a1.6,1.6,0,0,1-.291-.028,2.308,2.308,0,0,1-1.587-1.765L45.953,59.315a.889.889,0,1,1,1.718-.46l3.512,13.211a1.256,1.256,0,0,0,.113.291l3.991-5.136a1.42,1.42,0,0,1,1.7-.451L63,69.249a1.309,1.309,0,0,0-.047-.3L59.183,55.765a.889.889,0,0,1,1.709-.488l3.765,13.192a2.328,2.328,0,0,1-.5,2.338,1.412,1.412,0,0,1-1.5.235l-6.131-2.526L52.46,73.756A1.4,1.4,0,0,1,51.343,74.319Z" fill="#8a50a0"/>
      </g>
    </g>
  </g>
</svg>
