<svg xmlns="http://www.w3.org/2000/svg" width="35.953" height="20.291" viewBox="0 0 35.953 20.291">
  <path id="Path_63529" data-name="Path 63529" d="M14.505.039C15.292-.023,18.5.115,18.483,1.4c-.011.9-3.791.277-4.521.379-4.081.566-7.343,3.935-9.154,7.465a15.806,15.806,0,0,0-1.374,11.24,11.137,11.137,0,0,0,2.834,5.352c.12.121,3.254,2.8,3.556,2.066.42-1.027-1.1-3.334-.434-4.708.757-1.563,1.717-1.191,2.667-.074,1.359,1.6,3.093,7.631,1.131,9.073-.867.637-3,1.1-4.063,1.465a28.961,28.961,0,0,1-5.271,1.3c-5.565.714,2.881-4.055,2.878-4.113-.041-.662-2.415-1.928-2.977-2.531A13.4,13.4,0,0,1,.926,23.31,18.9,18.9,0,0,1,.579,12.833C2.362,6.079,6.866.039,14.505.039,15.622-.049,13.565.039,14.505.039Z" transform="translate(0.967 20.291) rotate(-93)" fill="#a67cb7"/>
</svg>
