<svg xmlns="http://www.w3.org/2000/svg" width="109.414" height="130.946" viewBox="0 0 109.414 130.946">
  <g id="Group_50509" data-name="Group 50509" transform="translate(-321.89 -2178.533)">
    <g id="Group_49560" data-name="Group 49560" transform="translate(321.89 2289.604)" opacity="0.179">
      <ellipse id="Ellipse_2430" data-name="Ellipse 2430" cx="54.707" cy="9.937" rx="54.707" ry="9.937" fill="#c8c1e1"/>
    </g>
    <g id="Group_49834" data-name="Group 49834" transform="translate(330.336 2178.533)">
      <path id="Path_67155" data-name="Path 67155" d="M1318.018,1198.129a14.823,14.823,0,0,0,4.16.265,2.533,2.533,0,0,1,1.151.162c.352.17,1.066,1.1.965,1.482a1.506,1.506,0,0,1-1.153.845c-1.082.234-1.638.385-2.72.619a16.038,16.038,0,0,1-4.671.059c-.774-.106-1.248-.24-1.775-.333-.473-.084-1.917-.221-2.18.223-.151.256-.267.567-.676.715a9.4,9.4,0,0,1-3.437.388c-2.37-.15-2.545-.665-2.558-.737a5.618,5.618,0,0,1-.009-1.641c.022-.153.182-.376.22-.525a6.686,6.686,0,0,0,.092-.784,8.216,8.216,0,0,1,.15-1.091c.048-.2.1-.406.155-.608a1.773,1.773,0,0,0,.116-.5c.352-.054.723-.05,1.079-.072l6.446-.412a5.255,5.255,0,0,1,1.48-.085c.38.105.362.225.607.51A5.055,5.055,0,0,0,1318.018,1198.129Z" transform="translate(-1305.058 -1084.729)" fill="#020f17"/>
      <path id="Path_67156" data-name="Path 67156" d="M1380.6,1207.465a1.6,1.6,0,0,0-.447-.417,2.442,2.442,0,0,0-.952-.245c-1.852-.232-3.182.055-4.733-.44a8.847,8.847,0,0,1-2.054-1.122,6.466,6.466,0,0,1-1.526-1.515,6.827,6.827,0,0,1-.52-.745c-.212-.365-.425-.329-.858-.4a24.7,24.7,0,0,0-5.416-.258,4.5,4.5,0,0,0-2.549.737,3.3,3.3,0,0,0-1.111,2.012,10.376,10.376,0,0,0-.213,1.753,2.44,2.44,0,0,0-.287,1.25c-.01.258,0,.517.009.765a.793.793,0,0,0,.112.432.8.8,0,0,0,.444.252,15.282,15.282,0,0,0,4.927.406c.177-.046.335-.471.607-.585a2.373,2.373,0,0,1,1.6.24,10.079,10.079,0,0,0,4.716,1.065c2.751.06,5.463.047,7.809-1.392a2.24,2.24,0,0,0,.756-.613.763.763,0,0,0-.063-.827C1380.779,1207.723,1380.675,1207.56,1380.6,1207.465Z" transform="translate(-1348.586 -1089.662)" fill="#031521"/>
      <path id="Path_67160" data-name="Path 67160" d="M1308.752,987.008c-1.809,7.333-3.612,14.579-2.782,22.692a21.477,21.477,0,0,1,.093,3.577,19.153,19.153,0,0,0,9.968-1.432c-1.051-10.2.568-10.592,2.253-16.007,3.207-10.308,5-20.993,6.779-31.641a71.015,71.015,0,0,1-7.61-.555c-1.3-.165-2.575-.419-3.866-.6-1.243-.174-1.234.351-1.177,1.478a58.07,58.07,0,0,1-1.483,15.162C1310.339,982.426,1309.424,984.285,1308.752,987.008Z" transform="translate(-1305.616 -899.862)" fill="#051c2b"/>
      <path id="Path_67161" data-name="Path 67161" d="M1342.046,1003.228a3.812,3.812,0,0,0,1.384.4,13.545,13.545,0,0,0,9.185-2.692,26.953,26.953,0,0,1-2.253-5.47c-1.293-6.67-.335-13.921.582-20.7,1.179-8.71,2.609-17.421,1.976-26.187q-7.034-.338-14.068-.675c-.251-.012-1.125-1.458-1.312-1.255s-.935,2.636-.522,6.254c.237,2.079,1.39,8.312,1.659,10.389.54,4.167.909,6.037,1.154,10.232.317,5.418.275,10.85.592,16.268a80.714,80.714,0,0,0,.843,8.128A38.747,38.747,0,0,1,1342.046,1003.228Z" transform="translate(-1330.312 -886.868)" fill="#06263b"/>
      <path id="Path_67162" data-name="Path 67162" d="M1385.809,675.009c.015,1.057-.967,1.483-.108,3.024.183.327.31.627.484.957a.867.867,0,0,1,.111.6.614.614,0,0,1-.355.313,1.751,1.751,0,0,1-.364.093c-.493.088-.859.277-.943.788-.043.262-.026.53-.063.793a3.419,3.419,0,0,1-.278.874,1.753,1.753,0,0,0-.272.685,3.119,3.119,0,0,1-.039,1.124c-.168.434-.851.421-1.316.435s-.907-.018-1.372-.021a1.931,1.931,0,0,0-1.42.519,2.877,2.877,0,0,0-.6.693c-.179.278-.441,1.366-.6,1.667-2-1.585-4.706-3.489-7.239-3.809a15.442,15.442,0,0,0,.975-5.017,22.419,22.419,0,0,1,.715-5.073,6.563,6.563,0,0,1,3.029-3.98c1.74-.9,3.824-.651,5.763-.381a3.9,3.9,0,0,1,1.857.451,6.814,6.814,0,0,1,1.024,1.457A8.461,8.461,0,0,1,1385.809,675.009Z" transform="translate(-1357.708 -666.671)" fill="#f8b690"/>
      <path id="Path_67163" data-name="Path 67163" d="M1378.771,669.154a8.832,8.832,0,0,1,.288-2.066,2.969,2.969,0,0,1,1.177-1.675c.127-.08.276-.166.3-.314.035-.185-.138-.334-.274-.465a1.652,1.652,0,0,1-.268-2.02c.355-.707,2.564-1.089,4.468.453a4.679,4.679,0,0,0,.575-3.636c-.248-.785-.905-1.118-1.654-1.46-1.239-.567-4.566-.422-5.888-.25-1.231.16-4.531,1.068-6.186,3.606a5.464,5.464,0,0,0-.809,2.226c-.234,1.929.707,3.253,1.034,5.169a6.741,6.741,0,0,1,.035,1.763c.637-.484,1.787-.286,2.42-2.286.218-.688-.052-1.618.388-2.277a1.6,1.6,0,0,1,1.848-.543,2.066,2.066,0,0,1,1.326,1.783,13.739,13.739,0,0,0,.121,1.715C1377.766,669.167,1378.76,669.329,1378.771,669.154Z" transform="translate(-1356.945 -657.567)" fill="#212c55"/>
      <path id="Path_67164" data-name="Path 67164" d="M1406.743,766.525c.292,1.333,1.025,2.986,1.529,4.939-.285-.278-1.031-.98-1.316-1.258a8.336,8.336,0,0,1-2.988-5.986.433.433,0,0,1,.371-.6,6.93,6.93,0,0,1,1.127-.362c.313-.044.292-.025.438.212a4.8,4.8,0,0,1,.684,1.447C1406.714,765.306,1406.591,766.147,1406.743,766.525Z" transform="translate(-1383.501 -741.391)" fill="#18898d"/>
      <path id="Path_67165" data-name="Path 67165" d="M1379.348,739.2c-.023.064-.66-.047-.73-.082a3.869,3.869,0,0,1-.685-.6q-.68-.609-1.336-1.245a45.129,45.129,0,0,1-5.146-5.977c-.026-.035-.287-.332-.27-.374l.741-1.861a25.919,25.919,0,0,1,4.432,3.129c.938.808,3.1,2.669,3.5,3.832A9.523,9.523,0,0,1,1379.348,739.2Z" transform="translate(-1357.51 -714.277)" fill="#bedfe4"/>
      <path id="Path_67166" data-name="Path 67166" d="M1336.693,733.773c-1.135,4.607-6.131,5.437-7.089,11.932-1.11,7.526,2.86,14.778,1.362,22.167a38.645,38.645,0,0,1-1.818,5.231,23.944,23.944,0,0,0-1.355,6.627c-.051.858-.274,1.882.269,2.548.587.72,1.838.816,2.757.947l14.089,2.02a9.3,9.3,0,0,0,2.566.128,2.516,2.516,0,0,0,1.969-1.045,6.376,6.376,0,0,0,.792-2.714c.517-3.637,1.342-8.576,1.45-12.082.178-5.774-.251-20.468-10.39-32.1A18.009,18.009,0,0,0,1336.693,733.773Z" transform="translate(-1323.022 -718.018)" fill="#0a3c5f"/>
      <path id="Path_67167" data-name="Path 67167" d="M1507.672,865.379a9.726,9.726,0,0,1-1.7-.125,2.063,2.063,0,0,0-1.6.424,2.555,2.555,0,0,0-.588,1.3,11.533,11.533,0,0,0-.46,3.448,1.767,1.767,0,0,0,.145.656.749.749,0,0,0,.5.422,1.152,1.152,0,0,0,.643-.122l2.117-.846a4.164,4.164,0,0,0,1.616-.952,2.615,2.615,0,0,0,.609-1.776,5.176,5.176,0,0,0-.43-1.862C1508.372,865.586,1508.017,865.556,1507.672,865.379Z" transform="translate(-1462.318 -822.307)" fill="#f4a086"/>
      <path id="Path_67168" data-name="Path 67168" d="M1472.523,861.215a1.967,1.967,0,0,1,1.123-.636c.522-.019.933.411,1.373.693.617.4,1.37.522,2.017.868a3.083,3.083,0,0,1,1.551,1.975,2.675,2.675,0,0,1-.622,2.406,7.478,7.478,0,0,0-.92.917c-.213.323-.291.718-.485,1.053a.858.858,0,0,1-.951.484,1.4,1.4,0,0,1-.512-.468,3.873,3.873,0,0,0-2.482-1.17c-.928-.123-1.87-.064-2.8-.142a1.464,1.464,0,0,1-1.251-.6c-.242-.473.048-1.034.331-1.484l2.184-3.484a2.589,2.589,0,0,0,.709.028A1.893,1.893,0,0,0,1472.523,861.215Z" transform="translate(-1434.686 -818.607)" fill="#f8b690"/>
      <path id="Path_67169" data-name="Path 67169" d="M1495.766,862.465a5.068,5.068,0,0,0-.965-1.374,3.466,3.466,0,0,0-1.132-.732,1.556,1.556,0,0,0-.8-.215,1.4,1.4,0,0,0-.807.249,2.355,2.355,0,0,1-1.029.4c-.335.022-.863-.141-.882-.476-.012-.209.388-.41.524-.569a3.123,3.123,0,0,1,2.214-1.167,5.73,5.73,0,0,1,1.3.348c.309.091.66.159.969.25a7.149,7.149,0,0,1,2.328,1.088c.447.344,1.551,1.661.8,2.172C1497.563,862.933,1496.1,863.21,1495.766,862.465Z" transform="translate(-1451.881 -817.023)" fill="#f4a086"/>
      <path id="Path_67170" data-name="Path 67170" d="M1486.976,891.094a4.059,4.059,0,0,0,2.852,1.822.544.544,0,0,0,.5-.053,1.092,1.092,0,0,0,.151-.223.329.329,0,0,0,.052-.178.3.3,0,0,0-.1-.191c-.074-.061-.181-.057-.236-.14a.822.822,0,0,1-.083-.218.67.67,0,0,0-.3-.409c-.2-.109-.425.021-.59-.228a.706.706,0,0,0-.257-.268c-.322-.126-.467.071-.657-.065-.089-.063-.143-.229-.25-.283a.725.725,0,0,0-.31-.088C1487.451,890.545,1486.874,890.693,1486.976,891.094Z" transform="translate(-1449.356 -842.398)" fill="#f4a086"/>
      <path id="Path_67171" data-name="Path 67171" d="M1356.809,774.707c-.835-2.208-1.534-4.508-3.71-5.421a4.362,4.362,0,0,0-5.36,1.07c-1.472,1.648-1.672,3.352-1.31,5.532.414,2.489,3.891,10.292,5.056,12.169,1.183,1.906,1.8,4.422,3.834,5.378,1.638.772,4.077.841,6.007,1.073q1.557.187,3.12.33c.944.088,7.948.511,8.983.669a1.151,1.151,0,0,0,.595-.015,2.006,2.006,0,0,0,.712-.751c.431-.685.759-.981,1.206-3.423.213-1.164.006-2.417-.95-2.719-.107-.034-1.29-.006-1.456-.01-.527-.013-8.516-.628-10.422-1.332-.527-.195-1.977-.487-2.335-.938a11.144,11.144,0,0,1-.844-2.636c-.379-1.569-.877-2.607-1.346-4.152C1358.047,777.749,1357.467,776.45,1356.809,774.707Z" transform="translate(-1337.751 -745.814)" fill="#0c4770"/>
      <path id="Path_67172" data-name="Path 67172" d="M1525.911,772.61a8.475,8.475,0,0,0-1.415,3.49c-.6,2.618-1.351,5.223-2.157,7.747a14.849,14.849,0,0,1-1.744,3.748c-.465.672-2.653,1.213-3.911,1.473-2.167.447-3.721.68-6.62,1.049a5.032,5.032,0,0,1,1.3,3.588,4.362,4.362,0,0,1-2.1,3.445c3.164-.51,6.477-.348,11.165-1.632a24.716,24.716,0,0,0,4.972-1.824,7.4,7.4,0,0,0,1.783-2.946,22.147,22.147,0,0,0,1.612-3.736,42.292,42.292,0,0,0,1.072-10.325q-.03-1.539-.172-3.073c-.047-.511-.1-1.021-.17-1.53-.053-.4-.187-.552-.61-.46C1528.134,771.793,1526.4,772,1525.911,772.61Z" transform="translate(-1467.04 -748.022)" fill="#803f98"/>
      <path id="Path_67173" data-name="Path 67173" d="M1700.622,1199.659a5.591,5.591,0,0,1,.324,1.785c-.068.939-1.049,1.738-1.9,2.143a5.879,5.879,0,0,1-2.839.6c-2.484-.009-2.389-.412-2.6-.557-.383-.263-.378-1.625-.31-2.084.135-.914.443-.979.716-1.737a7.712,7.712,0,0,0,.456-2.755,1.674,1.674,0,0,1,.209-1.052,1.536,1.536,0,0,1,1.271-.387l2.237.017c.586,0,2.2.153,2.26.952.043.527-.041.955,0,1.49A8.7,8.7,0,0,0,1700.622,1199.659Z" transform="translate(-1613.004 -1084.379)" fill="#031521"/>
      <path id="Path_67174" data-name="Path 67174" d="M1580.7,1186.211a5.059,5.059,0,0,1,.008,1.328c-.117.428-3.626,1.01-4.876.7-.282-.07-.4-.456-.689-.5-.966-.147-2.121.62-3.032.973a14.9,14.9,0,0,1-8.7.569,2.084,2.084,0,0,1-1.085-.627c-.295-.378-.07-.907.224-1.286a2.861,2.861,0,0,1,1.32-1.044,14.114,14.114,0,0,1,1.592-.2,8.109,8.109,0,0,0,6.231-3.522c.219-.318.193-.321.554-.457a1.726,1.726,0,0,1,.83-.028l4.192.545,2.128.277c.683.089.742.366.916,1A7.5,7.5,0,0,1,1580.7,1186.211Z" transform="translate(-1509.025 -1073.643)" fill="#031521"/>
      <path id="Path_67175" data-name="Path 67175" d="M1616.9,909.644a2.059,2.059,0,0,1,1.384.271c.421.332.438.936.572,1.455,2.988,11.516.914,21,3.51,31.1,3.014,11.733,1.161,13.163,2.752,27.256a11.2,11.2,0,0,0-5.979-.1c-1.8-7.932-2.813-14.284-4.713-21.1-1.109-3.98-2.951-8.5-4.366-13.025-1.034,10.8.034,9.682-.349,20.222-.122,3.37-.788,6.267-.754,12.1-1.869,1.688-6.446,1.046-8.994-.833.293-.959,1.723-5.49,1.155-14.587a153.363,153.363,0,0,0-1.955-15.671c-1.9-10.776-.283-25.988,1.136-26.531,1.118-.428,2.3.049,3.5,0l4.239-.178Z" transform="translate(-1537.674 -857.523)" fill="#051c2b"/>
      <path id="Path_67176" data-name="Path 67176" d="M1649.755,942.474c-2.6-10.106-.522-19.588-3.51-31.1-.135-.519-.151-1.123-.572-1.455a2.059,2.059,0,0,0-1.384-.271l-.411.017-3.226.136a8.079,8.079,0,0,0-1.555.113,16.513,16.513,0,0,1-3.833.034c-.559-.061-2.21,1.811-2.226,1.95-1.155,10.028,2.755,19.656,3.421,21.513.581,1.62,1.313,3.141,1.864,4.756,1.177,3.446,2.513,6.848,3.491,10.359,1.9,6.821,3.35,17,4.723,21.236,1.472-.837,4.3-.579,5.976.111,0-4.566-.474-7.394-.559-9.907C1651.746,953.784,1651.9,950.815,1649.755,942.474Z" transform="translate(-1565.063 -857.523)" fill="#06263b"/>
      <path id="Path_67177" data-name="Path 67177" d="M1605.937,763.507a17.89,17.89,0,0,1,4.254-.475q2.907-.065,5.815.079a3.124,3.124,0,0,1,2.448.884,3.024,3.024,0,0,1,.425,1.779c.19,9.77-3.591,19.383-2.743,29.118-3.589,1.243-8.525,1.068-14.09-.1a79.149,79.149,0,0,0,.01-16.181c-.239-2.338-.572-4.672-.608-7.026-.029-1.91-.131-5.064,1.381-6.451A7.425,7.425,0,0,1,1605.937,763.507Z" transform="translate(-1540.161 -741.211)" fill="#a2bdc2"/>
      <path id="Path_67178" data-name="Path 67178" d="M1613.791,765.112a6.565,6.565,0,0,0,.593,1.623c-.738,1.537-2.207,9.263-2.424,10.784a78.608,78.608,0,0,0-.9,12.318,5.328,5.328,0,0,0,2.16,5.363,8.113,8.113,0,0,0,2.258-2.8,4.371,4.371,0,0,0,.144-2.35c-.229-4.069.434-16.559.485-18.975a25.178,25.178,0,0,1,.21-4.235,6.616,6.616,0,0,0,1.848-1.289,7.768,7.768,0,0,0-.813-.951,3.07,3.07,0,0,0-1.147-.283A3.286,3.286,0,0,0,1613.791,765.112Z" transform="translate(-1547.773 -742.241)" fill="#18898d"/>
      <path id="Path_67179" data-name="Path 67179" d="M1597.194,685.564a1.636,1.636,0,0,0,.048.382,7.346,7.346,0,0,1,.046.834,1.591,1.591,0,0,1-.338,1.046c-.318.482-1.43,1.12-.935,1.825.2.285.644.263.852.541a2.368,2.368,0,0,1,.278,1.187,2.085,2.085,0,0,0,.285.957,1.3,1.3,0,0,1,.219.929,1.4,1.4,0,0,0,.093.95.912.912,0,0,0,.367.292c1.021.495,2.277.161,3.361.093a.615.615,0,0,1,.426.077.382.382,0,0,1,.162.282,8.99,8.99,0,0,1-.151,1.245,3.184,3.184,0,0,0,.177.9,1.882,1.882,0,0,0,.066.407c.089.142.371.194.53.24a7.809,7.809,0,0,0,2.66.158,8.615,8.615,0,0,0,2.178-.327,3.614,3.614,0,0,0,1.652-1.154,2.607,2.607,0,0,0,.466-1.925c-.072-.8-.419-1.56-.537-2.359-.262-1.773.621-3.562.387-5.339a6.308,6.308,0,0,0-1.9-3.468,8.5,8.5,0,0,0-4.165-2.449,5.92,5.92,0,0,0-3.356.224,3.285,3.285,0,0,0-1.253.545c-.372.363-.679.342-.866.814-.084.214-.508,2.015-.617,2.337A2.3,2.3,0,0,0,1597.194,685.564Z" transform="translate(-1535.762 -675.958)" fill="#f4a086"/>
      <path id="Path_67180" data-name="Path 67180" d="M1605.726,671.554a3.756,3.756,0,0,0-1.993.6,3.022,3.022,0,0,1-1.1.442,3.182,3.182,0,0,1,.071-4c1.639-1.422,7.781-1.07,10.4,1.163a7.137,7.137,0,0,1,2.465,3.67c.521,3.73-1.432,4.982-1.684,7.161-.489-1.115-1.619-.861-1.777-3.224a1.492,1.492,0,0,0-1.15-1.365,1.406,1.406,0,0,0-1.487.853,2.829,2.829,0,0,0-.356.964c-.052.265-.01.757-.249.933a.676.676,0,0,1-.358.111.346.346,0,0,1-.286-.078.26.26,0,0,1-.056-.2c.016-.194.047-.373.048-.573s0-.424-.018-.635a5.059,5.059,0,0,0-.215-1.211c-.21-.657-.65-.906-1.209-1.3-.454-.324-.41-.45-.065-.865a1.483,1.483,0,0,0,.474-1.524A1.6,1.6,0,0,0,1605.726,671.554Z" transform="translate(-1540.58 -665.643)" fill="#212c55"/>
      <path id="Path_67181" data-name="Path 67181" d="M1625.429,743.582c1.273-1.038,4.7-2.895,5.178-3.92a2.382,2.382,0,0,0-.008-1.243l2.066,2.351c-1.293,1.963-2.233,4.328-3.961,5.921a9.79,9.79,0,0,0-3.282-2.92,3.2,3.2,0,0,0-2.28,2.515c-.658-2,.1-3.031.225-4.955A9.357,9.357,0,0,0,1625.429,743.582Z" transform="translate(-1557.17 -721.703)" fill="#bedfe4"/>
      <path id="Path_67182" data-name="Path 67182" d="M1589.757,758.572c-1.313.562-2.774.707-3.859,1.93-.876.987-.645,2.668-.684,3.987a87.434,87.434,0,0,0,.117,9.918c.134,1.712.816,8.312.756,9.844-.1,2.627-.789,5.627-1.113,9.04-.38,4.007-.226,9.4.228,10.784.035.108.228.455.5.484a1.243,1.243,0,0,0,.824-.42,2.677,2.677,0,0,0,.508-1.073,75.518,75.518,0,0,0,3.091-23.656c-.028-.965.086-4.482.036-5.325a59.526,59.526,0,0,1,.114-7.909,16.9,16.9,0,0,1,1.17-4.762c.316-.931,1.142-2.193,1.413-3.135.129-.448.14-2.138.191-2.2A8.786,8.786,0,0,1,1589.757,758.572Z" transform="translate(-1526.933 -735.711)" fill="#8a50a0"/>
      <path id="Path_67183" data-name="Path 67183" d="M1648.092,793.613a18.232,18.232,0,0,1-10.042,3.254,6.107,6.107,0,0,1-4.568-1.357c-1.6-1.462-2.032-3.7-2.24-5.858-.606-6.277.133-9.122,0-16.465-.1-5.926,2.483-17.983,6.578-25.023.215-.37,1.285-1.79.458-2.924a28.771,28.771,0,0,1,2.823,2.542c2.27.918,5.491,2.192,8.016,3.517,1.762,1.26-3.327,12.351-3.4,14.406-.153,4.11-.737,8.709.035,12.749.477,2.5.785,4.944,1.269,7.449.247,1.276.474,2.555.659,3.842q.143.994.251,1.993C1647.956,791.971,1648.247,793.493,1648.092,793.613Z" transform="translate(-1563.614 -727.114)" fill="#8a50a0"/>
      <rect id="Rectangle_21765" data-name="Rectangle 21765" width="0.322" height="1.925" transform="translate(79.224 69.862) rotate(-7.068)" fill="#f28a11"/>
      <path id="Path_67184" data-name="Path 67184" d="M1696.324,979.142l-8.383,2.273c-.4.109-1.6.383-1.665-.09-.064-.438.428-1.081,1.44-1.4l7.653-2.072c.4-.109,1.233-.1,1.48.372C1697.043,978.587,1696.724,979.033,1696.324,979.142Z" transform="translate(-1607.458 -911.589)" fill="#ba6b0d"/>
      <path id="Path_67185" data-name="Path 67185" d="M1661.724,1029.655l-1.357-.179s-1.976.179-2.53-.651a10.88,10.88,0,0,1-.54-2.233l-2.238-14.048,2.352-.09Z" transform="translate(-1582.699 -939.083)" fill="#ba6b0d"/>
      <path id="Path_67186" data-name="Path 67186" d="M1678.453,1002.2l-14.884,4.362a8.506,8.506,0,0,1-2.782.311c-.793-.172-1.336-2.484-1.336-2.484l-2.849-14.053a2.613,2.613,0,0,0-.15-.5c-.088-.132-.451-.145-.451-.145l-.45-.025-.275-.015-.218-.012s-.021-.319.415-.452c.172-.052.492-.142.492-.142l.1-.026,20.24-5.349a2.72,2.72,0,0,1,.411-.089c.089,0,.294.023.294.023l.441.057a.979.979,0,0,1,.109.024.213.213,0,0,1,.152.107,1.125,1.125,0,0,1,.063.218l2.952,13.712a9.785,9.785,0,0,1,.151,3.107C1680.658,1001.742,1678.453,1002.2,1678.453,1002.2Z" transform="translate(-1582.698 -916.184)" fill="#f28a11"/>
      <path id="Path_67187" data-name="Path 67187" d="M1692.414,994.724l-.315.068-.367-1.7s-.049-.187.111-.22.2.152.2.152Z" transform="translate(-1611.785 -923.547)" fill="#f28a11"/>
      <path id="Path_67188" data-name="Path 67188" d="M1734.386,982.5l-.309.09-.486-1.67s-.076-.23.078-.278c.183-.056.231.188.231.188Z" transform="translate(-1644.979 -913.842)" fill="#f28a11"/>
      <rect id="Rectangle_21766" data-name="Rectangle 21766" width="0.322" height="1.925" transform="matrix(0.981, -0.193, 0.193, 0.981, 87.936, 67.529)" fill="#f28a11"/>
      <path id="Path_67189" data-name="Path 67189" d="M1656.6,990.337l1.553,7.661,3.551,2.267a1.861,1.861,0,0,0,1.521.218l12.5-3.64a3.721,3.721,0,0,0,2.339-2.017l1.387-3.012-1.679-7.8a1.125,1.125,0,0,0-.063-.218.213.213,0,0,0-.152-.107.979.979,0,0,0-.109-.024l-.441-.057s-.205-.025-.294-.023a2.72,2.72,0,0,0-.411.089l-20.24,5.349-.1.026s-.321.09-.492.142c-.436.134-.415.452-.415.452l.218.012.275.015.45.025s.364.013.451.145A2.61,2.61,0,0,1,1656.6,990.337Z" transform="translate(-1582.698 -916.184)" fill="#f79a0f"/>
      <path id="Path_67190" data-name="Path 67190" d="M1721.184,1045.536l-3.082.9a.322.322,0,0,1-.425-.223l-.531-2.58a.386.386,0,0,1,.29-.427l3.073-.873a.32.32,0,0,1,.418.222l.54,2.55A.384.384,0,0,1,1721.184,1045.536Z" transform="translate(-1631.944 -962.776)" fill="#ffd22c"/>
      <path id="Path_67191" data-name="Path 67191" d="M1702.343,969.417a2.21,2.21,0,0,1-.465,1.495c-.291.25-.537.115-.788.256a1.5,1.5,0,0,1-.824.24,1.476,1.476,0,0,0-.429.019,2.68,2.68,0,0,0-.548.267c-.531.23-.668.017-1.055.154a2.852,2.852,0,0,1-.605.218,1.125,1.125,0,0,1-.365-.008.648.648,0,0,1-.529-.427c-.071-.2-.047-.421-.118-.626a.881.881,0,0,0-.281-.413.938.938,0,0,0-.616-.172,4.451,4.451,0,0,0-.747.154c-.041.008-.453.115-.493.121a5.732,5.732,0,0,1,.307-2.466c.223-.457.786-1.26.868-1.565.055-.207.168-.25.346-.335a1.179,1.179,0,0,1,.634-.051,30.581,30.581,0,0,0,3.344.257,8.9,8.9,0,0,0,1.856-.167c.219-.046.255-.082.369.13a2.218,2.218,0,0,1,.031.848C1702.176,968.09,1702.4,968.673,1702.343,969.417Z" transform="translate(-1613.934 -902.439)" fill="#f4a086"/>
      <path id="Path_67192" data-name="Path 67192" d="M1693.653,786.2a22.056,22.056,0,0,1,1.861-9.8,9.986,9.986,0,0,1,1.09-1.9,2.16,2.16,0,0,1,1.368-.851,1.363,1.363,0,0,1,1.281.607,77.34,77.34,0,0,1,1.809,7.675c.531,3.028.938,6.119,1.516,9.131,1.654,8.614.1,15.092-.965,23.643-.577-.1-6.54-1.022-6.546-.9a53.7,53.7,0,0,0,1.057-9.465C1696.172,798.054,1693.806,792.482,1693.653,786.2Z" transform="translate(-1613.307 -749.648)" fill="#803f98"/>
    </g>
  </g>
</svg>
