<svg xmlns="http://www.w3.org/2000/svg" xmlns:xlink="http://www.w3.org/1999/xlink" width="66" height="66" viewBox="0 0 66 66">
  <defs>
    <clipPath id="clip-path">
      <rect id="Rectangle_21773" data-name="Rectangle 21773" width="66" height="66" transform="translate(341 504)" fill="#8a50a0" stroke="#707070" stroke-width="1"/>
    </clipPath>
  </defs>
  <g id="Mask_Group_56" data-name="Mask Group 56" transform="translate(-341 -504)" clip-path="url(#clip-path)">
    <g id="family" transform="translate(327.91 495.201)">
      <path id="Path_67114" data-name="Path 67114" d="M42.749,26.509A9.089,9.089,0,1,0,33.66,35.6,9.1,9.1,0,0,0,42.749,26.509Zm-15.913,0a6.814,6.814,0,1,1,6.814,6.814A6.821,6.821,0,0,1,26.836,26.509Z" fill="#8a50a0"/>
      <path id="Path_67115" data-name="Path 67115" d="M67.535,17.888a9.089,9.089,0,1,0-9.089,9.089A9.1,9.1,0,0,0,67.535,17.888Zm-15.913,0A6.814,6.814,0,1,1,58.437,24.7,6.821,6.821,0,0,1,51.622,17.888Z" fill="#8a50a0"/>
      <path id="Path_67116" data-name="Path 67116" d="M28.605,74.8h34.97a1.141,1.141,0,0,0,1.142-1.142V64.231A9.224,9.224,0,0,0,72.8,55.086V38.275a9.232,9.232,0,0,0-9.22-9.22H53.307a9.232,9.232,0,0,0-9.22,9.22v1.011a9.166,9.166,0,0,0-5.2-1.61H28.605a9.232,9.232,0,0,0-9.22,9.22V63.164a1.141,1.141,0,0,0,1.142,1.142h6.936v9.351A1.153,1.153,0,0,0,28.605,74.8Zm9.37-2.275L39.2,62.846a3.578,3.578,0,0,1,3.529-3.192H48.6a3.587,3.587,0,0,1,3.529,3.211l1.226,9.669H37.975ZM21.669,62.031V46.9a6.945,6.945,0,0,1,6.936-6.936H38.883a6.9,6.9,0,0,1,5.438,2.64,1.141,1.141,0,0,0,2.031-.711V38.275a6.945,6.945,0,0,1,6.936-6.936H63.566A6.945,6.945,0,0,1,70.5,38.275V55.086a6.945,6.945,0,0,1-6.936,6.936,1.141,1.141,0,0,0-1.142,1.142v9.351h-6.8l-1.236-9.931a5.856,5.856,0,0,0-5.794-5.2H47.083a6.243,6.243,0,1,0-3.014,0H42.73a5.847,5.847,0,0,0-5.785,5.2l-1.254,9.95H29.757V63.173a1.141,1.141,0,0,0-1.142-1.142H21.669Zm23.906-6.739a3.969,3.969,0,1,1,3.969-3.969A3.971,3.971,0,0,1,45.576,55.292Z" fill="#8a50a0"/>
    </g>
  </g>
</svg>
