<svg xmlns="http://www.w3.org/2000/svg" width="35.953" height="20.291" viewBox="0 0 35.953 20.291">
  <path id="Path_63528" data-name="Path 63528" d="M14.505,34.994c.787.062,3.993-.076,3.978-1.363-.011-.9-3.791-.277-4.521-.379-4.081-.566-7.343-3.935-9.154-7.465a15.806,15.806,0,0,1-1.374-11.24A11.137,11.137,0,0,1,6.267,9.2c.12-.121,3.254-2.8,3.556-2.066.42,1.027-1.1,3.334-.434,4.708.757,1.563,1.717,1.191,2.667.074,1.359-1.6,3.093-7.631,1.13-9.073-.867-.637-3-1.1-4.063-1.465A28.964,28.964,0,0,0,3.853.073C-1.713-.641,6.734,4.128,6.73,4.186c-.041.662-2.415,1.928-2.977,2.531A13.4,13.4,0,0,0,.926,11.724,18.9,18.9,0,0,0,.579,22.2c1.783,6.754,6.287,12.794,13.926,12.794C15.622,35.083,13.565,34.994,14.505,34.994Z" transform="translate(35.953 1.833) rotate(93)" fill="#a67cb7"/>
</svg>
