<svg xmlns="http://www.w3.org/2000/svg" width="131.97" height="109.517" viewBox="0 0 131.97 109.517">
  <g id="Group_48579" data-name="Group 48579" transform="translate(-564.38 -1579.587)">
    <path id="Path_67025" data-name="Path 67025" d="M1211.789,1933.879c-.974-.061-1.121.641-3.588,1.693-.441.188-1.177.439-2.648.939a11.476,11.476,0,0,1-2.573.711,12.382,12.382,0,0,1-2.046-.021c-1.371-.074-1.4-.169-2.458-.207a9.756,9.756,0,0,0-2.7.193,5.161,5.161,0,0,0-1.345.488,4.613,4.613,0,0,0-1.7,1.805.729.729,0,0,0-.095.573.786.786,0,0,0,.516.4c.875.288,2.974-.912,4.073-1.315,1.7-.625,2.038.283,5.4.453,1.986.1,4.052-.333,8.183-1.2,3.032-.636,3.6-.928,3.753-1.446C1214.891,1935.841,1213.324,1933.975,1211.789,1933.879Z" transform="translate(-564.577 -318.393)" fill="#e0795a"/>
    <path id="Path_67026" data-name="Path 67026" d="M1500.531,1730.074a4.861,4.861,0,0,0-.76.838,11.085,11.085,0,0,0-1.728,3.132c-.307,1.347.429.931.759,1.372.659.88,2.822.344,3.928-.079a9.93,9.93,0,0,0,4.844-4.5c.246-.412,2.652-4.447,1.6-5.42C1507.763,1724.112,1501.336,1729.363,1500.531,1730.074Z" transform="translate(-839.003 -130.866)" fill="#eb8e6c"/>
    <path id="Path_67027" data-name="Path 67027" d="M1477.743,1695.472c.219.3,1.4-.5,2.482.153a3.57,3.57,0,0,1,.9.924,6.244,6.244,0,0,1,.989,1.577c.568,1.582-.844,2.96-.421,3.364.482.46,2.605-1.044,3.956-2a9.792,9.792,0,0,0,2.919-2.629,5,5,0,0,0,1.086-3.017c-.131-2.077-2.335-3.9-4.413-4.256C1480.786,1688.822,1477.28,1694.847,1477.743,1695.472Z" transform="translate(-820.788 -98.796)" fill="#eb8e6c"/>
    <path id="Path_67028" data-name="Path 67028" d="M1306.008,1851.665c-.142-.2-.223-.492-.759-1.384-.252-.42-.447-.708-.347-.987a.788.788,0,0,1,.476-.405c1.946-.809,2.918-1.213,3.136-1.294a14.945,14.945,0,0,0,1.735-.819,27.452,27.452,0,0,0,3.51-2.224c2.816-2.01,6.651-5.488,7.734-7.506.847-1.575,4.417,6.346,6.673,6.31,10.655-.171-9.062,5.556-11.284,6.446C1312.008,1851.756,1306.951,1852.96,1306.008,1851.665Z" transform="translate(-665.472 -231.189)" fill="#7554b1"/>
    <path id="Path_67029" data-name="Path 67029" d="M1200.023,1974.49c-.514-.043-.745.265-1.82.369a8.763,8.763,0,0,1-1.608-.05,16.784,16.784,0,0,1-3.166-.425,3.8,3.8,0,0,0-1.25-.19,5.239,5.239,0,0,0-1.1.218c-.8.2-1.417.39-1.907.547a8.183,8.183,0,0,0-1.13.409,7.038,7.038,0,0,0-1.118.772,7.664,7.664,0,0,0-.878.792,1.5,1.5,0,0,0-.441.763.571.571,0,0,0,.036.358c.014.029.108.225.27.248.215.03.345-.273.494-.226.1.033.068.19.19.346a.768.768,0,0,0,.782.2c.2-.062.249-.189.526-.522a8.206,8.206,0,0,1,1.324-1.215s.338-.271.359-.245a2.189,2.189,0,0,0-.793,1.032.649.649,0,0,0,.029.542.608.608,0,0,0,.7.169c.244-.1.223-.322.471-.639a1.676,1.676,0,0,1,1.026-.618c.319-.018.465.15,1.1.541a6.312,6.312,0,0,0,1.353.714c.634.194,1.026,0,2.047-.189.455-.084,1.1-.13,2.4-.225,3.019-.218,3.89.372,4.253-.156C1202.731,1977,1201.383,1974.6,1200.023,1974.49Z" transform="translate(-558.276 -354.626)" fill="#eb8e6c"/>
    <g id="Group_49781" data-name="Group 49781" transform="translate(658.604 1651.144)">
      <g id="Group_49779" data-name="Group 49779" transform="translate(0 0.008)">
        <path id="Path_67030" data-name="Path 67030" d="M1495.466,2323.779h0a1.251,1.251,0,0,1-1.065-1.414l4.974-35.345a1.251,1.251,0,0,1,1.414-1.064h0a1.251,1.251,0,0,1,1.065,1.413l-4.973,35.345A1.251,1.251,0,0,1,1495.466,2323.779Z" transform="translate(-1494.389 -2285.943)" fill="#1e3863"/>
      </g>
      <g id="Group_49780" data-name="Group 49780" transform="translate(27.689 0)">
        <path id="Path_67031" data-name="Path 67031" d="M1772.388,2322.737l-4.694-35.456a1.251,1.251,0,0,1,1.077-1.405h0a1.251,1.251,0,0,1,1.4,1.076l4.694,35.456a1.252,1.252,0,0,1-1.076,1.4h0A1.252,1.252,0,0,1,1772.388,2322.737Z" transform="translate(-1767.683 -2285.865)" fill="#1e3863"/>
      </g>
    </g>
    <path id="Path_67032" data-name="Path 67032" d="M1482.893,1696.335c1.312-1.383,1.666-3.738,1.04-6.515-3.809.426-6.606,5.358-6.189,5.921.219.3,1.4-.5,2.482.153a3.574,3.574,0,0,1,.9.924c.095.119.229.288.372.485A4.314,4.314,0,0,0,1482.893,1696.335Z" transform="translate(-820.788 -99.065)" fill="#c36252"/>
    <g id="Group_49784" data-name="Group 49784" transform="translate(639.407 1651.144)">
      <g id="Group_49782" data-name="Group 49782" transform="translate(0 0.008)">
        <path id="Path_67033" data-name="Path 67033" d="M1305.984,2323.779h0a1.252,1.252,0,0,1-1.065-1.414l4.974-35.345a1.251,1.251,0,0,1,1.414-1.064h0a1.251,1.251,0,0,1,1.065,1.413l-4.973,35.345A1.252,1.252,0,0,1,1305.984,2323.779Z" transform="translate(-1304.907 -2285.943)" fill="#152b4c"/>
      </g>
      <g id="Group_49783" data-name="Group 49783" transform="translate(27.689 0)">
        <path id="Path_67034" data-name="Path 67034" d="M1582.907,2322.737l-4.695-35.456a1.251,1.251,0,0,1,1.076-1.405h0a1.251,1.251,0,0,1,1.405,1.076l4.695,35.456a1.252,1.252,0,0,1-1.076,1.4h0A1.251,1.251,0,0,1,1582.907,2322.737Z" transform="translate(-1578.202 -2285.865)" fill="#152b4c"/>
      </g>
    </g>
    <path id="Path_67035" data-name="Path 67035" d="M1610.158,1929.751H1629.8l5.4-38.728h-18.659a2.114,2.114,0,0,0-2.1,1.87Z" transform="translate(-939.824 -279.883)" fill="#29416d"/>
    <rect id="Rectangle_21717" data-name="Rectangle 21717" width="21.076" height="4.107" transform="translate(641.795 1647.982)" fill="#1e3863"/>
    <path id="Path_67036" data-name="Path 67036" d="M1541.4,2549.052c.189-.536-.1-1.4-.678-3.118-.624-1.861-.952-2.8-1.695-3.119-.2-.087-.278-.072-2.576.135-1.358.123-1.561.138-1.763.339-.521.521-.137,1.392,0,2.848.254,2.7-.715,3.405-.136,4.2C1535.663,2551.873,1540.645,2551.185,1541.4,2549.052Z" transform="translate(-871.707 -865.593)" fill="#eb8e6c"/>
    <path id="Path_67037" data-name="Path 67037" d="M1202.085,2549.417c.189-.536-.1-1.4-.678-3.119-.625-1.861-.952-2.8-1.7-3.119-.2-.087-.265.494-1.1.61-1.351.188-1.93,3.842-4.009,6.373C1193.4,2551.628,1201.333,2551.55,1202.085,2549.417Z" transform="translate(-566.26 -865.958)" fill="#eb8e6c"/>
    <path id="Path_67038" data-name="Path 67038" d="M1252.8,2067.223c-1.007,2.346-15.151.337-24.908,5.521-2.468,1.312-4.146,5.793-4.409,6.735,0,0-1.547,5.533-5.017,16.542-3.121,9.9-6.368,16.949-5.555,18.423.425.769,4.569,2.148,5.419.813,14.131-22.219,10.693-29.608,13.966-31.71,1.147-.737,1.766-.654,4.068-1.22a45.339,45.339,0,0,0,13.695-6.373c4.969-3.533,9.643-9,8.542-10.847-.1-.163-.19-.216-3.661-1.22-2.665-.771-3.364-.958-4.339-.813C1249.316,2063.265,1254.4,2063.491,1252.8,2067.223Z" transform="translate(-582.712 -434.461)" fill="#f7bf41"/>
    <path id="Path_67039" data-name="Path 67039" d="M1257.763,2088.324c-1.707.39-4.079.725-5.506,2.628a6.378,6.378,0,0,0-1.126,3.755c-.246,7.654-5.645,18.678-8.51,24.527a75.818,75.818,0,0,1-4.178,7.433c1.219.291,2.512.318,2.947-.365,14.131-22.218,10.693-29.608,13.966-31.71,1.147-.737,1.766-.654,4.068-1.22a45.344,45.344,0,0,0,13.695-6.373c4.968-3.533,9.643-9,8.542-10.847-.083-.139-.163-.2-2.333-.834a52.276,52.276,0,0,1-11.553,8.252C1261.735,2086.594,1258.715,2088.106,1257.763,2088.324Z" transform="translate(-605.77 -445.505)" fill="#f4b22f"/>
    <path id="Path_67040" data-name="Path 67040" d="M1628.045,1920.362c-.558-5.328-1.236-11.806-6.132-17.645a24.916,24.916,0,0,0-6.859-5.665,2.106,2.106,0,0,0-.616,1.259l-4.28,36.858h17.163A49.094,49.094,0,0,0,1628.045,1920.362Z" transform="translate(-939.824 -285.302)" fill="#1e3863"/>
    <path id="Path_67041" data-name="Path 67041" d="M1449.969,2224.115l8.489.6,17.921,2.331-35.59.337Z" transform="translate(-787.615 -579.228)" fill="#132c51"/>
    <path id="Path_67042" data-name="Path 67042" d="M1402.75,2049.245c1.366,1.389,2.662,2.467,3.135,4.95a14.3,14.3,0,0,1-.966,6.982c-1.445,3.708-6.08,5.022-8.136,5.6a37.431,37.431,0,0,1-14.825,1.085s.068,1.9,2.35,7.412c2.034,4.91,6.894,18.17,7.91,22.486.271,1.153-4.2,2.712-5.921,2.282-1.967-.492-8.767-14.039-13.559-24.949-3.1-7.047-5.24-12.3-.359-15.736,4.121-2.9,17.731-4.2,19.469-6.127.891-.99-2.213-2.86-1.573-3.628C1392.735,2046.65,1399.566,2046.007,1402.75,2049.245Z" transform="translate(-723.547 -420.135)" fill="#ffd147"/>
    <path id="Path_67043" data-name="Path 67043" d="M1487.909,2062.84c-.473-2.483-1.769-3.561-3.135-4.95a6.415,6.415,0,0,0-1.62-1.182c.725,2.087,1.694,6.306-.5,10.137a13.067,13.067,0,0,1-6.507,5.256,20.86,20.86,0,0,1-6.507,1.376c-5.686.605-8.385.751-8.385.751-1.423,1.613.48,5.156,3.129,11.012,0,0,.6,1.336,6.382,15.643.76,1.883,1.6,4.132,2.419,6.741.7-.39,1.151-.825,1.059-1.214-1.016-4.316-5.876-17.576-7.91-22.486-2.282-5.51-2.35-7.412-2.35-7.412a37.439,37.439,0,0,0,14.825-1.085c2.055-.583,6.69-1.9,8.135-5.6A14.3,14.3,0,0,0,1487.909,2062.84Z" transform="translate(-805.57 -428.781)" fill="#f9c23a"/>
    <g id="Group_49791" data-name="Group 49791" transform="translate(654.259 1679.575)">
      <path id="Path_67044" data-name="Path 67044" d="M1467.769,2570.371c-.218-.854-.267-1.379-.421-1.405-1.176-.2-6.081-.053-6.081-.053a5.642,5.642,0,0,0,.313-2.153c-.078-.356-1.338-.329-1.447-.135-.254.451.246,1.044.021,2.187a3.125,3.125,0,0,1-.471,1.117c-.477.744-1.344,1.183-3.058,2.031a7.441,7.441,0,0,1-1.4.606,7.931,7.931,0,0,1-2,.241,1.517,1.517,0,0,0-.814.119,1.411,1.411,0,0,0-.551.524,1.858,1.858,0,0,0-.206,1.781c.264.443.828.554,1.9.649a32.813,32.813,0,0,0,5.3.023c1.88-.137,1.74-.177,2.7-.211,2.309-.081,3.633-.035,3.633-.035a8.787,8.787,0,0,0,2.592-.284c.594-.159.726-.266.812-.378.35-.458-.059-1.019-.473-2.961C1467.971,2571.344,1467.959,2571.115,1467.769,2570.371Z" transform="translate(-1451.499 -2566.484)" fill="#f9f9f9"/>
      <g id="Group_49790" data-name="Group 49790" transform="translate(6.194 2.528)">
        <g id="Group_49785" data-name="Group 49785" transform="translate(2.402)">
          <path id="Path_67045" data-name="Path 67045" d="M1538.357,2592.187a7.655,7.655,0,0,0-1.816-.744.158.158,0,0,0-.194.117h0a.159.159,0,0,0,.115.191,7.281,7.281,0,0,1,.994.344,7.452,7.452,0,0,1,.74.367.159.159,0,0,0,.217-.056h0A.159.159,0,0,0,1538.357,2592.187Z" transform="translate(-1536.342 -2591.438)" fill="#4e5475"/>
        </g>
        <g id="Group_49786" data-name="Group 49786" transform="translate(2.042 0.717)">
          <path id="Path_67046" data-name="Path 67046" d="M1533.908,2599.033q-.148-.1-.3-.195a5.945,5.945,0,0,0-.589-.311.16.16,0,0,0-.214.083h0a.159.159,0,0,0,.079.206,5.658,5.658,0,0,1,.56.3c.1.058.193.12.287.185a.158.158,0,0,0,.218-.037h0A.16.16,0,0,0,1533.908,2599.033Z" transform="translate(-1532.79 -2598.512)" fill="#4e5475"/>
        </g>
        <g id="Group_49787" data-name="Group 49787" transform="translate(1.464 1.322)">
          <path id="Path_67047" data-name="Path 67047" d="M1527.594,2604.668a1.644,1.644,0,0,0-.277-.164.16.16,0,0,0-.221.092h0a.158.158,0,0,0,.081.194,1.316,1.316,0,0,1,.41.295.161.161,0,0,0,.214.02h0a.16.16,0,0,0,.019-.238A1.658,1.658,0,0,0,1527.594,2604.668Z" transform="translate(-1527.087 -2604.489)" fill="#4e5475"/>
        </g>
        <g id="Group_49788" data-name="Group 49788" transform="translate(0.902 1.811)">
          <path id="Path_67048" data-name="Path 67048" d="M1521.93,2609.442q-.074-.053-.152-.1a.159.159,0,0,0-.222.059h0a.158.158,0,0,0,.055.211c.046.029.091.059.135.09s.1.075.15.115a.16.16,0,0,0,.219-.015h0a.159.159,0,0,0-.015-.23C1522.044,2609.527,1521.987,2609.484,1521.93,2609.442Z" transform="translate(-1521.535 -2609.318)" fill="#4e5475"/>
        </g>
        <g id="Group_49789" data-name="Group 49789" transform="translate(0 2.28)">
          <path id="Path_67049" data-name="Path 67049" d="M1512.948,2613.993a.624.624,0,0,0-.108-.044.159.159,0,0,0-.2.161h0a.155.155,0,0,0,.109.142.3.3,0,0,1,.056.022.375.375,0,0,1,.135.124.159.159,0,1,0,.266-.175A.688.688,0,0,0,1512.948,2613.993Z" transform="translate(-1512.635 -2613.942)" fill="#4e5475"/>
        </g>
      </g>
      <path id="Path_67050" data-name="Path 67050" d="M1467.773,2591.644c-.218-.854-.268-1.379-.421-1.4a9.539,9.539,0,0,0-1.118-.084,3.7,3.7,0,0,1-.077,2.44,3.9,3.9,0,0,1-1.05,1.414c-1.3,1.118-4.947,1.46-5.854,1.544a36.255,36.255,0,0,1-7.65-.27,1.541,1.541,0,0,0,.052,1.222c.264.443.828.554,1.9.649a32.852,32.852,0,0,0,5.3.024c1.88-.137,1.74-.177,2.7-.211,2.309-.081,3.633-.035,3.633-.035a8.8,8.8,0,0,0,2.592-.284c.594-.159.726-.266.812-.378.35-.458-.059-1.019-.473-2.961C1467.974,2592.617,1467.962,2592.387,1467.773,2591.644Z" transform="translate(-1451.502 -2587.757)" fill="#edeff4"/>
      <path id="Path_67051" data-name="Path 67051" d="M1463.991,2635.753c-1.465.18-1.362.239-2.629.4-.172.021-1.853.225-3.742.258a35.531,35.531,0,0,1-6.077-.443,1.4,1.4,0,0,0,.114.982c.264.442.828.554,1.9.649a32.854,32.854,0,0,0,5.3.024c1.88-.137,1.74-.177,2.7-.211,2.309-.081,3.633-.034,3.633-.034a8.79,8.79,0,0,0,2.592-.284c.594-.159.726-.266.812-.378.245-.322.118-.694-.123-1.556C1467.3,2635.321,1465.142,2635.611,1463.991,2635.753Z" transform="translate(-1451.505 -2628.196)" fill="#88bde5"/>
    </g>
    <g id="Group_49798" data-name="Group 49798" transform="translate(620.035 1679.575)">
      <path id="Path_67052" data-name="Path 67052" d="M1129.971,2570.371c-.218-.854-.267-1.379-.421-1.405-1.176-.2-6.08-.053-6.08-.053a5.642,5.642,0,0,0,.313-2.153c-.078-.356-1.338-.329-1.447-.135-.254.451.246,1.044.021,2.187a3.127,3.127,0,0,1-.471,1.117c-.477.744-1.344,1.183-3.058,2.031a7.441,7.441,0,0,1-1.4.606,7.931,7.931,0,0,1-2,.241,1.517,1.517,0,0,0-.814.119,1.412,1.412,0,0,0-.551.524,1.858,1.858,0,0,0-.206,1.781c.264.443.828.554,1.9.649a32.812,32.812,0,0,0,5.3.023c1.88-.137,1.74-.177,2.7-.211,2.309-.081,3.633-.035,3.633-.035a8.787,8.787,0,0,0,2.593-.284c.594-.159.726-.266.812-.378.35-.458-.059-1.019-.473-2.961C1130.173,2571.344,1130.161,2571.115,1129.971,2570.371Z" transform="translate(-1113.701 -2566.484)" fill="#f9f9f9"/>
      <g id="Group_49797" data-name="Group 49797" transform="translate(6.194 2.528)">
        <g id="Group_49792" data-name="Group 49792" transform="translate(2.402)">
          <path id="Path_67053" data-name="Path 67053" d="M1200.559,2592.187a7.755,7.755,0,0,0-.775-.385,7.643,7.643,0,0,0-1.041-.359.159.159,0,0,0-.194.117h0a.16.16,0,0,0,.115.191,7.259,7.259,0,0,1,.994.344,7.43,7.43,0,0,1,.741.367.159.159,0,0,0,.217-.056h0A.159.159,0,0,0,1200.559,2592.187Z" transform="translate(-1198.544 -2591.438)" fill="#4e5475"/>
        </g>
        <g id="Group_49793" data-name="Group 49793" transform="translate(2.042 0.717)">
          <path id="Path_67054" data-name="Path 67054" d="M1196.11,2599.033c-.1-.068-.2-.133-.3-.195a5.957,5.957,0,0,0-.589-.311.16.16,0,0,0-.214.083h0a.159.159,0,0,0,.079.206,5.625,5.625,0,0,1,.559.3c.1.058.193.12.287.185a.158.158,0,0,0,.218-.037h0A.16.16,0,0,0,1196.11,2599.033Z" transform="translate(-1194.992 -2598.512)" fill="#4e5475"/>
        </g>
        <g id="Group_49794" data-name="Group 49794" transform="translate(1.464 1.322)">
          <path id="Path_67055" data-name="Path 67055" d="M1189.8,2604.668a1.66,1.66,0,0,0-.277-.164.161.161,0,0,0-.221.092h0a.158.158,0,0,0,.081.194,1.318,1.318,0,0,1,.41.295.161.161,0,0,0,.214.02h0a.16.16,0,0,0,.019-.238A1.672,1.672,0,0,0,1189.8,2604.668Z" transform="translate(-1189.289 -2604.489)" fill="#4e5475"/>
        </g>
        <g id="Group_49795" data-name="Group 49795" transform="translate(0.902 1.811)">
          <path id="Path_67056" data-name="Path 67056" d="M1184.131,2609.442c-.049-.035-.1-.069-.152-.1a.158.158,0,0,0-.222.059h0a.158.158,0,0,0,.055.211c.046.029.091.059.135.09s.1.075.15.115a.16.16,0,0,0,.219-.015h0a.159.159,0,0,0-.015-.23C1184.246,2609.527,1184.189,2609.484,1184.131,2609.442Z" transform="translate(-1183.737 -2609.318)" fill="#4e5475"/>
        </g>
        <g id="Group_49796" data-name="Group 49796" transform="translate(0 2.28)">
          <path id="Path_67057" data-name="Path 67057" d="M1175.15,2613.993a.628.628,0,0,0-.108-.044.159.159,0,0,0-.2.161h0a.155.155,0,0,0,.109.142.307.307,0,0,1,.056.022.375.375,0,0,1,.134.124.159.159,0,1,0,.266-.175A.69.69,0,0,0,1175.15,2613.993Z" transform="translate(-1174.837 -2613.942)" fill="#4e5475"/>
        </g>
      </g>
      <path id="Path_67058" data-name="Path 67058" d="M1129.974,2591.644c-.218-.854-.268-1.379-.421-1.4a9.532,9.532,0,0,0-1.118-.084,3.7,3.7,0,0,1-.077,2.44,3.9,3.9,0,0,1-1.05,1.414c-1.3,1.118-4.947,1.46-5.854,1.544a36.255,36.255,0,0,1-7.65-.27,1.541,1.541,0,0,0,.052,1.222c.264.443.828.554,1.9.649a32.854,32.854,0,0,0,5.3.024c1.88-.137,1.74-.177,2.7-.211,2.309-.081,3.633-.035,3.633-.035a8.8,8.8,0,0,0,2.593-.284c.594-.159.726-.266.812-.378.35-.458-.058-1.019-.473-2.961C1130.176,2592.617,1130.164,2592.387,1129.974,2591.644Z" transform="translate(-1113.704 -2587.757)" fill="#edeff4"/>
      <path id="Path_67059" data-name="Path 67059" d="M1126.192,2635.753c-1.465.18-1.362.239-2.628.4-.172.021-1.853.225-3.742.258a35.533,35.533,0,0,1-6.077-.443,1.4,1.4,0,0,0,.114.982c.264.442.828.554,1.9.649a32.854,32.854,0,0,0,5.3.024c1.88-.137,1.74-.177,2.7-.211,2.309-.081,3.633-.034,3.633-.034a8.79,8.79,0,0,0,2.592-.284c.594-.159.726-.266.812-.378.245-.322.118-.694-.123-1.556C1129.506,2635.321,1127.344,2635.611,1126.192,2635.753Z" transform="translate(-1113.706 -2628.196)" fill="#88bde5"/>
    </g>
    <rect id="Rectangle_21718" data-name="Rectangle 21718" width="30.474" height="4.107" rx="2.053" transform="translate(660.749 1647.982)" fill="#3d5586"/>
    <path id="Path_67060" data-name="Path 67060" d="M1790.428,1930.579l-.4-.056a1.131,1.131,0,0,1-.966-1.275l5.225-37.9a1.131,1.131,0,0,1,1.275-.966l.4.056a1.131,1.131,0,0,1,.966,1.275l-5.225,37.9A1.131,1.131,0,0,1,1790.428,1930.579Z" transform="translate(-1100.59 -279.293)" fill="#3d5586"/>
    <g id="Group_49804" data-name="Group 49804" transform="translate(569.4 1606.829)">
      <g id="Group_49799" data-name="Group 49799" transform="translate(2.55 0)">
        <rect id="Rectangle_21719" data-name="Rectangle 21719" width="32.065" height="4.499" rx="2.25" transform="translate(0 0)" fill="#8eb7e8"/>
        <path id="Path_67061" data-name="Path 67061" d="M819.627,1851.946V1849.5a1.025,1.025,0,0,1,.748-.986,1.035,1.035,0,0,0-.276-.038H803.4a1.024,1.024,0,0,0-1.024,1.024v2.451a1.024,1.024,0,0,0,1.024,1.024h16.7a1.025,1.025,0,0,0,.276-.038A1.025,1.025,0,0,1,819.627,1851.946Z" transform="translate(-785.835 -1848.471)" fill="#fff"/>
        <path id="Path_67062" data-name="Path 67062" d="M680.818,1848.471H665.374a4.087,4.087,0,0,1-.535,1.773,3.8,3.8,0,0,1-1.875,1.667,3.3,3.3,0,0,1-1.167.208c-1.184.01-5.466.209-11.566.512a1.144,1.144,0,0,0,.814.34h29.771a1.147,1.147,0,0,0,1.147-1.147v-2.205A1.147,1.147,0,0,0,680.818,1848.471Z" transform="translate(-649.105 -1848.471)" fill="#669cdd"/>
        <path id="Path_67063" data-name="Path 67063" d="M820.123,1851.946V1849.5a1.024,1.024,0,0,1,.746-.986,1.029,1.029,0,0,0-.275-.038H803.947a1.023,1.023,0,0,0-1.021,1.024v2.451a1.023,1.023,0,0,0,1.021,1.024h16.646a1.02,1.02,0,0,0,.275-.038A1.024,1.024,0,0,1,820.123,1851.946Z" transform="translate(-786.328 -1848.471)" fill="#f4ebff"/>
        <path id="Path_67064" data-name="Path 67064" d="M808.7,1849.952c1.807-.434,6.552-.719,13.008-.724a1.02,1.02,0,0,1,.7-.719,1.01,1.01,0,0,0-.273-.038H805.657a1.018,1.018,0,0,0-1.011,1.024v2.451a1.018,1.018,0,0,0,.979,1.024,3.817,3.817,0,0,1,3.078-3.017Z" transform="translate(-787.874 -1848.471)" fill="#d4cbef"/>
        <path id="Path_67065" data-name="Path 67065" d="M819.773,1852.47H803.449a.55.55,0,0,1-.572-.524V1849.5a.55.55,0,0,1,.572-.524h16.324a1.027,1.027,0,0,1,.6-.462,1.035,1.035,0,0,0-.276-.038H803.4a1.024,1.024,0,0,0-1.024,1.024v2.451a1.024,1.024,0,0,0,1.024,1.024h16.7a1.025,1.025,0,0,0,.276-.038A1.027,1.027,0,0,1,819.773,1852.47Z" transform="translate(-785.835 -1848.471)" fill="#5184ce"/>
        <path id="Path_67066" data-name="Path 67066" d="M834.4,1879.009h-6.126a.146.146,0,0,1-.146-.146h0a.146.146,0,0,1,.146-.146H834.4a.146.146,0,0,1,.146.146h0A.146.146,0,0,1,834.4,1879.009Z" transform="translate(-808.981 -1875.653)" fill="#e3dfe8"/>
        <path id="Path_67067" data-name="Path 67067" d="M887.863,1867.183h-3.19a.2.2,0,0,1-.2-.2h0a.2.2,0,0,1,.2-.2h3.19a.2.2,0,0,1,.2.2h0A.2.2,0,0,1,887.863,1867.183Z" transform="translate(-859.616 -1864.934)" fill="#e3dfe8"/>
        <path id="Path_67068" data-name="Path 67068" d="M939.967,1861.24h-2.333a.1.1,0,0,1-.1-.1h0a.1.1,0,0,1,.1-.1h2.333a.1.1,0,0,1,.1.1h0A.1.1,0,0,1,939.967,1861.24Z" transform="translate(-907.294 -1859.759)" fill="#e3dfe8"/>
        <path id="Path_67069" data-name="Path 67069" d="M935.973,1879.009h-2a.146.146,0,0,1-.146-.146h0a.146.146,0,0,1,.146-.146h2a.146.146,0,0,1,.146.146h0A.146.146,0,0,1,935.973,1879.009Z" transform="translate(-903.967 -1875.653)" fill="#e3dfe8"/>
      </g>
      <g id="Group_49801" data-name="Group 49801" transform="translate(0 4.499)">
        <g id="Group_49800" data-name="Group 49800">
          <rect id="Rectangle_21720" data-name="Rectangle 21720" width="21.559" height="6.833" rx="3.417" transform="translate(8.103)" fill="#ffc71f"/>
          <path id="Path_67070" data-name="Path 67070" d="M702.773,1898.529a2.122,2.122,0,0,1-1.375-.625,2.538,2.538,0,0,1-.437-1.75c-.011-.787-.048-1.881-.163-3.275h-4.962a1.922,1.922,0,0,0-1.917,1.917v3a1.922,1.922,0,0,0,1.917,1.917h17.726a1.922,1.922,0,0,0,1.72-1.075C708.755,1898.736,704.053,1898.692,702.773,1898.529Z" transform="translate(-685.815 -1892.879)" fill="#f7b000"/>
          <path id="Path_67071" data-name="Path 67071" d="M626.123,1892.879H614.261a2.1,2.1,0,0,0-.325.025,1.792,1.792,0,0,1,1.478,1.767v3.25a1.792,1.792,0,0,1-1.478,1.767,2.116,2.116,0,0,0,.325.025h11.862a2.161,2.161,0,0,0,2.142-2.167v-2.5A2.161,2.161,0,0,0,626.123,1892.879Z" transform="translate(-613.936 -1892.879)" fill="#fff"/>
          <path id="Path_67072" data-name="Path 67072" d="M626.123,1892.879H614.261a2.1,2.1,0,0,0-.325.025,1.79,1.79,0,0,1,1.436,1.38c1.114-.016,2.447-.033,3.96-.046,0,0,.662-.006,3.625.125a5.873,5.873,0,0,1,2.75.5,4.918,4.918,0,0,1,1.625,1.563,3.775,3.775,0,0,1,.166,2.779,2.174,2.174,0,0,0,.767-1.658v-2.5A2.161,2.161,0,0,0,626.123,1892.879Z" transform="translate(-613.936 -1892.879)" fill="#e7dfef"/>
          <path id="Path_67073" data-name="Path 67073" d="M626.265,1892.879h-12a2.15,2.15,0,0,0-.329.025,1.794,1.794,0,0,1,.984.516h11.2a1.7,1.7,0,0,1,1.768,1.625v2.5a1.7,1.7,0,0,1-1.768,1.625h-11.2a1.794,1.794,0,0,1-.984.516,2.165,2.165,0,0,0,.329.025h12a2.173,2.173,0,0,0,2.167-2.167v-2.5A2.173,2.173,0,0,0,626.265,1892.879Z" transform="translate(-613.936 -1892.879)" fill="#ffdf5a"/>
          <path id="Path_67074" data-name="Path 67074" d="M640.112,1920.6H634.9a.2.2,0,0,1-.2-.2h0a.2.2,0,0,1,.2-.2h5.211a.2.2,0,0,1,.2.2h0A.2.2,0,0,1,640.112,1920.6Z" transform="translate(-632.601 -1917.442)" fill="#eaeaea"/>
          <rect id="Rectangle_21721" data-name="Rectangle 21721" width="4.271" height="0.292" rx="0.146" transform="translate(7.698 3.733)" fill="#d6cce2"/>
          <rect id="Rectangle_21722" data-name="Rectangle 21722" width="4.271" height="0.292" rx="0.146" transform="translate(2.104 4.817)" fill="#eaeaea"/>
        </g>
        <path id="Path_67075" data-name="Path 67075" d="M702.485,1933.353l-1.081-1.081-1.081,1.081v-2.162h2.162Z" transform="translate(-691.571 -1927.31)" fill="#f95428"/>
      </g>
      <g id="Group_49803" data-name="Group 49803" transform="translate(3.042 11.333)">
        <g id="Group_49802" data-name="Group 49802" transform="translate(0)">
          <rect id="Rectangle_21723" data-name="Rectangle 21723" width="25.711" height="6.833" rx="3.417" transform="translate(25.711 6.833) rotate(180)" fill="#a4a3fa"/>
          <path id="Path_67076" data-name="Path 67076" d="M668.268,1960.326h-5.048c.221,1.271.357,3.46-.972,4.647a5.093,5.093,0,0,1-1.875.938c-1.36.424-12.546.342-15.645.329.376.563.343.98,2.016.921h21.525a2.1,2.1,0,0,0,2.093-2.093v-2.647A2.1,2.1,0,0,0,668.268,1960.326Z" transform="translate(-644.651 -1960.326)" fill="#8989ef"/>
          <path id="Path_67077" data-name="Path 67077" d="M838.428,1960.326H850.29a2.118,2.118,0,0,1,.325.025,1.792,1.792,0,0,0-1.478,1.767v3.25a1.792,1.792,0,0,0,1.478,1.766,2.1,2.1,0,0,1-.325.025H838.428a2.161,2.161,0,0,1-2.142-2.167v-2.5A2.161,2.161,0,0,1,838.428,1960.326Z" transform="translate(-816.801 -1960.326)" fill="#f4ebff"/>
          <path id="Path_67078" data-name="Path 67078" d="M838.428,1960.326H850.29a2.116,2.116,0,0,1,.325.025,1.79,1.79,0,0,0-1.436,1.38c-1.114-.016-2.447-.033-3.96-.046,0,0-.662-.006-3.625.125a5.875,5.875,0,0,0-2.75.5,4.919,4.919,0,0,0-1.625,1.563,3.775,3.775,0,0,0-.166,2.779,2.175,2.175,0,0,1-.767-1.658v-2.5A2.161,2.161,0,0,1,838.428,1960.326Z" transform="translate(-816.801 -1960.326)" fill="#d4cbef"/>
          <path id="Path_67079" data-name="Path 67079" d="M836.807,1960.326h12a2.166,2.166,0,0,1,.329.025,1.794,1.794,0,0,0-.984.516h-11.2a1.7,1.7,0,0,0-1.768,1.625v2.5a1.7,1.7,0,0,0,1.768,1.625h11.2a1.793,1.793,0,0,0,.984.517,2.15,2.15,0,0,1-.329.025h-12a2.173,2.173,0,0,1-2.167-2.167v-2.5A2.173,2.173,0,0,1,836.807,1960.326Z" transform="translate(-815.322 -1960.326)" fill="#8080dd"/>
          <path id="Path_67080" data-name="Path 67080" d="M901.831,1988.051h5.211a.2.2,0,0,0,.2-.2h0a.2.2,0,0,0-.2-.2h-5.211a.2.2,0,0,0-.2.2h0A.2.2,0,0,0,901.831,1988.051Z" transform="translate(-875.528 -1984.889)" fill="#e3dfe8"/>
          <rect id="Rectangle_21724" data-name="Rectangle 21724" width="4.271" height="0.292" rx="0.146" transform="translate(26.117 4.025) rotate(180)" fill="#d6cce2"/>
          <rect id="Rectangle_21725" data-name="Rectangle 21725" width="4.271" height="0.292" rx="0.146" transform="translate(31.71 5.108) rotate(180)" fill="#e3dfe8"/>
        </g>
        <path id="Path_67081" data-name="Path 67081" d="M882.329,1996.235l1.081-1.081,1.081,1.081v-2.162h-2.162Z" transform="translate(-858.179 -1990.654)" fill="#f95428"/>
        <path id="Path_67082" data-name="Path 67082" d="M701.78,1967.159a.086.086,0,0,1-.086-.086v-6.452a.3.3,0,0,1,.3-.3h-1.226a.4.4,0,0,0-.4.4v6.039a.4.4,0,0,0,.4.4h1.016Z" transform="translate(-694.653 -1960.326)" fill="#ffc71f"/>
        <path id="Path_67083" data-name="Path 67083" d="M701.695,2019.6v-.826l-1.328,0v.51a.4.4,0,0,0,.4.4h1.016A.086.086,0,0,1,701.695,2019.6Z" transform="translate(-694.653 -2012.85)" fill="#f9b408"/>
      </g>
    </g>
    <g id="Group_49806" data-name="Group 49806" transform="translate(596.502 1584.843)">
      <g id="Group_49805" data-name="Group 49805" transform="translate(0.79 19.573)">
        <path id="Path_67084" data-name="Path 67084" d="M894.01,1845.3a4.67,4.67,0,0,1-3.274-1.082,5.16,5.16,0,0,1-1.427-2.81,5.538,5.538,0,0,1,0-1.873c.364-2.224,2.512-6.907,4.239-10.671.666-1.452,1.262-2.751,1.653-3.684a.846.846,0,0,1,1.073-.466h0a.847.847,0,0,1,.491,1.123c-.405.967-1.006,2.275-1.675,3.734-1.6,3.477-3.78,8.239-4.107,10.237a3.882,3.882,0,0,0,0,1.307,2.769,2.769,0,0,0,3.461,2.48h.027c2.394-.068,5.444-.048,9.15-.009a.849.849,0,0,1,.841.857h0a.849.849,0,0,1-.858.839c-3.687-.038-6.72-.058-9.085.009h-.027C894.348,1845.294,894.187,1845.3,894.01,1845.3Z" transform="translate(-889.229 -1824.66)" fill="#041649"/>
      </g>
      <path id="Path_67085" data-name="Path 67085" d="M896.985,1666.132l-.8-.241a4.429,4.429,0,0,1-2.8-2.5l-11.6-27.115a4.428,4.428,0,0,1,.017-3.524l.448-1.019a.442.442,0,0,1,.811,0l14.457,33.8A.442.442,0,0,1,896.985,1666.132Z" transform="translate(-881.429 -1631.469)" fill="#0d266d"/>
      <path id="Path_67086" data-name="Path 67086" d="M897.526,1683.151l-1.058-2.473-.58-.174a4.43,4.43,0,0,1-2.8-2.5l-11.521-26.932a4.428,4.428,0,0,0,.222,2.821l11.6,27.115a4.428,4.428,0,0,0,2.8,2.5l.8.242A.442.442,0,0,0,897.526,1683.151Z" transform="translate(-881.435 -1649.086)" fill="#061f56"/>
    </g>
    <path id="Path_67087" data-name="Path 67087" d="M1433.406,1593.067a11.864,11.864,0,0,0-1.883,2.285,3.817,3.817,0,0,0-.646,1.28,8.842,8.842,0,0,0,.054,2.04,2.365,2.365,0,0,0,.22.966c.124.246.216.3.3.51a1.792,1.792,0,0,1,.027,1.036,8.464,8.464,0,0,1-.536,1.764.967.967,0,0,0-.144.684.788.788,0,0,0,.466.474c.386.151.666-.094.877.074a6.475,6.475,0,0,1,1.172,2.658,4.757,4.757,0,0,0,.154.9,1.46,1.46,0,0,0,.31.7,1.672,1.672,0,0,0,1.718.019c.805-.375,2.483-1.084,4.047-1.968a18.823,18.823,0,0,0,5.318-5.278c.644-.944,2.277-3.339,1.53-5.84-.884-2.96-4.526-4.145-6.724-4.325A8.751,8.751,0,0,0,1433.406,1593.067Z" transform="translate(-778.62 -10.281)" fill="#eb8e6c"/>
    <path id="Path_67088" data-name="Path 67088" d="M1428.56,1607.684c-.079-.02-.135,0-.894.51a7.568,7.568,0,0,0-1.176.841,2.967,2.967,0,0,0-.713,1.217c-.309,1.2.767,2.423,1.145,2.853a9.358,9.358,0,0,0,6.524,2.9,6.211,6.211,0,0,1-2.3-1.2,7.38,7.38,0,0,1-2.019-4.061C1428.806,1609.1,1429.019,1607.8,1428.56,1607.684Z" transform="translate(-774.074 -25.247)" fill="#0e1647"/>
    <path id="Path_67089" data-name="Path 67089" d="M1484.889,1775.875c.329-1.407-1.548-3-2.5-7.193a39.95,39.95,0,0,1-.8-10.912c.123-2.343.3-2.217.266-3.724-.049-1.863-.038-5.642-2.085-8.527-1.179-1.662-1.491-.468-4.358-3.547-1.239-1.331-2.149-2.5-2.83-2.257-.508.178-.6,1.038-.69,1.476-.778,3.991-7.969,7.325-9.009,6.358-.736-.684,2.16-4.088,1.7-4.342-.356-.2-2,1.928-2.131,2.1a41.194,41.194,0,0,0-3.173,4.43c-3.964,6.219,4.356,21.234,2.583,28.419C1461.146,1781.065,1483.115,1783.453,1484.889,1775.875Z" transform="translate(-803.26 -143.876)" fill="#7554b1"/>
    <path id="Path_67090" data-name="Path 67090" d="M1596.13,1768.682a39.948,39.948,0,0,1-.8-10.912c.123-2.343.305-2.217.266-3.724-.048-1.863-.037-5.642-2.085-8.527-1.179-1.662-1.491-.468-4.358-3.547-1.239-1.331-2.15-2.5-2.83-2.257-.508.178-.6,1.038-.69,1.476a5.554,5.554,0,0,1-.874,2.008c.132.141.264.283.4.431a22.314,22.314,0,0,1,4.36,6.716c.566,1.423.871,2.719,1.414,9.073.372,4.358.488,6.788.589,8.13a44.855,44.855,0,0,0,2.675,12.028c2.291-.643,3.991-1.81,4.434-3.7C1598.959,1774.468,1597.082,1772.873,1596.13,1768.682Z" transform="translate(-917.001 -143.876)" fill="#7554b1"/>
    <path id="Path_67091" data-name="Path 67091" d="M1494.757,1748.19c.208.448.96.5,1.309.524a7.087,7.087,0,0,0,3.509-.89,12.651,12.651,0,0,0,4.137-3.195,12.005,12.005,0,0,0,2.371-4.767.82.82,0,0,0-.7-.147c-.508.178-.6,1.038-.69,1.476-.778,3.991-7.969,7.325-9.009,6.358-.736-.684,2.16-4.088,1.7-4.342-.206-.114-.843.549-1.369,1.16C1494.443,1746.655,1494.667,1748,1494.757,1748.19Z" transform="translate(-836.057 -143.876)" fill="#fff"/>
    <path id="Path_67092" data-name="Path 67092" d="M1492.509,1853.272c4.939-5.257,5.589-12.848,4.714-13.2-.567-.226-1.793,2.578-3.692,5.106-2.611,3.476-7.065,7.189-15.18,9.558.441,1.594,1.04,3.951,1.38,5.477C1480.871,1860.067,1489.325,1856.661,1492.509,1853.272Z" transform="translate(-821.371 -234.085)" fill="#7554b1"/>
    <path id="Path_67093" data-name="Path 67093" d="M1347.838,1794.478a4.75,4.75,0,0,0-1.991-1.276,5.905,5.905,0,0,0-4.448.778,13.078,13.078,0,0,0-3.784,3.177c-6.312,6.77-6.242,6.894-7.509,7.924-.887.722-1.506,1.137-1.972,1.473,0,0-3.508,1.756-6.466,2.974-2.175.9-7.518,1.459-8.222,1.781-.934.426-.727,3.122-.079,4.112.378.577,13.3,1.505,18.933-.5,8.136-2.895,14.68-9.668,15.447-11.117C1349.275,1800.917,1349.81,1796.661,1347.838,1794.478Z" transform="translate(-672.603 -191.807)" fill="#825ac9"/>
    <path id="Path_67094" data-name="Path 67094" d="M1449.821,1582.766a3.931,3.931,0,0,1,.562-.792,5.776,5.776,0,0,1,2.1-1.513,10.35,10.35,0,0,1,5.454-.793,9.272,9.272,0,0,1,5.693,3.348,17.033,17.033,0,0,1,2.41,4.981c.229,2.631,1.25,1.581,3.528,5.014.76,1.145.744,2.882,2.467,4.73,4.321,4.635,2.44,11.479,2.056,11.549a39.743,39.743,0,0,0-1.272-4.188c-1.124-2.73-.364-2.859-1.633-3.983-.864-.765-2.029-.282-4.131-1.781-1.111-.792-2.2-2.842-2.938-3.554-2.144-2.074-4.525.967-7.9-5.506-.462-.886-3.169-1.48-3.585-1.7C1450.4,1587.421,1449.008,1584.427,1449.821,1582.766Z" transform="translate(-795.522 0)" fill="#0e1647"/>
    <g id="Group_49810" data-name="Group 49810" transform="translate(659.436 1588.417)">
      <g id="Group_49807" data-name="Group 49807">
        <path id="Path_67095" data-name="Path 67095" d="M1504.016,1666.746c.633.072,1.042.986,1.159,1.584.279,1.43-.71,3.088-1.406,3-.775-.095-1.609-2.4-.911-3.732C1502.882,1667.554,1503.358,1666.672,1504.016,1666.746Z" transform="translate(-1502.595 -1666.742)" fill="#eb8e6c"/>
      </g>
      <g id="Group_49808" data-name="Group 49808" transform="translate(0.411 1.43)">
        <path id="Path_67096" data-name="Path 67096" d="M1507.065,1680.923a.725.725,0,0,1,.849.209,1.529,1.529,0,0,1-.021,1.484c-.085.187-.249.484-.45.517-.022,0-.259.014-.04-.324l.047-.073.05-.077c.112-.173.066-.1,0-.005a1.955,1.955,0,0,0,.254-.581.883.883,0,0,0-.061-.725.443.443,0,0,0-.5-.124.494.494,0,0,0-.248.38.148.148,0,0,1-.139.136.168.168,0,0,1-.154-.2A.8.8,0,0,1,1507.065,1680.923Z" transform="translate(-1506.65 -1680.86)" fill="#c36252"/>
        <path id="Path_67097" data-name="Path 67097" d="M1514.085,1699.6a.514.514,0,0,1,.036-.055Z" transform="translate(-1513.332 -1697.655)" fill="#c36252"/>
        <path id="Path_67098" data-name="Path 67098" d="M1514.5,1698.569l-.05.077-.011.017.065-.1Z" transform="translate(-1513.651 -1696.77)" fill="#c36252"/>
      </g>
      <g id="Group_49809" data-name="Group 49809" transform="translate(0.19 0.011)">
        <path id="Path_67099" data-name="Path 67099" d="M1504.478,1667.775a.174.174,0,0,0,.092.223.139.139,0,0,0,.18-.084,1.163,1.163,0,0,1,.575-.658.7.7,0,0,1,.539-.047.911.911,0,0,1,.427.431,2.435,2.435,0,0,1,.311,1.344,2.465,2.465,0,0,1-.762,1.908c-.088.03-.106.115-.126.214-.056.268-.142.521-.4.563h0c-.128.021-.186,0-.245-.2a.153.153,0,0,0-.177-.116h0a.161.161,0,0,0-.1.207c.069.232.209.5.58.436h0c.484-.079.593-.606.634-.8l0-.014a2.828,2.828,0,0,0,.893-2.169,2.794,2.794,0,0,0-.361-1.54,1.211,1.211,0,0,0-.586-.567.961.961,0,0,0-.744.052A1.46,1.46,0,0,0,1504.478,1667.775Zm1.457,3.431h0Z" transform="translate(-1504.466 -1666.845)" fill="#c36252"/>
      </g>
      <path id="Path_67100" data-name="Path 67100" d="M1507.578,1688.65a.683.683,0,0,1,.212.483c.03.256-.039.506-.084.5-.06,0,.016-.459-.251-.772-.138-.162-.294-.2-.282-.25S1507.415,1688.529,1507.578,1688.65Z" transform="translate(-1506.708 -1686.354)" fill="#c36252"/>
    </g>
    <path id="Path_67101" data-name="Path 67101" d="M1525.709,1697.231l.084.229.046.125c.017.046.035.086.055.135.04.1.083.207.143.332a6.338,6.338,0,0,0,.47.863,4.5,4.5,0,0,0,.8.939,3.432,3.432,0,0,0,.561.4l.078.044.01.006s.014.007-.005,0l.006,0,.023.012.047.023c.029.015.066.034.09.044l.075.034a3.015,3.015,0,0,0,.348.125c.125.037.266.07.421.112a4.33,4.33,0,0,1,.483.158,4.866,4.866,0,0,1,.9.5,5.978,5.978,0,0,1,1.5,1.46,5.134,5.134,0,0,1,.531.945l.1.255.006.016.005.014,0,.008.01.03.02.06c.013.037.027.087.041.134a2.555,2.555,0,0,1,.064.285,2.293,2.293,0,0,1,.029.291c.006.191,0,.336.019.487a3.17,3.17,0,0,0,.087.457,6.349,6.349,0,0,0,.309.916,4.959,4.959,0,0,0,1.021,1.559,3.862,3.862,0,0,0,.7.542c.067.036.135.075.2.107s.123.06.19.084.131.051.2.069.134.037.2.052c.27.061.552.069.836.122a1.817,1.817,0,0,1,.767.331,2.327,2.327,0,0,1,.52.549,2.905,2.905,0,0,1,.177.3c.047.1.1.2.13.3a4.408,4.408,0,0,1,.247,1.05,6.881,6.881,0,0,1,.047.689c0,.159,0,.244,0,.244l-.016-.243c-.012-.158-.035-.391-.086-.682a4.332,4.332,0,0,0-.3-1.014c-.039-.094-.091-.185-.141-.28a2.778,2.778,0,0,0-.184-.273,2.132,2.132,0,0,0-.508-.478,1.6,1.6,0,0,0-.693-.253c-.258-.034-.547-.026-.85-.075-.076-.012-.152-.025-.227-.045s-.151-.041-.227-.064-.151-.057-.228-.086-.138-.065-.209-.1l-.013-.006-.018-.01-.026-.015-.053-.03-.105-.061c-.035-.021-.071-.04-.105-.062l-.1-.07c-.066-.048-.137-.092-.2-.145l-.192-.159a5.4,5.4,0,0,1-1.214-1.634,6.9,6.9,0,0,1-.393-.972,3.724,3.724,0,0,1-.133-.533c-.032-.184-.039-.379-.053-.527a1.674,1.674,0,0,0-.034-.214,1.877,1.877,0,0,0-.06-.207c-.012-.034-.022-.065-.039-.107l-.023-.059-.012-.03,0-.007c0,.01,0,0,0,0l-.006-.013-.1-.213a4.408,4.408,0,0,0-.5-.782,5.18,5.18,0,0,0-1.368-1.185,3.975,3.975,0,0,0-.757-.362,3.362,3.362,0,0,0-.386-.1c-.136-.029-.284-.055-.441-.091a3.965,3.965,0,0,1-.473-.139l-.121-.046c-.041-.016-.067-.028-.1-.042l-.048-.021-.024-.01-.023-.011-.013-.006-.1-.051a4.479,4.479,0,0,1-.756-.477,5.6,5.6,0,0,1-1.064-1.106,7.569,7.569,0,0,1-.613-.981c-.076-.138-.138-.271-.193-.385-.027-.056-.054-.111-.074-.157l-.053-.122-.1-.223Z" transform="translate(-862.884 -105.725)" fill="#0e1647"/>
    <path id="Path_67102" data-name="Path 67102" d="M1348.8,1795.117a4.747,4.747,0,0,0-1.991-1.276,4.085,4.085,0,0,0-.456-.112,5.507,5.507,0,0,1,1.258,1.565c1.806,3.4-.8,7.632-1.571,8.877a17.917,17.917,0,0,1-4.242,4.478,28.212,28.212,0,0,1-7.856,5.028,27.4,27.4,0,0,1-9.9,1.807,45.556,45.556,0,0,1-10.161-.672,3.654,3.654,0,0,0,.445,1.249c.378.577,13.3,1.505,18.933-.5,8.136-2.895,14.68-9.668,15.447-11.117C1350.242,1801.557,1350.776,1797.3,1348.8,1795.117Z" transform="translate(-673.57 -192.447)" fill="#7554b1"/>
    <g id="Group_49813" data-name="Group 49813" transform="translate(564.38 1625.055)">
      <rect id="Rectangle_21726" data-name="Rectangle 21726" width="57.548" height="3.407" transform="translate(13.504 26.499)" fill="#aedbdb"/>
      <g id="Group_49811" data-name="Group 49811" transform="translate(9.056 0.248)">
        <path id="Path_67103" data-name="Path 67103" d="M656.084,2094.5l-2.318-.293,6.741-63.393,4.8.606Z" transform="translate(-653.766 -2030.81)" fill="#aedbdb"/>
        <path id="Path_67104" data-name="Path 67104" d="M672.745,2030.81l-.484,4.553,2.932.37-7.81,58.643.938.119,9.225-63.079Z" transform="translate(-666.003 -2030.81)" fill="#aedbdb"/>
      </g>
      <g id="Group_49812" data-name="Group 49812" transform="translate(65.845 0.248)">
        <path id="Path_67105" data-name="Path 67105" d="M1223.5,2094.5l2.318-.293-6.741-63.393-4.8.606Z" transform="translate(-1214.275 -2030.81)" fill="#aedbdb"/>
        <path id="Path_67106" data-name="Path 67106" d="M1219.075,2030.81l.484,4.553-2.932.37,7.81,58.643-.938.119-9.225-63.079Z" transform="translate(-1214.275 -2030.81)" fill="#aedbdb"/>
      </g>
      <rect id="Rectangle_21727" data-name="Rectangle 21727" width="86.326" height="3.512" transform="translate(0 0)" fill="#aedbdb"/>
      <path id="Path_67107" data-name="Path 67107" d="M612.66,2028.364h0a2.056,2.056,0,0,1-2.056,2.056H564.38v1.456h86.326v-3.512Z" transform="translate(-564.38 -2028.364)" fill="#aedbdb"/>
    </g>
    <path id="Path_67108" data-name="Path 67108" d="M1124.815,2016.662h17.054a.626.626,0,0,0,.626-.626h0a.626.626,0,0,0-.626-.626h-17.054a.626.626,0,0,0-.626.626h0A.626.626,0,0,0,1124.815,2016.662Z" transform="translate(-503.092 -391.667)" fill="#041649"/>
    <path id="Path_67109" data-name="Path 67109" d="M1452.037,1685.435c-.176.047-.243.366-.15.711s.311.587.487.54.243-.366.15-.711S1452.213,1685.388,1452.037,1685.435Z" transform="translate(-797.551 -95.119)" fill="#543434"/>
    <path id="Path_67110" data-name="Path 67110" d="M1451.073,1723.129c-.089-.007.14.446.245.636a.167.167,0,0,0,.179.08,1.747,1.747,0,0,0,1.142-1.4C1452.565,1722.383,1451.694,1723.176,1451.073,1723.129Z" transform="translate(-796.839 -128.378)" fill="#d8745d"/>
    <g id="Group_49814" data-name="Group 49814" transform="translate(653.378 1589.25)">
      <path id="Path_67111" data-name="Path 67111" d="M1444.466,1674.962a2.325,2.325,0,0,0-1.589.55.206.206,0,0,0-.011.306l.008.008a.206.206,0,0,0,.277.01,1.9,1.9,0,0,1,1.3-.45.208.208,0,0,0,.21-.182v-.008A.208.208,0,0,0,1444.466,1674.962Z" transform="translate(-1442.803 -1674.961)" fill="#442138"/>
    </g>
  </g>
</svg>
