<svg width="39" height="40" viewBox="0 0 39 40" fill="none" xmlns="http://www.w3.org/2000/svg">
<path d="M37.7292 28.6671C37.6971 32.2009 35.9141 35.5258 32.9104 37.4373C29.8907 39.3487 25.9874 39.5897 22.7749 37.9995C19.6749 36.4735 17.4743 33.4377 17.0245 30.0003C16.5908 26.5308 17.9401 23.0292 20.5905 20.7644C23.9797 17.857 28.9269 17.5358 32.7498 19.8167C33.2799 20.1379 33.7617 19.3027 33.2317 18.9814C29.5373 16.7809 24.8149 16.7808 21.1848 19.126C17.9722 21.2141 15.9805 24.8443 15.9805 28.6671C15.9805 32.5061 17.9722 36.1362 21.1848 38.2083C24.4455 40.3286 28.686 40.5695 32.1876 38.9151C36.139 37.0518 38.6287 33.004 38.6769 28.6511C38.709 28.0407 37.7453 28.0407 37.7292 28.6671Z" fill="#8A50A0"/>
<path d="M7.30832 30.0974C7.21195 28.2181 7.1156 26.3549 7.01923 24.4755C6.9871 23.8652 6.02335 23.8491 6.05547 24.4755C6.15185 26.3549 6.24819 28.2181 6.34457 30.0974C6.37669 30.7078 7.34045 30.7078 7.30832 30.0974Z" fill="#8A50A0"/>
<path d="M21.1691 16.7019C19.4825 16.3967 17.796 16.0594 16.1094 15.7703C12.9772 15.2562 9.98957 15.6899 6.92162 16.2521C6.10243 16.3967 5.26719 16.5894 4.448 16.6858C2.88993 16.8625 1.52459 17.5532 0.689339 18.9346C-0.258351 20.5248 0.0468373 22.6611 0.0468373 24.428C0.0468373 26.4679 0.0468373 28.5079 0.0468373 30.5478C0.0468373 30.8048 0.271713 31.0297 0.528714 31.0297C4.59254 31.0297 8.65639 31.0297 12.7202 31.0297C13.2985 31.0297 13.8767 31.0297 14.471 31.0297C15.0975 31.0297 15.0975 30.0659 14.471 30.0659C10.4072 30.0659 6.34338 30.0659 2.27956 30.0659C1.7013 30.0659 1.12303 30.0659 0.528714 30.0659C0.689339 30.2266 0.849965 30.3872 1.01059 30.5478C1.01059 28.9737 1.01059 27.3995 1.01059 25.8415C1.01059 24.2673 0.914215 22.645 1.01059 21.0709C1.12303 19.3201 2.48835 17.8584 4.2231 17.6496C5.01017 17.5532 5.78117 17.4247 6.55217 17.2801C9.29887 16.7822 11.9653 16.2521 14.7923 16.5413C16.8483 16.7501 18.8882 17.2319 20.9121 17.6014C21.5225 17.7459 21.7795 16.8143 21.1691 16.7019Z" fill="#8A50A0"/>
<path d="M6.5041 6.34136C6.55229 8.99169 8.17461 11.385 10.6804 12.3006C13.1701 13.2161 16.0613 12.413 17.7479 10.357C19.4345 8.301 19.6594 5.2973 18.2458 3.01641C16.8645 0.767656 14.1981 -0.372782 11.612 0.109095C8.64043 0.687347 6.56836 3.35373 6.5041 6.34136C6.48804 6.9678 7.4518 6.9678 7.46786 6.34136C7.51605 4.09261 8.88139 2.0366 11.0338 1.28166C13.1219 0.542782 15.4831 1.18528 16.9287 2.85579C18.4225 4.57448 18.6314 7.14449 17.4588 9.08806C16.3184 10.9995 14.0535 12.0436 11.869 11.642C9.31508 11.1601 7.51605 8.92744 7.46786 6.35743C7.46786 5.71493 6.5041 5.71493 6.5041 6.34136Z" fill="#8A50A0"/>
<path d="M24.6078 26.8858C23.4353 26.2433 21.9896 26.3075 21.1383 27.4319C20.4155 28.3796 20.3513 29.8734 21.1865 30.7569C21.7808 31.3833 22.5679 31.8973 23.2425 32.4434C24.0135 33.0699 24.7684 33.7606 25.5876 34.3388C26.712 35.1419 28.0774 35.1259 29.1054 34.1943C30.6634 32.7968 32.1091 31.2387 33.6029 29.761C35.0646 28.3314 36.6869 26.95 38.0201 25.408C39.4496 23.7375 38.1325 21.0551 35.9319 21.0872C35.3216 21.0872 34.7754 21.3281 34.3257 21.7136C33.4744 22.4204 32.7194 23.2878 31.9323 24.0588C30.2137 25.7614 28.495 27.448 26.7602 29.1506C26.9851 29.1506 27.21 29.1506 27.4348 29.1506C27.0654 28.8454 26.6959 28.5563 26.3426 28.2511C25.8607 27.8656 25.1861 28.5402 25.668 28.9257C26.0374 29.2309 26.4068 29.52 26.7602 29.8252C26.969 29.9859 27.2421 30.018 27.4348 29.8252C29.539 27.7692 31.6271 25.6972 33.7313 23.6411C34.4863 22.9023 35.3216 21.6976 36.5263 22.1795C37.2651 22.4686 37.8434 23.2878 37.6667 24.0909C37.5542 24.621 37.1206 24.9583 36.7511 25.3277C36.1889 25.8738 35.6267 26.436 35.0645 26.9822C34.0205 28.0102 32.9604 29.0542 31.9163 30.0822C30.8241 31.1584 29.7639 32.2507 28.6556 33.2947C27.3545 34.5316 26.3104 33.6963 25.1379 32.7326C24.4954 32.2185 23.869 31.7045 23.2264 31.1745C22.7124 30.7569 21.9415 30.3392 21.6684 29.7289C21.4275 29.1667 21.5559 28.4278 21.9414 27.962C22.5197 27.2713 23.4032 27.3034 24.126 27.705C24.6721 28.0262 25.154 27.191 24.6078 26.8858Z" fill="#8A50A0"/>
</svg>
