<svg width="42" height="40" viewBox="0 0 42 40" fill="none" xmlns="http://www.w3.org/2000/svg">
<path d="M24.3703 21.6027C23.1156 22.7434 21.8608 23.9004 20.6061 25.041C20.8831 25.1551 21.1601 25.2692 21.4372 25.3832C21.2416 23.7374 20.9971 22.0916 20.8342 20.4457C20.8016 20.185 20.769 20.5761 20.8342 20.3643C20.8668 20.2176 20.932 20.0872 20.9971 19.9406C21.209 19.3702 21.4208 18.7999 21.6327 18.2296C23.1156 14.2046 24.6147 10.1633 26.0976 6.13832C26.6028 4.78579 27.0916 3.43327 27.5968 2.08074C27.8575 1.38004 28.2975 0.793403 29.1612 1.02154C30.2204 1.28227 31.5729 1.75484 31.1818 3.10737C30.9048 4.01991 30.5137 4.91616 30.1878 5.79612C29.4545 7.76787 28.7375 9.72331 28.0042 11.6951C26.7657 15.0682 25.511 18.4414 24.2725 21.8146C24.0607 22.4012 25.0058 22.6619 25.2177 22.0753C26.3747 18.9629 27.5153 15.8341 28.6723 12.7217C29.813 9.62555 31.1492 6.52941 32.1269 3.36809C32.5343 2.06445 31.8825 1.00524 30.6604 0.532675C29.6012 0.125289 28.5094 -0.39615 27.4827 0.46751C26.6517 1.16821 26.3421 2.6674 25.9836 3.64512C24.4192 7.86565 22.8711 12.0862 21.3068 16.3067C20.9646 17.2192 20.6387 18.1155 20.2965 19.028C20.1661 19.3865 19.938 19.7939 19.8728 20.185C19.7424 20.902 20.0357 21.8309 20.1172 22.5479C20.2313 23.493 20.3453 24.4544 20.4757 25.3996C20.5246 25.8069 20.9809 26.0514 21.3068 25.7418C22.5615 24.6011 23.8163 23.4441 25.071 22.3034C25.5273 21.8634 24.8266 21.179 24.3703 21.6027Z" fill="#8A50A0"/>
<path d="M26.3111 4.19949C27.7777 4.73724 29.2443 5.29129 30.7109 5.82904C31.2975 6.04088 31.5583 5.09575 30.9717 4.88391C29.5051 4.34616 28.0385 3.79212 26.5719 3.25437C25.9852 3.04253 25.7245 3.98765 26.3111 4.19949Z" fill="#8A50A0"/>
<path d="M20.1842 20.7874C21.6508 21.3252 23.1174 21.8792 24.584 22.4169C25.1706 22.6288 25.4313 21.6836 24.8447 21.4718C23.3781 20.9341 21.9115 20.38 20.4449 19.8423C19.8583 19.6304 19.5975 20.5756 20.1842 20.7874Z" fill="#8A50A0"/>
<path d="M12.8172 35.1769C10.7151 35.1769 8.61296 35.1769 6.51085 35.1769C5.07685 35.1769 3.33324 35.4213 2.07849 34.5577C1.23113 33.9873 0.725958 32.9607 1.13334 31.983C1.60591 30.8423 2.90955 30.3046 4.06653 30.272C5.28869 30.2231 6.52716 30.272 7.74932 30.272C8.01004 30.272 8.23818 30.0438 8.23818 29.7831C8.23818 22.499 8.23818 15.1987 8.23818 7.91461C8.23818 6.8717 8.23818 5.82879 8.23818 4.80218C8.23818 4.54145 8.01004 4.31331 7.74932 4.31331C6.55975 4.31331 5.38647 4.28072 4.1969 4.31331C2.25774 4.3459 0.00897357 5.55176 0.00897357 7.75165C0.00897357 8.38717 0.986701 8.38717 0.986701 7.75165C0.986701 5.91026 3.0725 5.29104 4.55539 5.29104C5.6146 5.29104 6.69011 5.29104 7.74932 5.29104C7.58636 5.12809 7.42341 4.96513 7.26045 4.80218C7.26045 12.0862 7.26045 19.3866 7.26045 26.6707C7.26045 27.7136 7.26045 28.7565 7.26045 29.7831C7.42341 29.6201 7.58636 29.4572 7.74932 29.2942C6.44568 29.2942 5.12573 29.2128 3.8221 29.3106C1.75257 29.4735 -0.47989 31.1193 0.0904509 33.4333C0.970406 36.9368 5.82643 36.1709 8.49888 36.1709C9.93289 36.1709 11.3669 36.1709 12.8009 36.1709C13.4527 36.1546 13.4527 35.1769 12.8172 35.1769Z" fill="#8A50A0"/>
<path d="M31.8472 8.22433C33.2812 8.22433 34.7641 8.09396 36.1818 8.22433C37.2248 8.3221 37.0781 9.31613 37.0781 10.082C37.0781 10.8479 37.0781 11.6138 37.0781 12.3797C37.0781 13.0152 38.0558 13.0152 38.0558 12.3797C38.0558 11.4997 38.0558 10.6035 38.0558 9.7235C38.0558 8.72948 37.9254 7.67028 36.801 7.32808C36.0514 7.09994 35.0737 7.2466 34.2916 7.2466C33.4768 7.2466 32.662 7.2466 31.8472 7.2466C31.228 7.2466 31.228 8.22433 31.8472 8.22433Z" fill="#8A50A0"/>
<path d="M22.9346 7.24707C18.5675 7.24707 14.184 7.24707 9.8168 7.24707C9.18127 7.24707 8.54576 7.24707 7.91024 7.24707C7.27471 7.24707 7.27471 8.2248 7.91024 8.2248C12.2774 8.2248 16.6609 8.2248 21.0281 8.2248C21.6636 8.2248 22.2991 8.2248 22.9346 8.2248C23.5702 8.2248 23.5702 7.24707 22.9346 7.24707Z" fill="#8A50A0"/>
<path d="M0.98554 32.732C0.98554 25.4479 0.98554 18.1476 0.98554 10.8635C0.98554 9.82058 0.98554 8.77767 0.98554 7.75106C0.98554 7.11553 0.0078125 7.11553 0.0078125 7.75106C0.0078125 15.0351 0.0078125 22.3355 0.0078125 29.6196C0.0078125 30.6625 0.0078125 31.7054 0.0078125 32.732C0.0078125 33.3512 0.98554 33.3512 0.98554 32.732Z" fill="#8A50A0"/>
<path d="M37.2308 16.4526C34.6724 19.011 32.114 21.5694 29.5556 24.1278C25.4817 28.2017 21.3916 32.2918 17.3177 36.3657C16.3889 37.2945 15.4438 38.2397 14.5149 39.1685C14.2216 39.4618 14.4334 39.9996 14.8571 39.9996C22.3856 39.9996 29.9304 39.9996 37.4589 39.9996C38.5344 39.9996 39.6262 39.9996 40.7017 39.9996C40.9624 39.9996 41.1906 39.7714 41.1906 39.5107C41.1906 31.9822 41.1906 24.4374 41.1906 16.9089C41.1906 15.8334 41.1906 14.7416 41.1906 13.6661C41.1906 13.2424 40.6528 13.0143 40.3595 13.3239C39.3166 14.3668 38.2737 15.4097 37.2308 16.4526C36.7908 16.8926 37.4752 17.5933 37.9152 17.137C38.9581 16.0941 40.001 15.0512 41.0602 13.992C40.7832 13.878 40.5062 13.7639 40.2291 13.6498C40.2291 21.1783 40.2291 28.7231 40.2291 36.2516C40.2291 37.3271 40.2291 38.4189 40.2291 39.4944C40.3921 39.3315 40.555 39.1685 40.718 39.0056C33.1895 39.0056 25.6447 39.0056 18.1162 39.0056C17.0407 39.0056 15.9489 39.0056 14.8734 39.0056C14.9875 39.2826 15.1015 39.5596 15.2156 39.8366C17.774 37.2782 20.3324 34.7199 22.8908 32.1615C26.9646 28.0876 31.0548 23.9974 35.1287 19.9236C36.0575 18.9947 37.0027 18.0496 37.9315 17.1208C38.3715 16.6971 37.6708 16.0127 37.2308 16.4526Z" fill="#8A50A0"/>
<path d="M26.4422 35.208C29.3428 32.3074 32.2434 29.4068 35.1277 26.5225C35.5514 26.0988 35.9751 25.6752 36.3987 25.2515C36.1217 25.1374 35.8447 25.0234 35.5677 24.9093C35.5677 28.2336 35.5677 31.5415 35.5677 34.8658C35.7307 34.7029 35.8936 34.5399 36.0566 34.3769C32.7323 34.3769 29.4243 34.3769 26.1 34.3769C25.4645 34.3769 25.4645 35.3547 26.1 35.3547C29.4243 35.3547 32.7323 35.3547 36.0566 35.3547C36.3173 35.3547 36.5454 35.1265 36.5454 34.8658C36.5454 31.5415 36.5454 28.2336 36.5454 24.9093C36.5454 24.4856 36.0077 24.2575 35.7143 24.5671C32.8138 27.4677 29.9132 30.3683 27.0289 33.2526C26.6052 33.6762 26.1815 34.0999 25.7578 34.5236C25.3016 34.9636 26.0023 35.648 26.4422 35.208Z" fill="#8A50A0"/>
<path d="M10.7175 28.4793C11.6626 28.1208 12.6892 27.7297 13.7321 27.8275C14.6284 27.909 14.9706 28.5445 15.7039 28.8867C16.2579 29.1474 16.7305 28.9519 17.2357 28.6912C18.0993 28.2186 18.9304 27.6971 19.7941 27.2083C20.3481 26.8987 19.8429 26.0513 19.3052 26.3609C18.5393 26.8009 17.7734 27.2409 17.0075 27.6971C16.5024 27.9905 16.2091 28.1045 15.7365 27.7134C15.5084 27.5179 15.3128 27.3386 15.0521 27.2083C13.5855 26.4587 11.8908 27.0127 10.4731 27.5342C9.88642 27.7623 10.1309 28.7074 10.7175 28.4793Z" fill="#8A50A0"/>
</svg>
