<svg width="31" height="40" viewBox="0 0 31 40" fill="none" xmlns="http://www.w3.org/2000/svg">
<path d="M15.2094 12.8639C17.8264 12.8639 20.4601 12.8639 23.077 12.8639C23.7313 12.8639 23.7313 11.8574 23.077 11.8574C20.4601 11.8574 17.8264 11.8574 15.2094 11.8574C14.5552 11.8574 14.5552 12.8639 15.2094 12.8639Z" fill="#8A50A0"/>
<path d="M7.25684 12.9482C7.82721 13.4514 8.39758 13.9547 8.98471 14.458C9.18602 14.6257 9.50474 14.676 9.68927 14.458C10.6958 13.3172 11.6856 12.1597 12.6921 11.019C13.1115 10.5325 12.4069 9.81121 11.9875 10.3145C10.981 11.4552 9.99123 12.6127 8.98471 13.7534C9.21957 13.7534 9.45441 13.7534 9.68927 13.7534C9.11891 13.2502 8.54858 12.7469 7.96144 12.2436C7.47496 11.8075 6.75358 12.512 7.25684 12.9482Z" fill="#8A50A0"/>
<path d="M15.2094 21.5026C17.8264 21.5026 20.4601 21.5026 23.077 21.5026C23.7313 21.5026 23.7313 20.4961 23.077 20.4961C20.4601 20.4961 17.8264 20.4961 15.2094 20.4961C14.5552 20.4961 14.5552 21.5026 15.2094 21.5026Z" fill="#8A50A0"/>
<path d="M7.25684 21.5703C7.82721 22.0735 8.39758 22.5768 8.98471 23.08C9.18602 23.2478 9.50474 23.2981 9.68927 23.08C10.6958 21.9393 11.6856 20.7818 12.6921 19.6411C13.1115 19.1546 12.4069 18.4333 11.9875 18.9365C10.981 20.0773 9.99123 21.2348 8.98471 22.3755C9.21957 22.3755 9.45441 22.3755 9.68927 22.3755C9.11891 21.8722 8.54858 21.369 7.96144 20.8657C7.47496 20.4463 6.75358 21.1509 7.25684 21.5703Z" fill="#8A50A0"/>
<path d="M15.2094 30.1423C17.8264 30.1423 20.4601 30.1423 23.077 30.1423C23.7313 30.1423 23.7313 29.1357 23.077 29.1357C20.4601 29.1357 17.8264 29.1357 15.2094 29.1357C14.5552 29.1357 14.5552 30.1423 15.2094 30.1423Z" fill="#8A50A0"/>
<path d="M7.25684 30.2089C7.82721 30.7122 8.39758 31.2155 8.98471 31.7187C9.18602 31.8865 9.50474 31.9368 9.68927 31.7187C10.6958 30.578 11.6856 29.4205 12.6921 28.2798C13.1115 27.7933 12.4069 27.0719 11.9875 27.5752C10.981 28.7159 9.99123 29.8734 8.98471 31.0142C9.21957 31.0142 9.45441 31.0142 9.68927 31.0142C9.11891 30.5109 8.54858 30.0076 7.96144 29.5044C7.47496 29.085 6.75358 29.7896 7.25684 30.2089Z" fill="#8A50A0"/>
<path d="M6.86717 2.06014C5.8942 2.06014 4.90446 2.06014 3.93149 2.06014C3.0424 2.06014 1.86811 1.87561 1.06289 2.34532C-0.144931 3.04988 0.00603826 4.39191 0.00603826 5.58296C0.00603826 9.81034 0.00603826 14.0209 0.00603826 18.2483C0.00603826 23.2809 0.00603826 28.2967 0.00603826 33.3293C0.00603826 34.6714 0.00603826 36.0134 0.00603826 37.3554C0.00603826 38.8484 0.79447 39.922 2.38813 39.9556C10.2725 40.0562 18.1737 39.9556 26.0581 39.9556C27.6182 39.9556 30.0507 40.375 30.5875 38.3955C30.8056 37.5735 30.6713 36.5502 30.6713 35.7115C30.6713 31.2324 30.6713 26.7534 30.6713 22.2744C30.6713 17.4096 30.6713 12.5447 30.6713 7.67987C30.6713 6.5727 30.6881 5.46553 30.6713 4.35836C30.6546 3.46927 30.2688 2.66405 29.43 2.27822C28.6248 1.90916 27.4505 2.07691 26.5949 2.07691C25.6723 2.07691 24.7329 2.07691 23.8103 2.07691C23.156 2.07691 23.156 3.08343 23.8103 3.08343C24.7329 3.08343 25.6723 3.08343 26.5949 3.08343C27.4002 3.08343 29.0274 2.79825 29.5139 3.63701C29.8829 4.27448 29.6648 5.46552 29.6648 6.15331C29.6648 10.3639 29.6648 14.5578 29.6648 18.7684C29.6648 23.5326 29.6648 28.2968 29.6648 33.0442C29.6648 34.4197 29.6648 35.7953 29.6648 37.1709C29.6648 37.389 29.6816 37.6071 29.6648 37.8251C29.5642 38.8652 28.7757 38.9491 27.9705 38.9491C20.3881 38.9491 12.8224 38.9491 5.23993 38.9491C4.36762 38.9491 3.51207 38.9491 2.63976 38.9491C1.85132 38.9491 1.11321 38.8149 1.01256 37.8251C0.945457 37.0535 1.01256 36.2315 1.01256 35.443C1.01256 31.0982 1.01256 26.7702 1.01256 22.4254C1.01256 17.7283 1.01256 13.0312 1.01256 8.3341C1.01256 7.09273 1.01256 5.85136 1.01256 4.60999C1.01256 4.17383 0.979007 3.75445 1.34806 3.40216C1.95198 2.79825 3.49533 3.06666 4.267 3.06666C5.13931 3.06666 6.01161 3.06666 6.88392 3.06666C7.50461 3.06666 7.52141 2.06014 6.86717 2.06014Z" fill="#8A50A0"/>
<path d="M22.888 5.38152C24.5488 5.38152 26.1928 5.38152 27.8535 5.38152C27.6858 5.21377 27.518 5.04601 27.3503 4.87826C27.3503 8.51851 27.3503 12.1755 27.3503 15.8158C27.3503 21.5865 27.3503 27.374 27.3503 33.1447C27.3503 34.4699 27.3503 35.7952 27.3503 37.1372C27.518 36.9695 27.6858 36.8017 27.8535 36.634C20.5227 36.634 13.2087 36.634 5.87784 36.634C4.85455 36.634 3.83124 36.634 2.80795 36.634C2.9757 36.8017 3.14345 36.9695 3.31121 37.1372C3.31121 33.497 3.31121 29.8399 3.31121 26.1997C3.31121 20.429 3.31121 14.6415 3.31121 8.87079C3.31121 7.54554 3.31121 6.22029 3.31121 4.87826C3.14345 5.04601 2.9757 5.21377 2.80795 5.38152C4.4687 5.38152 6.1127 5.38152 7.77346 5.38152C8.4277 5.38152 8.4277 4.375 7.77346 4.375C6.1127 4.375 4.4687 4.375 2.80795 4.375C2.53954 4.375 2.30469 4.60985 2.30469 4.87826C2.30469 8.51851 2.30469 12.1755 2.30469 15.8158C2.30469 21.5865 2.30469 27.374 2.30469 33.1447C2.30469 34.4699 2.30469 35.7952 2.30469 37.1372C2.30469 37.4056 2.53954 37.6405 2.80795 37.6405C10.1388 37.6405 17.4528 37.6405 24.7836 37.6405C25.8069 37.6405 26.8302 37.6405 27.8535 37.6405C28.1219 37.6405 28.3568 37.4056 28.3568 37.1372C28.3568 33.497 28.3568 29.8399 28.3568 26.1997C28.3568 20.429 28.3568 14.6415 28.3568 8.87079C28.3568 7.54554 28.3568 6.22029 28.3568 4.87826C28.3568 4.60985 28.1219 4.375 27.8535 4.375C26.1928 4.375 24.5488 4.375 22.888 4.375C22.2506 4.375 22.2506 5.38152 22.888 5.38152Z" fill="#8A50A0"/>
<path d="M18.9607 4.10624C17.4006 4.10624 15.8237 4.10624 14.2636 4.10624C12.5526 4.10624 10.0866 4.52562 9.3988 2.4287C9.21427 1.84157 9.16395 1.15378 9.95239 1.05312C10.1201 1.03635 10.3047 1.05312 10.4892 1.05312C11.2609 1.05312 12.0493 1.05312 12.821 1.05312C14.8173 1.05312 16.8303 1.05312 18.8265 1.05312C19.4304 1.05312 20.1015 0.969247 20.6886 1.05312C21.5609 1.18733 21.4267 2.10996 21.1415 2.71388C20.7557 3.58619 19.9002 4.07269 18.9607 4.10624C18.3233 4.12301 18.3065 5.12953 18.9607 5.11276C20.6215 5.04565 22.0642 3.93848 22.3493 2.26095C22.5506 1.05313 21.9132 0.0801488 20.6383 0.0298228C18.5749 -0.0372785 16.4948 0.0298228 14.4146 0.0298228C13.2739 0.0298228 12.1332 0.0298228 10.9925 0.0298228C10.355 0.0298228 9.58332 -0.070823 9.01295 0.298234C7.6206 1.18733 8.39227 3.28424 9.34846 4.17333C10.1872 4.945 11.177 5.11276 12.2506 5.11276C14.4817 5.11276 16.7129 5.11276 18.944 5.11276C19.5982 5.11276 19.5982 4.10624 18.9607 4.10624Z" fill="#8A50A0"/>
</svg>
