<svg width="33" height="40" viewBox="0 0 33 40" fill="none" xmlns="http://www.w3.org/2000/svg">
<path d="M32.1064 39.5227C32.1064 36.1484 32.1064 32.7741 32.1064 29.3998C32.1064 29.1475 31.8856 28.9268 31.6334 28.9268C29.0317 28.9268 26.4458 28.9268 23.8441 28.9268C24.0018 29.0845 24.1595 29.2421 24.3172 29.3998V29.3841C24.3172 28.7691 23.3711 28.7691 23.3711 29.3841C23.3711 32.7583 23.3711 36.1484 23.3711 39.5227C23.3711 40.1376 24.3172 40.1376 24.3172 39.5227C24.3172 36.1484 24.3172 32.7583 24.3172 29.3841C24.3172 28.7691 23.3711 28.7691 23.3711 29.3841V29.3998C23.3711 29.6521 23.5918 29.8728 23.8441 29.8728C26.4458 29.8728 29.0317 29.8728 31.6334 29.8728C31.4757 29.7152 31.318 29.5575 31.1603 29.3998C31.1603 32.7741 31.1603 36.1484 31.1603 39.5227C31.1603 40.1376 32.1064 40.1376 32.1064 39.5227Z" fill="#8A50A0"/>
<path d="M16.0552 34.3203C13.4536 34.3203 10.8677 34.3203 8.266 34.3203C8.01372 34.3203 7.79297 34.5411 7.79297 34.7933C7.79297 36.3701 7.79297 37.9626 7.79297 39.5394C7.79297 40.1543 8.73903 40.1543 8.73903 39.5394C8.73903 37.9626 8.73903 36.3701 8.73903 34.7933C8.58135 34.951 8.42368 35.1087 8.266 35.2664C10.8677 35.2664 13.4536 35.2664 16.0552 35.2664C16.6544 35.2664 16.6544 34.3203 16.0552 34.3203Z" fill="#8A50A0"/>
<path d="M8.25042 39.0498C5.64876 39.0498 3.06287 39.0498 0.461204 39.0498C-0.153735 39.0498 -0.153735 39.9959 0.461204 39.9959C3.06287 39.9959 5.64876 39.9959 8.25042 39.9959C8.86536 39.9959 8.86536 39.0498 8.25042 39.0498Z" fill="#8A50A0"/>
<path d="M23.8443 31.6221C21.2426 31.6221 18.6567 31.6221 16.0551 31.6221C16.2127 31.7798 16.3704 31.9375 16.5281 32.0952V32.0794C16.5281 31.4644 15.582 31.4644 15.582 32.0794C15.582 34.5549 15.582 37.0462 15.582 39.5217C15.582 40.1367 16.5281 40.1367 16.5281 39.5217C16.5281 37.0462 16.5281 34.5549 16.5281 32.0794C16.5281 31.4644 15.582 31.4644 15.582 32.0794V32.0952C15.582 32.3474 15.8028 32.5682 16.0551 32.5682C18.6567 32.5682 21.2426 32.5682 23.8443 32.5682C24.4435 32.5682 24.4592 31.6221 23.8443 31.6221Z" fill="#8A50A0"/>
<path d="M16.3227 3.57205C16.3857 5.13305 15.3135 6.53637 13.7052 6.66251C12.16 6.78865 10.7409 5.59031 10.6148 4.04508C10.4886 2.54715 11.5924 1.17537 13.0745 0.970388C14.6986 0.749641 16.1492 1.96375 16.3227 3.57205C16.3857 4.17122 17.3318 4.17122 17.2687 3.57205C17.048 1.50649 15.3609 -0.133344 13.2322 0.00856453C11.1667 0.150473 9.52681 1.97952 9.66872 4.04508C9.81063 6.11065 11.6397 7.75048 13.7052 7.60857C15.8023 7.46666 17.3476 5.65338 17.2687 3.57205C17.2372 2.97288 16.2911 2.97288 16.3227 3.57205Z" fill="#8A50A0"/>
<path d="M12.7772 21.3425C13.4868 21.6736 14.1806 22.0205 14.8901 22.3674C15.2212 22.5251 15.5524 22.667 15.8835 22.8404C16.2777 23.0612 16.325 23.1085 16.4511 23.5342C16.8453 24.7956 17.1607 26.1832 17.6968 27.3973C18.4694 29.1317 20.803 29.3051 21.7018 27.5707C22.2063 26.5931 21.6229 25.4894 21.3233 24.5276C20.9291 23.2977 20.6138 22.0363 20.1565 20.8222C19.7623 19.7815 18.9109 19.4661 17.9648 19.0089C16.6403 18.3782 15.3316 17.7475 14.0071 17.101C13.4553 16.8329 12.9822 17.6529 13.5341 17.9209C14.4959 18.3939 15.4578 18.8512 16.4196 19.3084C16.8926 19.545 17.3656 19.7657 17.8544 20.0022C18.2802 20.2072 18.8163 20.3649 19.1001 20.7748C19.3681 21.1533 19.447 21.6894 19.5731 22.1151C19.7308 22.6354 19.9042 23.1558 20.0619 23.6603C20.2196 24.1649 20.3773 24.6852 20.5507 25.1898C20.6926 25.6471 21.008 26.2462 20.9764 26.7192C20.9134 27.9334 19.3208 28.1856 18.6901 27.2711C18.4378 26.8927 18.3432 26.3881 18.2013 25.9624C18.0279 25.3948 17.8387 24.8271 17.6652 24.2595C17.5233 23.7865 17.3656 23.3134 17.2237 22.8404C17.0661 22.3516 16.9715 22.3043 16.4984 22.0678C15.4105 21.5475 14.3382 21.0271 13.2503 20.5068C12.6984 20.2703 12.2254 21.0744 12.7772 21.3425Z" fill="#8A50A0"/>
<path d="M9.51184 12.3072C8.81807 12.733 8.14006 13.1587 7.44628 13.6002C7.194 13.7579 6.81557 13.8998 6.62636 14.1205C6.38985 14.4043 6.38985 14.8774 6.32678 15.2243C6.15334 16.1073 6.02719 17.0375 5.79068 17.9048C5.56993 18.7089 4.5608 19.3396 4.00893 18.3463C3.78819 17.9521 4.0247 17.3371 4.10354 16.9114C4.19814 16.4699 4.27698 16.0284 4.37159 15.6027C4.5135 14.8774 4.5608 13.9944 4.84462 13.3006C5.11267 12.6068 6.24794 12.1653 6.84711 11.8027C7.22554 11.5662 7.61973 11.3296 7.99815 11.0931C8.7077 10.6516 9.41724 10.1786 10.1583 9.76864C11.404 9.07486 12.9492 9.46906 14.2421 9.89479C14.9832 10.1471 15.5351 10.6516 16.1185 11.1562C16.8123 11.7554 17.4903 12.3546 18.1841 12.938C18.799 13.4583 19.4928 13.1902 20.2654 13.1114C21.038 13.0326 22.0944 12.733 22.8671 12.9064C23.9866 13.1587 23.7658 14.5778 22.7252 14.7197C21.7476 14.8458 20.77 14.9247 19.7924 15.0193C19.3509 15.0666 18.8778 15.1612 18.4363 15.1612C17.8845 15.1612 17.648 14.8931 17.2538 14.5462C16.4969 13.8682 15.7085 13.206 14.9359 12.5438C14.4787 12.1496 13.8006 12.8118 14.2737 13.206C15.1251 13.9471 15.9766 14.7039 16.8438 15.4292C17.5849 16.0599 18.1683 16.1388 19.1144 16.0284C20.2181 15.9023 21.3376 15.7919 22.4413 15.6815C23.2612 15.6027 23.9393 15.4765 24.3492 14.6882C25.1218 13.2218 23.9077 11.8657 22.4098 11.9446C21.9052 11.9604 21.4007 12.055 20.8961 12.1023C20.3758 12.1496 19.5874 12.4018 19.0828 12.2915C18.594 12.1811 18.121 11.5977 17.7426 11.2666C17.2853 10.8724 16.8123 10.4782 16.355 10.0682C15.0936 8.96449 13.2015 8.34955 11.5143 8.41262C10.2214 8.45993 9.21226 9.23255 8.15583 9.87902C7.6828 10.1628 7.20977 10.4624 6.73674 10.762C5.96412 11.235 4.84462 11.6923 4.27699 12.4334C3.78819 13.0641 3.77241 14.0102 3.63051 14.767C3.52013 15.3504 3.39399 15.918 3.28362 16.5014C3.17324 17.0375 2.96827 17.6367 3.03134 18.1886C3.26785 19.923 5.66454 20.2857 6.50022 18.8035C7.03632 17.8575 7.08363 16.5014 7.28861 15.445C7.33591 15.1927 7.33591 14.8931 7.50936 14.6724C7.6828 14.4516 8.18736 14.2467 8.43964 14.1047C8.97574 13.7736 9.51185 13.4268 10.0479 13.0956C10.5052 12.796 10.0322 11.9761 9.51184 12.3072Z" fill="#8A50A0"/>
<path d="M9.27324 12.7171C9.21017 14.0258 9.1471 15.3345 9.06826 16.659C9.00519 18.0466 9.0525 19.5129 8.78445 20.8847C8.611 21.752 8.45332 22.6192 8.27988 23.4706C8.18527 23.991 8.15374 24.1644 7.69647 24.4482C7.22344 24.7478 6.76619 25.0316 6.29316 25.3312C5.18942 26.025 3.50228 26.6872 3.06079 28.059C2.69813 29.2101 3.36037 30.3926 4.44834 30.8499C5.94627 31.4806 7.25498 30.1877 8.43756 29.4308C9.21017 28.942 9.98278 28.4374 10.7712 27.9644C11.3703 27.6018 11.9853 27.2549 12.3006 26.5926C12.6318 25.8989 12.6791 25.0316 12.8367 24.2748C13.0417 23.2026 13.2625 22.1146 13.4674 21.0424C13.5778 20.4432 12.6791 20.191 12.5529 20.7901C12.2533 22.3196 11.9537 23.8333 11.6699 25.3628C11.528 26.1511 11.2757 26.5611 10.582 26.9711C9.96702 27.3495 9.33631 27.7437 8.72137 28.1221C8.02759 28.5636 7.31805 29.0051 6.62427 29.4466C5.9778 29.8565 5.3944 30.3296 4.62178 29.8881C3.95954 29.5097 3.69149 28.7055 4.10145 28.0275C4.51141 27.3337 5.45747 26.9553 6.11971 26.5453C6.79772 26.1196 7.47573 25.6939 8.15374 25.2682C8.37449 25.1262 8.72137 25.0001 8.87905 24.7951C9.0998 24.5271 9.0998 24.054 9.16287 23.7229C9.38362 22.6192 9.69897 21.4839 9.80934 20.3644C9.91972 19.103 9.93549 17.8258 9.99856 16.5644C10.0616 15.2715 10.1247 13.9943 10.1878 12.7013C10.2508 12.1022 9.30477 12.1022 9.27324 12.7171Z" fill="#8A50A0"/>
<path d="M14.0985 12.7498C13.8305 14.2951 13.5624 15.8403 13.2944 17.3855C13.184 17.9847 14.0985 18.237 14.2089 17.6378C14.477 16.0926 14.745 14.5473 15.0131 13.0021C15.1234 12.4029 14.2089 12.1507 14.0985 12.7498Z" fill="#8A50A0"/>
</svg>
