<svg width="49" height="40" viewBox="0 0 49 40" fill="none" xmlns="http://www.w3.org/2000/svg">
<path d="M6.32939 27.7018C3.19048 27.7018 0.634766 25.1461 0.634766 22.0072C0.634766 18.8682 3.19048 16.3125 6.32939 16.3125C9.46831 16.3125 12.024 18.8682 12.024 22.0072C12.0069 25.1632 9.46831 27.7018 6.32939 27.7018ZM6.32939 17.3245C3.73936 17.3245 1.6296 19.4343 1.6296 22.0243C1.6296 24.6143 3.73936 26.7241 6.32939 26.7241C8.91943 26.7241 11.0292 24.6143 11.0292 22.0243C11.012 19.4343 8.91943 17.3245 6.32939 17.3245Z" fill="#8A50A0"/>
<path d="M0.497427 40.0002C0.222987 40.0002 0 39.7773 0 39.5028V33.0363C0 29.5544 2.83017 26.707 6.32928 26.707C10.8061 26.707 12.1783 30.0518 13.1045 32.2816C13.5162 33.2593 13.8935 34.1855 14.3052 34.1855H19.9998C21.4578 34.1855 22.6413 35.3691 22.6413 36.827C22.6413 38.285 21.4578 39.4685 19.9998 39.4685H12.7615C10.4802 39.4685 7.65002 34.7859 7.04968 32.3502C6.98107 32.0758 7.15261 31.8185 7.4099 31.7499C7.68434 31.6813 7.94163 31.8528 8.01024 32.1101C8.64488 34.6143 11.3035 38.4737 12.7615 38.4737H19.9998C20.9089 38.4737 21.6465 37.7361 21.6465 36.827C21.6465 35.9179 20.9089 35.1804 19.9998 35.1804H14.3052C13.2418 35.1804 12.7443 34.014 12.1954 32.659C11.2864 30.4463 10.1371 27.7019 6.34643 27.7019C3.41335 27.7019 1.012 30.0861 1.012 33.0363V39.5028C0.99485 39.7773 0.771868 40.0002 0.497427 40.0002Z" fill="#8A50A0"/>
<path d="M42.3841 27.7018C39.2452 27.7018 36.6895 25.1461 36.6895 22.0072C36.6895 18.8682 39.2452 16.3125 42.3841 16.3125C45.523 16.3125 48.0787 18.8682 48.0787 22.0072C48.0787 25.1632 45.523 27.7018 42.3841 27.7018ZM42.3841 17.3245C39.7941 17.3245 37.6843 19.4343 37.6843 22.0243C37.6843 24.6143 39.7941 26.7241 42.3841 26.7241C44.9741 26.7241 47.0839 24.6143 47.0839 22.0243C47.0839 19.4343 44.9741 17.3245 42.3841 17.3245Z" fill="#8A50A0"/>
<path d="M48.2166 40.0002C47.9422 40.0002 47.7192 39.7773 47.7192 39.5028V33.0363C47.7192 30.1032 45.335 27.7019 42.3847 27.7019C38.5769 27.7019 37.4448 30.4463 36.5357 32.659C35.9697 34.014 35.4894 35.1804 34.426 35.1804H28.7313C27.8223 35.1804 27.0847 35.9179 27.0847 36.827C27.0847 37.7361 27.8223 38.4737 28.7313 38.4737H35.9697C37.4448 38.4737 40.1035 34.6315 40.721 32.1101C40.7896 31.8356 41.064 31.6813 41.3213 31.7499C41.5957 31.8185 41.7501 32.0929 41.6815 32.3502C41.064 34.7859 38.2338 39.4685 35.9697 39.4685H28.7313C27.2734 39.4685 26.0898 38.285 26.0898 36.827C26.0898 35.3691 27.2734 34.1855 28.7313 34.1855H34.426C34.8376 34.1855 35.215 33.2593 35.6267 32.2816C36.5529 30.0689 37.9251 26.707 42.4019 26.707C45.8839 26.707 48.7312 29.5372 48.7312 33.0363V39.5028C48.714 39.7773 48.491 40.0002 48.2166 40.0002Z" fill="#8A50A0"/>
<path d="M13.9966 20.6859C13.8765 20.6859 13.7565 20.6345 13.6536 20.5487C13.4992 20.4115 13.4477 20.2057 13.5335 20.017L15.6947 14.2023C14.2711 12.6757 13.4992 10.7889 13.4992 8.8507C13.4992 3.96223 18.3534 0 24.3224 0C30.2915 0 35.1457 3.97938 35.1457 8.8507C35.1457 11.0805 34.1337 13.2074 32.2984 14.8369C30.2572 16.6551 27.3413 17.7014 24.3224 17.7014C23.4477 17.7014 22.59 17.6156 21.7496 17.4441C21.5952 17.4098 21.4408 17.3755 21.2864 17.3412L14.2025 20.6173C14.151 20.6688 14.0824 20.6859 13.9966 20.6859ZM24.3224 0.994855C18.9022 0.994855 14.494 4.52826 14.494 8.8507C14.494 10.6517 15.2316 12.3327 16.621 13.7392C16.7582 13.8764 16.8096 14.0822 16.741 14.2709L14.8886 19.2451L21.0291 16.3978C21.1321 16.3463 21.2521 16.3464 21.3551 16.3635C21.5437 16.415 21.7496 16.4493 21.9382 16.5007C22.7101 16.6551 23.5163 16.7409 24.3224 16.7409C27.1012 16.7409 29.7769 15.7803 31.6466 14.1165C33.2589 12.6757 34.1508 10.8061 34.1508 8.86785C34.1508 4.51111 29.7426 0.994855 24.3224 0.994855Z" fill="#8A50A0"/>
<path d="M34.4076 26.0896C34.339 26.0896 34.2704 26.0724 34.2018 26.0381L29.8622 24.0313C29.2618 24.1685 28.6272 24.2371 27.9926 24.2371C24.1847 24.2371 21.0801 21.6814 21.0801 18.5425C21.0801 17.9421 21.2001 17.359 21.406 16.7929C21.4917 16.5699 21.7319 16.4327 21.972 16.4842C22.7439 16.6385 23.55 16.7243 24.3562 16.7243C27.1349 16.7243 29.8107 15.7638 31.6803 14.1C31.8519 13.9456 32.092 13.9285 32.2807 14.0485C33.9616 15.1291 34.9393 16.7758 34.9393 18.5425C34.9393 19.7603 34.459 20.9438 33.6014 21.9215L34.905 25.4378C34.9736 25.6265 34.9222 25.8323 34.7849 25.9695C34.6477 26.0381 34.5276 26.0896 34.4076 26.0896ZM29.8965 23.0021C29.9651 23.0021 30.0508 23.0193 30.1023 23.0536L33.5157 24.6316L32.5208 21.973C32.4522 21.7843 32.5037 21.5785 32.6409 21.4413C33.4642 20.6179 33.9102 19.5888 33.9102 18.5425C33.9102 17.2217 33.2241 15.9868 32.0062 15.0948C29.9822 16.7586 27.2035 17.702 24.3219 17.702C23.6015 17.702 22.8811 17.6505 22.1778 17.5305C22.0921 17.8564 22.0406 18.1994 22.0406 18.5253C22.0406 21.1154 24.6993 23.2251 27.9754 23.2251C28.5929 23.2251 29.1932 23.1565 29.7764 23.0021C29.8107 23.0021 29.8622 23.0021 29.8965 23.0021Z" fill="#8A50A0"/>
</svg>
