<svg width="36" height="40" viewBox="0 0 36 40" fill="none" xmlns="http://www.w3.org/2000/svg">
<path d="M14.1794 24.9129C14.3329 27.2609 14.5017 29.6243 14.6552 31.9724C14.7626 33.5531 14.87 35.1492 14.9774 36.7299C15.0235 37.4512 14.9467 38.3106 15.1616 39.0165C15.5453 40.321 17.479 39.9527 18.4918 39.9527C19.3206 39.9527 20.1493 39.9527 20.978 39.9527C21.4077 39.9527 21.9142 40.0141 22.3132 39.8913C23.3261 39.569 23.2187 38.4334 23.28 37.5893C23.3721 36.1467 23.4795 34.7041 23.5716 33.2615C23.7558 30.4838 23.94 27.6906 24.1241 24.9129C24.1702 24.3144 23.2493 24.3297 23.2033 24.9129C23.0652 27.0154 22.9271 29.1179 22.7889 31.2051C22.6815 32.7704 22.5741 34.3358 22.482 35.9012C22.4206 36.7452 22.5127 37.7735 22.2978 38.6022C22.2058 38.9705 21.9756 39.0012 21.6533 39.0319C21.0394 39.0933 20.3795 39.0319 19.7656 39.0319C18.9983 39.0319 18.231 39.0319 17.4636 39.0319C17.0799 39.0319 16.5428 39.1547 16.2205 38.9091C15.7908 38.5715 15.9443 37.3438 15.9136 36.8373C15.8215 35.3947 15.7141 33.9368 15.622 32.4942C15.4532 29.962 15.2844 27.4297 15.1156 24.8975C15.0542 24.3297 14.1334 24.3297 14.1794 24.9129Z" fill="#8A50A0"/>
<path d="M14.6403 29.2862C13.0596 29.2862 11.97 27.9971 11.9393 26.4778C11.9086 25.5416 11.9393 24.6208 11.9393 23.6846C11.9393 22.902 11.7858 21.9044 12.0467 21.1524C12.5225 19.8019 13.8884 19.7559 15.0854 19.541C16.1597 19.3415 17.2646 19.0806 18.3543 19.0192C19.7201 18.9271 21.0246 19.142 22.3598 19.3875C23.2652 19.5564 24.7539 19.587 25.5059 20.1395C26.488 20.8455 26.3806 21.9351 26.3806 22.994C26.3806 24.1143 26.3806 25.25 26.3806 26.3703C26.3653 27.9203 25.3217 29.2862 23.6796 29.2862C23.0811 29.2862 23.0811 30.207 23.6796 30.207C25.3677 30.207 26.9024 28.9793 27.2247 27.3218C27.4242 26.3089 27.3014 25.1733 27.3014 24.145C27.3014 23.1628 27.4549 21.9811 27.1786 21.0143C26.9484 20.1856 26.3499 19.495 25.5826 19.1267C25.0455 18.8658 24.4776 18.8504 23.9098 18.743C22.6514 18.5128 21.3622 18.2212 20.0884 18.1138C18.477 17.991 16.927 18.2826 15.3463 18.5742C14.0879 18.8044 12.676 18.8197 11.7705 19.8479C10.9418 20.7994 11.0185 21.9505 11.0185 23.1168C11.0185 24.2985 10.9725 25.4956 11.0185 26.6773C11.0952 28.6109 12.6913 30.207 14.6403 30.207C15.2389 30.207 15.2389 29.2862 14.6403 29.2862Z" fill="#8A50A0"/>
<path d="M22.3422 13.6939C22.2961 15.4281 20.9303 16.8861 19.15 16.8861C17.4005 16.8861 15.9733 15.4435 15.9579 13.6939C15.9426 11.9598 17.4159 10.5018 19.15 10.5018C20.9303 10.5018 22.2808 11.9598 22.3422 13.6939C22.3575 14.2925 23.2783 14.2925 23.263 13.6939C23.2169 11.9905 22.2194 10.4711 20.608 9.85725C18.9812 9.24338 17.0936 9.74982 15.9886 11.085C13.6099 13.9855 16.2342 18.4054 19.9174 17.7301C21.8818 17.3772 23.2169 15.643 23.263 13.6939C23.2783 13.0954 22.3575 13.1108 22.3422 13.6939Z" fill="#8A50A0"/>
<path d="M19.6103 39.5065C19.6103 36.6213 19.6103 33.7361 19.6103 30.8356C19.6103 30.2371 18.6895 30.2371 18.6895 30.8356C18.6895 33.7208 18.6895 36.606 18.6895 39.5065C18.6895 40.1051 19.6103 40.1051 19.6103 39.5065Z" fill="#8A50A0"/>
<path d="M15.4659 9.58021C15.4659 8.47525 15.4659 7.38563 15.4659 6.28066C15.3124 6.43413 15.1589 6.5876 15.0055 6.74106C15.8342 6.74106 16.6629 6.74106 17.4916 6.74106C17.8139 6.74106 18.1055 6.34205 17.8907 6.05046C16.4174 4.10142 14.9441 2.16773 13.4554 0.218691C13.2252 -0.0728971 12.8876 -0.0728971 12.6574 0.218691C11.1841 2.16773 9.71083 4.10142 8.2222 6.05046C8.00734 6.34205 8.29894 6.74106 8.62122 6.74106C9.44994 6.74106 10.2787 6.74106 11.1074 6.74106C10.9539 6.5876 10.8005 6.43413 10.647 6.28066C10.647 9.58021 10.647 12.8798 10.647 16.1793C10.647 16.7778 11.5678 16.7778 11.5678 16.1793C11.5678 12.8798 11.5678 9.58021 11.5678 6.28066C11.5678 6.03511 11.3529 5.82026 11.1074 5.82026C10.2787 5.82026 9.44994 5.82026 8.62122 5.82026C8.75934 6.05046 8.88211 6.28066 9.02023 6.51086C10.4935 4.56182 11.9668 2.62813 13.4554 0.679094C13.1946 0.679094 12.9183 0.679094 12.6574 0.679094C14.1307 2.62813 15.604 4.56182 17.0926 6.51086C17.2307 6.28066 17.3535 6.05046 17.4916 5.82026C16.6629 5.82026 15.8342 5.82026 15.0055 5.82026C14.7599 5.82026 14.5451 6.03511 14.5451 6.28066C14.5451 7.38563 14.5451 8.47525 14.5451 9.58021C14.5451 10.1787 15.4659 10.1787 15.4659 9.58021Z" fill="#8A50A0"/>
<path d="M32.5928 25.2028C32.5928 21.9032 32.5928 18.6037 32.5928 15.3041C32.4393 15.4576 32.2859 15.611 32.1324 15.7645C32.9611 15.7645 33.7899 15.7645 34.6186 15.7645C34.9409 15.7645 35.2325 15.3655 35.0176 15.0739C33.5443 13.1249 32.071 11.1912 30.5824 9.24213C30.3522 8.95054 30.0146 8.95054 29.7844 9.24213C28.3111 11.1912 26.8378 13.1249 25.3492 15.0739C25.1343 15.3655 25.4259 15.7645 25.7482 15.7645C26.5769 15.7645 27.4056 15.7645 28.2343 15.7645C28.0809 15.611 27.9274 15.4576 27.7739 15.3041C27.7739 16.4091 27.7739 17.4987 27.7739 18.6037C27.7739 19.2022 28.6947 19.2022 28.6947 18.6037C28.6947 17.4987 28.6947 16.4091 28.6947 15.3041C28.6947 15.0586 28.4799 14.8437 28.2343 14.8437C27.4056 14.8437 26.5769 14.8437 25.7482 14.8437C25.8863 15.0739 26.0091 15.3041 26.1472 15.5343C27.6205 13.5853 29.0938 11.6516 30.5824 9.70253C30.3215 9.70253 30.0453 9.70253 29.7844 9.70253C31.2576 11.6516 32.7309 13.5853 34.2196 15.5343C34.3577 15.3041 34.4805 15.0739 34.6186 14.8437C33.7899 14.8437 32.9611 14.8437 32.1324 14.8437C31.8869 14.8437 31.672 15.0586 31.672 15.3041C31.672 18.6037 31.672 21.9032 31.672 25.2028C31.672 25.7859 32.5928 25.8013 32.5928 25.2028Z" fill="#8A50A0"/>
<path d="M7.31743 33.0602C7.31743 29.7606 7.31743 26.4611 7.31743 23.1615C7.16397 23.315 7.0105 23.4685 6.85703 23.6219C7.68576 23.6219 8.51447 23.6219 9.3432 23.6219C9.66548 23.6219 9.95707 23.2229 9.74222 22.9313C8.26893 20.9823 6.79564 19.0486 5.307 17.0996C5.0768 16.808 4.73917 16.808 4.50897 17.0996C3.03568 19.0486 1.5624 20.9823 0.0737606 22.9313C-0.141094 23.2229 0.150491 23.6219 0.472773 23.6219C1.3015 23.6219 2.13022 23.6219 2.95895 23.6219C2.80548 23.4685 2.65201 23.315 2.49855 23.1615C2.49855 24.2665 2.49855 25.3561 2.49855 26.4611C2.49855 27.0596 3.41935 27.0596 3.41935 26.4611C3.41935 25.3561 3.41935 24.2665 3.41935 23.1615C3.41935 22.916 3.2045 22.7011 2.95895 22.7011C2.13022 22.7011 1.3015 22.7011 0.472773 22.7011C0.610893 22.9313 0.733673 23.1615 0.871794 23.3917C2.34508 21.4427 3.81837 19.509 5.307 17.56C5.04611 17.56 4.76986 17.56 4.50897 17.56C5.98226 19.509 7.45555 21.4427 8.94419 23.3917C9.08231 23.1615 9.20508 22.9313 9.3432 22.7011C8.51447 22.7011 7.68576 22.7011 6.85703 22.7011C6.61148 22.7011 6.39663 22.916 6.39663 23.1615C6.39663 26.4611 6.39663 29.7606 6.39663 33.0602C6.39663 33.6587 7.31743 33.6587 7.31743 33.0602Z" fill="#8A50A0"/>
</svg>
