<svg width="118" height="150" viewBox="0 0 118 150" fill="none" xmlns="http://www.w3.org/2000/svg">
<path d="M85.9069 74.8241C74.8827 74.8241 67.5528 79.2221 62.3925 84.3823V60.1642H77.0524C93.9406 60.1642 99.8045 46.9703 100.567 39.6403L101.271 35.2424H80.7467C71.1884 35.2424 65.3245 40.4027 62.3925 46.2666V27.1501C65.3245 24.2181 67.5528 19.8202 67.5528 15.4222C67.5528 10.2619 64.6208 5.16028 60.2228 1.46599L58.7568 0L56.5285 1.46599C52.1306 4.39797 49.1986 9.55825 49.1986 15.4222C49.1986 19.8202 51.4269 24.2181 54.3589 27.1501V57.2322C48.4949 50.6059 39.699 44.742 26.4464 44.742H0V48.4363C0 59.4605 6.62627 79.9844 31.5481 79.9844H54.3589V110.829C54.3589 110.829 54.3589 126.955 44.0969 137.275C39.7576 141.615 33.9523 144.547 26.7396 146.013C30.9617 147.654 35.301 149.003 39.8163 150L40.4027 149.765L40.5199 149.707C44.1556 148.241 47.0289 145.309 49.9609 143.139C54.3589 138.741 56.5872 134.343 58.7568 129.183C60.9851 133.581 63.1548 137.275 66.8491 140.911C70.5434 144.547 74.179 146.775 79.3393 149.003L80.2775 149.355C85.086 148.182 89.7185 146.54 94.1751 144.605H94.0578H93.9992C85.2033 143.843 77.8733 140.911 72.7717 135.809C64.6794 127.013 62.5098 115.285 62.5098 110.829H80.8639C107.31 110.829 116.106 90.3049 116.81 79.2807L117.514 74.8827H85.9069V74.8241ZM80.8053 43.276H92.5332C91.0672 46.9703 87.3729 52.8342 77.8733 52.8342H68.3151C69.0188 49.14 71.9507 43.276 80.8053 43.276ZM33.7764 68.9601C41.1063 68.9601 46.2666 71.1884 49.1986 73.3581H31.6067C14.0149 73.3581 9.55824 60.1642 8.09226 52.7756H25.6841C41.81 52.7756 48.4363 61.5715 52.1306 68.1978C48.4363 65.2658 42.5723 63.7998 33.7764 63.0375C32.3104 63.0375 30.8444 64.5035 30.8444 65.9695C30.8444 67.4941 32.3104 68.9601 33.7764 68.9601ZM58.7568 21.2275C57.2908 19.7615 56.5285 17.5332 56.5285 15.3636C56.5285 13.1353 57.2908 10.9656 58.7568 9.49961C60.2228 10.9656 60.9851 13.1939 60.9851 15.3636C60.9851 17.5332 60.2228 19.7615 58.7568 21.2275ZM80.8053 102.678H66.8491C69.7811 100.45 74.9414 97.5176 84.441 97.5176C85.9069 97.5176 87.3729 96.0516 87.3729 94.5856C86.6693 93.1196 85.1446 92.3573 83.6786 92.3573C73.4167 92.3573 67.5528 95.2893 63.8585 98.2213C66.0868 90.8913 71.9507 82.0954 85.9069 82.0954H108.659C106.489 89.484 100.625 102.678 80.8053 102.678Z" fill="#D5B8D8"/>
</svg>
