<svg width="588" height="336" viewBox="0 0 588 336" fill="none" xmlns="http://www.w3.org/2000/svg">
<path d="M5.30652 91.0674C-4.56973 64.3928 9.13009 35.2641 35.904 26.0062C62.679 16.7495 97.0533 20.6513 106.93 47.3269C110.395 56.6872 106.295 76.5659 104.408 85.5665C104.408 85.5665 103.124 95.5593 106.42 101.002C110.214 107.268 116.669 109.177 122.518 109.416C124.623 109.502 125.18 112.36 123.241 113.139C107.124 119.605 77.1014 129.032 46.8146 124.831C23.9712 121.662 12.1464 109.546 5.30541 91.0685L5.30652 91.0674Z" fill="#FDD247"/>
<path d="M372.736 22.149C356.428 43.3762 360.449 95.3378 385.573 102.626C410.696 109.913 450.962 94.8969 473.949 98.6762C498.057 102.639 502.328 122.552 492.332 132.404C491.328 133.394 492.238 135.072 493.615 134.768C528.502 127.056 557.778 45.4574 516.935 16.2161C474.047 -14.4882 386.119 4.729 372.736 22.1501V22.149Z" fill="#D1EAED"/>
<path d="M414.467 67.1425C422.006 66.4895 427.588 59.8479 426.935 52.3082C426.282 44.7684 419.641 39.1856 412.102 39.8386C404.563 40.4916 398.981 47.1332 399.633 54.673C400.286 62.2127 406.928 67.7955 414.467 67.1425Z" fill="white"/>
<path d="M449.895 65.8549C457.108 63.5665 461.1 55.8636 458.812 48.6498C456.524 41.4361 448.822 37.4433 441.609 39.7316C434.395 42.0199 430.403 49.7229 432.691 56.9366C434.979 64.1504 442.681 68.1432 449.895 65.8549Z" fill="white"/>
<path d="M487.907 61.8033C493.258 56.452 493.258 47.7756 487.907 42.4243C482.556 37.0729 473.881 37.0729 468.53 42.4243C463.179 47.7757 463.179 56.4519 468.53 61.8033C473.881 67.1547 482.556 67.1547 487.907 61.8033Z" fill="white"/>
<path d="M221.471 69.2001H275.819C275.819 69.2001 274.869 61.852 266.122 59.4813C256.317 56.8233 251.665 61.911 251.665 61.911C251.665 61.911 253.729 59.0737 252.83 53.652C251.838 47.6578 249.252 43.5133 241.609 43.5144C229.066 43.5155 226.592 56.1841 230.478 61.391C225.424 57.2108 218.007 62.4321 221.47 69.2012L221.471 69.2001Z" fill="url(#paint0_linear_6441_7482)"/>
<path d="M585.47 135.778H555.146C555.146 135.778 551.866 129.926 557.769 127.554C562.442 125.677 563.183 130.516 563.183 130.516C563.183 130.516 561.504 128.469 561.787 124.555C562.101 120.229 565.58 117.38 571.098 117.38C580.152 117.38 580.898 126.382 578.442 130.14C581.809 127.122 587.514 130.892 585.469 135.778H585.47Z" fill="url(#paint1_linear_6441_7482)"/>
<path d="M25.1393 151.699H54.5899C54.5899 151.699 59.8654 143.781 51.3465 140.224C44.4075 137.328 41.9635 144.857 41.9635 144.857C41.9635 144.857 42.8798 134.577 35.3485 134.806C27.8172 135.034 25.5992 141.184 27.8762 146.686C26.7471 142.571 18.0422 146.457 19.4407 151.699H25.1382H25.1393Z" fill="url(#paint2_linear_6441_7482)"/>
<path d="M391.614 125.46L362.685 135.353C362.685 135.353 374.917 130.473 372.149 127.241C369.381 124.01 353.443 129.417 347.357 129.879C341.271 130.341 336.145 128.561 327.218 130.275C318.292 131.989 318.578 140.616 316.77 145.083C314.961 149.552 308.738 157.689 308.738 157.689L329.959 167.581C329.959 167.581 341.863 151.889 343.909 150.936C352.572 146.898 389.843 144.157 392.646 127.32C392.798 126.414 392.58 125.458 391.613 125.458L391.614 125.46Z" fill="#F9A487"/>
<path d="M137.013 335.999H228.566C226.107 308.893 223.798 282.997 222.899 271.63C223.155 267.334 223.412 262.732 223.638 257.911H150.751L140.37 277.74C140.37 277.74 130.284 291.813 131.058 311.003C131.266 316.173 133.587 325.183 137.013 336V335.999Z" fill="#272A52"/>
<path d="M175.757 335.999L178.243 321.129L193.201 308.335L189.49 257.909H115.973L112.901 279.124C112.901 279.124 94.4834 304.567 96.3473 335.998H175.757V335.999Z" fill="#133E62"/>
<path d="M91.7324 147.443C93.2523 148.609 94.4971 149.497 95.5415 150.732C98.1548 153.825 100.49 157.137 103.065 160.26C111.827 170.885 121.562 180.696 131.865 189.905L175.928 138.028L170.865 118.839L137.238 102.193L138.08 125.875C138.08 125.875 111.195 134.928 91.7324 147.443Z" fill="#F9A487"/>
<path d="M305.848 160.639C307.546 161.822 309.352 162.873 311.144 163.904C314.341 165.743 317.624 167.45 320.966 169.012C324.368 170.602 327.828 172.062 331.266 173.57C331.907 173.85 332.546 174.134 333.184 174.419C337.887 165.352 340.832 159.037 340.832 159.037C340.832 159.037 340.678 156.643 330.475 151.493C320.271 146.343 314.987 146.922 314.987 146.922C314.987 146.922 310.686 152.821 304.935 159.994C305.24 160.211 305.544 160.429 305.848 160.642V160.639Z" fill="#69C3C5"/>
<path d="M328.838 154.386C317.022 148.422 310.903 149.092 310.903 149.092C310.903 149.092 278.512 193.519 268.492 193.519C266.543 193.519 263.637 191.478 260.042 188.15H260.046C245.154 174.375 218.414 138.502 198.767 134.056L185.872 196.632C185.872 196.632 196.964 206.724 211.632 218.515V218.517C231.783 234.721 258.684 254.138 272.839 255.002C297.296 256.494 340.832 163.123 340.832 163.123C340.832 163.123 340.654 160.35 328.838 154.386Z" fill="#D1EAED"/>
<path d="M242.79 241.425C237.306 183.425 217.872 159.989 217.872 159.989L198.689 207.816C202.451 211.008 206.851 214.67 211.631 218.514V218.516C221.191 226.205 232.272 234.614 242.79 241.425Z" fill="#B7DDDF"/>
<path d="M134.456 139.83C127.114 135.497 128.551 130.048 128.94 128.934C118.959 132.51 103.868 139.37 91.287 147.806C82.1367 153.942 97.4934 184.831 90.345 196.208L110.192 216.488H110.193C120.704 202.408 130.291 191.759 130.291 191.759L164.723 151.22C150.294 150.04 141.466 143.967 134.456 139.83Z" fill="#D1EAED"/>
<path d="M211.488 145.33C209.35 141.442 206.885 138.314 204.045 136.162C200.802 133.866 191.278 132.171 181.021 130.609C181.383 131.25 182.929 132.055 183.387 132.661C184.622 134.292 185.47 136.185 187.027 137.558C187.215 137.724 187.103 138.026 186.886 138.093C182.593 139.429 180.906 144.991 176.379 145.714C174.001 146.094 171.366 145.768 168.962 145.768C166.236 145.768 163.508 145.794 160.781 145.751C155.864 145.672 150.858 145.322 146.206 143.61C142.205 142.138 139.093 139.867 135.93 137.086C134.61 135.926 132.195 134.089 131.622 132.073C127.332 136.793 121.701 144.185 117.293 154.178C112.333 165.422 108.922 179.958 110.719 197.677C115.505 244.865 112.879 278.227 112.879 278.227H223.277C223.277 278.227 230.864 180.566 211.489 145.331L211.488 145.33Z" fill="#D1EAED"/>
<path d="M144.194 240.586C129.772 232.474 146.165 175.231 126.503 161.507C117.174 154.996 113.391 181.881 111.991 212.076C114.628 246.871 113.301 271.765 112.952 277.139C112.952 277.145 112.952 277.149 112.952 277.155C112.95 277.197 112.947 277.238 112.944 277.278C112.944 277.284 112.944 277.289 112.943 277.295C112.903 277.908 112.878 278.226 112.878 278.226H223.276C223.276 278.226 223.921 269.911 224.354 257.26C209.772 243.203 160.474 249.741 144.195 240.585L144.194 240.586Z" fill="#B7DDDF"/>
<path d="M170.807 151.361C193.505 150.238 190.894 138.662 188.834 136.359C187.388 134.742 184.555 132.36 181.265 130.647C162.021 127.772 138.08 125.875 138.08 125.875C138.08 125.875 133.702 128.205 128.986 133.811C130.396 139.053 149.633 152.408 170.807 151.362V151.361Z" fill="#F9A487"/>
<path d="M277.315 207.59C277.051 207.59 276.804 207.426 276.712 207.163C275.006 202.309 272.346 198.925 270.697 197.154C271.033 199.486 271.101 203.4 268.917 207.265C268.743 207.574 268.352 207.681 268.045 207.507C267.737 207.333 267.628 206.942 267.803 206.635C270.871 201.207 269.033 195.481 269.015 195.424L268.33 193.351L270.024 194.726C270.235 194.896 275.191 198.981 277.918 206.737C278.036 207.071 277.86 207.437 277.527 207.554C277.457 207.578 277.385 207.59 277.314 207.59H277.315Z" fill="#B7DDDF"/>
<path d="M173.439 70.3046C175.546 75.8222 173.508 79.45 174.375 81.2183C175.242 82.9877 180.205 91.7322 180.425 100.048C180.646 108.364 178.106 117.839 169.664 119.118C161.221 120.398 142.679 107.685 142.679 107.685C142.679 107.685 138.047 77.9078 136.732 73.8802C135.417 69.8514 139.505 59.8308 139.505 59.8308L170.341 64.7081C170.341 64.7081 171.651 65.6278 173.438 70.3046H173.439Z" fill="#F9A487"/>
<path d="M138.422 94.2042C139.093 100.822 137.159 105.566 131.846 105.566C126.532 105.566 121.336 100.822 120.664 94.2042C119.993 87.5865 123.756 82.2227 129.07 82.2227C134.383 82.2227 137.75 87.5876 138.422 94.2042Z" fill="#F9A487"/>
<path d="M133.705 68.199C133.705 68.199 131.526 74.5684 133.141 83.1369C133.141 83.1369 135.312 105.778 142.44 115.959C147.409 123.058 159.24 131.311 175.85 127.953C185.043 126.095 189.051 115.798 186.982 107.911C185.314 101.55 180.965 97.1663 177.784 97.1162C174.859 97.0705 173.752 100.157 170.36 100.662C166.206 101.28 164.529 98.9212 162.265 99.7207C160.001 100.52 158.823 106.694 153.403 105.277C147.982 103.861 140.01 97.7843 139.688 69.906C134.991 68.2535 133.706 68.2001 133.706 68.2001L133.705 68.199Z" fill="#212B54"/>
<path d="M154.679 68.4651C152.398 72.25 142.37 74.8088 133.653 69.2646C125.465 64.0577 125.91 51.7811 138.02 55.5649C135.968 47.9428 142.611 45.65 147.642 49.5418C150.657 40.373 164.638 41.0667 163.765 52.4203C169.252 46.6099 178.65 50.4482 180.933 56.1517C183.217 61.8552 179.02 71.4504 170.49 73.5294C162.376 75.507 154.679 68.4651 154.679 68.4651Z" fill="#133E62"/>
<path d="M259.697 293.245L231.861 277.503C231.861 277.503 244.91 279.277 244.092 275.101C243.273 270.925 226.739 267.787 221.214 265.193C215.689 262.598 212.103 258.525 203.489 255.623C194.875 252.721 195.759 254.553 191.171 256.026C186.582 257.501 176.348 257.935 176.348 257.935L182.346 280.569C182.346 280.569 202.02 279.658 204.062 280.618C212.713 284.683 255.62 299.055 259.679 295.375C260.359 294.758 260.537 293.72 259.697 293.245Z" fill="#F9A487"/>
<path d="M172.231 257.603C172.411 259.664 172.761 261.726 173.117 263.762C173.754 267.395 174.547 271.01 175.488 274.577C176.445 278.207 177.542 281.8 178.586 285.406C178.781 286.077 178.973 286.75 179.162 287.422C189.137 285.227 195.873 283.442 195.873 283.442C195.873 283.442 197.613 281.789 195.03 270.655C192.448 259.52 188.617 255.833 188.617 255.833C188.617 255.833 181.332 256.309 172.141 256.488C172.17 256.862 172.196 257.235 172.229 257.603H172.231Z" fill="#69C3C5"/>
<path d="M191.76 271.252C188.77 258.358 184.335 254.088 184.335 254.088C184.335 254.088 129.474 257.675 123.054 249.98C121.806 248.483 121.511 244.945 121.763 240.052L121.766 240.055C122.803 219.795 133.216 176.279 124.043 158.343C124.043 158.343 106.659 138.014 86.6056 150.198C66.5525 162.382 67.7372 188.529 67.7372 188.529C67.7372 188.529 67.0947 203.511 67.4377 222.33H67.4354C67.9042 248.186 70.2291 281.284 78.6345 292.706C93.156 312.442 192.737 286.059 192.737 286.059C192.737 286.059 194.752 284.146 191.762 271.252H191.76Z" fill="#D1EAED"/>
<path d="M117.904 265.772C117.734 265.569 117.702 265.274 117.845 265.035C120.479 260.615 121.373 256.405 121.676 254.004C120.102 255.757 117.139 258.316 112.773 259.114C112.425 259.178 112.093 258.947 112.029 258.6C111.966 258.253 112.196 257.92 112.543 257.856C118.676 256.734 121.895 251.656 121.928 251.605L123.08 249.751L123.11 251.933C123.115 252.203 123.153 258.626 118.944 265.689C118.763 265.993 118.37 266.092 118.066 265.911C118.002 265.873 117.947 265.826 117.902 265.771L117.904 265.772Z" fill="#ABD6D6"/>
<path d="M381.509 309.197C381.509 309.197 371.651 309.429 366.884 315.364C361.925 321.539 357.628 324.896 347.851 326.907C342.429 328.023 329.265 326.885 321.506 324.179C322.367 316.471 336.871 319.102 341.813 319.169C348.335 319.257 350.089 315.546 356.808 305.924C361.253 299.559 377.637 303.975 380.446 302.689C394.763 296.131 381.509 309.197 381.509 309.197Z" fill="#F6A086"/>
<path d="M359.253 313.187L360.464 312.506C359.312 317.315 356.229 321.198 353.689 318.272C351.481 315.726 342.535 318.022 339.169 316.923C336.966 316.205 336.937 313.078 339.137 312.352C343.821 310.807 351.359 313.57 355.846 307.311L359.253 313.187Z" fill="#F6A086"/>
<path d="M328.946 169.92C328.946 169.92 323.777 165.778 316.713 162.941C309.364 159.989 303.973 159.17 294.466 162.208C289.193 163.894 278.277 171.337 272.84 177.501C277.368 183.798 288.721 174.394 292.997 171.913C300.016 167.84 307.923 172.457 321.608 180.251C335.292 188.045 328.947 169.92 328.947 169.92H328.946Z" fill="#F6A086"/>
<path d="M328.182 167.582L319.624 162.764L312.696 177.501L324.164 184.264L328.182 167.582Z" fill="#70D7DD"/>
<path d="M311.128 168.58H312.518C309.156 164.953 304.566 163.08 303.787 166.875C303.11 170.176 294.187 172.56 291.791 175.168C290.223 176.874 291.731 179.613 294.005 179.167C298.844 178.219 304.945 173.149 311.128 173.349V168.579V168.58Z" fill="#F6A086"/>
<path d="M448.732 146.094C428.035 153.171 390.298 197.139 390.298 197.139L325.683 164.391L317.717 182.591C317.717 182.591 383.225 238.344 397.968 235.837C412.711 233.331 460.678 195.886 473.01 176.893C485.445 157.741 469.43 139.016 448.732 146.094Z" fill="#64C0C6"/>
<path d="M416.703 226.655C430.988 217.507 448.9 203.152 461.262 190.705L432.182 164.789C432.182 164.789 418.095 195.932 416.703 226.655Z" fill="#3AAFB7"/>
<path d="M509.813 335.737C516.694 307.529 517.468 279.394 502.789 260.806C475.117 263.633 445.675 266.437 445.675 266.437L445.252 288.951C445.252 288.951 433.625 318.117 429.809 335.738H509.813V335.737Z" fill="#B7DDDF"/>
<path opacity="0.58" d="M471.522 290.261L454.85 335.737H465.75L471.522 290.261Z" fill="#A6D5D8"/>
<path d="M465.75 335.737H522.842C528.786 319.618 530.006 302.928 526.524 291.718C521.464 275.423 514.307 267.93 508.704 260.459C489.412 261.378 464.854 265.306 464.854 265.306C464.854 265.306 463.169 269.627 465.515 278.45C467.861 287.271 471.522 290.261 471.522 290.261C471.522 290.261 467.425 323.978 465.75 335.737Z" fill="#D1EAED"/>
<path d="M463.513 144.161C482.996 143.977 494.54 146.471 502.161 163.581C510.37 182.01 499.538 237.577 508.704 260.459C496.83 261.585 445.008 267.801 445.008 267.801C445.008 267.801 443.992 258.595 441.855 244.062C441.314 240.379 437.867 217.342 437.867 217.342C437.867 217.342 428.147 211.555 427.335 202.152C426.521 192.748 428.596 167.644 436.456 155.532C442.31 146.511 451.532 144.274 463.513 144.159V144.161Z" fill="#64C0C6"/>
<path d="M461.086 265.768C468.751 264.816 478.15 263.674 486.949 262.673L499.538 189.905L488.929 199.653L461.087 265.768H461.086Z" fill="#3AAFB7"/>
<path d="M469.223 242.856L473.171 264.29L461.66 265.697C461.66 265.697 444.713 209.253 443.907 194.01C443.101 178.768 449.21 146.638 449.21 146.638C449.21 146.638 483.71 142.763 474.752 154.066C465.794 165.37 460.979 183.256 460.979 183.256L469.221 242.856" fill="white"/>
<path d="M472.383 117.886L471.91 148.684C471.91 148.684 470.625 156.338 457.212 155.599C447.591 154.86 448.388 149.627 448.388 149.627L452.885 117.514L470.095 114.837L472.383 117.887V117.886Z" fill="#F6A086"/>
<path d="M457.684 149.46C451.401 148.978 449.562 146.579 449.042 144.972L448.39 149.627C448.39 149.627 447.592 154.86 457.214 155.599C470.627 156.338 471.912 148.684 471.912 148.684L472.014 142.042C470.861 144.884 467.425 149.998 457.685 149.46H457.684Z" fill="#70D7DD"/>
<path d="M460.488 72.3068C467.009 72.4694 482.185 103.932 479.997 112.908C477.849 121.72 456.813 139.416 442.352 137.898C433.838 137.005 434.008 126.375 433.809 118.655C433.733 115.721 433.845 111.855 434.265 107.883C434.95 101.405 436.457 94.6486 439.312 91.1955C443.916 85.6257 460.49 72.3057 460.49 72.3057L460.488 72.3068Z" fill="#F6A086"/>
<path d="M453.923 92.6119C449.427 96.3501 434.294 102.1 426.967 96.6908C419.639 91.2813 424.34 81.7495 429.279 78.3254C434.217 74.9013 439.903 73.4626 439.903 73.4626C439.903 73.4626 436.668 65.0778 444.655 60.5936C452.642 56.1105 458.091 65.2437 458.091 65.2437C458.091 65.2437 460.612 60.4544 471.745 60.6437C482.878 60.833 492.489 65.4586 497.11 74.0829C506.09 90.8459 504.512 104.765 492.87 111.124C482.747 116.654 469.939 112.971 469.939 112.971C469.939 112.971 463.098 111.619 461.892 101.398C460.705 91.3358 458.42 88.8727 453.923 92.6108V92.6119Z" fill="#222B54"/>
<path d="M485.812 116.818C485.271 122.486 480.319 126.734 475.577 126.37C470.836 126.007 468.102 121.168 468.643 115.501C469.184 109.833 473.466 105.533 478.207 105.896C482.948 106.261 486.353 111.149 485.812 116.817V116.818Z" fill="#F6A086"/>
<path d="M482.306 145.913C476.856 142.884 471.979 144.238 471.979 144.238C471.979 144.238 456.959 157.269 457.189 182.481C457.42 207.694 469.367 243.597 469.367 243.597L470.082 184.464C470.082 184.464 468.632 184.48 463.709 182.351C468.576 156.426 482.307 145.912 482.307 145.912L482.306 145.913Z" fill="#3AAFB7"/>
<path d="M448.91 145.913C448.91 145.913 447.545 152.784 446.507 184.21C445.471 215.561 456.056 244.677 456.056 244.677C456.056 244.677 431.63 182.774 433.391 178.928C436.085 176.128 439.522 174.296 439.522 174.296C439.522 174.296 436.398 155.923 438.986 151.01C443.837 146.4 448.911 145.912 448.911 145.912L448.91 145.913Z" fill="#3AAFB7"/>
<g style="mix-blend-mode:multiply" opacity="0.33">
<path d="M472.012 237.883C472.012 237.883 481.241 145.647 469.99 159.581C458.739 173.514 438.993 220.385 439.535 224.067C440.961 233.758 444.206 261.074 444.665 264.877L472.012 237.882V237.883Z" fill="#3AAFB7"/>
</g>
<path d="M369.459 296.856C369.459 296.856 369.223 292.617 371.867 290.495C374.512 288.372 435.77 248.884 435.77 248.884C435.77 248.884 463.119 156.599 478.017 151.709C490.421 147.638 495.645 159.005 502.486 169.887C505.143 185.022 483.937 230.249 474.48 259.624C467.236 282.123 388.94 310.907 378.053 313.927C373.292 304.994 369.459 296.857 369.459 296.857V296.856Z" fill="#64C0C6"/>
<path d="M369.458 296.856L364.745 299.141L373.393 316.448L378.053 313.925L369.458 296.856Z" fill="#64C0C6"/>
<path d="M158.553 57.9087C163.675 60.7114 170.541 60.4497 175.163 56.3742C179.322 52.7074 181.019 46.2022 178.553 41.2804C176.244 36.6726 170.334 34.1059 165.329 35.8542C162.88 36.7105 160.27 38.962 160.479 41.7926C160.658 44.2156 162.849 45.4962 164.957 46.0563C168.182 46.9126 171.97 47.0941 175.309 46.8246C178.359 46.5785 181.312 45.6721 183.702 43.6288C188.417 39.6001 187.806 33.1026 183.071 29.6529C177.127 25.3224 169.18 28.2666 162.86 30.4613C157.564 32.2998 148.722 34.7985 145.173 28.8111C143.844 26.5696 143.122 22.5642 144.527 20.1278C146.217 17.197 150.728 16.7193 152.962 18.9764C157.449 23.5107 156.57 30.9702 153.005 35.9176C151.103 38.5556 148.431 40.6991 145.42 41.8895C143.952 42.4696 142.382 42.8415 140.819 42.9072C138.803 42.9907 135.221 42.0053 136.027 39.1624C136.99 35.7673 143.274 36.4232 145.756 36.7784C149.23 37.275 152.557 38.4197 155.886 39.4453C161.869 41.2871 168.219 42.7469 174.326 40.0722C179.527 37.7939 184.045 32.9089 185.048 27.2132C185.918 22.2736 184.023 16.2828 178.515 15.4911C172.249 14.5914 167.538 20.2548 166.208 25.8591C164.469 33.1884 166.949 40.6668 165.169 47.9738C164.285 51.6039 162.339 54.8253 159.026 56.7205C156.087 58.4031 152.555 59.1057 149.256 59.4654C145.9 59.8306 141.66 59.5032 140.556 55.7117C139.497 52.076 141.552 48.3357 142.038 44.7401C142.513 41.2358 141.173 38.1903 139.594 35.2128C137.985 32.1773 136.104 28.8345 136.804 25.1899C138.352 17.1358 148.482 21.8104 153.414 22.1088C155.813 22.2535 158.512 21.8927 160.335 20.0944C161.597 18.8495 162.229 17.0422 162.578 15.3552C163.326 11.7407 162.784 7.34675 159.3 5.47713C155.327 3.34584 150.266 5.15087 147.803 8.92573C144.81 13.5157 146.803 18.8317 149.779 22.6577C151.181 24.4605 152.979 26.1943 155.174 26.976C157.801 27.9114 160.664 26.7043 163.173 25.7634C166.147 24.6487 170.061 23.2156 172.46 26.0373C174.254 28.1463 174.246 31.5526 172.991 34.0068C169.612 40.6156 160.588 41.0064 154.522 43.18C148.431 45.3626 144.618 49.9737 140.968 55.1304C137.199 60.4553 133.159 66.2646 126.433 67.7645C122.79 68.5774 118.924 67.8625 116.211 65.3136C113.802 63.0521 112.497 59.5934 113.622 56.2785C114.795 52.8232 117.993 50.4514 121.607 50.7643C124.637 51.0271 127.815 52.6005 130.831 51.154C135.941 48.7031 135.523 40.9619 133.808 36.6848C131.614 31.2152 126.136 28.5605 120.625 31.547C116.094 34.0012 112.582 38.4253 111.816 43.5308C111.213 47.5573 112.054 52.2241 115.368 54.7719C119.744 58.1358 125.199 55.8976 129.838 54.1238C130.715 53.7886 131.935 53.2352 132.885 53.4601C134.093 53.7474 134.654 55.2897 134.854 56.392C135.367 59.207 134.397 62.2826 133.477 64.9573C131.899 69.5517 129.282 75.3053 123.632 75.2619C120.501 75.2374 119.431 72.4035 119.306 69.6074C119.206 67.3736 119.791 65.1633 120.308 62.993C120.815 60.8684 121.323 58.7438 121.83 56.6181C123.794 48.3891 126.085 40.1546 127.689 31.8577C128.333 28.5271 128.579 25.0106 127.185 21.8939C126.074 19.4096 123.979 17.334 121.215 16.893C115.142 15.9242 109.223 22.0408 107.15 27.2978C105.098 32.4991 106.636 39.2526 111.998 41.5153C115.356 42.9328 118.967 41.8071 122.405 41.1133C125.43 40.502 128.478 40.1323 131.546 40.1457C137.262 40.1702 145.095 41.0966 146.56 47.7878C148.535 56.8074 134.812 60.2894 129.913 54.548C127.542 51.7698 127.476 47.4526 128.23 44.1343C128.902 41.1868 129.663 38.256 130.354 35.3119C132.302 27.0038 134.479 18.3016 134.518 9.77201C134.529 7.31 134.46 4.35247 132.38 2.76124C130.964 1.67778 128.802 0.693421 127.254 2.23566C125.922 3.56298 125.914 5.83124 126.313 7.49596C126.934 10.0894 128.86 12.4155 131.275 13.4867C133.542 14.4922 136.121 14.1582 138.541 13.8531C145.168 13.0157 151.425 10.547 157.971 9.22527C163.877 8.03268 169.956 7.26546 175.954 7.26435C177.989 7.26435 180.012 7.47926 181.961 8.026C188.606 9.89227 192.542 15.49 194.066 22.0598C195.455 28.0439 195.176 34.3743 194.455 40.492C193.695 46.9293 192.275 53.2708 190.59 59.5489C188.137 68.6909 184.505 78.3653 185.733 87.8837C186.98 97.5491 193.881 105.306 201.441 110.736C209.222 116.325 218.413 119.757 227.708 122.063C239.122 124.894 250.944 126.132 262.723 126.775C276.761 127.54 290.862 127.412 304.943 127.023C312.618 126.812 320.294 126.524 327.969 126.179C334.281 125.895 340.599 125.219 346.819 123.925C356.729 121.864 367.413 118.194 374.656 110.58C380.879 104.038 383.08 94.7965 380.783 86.2613C378.679 78.4443 372.007 73.9546 364.32 72.6228C354.909 70.9937 344.876 73.066 335.892 76.362C325.621 80.1302 315.948 85.8883 307.943 93.4892C290.172 110.36 277.631 132.613 268.425 155.032C259.386 177.044 252.856 200.864 251.991 224.545C251.212 245.905 254.062 269.179 266.644 286.676C276.096 299.821 290.548 307.681 306.711 309.283C324.13 311.009 342.439 306.127 358.089 297.982C364.528 294.63 369.936 288.806 374.371 283.151C381.001 274.697 386 264.789 388.174 254.305C390.757 241.853 389.037 229.19 383.762 217.905C378.865 207.428 371.761 197.879 362.626 190.826C347.615 179.237 327.808 175.722 309.13 180.235C300.52 182.315 292.201 186.02 284.923 191.219C277.245 196.703 271.503 204.06 267.414 212.535C258.041 231.966 256.549 256.327 266.411 275.303C275.613 293.008 294.329 303.184 313.908 304.999C333.04 306.773 353.5 300.37 366.393 285.055C372.912 277.31 377.149 267.669 379.765 258.008C382.321 248.573 383.138 238.639 381.399 229.106C379.628 219.406 375.115 210.489 368.485 203.353C360.325 194.57 349.257 188.312 337.785 184.855C327.062 181.625 315.427 181.201 304.481 184.526C294.455 187.57 285.411 193.604 278.459 201.546C265.49 216.358 260.007 237.036 263.03 256.054C264.36 264.422 267.453 272.485 272.438 279.251C277.819 286.556 285.228 292.001 293.618 295.41C304.279 299.74 316.63 301.183 328.193 300.071C337.323 299.192 346.251 296.148 353.67 290.453C366.5 280.605 373.032 264.626 375.038 249.1C375.845 242.847 376.009 236.416 375.032 230.224C373.926 223.218 371.108 216.366 367.407 210.427C362.8 203.035 356.398 196.826 348.612 192.879C338.556 187.783 326.973 186.764 315.745 188.253C304.777 189.707 293.889 193.381 285.139 200.576C278.161 206.313 273.066 214.006 270.005 222.445C267.287 229.939 266.1 237.952 266.155 245.835C266.205 253.137 267.539 260.009 270.686 266.535C279.009 283.794 296.278 294.784 315.505 295.407C326.567 295.766 338.729 293.482 348.397 287.512C355.697 283.006 361.384 276.314 365.034 268.572C371.491 254.88 372.498 238.264 369.074 223.875C368.483 221.389 367.733 218.914 366.648 216.609C365.658 214.507 364.212 212.784 362.667 211.078C357.147 204.981 350.352 199.952 342.773 196.694C332.578 192.31 321.217 191.544 310.267 194.224C300.539 196.606 290.61 201.09 283.619 208.617C273.484 219.53 269.486 235.18 270.99 249.542C272.562 264.569 280.446 278.62 293.741 285.868C301.45 290.071 310.329 291.726 319.159 291.532C327.897 291.341 336.772 289.502 344.517 285.067C357.584 277.584 365.05 263.643 366.411 249.014C367.736 234.762 363.686 219.7 354.411 209.012C349.927 203.845 344.154 199.841 337.591 197.763C328.694 194.946 318.294 195.384 309.249 197.978C300.228 200.566 291.98 205.821 285.98 213.182C280.128 220.362 276.588 229.189 275.639 238.299C274.612 248.175 276.679 258.106 281.017 266.826C284.73 274.288 289.846 280.778 297.36 284.57C310.452 291.178 326.893 289.218 339.868 282.336C353.574 275.065 363.784 261.607 364.218 245.853C364.488 236.105 361.196 226.698 356.413 218.484C350.942 209.088 341.93 202.782 331.176 200.89C322.032 199.282 312.168 200.516 303.516 204.283C293.827 208.501 286.075 216.513 281.729 226.144C277.295 235.967 276.422 247.217 279.432 257.37C282.368 267.28 288.983 276.462 298.128 281.332C314.323 289.96 334.619 282.805 346.616 269.401C352.586 262.731 356.737 254.33 357.451 245.428C358.229 235.717 354.564 226.305 348.756 218.857C338.508 205.712 320 199.977 304.338 207.96C296.462 211.974 290.584 219.016 287.167 227.106C283.219 236.454 281.766 247.686 284.604 257.35C288.998 272.314 304.284 281.018 319.601 278.899C322.987 278.43 326.329 277.424 329.37 275.778C333.702 273.433 337.398 269.668 340.729 266.084C348.632 257.577 354.83 246.413 352.146 234.687C350.655 228.174 346.727 222.369 342.063 217.779C338.35 214.124 333.8 211.299 328.713 209.966C319.622 207.585 309.87 210.289 302.526 216.351C294.366 223.087 289.643 233.471 289.217 243.861C288.83 253.277 292.096 263.21 299.572 269.026C307.695 275.346 318.422 274.251 327.312 269.442C338.249 263.525 349.393 252.796 348.474 239.469C347.767 229.215 340.533 220.165 331.319 216.267C322.323 212.46 309.36 213.125 302.545 221.314C297.909 226.884 295.586 234.323 295.069 241.389C294.559 248.356 295.886 256.065 300.792 261.167C306.619 267.227 315.795 267.208 323.554 264.993C331.097 262.842 337.628 257.757 340.326 250.174C344.99 237.063 337.226 220.422 322.933 218.926C314.995 218.095 307.703 222.085 303.767 229.166C300.205 235.575 299.293 243.754 301.767 250.537C304.466 257.938 311.615 262.412 319.601 261.125C328.264 259.73 334.881 251.619 336.115 243.154C337.61 232.886 329.676 222.431 319.011 222.599C313.264 222.691 308.706 226.278 305.985 231.256C303.335 236.105 302.006 242.389 304.129 247.547C307.007 254.539 315.262 258.273 322.578 256.212C325.919 255.27 328.907 253.089 330.596 249.986C332.742 246.043 332.592 241.374 331.476 237.232C330.4 233.235 328.216 229.247 324.351 227.45C321.357 226.057 317.881 226.271 314.859 227.7C307.459 231.199 305.232 240.29 309.052 247.052C311.09 250.66 314.981 252.394 319.067 251.184C322.943 250.035 326.224 246.718 327.334 242.813C328.571 238.463 326.834 233.01 322.983 230.66C319.659 228.634 315.556 230.226 313.511 233.458C311.295 236.962 311.947 241.554 314.7 244.42C317.539 247.375 322.178 246.008 322.763 241.74C323.074 239.464 322.067 236.993 320.526 235.395C319.735 234.575 318.57 234.069 317.621 235.022C316.234 236.414 316.024 240.583 318.115 241.334C318.823 241.588 319.164 240.446 318.461 240.194C317.379 239.806 317.78 237.095 318.15 236.327C319.245 234.045 321.338 238.929 321.515 239.748C322.037 242.156 320.574 245.521 317.628 244.854C315.084 244.279 313.517 241.053 313.344 238.62C313.067 234.71 316.446 230.127 320.696 231.011C325.566 232.024 327.523 238.779 326.026 243.085C324.659 247.018 320.694 250.358 316.489 250.407C311.723 250.463 309.078 245.894 308.436 241.653C307.367 234.599 313.243 227.22 320.606 227.697C324.586 227.954 327.525 230.8 329.152 234.256C331.068 238.326 331.908 243.581 330.245 247.98C327.533 255.155 318.77 257.158 312.428 254.33C308.754 252.692 305.673 249.417 304.685 245.438C303.253 239.674 305.52 232.818 309.403 228.317C317.882 218.492 332.718 226.247 334.841 237.135C336.504 245.656 331.333 255.276 323.31 258.813C315.682 262.177 306.975 258.997 303.513 251.66C300.534 245.345 301.073 237.282 304.159 230.932C307.623 223.805 314.415 219.459 322.267 220.054C336.39 221.124 343.896 237.769 338.988 250.439C336.033 258.066 328.95 262.663 321.268 264.361C313.561 266.066 305.015 265.314 300.181 258.571C296.141 252.937 295.553 245.281 296.57 238.476C297.555 231.875 300.221 224.742 305.297 220.105C308.869 216.841 313.759 215.638 318.408 215.374C324.681 215.017 330.773 216.583 335.853 220.156C344.354 226.135 349.618 237.079 346.352 247.637C344.307 254.251 339.396 259.302 334.085 263.526C329.153 267.448 323.47 270.734 317.283 271.911C307.835 273.707 299.085 269.326 294.394 261.204C284.448 243.982 293.605 218.31 313.032 211.744C322.632 208.499 332.728 210.965 340.043 217.524C344.884 221.864 349.004 227.591 350.745 233.978C352.232 239.438 351.737 245.178 349.665 250.521C347.471 256.173 343.753 261.185 339.612 265.583C336.394 269 332.87 272.587 328.705 274.816C322.667 278.047 315.446 278.704 308.908 277.459C301.836 276.113 295.293 272.481 290.801 266.862C285.291 259.969 283.701 250.874 284.604 242.087C285.596 232.432 289.162 222.62 296.092 215.503C301.731 209.71 309.319 206.124 317.26 205.531C334.926 204.214 350.429 217.188 355.123 233.721C360.135 251.383 349.183 269.531 333.723 278.334C326.181 282.627 317.335 284.872 308.827 283.615C299.291 282.205 291.347 276.399 286.031 268.56C274.171 251.066 277.424 225.621 294.141 211.479C308.811 199.067 333.373 197.411 347.801 209.832C352.052 213.492 355.104 218.16 357.587 223.178C359.7 227.45 361.346 231.976 362.265 236.691C363.764 244.378 363.139 252.445 359.989 259.786C354.132 273.436 340.656 282.771 326.63 286.085C312.934 289.321 297.53 286.811 288.228 275.915C282.13 268.772 278.243 259.209 276.984 249.827C275.78 240.839 277.105 231.405 281.08 223.08C284.952 214.968 291.219 208.112 298.982 203.599C307.779 198.485 317.968 196.632 327.891 197.26C335.024 197.711 341.699 199.897 347.412 204.123C352.753 208.073 356.92 213.469 359.878 219.424C365.924 231.59 367.268 246.507 363.084 259.771C360.987 266.418 357.419 272.632 352.445 277.584C346.953 283.05 339.995 286.702 332.595 288.598C316.369 292.757 297.681 290.116 285.595 278.404C275.33 268.455 270.905 253.574 272.033 239.231C273.117 225.434 279.548 211.379 291.426 203.479C296.398 200.172 302.115 197.793 307.781 196.115C313.635 194.383 319.718 193.554 325.761 193.878C335.468 194.398 344.663 197.973 352.45 203.552C355.43 205.687 358.204 208.108 360.738 210.757C362.344 212.437 364.023 214.184 365.139 216.251C367.609 220.829 368.601 226.344 369.211 231.504C370.965 246.331 368.67 262.986 359.603 275.531C354.424 282.695 347.079 287.901 338.807 290.735C327.92 294.465 315.703 295.45 304.657 292.769C287.967 288.719 274.003 275.698 269.068 259.125C267.155 252.699 267.017 245.735 267.607 239.022C268.303 231.093 270.34 223.154 274.099 216.032C278.362 207.956 284.812 201.27 292.735 196.767C302.94 190.967 315.189 188.522 326.677 188.81C336.636 189.06 346.348 191.919 354.313 197.802C360.876 202.648 365.965 209.294 369.455 216.682C372.069 222.217 373.857 228.179 374.328 234.357C374.818 240.77 374.344 247.315 373.133 253.673C370.261 268.746 362.775 283.755 349.29 292.07C341.05 297.152 331.479 299.171 322.021 299.18C311.002 299.191 299.781 297.426 289.984 292.455C282.258 288.536 275.693 282.64 271.162 275.223C267.002 268.413 264.601 260.586 263.754 252.581C261.76 233.728 268.057 213.618 281.668 199.801C288.911 192.448 298.061 187.139 308.014 184.794C319.163 182.166 330.728 183.411 341.251 187.272C351.955 191.199 362.099 197.474 369.445 206.248C375.484 213.462 379.322 222.303 380.628 231.73C381.918 241.032 380.782 250.639 378.071 259.708C375.248 269.149 370.915 278.448 364.19 285.816C351.253 299.995 331.616 305.634 313.275 303.752C294.207 301.796 276.11 291.676 267.272 274.364C257.862 255.933 259.281 232.318 268.261 213.457C272.214 205.154 277.753 197.821 285.245 192.417C292.16 187.43 300.008 183.817 308.182 181.686C326.047 177.027 345.137 179.835 359.997 190.363C368.936 196.695 375.922 205.426 381.036 215.111C386.857 226.135 389.524 238.537 387.567 251.159C385.967 261.478 381.519 271.306 375.416 279.83C371.009 285.986 365.559 292.078 359.075 296.08C355.64 298.2 351.764 299.763 348.041 301.254C343.94 302.897 339.75 304.304 335.495 305.432C327.533 307.543 319.315 308.673 311.142 308.391C295.648 307.857 281.017 301.764 270.86 290.095C257.911 275.216 253.69 254.463 253.134 234.938C252.488 212.205 257.278 189.49 264.798 167.893C272.636 145.383 283.634 123.227 299.021 104.761C306.011 96.3721 313.901 88.9326 323.376 83.4886C332.3 78.3619 342.316 74.6327 352.48 73.5537C360.211 72.7331 369.275 73.3299 375.123 78.8641C381.024 84.4463 381.829 94.419 378.911 101.92C375.499 110.698 366.896 116.131 358.519 119.341C346.941 123.777 334.705 124.73 322.549 125.227C296.437 126.294 269.914 127.347 244.059 123.9C225.348 121.405 204.397 116.079 192.431 100.492C189.634 96.8487 187.618 92.6407 186.94 88.0207C186.312 83.7458 186.838 79.3519 187.726 75.1093C189.943 64.5175 193.631 54.3053 195.222 43.5765C196.635 34.0436 197.519 22.5152 192.142 14.1537C189.306 9.74306 184.776 7.05723 179.593 6.32787C177.976 6.10071 176.347 6.05728 174.709 6.10739C167.443 6.32898 160.165 7.35343 153.069 9.13284C147.204 10.6027 141.65 12.6638 135.576 12.9522C132.246 13.1104 129.415 11.6361 127.953 8.58053C127.276 7.16524 126.492 3.44829 128.652 2.68886C130.216 2.13989 132.25 3.78791 132.784 5.20209C133.241 6.41027 133.311 7.78659 133.336 9.07605C133.411 12.9389 132.835 16.8462 132.191 20.6656C130.945 28.0628 129.136 35.3553 127.379 42.6567C125.951 48.5862 126.549 55.8754 133.088 58.0078C139.308 60.0355 148.665 56.2985 147.856 48.4671C147.278 42.8861 142.309 40.2036 137.319 39.4074C131.806 38.5288 126.197 39.0489 120.717 40.2749C117.067 41.0911 113.178 41.708 110.262 38.9653C107.94 36.7817 107.009 33.3743 107.544 30.2063C108.119 26.7878 110.151 23.72 112.693 21.3917C115.336 18.9709 119.307 16.8652 122.739 18.6301C125.82 20.2147 127.06 23.916 127.038 27.2421C127.012 31.1684 125.763 35.107 124.852 38.9208C122.962 46.8402 121.07 54.7607 119.18 62.6801C118.226 66.6788 116.496 75.5492 122.54 76.3676C126.467 76.8988 129.95 74.5269 132.011 71.2253C133.348 69.0829 134.191 66.6075 134.948 64.2201C135.703 61.8383 136.346 59.2605 136.087 56.7706C135.915 55.1204 135.164 52.929 133.427 52.3767C131.669 51.8177 129.543 52.9891 127.935 53.635C123.267 55.5112 117.165 56.715 114.218 51.6796C112.121 48.0963 112.399 42.9718 114.369 39.2716C117.203 33.9467 124.993 28.4414 130.231 33.3743C132.405 35.421 133.493 38.53 133.726 41.5008C133.946 44.278 133.505 48.0016 130.957 49.7454C127.962 51.7954 124.111 49.5973 120.915 49.5483C118.317 49.5082 115.903 50.7854 114.246 52.8176C110.677 57.1916 111.779 63.1656 115.819 66.5697C120.442 70.4659 127.285 69.8145 132.26 66.5274C136.9 63.4607 139.874 58.589 143.076 54.1717C144.8 51.7943 146.642 49.457 148.918 47.5829C151.732 45.2657 155.102 44.111 158.544 43.1923C163.983 41.7403 170.709 40.3116 173.81 34.9244C175.939 31.2274 175.389 25.4059 171.165 23.6711C165.644 21.4039 160.065 28.1975 154.789 25.5173C150.555 23.3659 146.581 17.2983 147.631 12.3342C148.679 7.38461 154.771 3.82132 159.173 6.80223C162.415 8.99811 162.156 14.0892 160.731 17.4008C158.173 23.3414 150.573 20.2347 146.089 19.5232C143.603 19.129 140.809 19.0366 138.572 20.5109C136.481 21.8883 135.503 24.2646 135.493 26.682C135.463 33.5659 142.074 38.3028 140.749 45.4038C140.142 48.6597 138.686 51.8121 139.22 55.1616C139.623 57.6849 141.281 59.5556 143.679 60.3195C146.254 61.139 149.123 60.7415 151.762 60.2838C154.737 59.7683 157.792 58.9732 160.366 57.2673C165.717 53.7196 167.043 47.1609 166.991 41.2269C166.929 34.3676 165.254 25.9449 170.21 20.1078C172.246 17.7092 175.622 16.0757 178.723 16.7293C181.669 17.3507 183.421 19.9218 183.924 22.7747C184.999 28.8779 181.014 34.8854 175.861 37.9699C169.875 41.5521 163.346 40.4541 157.148 38.5879C151.419 36.8641 145.08 34.2818 138.917 35.7261C136.738 36.2361 134.4 37.8273 134.813 40.3651C135.257 43.0954 138.065 44.141 140.528 44.1043C145.895 44.0241 151.044 40.7325 154.121 36.3486C157.211 31.9457 158.087 26.6843 156.08 21.7903C155.258 19.7871 153.983 17.6992 151.917 16.8329C149.626 15.8719 146.804 16.4198 144.854 18.0277C141.311 20.9496 142.347 27.5684 144.997 30.5927C148.335 34.4032 154.371 34.1727 158.939 32.9401C165.855 31.0738 173.972 26.3068 180.999 29.7955C183.882 31.2263 186.261 34.3052 185.852 37.7238C185.459 41.0153 182.613 43.5653 179.667 44.7156C176.405 45.9895 172.808 45.8069 169.432 45.5073C167.044 45.2946 163.018 45.1978 161.881 42.6099C160.35 39.1246 165.19 36.7105 167.925 36.5167C170.57 36.3296 173.247 37.2706 175.223 38.9709C179.702 42.8204 179.343 49.9069 175.532 54.3443C171.444 59.1035 164.327 59.7126 159.172 56.8909C158.515 56.5312 157.89 57.5523 158.548 57.912L158.553 57.9087Z" fill="#272A52"/>
<path d="M89.9199 67.7898C94.5439 63.1655 94.5439 55.668 89.92 51.0437C85.296 46.4194 77.7991 46.4194 73.1751 51.0437C68.5512 55.668 68.5512 63.1655 73.1751 67.7898C77.7991 72.4141 85.296 72.4141 89.9199 67.7898Z" fill="white"/>
<path d="M62.0996 76.572C66.7236 71.9477 66.7236 64.4502 62.0996 59.826C57.4757 55.2017 49.9788 55.2017 45.3548 59.826C40.7309 64.4502 40.7309 71.9477 45.3548 76.572C49.9788 81.1963 57.4757 81.1963 62.0996 76.572Z" fill="white"/>
<path d="M34.2793 85.354C38.9033 80.7297 38.9033 73.2322 34.2793 68.6079C29.6554 63.9836 22.1585 63.9836 17.5345 68.6079C12.9106 73.2322 12.9106 80.7297 17.5345 85.354C22.1585 89.9783 29.6554 89.9783 34.2793 85.354Z" fill="white"/>
<path d="M478.016 130.572C479.81 130.572 481.264 129.118 481.264 127.324C481.264 125.53 479.81 124.076 478.016 124.076C476.223 124.076 474.769 125.53 474.769 127.324C474.769 129.118 476.223 130.572 478.016 130.572Z" fill="#222B54"/>
<defs>
<linearGradient id="paint0_linear_6441_7482" x1="220.581" y1="56.3567" x2="275.818" y2="56.3567" gradientUnits="userSpaceOnUse">
<stop stop-color="#D5ECE4"/>
<stop offset="1" stop-color="#AFE0EA"/>
</linearGradient>
<linearGradient id="paint1_linear_6441_7482" x1="554.236" y1="126.579" x2="585.901" y2="126.579" gradientUnits="userSpaceOnUse">
<stop stop-color="#D5ECE4"/>
<stop offset="1" stop-color="#AFE0EA"/>
</linearGradient>
<linearGradient id="paint2_linear_6441_7482" x1="19.2904" y1="143.25" x2="56.2055" y2="143.25" gradientUnits="userSpaceOnUse">
<stop stop-color="#D5ECE4"/>
<stop offset="1" stop-color="#AFE0EA"/>
</linearGradient>
</defs>
</svg>
