<svg width="64" height="51" viewBox="0 0 64 51" fill="none" xmlns="http://www.w3.org/2000/svg">
<g clip-path="url(#clip0_3375_1499)">
<path d="M54.4 37.234V3.33693L33.6 6.18576V41.3778L54.4 37.234ZM30.4 41.3778V6.18576L9.6 3.33693V37.234L30.4 41.3778ZM53.96 0.179315C55.89 -0.0796697 57.6 1.40451 57.6 3.33693V37.234C57.6 38.758 56.52 40.0629 55.03 40.3617L33.26 44.6947C32.43 44.8641 31.58 44.8641 30.75 44.6947L8.97 40.3518C7.47 40.0529 6.4 38.7481 6.4 37.224V3.33693C6.4 1.40451 8.11 -0.0796697 10.04 0.179315L32 3.18752L53.96 0.179315ZM0 6.52443C0 4.74142 1.46 3.33693 3.2 3.33693V6.52443V15.9375V41.6965L31.37 47.3045C31.78 47.3842 32.21 47.3842 32.63 47.3045L60.8 41.6965V15.9375V6.52443V3.33693C62.54 3.33693 64 4.74142 64 6.52443V41.6965C64 43.2205 62.92 44.5254 61.43 44.8242L33.26 50.4322C32.43 50.6016 31.58 50.6016 30.75 50.4322L2.57 44.8143C1.08 44.5254 0 43.2106 0 41.6965V6.52443Z" fill="#523DAD"/>
</g>
<defs>
<clipPath id="clip0_3375_1499">
<rect width="64" height="51" fill="white"/>
</clipPath>
</defs>
</svg>
