<svg width="54" height="48" viewBox="0 0 54 48" fill="none" xmlns="http://www.w3.org/2000/svg">
<g clip-path="url(#clip0_3375_1503)">
<path d="M10.5 0C11.325 0 12 0.675 12 1.5V6H30V1.5C30 0.675 30.675 0 31.5 0C32.325 0 33 0.675 33 1.5V6H36C39.3094 6 42 8.69063 42 12V15V18V18.0656C41.5031 18.0187 41.0062 18 40.5 18C39.9938 18 39.4969 18.0187 39 18.0656V18H3V42C3 43.6594 4.34062 45 6 45H27.7688C28.7063 46.1344 29.8031 47.1469 31.0125 48H6C2.69063 48 0 45.3094 0 42V18V15V12C0 8.69063 2.69063 6 6 6H9V1.5C9 0.675 9.675 0 10.5 0ZM36 9H6C4.34062 9 3 10.3406 3 12V15H39V12C39 10.3406 37.6594 9 36 9ZM40.5 45C43.2848 45 45.9555 43.8938 47.9246 41.9246C49.8938 39.9555 51 37.2848 51 34.5C51 31.7152 49.8938 29.0445 47.9246 27.0754C45.9555 25.1062 43.2848 24 40.5 24C37.7152 24 35.0445 25.1062 33.0754 27.0754C31.1062 29.0445 30 31.7152 30 34.5C30 37.2848 31.1062 39.9555 33.0754 41.9246C35.0445 43.8938 37.7152 45 40.5 45ZM40.5 21C44.0804 21 47.5142 22.4223 50.0459 24.9541C52.5777 27.4858 54 30.9196 54 34.5C54 38.0804 52.5777 41.5142 50.0459 44.0459C47.5142 46.5777 44.0804 48 40.5 48C36.9196 48 33.4858 46.5777 30.9541 44.0459C28.4223 41.5142 27 38.0804 27 34.5C27 30.9196 28.4223 27.4858 30.9541 24.9541C33.4858 22.4223 36.9196 21 40.5 21ZM40.5 27C41.325 27 42 27.675 42 28.5V33H45C45.825 33 46.5 33.675 46.5 34.5C46.5 35.325 45.825 36 45 36H40.5C39.675 36 39 35.325 39 34.5V28.5C39 27.675 39.675 27 40.5 27Z" fill="#523DAD"/>
</g>
<defs>
<clipPath id="clip0_3375_1503">
<rect width="54" height="48" fill="white"/>
</clipPath>
</defs>
</svg>
