<svg width="54" height="48" viewBox="0 0 54 48" fill="none" xmlns="http://www.w3.org/2000/svg">
<g clip-path="url(#clip0_3375_1501)">
<path d="M48 3H6C4.34062 3 3 4.34062 3 6V24H51V6C51 4.34062 49.6594 3 48 3ZM54 24V27V33C54 36.3094 51.3094 39 48 39H34.0219L35.025 45H40.5C41.325 45 42 45.675 42 46.5C42 47.325 41.325 48 40.5 48H33.75H20.25H13.5C12.675 48 12 47.325 12 46.5C12 45.675 12.675 45 13.5 45H18.975L19.9781 39H6C2.69063 39 0 36.3094 0 33V27V24V6C0 2.69063 2.69063 0 6 0H48C51.3094 0 54 2.69063 54 6V24ZM3 27V33C3 34.6594 4.34062 36 6 36H21.7219C21.7406 36 21.7594 36 21.7781 36H32.2219C32.2406 36 32.2594 36 32.2781 36H48C49.6594 36 51 34.6594 51 33V27H3ZM22.0219 45H31.9781L30.975 39H23.025L22.0219 45Z" fill="#523DAD"/>
</g>
<defs>
<clipPath id="clip0_3375_1501">
<rect width="54" height="48" fill="white"/>
</clipPath>
</defs>
</svg>
