<svg width="59" height="47" viewBox="0 0 59 47" fill="none" xmlns="http://www.w3.org/2000/svg">
<path d="M11.8 5.875C12.0905 5.875 12.3783 5.93199 12.6467 6.0427C12.9151 6.15342 13.159 6.3157 13.3645 6.52028C13.5699 6.72486 13.7329 6.96773 13.8441 7.23503C13.9553 7.50232 14.0125 7.78881 14.0125 8.07812C14.0125 8.36744 13.9553 8.65393 13.8441 8.92122C13.7329 9.18852 13.5699 9.43139 13.3645 9.63597C13.159 9.84055 12.9151 10.0028 12.6467 10.1135C12.3783 10.2243 12.0905 10.2812 11.8 10.2812C11.5095 10.2812 11.2217 10.2243 10.9533 10.1135C10.6849 10.0028 10.441 9.84055 10.2355 9.63597C10.0301 9.43139 9.86711 9.18852 9.75592 8.92122C9.64473 8.65393 9.5875 8.36744 9.5875 8.07812C9.5875 7.78881 9.64473 7.50232 9.75592 7.23503C9.86711 6.96773 10.0301 6.72486 10.2355 6.52028C10.441 6.3157 10.6849 6.15342 10.9533 6.0427C11.2217 5.93199 11.5095 5.875 11.8 5.875ZM11.8 13.2188C12.4779 13.2188 13.1493 13.0858 13.7756 12.8274C14.4019 12.5691 14.9711 12.1904 15.4504 11.7131C15.9298 11.2357 16.3101 10.669 16.5695 10.0454C16.829 9.42167 16.9625 8.7532 16.9625 8.07812C16.9625 7.40305 16.829 6.73458 16.5695 6.11089C16.3101 5.4872 15.9298 4.92051 15.4504 4.44315C14.9711 3.9658 14.4019 3.58715 13.7756 3.32881C13.1493 3.07047 12.4779 2.9375 11.8 2.9375C11.1221 2.9375 10.4507 3.07047 9.8244 3.32881C9.19805 3.58715 8.62894 3.9658 8.14956 4.44315C7.67018 4.92051 7.28991 5.4872 7.03047 6.11089C6.77103 6.73458 6.6375 7.40305 6.6375 8.07812C6.6375 8.7532 6.77103 9.42167 7.03047 10.0454C7.28991 10.669 7.67018 11.2357 8.14956 11.7131C8.62894 12.1904 9.19805 12.5691 9.8244 12.8274C10.4507 13.0858 11.1221 13.2188 11.8 13.2188ZM0 25.7031C0 29.6779 2.43375 33.0836 5.9 34.5156V38.9219C5.9 40.1428 6.88641 41.125 8.1125 41.125H15.4875C16.7136 41.125 17.7 40.1428 17.7 38.9219V35.25C17.7 34.4422 17.0363 33.7812 16.225 33.7812C15.4138 33.7812 14.75 34.4422 14.75 35.25V38.1875H8.85V19.1305C9.08969 19.1029 9.33859 19.0938 9.5875 19.0938H14.0125C14.8698 19.0938 15.6811 19.2498 16.4278 19.5436C17.1838 19.8373 18.0411 19.4609 18.3361 18.7082C18.6311 17.9555 18.2531 17.1018 17.4972 16.808C16.4186 16.3857 15.2386 16.1562 14.0125 16.1562H9.5875C4.29594 16.1562 0 20.434 0 25.7031ZM5.9 31.2018C4.12078 30.0176 2.95 27.9889 2.95 25.7031C2.95 23.4082 4.12078 21.3887 5.9 20.2045V31.2018ZM47.2 5.875C47.4906 5.875 47.7783 5.93199 48.0467 6.0427C48.3151 6.15342 48.559 6.3157 48.7645 6.52028C48.9699 6.72486 49.1329 6.96773 49.2441 7.23503C49.3553 7.50232 49.4125 7.78881 49.4125 8.07812C49.4125 8.36744 49.3553 8.65393 49.2441 8.92122C49.1329 9.18852 48.9699 9.43139 48.7645 9.63597C48.559 9.84055 48.3151 10.0028 48.0467 10.1135C47.7783 10.2243 47.4906 10.2812 47.2 10.2812C46.9095 10.2812 46.6217 10.2243 46.3533 10.1135C46.0849 10.0028 45.841 9.84055 45.6355 9.63597C45.4301 9.43139 45.2671 9.18852 45.1559 8.92122C45.0447 8.65393 44.9875 8.36744 44.9875 8.07812C44.9875 7.78881 45.0447 7.50232 45.1559 7.23503C45.2671 6.96773 45.4301 6.72486 45.6355 6.52028C45.841 6.3157 46.0849 6.15342 46.3533 6.0427C46.6217 5.93199 46.9095 5.875 47.2 5.875ZM47.2 13.2188C47.8779 13.2188 48.5493 13.0858 49.1756 12.8274C49.8019 12.5691 50.3711 12.1904 50.8504 11.7131C51.3298 11.2357 51.7101 10.669 51.9695 10.0454C52.229 9.42167 52.3625 8.7532 52.3625 8.07812C52.3625 7.40305 52.229 6.73458 51.9695 6.11089C51.7101 5.4872 51.3298 4.92051 50.8504 4.44315C50.3711 3.9658 49.8019 3.58715 49.1756 3.32881C48.5493 3.07047 47.8779 2.9375 47.2 2.9375C46.5221 2.9375 45.8507 3.07047 45.2244 3.32881C44.5981 3.58715 44.0289 3.9658 43.5496 4.44315C43.0702 4.92051 42.6899 5.4872 42.4305 6.11089C42.171 6.73458 42.0375 7.40305 42.0375 8.07812C42.0375 8.7532 42.171 9.42167 42.4305 10.0454C42.6899 10.669 43.0702 11.2357 43.5496 11.7131C44.0289 12.1904 44.5981 12.5691 45.2244 12.8274C45.8507 13.0858 46.5221 13.2188 47.2 13.2188ZM59 25.7031C59 20.434 54.7041 16.1562 49.4125 16.1562H44.9875C43.7614 16.1562 42.5814 16.3857 41.5028 16.808C40.7469 17.1018 40.3689 17.9555 40.6639 18.7082C40.9589 19.4609 41.8162 19.8373 42.5722 19.5436C43.3189 19.2498 44.1302 19.0938 44.9875 19.0938H49.4125C49.6614 19.0938 49.9103 19.1029 50.15 19.1305V38.1875H44.25V35.25C44.25 34.4422 43.5863 33.7812 42.775 33.7812C41.9637 33.7812 41.3 34.4422 41.3 35.25V38.9219C41.3 40.1428 42.2864 41.125 43.5125 41.125H50.8875C52.1136 41.125 53.1 40.1428 53.1 38.9219V34.5156C56.5662 33.0744 59 29.6779 59 25.7031ZM53.1 31.2018V20.2045C54.8792 21.3887 56.05 23.4082 56.05 25.7031C56.05 27.9889 54.8792 30.0176 53.1 31.2018ZM26.55 8.8125C26.55 8.03343 26.8608 7.28626 27.414 6.73537C27.9673 6.18449 28.7176 5.875 29.5 5.875C30.2824 5.875 31.0327 6.18449 31.586 6.73537C32.1392 7.28626 32.45 8.03343 32.45 8.8125C32.45 9.59157 32.1392 10.3387 31.586 10.8896C31.0327 11.4405 30.2824 11.75 29.5 11.75C28.7176 11.75 27.9673 11.4405 27.414 10.8896C26.8608 10.3387 26.55 9.59157 26.55 8.8125ZM35.4 8.8125C35.4 7.25435 34.7784 5.76002 33.6719 4.65825C32.5655 3.55647 31.0648 2.9375 29.5 2.9375C27.9352 2.9375 26.4345 3.55647 25.3281 4.65825C24.2216 5.76002 23.6 7.25435 23.6 8.8125C23.6 10.3706 24.2216 11.865 25.3281 12.9668C26.4345 14.0685 27.9352 14.6875 29.5 14.6875C31.0648 14.6875 32.5655 14.0685 33.6719 12.9668C34.7784 11.865 35.4 10.3706 35.4 8.8125ZM28.025 17.625C22.7334 17.625 18.4375 21.9027 18.4375 27.1719C18.4375 30.8529 20.5302 34.0475 23.6 35.6447V41.8594C23.6 43.0803 24.5864 44.0625 25.8125 44.0625H33.1875C34.4136 44.0625 35.4 43.0803 35.4 41.8594V35.6447C38.4698 34.0566 40.5625 30.8621 40.5625 27.1719C40.5625 21.9027 36.2666 17.625 30.975 17.625H28.025ZM23.6 22.2424V32.1014C22.2448 30.8897 21.3875 29.1271 21.3875 27.1719C21.3875 25.2166 22.2448 23.4541 23.6 22.2424ZM26.55 41.125V20.7277C27.0202 20.6176 27.518 20.5625 28.025 20.5625H30.975C31.482 20.5625 31.9798 20.6176 32.45 20.7277V41.125H26.55ZM35.4 32.1014V22.2424C36.7552 23.4541 37.6125 25.2074 37.6125 27.1719C37.6125 29.1271 36.7552 30.8897 35.4 32.1014Z" fill="#523DAD"/>
</svg>
