<svg width="101" height="100" viewBox="0 0 101 100" fill="none" xmlns="http://www.w3.org/2000/svg">
<g clip-path="url(#clip0_3702_7560)">
<path d="M85.625 50C85.625 69.3979 69.8999 85.123 50.5019 85.123C31.104 85.123 15.3789 69.3979 15.3789 50C15.3789 30.6021 31.104 14.877 50.5019 14.877C69.8999 14.877 85.625 30.6021 85.625 50Z" fill="#8A50A0" stroke="#8A50A0" stroke-width="10"/>
<path d="M25.2993 68.1764L26.1475 67.6214L27.3154 69.4099L25.3063 70.7246C24.9448 70.6167 24.6001 70.4384 24.2722 70.1894C23.9473 69.9451 23.65 69.6165 23.3804 69.2036C23.0501 68.698 22.8688 68.1975 22.8364 67.7021C22.8087 67.2038 22.9119 66.7389 23.1462 66.3075C23.3881 65.8777 23.7454 65.5082 24.2182 65.1988C24.5658 64.9714 24.9257 64.8186 25.2981 64.7405C25.6705 64.6624 26.0375 64.6572 26.3994 64.7251C26.7612 64.7929 27.0978 64.9335 27.4092 65.147C27.7282 65.362 28.0028 65.6458 28.2331 65.9984C28.5088 66.4206 28.6724 66.8433 28.7238 67.2665C28.7799 67.6867 28.7356 68.0899 28.5908 68.476L27.4529 68.2074C27.5351 67.9483 27.5728 67.6919 27.5659 67.4382C27.5589 67.1845 27.4706 66.9277 27.301 66.6679C27.1162 66.3849 26.8899 66.1853 26.6222 66.0692C26.3575 65.9576 26.0768 65.9228 25.78 65.9647C25.4879 66.0036 25.2051 66.1125 24.9316 66.2914C24.635 66.4855 24.4149 66.7156 24.2712 66.9818C24.1352 67.2496 24.0751 67.5273 24.0909 67.815C24.1067 68.1026 24.201 68.3786 24.3737 68.643C24.4949 68.8286 24.6263 68.9843 24.768 69.1101C24.9143 69.2329 25.0755 69.3227 25.2516 69.3797L25.8356 68.9976L25.2993 68.1764Z" fill="white"/>
<path d="M28.5447 72.1655L30.8469 69.6088L31.7846 70.4549L29.5881 72.8943C29.3472 73.1619 29.2101 73.43 29.177 73.6986C29.148 73.9709 29.2795 74.2387 29.5715 74.5022C29.8635 74.7657 30.1413 74.867 30.4047 74.8063C30.6681 74.7455 30.9203 74.5813 31.1613 74.3137L33.3578 71.8743L34.3017 72.726L31.9996 75.2827C31.703 75.612 31.3697 75.8373 30.9996 75.9586C30.6336 76.0836 30.2562 76.1012 29.8673 76.0115C29.4863 75.9214 29.1189 75.7168 28.7652 75.3977C28.4156 75.0823 28.1743 74.7377 28.0412 74.3639C27.9082 73.9901 27.8827 73.6127 27.9649 73.2317C28.0549 72.8503 28.2482 72.4949 28.5447 72.1655Z" fill="white"/>
<path d="M33.0728 78.5802L37.4772 74.6306L38.7055 75.2755L37.9274 81.1287L36.7137 80.4916L36.9288 79.1681L35.2003 78.2607L34.235 79.1903L33.0728 78.5802ZM35.909 77.5344L37.1153 78.1676L37.4916 75.9994L35.909 77.5344Z" fill="white"/>
<path d="M40.5473 82.0201L41.8685 76.6346L43.8688 77.1264C44.2882 77.2295 44.6186 77.3934 44.8599 77.6183C45.1025 77.8377 45.2621 78.0938 45.3385 78.3865C45.4163 78.6739 45.4175 78.971 45.3422 79.2778C45.2577 79.6223 45.1051 79.9073 44.8845 80.1327C44.6692 80.3594 44.4026 80.5165 44.0847 80.6038L44.7496 83.0531L43.4107 82.7239L42.8958 80.4999L42.2183 80.3334L41.733 82.3115L40.5473 82.0201ZM42.4579 79.3564L43.2081 79.5408C43.4339 79.5963 43.6279 79.5727 43.7899 79.4698C43.952 79.367 44.0581 79.2133 44.1083 79.0087C44.1624 78.788 44.1381 78.5966 44.0354 78.4343C43.938 78.2734 43.7791 78.1659 43.5586 78.1117L42.8085 77.9273L42.4579 79.3564Z" fill="white"/>
<path d="M48.023 83.4858L50.0593 77.9286L51.4463 77.9207L53.5045 83.4544L52.1342 83.4622L51.7033 82.1927L49.7515 82.2039L49.3353 83.4783L48.023 83.4858ZM50.0367 81.2295L51.3987 81.2217L50.714 79.1304L50.0367 81.2295Z" fill="white"/>
<path d="M56.2384 83.0483L54.8086 77.6908L55.964 77.3818L59.2112 80.2396L58.283 76.7616L59.4786 76.4419L60.9084 81.7994L59.8091 82.0934L56.4886 79.1863L57.434 82.7286L56.2384 83.0483Z" fill="white"/>
<path d="M65.438 79.7694L63.2746 75.8937L61.7085 76.7697L61.1697 75.8044L65.3967 73.4401L65.9355 74.4054L64.3767 75.2773L66.5401 79.153L65.438 79.7694Z" fill="white"/>
<path d="M70.8951 76.1998L67.1639 72.1009L69.9633 69.5474L70.7017 70.3586L68.8293 72.0665L69.5565 72.8654L71.0115 71.5383L71.7275 72.3249L70.2726 73.652L71.0781 74.5369L73.0856 72.7058L73.8296 73.5231L70.8951 76.1998Z" fill="white"/>
<path d="M76.0411 70.9157L71.4857 67.7601L73.6408 64.6426L74.5423 65.2671L73.1009 67.3522L73.9887 67.9673L75.1088 66.347L75.983 66.9526L74.8629 68.5728L75.8464 69.2541L77.3919 67.0185L78.3002 67.6477L76.0411 70.9157Z" fill="white"/>
<path d="M25.7458 39.1663L20.9414 36.362L21.4957 35.31L24.481 35.2387L22.829 32.7791L23.3871 31.7197L28.4318 34.0678L27.8465 35.1787L24.5539 33.6345L25.9386 35.654L25.6363 36.2279L23.1729 36.3094L26.3039 38.1068L25.7458 39.1663Z" fill="white"/>
<path d="M31.4513 30.8508C31.1657 31.1458 30.8493 31.3689 30.5021 31.52C30.1509 31.6673 29.7867 31.7444 29.4094 31.7511C29.0359 31.7539 28.671 31.684 28.3146 31.5415C27.9582 31.399 27.632 31.1854 27.3359 30.9008C27.0359 30.6123 26.81 30.2951 26.6583 29.9492C26.5026 29.5994 26.4195 29.2385 26.4088 28.8665C26.3982 28.4945 26.4625 28.1329 26.6016 27.7818C26.7406 27.4228 26.9529 27.0958 27.2385 26.8008C27.5242 26.5057 27.8426 26.2846 28.1937 26.1373C28.5409 25.9861 28.9012 25.9091 29.2747 25.9064C29.652 25.8996 30.0188 25.9675 30.3752 26.11C30.7276 26.2487 31.0539 26.4622 31.3539 26.7507C31.65 27.0353 31.8758 27.3525 32.0315 27.7023C32.1872 28.0521 32.2685 28.415 32.2752 28.791C32.2859 29.163 32.2236 29.5265 32.0885 29.8815C31.9493 30.2327 31.7369 30.5557 31.4513 30.8508ZM30.5992 30.0315C30.8269 29.7963 30.9638 29.5392 31.0099 29.2602C31.0598 28.9773 31.0312 28.6996 30.9241 28.4273C30.8209 28.151 30.6552 27.9032 30.4272 27.684C30.1991 27.4648 29.9467 27.3106 29.6699 27.2215C29.3929 27.1246 29.1155 27.108 28.8375 27.1718C28.5593 27.2277 28.3064 27.3732 28.0787 27.6084C27.851 27.8437 27.7121 28.1027 27.6622 28.3857C27.6121 28.6608 27.6387 28.9366 27.7419 29.2129C27.8412 29.4853 28.0049 29.7312 28.2329 29.9504C28.4609 30.1696 28.7154 30.3257 28.9962 30.4186C29.277 30.5116 29.5565 30.5301 29.8346 30.4742C30.1166 30.4143 30.3714 30.2667 30.5992 30.0315Z" fill="white"/>
<path d="M34.8613 27.5314L32.042 22.7539L33.077 22.1474L36.9846 24.0315L35.1543 20.9301L36.2253 20.3025L39.0447 25.08L38.0599 25.657L34.0683 23.7451L35.9323 26.9038L34.8613 27.5314Z" fill="white"/>
<path d="M41.3476 24.1627L39.7765 18.8461L43.4241 17.7758L43.735 18.8279L41.2953 19.5438L41.6015 20.5801L43.4973 20.0238L43.7988 21.044L41.903 21.6003L42.2422 22.7481L44.8579 21.9806L45.1712 23.0407L41.3476 24.1627Z" fill="white"/>
<path d="M48.7904 22.6543L48.6794 20.3386L46.576 17.2111L48.0003 17.1433L49.3083 19.1773L50.3824 17.0299L51.7484 16.9648L49.9534 20.2697L50.0648 22.5936L48.7904 22.6543Z" fill="white"/>
<path d="M57.0411 23.3152L58.8542 18.0757L60.825 18.7529C61.2612 18.9028 61.5854 19.0874 61.7976 19.3068C62.0169 19.5228 62.1481 19.7554 62.1912 20.0046C62.2362 20.2486 62.2169 20.491 62.1336 20.7319C62.0575 20.9519 61.9423 21.1232 61.7881 21.246C61.6391 21.3706 61.4862 21.4558 61.3292 21.5015C61.1794 21.5437 61.0588 21.5609 60.9674 21.5529C61.0058 21.5778 61.0477 21.6098 61.093 21.6488C61.1436 21.6896 61.1932 21.7331 61.242 21.7791C61.4248 21.9474 61.5528 22.1554 61.6258 22.4032C61.6988 22.651 61.6864 22.9162 61.5885 23.199C61.4019 23.7384 61.0821 24.0592 60.6292 24.1615C60.1816 24.2655 59.6425 24.2091 59.0118 23.9924L57.0411 23.3152ZM59.2872 20.5713L59.9888 20.8123C60.1675 20.8737 60.3449 20.8878 60.5211 20.8546C60.7043 20.818 60.834 20.6896 60.9101 20.4697C60.9644 20.3126 60.9693 20.1795 60.9248 20.0704C60.8854 19.9632 60.816 19.8749 60.7165 19.8055C60.6189 19.7309 60.5122 19.6738 60.3966 19.634L59.695 19.393L59.2872 20.5713ZM58.5152 22.8022L59.2878 23.0677C59.4034 23.1074 59.534 23.1376 59.6797 23.1584C59.8325 23.1757 59.9751 23.1544 60.1076 23.0945C60.2419 23.0293 60.3444 22.8946 60.4151 22.6903C60.4803 22.5018 60.4802 22.3406 60.4148 22.2068C60.3546 22.0748 60.259 21.9687 60.128 21.8885C60.0041 21.8049 59.8816 21.7424 59.7608 21.7008L58.9882 21.4354L58.5152 22.8022Z" fill="white"/>
<path d="M62.6971 25.4136L67.4634 21.8866L68.6322 22.641L67.3163 28.395L66.1615 27.6497L66.4981 26.3522L64.8534 25.2907L63.8029 26.1274L62.6971 25.4136ZM65.6287 24.6328L66.7765 25.3736L67.352 23.2502L65.6287 24.6328Z" fill="white"/>
<path d="M72.5486 31.2178L72.5506 32.3765C72.2897 32.4042 72.011 32.3881 71.7146 32.328C71.422 32.2721 71.1354 32.1693 70.8547 32.0198C70.5741 31.8702 70.3174 31.6688 70.0847 31.4155C69.7055 31.0029 69.4618 30.553 69.3534 30.066C69.2489 29.5831 69.2739 29.1058 69.4285 28.6343C69.591 28.1631 69.8792 27.7385 70.2933 27.3607C70.5967 27.0839 70.9266 26.8768 71.2828 26.7395C71.6432 26.5985 72.0062 26.5301 72.3719 26.5344C72.7414 26.5428 73.0998 26.6252 73.447 26.7816C73.798 26.942 74.118 27.1796 74.407 27.4941C74.7524 27.87 74.9868 28.2645 75.1102 28.6777C75.2336 29.0909 75.2505 29.5112 75.1607 29.9385L73.9719 29.8628C74.0314 29.5831 74.0355 29.3128 73.9841 29.0518C73.9368 28.787 73.8061 28.5382 73.5921 28.3053C73.3669 28.0602 73.1122 27.9019 72.8281 27.8307C72.5519 27.7597 72.2704 27.765 71.9835 27.8465C71.7003 27.9321 71.4398 28.0834 71.202 28.3004C70.9601 28.5211 70.786 28.7664 70.6797 29.0362C70.5771 29.31 70.5491 29.5872 70.5957 29.8676C70.6464 30.1443 70.7807 30.4011 70.9984 30.6381C71.1786 30.8342 71.3554 30.9733 71.5289 31.0554C71.7023 31.1375 71.8713 31.1861 72.0359 31.2012C72.2083 31.2166 72.3793 31.2221 72.5486 31.2178Z" fill="white"/>
<path d="M72.9986 34.8772L77.9143 32.2844L78.5034 33.3933L76.543 34.4273L79.3733 35.031L80.056 36.3162L77.2465 35.6451L75.2613 39.1367L74.5474 37.7928L75.9976 35.3543L75.1722 35.1504L73.5877 35.9862L72.9986 34.8772Z" fill="white"/>
<circle cx="19.607" cy="50.1343" r="1.33743" fill="white"/>
<circle cx="81.396" cy="50.1343" r="1.33743" fill="white"/>
<path fill-rule="evenodd" clip-rule="evenodd" d="M53.7494 4.91227L51.7265 2.9897C51.0395 2.33677 49.9613 2.33677 49.2743 2.9897L47.2514 4.91227C45.2141 6.84853 42.1934 7.32698 39.6574 6.11505L37.1394 4.91168C36.2842 4.503 35.2588 4.83618 34.8072 5.66946L33.4774 8.12304C32.1382 10.5941 29.4131 11.9826 26.6268 11.6136L23.8602 11.2473C22.9206 11.1228 22.0483 11.7566 21.8763 12.6886L21.3698 15.4331C20.8597 18.197 18.697 20.3597 15.9331 20.8698L13.1886 21.3763C12.2566 21.5483 11.6228 22.4206 11.7473 23.3601L12.1136 26.1268C12.4826 28.9131 11.0941 31.6382 8.62305 32.9774L6.16946 34.3072C5.33618 34.7588 5.003 35.7842 5.41168 36.6394L6.61505 39.1574C7.82697 41.6933 7.34854 44.7141 5.41227 46.7514L3.4897 48.7743C2.83677 49.4613 2.83677 50.5395 3.4897 51.2265L5.41227 53.2494C7.34853 55.2867 7.82698 58.3075 6.61505 60.8434L5.41168 63.3614C5.003 64.2166 5.33618 65.242 6.16945 65.6936L8.62304 67.0234C11.0941 68.3627 12.4826 71.0877 12.1136 73.8741L11.7473 76.6407C11.6228 77.5803 12.2566 78.4526 13.1886 78.6246L15.9331 79.1311C18.697 79.6412 20.8597 81.8038 21.3698 84.5678L21.8763 87.3122C22.0483 88.2443 22.9206 88.878 23.8602 88.7536L26.6268 88.3872C29.4131 88.0183 32.1382 89.4067 33.4774 91.8778L34.8072 94.3314C35.2588 95.1647 36.2842 95.4978 37.1394 95.0892L39.6574 93.8858C42.1934 92.6739 45.2141 93.1523 47.2514 95.0886L49.2743 97.0111C49.9613 97.6641 51.0395 97.6641 51.7265 97.0111L53.7494 95.0886C55.7867 93.1523 58.8075 92.6739 61.3434 93.8858L63.8614 95.0892C64.7166 95.4978 65.742 95.1647 66.1936 94.3314L67.5234 91.8778C68.8627 89.4067 71.5877 88.0183 74.3741 88.3872L77.1407 88.7536C78.0803 88.878 78.9526 88.2443 79.1246 87.3122L79.6311 84.5678C80.1412 81.8038 82.3038 79.6412 85.0678 79.1311L87.8122 78.6246C88.7443 78.4526 89.378 77.5803 89.2536 76.6407L88.8872 73.8741C88.5183 71.0877 89.9067 68.3627 92.3778 67.0234L94.8314 65.6936C95.6647 65.242 95.9978 64.2166 95.5892 63.3614L94.3858 60.8434C93.1739 58.3075 93.6523 55.2867 95.5886 53.2494L97.5111 51.2265C98.1641 50.5395 98.1641 49.4613 97.5111 48.7743L95.5886 46.7514C93.6523 44.7141 93.1739 41.6934 94.3858 39.1574L95.5892 36.6394C95.9978 35.7843 95.6647 34.7588 94.8314 34.3072L92.3778 32.9774C89.9067 31.6382 88.5183 28.9131 88.8872 26.1268L89.2536 23.3602C89.378 22.4206 88.7443 21.5483 87.8122 21.3763L85.0678 20.8698C82.3038 20.3597 80.1412 18.197 79.6311 15.4331L79.1246 12.6886C78.9526 11.7566 78.0803 11.1228 77.1407 11.2473L74.3741 11.6136C71.5877 11.9826 68.8627 10.5941 67.5234 8.12304L66.1936 5.66945C65.742 4.83618 64.7166 4.503 63.8614 4.91168L61.3434 6.11505C58.8075 7.32697 55.7867 6.84854 53.7494 4.91227ZM53.4488 1.17756C51.7967 -0.392521 49.2041 -0.392522 47.5521 1.17756L45.5292 3.10014C44.2431 4.32241 42.3362 4.62443 40.7354 3.8594L38.2174 2.65603C36.161 1.6733 33.6953 2.47447 32.6093 4.47822L31.2795 6.9318C30.4341 8.49168 28.7139 9.36817 26.955 9.13526L24.1883 8.7689C21.9289 8.46971 19.8314 9.99364 19.4178 12.2349L18.9113 14.9793C18.5893 16.7241 17.2241 18.0893 15.4793 18.4113L12.7349 18.9178C10.4936 19.3314 8.96971 21.4289 9.2689 23.6883L9.63526 26.455C9.86817 28.2139 8.99168 29.9341 7.43181 30.7795L4.97822 32.1093C2.97447 33.1953 2.1733 35.661 3.15603 37.7174L4.3594 40.2354C5.12443 41.8362 4.82242 43.7431 3.60014 45.0292L1.67756 47.0521C0.107479 48.7041 0.107478 51.2967 1.67756 52.9488L3.60014 54.9717C4.82241 56.2578 5.12443 58.1646 4.3594 59.7655L3.15603 62.2835C2.1733 64.3398 2.97447 66.8056 4.97822 67.8916L7.4318 69.2214C8.99168 70.0668 9.86817 71.787 9.63526 73.5459L9.2689 76.3125C8.96971 78.5719 10.4936 80.6694 12.7349 81.083L15.4793 81.5896C17.2241 81.9116 18.5893 83.2767 18.9113 85.0215L19.4178 87.7659C19.8314 90.0072 21.9289 91.5311 24.1883 91.2319L26.955 90.8656C28.7139 90.6327 30.4341 91.5092 31.2795 93.069L32.6093 95.5226C33.6953 97.5264 36.161 98.3275 38.2174 97.3448L40.7354 96.1414C42.3362 95.3764 44.2431 95.6784 45.5292 96.9007L47.5521 98.8233C49.2041 100.393 51.7967 100.393 53.4488 98.8233L55.4717 96.9007C56.7578 95.6784 58.6646 95.3764 60.2655 96.1414L62.7835 97.3448C64.8398 98.3275 67.3056 97.5264 68.3916 95.5226L69.7214 93.069C70.5668 91.5092 72.287 90.6327 74.0459 90.8656L76.8125 91.2319C79.0719 91.5311 81.1694 90.0072 81.583 87.7659L82.0896 85.0215C82.4116 83.2767 83.7767 81.9116 85.5215 81.5896L88.2659 81.083C90.5072 80.6694 92.0311 78.5719 91.7319 76.3125L91.3656 73.5459C91.1327 71.787 92.0092 70.0668 93.569 69.2214L96.0226 67.8916C98.0264 66.8056 98.8275 64.3398 97.8448 62.2835L96.6414 59.7655C95.8764 58.1646 96.1784 56.2578 97.4007 54.9717L99.3233 52.9488C100.893 51.2967 100.893 48.7041 99.3233 47.0521L97.4007 45.0292C96.1784 43.7431 95.8764 41.8362 96.6414 40.2354L97.8448 37.7174C98.8275 35.661 98.0264 33.1953 96.0226 32.1093L93.569 30.7795C92.0092 29.9341 91.1327 28.2139 91.3656 26.455L91.7319 23.6883C92.0311 21.4289 90.5072 19.3314 88.2659 18.9178L85.5215 18.4113C83.7767 18.0893 82.4116 16.7241 82.0896 14.9793L81.583 12.2349C81.1694 9.99364 79.0719 8.46971 76.8125 8.7689L74.0459 9.13526C72.287 9.36817 70.5668 8.49168 69.7214 6.93181L68.3916 4.47822C67.3056 2.47447 64.8398 1.6733 62.7835 2.65603L60.2655 3.8594C58.6646 4.62443 56.7578 4.32242 55.4717 3.10014L53.4488 1.17756Z" fill="#8A50A0"/>
<path d="M29.4442 55.9488V53.238H31.3796V47.5527L29.8137 48.4563L28.5469 46.0467L31.8723 44.0889H34.2475V53.238H36.0422V55.9488H29.4442Z" fill="white"/>
<path d="M42.4738 56.25C41.5003 56.25 40.685 55.9864 40.0282 55.4593C39.3713 54.9322 38.8787 54.198 38.5502 53.2568C38.2218 52.3155 38.0576 51.2299 38.0576 50C38.0576 48.7575 38.2218 47.6719 38.5502 46.7432C38.8787 45.802 39.3713 45.0678 40.0282 44.5407C40.685 44.0136 41.5003 43.75 42.4738 43.75C43.506 43.75 44.3447 44.0136 44.9899 44.5407C45.635 45.0678 46.11 45.802 46.415 46.7432C46.72 47.6719 46.8725 48.7575 46.8725 50C46.8725 51.2299 46.72 52.3155 46.415 53.2568C46.11 54.198 45.635 54.9322 44.9899 55.4593C44.3447 55.9864 43.506 56.25 42.4738 56.25ZM42.4738 53.3509C42.8492 53.3509 43.1366 53.2003 43.336 52.8991C43.5354 52.5979 43.6703 52.1963 43.7406 51.6943C43.8227 51.1797 43.8638 50.615 43.8638 50C43.8638 49.385 43.8227 48.8266 43.7406 48.3245C43.6703 47.81 43.5354 47.4021 43.336 47.1009C43.1366 46.7997 42.8492 46.6491 42.4738 46.6491C42.0985 46.6491 41.8111 46.7997 41.6117 47.1009C41.4123 47.4021 41.2715 47.81 41.1894 48.3245C41.119 48.8266 41.0838 49.385 41.0838 50C41.0838 50.615 41.119 51.1797 41.1894 51.6943C41.2715 52.1963 41.4123 52.5979 41.6117 52.8991C41.8111 53.2003 42.0985 53.3509 42.4738 53.3509Z" fill="white"/>
<path d="M52.3364 56.25C51.3629 56.25 50.5476 55.9864 49.8908 55.4593C49.2339 54.9322 48.7413 54.198 48.4128 53.2568C48.0844 52.3155 47.9202 51.2299 47.9202 50C47.9202 48.7575 48.0844 47.6719 48.4128 46.7432C48.7413 45.802 49.2339 45.0678 49.8908 44.5407C50.5476 44.0136 51.3629 43.75 52.3364 43.75C53.3686 43.75 54.2073 44.0136 54.8524 44.5407C55.4976 45.0678 55.9726 45.802 56.2776 46.7432C56.5826 47.6719 56.7351 48.7575 56.7351 50C56.7351 51.2299 56.5826 52.3155 56.2776 53.2568C55.9726 54.198 55.4976 54.9322 54.8524 55.4593C54.2073 55.9864 53.3686 56.25 52.3364 56.25ZM52.3364 53.3509C52.7118 53.3509 52.9991 53.2003 53.1986 52.8991C53.398 52.5979 53.5329 52.1963 53.6032 51.6943C53.6853 51.1797 53.7264 50.615 53.7264 50C53.7264 49.385 53.6853 48.8266 53.6032 48.3245C53.5329 47.81 53.398 47.4021 53.1986 47.1009C52.9991 46.7997 52.7118 46.6491 52.3364 46.6491C51.9611 46.6491 51.6737 46.7997 51.4743 47.1009C51.2749 47.4021 51.1341 47.81 51.052 48.3245C50.9816 48.8266 50.9464 49.385 50.9464 50C50.9464 50.615 50.9816 51.1797 51.052 51.6943C51.1341 52.1963 51.2749 52.5979 51.4743 52.8991C51.6737 53.2003 51.9611 53.3509 52.3364 53.3509Z" fill="white"/>
<path d="M60.5627 55.9488L67.5654 44.0889H70.0814L63.1491 55.9488H60.5627ZM69.8175 56.1559C68.8556 56.1559 68.1343 55.8296 67.6533 55.177C67.1842 54.5243 66.9496 53.7086 66.9496 52.7297C66.9496 51.7382 67.1842 50.9287 67.6533 50.3012C68.1343 49.6611 68.8556 49.3411 69.8175 49.3411C70.791 49.3411 71.5124 49.6611 71.9816 50.3012C72.4625 50.9287 72.703 51.7382 72.703 52.7297C72.703 53.7086 72.4625 54.5243 71.9816 55.177C71.5124 55.8296 70.791 56.1559 69.8175 56.1559ZM69.8175 54.3675C70.0521 54.3675 70.2222 54.2733 70.3277 54.0851C70.445 53.8968 70.5213 53.6772 70.5564 53.4262C70.5916 53.1627 70.6092 52.9305 70.6092 52.7297C70.6092 52.5289 70.5916 52.303 70.5564 52.052C70.5213 51.7884 70.445 51.5625 70.3277 51.3742C70.2222 51.186 70.0521 51.0919 69.8175 51.0919C69.5829 51.0919 69.4069 51.186 69.2896 51.3742C69.1841 51.5625 69.1137 51.7884 69.0785 52.052C69.0433 52.303 69.0257 52.5289 69.0257 52.7297C69.0257 52.9305 69.0433 53.1627 69.0785 53.4262C69.1137 53.6772 69.1841 53.8968 69.2896 54.0851C69.4069 54.2733 69.5829 54.3675 69.8175 54.3675ZM60.9322 50.6024C59.9704 50.6024 59.249 50.2761 58.7681 49.6235C58.2989 48.9709 58.0643 48.1551 58.0643 47.1762C58.0643 46.1847 58.2989 45.3753 58.7681 44.7477C59.249 44.1077 59.9704 43.7877 60.9322 43.7877C61.9058 43.7877 62.6272 44.1077 63.0963 44.7477C63.5773 45.3753 63.8177 46.1847 63.8177 47.1762C63.8177 48.1551 63.5773 48.9709 63.0963 49.6235C62.6272 50.2761 61.9058 50.6024 60.9322 50.6024ZM60.9322 48.814C61.1668 48.814 61.3369 48.7199 61.4424 48.5316C61.5597 48.3434 61.636 48.1237 61.6712 47.8727C61.7064 47.6092 61.724 47.377 61.724 47.1762C61.724 46.9754 61.7064 46.7495 61.6712 46.4985C61.636 46.2349 61.5597 46.009 61.4424 45.8208C61.3369 45.6325 61.1668 45.5384 60.9322 45.5384C60.6976 45.5384 60.5217 45.6325 60.4044 45.8208C60.2988 46.009 60.2284 46.2349 60.1932 46.4985C60.158 46.7495 60.1404 46.9754 60.1404 47.1762C60.1404 47.377 60.158 47.6092 60.1932 47.8727C60.2284 48.1237 60.2988 48.3434 60.4044 48.5316C60.5217 48.7199 60.6976 48.814 60.9322 48.814Z" fill="white"/>
</g>
<defs>
<clipPath id="clip0_3702_7560">
<rect width="100" height="100" fill="white" transform="translate(0.5)"/>
</clipPath>
</defs>
</svg>
