<svg width="180" height="136" viewBox="0 0 180 136" fill="none" xmlns="http://www.w3.org/2000/svg">
<g clip-path="url(#clip0_141_1105)">
<path d="M178.815 86.5438C177.315 80.8495 174.417 75.5501 170.216 71.4117C156.349 57.7327 131.924 57.0693 121.374 40.6972C116.431 33.0205 115.673 23.322 111.298 15.3058C101.829 -2.01411 74.3327 -5.40226 60.9476 9.10598C54.7644 15.8033 51.1713 25.4623 42.8639 29.2059C37.3519 31.6858 30.9792 30.9276 25.025 31.9464C-18.9208 39.473 1.65829 90.4612 35.8594 99.0224C46.9228 101.794 56.5885 108.689 62.3374 118.538C64.6591 122.51 67.7704 126.025 71.5135 128.71C80.9739 135.494 94.0984 136.774 104.696 131.948C110.626 129.247 116.02 124.722 122.527 124.303C128.007 123.948 133.18 126.601 138.51 127.928C152.677 131.451 168.779 124.493 175.917 111.761C180.174 104.172 181.019 94.9392 178.808 86.5438H178.815Z" fill="#89509E"/>
<path d="M137.412 87.5708L128.402 97.1666L125.836 98.2802L124.106 96.2426L120.924 99.1174L118.065 121.437L120.584 136.008H74.5696L76.8755 102.703L73.6694 94.7025L71.253 95.824L68.3469 93.9285L61.1292 82.1292L75.9358 72.1069C77.1045 71.3171 78.4312 70.788 79.8289 70.5747L85.87 69.627L88.6654 69.1926H111.661L111.835 69.2321L123.246 71.9253C125.504 72.4544 127.486 73.7891 128.844 75.6688L137.412 87.5866V87.5708Z" fill="#D4B7D7"/>
<g style="mix-blend-mode:multiply" opacity="0.4">
<path d="M98.8365 69.8324C99.3104 70.2036 99.6736 70.7249 99.8631 71.2935C100.053 71.8701 100.068 72.4703 100.045 73.0547C100.013 73.6392 99.871 74.2236 99.7052 74.7922C99.5394 75.3372 99.3498 75.8821 99.1287 76.4192C99.6815 74.6343 100.076 71.8069 98.268 69.4139C98.339 69.4612 98.4101 69.5086 98.4812 69.5639C98.5996 69.6508 98.726 69.7456 98.8444 69.8403L98.8365 69.8324ZM91.4293 84.5065C91.1924 84.5065 90.9476 84.5065 90.7186 84.4749C90.458 84.4512 90.1895 84.4039 89.9447 84.3091C89.4393 84.1432 88.9971 83.7641 88.7286 83.2824C88.5944 83.0454 88.5075 82.7769 88.4522 82.5163C88.397 82.2478 88.3812 81.9792 88.3733 81.7107C88.3733 81.5686 88.3733 81.4343 88.3733 81.2921C88.5154 82.8638 89.2577 84.3565 91.4451 84.5065H91.4293ZM98.418 78.2199C98.8365 77.7539 99.1998 77.2406 99.5157 76.7035C99.8315 76.1586 100.108 75.582 100.297 74.9739C100.392 74.6659 100.455 74.35 100.503 74.0341C100.55 73.7182 100.566 73.3943 100.566 73.0705C100.558 72.4229 100.376 71.7753 100.092 71.2066C99.8079 70.638 99.4367 70.1326 99.0261 69.6508C98.8839 69.4928 98.7339 69.3349 98.576 69.1848H88.6733L85.8779 69.6192C84.1485 71.6963 84.4091 73.7734 84.4091 73.7734C81.432 79.7284 88.0416 78.5516 88.6023 78.4489C88.4443 78.6859 88.3259 78.9386 88.2232 79.1992C88.1127 79.4677 88.0337 79.7442 87.9705 80.0285C87.9074 80.3128 87.8679 80.605 87.8521 80.8972C87.8363 81.1895 87.8521 81.4896 87.9073 81.7818C88.0179 82.3662 88.2785 82.9112 88.5865 83.3929C88.7365 83.6378 88.9102 83.8747 89.1156 84.0801C89.3209 84.2933 89.5499 84.4828 89.8105 84.6329C90.0711 84.783 90.3554 84.8935 90.6475 84.9646C90.9397 85.0357 91.2319 85.0594 91.532 85.0752C92.1164 85.0989 92.6928 85.0515 93.2535 84.9725C94.3196 84.8146 95.3383 84.5697 96.4043 84.5065C95.6146 88.2659 92.0216 88.0132 90.458 90.3193C88.8945 92.6334 91.1214 94.5367 91.1214 94.5367C90.8923 93.7785 91.1608 92.894 91.1608 92.894C90.9555 94.4735 92.0216 94.8684 92.0216 94.8684C91.8952 94.0708 92.0848 93.4073 92.0848 93.4073C92.4954 96.0768 94.1379 95.8557 94.1379 95.8557C93.5852 95.0975 93.6641 93.4073 93.6641 93.4073C94.2169 97.5379 97.3046 96.7955 97.3046 96.7955C97.0045 96.5981 96.7834 96.2979 96.7676 96.2821C99.1129 97.3483 99.5078 94.6236 99.5078 94.6236C97.96 95.6503 97.3204 95.0422 97.0756 94.1655C96.7992 93.1941 97.0598 92.1595 97.6994 91.3776C99.5867 89.0557 99.1524 86.9233 99.1524 86.9233C102.738 82.1293 98.6549 78.6227 98.568 78.5437C100.376 79.294 101.15 82.3741 101.15 82.3741C102.295 80.2575 98.7734 78.4015 98.4338 78.2278L98.418 78.2199Z" fill="#A65B3C"/>
</g>
<path d="M112.845 61.8871C112.845 61.8871 112.34 64.5486 109.631 63.3403C109.631 63.3403 110.587 63.0401 111.061 62.3688C111.061 62.3688 109.095 64.288 106.149 62.4715L110.721 46.9128C110.721 46.9128 116.912 53.7207 112.845 61.8871Z" fill="#1B1A2E"/>
<path d="M109.26 68.3555C107.728 67.8343 106.702 66.389 106.702 64.7778V55.7822H92.1795V65.3622C92.1795 67.1393 90.9397 68.6793 89.2103 69.0584L88.6733 69.1769L90.079 70.788C94.7697 76.1506 102.903 76.7272 108.305 72.0754L111.669 69.1769L109.268 68.3555H109.26Z" fill="#FFC89F"/>
<path d="M109.11 44.4409C109.11 39.0977 104.779 34.7661 99.4367 34.7661C94.0941 34.7661 89.7631 39.0977 89.7631 44.4409V56.256C89.7631 61.5993 94.0941 65.9308 99.4367 65.9308C104.779 65.9308 109.11 61.5993 109.11 56.256V44.4409Z" fill="#FFC89F"/>
<path d="M99.4367 65.9386H98.8129C98.6075 65.9228 98.3943 65.8991 98.189 65.8833C97.9837 65.8596 97.7784 65.8202 97.5652 65.7886C97.3598 65.7491 97.1545 65.7017 96.9492 65.6543C96.1358 65.449 95.354 65.1252 94.6275 64.7145C93.901 64.2959 93.2298 63.7825 92.6375 63.1902C92.4954 63.0401 92.3533 62.8822 92.2111 62.7321C92.0769 62.5742 91.9426 62.4083 91.8163 62.2504L91.453 61.737C91.3425 61.5632 91.2319 61.3816 91.1292 61.2L91.4767 61.7212L91.8558 62.2188C91.99 62.3767 92.1243 62.5347 92.2664 62.6926C92.4085 62.8427 92.5507 62.9928 92.7007 63.1349C93.3009 63.7114 93.9642 64.209 94.6907 64.6197C95.4093 65.0304 96.1832 65.3463 96.9808 65.5674C97.7784 65.7886 98.6075 65.907 99.4446 65.9307L99.4367 65.9386Z" fill="#FF9A6C"/>
<path d="M108.084 60.6077C107.855 61.0894 107.602 61.5712 107.278 61.9977C106.962 62.4321 106.599 62.8348 106.212 63.206C105.817 63.5772 105.407 63.9168 104.964 64.2249C104.522 64.525 104.056 64.8093 103.559 65.0146C103.796 64.8962 104.025 64.754 104.246 64.6039C104.356 64.5329 104.467 64.4539 104.578 64.3828L104.901 64.1459C105.328 63.83 105.738 63.4904 106.125 63.1192C106.22 63.0244 106.323 62.9375 106.41 62.8427L106.686 62.5505C106.781 62.4557 106.86 62.3452 106.947 62.2504C107.033 62.1477 107.12 62.0451 107.199 61.9424L107.444 61.6265L107.665 61.2948L107.776 61.1289L107.878 60.9552L108.084 60.6077Z" fill="#FF9A6C"/>
<path d="M89.9289 49.0691H89.4314C88.4371 49.0691 87.631 49.8753 87.631 50.8698V54.0842C87.631 55.0787 88.4371 55.8849 89.4314 55.8849H89.9289C90.9233 55.8849 91.7294 55.0787 91.7294 54.0842V50.8698C91.7294 49.8753 90.9233 49.0691 89.9289 49.0691Z" fill="#FFC89F"/>
<path d="M90.2369 50.1353C90.0632 50.1669 89.8974 50.2064 89.7473 50.2696C89.5894 50.3328 89.4472 50.4196 89.3209 50.5223C89.1945 50.625 89.0761 50.7434 88.9892 50.8777C88.8945 51.0041 88.8155 51.1541 88.7681 51.3042C88.7128 51.4542 88.6812 51.6122 88.6733 51.7781C88.6655 51.9439 88.6654 52.1256 88.6497 52.2914C88.6339 52.6389 88.6102 52.9864 88.5628 53.326C88.5154 52.9785 88.4917 52.631 88.4759 52.2914C88.468 52.1177 88.4601 51.9518 88.4601 51.7702C88.4601 51.5885 88.4996 51.399 88.5549 51.2252C88.6733 50.8777 88.9181 50.5697 89.2261 50.3801C89.3762 50.2854 89.5499 50.2143 89.7236 50.1669C89.8973 50.1274 90.079 50.1195 90.2527 50.1432L90.2369 50.1353Z" fill="#FF9A6C"/>
<path d="M89.5657 53.8236C89.5973 53.7131 89.6289 53.6262 89.6604 53.5314L89.7552 53.2708L89.85 53.0102C89.8816 52.9233 89.921 52.8285 89.9684 52.7258C90.0158 52.8285 90.0316 52.9312 90.0316 53.0417C90.0316 53.1444 90.0079 53.255 89.9763 53.3498C89.9368 53.4524 89.8895 53.5393 89.8184 53.6262C89.7473 53.7052 89.6683 53.7762 89.5657 53.8236Z" fill="#FF9A6C"/>
<path d="M108.937 55.877H109.434C110.428 55.877 111.235 55.0708 111.235 54.0763V50.8619C111.235 49.8674 110.428 49.0612 109.434 49.0612H108.937C107.942 49.0612 107.136 49.8674 107.136 50.8619V54.0763C107.136 55.0708 107.942 55.877 108.937 55.877Z" fill="#FFC89F"/>
<path d="M108.636 50.1352C108.81 50.1115 108.992 50.1194 109.166 50.1588C109.339 50.1983 109.505 50.2694 109.663 50.3721C109.971 50.5695 110.216 50.8696 110.334 51.2172C110.39 51.3909 110.429 51.5726 110.429 51.7621C110.429 51.9438 110.429 52.1096 110.413 52.2834C110.397 52.6309 110.374 52.9784 110.326 53.318C110.279 52.9705 110.255 52.623 110.24 52.2834C110.224 52.1096 110.232 51.9359 110.216 51.77C110.216 51.612 110.176 51.4462 110.121 51.2961C110.074 51.1461 109.995 50.996 109.9 50.8696C109.805 50.7354 109.695 50.6169 109.568 50.5142C109.442 50.4116 109.3 50.3247 109.142 50.2615C108.984 50.1983 108.818 50.1588 108.652 50.1273L108.636 50.1352Z" fill="#FF9A6C"/>
<path d="M109.3 53.8236C109.197 53.7762 109.118 53.7052 109.047 53.6262C108.976 53.5472 108.929 53.4524 108.889 53.3498C108.85 53.2471 108.834 53.1444 108.834 53.0417C108.834 52.9391 108.85 52.8285 108.897 52.7258C108.944 52.8285 108.976 52.9154 109.016 53.0102L109.11 53.2708L109.205 53.5314C109.237 53.6183 109.268 53.7131 109.3 53.8236Z" fill="#FF9A6C"/>
<path d="M109.442 49.0691H108.944C107.95 49.0691 107.144 49.8753 107.144 50.8698V54.0842C107.144 55.0787 107.95 55.8849 108.944 55.8849H109.442C110.436 55.8849 111.242 55.0787 111.242 54.0842V50.8698C111.242 49.8753 110.436 49.0691 109.442 49.0691Z" fill="#FFC89F"/>
<path d="M109.008 50.7117C109.189 50.7038 109.379 50.7275 109.56 50.767C109.742 50.8223 109.908 50.9013 110.066 51.0039C110.224 51.1066 110.358 51.2409 110.476 51.3909C110.595 51.541 110.682 51.7068 110.745 51.8885C110.808 52.0701 110.848 52.2597 110.848 52.4492C110.848 52.6388 110.848 52.8204 110.848 53.0021L110.832 53.5549C110.824 53.7366 110.816 53.9261 110.8 54.1078C110.784 53.9261 110.784 53.7366 110.769 53.5549L110.753 53.0021C110.753 52.8204 110.753 52.6309 110.737 52.4492C110.737 52.2676 110.698 52.0938 110.634 51.928C110.579 51.7621 110.492 51.6042 110.382 51.462C110.279 51.3198 110.153 51.1856 110.003 51.0829C109.718 50.8697 109.363 50.7433 108.992 50.7196L109.008 50.7117Z" fill="#FF9A6C"/>
<path d="M109.718 54.629C109.545 54.4947 109.418 54.3052 109.347 54.1077C109.276 53.9024 109.245 53.6813 109.292 53.468C109.339 53.6813 109.387 53.8787 109.458 54.0682C109.529 54.2578 109.624 54.4394 109.726 54.629H109.718Z" fill="#FF9A6C"/>
<path d="M112.719 40.1445C107.91 28.2741 99.0734 31.6939 99.0734 31.6939C93.4825 29.909 89.6762 32.5705 86.9597 36.3931C86.6675 36.7801 86.3991 37.175 86.1227 37.562C85.8384 37.9489 85.5699 38.3359 85.2777 38.715C84.717 39.489 84.1327 40.2393 83.572 41.0133C83.2877 41.4003 83.0113 41.7873 82.7428 42.1901L82.348 42.7982L81.9768 43.43C81.8663 43.6433 81.7478 43.8644 81.6452 44.0776C81.5425 44.2988 81.4478 44.5278 81.3609 44.7489C81.274 44.978 81.203 45.2149 81.1319 45.4439C81.0924 45.5624 81.0687 45.6809 81.0371 45.7994L80.9581 46.1548C80.895 46.3917 80.8713 46.6286 80.8239 46.8656L80.7607 47.221C80.7449 47.3394 80.7291 47.4579 80.7212 47.5764C80.6976 47.8133 80.6581 48.0502 80.6344 48.2951C80.6186 48.532 80.5949 48.7768 80.5712 49.0137C80.5238 49.4955 80.4922 49.9773 80.4843 50.459C80.4764 50.9487 80.5001 51.4384 80.5791 51.9201C80.6581 52.4019 80.7923 52.8837 80.9976 53.3417C81.0529 53.4523 81.1003 53.5708 81.1556 53.6813C81.2108 53.7919 81.2661 53.9025 81.3372 54.0052C81.4635 54.2184 81.6136 54.4237 81.7636 54.6212C81.9216 54.8186 82.0874 55.0003 82.269 55.1661C82.4506 55.3399 82.6402 55.4899 82.8455 55.6321C83.2482 55.9006 83.6904 56.1218 84.1643 56.2244C83.9826 56.3903 82.885 57.4249 81.5188 59.6521C80.0184 62.0925 82.656 63.2693 82.656 63.2693C81.2898 60.892 83.9589 56.951 83.9589 56.951C80.2474 64.8409 86.7386 65.6781 86.7386 65.6781C84.0458 68.0079 84.3854 70.7248 84.3854 70.7248C81.4083 76.6797 88.0179 75.5029 88.5786 75.3924C88.4206 75.6293 88.3022 75.882 88.1995 76.1427C88.089 76.4112 88.01 76.6876 87.9468 76.9719C87.8837 77.2563 87.8442 77.5485 87.8284 77.8407C87.8126 78.1329 87.8284 78.433 87.8837 78.7252C87.9942 79.3097 88.2548 79.8546 88.5628 80.3364C88.7207 80.5812 88.8865 80.8182 89.0919 81.0235C89.2972 81.2367 89.5262 81.4263 89.7868 81.5763C90.0474 81.7264 90.3317 81.837 90.6238 81.9081C90.916 81.9791 91.2082 82.0028 91.5083 82.0186C92.0927 82.0423 92.6691 81.9949 93.2298 81.9159C94.2959 81.758 95.3146 81.5132 96.3806 81.45C95.5909 85.2014 91.9979 84.9566 90.4343 87.2628C88.8708 89.5768 91.0977 91.4802 91.0977 91.4802C90.8686 90.722 91.1371 89.8374 91.1371 89.8374C90.9318 91.417 91.9979 91.8119 91.9979 91.8119C91.8715 91.0142 92.0611 90.3508 92.0611 90.3508C92.4717 93.0202 94.1142 92.7991 94.1142 92.7991C93.5615 92.0409 93.6404 90.3508 93.6404 90.3508C94.1932 94.4813 97.2809 93.739 97.2809 93.739C96.9729 93.5336 96.7439 93.2256 96.7439 93.2256C99.0892 94.2918 99.492 91.5671 99.492 91.5671C97.9442 92.5938 97.3046 91.9856 97.0598 91.109C96.7834 90.1376 97.044 89.1029 97.6836 88.3211C99.5709 85.9991 99.1366 83.8667 99.1366 83.8667C102.761 79.0175 98.5444 75.4871 98.5444 75.4871C100.353 76.2374 101.127 79.3176 101.127 79.3176C102.272 77.201 98.7497 75.345 98.4101 75.1712C98.8286 74.7053 99.1919 74.1919 99.5078 73.6549C99.8236 73.1099 100.1 72.5334 100.282 71.9252C100.376 71.6172 100.447 71.3013 100.487 70.9854C100.534 70.6695 100.55 70.3457 100.55 70.0219C100.542 69.3743 100.361 68.7266 100.076 68.158C99.7921 67.5894 99.4209 67.0839 99.0103 66.6021C98.5838 66.1283 98.1258 65.7018 97.6283 65.3306C97.1229 64.9594 96.6017 64.6277 96.0648 64.3197C95.583 64.0433 95.0934 63.7905 94.5802 63.5694C91.0977 61.3817 90.3948 58.1278 90.4422 55.7032C90.4738 54.2026 90.9081 52.7415 91.6267 51.4226C92.9455 48.998 92.8665 46.4233 92.8665 46.4233C93.6483 45.6019 94.6038 44.0381 95.7805 39.489C96.7281 35.8244 98.5917 35.4611 99.034 35.4927C99.034 35.4927 99.0498 35.4927 99.0577 35.4927C99.8315 35.6507 100.55 35.9508 101.198 36.3378C101.364 36.4405 101.521 36.5431 101.671 36.6616C101.829 36.7722 101.979 36.8906 102.122 37.017C102.406 37.2697 102.674 37.5383 102.927 37.8305C103.18 38.1227 103.417 38.4228 103.638 38.7545C103.851 39.0862 104.041 39.4337 104.191 39.797C104.23 39.8839 104.262 39.9787 104.293 40.0734C104.325 40.1682 104.356 40.263 104.388 40.3578C104.435 40.5473 104.499 40.7369 104.538 40.9343C104.625 41.3213 104.696 41.7162 104.759 42.1111C104.822 42.506 104.87 42.9009 104.925 43.2957L105.099 44.4804C105.154 44.8753 105.217 45.2702 105.288 45.6651C105.351 46.06 105.438 46.4628 105.549 46.8577C105.659 47.2525 105.794 47.6474 105.983 48.0265C106.078 48.2161 106.188 48.3977 106.315 48.5715C106.441 48.7452 106.591 48.9111 106.757 49.0532C107.089 49.3376 107.484 49.535 107.886 49.6377C108.281 49.7403 108.684 49.764 109.079 49.7403C109.102 49.7403 109.11 49.7403 109.11 49.7403C111.985 55.1503 113.43 61.0579 112.395 63.214C111.479 65.1252 108.526 65.8124 108.526 65.8124C109.497 67.2498 111.298 65.4964 111.298 65.4964C110.855 66.5311 109.331 67.0049 109.331 67.0049C114.701 68.0869 117.528 51.9991 112.719 40.1287V40.1445ZM82.1348 54.3685C82.0084 54.1789 81.8821 53.9815 81.7794 53.784C81.7241 53.6813 81.6689 53.5787 81.6215 53.476C81.5662 53.3733 81.5267 53.2628 81.4793 53.1601C81.3135 52.7336 81.1714 52.2913 81.0608 51.8412C80.5791 50.0405 80.6739 48.0344 81.2582 46.2495C81.5583 45.3492 81.9689 44.512 82.4506 43.7143C82.9402 42.9167 83.5167 42.1664 84.0695 41.3845C84.1485 41.2739 84.2195 41.1633 84.2985 41.0528C83.3983 42.964 82.6639 44.8516 82.04 46.4075C79.742 52.1255 83.3667 55.5215 84.0774 56.1218C83.2798 55.7032 82.6244 55.0872 82.1269 54.3685H82.1348ZM98.8365 66.7996C99.3103 67.1708 99.6736 67.692 99.8631 68.2607C100.053 68.8372 100.068 69.4374 100.045 70.0219C100.013 70.6063 99.871 71.1907 99.7052 71.7594C99.5394 72.3043 99.3498 72.8493 99.1287 73.3863C99.6815 71.6014 100.076 68.774 98.268 66.381C98.339 66.4284 98.4101 66.4758 98.4812 66.5311C98.5996 66.6179 98.726 66.7127 98.8444 66.8075L98.8365 66.7996ZM91.4293 81.4737C91.1924 81.4737 90.9476 81.4737 90.7186 81.4421C90.458 81.4184 90.1895 81.371 89.9447 81.2762C89.4393 81.1104 88.9971 80.7313 88.7286 80.2495C88.5944 80.0126 88.5075 79.7441 88.4522 79.4834C88.3969 79.2149 88.3812 78.9464 88.3733 78.6779C88.3733 78.5357 88.3733 78.4014 88.3733 78.2593C88.5154 79.8309 89.2577 81.3236 91.4451 81.4737H91.4293ZM107.989 49.3691C107.815 49.2902 107.649 49.2033 107.491 49.0927C107.341 48.9901 107.199 48.8637 107.073 48.7294C106.575 48.1924 106.339 47.45 106.149 46.6997C105.959 45.9494 105.809 45.1675 105.644 44.3856C105.565 43.9908 105.486 43.6038 105.391 43.2089C105.296 42.8219 105.186 42.4349 105.075 42.0479L104.735 40.8948L104.562 40.3183C104.491 40.1287 104.435 39.9313 104.364 39.7496C104.325 39.6549 104.301 39.5601 104.262 39.4653C104.23 39.3705 104.183 39.2758 104.151 39.181C104.08 38.9915 103.993 38.8098 103.914 38.6203C103.74 38.2491 103.543 37.8858 103.298 37.5541C103.148 37.3408 102.974 37.1434 102.785 36.9617C104.404 38.1148 105.928 40.1366 105.983 43.6827C106.046 47.8133 107.72 49.1638 108.581 49.5824C108.368 49.5271 108.155 49.456 107.957 49.3691H107.989Z" fill="#1B1A2E"/>
<path d="M109.11 49.7642C109.489 50.4592 109.845 51.1621 110.184 51.8808C110.516 52.5995 110.824 53.3261 111.116 54.0606C111.685 55.5374 112.158 57.0538 112.482 58.6018C112.632 59.3758 112.751 60.1656 112.782 60.9553C112.798 61.3502 112.782 61.753 112.743 62.1479C112.695 62.5428 112.609 62.9377 112.419 63.301L112.269 63.5616C112.222 63.6485 112.151 63.7196 112.095 63.8064L112.008 63.9249L111.906 64.0355C111.835 64.1066 111.772 64.1855 111.7 64.2487C111.408 64.5251 111.085 64.7542 110.745 64.9516C110.405 65.157 110.042 65.3228 109.679 65.465C109.308 65.6071 108.937 65.7335 108.55 65.8283C108.929 65.7256 109.3 65.5913 109.663 65.4413C110.026 65.2833 110.382 65.1096 110.713 64.9042C111.045 64.6989 111.369 64.4699 111.645 64.1934C111.716 64.1302 111.779 64.0513 111.85 63.9802L111.953 63.8696L112.04 63.7512C112.095 63.6722 112.158 63.5932 112.206 63.5142L112.348 63.2615C112.372 63.222 112.387 63.1746 112.411 63.1272C112.427 63.0798 112.451 63.0403 112.466 62.993C112.49 62.8982 112.53 62.8113 112.553 62.7165C112.601 62.527 112.64 62.3374 112.656 62.14C112.703 61.753 112.703 61.3581 112.695 60.9632C112.664 60.1814 112.545 59.3995 112.387 58.6255C112.079 57.0775 111.606 55.569 111.053 54.0922C110.777 53.3498 110.476 52.6232 110.153 51.9045C109.837 51.1858 109.497 50.4671 109.134 49.7642H109.11Z" fill="#1F4068"/>
<path d="M92.8823 46.5024C92.8666 47.2053 92.7955 47.9082 92.6533 48.6032C92.5112 49.2982 92.3059 49.9774 92.0374 50.625C91.4925 51.9282 90.7502 53.1286 90.0079 54.3291C89.2735 55.5295 88.4759 56.6984 88.0021 58.0174C87.7731 58.6729 87.6231 59.3679 87.6231 60.0629C87.6152 60.7579 87.7494 61.4608 87.9705 62.1242H87.9626C87.7099 61.4766 87.5441 60.7737 87.5362 60.0629C87.5204 59.3521 87.6547 58.6413 87.8916 57.9779C88.1206 57.3065 88.4601 56.6826 88.8155 56.0745C89.1787 55.4664 89.5657 54.8819 89.9526 54.2975C90.3396 53.7131 90.7186 53.1207 91.0582 52.4968C91.3977 51.8808 91.6899 51.241 91.9426 50.5855C92.0769 50.2617 92.1795 49.93 92.2901 49.5904L92.4401 49.0849L92.5665 48.5716C92.7165 47.8845 92.8113 47.1895 92.8666 46.4866H92.8745L92.8823 46.5024Z" fill="#1F4068"/>
<path d="M94.4933 43.6512C93.98 44.9859 93.2298 46.2259 92.3138 47.3237C91.8558 47.8765 91.3583 48.382 90.8529 48.8874C90.3475 49.3929 89.8342 49.8826 89.3209 50.3801C88.8076 50.8777 88.2943 51.3674 87.7889 51.8728C87.2835 52.3783 86.8018 52.8995 86.3359 53.4366C85.8779 53.9815 85.4435 54.5423 85.0487 55.1346C84.6539 55.7269 84.2906 56.343 83.9668 56.9748H83.9589C84.5354 55.6638 85.3172 54.4475 86.249 53.3576C87.1729 52.2598 88.2232 51.2884 89.2735 50.3327C89.8026 49.851 90.3238 49.3692 90.8213 48.8559C91.3188 48.3504 91.7926 47.8133 92.2348 47.2605C92.677 46.7077 93.0956 46.1311 93.4746 45.523C93.8536 44.9228 94.1853 44.2909 94.4775 43.6433H94.4854L94.4933 43.6512Z" fill="#1F4068"/>
<path d="M84.8118 45.9414C84.6302 46.589 84.5038 47.2603 84.4564 47.9238C84.417 48.5951 84.4328 49.2664 84.5512 49.9298C84.6065 50.2615 84.6697 50.5932 84.7644 50.9091C84.8513 51.2329 84.9618 51.5488 85.0882 51.8648C85.2145 52.1807 85.3488 52.4808 85.5067 52.7809C85.6647 53.081 85.8384 53.3653 86.0358 53.6418C85.6015 53.1205 85.2698 52.5203 85.0013 51.8963C84.7328 51.2724 84.5512 50.6169 84.4328 49.9456C84.3301 49.2743 84.3064 48.5872 84.3696 47.9159C84.3933 47.75 84.4012 47.5762 84.4328 47.4104L84.4722 47.1577L84.5275 46.9128C84.5986 46.5811 84.7012 46.2573 84.8118 45.9414Z" fill="#1F4068"/>
<path d="M84.4012 70.7327C84.4407 70.8986 84.4564 71.0566 84.4959 71.2145C84.5433 71.3725 84.567 71.5304 84.6302 71.6884L84.7091 71.9174L84.8039 72.1386C84.8355 72.2175 84.875 72.2886 84.9066 72.3597C84.946 72.4308 84.9776 72.5098 85.025 72.5729C85.1829 72.8573 85.3883 73.11 85.6094 73.3469C85.8305 73.5839 86.0832 73.7971 86.3596 73.9708C86.2095 73.9077 86.0674 73.8129 85.9252 73.726C85.791 73.6312 85.6647 73.5207 85.5383 73.4101C85.2935 73.1811 85.0803 72.9204 84.9145 72.6282C84.7486 72.336 84.6065 72.0359 84.5275 71.7042C84.4801 71.5462 84.4564 71.3804 84.4249 71.2145C84.4091 71.1355 84.4091 71.0487 84.4012 70.9697C84.4012 70.8907 84.3933 70.8038 84.3854 70.7249L84.4012 70.7327Z" fill="#1F4068"/>
<path d="M89.6683 75.5425C89.8263 76.119 90.0711 76.664 90.3948 77.1615C90.7186 77.6591 91.1056 78.1093 91.5399 78.512C91.9663 78.9227 92.448 79.2781 92.9455 79.6019C93.1903 79.7678 93.4509 79.9179 93.7115 80.06C93.9721 80.2022 94.2406 80.3364 94.5091 80.4628C93.9484 80.2654 93.4114 79.9889 92.8981 79.6809C92.3848 79.3729 91.9031 79.0017 91.4609 78.5989C91.0266 78.1882 90.6317 77.7223 90.3159 77.2089C90.1579 76.9562 90.0316 76.6798 89.9131 76.4033C89.8026 76.1269 89.7236 75.8347 89.6604 75.5425H89.6683Z" fill="#1F4068"/>
<path d="M92.0058 41.345C91.3662 42.0242 90.7739 42.7508 90.2527 43.5248C89.7315 44.2987 89.2893 45.1201 88.9339 45.9889C88.5786 46.8497 88.318 47.7501 88.1679 48.6662C88.089 49.1243 88.0416 49.5903 88.0179 50.0562C87.9942 50.5222 88.0021 50.9882 88.0574 51.4541C87.8994 50.5301 87.9389 49.5824 88.0732 48.6504C88.2153 47.7185 88.468 46.8102 88.8234 45.9415C89.005 45.5071 89.2024 45.0806 89.4314 44.6699C89.542 44.4646 89.6683 44.2593 89.7868 44.0618C89.9131 43.8644 90.0395 43.6669 90.1737 43.4774L90.3791 43.1931L90.5923 42.9166C90.7344 42.7271 90.8845 42.5533 91.0345 42.3717C91.1845 42.19 91.3504 42.0242 91.5083 41.8504C91.6662 41.6767 91.84 41.5187 92.0058 41.3529V41.345Z" fill="#1F4068"/>
<path d="M98.4259 34.3791C98.189 34.3475 97.9442 34.3159 97.7073 34.3159C97.4704 34.308 97.2256 34.3238 96.9887 34.3554C96.7518 34.387 96.5228 34.4423 96.2938 34.5133C96.0648 34.5844 95.8515 34.6792 95.6383 34.7898C95.2119 35.003 94.825 35.2873 94.4696 35.6111C94.2959 35.7691 94.13 35.9428 93.9721 36.1324C93.8142 36.314 93.6641 36.5036 93.5299 36.7089C93.7589 36.2824 94.0669 35.8955 94.4064 35.5558C94.7539 35.2162 95.1487 34.9161 95.5831 34.695C96.0174 34.4738 96.4912 34.3238 96.9808 34.2764C97.4625 34.2211 97.96 34.2685 98.4259 34.387V34.3791Z" fill="#1F4068"/>
<path d="M107.784 39.884C107.649 39.2995 107.452 38.7309 107.176 38.2096C107.026 37.949 106.876 37.6963 106.694 37.4593C106.512 37.2224 106.323 37.0013 106.102 36.7959C105.675 36.3773 105.186 36.0377 104.664 35.7534C104.404 35.6112 104.127 35.4928 103.851 35.3822C103.575 35.2716 103.29 35.1848 102.998 35.1216C103.59 35.2085 104.167 35.4059 104.712 35.6744C105.257 35.943 105.754 36.2984 106.188 36.709C106.623 37.1355 106.986 37.6252 107.255 38.1701C107.318 38.3123 107.389 38.4387 107.436 38.5808L107.515 38.7941L107.586 39.0073C107.673 39.2916 107.736 39.5917 107.784 39.884Z" fill="#1F4068"/>
<path d="M111.558 48.682C111.116 48.7926 110.65 48.8083 110.192 48.7136C109.742 48.6188 109.316 48.4135 108.937 48.1528C108.565 47.8843 108.234 47.5605 107.949 47.1972C107.665 46.8339 107.42 46.4469 107.239 46.0283C107.349 46.2258 107.476 46.4153 107.602 46.6049C107.728 46.7944 107.871 46.9682 108.013 47.1419C108.305 47.4815 108.629 47.7974 109 48.0581C109.363 48.3187 109.774 48.524 110.208 48.6267C110.421 48.682 110.65 48.7136 110.871 48.7215C111.1 48.7373 111.321 48.7057 111.55 48.682H111.558Z" fill="#1F4068"/>
<path d="M111.558 48.6821C111.385 48.8875 111.187 49.0849 110.958 49.235C110.729 49.3929 110.484 49.5114 110.224 49.5983C109.963 49.6851 109.695 49.7483 109.418 49.772C109.15 49.7957 108.873 49.8036 108.605 49.7562C108.739 49.7562 108.873 49.7483 109.008 49.7325C109.142 49.7246 109.276 49.7009 109.41 49.6851C109.671 49.6378 109.932 49.5746 110.184 49.4877C110.437 49.4087 110.682 49.2903 110.911 49.156L111.085 49.0533L111.242 48.9349C111.266 48.9191 111.298 48.8954 111.321 48.8796L111.4 48.8164C111.448 48.769 111.503 48.7295 111.558 48.6821Z" fill="#1F4068"/>
<path d="M91.2398 52.2124C90.8608 53.3655 90.5686 54.5344 90.3633 55.7269C90.3317 55.877 90.3159 56.027 90.2922 56.1771L90.229 56.6273C90.1974 56.9274 90.1579 57.2275 90.1342 57.5276C90.079 58.1279 90.0632 58.7281 90.0711 59.3362C90.0711 60.5446 90.1974 61.745 90.4264 62.9297C90.537 63.522 90.687 64.1065 90.8607 64.683C91.0345 65.2596 91.2398 65.8282 91.4925 66.381C90.9397 65.299 90.5923 64.1302 90.3396 62.9455C90.2132 62.3532 90.1263 61.7529 90.0632 61.1527C90 60.5525 89.9605 59.9443 89.9605 59.3362C89.9605 58.7281 89.9763 58.12 90.0395 57.5197C90.0632 57.2196 90.1027 56.9195 90.1342 56.6194C90.1816 56.3193 90.2211 56.0191 90.2764 55.719C90.3317 55.4189 90.3869 55.1267 90.458 54.8266C90.4896 54.6765 90.5212 54.5344 90.5607 54.3843L90.6791 53.942L90.7423 53.7209L90.8055 53.5076L90.9397 53.0733C91.0345 52.7889 91.1371 52.5046 91.2398 52.2124Z" fill="#1F4068"/>
<path d="M96.3885 81.4579C96.4991 81.4579 96.6096 81.4421 96.7202 81.4421C96.8308 81.4421 96.9413 81.4421 97.0598 81.4579C97.2809 81.4737 97.502 81.529 97.7231 81.608C97.9363 81.687 98.1337 81.8054 98.3154 81.9476C98.497 82.0898 98.647 82.2635 98.7734 82.461C99.0182 82.8479 99.1524 83.2981 99.1998 83.7404C99.2472 84.1906 99.2314 84.6408 99.1445 85.083C99.1682 84.8619 99.1761 84.6408 99.1682 84.4117C99.1682 84.1906 99.1445 83.9694 99.1129 83.7483C99.0419 83.3139 98.9155 82.8795 98.6786 82.5162C98.5602 82.3346 98.4259 82.1608 98.2522 82.0266C98.0863 81.8844 97.8889 81.7817 97.6915 81.6949C97.2809 81.529 96.8386 81.4737 96.3885 81.4658V81.4579Z" fill="#1F4068"/>
<path d="M90.2053 68.1816C89.6762 68.8372 89.1866 69.5322 88.8155 70.2904C88.4522 71.0406 88.2153 71.8778 88.2627 72.715C88.3022 73.5521 88.6576 74.3656 89.1945 75.0053C89.7315 75.6609 90.4185 76.1742 91.145 76.6086C91.8716 77.043 92.6375 77.3905 93.4193 77.7143C93.8063 77.8722 94.209 78.0223 94.596 78.1881C94.9908 78.354 95.3698 78.5435 95.741 78.7489C96.4912 79.1517 97.194 79.6492 97.8021 80.2416C98.11 80.5338 98.3864 80.8576 98.6312 81.213C98.7497 81.3868 98.8602 81.5684 98.955 81.7579C99.0498 81.9475 99.1366 82.1449 99.184 82.3503H99.1761C99.0498 81.9475 98.8287 81.5842 98.5839 81.2446C98.3391 80.905 98.0548 80.5891 97.7468 80.3048C97.1308 79.7282 96.428 79.2622 95.6857 78.8516C95.3146 78.6541 94.9355 78.4646 94.5486 78.2987C94.1616 78.1329 93.7668 77.9828 93.372 77.8169C92.5902 77.4852 91.8242 77.114 91.1056 76.6639C90.387 76.2137 89.7078 75.6845 89.1629 75.0369C88.8945 74.7131 88.6497 74.3498 88.4759 73.9628C88.3022 73.5758 88.1916 73.1494 88.1601 72.7229C88.1364 72.2964 88.1758 71.862 88.2785 71.4513C88.3891 71.0406 88.5391 70.6379 88.7286 70.2588C89.1156 69.5006 89.6289 68.8135 90.1895 68.1816H90.1974H90.2053Z" fill="#1F4068"/>
<path d="M94.3748 76.04L94.7855 76.2217C94.9197 76.2849 95.0619 76.3323 95.1882 76.4112C95.4488 76.5613 95.7094 76.6956 95.9542 76.8693C96.0806 76.9562 96.2069 77.0352 96.3175 77.122L96.6649 77.4064C96.7834 77.4932 96.886 77.6038 96.9966 77.7065C97.1071 77.8091 97.2177 77.9039 97.3125 78.0224L97.6125 78.3541L97.8889 78.7095C98.0627 78.9464 98.2364 79.1913 98.3785 79.4519C98.5286 79.7125 98.6628 79.9731 98.7813 80.2496C98.8918 80.526 98.9945 80.8024 99.0577 81.0946C98.876 80.5339 98.6075 79.9968 98.2996 79.4993C97.9837 79.0017 97.6362 78.5278 97.2256 78.1014C96.8228 77.6749 96.3806 77.28 95.891 76.9483C95.662 76.7666 95.4014 76.6245 95.1487 76.4665C95.0224 76.3796 94.8881 76.3244 94.7618 76.2533L94.3669 76.0479L94.3748 76.04Z" fill="#1F4068"/>
<path d="M94.0985 86.0306C93.7747 86.2991 93.4588 86.5677 93.2061 86.8915C93.0719 87.0494 92.9613 87.2232 92.8508 87.3969C92.756 87.5786 92.6454 87.7523 92.5665 87.9419C92.4006 88.321 92.2743 88.7159 92.1874 89.1186C92.1716 89.2213 92.1479 89.324 92.1321 89.4267C92.1242 89.5293 92.1006 89.632 92.0927 89.7347C92.069 89.94 92.0611 90.1454 92.0611 90.3586C92.0058 89.94 92.0295 89.5214 92.0927 89.1028C92.1558 88.6843 92.2822 88.2815 92.448 87.8945C92.527 87.697 92.6375 87.5154 92.7402 87.3337L92.9218 87.0731C92.9534 87.0336 92.9771 86.9862 93.0166 86.9468L93.1192 86.8283C93.1903 86.7493 93.2535 86.6703 93.3325 86.5992L93.5694 86.386C93.6483 86.3149 93.7352 86.2596 93.8221 86.1965C93.9089 86.1333 93.9958 86.078 94.0827 86.0227L94.0985 86.0306Z" fill="#1F4068"/>
<path d="M93.5062 86.5125C93.364 86.6151 93.2061 86.6941 93.0798 86.8126C93.0166 86.8678 92.9376 86.9152 92.8744 86.9784L92.6849 87.1601C92.448 87.4128 92.2269 87.6813 92.0374 87.9735C91.8479 88.2658 91.682 88.5738 91.532 88.8818C91.4609 89.0397 91.3898 89.1977 91.3267 89.3636C91.2556 89.5215 91.2003 89.6874 91.145 89.8532C91.2082 89.5057 91.3188 89.174 91.453 88.8423C91.5873 88.5185 91.7531 88.2026 91.9426 87.9025C92.14 87.6102 92.3612 87.3338 92.6218 87.089C92.8823 86.8521 93.1824 86.6546 93.5062 86.5125Z" fill="#1F4068"/>
<path d="M97.1545 81.592C97.3993 81.7421 97.6125 81.9317 97.7863 82.1607C97.96 82.3897 98.0785 82.6582 98.1495 82.9426C98.2917 83.5033 98.2127 84.1035 98.039 84.6485C97.8573 85.1934 97.5731 85.6989 97.2177 86.1491C96.8623 86.5913 96.4359 86.9862 95.9384 87.2706C96.1674 87.1126 96.3885 86.9309 96.5938 86.7335C96.7992 86.5361 96.9808 86.3228 97.1466 86.1017C97.4783 85.6515 97.7626 85.1539 97.9284 84.6248C98.11 84.0956 98.1811 83.527 98.0627 82.9821C97.9521 82.4371 97.6125 81.9474 97.1545 81.6157V81.592Z" fill="#1F4068"/>
<path d="M90.845 60.9236C91.0582 61.5396 91.3741 62.1161 91.7452 62.6453C92.1164 63.1824 92.5428 63.672 92.9771 64.1538C93.4114 64.6355 93.8615 65.1094 94.3196 65.5754C94.7697 66.0414 95.2277 66.5073 95.662 67.0049C96.0963 67.4945 96.4991 68.0158 96.8387 68.5765C97.1782 69.1373 97.4625 69.7375 97.652 70.3693C97.8415 71.0012 97.9363 71.6567 97.9363 72.3122C97.9363 72.9677 97.8494 73.6232 97.7073 74.2551H97.6994C97.81 73.6074 97.8652 72.9598 97.8494 72.3122C97.8336 71.6646 97.731 71.017 97.5415 70.4009C97.3519 69.7849 97.0834 69.1926 96.7518 68.6318C96.4201 68.0711 96.0332 67.5498 95.6146 67.0523C95.1961 66.5547 94.7539 66.0729 94.288 65.6149C93.83 65.1489 93.3562 64.7066 92.906 64.2328C92.4559 63.7589 92.0374 63.2534 91.6662 62.7085C91.303 62.1635 91.0029 61.5712 90.8292 60.9394H90.8371L90.845 60.9236Z" fill="#1F4068"/>
<path d="M109.276 43.7222L109.829 44.4725C110.011 44.7252 110.208 44.97 110.366 45.2385L110.871 46.0283L110.998 46.2258L111.116 46.4311L111.345 46.8339C111.977 47.908 112.49 49.0532 112.956 50.2063C113.414 51.3672 113.785 52.5598 114.077 53.7761C114.22 54.3842 114.338 54.9923 114.441 55.6083C114.528 56.2244 114.606 56.8404 114.63 57.4643C114.52 56.2244 114.291 55.0002 113.983 53.7919C113.675 52.5914 113.311 51.3988 112.838 50.2457C112.782 50.1036 112.735 49.9535 112.672 49.8114L112.49 49.3849L112.309 48.9584L112.214 48.7452C112.182 48.6741 112.143 48.603 112.111 48.5319L111.7 47.6948C111.669 47.6237 111.629 47.5526 111.598 47.4894L111.487 47.2841L111.266 46.8734L111.045 46.4627L110.934 46.2574L110.808 46.0599L110.319 45.2701C110.161 45.0016 109.979 44.7489 109.805 44.4962L109.276 43.7301V43.7222Z" fill="#1F4068"/>
<g style="mix-blend-mode:multiply" opacity="0.4">
<path d="M127.541 96.3689L125.836 98.2723L128.402 97.1666L127.541 96.3689Z" fill="#A65B3C"/>
</g>
<g style="mix-blend-mode:multiply" opacity="0.4">
<path d="M69.3972 93.3125L71.253 95.8161L68.3469 93.9285L69.3972 93.3125Z" fill="#A65B3C"/>
</g>
<path d="M64.9592 78.4171L66.3964 74.2708L67.96 70.5351C68.339 69.6348 68.4417 68.6397 68.2601 67.684L68.0548 66.5783C67.9521 66.0176 68.3785 65.4963 68.9471 65.4963C69.2709 65.4963 69.5709 65.6701 69.7368 65.9544C69.871 66.1834 70.0369 66.4757 70.2106 66.7758C70.7555 67.7235 70.9766 68.8292 70.8344 69.9112L70.408 73.2204L70.8423 74.4445L78.0442 74.6341C78.905 74.6578 79.6078 75.3449 79.6473 76.2057C79.671 76.7428 79.4262 77.2641 78.9997 77.5879L78.5338 77.9433L79.0945 78.3776C79.4657 78.6699 79.6868 79.12 79.6868 79.5939V79.6176C79.6868 80.3837 79.1577 81.0392 78.4075 81.1972C78.2259 81.2366 78.0916 81.2603 78.0916 81.2603L78.218 81.4262C78.4312 81.7105 78.5417 82.0659 78.5259 82.4213C78.5022 82.8873 78.2732 83.3217 77.8942 83.5902L77.7994 83.6613C77.5151 83.8666 77.1677 83.9693 76.8202 83.9535L76.0542 83.914L76.3701 84.1035C76.7255 84.3089 76.9308 84.6959 76.9229 85.1066V85.1224C76.9071 85.6436 76.5517 86.078 76.0542 86.2122C75.1382 86.4492 73.7168 86.8204 72.9982 87.002C72.706 87.081 72.4059 87.1284 72.0979 87.1442L66.0569 87.4759L67.5731 90.406C67.7547 90.7535 67.9442 91.0852 68.1574 91.409L69.3972 93.3045L49.5446 104.898C46.5359 106.652 42.6744 105.72 40.8028 102.79C38.9234 99.8517 39.7052 95.9502 42.5717 93.96C50.5396 88.4315 64.9592 78.4171 64.9592 78.4171Z" fill="#FFC89F"/>
<path d="M66.0648 87.4761L62.4954 90.8247L58.9181 94.1734L57.1256 95.8398L56.2332 96.677C55.9331 96.9534 55.6489 97.2456 55.3962 97.5695C55.2698 97.7274 55.1514 97.8933 55.0408 98.067L54.6933 98.5725L54.0063 99.5834L52.6244 101.605L53.9905 99.5755L54.6776 98.5646L55.0171 98.0591C55.1277 97.8933 55.2461 97.7195 55.3725 97.5616C55.6252 97.2378 55.9095 96.9455 56.2095 96.6691L57.1019 95.8319L58.8866 94.1576L62.4717 90.8247L66.0569 87.4919L66.0648 87.4761Z" fill="#FF9A6C"/>
<path d="M78.5417 77.9433C78.2811 77.9354 78.0126 77.9196 77.752 77.9117L76.9624 77.8643L76.1727 77.809C75.9121 77.7932 75.6436 77.7695 75.383 77.7458C75.6436 77.7537 75.9121 77.7695 76.1727 77.7774L76.9624 77.8248L77.752 77.8801C78.0126 77.8959 78.2811 77.9196 78.5417 77.9433Z" fill="#FF9A6C"/>
<path d="M70.8502 74.4446C70.6528 74.4446 70.4554 74.4446 70.2501 74.4446C70.0527 74.4446 69.8552 74.4446 69.6499 74.4288C69.4525 74.413 69.2551 74.3499 69.0813 74.2472C68.9945 74.1998 68.9155 74.1366 68.8365 74.0734C68.7655 74.0024 68.7023 73.9313 68.6312 73.8523C68.7655 74.0024 68.9155 74.1287 69.0892 74.2235C69.263 74.3183 69.4525 74.3736 69.6499 74.3893C69.8473 74.4051 70.0448 74.4051 70.2422 74.413C70.4396 74.413 70.637 74.4288 70.8423 74.4446H70.8502Z" fill="#FF9A6C"/>
<path d="M78.0995 81.2605C77.9021 81.2368 77.7047 81.2131 77.5072 81.1815L76.915 81.0947L76.3306 80.9999C76.1332 80.9683 75.9437 80.9288 75.7463 80.8972C75.9437 80.9209 76.1411 80.9446 76.3385 80.9762L76.9308 81.0631L77.5151 81.1578C77.7126 81.1894 77.9021 81.2289 78.0995 81.2605Z" fill="#FF9A6C"/>
<path d="M76.0621 83.914C75.8884 83.8982 75.7147 83.8824 75.5409 83.8666L75.0276 83.8113L74.5143 83.7482C74.3406 83.7245 74.1748 83.7008 74.0011 83.6692C74.1748 83.685 74.3485 83.7008 74.5222 83.7166L75.0355 83.7719L75.5488 83.835C75.7226 83.8587 75.8884 83.8824 76.0621 83.914Z" fill="#FF9A6C"/>
<path d="M127.541 96.3688L142.474 110.15C144.117 111.651 146.541 111.92 148.468 110.814C150.561 109.606 151.524 107.102 150.774 104.804C149.179 99.9149 145.688 91.3537 139.031 83.4559L135.344 76.1031L134.325 70.464L135.051 68.8371C135.407 68.0315 134.601 67.2023 133.788 67.534C132.84 67.921 131.869 68.8766 131.743 71.1512L131.672 73.4652L131.158 74.8552L127.928 74.2076C127.162 74.0575 126.381 74.0654 125.623 74.2392L122.472 74.9658C122.006 75.0764 121.643 75.4476 121.548 75.9214C121.477 76.2926 121.579 76.6796 121.832 76.9639L122.14 77.3193L121.595 77.6747C121.177 77.9512 120.916 78.425 120.916 78.9305C120.916 79.5465 121.287 80.0994 121.864 80.3284L122.258 80.4863L122.093 80.7075C121.35 81.6789 121.895 83.1163 123.103 83.3059C123.135 83.3059 123.175 83.3138 123.206 83.3217C123.206 83.3217 123.04 83.606 122.969 84.064C122.843 84.8459 123.467 85.5567 124.256 85.5567H125.883L129.539 87.4838C129.839 87.6417 130.163 87.7681 130.487 87.855L134.27 88.8659L127.534 96.3846L127.541 96.3688Z" fill="#FFC89F"/>
<path d="M131.158 74.8473C131.379 74.8868 131.608 74.9263 131.829 74.9658L132.501 75.0922C132.611 75.1159 132.722 75.1396 132.832 75.1475C132.943 75.1554 133.061 75.1554 133.172 75.1475C133.401 75.1317 133.614 75.0606 133.835 74.9895C133.725 75.029 133.622 75.0685 133.511 75.108C133.401 75.1396 133.29 75.1633 133.172 75.179C133.061 75.1948 132.943 75.1948 132.824 75.179C132.706 75.1712 132.595 75.1475 132.485 75.1238L131.814 74.9816C131.593 74.9342 131.371 74.8868 131.142 74.8315L131.158 74.8473Z" fill="#FF9A6C"/>
<path d="M122.148 77.3037C122.353 77.2484 122.559 77.201 122.764 77.1457L123.388 77.0035L124.012 76.8693C124.217 76.8219 124.43 76.7824 124.635 76.7429C124.43 76.7982 124.225 76.8456 124.019 76.9009L123.396 77.043L122.772 77.1773C122.566 77.2247 122.353 77.2642 122.148 77.3037Z" fill="#FF9A6C"/>
<path d="M122.266 80.4706C122.416 80.3995 122.566 80.3284 122.724 80.2574L123.182 80.0599L123.648 79.8704C123.806 79.8072 123.956 79.744 124.114 79.6887C123.964 79.7598 123.814 79.8309 123.656 79.902L123.198 80.0994L122.732 80.289C122.574 80.3521 122.424 80.4153 122.266 80.4706Z" fill="#FF9A6C"/>
<path d="M123.214 83.298C123.483 83.1716 123.767 83.069 124.043 82.9584C124.32 82.8557 124.604 82.7452 124.888 82.6504C124.62 82.7768 124.335 82.8794 124.059 82.99C123.783 83.0927 123.498 83.2032 123.214 83.298Z" fill="#FF9A6C"/>
<path d="M134.277 88.8503L134.996 90.651L135.707 92.4517L137.128 96.061C137.365 96.6612 137.602 97.2614 137.831 97.8695C138.052 98.4777 138.21 99.1095 138.305 99.7492C138.352 100.073 138.384 100.389 138.407 100.713L138.479 101.676L138.613 103.611L138.463 101.676L138.392 100.713C138.368 100.389 138.336 100.065 138.289 99.7492C138.186 99.1095 138.028 98.4856 137.807 97.8774C137.578 97.2772 137.334 96.677 137.105 96.0688L135.699 92.4517L134.996 90.6431L134.301 88.8345L134.277 88.8503Z" fill="#FF9A6C"/>
<path d="M120.924 99.1094C120.624 99.3858 120.324 99.6622 120.024 99.9386L119.116 100.76L118.207 101.573C117.899 101.842 117.599 102.111 117.291 102.379C117.591 102.103 117.892 101.826 118.192 101.55L119.1 100.728L120.008 99.9149C120.316 99.6464 120.616 99.3779 120.924 99.1094Z" fill="#A65B3C"/>
<path d="M95.3225 103.832L95.9305 103.659C96.1358 103.603 96.3411 103.556 96.5465 103.516C96.7518 103.477 96.965 103.445 97.1703 103.43C97.3835 103.406 97.5888 103.398 97.8021 103.398C98.2285 103.398 98.647 103.437 99.0655 103.509C99.4841 103.58 99.8868 103.706 100.297 103.809L99.6815 103.666C99.4762 103.619 99.2709 103.572 99.0655 103.54C98.647 103.469 98.2285 103.437 97.81 103.437C97.3914 103.437 96.9729 103.477 96.5544 103.548C96.1358 103.619 95.7331 103.738 95.3225 103.84V103.832Z" fill="#A65B3C"/>
<path d="M76.8834 102.695L77.3651 103.88L77.8468 105.057L78.8023 107.426L79.742 109.795L80.2159 110.98L80.6818 112.172L80.2001 110.988L79.7184 109.803L78.7628 107.442L77.8231 105.072L77.3493 103.88L76.8834 102.695Z" fill="#A65B3C"/>
<path d="M135.857 50.0245C133.764 46.0519 128.844 44.5355 124.872 46.6285C121.887 48.208 120.284 51.3829 120.569 54.5499L119.195 56.6744L121.477 57.6143C123.569 61.5869 128.489 63.1033 132.461 61.0103C136.433 58.9174 137.949 53.9971 135.857 50.0245Z" fill="white"/>
<path d="M128.686 61.966C125.765 61.966 122.93 60.3865 121.469 57.6301L119.171 56.6903L120.553 54.55C120.261 51.2645 121.951 48.1528 124.864 46.6206C128.837 44.5277 133.772 46.052 135.873 50.0246C136.891 51.9516 137.097 54.1551 136.449 56.2322C135.809 58.3093 134.396 60.0153 132.469 61.0341C131.261 61.6738 129.958 61.9739 128.679 61.9739L128.686 61.966ZM119.226 56.6666L121.493 57.5985C123.577 61.5632 128.489 63.0796 132.445 60.9946C134.364 59.9837 135.77 58.2856 136.41 56.2164C137.049 54.1472 136.844 51.9516 135.833 50.0403C133.748 46.0836 128.837 44.5672 124.88 46.6522C121.974 48.1844 120.292 51.2882 120.584 54.55L119.218 56.6666H119.226Z" fill="#1F4168"/>
<path d="M126.736 56.8641H131.174C131.403 56.8641 131.608 56.7061 131.671 56.485L132.682 52.7572C132.769 52.4334 132.524 52.1096 132.185 52.1096H129.429L130.432 50.3326C130.598 50.0404 130.511 49.6692 130.234 49.4796C129.982 49.3059 129.642 49.3296 129.413 49.5428L126.736 52.0859V56.8641Z" fill="#1F4168"/>
<path d="M125.291 52.0859H126.325V56.8641H125.291C125.109 56.8641 124.967 56.7219 124.967 56.5403V52.4097C124.967 52.2281 125.109 52.0859 125.291 52.0859Z" fill="#1F4168"/>
</g>
<defs>
<clipPath id="clip0_141_1105">
<rect width="180" height="136" fill="white"/>
</clipPath>
</defs>
</svg>
