<svg width="176" height="131" viewBox="0 0 176 131" fill="none" xmlns="http://www.w3.org/2000/svg">
<path d="M173.596 33.9808C171.813 27.8183 168.87 22.1853 164.192 17.756C154.058 8.16555 138.078 7.03896 124.954 11.709C117.112 14.5014 110.104 19.0174 103.633 24.3133C95.4555 30.9958 84.5843 33.3453 74.4225 30.5144C66.4369 28.2901 58.2499 26.1814 56.6106 26.0851C43.6783 25.2859 29.8927 27.2117 17.9766 32.498C-7.6101 43.8409 -2.00194 69.011 10.9016 89.877C16.692 99.2363 23.0479 108.528 31.81 115.163C47.2732 126.871 67.7886 128.691 87.1152 130.078C108.819 131.628 132.537 132.649 150.176 119.862C168.697 106.439 174.957 81.5672 175.897 58.6406C176.232 50.4656 175.849 41.7899 173.596 33.9808Z" fill="#89509E"/>
<path d="M108.417 119.708L110.564 130.819H61.864L63.1295 121.845L108.417 119.708Z" fill="#1F4168"/>
<path d="M61.5573 122.278L64.7017 110.685L65.6508 93.536L63.8964 86.9016L48.8167 91.5332C45.0971 92.6694 41.1282 90.811 39.6135 87.2098L39.5656 87.0942C38.6645 84.947 38.7507 82.5493 39.7957 80.4984C41.3008 77.5423 43.2852 73.6329 43.2852 73.6329L42.547 70.1569L48.9413 66.286L56.6873 69.5791L62.9569 64.1099C65.181 62.1648 67.8749 60.8456 70.77 60.2679L75.7551 59.2761L78.8803 56.8978C79.7431 56.243 80.7784 55.8675 81.8521 55.8193L96.3854 55.1742C97.7563 55.1164 99.0889 55.5882 100.124 56.4933L102.157 58.2843L109.845 59.4687C112.635 59.902 115.233 61.1923 117.275 63.1566C117.275 63.1566 134.07 79.3333 139.631 84.7544C143.302 88.3364 143.082 94.3256 139.19 97.6668L132.393 103.512L129.785 107.498L120.841 103.849L117.188 97.2528L126.411 91.8509L124.656 89.9925C124.158 89.4629 123.765 88.8371 123.506 88.1534L122.912 86.555L117.275 86.1602L104.86 101.364L108.407 119.727L90.2212 123.444C85.495 124.406 80.6442 124.609 75.8509 124.031L61.5477 122.298L61.5573 122.278Z" fill="#D4B7D7"/>
<path d="M81.2673 57.5237L84.2775 62.4249L86.5112 70.0125L90.413 63.0989L96.9031 58.1881V48.5977H82.6382V55.0683L81.2673 57.5237Z" fill="#FFC89F"/>
<path d="M75.1607 47.3266C75.1607 47.3266 71.6328 49.3005 72.3997 52.0255C72.3997 52.0255 72.5435 51.3033 72.8983 51.0626C72.8983 51.0626 72.4477 52.6899 73.646 53.6047C73.646 53.6047 73.3296 51.6403 75.1032 50.9085C75.1032 50.9085 75.5442 52.1411 76.8383 51.987C76.8383 51.987 76.5699 52.3529 75.7934 52.3047C75.7934 52.3047 77.1164 53.258 78.794 52.5166C78.794 52.5166 80.2608 53.9513 82.7437 53.1425L98.4657 55.0683C100.191 51.313 107.391 32.7868 95.2063 25.1799C95.2063 25.1799 75.8126 28.8197 75.5346 37.0717C75.2566 45.3237 75.1511 47.3362 75.1511 47.3362L75.1607 47.3266Z" fill="#1B1A2E"/>
<path d="M83.8029 44.4941L82.4055 55.9246L97.0018 57.7247L98.3991 46.2943L83.8029 44.4941Z" fill="#FFC89F"/>
<path d="M87.5178 55.3378C92.8863 55.9926 97.7755 52.1603 98.4274 46.768L99.875 34.8377C100.527 29.4455 96.7114 24.5347 91.3429 23.88C85.9744 23.2252 81.0852 27.0575 80.4333 32.4498L78.9858 44.38C78.3339 49.7723 82.1493 54.683 87.5178 55.3378Z" fill="#FFC89F"/>
<path d="M82.6574 53.3157L82.4178 55.2896C83.6448 55.5303 85.6389 55.8192 87.537 55.1452C86.0415 55.3089 83.7886 54.2786 82.6574 53.3157Z" fill="#FF9A6C"/>
<path d="M94.6215 26.2968C94.6215 26.2968 92.244 25.0836 88.2177 27.6352C84.1913 30.1869 81.0181 35.1651 76.7137 36.8694C76.7137 36.8694 74.3362 46.1421 78.3147 49.3197C78.3147 49.3197 74.8923 49.5315 74.5471 44.9289C74.5471 44.9289 70.1469 40.0085 80.51 25.8635C82.4082 22.5608 93.6533 15.9649 103.374 25.5072C103.374 25.5072 108.282 29.0026 108.589 39.1611C108.589 39.1611 111.465 53.412 100.153 54.9334C100.153 54.9334 96.5963 57.6873 94.1997 55.0971C94.1997 55.0971 96.1458 54.7312 96.9031 53.9608C96.9031 53.9608 93.0972 55.2222 91.2662 53.4216C91.2662 53.4216 95.6665 53.2676 97.1332 51.3321C97.1332 51.3321 94.9475 53.075 93.3369 50.7544C93.3369 50.7544 101.246 51.2166 101.294 40.3647C101.294 40.3647 95.3405 42.3579 95.4268 35.6273C95.5131 29.1181 94.6119 26.2968 94.6119 26.2968H94.6215Z" fill="#1B1A2E"/>
<path d="M74.5471 44.9481C73.8186 44.3993 73.2913 43.6001 72.9653 42.7335C72.6394 41.8668 72.5531 40.9232 72.6298 39.9988C72.7353 39.0841 72.9941 38.1982 73.3296 37.3509C73.6652 36.5035 74.0486 35.685 74.4896 34.8858L74.8251 34.2985C74.9402 34.1059 75.0552 33.9133 75.1799 33.7207C75.4195 33.3356 75.6496 32.9504 75.8988 32.5653C76.3782 31.8046 76.8671 31.0343 77.356 30.2832C77.8545 29.5321 78.3626 28.7811 78.8803 28.0396C79.398 27.2982 79.9252 26.5664 80.4812 25.8442L80.51 25.8635C79.5705 27.4138 78.6214 28.9544 77.6436 30.4758C76.6562 31.9875 75.64 33.4896 74.6334 34.9821C74.1541 35.7428 73.7227 36.542 73.4159 37.3894C73.3392 37.6012 73.2817 37.8227 73.205 38.0345L73.1283 38.3619C73.0996 38.4678 73.0708 38.5834 73.0516 38.6893C72.9653 39.1322 72.9078 39.5752 72.8791 40.0181C72.8599 40.461 72.8599 40.9039 72.9078 41.3469C72.9558 41.7898 73.042 42.2231 73.1763 42.6468C73.3105 43.0705 73.4926 43.4749 73.7227 43.86C73.8377 44.0526 73.9624 44.2356 74.0966 44.4185C74.2308 44.5918 74.3842 44.7652 74.5375 44.9192L74.5184 44.9481H74.5471Z" fill="#1B1A2E"/>
<path d="M94.6407 26.2971C94.8707 27.077 95.005 27.8859 95.1104 28.6851C95.1583 29.0895 95.2063 29.4939 95.2254 29.8983C95.2638 30.3027 95.2734 30.7072 95.283 31.1116C95.283 31.516 95.283 31.9204 95.2638 32.3248L95.2446 32.9315C95.235 33.1337 95.2159 33.3359 95.2159 33.5381L95.12 35.9646C95.12 36.1668 95.1008 36.369 95.1008 36.5712C95.1008 36.7734 95.1008 36.9756 95.12 37.1682C95.1488 37.563 95.1967 37.9578 95.3021 38.3333C95.398 38.7088 95.5514 39.0747 95.7815 39.3732C96.002 39.6814 96.2991 39.9221 96.6347 40.105C96.9702 40.2784 97.3441 40.3939 97.7276 40.4517C98.111 40.5191 98.5041 40.5383 98.9067 40.5383C99.7024 40.5383 100.498 40.442 101.303 40.3361V40.365C100.536 40.5865 99.7312 40.7502 98.9163 40.8079C98.5041 40.8368 98.0918 40.8272 97.6796 40.7791C97.2674 40.7213 96.8552 40.6154 96.4717 40.4132C96.28 40.3169 96.0978 40.1917 95.9349 40.0473C95.7719 39.9028 95.6281 39.7391 95.5035 39.5658C95.2542 39.2095 95.1008 38.8051 95.005 38.4007C94.9091 37.9963 94.8803 37.5726 94.8803 37.1682C94.8803 36.7542 94.9283 36.3497 94.9666 35.9453C95.0433 35.1365 95.0912 34.3373 95.0912 33.5284C95.0912 33.3262 95.0912 33.124 95.0912 32.9218L95.0721 32.3152C95.0625 31.9108 95.0241 31.5064 95.0145 31.1019C94.9378 29.4939 94.842 27.8859 94.6215 26.2778H94.6502L94.6407 26.2971Z" fill="#1B1A2E"/>
<path d="M80.1457 34.7607C79.8965 34.9918 79.6376 35.2037 79.3692 35.4155C79.1008 35.6177 78.8228 35.8103 78.5352 35.9932C78.2476 36.1762 77.9504 36.3399 77.6532 36.4843C77.4998 36.5614 77.3464 36.6288 77.193 36.6962C77.0397 36.7539 76.8767 36.8213 76.7137 36.8695C76.7904 36.831 76.8671 36.7925 76.9438 36.7636L77.1643 36.648C77.3177 36.571 77.4615 36.494 77.6053 36.4169C77.9025 36.2532 78.1901 36.0799 78.4681 35.9066C78.7557 35.7333 79.0337 35.5407 79.3117 35.3481C79.5897 35.1555 79.8581 34.963 80.1361 34.7607H80.1457Z" fill="#1F4068"/>
<path d="M94.6311 26.2777C93.9984 26.0755 93.3273 26.0274 92.6658 26.0466C92.0044 26.0659 91.3429 26.1622 90.7006 26.3162C90.3746 26.3836 90.0583 26.4799 89.7419 26.5762C89.5885 26.6244 89.4256 26.6821 89.2722 26.7399L89.0421 26.8266L88.812 26.9229C88.1889 27.1732 87.6041 27.491 87.0385 27.8376C86.4729 28.1843 85.9169 28.5598 85.38 28.9449C84.8336 29.3301 84.3063 29.7345 83.7695 30.1389C82.7054 30.9381 81.6221 31.7373 80.4621 32.4114C81.5837 31.6699 82.6383 30.8515 83.7024 30.0523C84.7665 29.2531 85.8498 28.4539 87.0098 27.7895C87.5945 27.4621 88.1889 27.154 88.8024 26.894L89.0325 26.7881L89.2626 26.7014C89.416 26.6436 89.5694 26.5762 89.7323 26.5184C90.0487 26.4125 90.3651 26.3066 90.691 26.2296C91.3429 26.0659 92.0044 25.9696 92.6754 25.96C93.3465 25.96 94.0271 26.0177 94.6503 26.2681L94.6311 26.2777Z" fill="#1F4068"/>
<path d="M93.3465 50.7449C94.564 50.7256 95.7719 50.3886 96.8456 49.8301C97.3824 49.5509 97.9001 49.2139 98.3507 48.7998C98.8012 48.3858 99.1943 47.9043 99.5202 47.394C100.182 46.3637 100.594 45.1986 100.872 44.0046C101.14 42.8106 101.255 41.5877 101.303 40.3552H101.313V41.2796C101.303 41.5877 101.284 41.8959 101.265 42.204C101.236 42.5121 101.198 42.8202 101.16 43.1187L101.083 43.5713C101.054 43.7254 101.035 43.8794 100.997 44.0239L100.891 44.4764C100.872 44.5535 100.853 44.6305 100.834 44.6979L100.766 44.9194L100.623 45.3623L100.45 45.7956C100.421 45.863 100.393 45.94 100.364 46.0074L100.268 46.2193C100.201 46.3541 100.143 46.4985 100.067 46.6333L99.8366 47.0377C99.7599 47.1725 99.664 47.2977 99.5874 47.4229C98.8971 48.4339 97.996 49.3198 96.9127 49.9072C96.3758 50.2057 95.7911 50.4175 95.1967 50.5619C94.6023 50.6967 93.9792 50.7834 93.3752 50.7449H93.3465Z" fill="#1F4068"/>
<path d="M78.842 48.9924C78.2859 49.0694 77.7107 49.0213 77.1643 48.8768C76.6179 48.7324 76.1002 48.4435 75.688 48.0487C75.4866 47.8465 75.3045 47.6251 75.1607 47.3747C75.0169 47.134 74.8923 46.874 74.806 46.6044C74.7101 46.3348 74.6622 46.0555 74.6143 45.7763C74.5951 45.6319 74.5855 45.4971 74.5663 45.3526C74.5663 45.2082 74.5567 45.0734 74.5471 44.929C74.5951 45.4874 74.6909 46.0459 74.8827 46.5755C75.0648 47.0955 75.362 47.5866 75.7647 47.9717C76.1577 48.3569 76.6562 48.6361 77.1835 48.7902C77.4519 48.8768 77.7203 48.925 77.9983 48.9635C78.2763 49.002 78.5544 49.0116 78.8324 48.9924H78.842Z" fill="#1F4068"/>
<path d="M77.2793 34.0771C77.1163 34.7127 76.9821 35.3578 76.8575 36.0029C76.7329 36.6481 76.6274 37.3029 76.5412 37.948C76.359 39.2479 76.244 40.5671 76.244 41.8766C76.244 43.1862 76.3494 44.515 76.7137 45.7763C76.8959 46.4022 77.1451 47.0185 77.4902 47.577C77.8353 48.1354 78.2955 48.6265 78.8324 48.9924C78.2763 48.6458 77.8066 48.1547 77.4423 47.6059C77.078 47.057 76.8192 46.4407 76.6274 45.8052C76.4357 45.1697 76.3207 44.515 76.244 43.8602C76.1673 43.2054 76.1385 42.541 76.1385 41.8862C76.1385 40.5671 76.2631 39.2479 76.4549 37.9384C76.6562 36.6385 76.915 35.3385 77.2793 34.0771Z" fill="#1F4068"/>
<path d="M94.4298 25.9406C94.2572 25.7865 94.0463 25.6614 93.8354 25.5747C93.6245 25.4784 93.3944 25.4206 93.1644 25.3725C92.7042 25.2858 92.2345 25.3147 91.7743 25.4014C91.5442 25.4303 91.3237 25.5073 91.0937 25.5651L91.0074 25.5843L90.9211 25.6132L90.7581 25.671L90.4322 25.7962C90.2213 25.8924 90.0008 25.9887 89.7995 26.0947C89.5886 26.2102 89.3872 26.3161 89.1763 26.4317C89.3681 26.2969 89.5694 26.1813 89.7707 26.0465C89.9816 25.931 90.1925 25.825 90.4034 25.7191C90.5089 25.671 90.6239 25.6325 90.7294 25.5843L90.8923 25.5169L90.9786 25.488L91.0649 25.4591C91.295 25.3917 91.5155 25.3147 91.7551 25.2858C92.2249 25.2088 92.7042 25.1799 93.1739 25.2858C93.6341 25.3917 94.0943 25.594 94.4202 25.931L94.4298 25.9406Z" fill="#1F4068"/>
<path d="M95.1008 25.334C95.5993 24.9489 96.1554 24.6311 96.7401 24.3808C97.3249 24.1304 97.9385 23.9571 98.5712 23.8704C98.8875 23.8319 99.2039 23.8126 99.5203 23.8223C99.8366 23.8319 100.153 23.8608 100.46 23.9378C101.083 24.0726 101.668 24.3326 102.195 24.6696C101.917 24.5252 101.639 24.3711 101.342 24.2748C101.198 24.2171 101.045 24.1689 100.901 24.1208C100.824 24.1015 100.747 24.0823 100.671 24.063C100.594 24.0437 100.517 24.0245 100.441 24.0149C99.827 23.8993 99.1943 23.8801 98.5808 23.9667C97.9576 24.0437 97.3537 24.2171 96.7689 24.4482C96.4813 24.5637 96.1937 24.6889 95.9157 24.8429C95.6377 24.9874 95.3597 25.1414 95.1008 25.3244V25.334Z" fill="#1F4068"/>
<path d="M100.91 39.787C100.527 38.4582 100.23 37.1102 99.9804 35.7429C99.8558 35.0592 99.7599 34.3756 99.664 33.6919C99.5682 33.0082 99.4915 32.3246 99.4052 31.6313C99.3285 30.9476 99.2422 30.264 99.1368 29.5803C99.0409 28.8967 98.9259 28.213 98.7821 27.539C98.7054 27.202 98.6287 26.865 98.5232 26.5376C98.4178 26.2102 98.3027 25.8828 98.1494 25.5843C97.996 25.2858 97.7851 24.9969 97.5166 24.7947C97.3824 24.6984 97.229 24.6214 97.0661 24.5636C96.9031 24.5155 96.7305 24.4962 96.558 24.4962C96.9031 24.4577 97.2578 24.5444 97.5454 24.7466C97.833 24.9488 98.0535 25.2377 98.2165 25.5362C98.552 26.1524 98.7341 26.8264 98.8875 27.5005C99.1751 28.8582 99.2997 30.2351 99.434 31.612C99.5682 32.989 99.8078 34.3467 100.057 35.7043C100.182 36.3784 100.316 37.062 100.46 37.7361C100.527 38.0731 100.604 38.4101 100.68 38.7471C100.757 39.0841 100.834 39.4211 100.91 39.7581H100.901L100.91 39.787Z" fill="#1F4068"/>
<path d="M101.073 27.3851C101.725 28.4443 102.176 29.6094 102.54 30.7938C102.904 31.9878 103.134 33.2106 103.288 34.4432C103.317 34.7513 103.336 35.0594 103.364 35.3675C103.374 35.5216 103.393 35.6757 103.403 35.8297V36.2919C103.422 36.6 103.432 36.9178 103.432 37.2259L103.403 38.1599L103.384 38.6221L103.336 39.0843L103.249 40.0087C103.24 40.1628 103.211 40.3168 103.182 40.4709L103.106 40.9331L102.952 41.8478L103.077 40.9235L103.134 40.4613C103.154 40.3072 103.173 40.1531 103.182 39.9991L103.259 39.0747L103.297 38.6125V38.1503L103.326 37.2259C103.326 36.9178 103.307 36.6097 103.297 36.3015L103.278 35.8394C103.278 35.6853 103.249 35.5312 103.24 35.3772C103.211 35.069 103.192 34.7609 103.154 34.4528C103.01 33.2203 102.77 32.007 102.425 30.813L102.3 30.3701L102.157 29.9272C102.109 29.7827 102.061 29.6287 102.003 29.4842L101.84 29.0509C101.61 28.4732 101.361 27.9147 101.045 27.3755L101.073 27.3851Z" fill="#1F4068"/>
<path d="M94.6982 25.6903C94.842 25.6326 95.005 25.6518 95.1488 25.7288C95.2926 25.7963 95.398 25.9118 95.4843 26.0466C95.5706 26.1718 95.6377 26.3162 95.6856 26.4606C95.7432 26.6051 95.7815 26.7495 95.8103 26.9036C95.8774 27.2021 95.9157 27.5102 95.9349 27.8087C95.9541 28.1168 95.9541 28.4153 95.9732 28.7235C95.9924 29.3301 96.002 29.9367 96.0499 30.5433C96.0883 31.15 96.1554 31.7566 96.2417 32.3536C96.4142 33.5572 96.6635 34.7416 97.0086 35.9067C97.3537 37.0621 97.8234 38.1887 98.4178 39.2479C97.7563 38.2369 97.2578 37.1103 96.9031 35.9452C96.721 35.3674 96.5772 34.7704 96.4622 34.1735C96.3471 33.5765 96.2512 32.9698 96.1841 32.3728C96.117 31.7662 96.0595 31.1596 96.0116 30.5626C95.9636 29.956 95.9157 29.3493 95.8774 28.7427C95.8486 28.1361 95.8486 27.5295 95.724 26.9325C95.6665 26.6436 95.5802 26.3451 95.4268 26.0947C95.3501 25.9696 95.2447 25.854 95.12 25.7866C94.9954 25.7096 94.8324 25.6903 94.6886 25.7288L94.6982 25.6903Z" fill="#1F4068"/>
<path d="M95.7144 24.9297C95.5993 24.612 95.4172 24.3327 95.1871 24.092C94.9666 23.8513 94.6982 23.6394 94.4106 23.4854C93.8258 23.1676 93.1643 23.0424 92.5029 23.0521C91.8414 23.0521 91.1799 23.158 90.5376 23.3217C90.3746 23.3602 90.2117 23.3987 90.0583 23.4565C89.8953 23.5046 89.7419 23.5528 89.579 23.6106C89.4256 23.6683 89.2626 23.7165 89.1092 23.7742L88.6395 23.9476C89.2434 23.6683 89.8666 23.418 90.5089 23.235C91.1512 23.0521 91.8222 22.9365 92.4933 22.9365C93.1643 22.9365 93.845 23.0713 94.4394 23.4083C94.727 23.5817 94.9954 23.8031 95.2159 24.0535C95.3213 24.1787 95.4172 24.3231 95.5035 24.4675C95.5898 24.612 95.6569 24.766 95.7048 24.9297H95.7144Z" fill="#1F4068"/>
<path d="M88.0068 24.2844C86.9906 24.891 86.0511 25.6325 85.1787 26.4317C84.7377 26.8361 84.3159 27.2501 83.9324 27.6931C83.5394 28.136 83.1847 28.6174 82.8587 29.1181C82.7821 29.2433 82.7054 29.3685 82.6191 29.4937L82.389 29.8788C82.2356 30.1292 82.0822 30.3892 81.9193 30.6395C81.5933 31.1402 81.2482 31.6217 80.8743 32.0839C80.4908 32.5461 80.0882 32.9794 79.6472 33.3838C79.2062 33.7786 78.7269 34.1541 78.1901 34.4141C78.7077 34.1156 79.1583 33.7208 79.5897 33.3164C80.0211 32.912 80.4142 32.469 80.788 32.0068C80.9702 31.7757 81.1523 31.5446 81.3249 31.3039C81.507 31.0728 81.67 30.8225 81.833 30.5721C81.9193 30.4469 81.9959 30.3218 82.0726 30.1966L82.3123 29.8211L82.552 29.4455C82.6383 29.3203 82.7149 29.1952 82.8012 29.0796C83.1463 28.5885 83.5106 28.1264 83.8941 27.6642C84.2776 27.2116 84.6802 26.7687 85.1116 26.3546C85.3321 26.1524 85.5526 25.9502 85.7827 25.7576C86.0127 25.565 86.2428 25.3821 86.4825 25.2088C86.9618 24.8621 87.4603 24.5347 87.9972 24.2651L88.0068 24.2844Z" fill="#1F4068"/>
<path d="M100.239 24.2458C100.68 24.3518 101.092 24.5347 101.466 24.7947C101.562 24.8525 101.648 24.9295 101.735 24.9969C101.821 25.0643 101.917 25.1317 101.994 25.2184L102.233 25.4591C102.31 25.5458 102.387 25.6324 102.454 25.7191C103.039 26.4124 103.47 27.2212 103.825 28.0589L103.892 28.213L103.949 28.367L104.064 28.6848L104.179 29.0026L104.285 29.3203C104.352 29.5322 104.429 29.7536 104.486 29.9655L104.668 30.6202C104.697 30.7261 104.726 30.8417 104.755 30.9476L104.831 31.275L104.985 31.9394C105.071 32.3823 105.157 32.8253 105.234 33.2682C105.128 32.8253 105.033 32.392 104.927 31.949L104.764 31.2943L104.678 30.9669C104.649 30.861 104.611 30.755 104.582 30.6395L104.39 29.9943C104.323 29.7825 104.246 29.5707 104.179 29.3492L104.074 29.0314L103.949 28.7137L103.825 28.3959L103.767 28.2419L103.7 28.0878C103.355 27.2597 102.933 26.4605 102.367 25.7576C102.3 25.6709 102.224 25.5843 102.157 25.4976L101.917 25.2569C101.84 25.1702 101.754 25.1028 101.668 25.0354C101.581 24.968 101.495 24.891 101.399 24.8332C101.035 24.5732 100.632 24.371 100.201 24.2458H100.239Z" fill="#1F4068"/>
<path d="M105.732 34.7318C105.876 35.3673 106.02 36.0028 106.173 36.6287C106.25 36.9465 106.327 37.2546 106.413 37.5723L106.662 38.516C106.825 39.1419 107.007 39.7677 107.218 40.384C107.324 40.6921 107.439 41.0003 107.525 41.3084L107.592 41.5395L107.65 41.7802C107.698 41.9343 107.726 42.098 107.765 42.252C108.033 43.5327 108.043 44.8615 107.822 46.1518C107.717 46.7969 107.544 47.4324 107.353 48.0487C107.257 48.3568 107.151 48.6649 107.046 48.973C106.94 49.2812 106.835 49.5893 106.758 49.9071H106.749C106.806 49.5893 106.902 49.2715 106.998 48.9634C107.094 48.6553 107.19 48.3375 107.276 48.0294C107.458 47.4035 107.602 46.7776 107.707 46.1325C107.813 45.497 107.87 44.8422 107.87 44.1971C107.87 43.5519 107.813 42.9068 107.698 42.2617C107.669 42.1076 107.64 41.9439 107.602 41.7898L107.544 41.5491L107.477 41.318C107.439 41.1639 107.381 41.0099 107.333 40.8558L107.18 40.3936C106.969 39.7774 106.768 39.1611 106.576 38.5352C106.48 38.2271 106.394 37.9094 106.317 37.5916C106.24 37.2738 106.164 36.9561 106.087 36.6383C105.943 36.0028 105.819 35.3673 105.713 34.7222H105.723L105.732 34.7318Z" fill="#1F4068"/>
<path d="M102.818 25.2667C103.288 25.8059 103.71 26.3933 104.083 26.9999C104.457 27.6065 104.802 28.2421 105.09 28.8968C105.234 29.2242 105.368 29.5612 105.483 29.8982C105.512 29.9849 105.541 30.0716 105.569 30.1486L105.646 30.4086C105.704 30.5819 105.761 30.7456 105.799 30.9189C106.001 31.6026 106.183 32.2959 106.375 32.9891C106.739 34.3757 107.084 35.7623 107.429 37.1489L107.698 38.1888L107.832 38.7088L107.976 39.2287C108.072 39.5754 108.167 39.9124 108.282 40.259C108.388 40.596 108.513 40.933 108.666 41.2604H108.656C108.33 40.6249 108.11 39.9413 107.899 39.2576C107.688 38.5739 107.506 37.8807 107.333 37.1874C106.979 35.8008 106.662 34.4046 106.327 33.0084C106.154 32.3151 105.982 31.6218 105.78 30.9285C105.579 30.2449 105.311 29.5805 105.013 28.9257C104.716 28.2806 104.39 27.6451 104.016 27.0288C103.652 26.4222 103.259 25.8156 102.808 25.2571L102.818 25.2667Z" fill="#1F4068"/>
<path d="M100.949 52.5552C101.14 52.4589 101.323 52.3434 101.486 52.1989C101.648 52.0641 101.802 51.9101 101.936 51.7464C102.07 51.5827 102.205 51.419 102.329 51.2457C102.454 51.0724 102.569 50.8894 102.674 50.7065C102.895 50.3406 103.096 49.965 103.288 49.5799C103.384 49.3873 103.47 49.1947 103.556 48.9925C103.643 48.7999 103.729 48.5977 103.805 48.3955C103.69 48.8096 103.527 49.214 103.355 49.6088C103.182 50.0035 102.981 50.3887 102.761 50.7642C102.53 51.1301 102.281 51.4864 101.984 51.8042C101.687 52.1219 101.342 52.4012 100.939 52.5456L100.949 52.5552Z" fill="#1F4068"/>
<path d="M102.415 49.031C102.54 49.1081 102.684 49.1658 102.828 49.1755C102.971 49.1851 103.106 49.1466 103.23 49.0695C103.355 49.0021 103.451 48.8866 103.547 48.771C103.585 48.7133 103.643 48.6555 103.681 48.5881C103.719 48.5303 103.758 48.4629 103.805 48.3955C103.786 48.4725 103.748 48.5399 103.729 48.6073C103.7 48.6747 103.662 48.7421 103.623 48.8096C103.585 48.877 103.527 48.9347 103.48 48.9925C103.422 49.0503 103.365 49.1081 103.297 49.1466C103.163 49.2332 102.991 49.2717 102.828 49.2429C102.665 49.214 102.53 49.1273 102.425 49.0118L102.415 49.031Z" fill="#1F4068"/>
<path d="M103.364 35.791C103.595 36.3302 103.786 36.8887 103.959 37.4472C104.122 38.0057 104.275 38.5738 104.39 39.1515C104.611 40.307 104.745 41.4721 104.783 42.6468C104.802 43.2342 104.783 43.8216 104.707 44.4089C104.678 44.6978 104.62 44.9867 104.563 45.2756L104.457 45.7089C104.419 45.8533 104.371 45.9881 104.323 46.1325C104.141 46.691 103.892 47.2302 103.566 47.7309C103.24 48.222 102.847 48.6649 102.406 49.0501C102.828 48.6361 103.192 48.1835 103.499 47.6828L103.71 47.3073C103.777 47.1821 103.834 47.0473 103.901 46.9125C103.968 46.7873 104.016 46.6429 104.064 46.5081C104.122 46.3733 104.17 46.2384 104.208 46.094C104.39 45.5452 104.515 44.9674 104.592 44.3897C104.668 43.8119 104.707 43.2246 104.707 42.6468C104.707 42.0595 104.678 41.4817 104.601 40.8944C104.524 40.3166 104.409 39.7389 104.285 39.1708C104.036 38.0346 103.729 36.8983 103.345 35.8006H103.355L103.364 35.791Z" fill="#1F4068"/>
<path d="M96.9127 53.9514C97.3537 53.7684 97.7659 53.5277 98.159 53.2581C98.552 52.9885 98.9163 52.6804 99.2614 52.353C99.597 52.016 99.9229 51.6693 100.211 51.2842C100.498 50.9086 100.757 50.5042 100.997 50.0902C101.236 49.6761 101.438 49.2428 101.629 48.8095C101.716 48.588 101.811 48.3666 101.888 48.1451L102.003 47.8081L102.109 47.4615C102.387 46.5467 102.569 45.6031 102.693 44.6594L102.617 45.372C102.578 45.6127 102.55 45.8438 102.511 46.0845C102.425 46.5563 102.32 47.0282 102.195 47.4903L102.099 47.837L101.984 48.174C101.907 48.4051 101.811 48.6266 101.735 48.848C101.543 49.291 101.342 49.7243 101.102 50.1479C100.623 50.976 100.038 51.756 99.3381 52.4107C98.993 52.7381 98.6095 53.0366 98.2165 53.3062C98.0152 53.441 97.8139 53.5566 97.5934 53.6721C97.3825 53.7781 97.162 53.884 96.9415 53.961L96.9127 53.9514Z" fill="#1F4068"/>
<path d="M77.7395 32.3921C77.8545 31.9588 77.9792 31.5351 78.1134 31.1115C78.2476 30.6878 78.3914 30.2641 78.5448 29.8501C78.6982 29.436 78.8611 29.0123 79.0337 28.6079C79.2063 28.2035 79.398 27.7895 79.6185 27.4043C79.5705 27.5102 79.5322 27.6065 79.4843 27.7124L79.3596 28.0206C79.2734 28.2228 79.1871 28.4346 79.1104 28.6368C78.9474 29.0508 78.794 29.4649 78.6502 29.8886C78.4968 30.3026 78.353 30.7263 78.1997 31.1403L77.9792 31.7662L77.7491 32.3921H77.7395Z" fill="#1F4068"/>
<path d="M97.392 24.1882C97.5646 23.8608 97.5742 23.466 97.392 23.1483C97.2195 22.8305 96.9223 22.6091 96.6347 22.3972C96.3375 22.1854 96.0211 22.0121 95.6856 21.8484C95.5226 21.7713 95.3501 21.6943 95.1871 21.6269C95.0146 21.5595 94.842 21.4921 94.6694 21.4343C95.0337 21.5114 95.3788 21.6365 95.724 21.781C96.0595 21.9254 96.395 22.1084 96.6922 22.3202C96.7689 22.378 96.8456 22.4357 96.9127 22.4839C96.9798 22.5417 97.0565 22.5994 97.1236 22.6668C97.2578 22.8016 97.3824 22.9461 97.4591 23.1194C97.5454 23.2927 97.5838 23.4853 97.5646 23.6779C97.5454 23.8705 97.4879 24.0534 97.3824 24.1978L97.392 24.1882Z" fill="#1F4068"/>
<path d="M99.5011 23.8799C99.5394 23.6585 99.549 23.437 99.5011 23.2348C99.4819 23.1289 99.4531 23.023 99.4148 22.9267C99.3764 22.8208 99.3285 22.7245 99.2806 22.6282C99.3669 22.7052 99.4436 22.7919 99.4915 22.8978C99.549 22.9941 99.5874 23.1096 99.6065 23.2252C99.6257 23.3407 99.6257 23.4563 99.6065 23.5718C99.5874 23.6874 99.549 23.7933 99.4915 23.8896L99.5011 23.8799Z" fill="#1F4068"/>
<path d="M106.403 45.9111C106.26 46.7103 106.049 47.4903 105.79 48.2606C105.531 49.0309 105.224 49.782 104.831 50.4849C104.63 50.8412 104.409 51.1782 104.151 51.4959C103.892 51.8137 103.604 52.1026 103.269 52.3337C102.933 52.5648 102.54 52.7188 102.137 52.767C101.735 52.8055 101.323 52.7284 100.949 52.5744C101.332 52.7092 101.735 52.7766 102.128 52.7188C102.521 52.6707 102.895 52.507 103.221 52.2759C103.547 52.0448 103.825 51.7655 104.074 51.4478C104.323 51.1397 104.544 50.793 104.735 50.4464C105.128 49.7531 105.445 49.002 105.713 48.251C105.847 47.8754 105.972 47.4903 106.087 47.1051C106.202 46.72 106.308 46.3252 106.403 45.94V45.9111Z" fill="#1F4068"/>
<path d="M76.8096 48.7034C76.8192 48.9537 76.7808 49.2041 76.6946 49.4352C76.6179 49.6759 76.4932 49.8974 76.3398 50.0996C76.1865 50.2921 76.0043 50.4751 75.7838 50.6003C75.6784 50.6773 75.5633 50.7158 75.4579 50.7736C75.4004 50.8025 75.3428 50.8121 75.2853 50.841C75.2278 50.8603 75.1703 50.8795 75.1128 50.8988C75.3333 50.7929 75.5537 50.6773 75.7455 50.5329C75.9468 50.3981 76.1098 50.2247 76.2632 50.0322C76.4165 49.8492 76.5316 49.6374 76.6274 49.4063C76.6466 49.3485 76.6658 49.2907 76.6946 49.233C76.7137 49.1752 76.7329 49.1174 76.7425 49.0596C76.7808 48.9441 76.8 48.8189 76.8192 48.7034H76.8096Z" fill="#1F4068"/>
<path d="M80.0594 50.8701C79.9827 51.2168 79.8198 51.5441 79.6089 51.833C79.5034 51.9774 79.3788 52.1123 79.2446 52.2278C79.1104 52.3434 78.957 52.4396 78.794 52.5167C78.9282 52.4011 79.0624 52.2952 79.1871 52.17C79.3021 52.0449 79.4171 51.9197 79.5226 51.7752C79.628 51.6404 79.7239 51.496 79.8102 51.3419C79.8965 51.1879 79.9827 51.0434 80.0594 50.8797V50.8701Z" fill="#1F4068"/>
<path d="M98.934 46.3222L99.4383 46.3844C100.426 46.5062 101.325 45.8005 101.447 44.8082L101.839 41.597C101.961 40.6047 101.258 39.7015 100.27 39.5796L99.7658 39.5174C98.7778 39.3956 97.8786 40.1013 97.7573 41.0936L97.3648 44.3048C97.2435 45.2971 97.946 46.2003 98.934 46.3222Z" fill="#FFC89F"/>
<path d="M99.2998 40.6153C99.4723 40.6153 99.6545 40.6442 99.8174 40.7116C99.9804 40.779 100.143 40.8657 100.287 40.9812C100.565 41.2123 100.767 41.5494 100.853 41.9056C100.891 42.0886 100.901 42.2715 100.882 42.4545C100.862 42.6374 100.834 42.8011 100.805 42.9744C100.747 43.3211 100.68 43.6581 100.594 43.9951C100.594 43.6485 100.613 43.2922 100.632 42.9456C100.632 42.7722 100.661 42.5989 100.671 42.4256C100.69 42.2619 100.671 42.0982 100.632 41.9441C100.604 41.7804 100.536 41.6264 100.46 41.4916C100.383 41.3471 100.287 41.2123 100.172 41.0968C100.057 40.9812 99.9229 40.8753 99.7791 40.7983C99.6353 40.7116 99.4723 40.6539 99.2998 40.6057V40.6153Z" fill="#FF9A6C"/>
<path d="M99.5203 44.3802C99.4244 44.3224 99.3573 44.2454 99.2998 44.1491C99.2423 44.0625 99.2039 43.9565 99.1751 43.8603C99.1464 43.7543 99.1464 43.6484 99.156 43.5425C99.1656 43.4366 99.1943 43.3307 99.2518 43.2344C99.2902 43.3403 99.3094 43.4366 99.3285 43.5329L99.3956 43.8121L99.4627 44.0914C99.4819 44.1876 99.5107 44.2839 99.5298 44.3899L99.5203 44.3802Z" fill="#FF9A6C"/>
<path d="M99.7449 46.3621C99.836 45.8869 99.5263 45.4275 99.0532 45.336C98.5801 45.2444 98.1227 45.5555 98.0316 46.0307C97.9405 46.5059 98.2502 46.9653 98.7233 47.0568C99.1964 47.1483 99.6538 46.8373 99.7449 46.3621Z" fill="#F9A21B"/>
<g style="mix-blend-mode:multiply" opacity="0.4">
<path d="M126.42 91.8412L125.097 90.4354H126.602C127.043 90.4354 127.484 90.368 127.916 90.2332L131.77 89.0295C131.77 89.0295 130.782 89.2895 129.804 89.8576L126.43 91.8316L126.42 91.8412Z" fill="#A65B3C"/>
</g>
<g style="mix-blend-mode:multiply" opacity="0.4">
<path d="M63.8964 86.9016C64.5962 86.6898 65.1331 86.112 65.2961 85.3899L66.3602 80.6909L65.6508 93.536L63.8964 86.9016Z" fill="#A65B3C"/>
</g>
<g style="mix-blend-mode:multiply" opacity="0.4">
<path d="M123.132 103.126L129.785 107.488L120.85 103.839L123.132 103.126Z" fill="#A65B3C"/>
</g>
<g style="mix-blend-mode:multiply" opacity="0.4">
<path d="M46.1229 70.8406L42.5471 70.157L48.9509 66.2861L46.1229 70.8406Z" fill="#A65B3C"/>
</g>
<g style="mix-blend-mode:multiply" opacity="0.4">
<path d="M96.7498 61.5005L98.6479 62.81L97.5742 62.4538C97.1716 62.3189 96.7306 62.3767 96.3663 62.5982L96.1841 62.7137L96.7498 61.5005Z" fill="#A65B3C"/>
</g>
<g style="mix-blend-mode:multiply" opacity="0.4">
<path d="M80.4525 60.1234L80.8743 61.1152L82.4849 62.0107L80.7976 61.4811C80.395 61.3559 79.954 61.3655 79.5514 61.5196L79.2925 61.6159L80.4525 60.1138V60.1234Z" fill="#A65B3C"/>
</g>
<g style="mix-blend-mode:multiply" opacity="0.4">
<path d="M55.1343 77.3303L54.5878 79.9013C54.5878 79.9013 54.1756 81.673 53.1786 83.281L52.498 84.321L51.1367 85.9964L53.2457 84.3498C54.0797 83.6951 54.6166 82.7322 54.7125 81.673L55.1343 77.3303Z" fill="#A65B3C"/>
</g>
<g style="mix-blend-mode:multiply" opacity="0.4">
<path d="M94.7557 113.208L93.5286 108.47L94.3243 109.953C94.7078 110.656 95.3693 111.157 96.1554 111.321L96.721 111.436L94.7557 113.198V113.208Z" fill="#A65B3C"/>
</g>
<g style="mix-blend-mode:multiply" opacity="0.4">
<path d="M106.365 109.058L106.662 110.57L104.707 110.714C104.323 110.743 103.949 110.839 103.595 111.003L102.751 111.398L104.103 109.674L106.365 109.058Z" fill="#A65B3C"/>
</g>
<g style="mix-blend-mode:multiply" opacity="0.4">
<path d="M63.0432 122.461L73.1091 123.675L62.8706 123.655L63.0432 122.461Z" fill="#1F4168"/>
</g>
<g style="mix-blend-mode:multiply" opacity="0.4">
<path d="M83.8845 128.094C84.6515 128.383 85.3321 128.884 85.8498 129.548L86.8372 130.819H85.4663L85.1595 129.664C85.0062 129.096 84.6515 128.605 84.1625 128.277L83.8845 128.094Z" fill="#1F4168"/>
</g>
<g style="mix-blend-mode:multiply" opacity="0.4">
<path d="M117.284 86.1409L122.921 86.5357L121.867 83.7722L121.349 84.4944C120.927 85.0914 120.294 85.4958 119.585 85.6499L117.294 86.1409H117.284Z" fill="#A65B3C"/>
</g>
<path d="M122.921 86.5357L122.586 85.6788L122.25 84.8218L121.589 83.1078L120.937 81.3842L120.611 80.5273L120.294 79.6606L120.63 80.5176L120.966 81.3746L121.627 83.0886L122.279 84.8121L122.605 85.6691L122.921 86.5357Z" fill="#A65B3C"/>
<path d="M131.703 103.126L130.293 102.366L128.884 101.605L126.066 100.074C125.117 99.5829 124.235 98.957 123.458 98.206C122.701 97.4453 121.972 96.6653 121.224 95.895L122.356 97.0409L122.921 97.6186C123.113 97.8112 123.295 98.0038 123.487 98.1867C124.263 98.9281 125.145 99.5444 126.094 100.035L128.903 101.576L130.312 102.346L131.712 103.126H131.703Z" fill="#A65B3C"/>
<path d="M113.124 65.9395L112.884 67.9519L112.635 69.9644C112.587 70.3014 112.558 70.6384 112.52 70.9754C112.501 71.3124 112.472 71.6494 112.462 71.9864C112.443 72.3235 112.462 72.6605 112.462 72.9975C112.481 73.3345 112.491 73.6715 112.52 74.0085C112.539 74.3455 112.587 74.6826 112.625 75.0196C112.683 75.3566 112.731 75.684 112.798 76.021C112.826 76.1847 112.865 76.3484 112.903 76.5217C112.942 76.6854 112.98 76.8491 113.018 77.0128L113.152 77.5038C113.2 77.6675 113.258 77.8312 113.306 77.9853C113.517 78.6304 113.756 79.2659 114.044 79.8726C114.322 80.4888 114.638 81.0858 114.955 81.6828C114.638 81.0858 114.312 80.4888 114.025 79.8822C113.737 79.2659 113.498 78.6401 113.277 77.9949C113.229 77.8312 113.172 77.6772 113.124 77.5135L112.989 77.0224C112.942 76.8587 112.913 76.695 112.865 76.5313C112.826 76.3676 112.788 76.2039 112.759 76.0306C112.683 75.7032 112.635 75.3662 112.587 75.0292C112.548 74.6922 112.501 74.3552 112.472 74.0182C112.443 73.6811 112.433 73.3441 112.414 73.0071C112.414 72.6701 112.414 72.3331 112.414 71.9864C112.414 71.6494 112.453 71.3124 112.472 70.9754C112.51 70.6384 112.539 70.3014 112.587 69.9644L112.846 67.9519L113.114 65.9395H113.124Z" fill="#A65B3C"/>
<path d="M126.42 91.8414L127.667 91.0999L128.913 90.3681C129.335 90.1274 129.737 89.8674 130.169 89.6459C130.6 89.4245 131.051 89.2415 131.511 89.0971C132.431 88.7986 133.399 88.6542 134.358 88.6638H135.806C135.806 88.6542 137.253 88.6445 137.253 88.6445L135.806 88.6734L134.358 88.6927C133.399 88.6927 132.431 88.8467 131.52 89.1452C131.06 89.2897 130.619 89.4726 130.188 89.6845C129.756 89.9059 129.344 90.1563 128.932 90.397L127.686 91.1192L126.43 91.8414H126.42Z" fill="#A65B3C"/>
<path d="M56.7065 69.5791L56.2559 71.8612L55.7957 74.1432L54.8754 78.6977C54.7316 79.4584 54.5495 80.2191 54.2906 80.9413C54.0318 81.6731 53.7059 82.376 53.332 83.0597C53.1402 83.3967 52.9293 83.7241 52.7184 84.0418C52.4979 84.3596 52.2679 84.6677 52.0186 84.9662L50.5231 86.7379C51.4913 85.5343 52.565 84.3981 53.3032 83.0404C53.6771 82.3664 54.003 81.6635 54.2523 80.9317C54.5111 80.1999 54.6837 79.4488 54.8371 78.6881L55.767 74.1336L56.2367 71.8612L56.7065 69.5887V69.5791Z" fill="#A65B3C"/>
<path d="M104.87 101.345L105.349 100.151L105.828 98.9668L106.806 96.5788L107.784 94.21L108.282 93.016L108.781 91.8413L108.302 93.0257L107.813 94.2197L106.844 96.598L105.857 98.9764L105.368 100.161L104.87 101.345Z" fill="#A65B3C"/>
<path d="M86.8372 130.819C86.5496 130.473 86.2716 130.116 85.9935 129.76C85.8497 129.587 85.7155 129.404 85.5621 129.24C85.4088 129.076 85.2458 128.922 85.0636 128.788C84.7185 128.508 84.3159 128.287 83.9037 128.123C83.6928 128.036 83.4819 127.969 83.2614 127.921C83.0409 127.873 82.8204 127.834 82.5999 127.786C82.8204 127.825 83.0409 127.854 83.2614 127.902C83.4819 127.95 83.7023 128.017 83.9133 128.094C84.3351 128.258 84.7377 128.479 85.0924 128.759C85.265 128.903 85.4375 129.057 85.5909 129.221C85.7443 129.385 85.8881 129.567 86.0223 129.741C86.3003 130.097 86.5687 130.453 86.8372 130.819Z" fill="#1B1A2E"/>
<path d="M94.7557 113.208L94.4777 112.168L94.1997 111.128L93.6533 109.058L93.1164 106.969L92.8576 105.929L92.5988 104.889L92.8768 105.929L93.1548 106.969L93.7012 109.039L94.2285 111.128L94.4969 112.168L94.7557 113.208Z" fill="#A65B3C"/>
<path d="M65.6508 93.536L65.7562 91.408L65.8617 89.28L66.0917 85.024L66.3314 80.768L66.456 78.64L66.5902 76.512L66.4848 78.64L66.3698 80.768L66.1397 85.024L65.9 89.28L65.7754 91.408L65.6508 93.536Z" fill="#A65B3C"/>
<path d="M44.8958 74.2686L46.1612 74.7596L46.7939 75.01C47.0048 75.0966 47.2157 75.1833 47.4266 75.2507C48.2798 75.5492 49.1906 75.684 50.1013 75.6455C51.0024 75.5974 51.9132 75.5299 52.8143 75.4722L54.1756 75.3855L55.5369 75.3085L54.1756 75.4144L52.8143 75.5107C51.9132 75.5685 51.0024 75.6455 50.1013 75.6936C49.1906 75.7225 48.2798 75.5781 47.417 75.2796C46.5638 74.9618 45.7298 74.6056 44.8862 74.2686H44.8958Z" fill="#A65B3C"/>
<path d="M102.598 64.1291C102.559 63.7055 102.521 63.2722 102.483 62.8389L102.377 61.5486L102.291 60.2583C102.262 59.825 102.233 59.4013 102.214 58.968C102.252 59.3917 102.291 59.825 102.329 60.2583L102.435 61.5486L102.521 62.8389C102.55 63.2722 102.578 63.6958 102.598 64.1291Z" fill="#A65B3C"/>
<path d="M96.7497 61.5005C97.2003 61.799 97.6605 62.1071 98.111 62.4152L98.7917 62.8774C99.0218 63.0315 99.2422 63.1856 99.4723 63.3204C99.9421 63.59 100.46 63.7826 100.987 63.8981C101.255 63.9559 101.524 63.9848 101.792 64.0233L102.607 64.1388L101.792 64.0522C101.524 64.0233 101.246 63.9944 100.977 63.9366C100.441 63.8307 99.9229 63.6285 99.4436 63.3589C99.2039 63.2241 98.9834 63.0604 98.7533 62.9063L98.0823 62.4441C97.6317 62.136 97.1907 61.8182 96.7401 61.5005H96.7497Z" fill="#A65B3C"/>
<path d="M96.7497 61.5005L96.2416 62.6174L95.724 63.7344L95.7144 63.744L93.5478 63.7826H93.0014C92.8192 63.7922 92.6371 63.7922 92.4645 63.8018C92.2824 63.8114 92.1098 63.8403 91.9277 63.8788C91.7551 63.9174 91.5825 63.9751 91.41 64.0329C91.247 64.1003 91.084 64.1773 90.9211 64.264C90.7677 64.3603 90.6143 64.4566 90.4801 64.5721C90.1925 64.7936 89.9624 65.0825 89.7227 65.3424L88.2464 66.9409L89.694 65.3232C89.9336 65.0536 90.1733 64.7743 90.4513 64.5432C90.5951 64.4277 90.7389 64.3218 90.9019 64.2351C91.0553 64.1485 91.2278 64.0618 91.3908 63.9944C91.5634 63.927 91.7359 63.8788 91.9085 63.8307C92.0906 63.7922 92.2632 63.7633 92.4453 63.7537C92.8096 63.7344 93.1739 63.7344 93.5286 63.7344L95.6952 63.7055H95.676C95.676 63.7151 96.2033 62.6078 96.2033 62.6078L96.7401 61.5005H96.7497Z" fill="#A65B3C"/>
<path d="M73.6268 65.2749C73.7706 64.8416 73.9144 64.4083 74.0678 63.9846L74.5184 62.6944L74.9785 61.4137C75.1319 60.99 75.2949 60.5567 75.4483 60.1331C75.3045 60.5664 75.1607 60.9997 75.0073 61.4233L74.5567 62.7136L74.0966 63.9943C73.9432 64.4179 73.7802 64.8513 73.6268 65.2749Z" fill="#A65B3C"/>
<path d="M80.4525 60.1235L79.791 60.9998L79.1295 61.8664C78.7077 62.4537 78.1613 62.9737 77.5286 63.3396C77.3752 63.4359 77.2026 63.5129 77.0397 63.59L76.5507 63.8307L75.5729 64.3218L74.5951 64.8032L73.6172 65.2847L74.5855 64.784L75.5537 64.2929L76.522 63.8018L77.0109 63.5514C77.1739 63.4648 77.3368 63.3878 77.4902 63.3011C78.123 62.9448 78.6598 62.4441 79.0912 61.8567L79.7623 60.9901L80.4429 60.1332L80.4525 60.1235Z" fill="#A65B3C"/>
<path d="M80.4525 60.1235C80.5963 60.4509 80.7401 60.7783 80.8839 61.1057L82.4273 61.953C82.945 62.2323 83.4148 62.6271 83.7503 63.1085C83.8366 63.2337 83.9133 63.3492 83.9899 63.484C84.0571 63.6188 84.1242 63.744 84.1913 63.8788L84.5939 64.6684C84.8623 65.1884 85.1308 65.718 85.3896 66.2476C85.1116 65.7276 84.8336 65.2076 84.5651 64.6877L84.1529 63.9077C84.0858 63.7729 84.0187 63.6477 83.942 63.5226C83.8653 63.3974 83.7886 63.2722 83.7023 63.1567C83.3572 62.6848 82.9067 62.2901 82.389 62.0108L80.8455 61.1538C80.7113 60.8264 80.5771 60.4894 80.4429 60.1524L80.4525 60.1235Z" fill="#A65B3C"/>
<path d="M46.1228 70.8406L56.8119 53.6047L56.7256 46.6622C56.716 45.7378 57.1858 44.8712 57.9719 44.3802L59.3428 43.5232L61.2601 41.2507L61.9312 38.8339V36.937C61.9312 36.6673 61.9024 36.3881 61.8449 36.1185L61.4902 34.4816C61.3943 34.0483 61.7011 33.6246 62.1421 33.5764C62.4488 33.5476 62.7364 33.7016 62.8706 33.9809C63.2062 34.6453 63.8293 36.0607 64.347 38.4198L65.4494 39.2575C65.8233 39.5464 66.0726 39.9701 66.1397 40.4419L66.2451 41.2026L66.5423 41.8959C66.7916 42.464 66.4848 43.1284 65.8904 43.3017C65.7466 43.3402 65.5837 43.3787 65.3919 43.398L66.5711 47.5096L67.2038 45.786C67.2038 45.786 66.1205 44.1491 66.7916 42.8588C67.0888 42.3003 67.8844 42.3003 68.1816 42.8588L68.8527 44.1298L69.2745 44.4764C69.7251 44.8423 69.9552 45.4105 69.9072 45.9882L69.6388 48.9924C69.61 49.3391 69.4758 49.6665 69.2553 49.9361L65.4111 54.6446L63.4267 55.8194L56.6873 69.5695L56.0833 69.9643C54.5878 70.9368 52.8239 71.3894 51.0504 71.2353L46.1037 70.8309L46.1228 70.8406Z" fill="#FFC89F"/>
<path d="M59.3428 43.5326L60.0426 43.3786C60.1576 43.3497 60.2727 43.3208 60.3973 43.3112C60.5123 43.2919 60.637 43.3015 60.752 43.3112C60.9917 43.3497 61.2122 43.4652 61.3847 43.6386C61.471 43.7252 61.5381 43.8215 61.6148 43.9178L61.8353 44.197L62.2763 44.7651L62.4968 45.0444C62.5735 45.1407 62.6406 45.237 62.6885 45.3429C62.746 45.4488 62.7652 45.574 62.8035 45.6895L62.8994 46.0362L63.0816 46.7295L63.3212 47.2302C63.3596 47.3168 63.4075 47.4035 63.4267 47.4998C63.4458 47.5961 63.4554 47.6923 63.4458 47.7886C63.4267 47.9812 63.35 48.1642 63.2254 48.3086C63.1007 48.453 62.9282 48.559 62.746 48.5975C62.5639 48.6456 62.3626 48.6264 62.19 48.5493C62.0174 48.4723 61.8641 48.3471 61.7682 48.1834C61.5765 47.8657 61.4327 47.5094 61.3464 47.1435L60.4069 46.1421L59.477 45.131L60.4261 46.1325L61.3751 47.1339C61.4614 47.4901 61.6052 47.8464 61.7969 48.1642C61.8928 48.3182 62.0366 48.4434 62.1996 48.5204C62.3626 48.5878 62.5543 48.6071 62.7364 48.5686C62.909 48.5301 63.072 48.4242 63.1966 48.2893C63.3116 48.1545 63.3883 47.9716 63.4075 47.7983C63.4267 47.6153 63.3787 47.4324 63.2925 47.2687L63.0528 46.768L62.8706 46.0747L62.7748 45.728C62.746 45.6125 62.7173 45.4969 62.6693 45.391C62.6214 45.2851 62.5543 45.1888 62.4776 45.0925L62.2571 44.8037L61.8257 44.2355L61.6052 43.9467C61.5285 43.8504 61.4614 43.7541 61.3847 43.6674C61.2217 43.5037 61.0013 43.3882 60.7712 43.3401C60.6561 43.3208 60.5315 43.3112 60.4165 43.3304C60.3014 43.3401 60.1864 43.3786 60.0714 43.3978L59.3715 43.5423L59.3428 43.5326Z" fill="#FF9A6C"/>
<path d="M60.2631 45.9883C60.1097 46.0557 59.9563 46.1327 59.803 46.1905C59.64 46.2482 59.477 46.2771 59.3044 46.2964C59.1319 46.2964 58.9689 46.306 58.7964 46.306C58.6238 46.306 58.4608 46.306 58.2883 46.306C58.4512 46.2868 58.6238 46.2771 58.7964 46.2675C58.9593 46.2579 59.1319 46.2579 59.2949 46.2386C59.4578 46.229 59.6208 46.1905 59.7838 46.1423C59.8605 46.1231 59.9372 46.0845 60.0234 46.0557C60.1001 46.0268 60.1864 45.9979 60.2631 45.969V45.9883Z" fill="#FF9A6C"/>
<path d="M61.6244 41.1639L62.0174 41.058C62.1517 41.0195 62.2763 40.9809 62.4201 40.9809C62.6885 40.9617 62.9665 41.0387 63.1966 41.1928C63.3116 41.2698 63.4171 41.3565 63.5034 41.472C63.5896 41.5779 63.6567 41.7031 63.7143 41.8283L64.0786 42.5601L64.4429 43.2919C64.5004 43.4171 64.5675 43.5326 64.6154 43.6578C64.6633 43.783 64.7017 43.9178 64.7305 44.0526C64.7592 44.1874 64.7688 44.3222 64.7688 44.4666V44.871V45.6895L64.9126 46.1806L64.9797 46.4309C64.9989 46.5176 65.0276 46.5946 65.0372 46.6813C65.0564 46.8546 65.0372 47.0376 64.9509 47.1916C64.8743 47.3457 64.7496 47.4805 64.6058 47.5768C64.462 47.6731 64.2895 47.7308 64.1169 47.7308C63.9443 47.7308 63.7622 47.6827 63.6184 47.5864C63.4746 47.4901 63.3596 47.3457 63.2733 47.2013C63.1774 47.0568 63.1103 46.8931 63.0432 46.7391C63.1103 46.9028 63.187 47.0568 63.2829 47.2013C63.3787 47.3457 63.4842 47.4805 63.6376 47.5768C63.7814 47.6731 63.9539 47.7116 64.1265 47.7116C64.2991 47.7116 64.462 47.6538 64.6058 47.5575C64.7496 47.4612 64.8647 47.3361 64.9414 47.182C65.0181 47.0279 65.0372 46.8546 65.0181 46.6909C65.0181 46.6043 64.9797 46.5272 64.9605 46.4406L64.8838 46.1902L64.74 45.6895V44.871C64.74 44.6014 64.7496 44.3222 64.7017 44.0622C64.6729 43.9274 64.6442 43.8022 64.5867 43.677C64.5387 43.5519 64.4716 43.4363 64.4141 43.3111L64.0498 42.5793L63.6855 41.8475C63.628 41.7224 63.5609 41.6068 63.4842 41.5009C63.3979 41.395 63.302 41.3083 63.187 41.2313C62.9665 41.0772 62.6885 41.0098 62.4201 41.0195C62.2859 41.0195 62.1517 41.058 62.0174 41.0869L61.6244 41.1831V41.1639Z" fill="#FF9A6C"/>
<path d="M61.6244 43.0417C61.8257 43.3306 62.027 43.6195 62.2188 43.918C62.4105 44.2165 62.6118 44.5054 62.794 44.8038V44.8135C62.8515 45.3431 62.909 45.8727 62.9473 46.4023C62.8706 45.8727 62.8035 45.3431 62.746 44.8135C62.5543 44.5342 62.3626 44.2357 62.1708 43.9372C61.9791 43.6387 61.797 43.3402 61.6148 43.0417H61.6244Z" fill="#FF9A6C"/>
<path d="M65.4111 43.4076C65.1906 43.3883 65.0085 43.2535 64.8551 43.0994C64.7113 42.9454 64.5963 42.7528 64.5004 42.5602C64.4525 42.4639 64.4141 42.358 64.3758 42.2617C64.347 42.1558 64.3087 42.0595 64.2799 41.9536C64.2511 41.8477 64.2224 41.7418 64.2032 41.6358L64.1457 41.3181C63.6664 40.8944 63.1966 40.4611 62.7269 40.0085C63.2158 40.4322 63.6951 40.8655 64.1744 41.2988V41.3085L64.232 41.6262C64.2511 41.7321 64.2799 41.838 64.3087 41.9343C64.3374 42.0403 64.3662 42.1365 64.4045 42.2425C64.4429 42.3388 64.4812 42.4447 64.5196 42.541C64.6058 42.7335 64.7209 42.9165 64.8551 43.0802C64.9989 43.2342 65.1715 43.3787 65.3919 43.3979L65.4111 43.4076Z" fill="#FF9A6C"/>
<path d="M61.9312 38.8436L62.1229 38.5355C62.1804 38.4296 62.2571 38.3333 62.3434 38.2466C62.5256 38.0829 62.7556 37.977 63.0049 37.9578C63.1295 37.9578 63.2541 37.9578 63.3692 37.9963C63.4842 38.0252 63.5993 38.0829 63.7047 38.1311C63.9252 38.2274 64.1361 38.3333 64.3566 38.4392C64.1361 38.3526 63.9156 38.2563 63.6951 38.16C63.5801 38.1118 63.4746 38.0637 63.3596 38.0348C63.2446 38.0059 63.1295 37.9963 63.0145 38.0059C62.7844 38.0252 62.5543 38.1215 62.3722 38.2755C62.2859 38.3526 62.2092 38.4488 62.1421 38.5451L61.9312 38.8436Z" fill="#FF9A6C"/>
<path d="M66.0918 47.8946C65.6508 48.2413 65.2098 48.5783 64.7592 48.9153C64.3087 49.2427 63.906 49.6375 63.5801 50.09C63.4171 50.3115 63.2637 50.5522 63.1295 50.793C62.9953 51.0433 62.8898 51.2937 62.794 51.5537C62.6981 51.8136 62.631 52.0832 62.5735 52.3625C62.516 52.6321 62.4872 52.9113 62.4393 53.1906C62.4776 52.9113 62.5064 52.6321 62.5543 52.3529C62.6022 52.0736 62.6694 51.804 62.7652 51.5344C62.8611 51.2648 62.9665 51.0144 63.1007 50.7641C63.235 50.5137 63.3883 50.2826 63.5513 50.0515C63.8869 49.599 64.2991 49.2042 64.7496 48.8768C65.2002 48.5398 65.6508 48.2124 66.1014 47.885L66.0918 47.8946Z" fill="#FF9A6C"/>
<path d="M61.6915 52.3434L61.5573 51.6501C61.5094 51.419 61.471 51.1879 61.4231 50.9568C61.3176 50.5042 61.1642 50.0517 60.9725 49.628C60.8767 49.4162 60.7712 49.2043 60.6562 49.0021L60.2919 48.3955C60.0522 47.9911 59.8125 47.5867 59.5825 47.1726C59.8317 47.5674 60.081 47.9718 60.3302 48.3762C60.5699 48.7806 60.8287 49.1754 61.0205 49.6087C61.2122 50.042 61.3656 50.4946 61.4614 50.9568C61.5573 51.419 61.6148 51.8908 61.6915 52.353V52.3434Z" fill="#FF9A6C"/>
<path d="M117.198 97.2336L119.614 100.093C120.055 100.623 120.553 101.104 121.1 101.528L123.142 103.127L111.753 106.68L104.381 109.954L102.598 111.562C102.195 111.927 101.706 112.187 101.188 112.332L98.5712 113.035L96.3662 114.498C95.5514 115.038 94.4873 114.287 94.7365 113.353C94.9954 112.39 96.0403 111.244 99.0601 110.348L100.929 106.988C101.284 106.352 101.783 105.794 102.377 105.37L103.585 104.523L104.879 101.364L108.11 101.567L117.208 97.2529L117.198 97.2336Z" fill="#FFC89F"/>
<path d="M47.285 19.4779C45.3909 13.1815 38.7765 9.61814 32.5078 11.5206C26.2392 13.4382 22.6915 20.1422 24.6307 26.4385C25.8935 30.5153 29.1405 33.4294 32.9889 34.426C34.7026 34.8789 36.0706 36.1926 36.5817 37.9139L37.2431 40.1485L44.3085 38.0045L43.6471 35.7698C43.136 34.0485 43.5418 32.1913 44.7444 30.8626C47.4203 27.873 48.5177 23.5999 47.2699 19.4779H47.285Z" fill="#F9A21B"/>
<path d="M40.9111 36.1019C40.881 36.1019 40.8359 36.1019 40.8209 36.0566C40.8209 36.0264 39.3928 32.7348 38.4608 29.0204C38.2654 28.2504 38.115 27.5105 37.9948 26.816C37.4536 26.9669 36.8974 27.133 36.3562 27.3142C36.6418 27.9635 36.9124 28.6731 37.183 29.413C38.4608 33.0217 39.0922 36.5549 39.0922 36.5851C39.0922 36.6304 39.0771 36.6606 39.032 36.6757C38.9869 36.6757 38.9569 36.6606 38.9418 36.6153C38.9418 36.5851 38.3104 33.067 37.0327 29.4583C36.7621 28.7033 36.4915 28.0088 36.2059 27.3595C33.4549 28.1749 31.2 26.8311 29.9823 25.2607C29.5314 24.6719 29.2006 24.0226 29.0503 23.4338C28.9 22.8147 28.9301 22.2862 29.1706 21.9087C29.3961 21.5313 29.9372 21.1387 31.1399 21.3803C32.4026 21.637 33.6052 22.6033 34.7176 24.2491C35.2739 25.0645 35.8 26.0459 36.2961 27.1783C36.8373 26.9971 37.3935 26.8311 37.9346 26.6801C37.7242 25.457 37.634 24.3397 37.634 23.3583C37.649 21.3652 38.1301 19.9006 39.032 18.9946C39.9039 18.1189 40.5654 18.1642 40.9562 18.3454C41.3621 18.5265 41.6928 18.9493 41.9033 19.5533C42.0987 20.1271 42.1889 20.8669 42.1288 21.6068C41.9784 23.5696 40.8359 25.9553 38.1 26.8009C38.2203 27.4954 38.3856 28.2353 38.566 29.0204C39.483 32.7348 40.8961 35.9962 40.9111 36.0415C40.9261 36.0868 40.9111 36.117 40.866 36.1472L40.9111 36.1019ZM40.1745 18.4058C39.8588 18.4963 39.5281 18.7228 39.1823 19.0701C38.2954 19.961 37.8444 21.3954 37.8294 23.3432C37.8294 24.3095 37.9196 25.4117 38.115 26.6197C40.7608 25.7892 41.8732 23.4791 42.0235 21.5615C42.1438 20.0818 41.6928 18.7983 40.9412 18.4511C40.7006 18.3454 40.4451 18.3303 40.1745 18.4058ZM29.9372 21.5011C29.6667 21.5766 29.4562 21.7427 29.3209 21.9691C28.885 22.6788 29.2157 23.9924 30.1327 25.1551C31.3052 26.665 33.5 27.9786 36.1758 27.1934C35.6797 26.0761 35.1536 25.0947 34.6124 24.2944C33.5301 22.6788 32.3575 21.7427 31.1399 21.486C30.6588 21.3954 30.268 21.3954 29.9523 21.486L29.9372 21.5011Z" fill="white"/>
<path d="M44.0079 35.0752L45.2255 39.1369C45.3007 39.3633 45.3458 39.5898 45.3758 39.8163C45.6464 41.8396 44.4137 43.8176 42.3994 44.4215C40.385 45.0255 38.2804 44.0592 37.3784 42.2322C37.2732 42.0208 37.1981 41.8094 37.1229 41.5829L35.9052 37.5212L44.0079 35.0752Z" fill="white"/>
<path d="M44.4889 36.4643L36.266 38.9557C36.0556 39.0161 35.8301 38.8953 35.7699 38.6839C35.7098 38.4725 35.8301 38.246 36.0405 38.1856L44.2634 35.6943C44.4739 35.6339 44.6993 35.7547 44.7595 35.966C44.8196 36.1774 44.6993 36.4039 44.4889 36.4643Z" fill="#1F4168"/>
<path d="M44.8948 37.8232L36.6719 40.3146C36.4614 40.3749 36.2359 40.2542 36.1758 40.0428C36.1157 39.8314 36.236 39.6049 36.4464 39.5445L44.6693 37.0531C44.8797 36.9927 45.1052 37.1135 45.1654 37.3249C45.2255 37.5363 45.1052 37.7628 44.8948 37.8232Z" fill="#1F4168"/>
<path d="M45.3007 39.1972L37.0778 41.6886C36.8673 41.749 36.6418 41.6282 36.5817 41.4168C36.5216 41.2054 36.6418 40.9789 36.8523 40.9185L45.0752 38.4272C45.2856 38.3668 45.5111 38.4876 45.5712 38.699C45.6314 38.9103 45.5111 39.1368 45.3007 39.1972Z" fill="#1F4168"/>
<path d="M45.3758 39.8315C45.6464 41.8548 44.4137 43.8328 42.3994 44.4368C40.385 45.0407 38.2804 44.0744 37.3784 42.2474L45.3758 39.8315Z" fill="#1F4168"/>
<path d="M49.2994 30.2134C49.8857 30.5154 50.4569 30.8173 51.0432 31.1193L52.7719 32.0404L54.5007 32.9765C55.0719 33.2936 55.6432 33.6107 56.2144 33.9278C55.6281 33.6258 55.0569 33.3238 54.4706 33.0218L52.7419 32.1008L51.0131 31.1646C50.4419 30.8475 49.8706 30.5305 49.2994 30.2134Z" fill="#1F4168"/>
<path d="M50.4418 18.6626C51.0582 18.4663 51.6895 18.2549 52.3059 18.0737L54.185 17.4999L56.0641 16.9413C56.6954 16.7601 57.3268 16.5789 57.9582 16.3977C57.3418 16.594 56.7105 16.8054 56.0941 16.9866L54.215 17.5603L52.3359 18.119C51.7046 18.3002 51.0732 18.4814 50.4418 18.6626Z" fill="#1F4168"/>
<path d="M43.136 9.66336C43.4366 9.0745 43.7373 8.50073 44.0379 7.91187L44.9549 6.17547L45.8869 4.43907C46.2026 3.86531 46.5183 3.29154 46.834 2.71777C46.5333 3.30664 46.2327 3.8804 45.932 4.46927L45.015 6.20567L44.083 7.94206C43.7673 8.51583 43.4516 9.0896 43.136 9.66336Z" fill="#1F4168"/>
<path d="M31.3353 7.54955C31.1399 6.93049 30.9294 6.29633 30.749 5.67726L30.1778 3.78988L29.6216 1.90249C29.4412 1.26832 29.2608 0.634162 29.0804 0C29.2758 0.619063 29.4863 1.25323 29.6667 1.87229L30.2379 3.75968L30.7941 5.64707C30.9745 6.28123 31.1549 6.91539 31.3353 7.54955Z" fill="#1F4168"/>
<path d="M22.6615 15.854C22.0752 15.552 21.5039 15.2501 20.9177 14.9481L19.1889 14.027L17.4602 13.0909C16.8889 12.7738 16.3177 12.4567 15.7464 12.1396C16.3327 12.4416 16.9039 12.7436 17.4902 13.0456L19.219 13.9666L20.9477 14.9028C21.519 15.2199 22.0902 15.5369 22.6615 15.854Z" fill="#1F4168"/>
<path d="M21.519 27.4199C20.9026 27.6162 20.2713 27.8276 19.6549 28.0088L17.7758 28.5826L15.8967 29.1412C15.2654 29.3224 14.634 29.5036 14.0026 29.6848C14.619 29.4885 15.2503 29.2771 15.8667 29.0959L17.7458 28.5222L19.6248 27.9635C20.2562 27.7823 20.8876 27.6011 21.519 27.4199Z" fill="#1F4168"/>
<path d="M28.8248 36.4041C28.5242 36.9929 28.2235 37.5667 27.9229 38.1555L27.0059 39.8919L26.0739 41.6283C25.7582 42.2021 25.4425 42.7759 25.1268 43.3496C25.4275 42.7608 25.7281 42.187 26.0288 41.5981L26.9458 39.8617L27.8778 38.1253C28.1935 37.5516 28.5092 36.9778 28.8248 36.4041Z" fill="#1F4168"/>
</svg>
