<svg width="321" height="146" viewBox="0 0 321 146" fill="none" xmlns="http://www.w3.org/2000/svg">
<g clip-path="url(#clip0_3037_1807)">
<path d="M320.2 -55.3L318.6 -45.4C316.5 -32.9 285 19.7 239 46.6C225 54.8 220.5 63.2 213.7 75.8C204.6 92.7 193.4 113.7 158.1 134.6C145.9 141.8 133.6 145.5 121.4 145.5C109.2 145.5 103.6 143.5 95.1 139.5C66.3 126.1 41.8 89.7 22.4 31.3C8.7 -9.79998 2.4 -46.9 2.2 -48.4L0.5 -58.3" stroke="url(#paint0_linear_3037_1807)" stroke-miterlimit="10"/>
<path d="M39.9 -65L41.6 -55.1C45.1 -34.4 53.5 1.1 65.5 33.2C79.8 71.1 96.2 95.9 111.9 103.1C115.1 104.6 118.1 105.3 121.4 105.3C126.4 105.3 131.7 103.6 137.7 100C163.4 84.8 170.7 71.1 178.5 56.7C186.3 42.2 195.1 25.8 218.8 11.9C252.4 -7.8 277.2 -47.7 279.7 -54.3" stroke="url(#paint1_linear_3037_1807)" stroke-miterlimit="10"/>
<path d="M308.7 -47.1C307.1 -37.3 276.6 12.9 233.9 37.9C217.4 47.5 211.9 57.9 204.8 71C195.9 87.6 185.8 106.4 152.9 125.9C142.2 132.2 131.7 135.4 121.3 135.4C110.9 135.4 106.4 133.7 99.2 130.4C73 118.2 50.3 83.8 31.8 28.1C18.5 -12.2 12.3 -48.5 12 -50.1" stroke="url(#paint2_linear_3037_1807)" stroke-miterlimit="10"/>
<path d="M31.7 -53.4C38.3 -14.1 64.9 92.4 107.7 112.2C118.7 117.3 130.1 116.1 142.8 108.7C170.9 92.1 179.2 76.5 187.3 61.5C194.8 47.5 202.6 33.1 223.9 20.6C261.5 -1.40002 287.3 -45 289.2 -51.1C289.2 -50.8 289.1 -50.6 289.1 -50.4" stroke="url(#paint3_linear_3037_1807)" stroke-miterlimit="10"/>
<path d="M21.9 -51.7C21.9 -51.7 59.2 169.9 147.9 117.3C204.4 83.8 187.9 53.3 228.9 29.3C269.9 5.29999 297.9 -42.7 298.9 -48.7" stroke="url(#paint4_linear_3037_1807)" stroke-miterlimit="10"/>
</g>
<defs>
<linearGradient id="paint0_linear_3037_1807" x1="202.2" y1="-123.7" x2="61.1" y2="120.7" gradientUnits="userSpaceOnUse">
<stop stop-color="#E3D8D2"/>
<stop offset="1" stop-color="#D4B7D7"/>
</linearGradient>
<linearGradient id="paint1_linear_3037_1807" x1="187.7" y1="-107.5" x2="77.2" y2="83.8" gradientUnits="userSpaceOnUse">
<stop stop-color="#E3D8D2"/>
<stop offset="1" stop-color="#D4B7D7"/>
</linearGradient>
<linearGradient id="paint2_linear_3037_1807" x1="197.6" y1="-111.5" x2="67.9" y2="113.1" gradientUnits="userSpaceOnUse">
<stop stop-color="#E3D8D2"/>
<stop offset="1" stop-color="#D4B7D7"/>
</linearGradient>
<linearGradient id="paint3_linear_3037_1807" x1="192.4" y1="-107" x2="76" y2="94.6" gradientUnits="userSpaceOnUse">
<stop stop-color="#E3D8D2"/>
<stop offset="1" stop-color="#D4B7D7"/>
</linearGradient>
<linearGradient id="paint4_linear_3037_1807" x1="194.9" y1="-109" x2="72" y2="103.9" gradientUnits="userSpaceOnUse">
<stop stop-color="#E3D8D2"/>
<stop offset="1" stop-color="#D4B7D7"/>
</linearGradient>
<clipPath id="clip0_3037_1807">
<rect width="320.7" height="210.9" fill="white" transform="translate(0 -65)"/>
</clipPath>
</defs>
</svg>
