<svg width="341" height="200" viewBox="0 0 341 200" fill="none" xmlns="http://www.w3.org/2000/svg">
<g clip-path="url(#clip0_6034_7057)">
<path d="M341 0H0V200H341V0Z" fill="#F9F9FB"/>
<path d="M169.022 184.762C174.787 177.173 184.683 174.116 193.602 177.171C194.033 177.316 194.471 177.455 194.915 177.58C208.456 181.407 222.583 173.402 226.468 159.7C227.359 156.558 227.628 153.389 227.359 150.326C226.407 139.426 233.478 129.4 244.01 126.718L244.005 126.715C256.441 123.538 266.942 113.933 270.728 100.584C276.356 80.7401 265.021 60.1619 245.411 54.6201C241.547 53.5291 237.653 53.111 233.843 53.2819C223.052 53.7473 213.579 46.2237 211.509 35.5328V35.5364C208.923 22.251 199.235 10.9146 185.444 7.01823C165.834 1.47641 145.372 13.0691 139.744 32.9128C136.987 42.6346 138.308 52.5291 142.673 60.751L142.657 60.7382C151.349 77.1328 138.742 96.8928 120.343 95.8C108.524 94.9691 97.2962 102.593 93.8976 114.573C90.2137 127.558 97.0563 140.993 109.307 145.62L109.302 145.624C118.295 149.033 123.998 157.976 123.369 167.682C122.591 179.525 130.033 190.667 141.784 193.987C152.135 196.913 162.821 192.92 169.022 184.76V184.762Z" fill="#F1F2F5"/>
<path d="M188.706 120.669C188.612 120.649 188.522 120.607 188.444 120.538C188.2 120.328 188.172 119.958 188.384 119.716C188.866 119.159 189.326 118.571 189.752 117.969C189.938 117.707 190.302 117.644 190.564 117.83C190.826 118.016 190.89 118.381 190.703 118.643C190.256 119.276 189.771 119.893 189.265 120.479C189.121 120.644 188.905 120.71 188.704 120.669L188.706 120.669Z" fill="white"/>
<path d="M191.243 117.109C191.184 117.097 191.124 117.075 191.07 117.042C190.791 116.88 190.697 116.522 190.859 116.244C193.161 112.281 194.212 107.786 193.899 103.247C193.877 102.925 194.119 102.647 194.441 102.625C194.763 102.602 195.041 102.844 195.063 103.166C195.392 107.939 194.288 112.662 191.868 116.829C191.738 117.053 191.484 117.158 191.245 117.108L191.243 117.109Z" fill="white"/>
<path d="M148.124 93.4955C148.026 93.4955 147.928 93.4718 147.837 93.4191C147.557 93.2609 147.459 92.9045 147.617 92.6245C147.91 92.1082 148.226 91.5991 148.555 91.1064C148.735 90.8391 149.096 90.7664 149.364 90.9464C149.631 91.1264 149.702 91.4882 149.523 91.7554C149.211 92.2227 148.909 92.7082 148.631 93.1991C148.524 93.3882 148.326 93.4936 148.124 93.4936V93.4955Z" fill="white"/>
<path d="M145.347 108.685C145.065 108.685 144.816 108.479 144.771 108.192C144.017 103.388 144.733 98.5209 146.837 94.1154C146.977 93.8245 147.324 93.7009 147.615 93.8409C147.906 93.9791 148.028 94.3282 147.89 94.6191C145.885 98.8118 145.205 103.443 145.923 108.01C145.972 108.328 145.756 108.626 145.438 108.677C145.407 108.683 145.376 108.685 145.347 108.685Z" fill="white"/>
<path d="M147.684 105.363C147.366 105.363 147.106 105.106 147.101 104.788C147.057 101.584 147.748 98.3554 149.102 95.4463C149.238 95.1535 149.585 95.0281 149.876 95.1644C150.169 95.3008 150.294 95.6481 150.158 95.939C148.878 98.6899 148.224 101.743 148.266 104.772C148.27 105.094 148.013 105.359 147.692 105.363H147.683H147.684Z" fill="white"/>
<path d="M183.833 121.714C183.703 121.687 183.581 121.615 183.493 121.502C183.295 121.249 183.34 120.882 183.593 120.684C186.942 118.064 189.425 114.356 190.583 110.24C190.67 109.929 190.988 109.749 191.302 109.836C191.613 109.923 191.792 110.247 191.706 110.555C190.481 114.908 187.854 118.831 184.311 121.602C184.171 121.712 183.995 121.748 183.833 121.714Z" fill="white"/>
<path d="M206.393 170.142H123.523C121.692 170.142 120.208 171.627 120.208 173.458V188.333C120.208 190.164 121.692 191.649 123.523 191.649H206.393C208.224 191.649 209.708 190.164 209.708 188.333V173.458C209.708 171.627 208.224 170.142 206.393 170.142Z" fill="#9C9EA8"/>
<path d="M215.905 89.0073C215.695 91.1618 213.777 92.7382 211.624 92.5291L130.349 84.5854C128.195 84.3745 126.62 82.4563 126.829 80.3018L128.157 66.7018C128.368 64.5473 130.285 62.9709 132.439 63.18L213.714 71.1236C215.867 71.3345 217.443 73.2527 217.234 75.4073L215.905 89.0073Z" fill="#9C9EA8"/>
<path d="M217.032 23.3055C217.45 25.4309 216.069 27.4927 213.944 27.9109L133.826 43.7164C131.701 44.1346 129.64 42.7528 129.222 40.6273L126.58 27.2218C126.162 25.0964 127.543 23.0346 129.668 22.6164L209.786 6.81094C211.911 6.39276 213.972 7.77457 214.39 9.90003L217.032 23.3055Z" fill="#9C9EA8"/>
<path d="M209.944 123.19L128.379 127.124C126.216 127.228 124.548 129.066 124.652 131.23L125.31 144.878C125.414 147.041 127.252 148.71 129.414 148.606L210.979 144.672C213.142 144.568 214.81 142.73 214.706 140.566L214.048 126.918C213.944 124.755 212.106 123.086 209.944 123.19Z" fill="#9C9EA8"/>
<path d="M142.807 152.564V166.224C142.807 166.451 142.789 166.66 142.738 166.869C142.686 167.322 142.529 167.742 142.319 168.126C141.639 169.329 140.349 170.149 138.884 170.149H124.13C121.967 170.149 120.206 168.387 120.206 166.224V152.564C120.206 152.442 120.206 152.32 120.224 152.198C120.415 150.193 122.091 148.64 124.13 148.64H138.884C141.046 148.64 142.807 150.386 142.807 152.566V152.564Z" fill="#888A95"/>
<path d="M147.436 43.9507L143.944 57.1604C143.391 59.2544 144.639 61.4007 146.732 61.9544L161.001 65.7286C163.094 66.2823 165.24 65.0336 165.793 62.9396L169.284 49.7299C169.838 47.6359 168.589 45.4895 166.496 44.9359L152.228 41.1616C150.134 40.608 147.989 41.8566 147.436 43.9507Z" fill="#888A95"/>
<g style="mix-blend-mode:multiply" opacity="0.3">
<path d="M162.076 62.3L147.404 58.4201C145.815 58.0001 144.707 56.6855 144.46 55.1619L143.934 57.1473C143.38 59.2401 144.629 61.3873 146.722 61.9401L160.992 65.7146C163.086 66.2673 165.231 65.0201 165.783 62.9255L166.35 60.7746C165.4 62.0764 163.724 62.7364 162.072 62.3H162.076Z" fill="#888A95"/>
</g>
<path d="M204.617 43.0846L192.104 50.9156C190.269 52.0644 189.712 54.4842 190.86 56.3204L198.103 67.904C199.252 69.7403 201.67 70.2976 203.506 69.1489L216.018 61.3178C217.854 60.1691 218.411 57.7492 217.263 55.913L210.019 44.3294C208.871 42.4931 206.452 41.9358 204.617 43.0846Z" fill="#888A95"/>
<g style="mix-blend-mode:multiply" opacity="0.3">
<path d="M201.11 66.1165L193.737 54.3237C192.817 52.8528 192.986 51.0237 194.004 49.7383L192.103 50.9292C190.267 52.0783 189.709 54.4965 190.858 56.3328L198.102 67.9183C199.251 69.7546 201.668 70.311 203.503 69.1637L205.69 67.7965C203.998 68.331 202.097 67.6946 201.112 66.1201L201.11 66.1165Z" fill="#888A95"/>
</g>
<path d="M210.448 144.773L196.502 149.607C194.457 150.316 193.373 152.55 194.082 154.597L198.553 167.507C199.262 169.554 201.495 170.638 203.54 169.929L217.486 165.095C219.532 164.386 220.616 162.152 219.907 160.106L215.436 147.195C214.727 145.148 212.494 144.064 210.448 144.773Z" fill="#888A95"/>
<g style="mix-blend-mode:multiply" opacity="0.3">
<path d="M219.895 160.124L219.106 157.846C219.148 159.546 218.119 161.153 216.427 161.738L202.148 166.688C200.59 167.228 198.927 166.749 197.879 165.606L198.542 167.522C199.251 169.568 201.482 170.653 203.529 169.944L217.476 165.109C219.52 164.4 220.605 162.168 219.896 160.12L219.895 160.124Z" fill="#888A95"/>
</g>
<path d="M102.634 40.8948C101.163 40.8911 99.8293 41.4729 98.8516 42.4166C97.2977 43.9129 94.9387 43.5566 93.6883 41.8638C93.0577 41.0093 92.9995 39.9166 92.3398 39.0784C91.6346 38.1838 90.5406 37.6493 89.4011 37.6475C88.307 37.6438 87.2511 38.1311 86.5405 38.962C85.4591 40.2293 85.848 41.962 84.2687 42.9275C82.9529 43.7329 81.2336 43.5493 80.1232 42.482C79.1581 41.5511 77.846 40.9784 76.4011 40.982C75.3561 40.9838 74.382 41.2893 73.5605 41.8093C72.8081 42.2438 72.1811 42.8729 71.7504 43.6275C71.0416 44.8729 69.5295 45.4166 68.1901 44.9038C67.8139 44.7602 67.405 44.6802 66.9779 44.682C65.7657 44.6857 64.7061 45.3275 64.1136 46.2893H108.049C108.029 43.3129 105.614 40.9002 102.632 40.8929L102.634 40.8948Z" fill="#DDDEE4"/>
<path d="M151.584 176.018H146.324V181.28H151.584V176.018Z" fill="#B1B3BC"/>
<path d="M205.25 177.429H197.759V184.924H205.25V177.429Z" fill="#B1B3BC"/>
<path d="M190.38 184.065H185.246V189.202H190.38V184.065Z" fill="#B1B3BC"/>
<path d="M144.781 181.067H139.647V186.204H144.781V181.067Z" fill="#B1B3BC"/>
<path d="M187.252 173.598H182.945V177.907H187.252V173.598Z" fill="#B1B3BC"/>
<path d="M131.641 180.351H127.334V184.66H131.641V180.351Z" fill="#B1B3BC"/>
<path d="M167.242 183.151H163.657V186.738H167.242V183.151Z" fill="#B1B3BC"/>
<path d="M177.367 178.756H174.765V181.36H177.367V178.756Z" fill="#B1B3BC"/>
<path d="M162.632 185.831H160.029V188.435H162.632V185.831Z" fill="#B1B3BC"/>
<path d="M161.341 175.096H158.739V177.7H161.341V175.096Z" fill="#B1B3BC"/>
<path d="M135.507 172.255H132.904V174.858H135.507V172.255Z" fill="#B1B3BC"/>
<path d="M130.614 134.675C131.792 134.675 132.746 133.72 132.746 132.542C132.746 131.364 131.792 130.409 130.614 130.409C129.437 130.409 128.483 131.364 128.483 132.542C128.483 133.72 129.437 134.675 130.614 134.675Z" fill="#B1B3BC"/>
<path d="M187.167 140.151C188.344 140.151 189.298 139.196 189.298 138.018C189.298 136.84 188.344 135.885 187.167 135.885C185.989 135.885 185.035 136.84 185.035 138.018C185.035 139.196 185.989 140.151 187.167 140.151Z" fill="#B1B3BC"/>
<path d="M155.083 133.065C155.353 131.918 154.644 130.769 153.498 130.499C152.352 130.228 151.204 130.938 150.933 132.085C150.663 133.231 151.373 134.38 152.518 134.65C153.664 134.921 154.812 134.211 155.083 133.065Z" fill="#B1B3BC"/>
<path d="M142.927 140.423C143.614 140.137 143.94 139.347 143.653 138.659C143.367 137.971 142.577 137.646 141.89 137.933C141.202 138.219 140.877 139.009 141.163 139.697C141.45 140.384 142.239 140.71 142.927 140.423Z" fill="#B1B3BC"/>
<path d="M175.484 133.45C176.172 133.165 176.498 132.375 176.213 131.687C175.928 130.999 175.14 130.672 174.451 130.957C173.763 131.242 173.437 132.031 173.722 132.72C174.007 133.408 174.795 133.735 175.484 133.45Z" fill="#B1B3BC"/>
<path d="M153.723 144.718C155.976 144.718 157.803 142.891 157.803 140.636C157.803 138.382 155.976 136.555 153.723 136.555C151.469 136.555 149.643 138.382 149.643 140.636C149.643 142.891 151.469 144.718 153.723 144.718Z" fill="#B1B3BC"/>
<path d="M206.584 133.164C206.945 130.939 205.435 128.842 203.211 128.481C200.986 128.12 198.891 129.631 198.529 131.856C198.168 134.081 199.679 136.178 201.903 136.539C204.127 136.9 206.223 135.389 206.584 133.164Z" fill="#B1B3BC"/>
<path d="M169.549 138.127C171.126 138.127 172.404 136.848 172.404 135.271C172.404 133.693 171.126 132.415 169.549 132.415C167.972 132.415 166.694 133.693 166.694 135.271C166.694 136.848 167.972 138.127 169.549 138.127Z" fill="#B1B3BC"/>
<g style="mix-blend-mode:multiply" opacity="0.3">
<path d="M211.569 139.989L128.279 144.002C127.067 144.06 125.967 143.56 125.193 142.744L125.297 144.886C125.402 147.049 127.238 148.718 129.4 148.613L210.967 144.682C213.13 144.578 214.799 142.74 214.693 140.577L214.586 138.351C213.895 139.287 212.821 139.927 211.571 139.987L211.569 139.989Z" fill="#888A95"/>
</g>
<g style="mix-blend-mode:multiply" opacity="0.3">
<path d="M205.788 187.384H124.126C121.962 187.384 120.206 185.627 120.206 183.462V187.727C120.206 189.893 121.962 191.649 124.126 191.649H205.788C207.952 191.649 209.708 189.893 209.708 187.727V183.462C209.708 185.627 207.952 187.384 205.788 187.384Z" fill="#888A95"/>
</g>
<g style="mix-blend-mode:multiply" opacity="0.3">
<path d="M138.887 166.653H124.126C121.962 166.653 120.206 164.896 120.206 162.731V166.22C120.206 168.386 121.962 170.142 124.126 170.142H138.887C141.052 170.142 142.807 168.386 142.807 166.22V162.731C142.807 164.896 141.052 166.653 138.887 166.653Z" fill="#888A95"/>
</g>
<path d="M134.673 26.28L132.27 26.6909L131.425 28.9764L132.983 30.8528L135.383 30.4419L136.23 28.1564L134.673 26.28Z" fill="#B1B3BC"/>
<path d="M201.74 19.9382L199.692 20.2892L198.971 22.2401L200.297 23.8401L202.347 23.4891L203.069 21.5382L201.74 19.9382Z" fill="#B1B3BC"/>
<path d="M183.177 15.5527L180.775 15.9636L179.93 18.2509L181.485 20.1273L183.888 19.7164L184.733 17.4291L183.177 15.5527Z" fill="#B1B3BC"/>
<path d="M154.501 28.542L152.098 28.9529L151.253 31.2383L152.81 33.1147L155.211 32.7038L156.058 30.4165L154.501 28.542Z" fill="#B1B3BC"/>
<path d="M158.837 21.6218L157.419 21.8636L156.92 23.2146L157.839 24.3218L159.257 24.0782L159.757 22.7291L158.837 21.6218Z" fill="#B1B3BC"/>
<path d="M209.021 11.3474L207.603 11.5911L207.104 12.9401L208.023 14.0474L209.441 13.8056L209.94 12.4547L209.021 11.3474Z" fill="#B1B3BC"/>
<path d="M166.595 26.76L165.56 26.9364L165.194 27.9218L165.867 28.7309L166.903 28.5546L167.266 27.5673L166.595 26.76Z" fill="#B1B3BC"/>
<path d="M177.438 20.6528L176.021 20.8946L175.521 22.2455L176.44 23.3528L177.858 23.1092L178.358 21.7601L177.438 20.6528Z" fill="#B1B3BC"/>
<path d="M143.778 26.8164L139.494 27.5491L137.986 31.6273L140.763 34.9728L145.046 34.24L146.555 30.1618L143.778 26.8164Z" fill="#B1B3BC"/>
<path d="M195.797 15.7329L191.828 16.4129L190.431 20.1911L193.002 23.2911L196.972 22.6111L198.369 18.8329L195.797 15.7329Z" fill="#B1B3BC"/>
<path d="M191.005 24.6182L187.772 25.1709L186.634 28.2473L188.73 30.7709L191.963 30.2182L193.1 27.1418L191.005 24.6182Z" fill="#B1B3BC"/>
<path d="M170.494 19.1492L167.088 19.731L165.888 22.9728L168.097 25.6328L171.502 25.051L172.7 21.8092L170.494 19.1492Z" fill="#B1B3BC"/>
<path d="M136.663 72.8584L132.744 78.2457L139.367 78.9475L136.663 72.8584Z" fill="#B1B3BC"/>
<path d="M180.517 71.0491L176.599 76.4363L183.221 77.1382L180.517 71.0491Z" fill="#B1B3BC"/>
<path d="M187.897 78.8855L185.849 81.7019L189.311 82.0673L187.897 78.8855Z" fill="#B1B3BC"/>
<path d="M168.649 79.4255L164.298 85.4074L171.653 86.1873L168.649 79.4255Z" fill="#B1B3BC"/>
<path d="M145.134 72.8092L147.807 69.042L143.209 68.6074L145.134 72.8092Z" fill="#B1B3BC"/>
<path d="M155.586 82.751L158.259 78.9838L153.661 78.551L155.586 82.751Z" fill="#B1B3BC"/>
<path d="M206.313 85.6001L208.986 81.8329L204.388 81.4001L206.313 85.6001Z" fill="#B1B3BC"/>
<path d="M164.48 77.4201L167.153 73.651L162.555 73.2183L164.48 77.4201Z" fill="#B1B3BC"/>
<path d="M194.923 82.5437L200.414 74.8073L190.97 73.9182L194.923 82.5437Z" fill="#B1B3BC"/>
<g style="mix-blend-mode:multiply" opacity="0.3">
<path d="M212.136 88.6764L130.62 80.7092C128.777 80.5292 127.365 79.0983 127.12 77.3401L126.831 80.3001C126.62 82.4546 128.196 84.3728 130.351 84.5837L211.624 92.5273C213.777 92.7383 215.695 91.1619 215.905 89.0055L216.185 86.1382C215.575 87.7637 213.946 88.8528 212.136 88.6746V88.6764Z" fill="#888A95"/>
</g>
<g style="mix-blend-mode:multiply" opacity="0.3">
<path d="M217.032 23.3054L216.56 20.9072C216.385 22.5854 215.158 24.029 213.417 24.3727L132.804 40.2745C131.24 40.5836 129.717 39.9145 128.844 38.6981L129.224 40.6254C129.642 42.7509 131.703 44.1327 133.828 43.7145L213.946 27.9109C216.069 27.4927 217.452 25.429 217.034 23.3054H217.032Z" fill="#888A95"/>
</g>
<path d="M233.956 68.1402C234.347 67.1002 235.246 66.3092 236.351 66.0729C237.569 65.8111 238.474 64.7874 238.583 63.5456C238.73 61.8565 240.15 60.5329 241.876 60.5383C243.468 60.542 244.795 61.6747 245.1 63.1784C245.6 65.5111 248.468 66.3911 250.187 64.7329C251.049 63.9038 252.223 63.3911 253.515 63.3947C256.137 63.402 258.262 65.522 258.278 68.1402H233.954H233.956Z" fill="#DDDEE4"/>
<path d="M277.079 52.4928C277.085 52.3892 277.088 52.2837 277.088 52.1783C277.079 48.9165 274.429 46.2783 271.169 46.2874C268.975 46.2928 267.065 47.4946 266.053 49.2746C265.197 50.7801 263.369 51.4365 261.749 50.8183C261.295 50.6437 260.801 50.5492 260.285 50.5492C258.82 50.5528 257.537 51.3292 256.821 52.4928H277.081H277.079Z" fill="#DDDEE4"/>
<g clip-path="url(#clip1_6034_7057)">
<path d="M158.706 93.672C164.75 89.9477 170.291 93.3255 172.566 95.8566C174.359 92.9639 179.218 88.6616 185.824 91.2614C194.322 94.606 193.192 104.956 187.632 111.6C184.919 114.843 180.142 120.552 176.567 123.81C176.167 124.173 175.657 124.391 175.118 124.429C174.58 124.467 174.044 124.322 173.598 124.018C169.829 121.492 163.71 116.686 160.514 114.011C153.869 108.452 150.931 98.463 158.706 93.672Z" fill="#F8312F"/>
<path d="M172.566 95.8567L172.934 99.9923C174.332 96.1986 178.178 90.9573 185.341 91.0818C178.981 88.8728 174.315 93.035 172.566 95.8567ZM166.712 92.3277C164.355 91.735 161.588 91.8949 158.706 93.6722C150.932 98.4632 153.869 108.452 160.514 114.011C163.71 116.686 169.829 121.492 173.598 124.018C174.044 124.322 174.58 124.467 175.118 124.429C175.657 124.391 176.167 124.172 176.567 123.809C176.888 123.516 177.218 123.205 177.557 122.876C173.428 120.314 167.59 116.219 164.406 113.847C157.151 108.436 154.019 98.6233 162.626 93.8212C163.896 93.1009 165.277 92.5962 166.712 92.3277Z" fill="#CA0B4A"/>
<path d="M180.456 106.409C182.389 107.308 185.185 105.393 186.699 102.134C188.214 98.8737 187.874 95.5029 185.94 94.6045C184.007 93.7061 181.211 95.6204 179.697 98.8801C178.182 102.14 178.522 105.511 180.456 106.409Z" fill="#F37366"/>
</g>
</g>
<defs>
<clipPath id="clip0_6034_7057">
<rect width="341" height="200" rx="20" fill="white"/>
</clipPath>
<clipPath id="clip1_6034_7057">
<rect width="38" height="38" fill="white" transform="translate(153.025 90.6121) rotate(-5.0798)"/>
</clipPath>
</defs>
</svg>
