<svg width="80" height="80" viewBox="0 0 80 80" fill="none" xmlns="http://www.w3.org/2000/svg">
<g clip-path="url(#clip0_6034_7981)">
<path d="M69.9638 68.3867C68.6509 67.9485 63.2952 66.1606 62.4421 67.6053C61.4861 69.2241 66.0727 75.0863 72.0963 76.4221C75.1564 77.1009 79.2549 76.7594 79.6846 75.2945C80.2356 73.4153 74.6721 69.9583 69.9641 68.3867H69.9638Z" fill="#7C356F"/>
<path d="M58.3697 7.03942C58.1353 5.09868 57.7785 2.14456 55.5265 1.13008C53.4148 0.178772 50.3016 1.2326 49.528 3.03801C48.016 6.56601 55.1876 13.5513 57.4855 12.5206C58.9525 11.8621 58.4758 7.91701 58.3697 7.03942Z" fill="#7C356F"/>
<path d="M38.0173 79.5883C35.6633 79.9633 33.0421 79.213 31.3963 77.5495L9.2743 55.181C7.35543 53.2406 7.47985 50.2506 9.58295 48.4414C11.7421 46.5844 16.2279 46.2406 18.2989 48.2452L42.2543 71.4374C44.6335 73.7411 44.2401 76.9517 41.424 78.5404C40.7398 78.9266 38.8021 79.4632 38.017 79.5883H38.0173Z" fill="url(#paint0_linear_6034_7981)"/>
<path style="mix-blend-mode:multiply" opacity="0.3" d="M9.58295 48.4414C11.7421 46.5844 16.2279 46.2406 18.2989 48.2452L40.1115 69.3627C37.8016 69.4403 35.3369 70.1058 32.3116 68.958C27.3836 67.0887 27.7842 62.9088 23.5516 60.5063C21.6468 59.4252 18.6304 58.6182 13.6863 59.6422L9.2743 55.181C7.35543 53.2406 7.47985 50.2506 9.58295 48.4414Z" fill="url(#paint1_linear_6034_7981)"/>
<path d="M11.6535 60.1271C15.3394 58.7994 17.2127 54.6285 15.8377 50.8111C14.4626 46.9938 10.3598 44.9756 6.67393 46.3033C2.98802 47.6311 1.11472 51.802 2.4898 55.6193C3.86487 59.4366 7.96762 61.4548 11.6535 60.1271Z" fill="url(#paint2_linear_6034_7981)"/>
<path d="M6.35254 46.6113C6.45747 51.7513 8.07111 56.2299 11.2659 60.2491L55.8497 63.3944L39.0348 15.1551L6.35254 46.6113Z" fill="url(#paint3_linear_6034_7981)"/>
<path style="mix-blend-mode:multiply" opacity="0.3" d="M38.4008 53.1697C33.8341 52.8084 30.4253 47.0634 26.069 48.4207C22.7994 49.4392 23.1367 53.3416 19.9809 53.9975C16.8678 54.6445 15.008 51.0088 11.3778 50.8765C9.77508 50.8181 8.38942 51.4801 7.2085 52.498C7.99635 55.2563 9.3386 57.827 11.264 60.2494L55.8477 63.3946L47.1366 48.028C43.5586 52.2201 40.6899 53.3508 38.4008 53.1697Z" fill="url(#paint4_linear_6034_7981)"/>
<path d="M56.3343 63.1869C66.3274 59.5872 70.5554 45.9175 65.7778 32.6546C61.0003 19.3918 49.0264 11.5583 39.0334 15.158C29.0404 18.7577 24.8124 32.4274 29.5899 45.6902C34.3674 58.953 46.3413 66.7866 56.3343 63.1869Z" fill="#893976"/>
<path d="M56.0442 62.3686C58.1657 61.6044 60.0463 60.2871 61.6336 58.453C63.2493 56.5864 64.4884 54.2823 65.3165 51.604C67.0577 45.9742 66.7675 39.4068 64.4996 33.1119C62.2318 26.8169 58.2669 21.5734 53.3354 18.3475C50.9896 16.8128 48.5656 15.8284 46.1306 15.421C43.7383 15.0207 41.4496 15.2053 39.3281 15.9699C37.2065 16.7342 35.3259 18.0515 33.7386 19.8856C32.1229 21.7521 30.8839 24.0562 30.0557 26.7346C29.3277 29.0885 28.9548 31.6066 28.9333 34.1998C28.9032 37.8089 33.5041 39.9072 34.8238 43.5703C36.2269 47.4651 34.3286 52.614 36.8582 55.4752C38.4168 57.2382 40.1566 58.7616 42.0369 59.9914C44.383 61.5261 46.8067 62.5105 49.2417 62.9179C51.6339 63.3181 53.9226 63.1336 56.0442 62.369V62.3686Z" fill="url(#paint5_linear_6034_7981)"/>
<path d="M41.6716 53.886C39.82 54.5125 37.9275 54.6827 36.1248 54.4588C35.5944 53.8152 35.0868 53.1412 34.6031 52.4384C33.0917 50.2414 31.851 47.8105 30.9151 45.2128C29.7961 42.1068 29.1692 38.9319 29.0516 35.7757C29.0465 35.6355 29.042 35.4954 29.0393 35.3556C30.3146 33.9795 31.9398 32.867 33.846 32.1642C40.1447 29.8417 47.1011 32.8635 49.293 38.9476C51.485 45.032 48.0318 51.7337 41.6716 53.886Z" fill="url(#paint6_linear_6034_7981)"/>
<path style="mix-blend-mode:multiply" opacity="0.3" d="M48.2563 39.2083C49.884 43.7262 48.646 48.225 45.5356 49.2422C42.4734 50.2437 38.7427 47.4837 37.1605 43.0915C35.5783 38.6994 36.7073 34.2385 39.7247 33.1123C42.7893 31.9683 46.629 34.6904 48.2567 39.2083H48.2563Z" fill="url(#paint7_linear_6034_7981)"/>
</g>
<defs>
<linearGradient id="paint0_linear_6034_7981" x1="30.0025" y1="52.25" x2="21.6604" y2="74.5793" gradientUnits="userSpaceOnUse">
<stop stop-color="#311944"/>
<stop offset="1" stop-color="#893976"/>
</linearGradient>
<linearGradient id="paint1_linear_6034_7981" x1="27.3716" y1="51.2672" x2="19.1047" y2="73.3957" gradientUnits="userSpaceOnUse">
<stop stop-color="#311944"/>
<stop offset="1" stop-color="#893976"/>
</linearGradient>
<linearGradient id="paint2_linear_6034_7981" x1="11.7004" y1="46.432" x2="6.63111" y2="60.0006" gradientUnits="userSpaceOnUse">
<stop stop-color="#311944"/>
<stop offset="1" stop-color="#893976"/>
</linearGradient>
<linearGradient id="paint3_linear_6034_7981" x1="6.61045" y1="50.2866" x2="49.212" y2="38.7998" gradientUnits="userSpaceOnUse">
<stop stop-color="#E38DDD"/>
<stop offset="1" stop-color="#9571F6"/>
</linearGradient>
<linearGradient id="paint4_linear_6034_7981" x1="12.833" y1="26.126" x2="49.8718" y2="90.1297" gradientUnits="userSpaceOnUse">
<stop stop-color="#AA80F9"/>
<stop offset="1" stop-color="#6165D7"/>
</linearGradient>
<linearGradient id="paint5_linear_6034_7981" x1="24.7267" y1="46.7862" x2="63.6572" y2="33.8729" gradientUnits="userSpaceOnUse">
<stop stop-color="#311944"/>
<stop offset="1" stop-color="#893976"/>
</linearGradient>
<linearGradient id="paint6_linear_6034_7981" x1="29.0393" y1="42.9675" x2="49.953" y2="42.9675" gradientUnits="userSpaceOnUse">
<stop stop-color="#FF9085"/>
<stop offset="1" stop-color="#FB6FBB"/>
</linearGradient>
<linearGradient id="paint7_linear_6034_7981" x1="33.4556" y1="25.1634" x2="52.0296" y2="57.2594" gradientUnits="userSpaceOnUse">
<stop stop-color="#FF9085"/>
<stop offset="1" stop-color="#FB6FBB"/>
</linearGradient>
<clipPath id="clip0_6034_7981">
<rect width="80" height="80" fill="white"/>
</clipPath>
</defs>
</svg>
