<svg width="150" height="100" viewBox="0 0 150 100" fill="none" xmlns="http://www.w3.org/2000/svg">
<g id="Frame 48097112">
<path id="Vector" d="M82.3579 63.3424C87.7717 65.7117 93.7108 67.1387 99.5997 66.3992C106.383 65.607 112.121 61.5781 116.037 56.1023C119.446 51.3894 121.704 45.9441 123.399 40.3689C124.266 37.5015 127.294 35.8798 130.161 36.7481C133.24 37.6573 134.855 41.1366 133.578 44.0762C128.211 56.6975 118.691 69.7944 104.214 71.9831C96.0201 73.2852 87.6053 70.8513 80.6168 66.6344C78.6434 65.3634 80.2079 62.4027 82.3584 63.3439L82.3579 63.3424Z" fill="#2C2E35"/>
<g id="Vector_2">
<path d="M124.513 39.7097C127.723 45.3184 134.02 29.9511 134.706 27.5174C136.673 20.5553 131.422 17.0914 128.704 25.6912C128.205 27.272 123.447 37.8462 124.512 39.7092L124.513 39.7097Z" fill="white"/>
<path d="M125.099 41.8949C124.298 41.5302 123.769 40.8073 123.48 40.3011C122.531 38.6429 123.849 34.6372 126.785 27.345C127.156 26.4241 127.475 25.6288 127.569 25.3318C128.229 23.2462 129.073 21.6768 130.08 20.6655C131.53 19.2097 132.883 19.3326 133.56 19.5352C134.756 19.8929 135.677 21.008 136.087 22.5943C136.476 24.1048 136.395 25.9182 135.852 27.8408C135.558 28.8831 134.307 32.1625 132.618 35.3782C130.361 39.6746 128.361 41.8734 126.5 42.1025C125.963 42.1683 125.498 42.0753 125.101 41.8943L125.099 41.8949ZM125.566 39.1528C125.711 39.399 125.97 39.769 126.209 39.7388C126.913 39.6527 128.462 38.1686 130.51 34.2709C132.024 31.3891 133.282 28.1793 133.56 27.1931C134.457 24.0174 133.607 22.0348 132.878 21.8151C132.591 21.7297 132.187 21.9228 131.766 22.3449C131.261 22.8525 130.516 23.9071 129.839 26.048C129.717 26.4324 129.413 27.1874 128.993 28.2327C128.278 30.0064 127.3 32.4361 126.555 34.6743C125.418 38.0894 125.53 38.9989 125.565 39.1512L125.566 39.1528Z" fill="#2C2E35"/>
<path d="M122.226 39.8775C123.419 38.9029 125.166 38.5721 127.028 38.9509C129.901 39.5364 134.766 45.6861 136.052 48.0805C138.379 52.4127 129.905 59.2475 123.092 55.4545C119.7 53.5661 117.589 45.1255 118.279 41.4852C118.486 40.4005 121.488 40.4812 122.228 39.877L122.226 39.8775Z" fill="white"/>
<path d="M123.242 56.8621C122.995 56.7495 122.752 56.6274 122.513 56.4941C120.067 55.1329 118.646 51.5139 118.017 49.4775C117.074 46.4275 116.726 43.2801 117.109 41.2628C117.383 39.8228 119.03 39.4899 120.353 39.2218C120.738 39.1437 121.316 39.0271 121.499 38.9339C122.96 37.7534 125.06 37.3347 127.266 37.7837C130.884 38.5201 135.977 45.4236 137.101 47.5167C138.226 49.6098 137.54 52.2752 135.311 54.4703C133.78 55.9783 131.75 57.0591 129.596 57.5139C127.384 57.9808 125.205 57.754 123.244 56.8615L123.242 56.8621ZM119.412 41.9221C118.917 45.2974 120.91 52.8775 123.671 54.4142C127.153 56.3523 131.322 55.0568 133.64 52.7746C134.773 51.6585 135.727 49.9871 135.004 48.643C133.642 46.1088 128.98 40.5634 126.791 40.1168C125.275 39.8081 123.887 40.0566 122.981 40.7985C122.459 41.2249 121.702 41.3785 120.826 41.5563C120.424 41.6376 119.721 41.7797 119.412 41.9221Z" fill="#2C2E35"/>
<path d="M131.837 42.629C133.033 41.9646 135.412 39.2241 136.187 37.9477C137.589 35.6377 135.71 32.7058 132.297 34.415C130.599 35.2661 131.948 37.7509 128.882 39.0594C125.972 40.3025 129.089 44.1555 131.836 42.6286L131.837 42.629Z" fill="white"/>
<path d="M128.922 43.6407C128.741 43.5582 128.563 43.4604 128.389 43.3494C127.28 42.6311 126.623 41.4559 126.718 40.3549C126.766 39.7865 127.061 38.7431 128.487 38.1347C129.8 37.5739 129.994 36.8398 130.238 35.9099C130.452 35.0949 130.718 34.0813 131.847 33.5164C133.775 32.5499 135.613 32.7184 136.763 33.9661C137.852 35.1475 137.967 36.9584 137.048 38.4718C136.29 39.7188 133.776 42.7042 132.326 43.5101C131.258 44.1027 130.023 44.1428 128.92 43.6412L128.922 43.6407ZM134.891 35.0469C134.356 34.8034 133.593 34.8927 132.749 35.3152C132.46 35.4594 132.37 35.718 132.185 36.4214C131.91 37.4635 131.496 39.038 129.278 39.9858C128.928 40.1354 128.741 40.3168 128.723 40.5261C128.697 40.8206 128.955 41.3175 129.482 41.6577C129.763 41.8397 130.509 42.2139 131.348 41.7486C132.295 41.2222 134.562 38.683 135.326 37.4248C135.768 36.6978 135.75 35.8352 135.282 35.3292C135.171 35.2091 135.039 35.1143 134.89 35.0464L134.891 35.0469Z" fill="#2C2E35"/>
<path d="M131.479 47.0175C133.99 50.8162 141.678 41.7805 139.382 39.4582C136.859 36.9048 135.627 40.3402 133.897 41.9887C132.347 43.4644 129.951 44.7059 131.48 47.0179L131.479 47.0175Z" fill="white"/>
<path d="M131.831 48.8557C131.302 48.6146 130.844 48.2173 130.485 47.6744C129.467 46.1356 129.771 44.8555 130.202 44.0534C130.677 43.1754 131.474 42.5025 132.247 41.8515C132.544 41.6005 132.825 41.3643 133.074 41.1266C133.426 40.7913 133.775 40.3414 134.144 39.8645C135.021 38.7322 136.015 37.4488 137.509 37.3589C138.43 37.3031 139.344 37.7282 140.227 38.6215C140.705 39.1051 141.399 40.2254 140.683 42.298C139.696 45.1536 136.388 48.7463 133.599 49.0991C132.955 49.1804 132.357 49.0959 131.831 48.8568L131.831 48.8557ZM132.471 46.3609C132.685 46.6848 132.911 46.7861 133.302 46.7361C134.962 46.5264 137.646 43.7962 138.434 41.5192C138.684 40.7978 138.631 40.3914 138.535 40.2938C138.177 39.9316 137.848 39.7225 137.653 39.7343C137.237 39.76 136.537 40.6626 136.028 41.3213C135.62 41.8462 135.199 42.3895 134.717 42.8495C134.415 43.1368 134.094 43.4075 133.783 43.67C132.096 45.0926 131.9 45.495 132.472 46.3598L132.471 46.3609Z" fill="#2C2E35"/>
<path d="M134.521 51.4795C137.063 53.9227 143.348 46.3814 140.394 44.2343C138.847 43.1096 138.249 44.6531 136.89 46.1595C135.781 47.3906 132.544 49.5786 134.52 51.4791L134.521 51.4795Z" fill="white"/>
<path d="M134.51 52.8936C134.215 52.7597 133.942 52.5737 133.696 52.3369C132.871 51.5432 132.701 50.7081 132.704 50.1472C132.715 48.4779 134.205 47.0804 135.294 46.0598C135.572 45.798 135.836 45.5524 136.006 45.3622C136.259 45.0809 136.489 44.792 136.712 44.5124C137.215 43.8791 137.689 43.2815 138.328 42.9394C138.934 42.6142 139.907 42.4092 141.093 43.272C142.084 43.992 142.514 45.1514 142.304 46.5355C141.919 49.0703 139.385 52.1199 136.988 52.9338C136.082 53.2411 135.231 53.223 134.508 52.8942L134.51 52.8936ZM135.346 50.6206C135.42 50.6918 135.619 50.8826 136.223 50.6776C137.783 50.1481 139.699 47.835 139.95 46.1763C140.059 45.4626 139.793 45.2695 139.694 45.1961C139.559 45.0988 139.475 45.0594 139.434 45.0447C139.24 45.1556 138.843 45.6545 138.577 45.9913C138.343 46.285 138.079 46.6192 137.775 46.9547C137.538 47.2187 137.239 47.498 136.922 47.7942C136.237 48.4373 135.09 49.512 135.085 50.16C135.085 50.2166 135.084 50.3666 135.347 50.6185L135.346 50.6206Z" fill="#2C2E35"/>
<path d="M122.761 55.247C117.044 51.3179 116.748 41.3185 119.394 38.1138C120.711 36.5177 124.856 35.4521 127.047 34.5751C129.933 33.4189 131.174 36.3747 130.571 37.5185C128.829 40.8305 124.128 41.4159 124.128 41.4159C124.128 41.4159 123.035 55.4346 122.761 55.247Z" fill="white"/>
<path d="M122.269 56.3305C122.206 56.3019 122.146 56.268 122.087 56.2271C119.294 54.3079 117.358 50.8209 116.774 46.6591C116.247 42.8972 116.915 39.2456 118.475 37.3549C119.683 35.8917 122.385 34.9566 124.769 34.1318C125.45 33.895 126.094 33.6733 126.604 33.469C128.272 32.7998 129.843 33.0961 130.911 34.2808C131.886 35.3626 132.193 36.9924 131.626 38.0715C129.617 41.8902 124.494 42.5691 124.276 42.596C123.624 42.6776 123.029 42.214 122.948 41.5618C122.866 40.9096 123.329 40.315 123.982 40.2334C124.02 40.2289 128.093 39.6733 129.518 36.962C129.572 36.8154 129.497 36.2175 129.087 35.8163C128.948 35.6794 128.523 35.2636 127.489 35.6784C126.927 35.9039 126.257 36.1355 125.547 36.3812C123.667 37.0314 121.093 37.923 120.311 38.8695C119.191 40.2256 118.706 43.2929 119.132 46.3268C119.623 49.829 121.191 52.7209 123.435 54.263C123.977 54.6357 124.114 55.376 123.742 55.9185C123.41 56.4019 122.785 56.5627 122.269 56.3279L122.269 56.3305Z" fill="#2C2E35"/>
</g>
<g id="Group">
<path id="Vector_3" d="M133.684 16.7137C133.666 16.7129 133.649 16.712 133.631 16.7099C133.106 16.6541 132.726 16.1834 132.78 15.6584L133.54 8.45975C133.595 7.93483 134.065 7.55041 134.591 7.6086C135.116 7.66439 135.497 8.13511 135.442 8.66009L134.683 15.8588C134.629 16.3662 134.188 16.7392 133.684 16.7137Z" fill="#2C2E35"/>
<g id="Group_2">
<path id="Vector_4" d="M142.001 19.0355C141.745 19.0226 141.494 18.9067 141.316 18.6948C140.976 18.2907 141.029 17.6871 141.434 17.3475L143.741 15.4127C144.145 15.0731 144.749 15.1258 145.089 15.5311C145.428 15.9352 145.376 16.5389 144.97 16.8785L142.663 18.8132C142.471 18.9748 142.234 19.0472 142.001 19.0355Z" fill="#2C2E35"/>
<path id="Vector_5" d="M125.079 17.251C124.812 17.2375 124.552 17.113 124.374 16.8847L122.418 14.3843C122.093 13.968 122.165 13.3665 122.581 13.0415C122.998 12.7166 123.598 12.7891 123.924 13.2054L125.881 15.7059C126.206 16.1222 126.133 16.7237 125.717 17.0486C125.529 17.1963 125.302 17.2622 125.079 17.251Z" fill="#2C2E35"/>
</g>
</g>
<g id="Vector_6">
<path d="M78.4204 88.0886C84.7994 81.7097 84.7994 71.3674 78.4204 64.9885C72.0415 58.6096 61.6992 58.6096 55.3203 64.9885C48.9414 71.3674 48.9414 81.7097 55.3203 88.0886C61.6992 94.4676 72.0415 94.4676 78.4204 88.0886Z" fill="#8A50A0"/>
<path d="M55.1203 89.1915C61.4992 82.8126 61.4992 72.4703 55.1203 66.0913C48.7414 59.7124 38.3991 59.7124 32.0201 66.0913C25.6412 72.4703 25.6412 82.8126 32.0201 89.1915C38.3991 95.5704 48.7414 95.5704 55.1203 89.1915Z" fill="#8A50A0"/>
<path d="M32.8844 80.5993C39.2633 74.2203 39.2633 63.878 32.8844 57.4991C26.5054 51.1202 16.1631 51.1202 9.7842 57.4991C3.40527 63.878 3.40527 74.2203 9.7842 80.5993C16.1631 86.9782 26.5054 86.9782 32.8844 80.5993Z" fill="#8A50A0"/>
<path d="M34.8333 57.4475C41.2122 51.0685 41.2122 40.7262 34.8333 34.3473C28.4544 27.9684 18.1121 27.9684 11.7331 34.3473C5.35419 40.7262 5.35419 51.0685 11.7331 57.4475C18.1121 63.8264 28.4544 63.8264 34.8333 57.4475Z" fill="#8A50A0"/>
<path d="M50.5976 45.0245C56.9765 38.6456 56.9765 28.3033 50.5976 21.9244C44.2187 15.5454 33.8764 15.5454 27.4974 21.9244C21.1185 28.3033 21.1185 38.6456 27.4974 45.0245C33.8764 51.4035 44.2187 51.4035 50.5976 45.0245Z" fill="#8A50A0"/>
<path d="M72.885 43.9693C79.264 37.5904 79.264 27.2481 72.885 20.8692C66.5061 14.4902 56.1638 14.4902 49.7849 20.8692C43.4059 27.2481 43.4059 37.5904 49.7849 43.9693C56.1638 50.3483 66.5061 50.3483 72.885 43.9693Z" fill="#8A50A0"/>
<path d="M93.1907 54.6845C99.5696 48.3056 99.5696 37.9633 93.1907 31.5843C86.8118 25.2054 76.4695 25.2054 70.0905 31.5843C63.7116 37.9633 63.7116 48.3056 70.0905 54.6845C76.4695 61.0634 86.8118 61.0634 93.1907 54.6845Z" fill="#8A50A0"/>
<path d="M97.1088 75.5266C103.488 69.1477 103.488 58.8054 97.1088 52.4264C90.7299 46.0475 80.3876 46.0475 74.0087 52.4265C67.6297 58.8054 67.6297 69.1477 74.0087 75.5266C80.3876 81.9056 90.7299 81.9055 97.1088 75.5266Z" fill="#8A50A0"/>
<path d="M51.9541 70.2482C67.119 69.5304 79.0669 61.6436 78.6404 52.6325C78.2138 43.6214 65.5744 36.8984 50.4095 37.6162C35.2446 38.334 23.2967 46.2208 23.7233 55.2319C24.1498 64.243 36.7892 70.966 51.9541 70.2482Z" fill="#8A50A0"/>
</g>
</g>
</svg>
