<svg width="311" height="76" viewBox="0 0 311 76" fill="none" xmlns="http://www.w3.org/2000/svg">
<path d="M16.6062 27.2866H2.76754C1.23907 27.2866 0 28.5245 0 30.0515V43.8771C0 45.4041 1.23907 46.642 2.76754 46.642H16.6062C18.1347 46.642 19.3738 45.4041 19.3738 43.8771V30.0515C19.3738 28.5245 18.1347 27.2866 16.6062 27.2866Z" fill="#D5B8D8"/>
<path d="M7.74552 41.1614C6.87241 41.1614 6.17255 40.9966 5.64545 40.6676C5.11834 40.3386 4.73553 39.861 4.49652 39.2359C4.26585 38.6024 4.15051 37.8453 4.15051 36.9647C4.15051 36.0841 4.26585 35.3192 4.49652 34.6936C4.73553 34.0684 5.11834 33.5908 5.64545 33.2618C6.17255 32.9328 6.87291 32.7681 7.74552 32.7681C8.61814 32.7681 9.31849 32.9328 9.84559 33.2618C10.3727 33.5908 10.7516 34.0684 10.9823 34.6936C11.2213 35.3187 11.3405 36.0758 11.3405 36.9647C11.3405 37.8537 11.2213 38.6024 10.9823 39.2359C10.7516 39.861 10.3727 40.3386 9.84559 40.6676C9.31849 40.9966 8.61814 41.1614 7.74552 41.1614ZM7.74552 39.7296C8.46207 39.7296 8.95629 39.4908 9.22819 39.0138C9.50843 38.5367 9.6483 37.8537 9.6483 36.9647C9.6483 36.0758 9.50843 35.3932 9.22819 34.9157C8.95629 34.4386 8.46207 34.1998 7.74552 34.1998C7.02898 34.1998 6.53083 34.4386 6.25059 34.9157C5.97869 35.3928 5.84274 36.0758 5.84274 36.9647C5.84274 37.8537 5.97869 38.5362 6.25059 39.0138C6.53083 39.4908 7.02898 39.7296 7.74552 39.7296Z" fill="#73426B"/>
<path d="M13.5553 40.8402V34.3974L12.2582 34.6073V33.2123L15.223 32.7681V40.8402H13.5553Z" fill="#73426B"/>
<path d="M261.782 33.0843L271.986 22.3596L265.206 19.5083L261.782 33.0843Z" fill="#441C55"/>
<path d="M241.466 9.2217L309.347 5.31494L285.16 31.2548L265.207 19.5085L261.782 33.0845L259.44 15.4638L241.466 9.2217Z" fill="#D5B8D8"/>
<path d="M309.347 5.31494L259.45 15.54L261.782 33.0845L265.207 19.5079L309.347 5.31494Z" fill="#8A50A0"/>
<path d="M18.1992 49.7608C41.811 52.1803 45.7313 38.7285 63.9698 39.9623C81.5615 41.1522 88.9834 55.746 106.592 54.8417C127.967 53.744 132.54 27.7626 153.937 27.2603C176.239 26.7368 181.757 52.5196 203.945 54.8417C226.568 57.2092 244.347 49.3369 259.519 37.4278" stroke="#888A95" stroke-width="2" stroke-dasharray="10 10"/>
<path d="M69.0743 51.5122H55.2356C53.7071 51.5122 52.468 52.7501 52.468 54.2771V68.1027C52.468 69.6297 53.7071 70.8676 55.2356 70.8676H69.0743C70.6027 70.8676 71.8418 69.6297 71.8418 68.1027V54.2771C71.8418 52.7501 70.6027 51.5122 69.0743 51.5122Z" fill="#D5B8D8"/>
<path d="M58.9842 65.3865C58.1111 65.3865 57.4112 65.2217 56.8841 64.8927C56.357 64.5637 55.9742 64.0861 55.7352 63.461C55.5045 62.8275 55.3892 62.0704 55.3892 61.1898C55.3892 60.3092 55.5045 59.5443 55.7352 58.9187C55.9742 58.2935 56.357 57.8159 56.8841 57.4869C57.4112 57.1579 58.1116 56.9932 58.9842 56.9932C59.8568 56.9932 60.5571 57.1579 61.0842 57.4869C61.6113 57.8159 61.9902 58.2935 62.2209 58.9187C62.4599 59.5438 62.5792 60.3009 62.5792 61.1898C62.5792 62.0788 62.4599 62.8275 62.2209 63.461C61.9902 64.0861 61.6113 64.5637 61.0842 64.8927C60.5571 65.2217 59.8568 65.3865 58.9842 65.3865ZM58.9842 63.9547C59.7007 63.9547 60.1949 63.7159 60.4668 63.2389C60.7471 62.7618 60.8869 62.0788 60.8869 61.1898C60.8869 60.3009 60.7471 59.6183 60.4668 59.1408C60.1949 58.6637 59.7007 58.4249 58.9842 58.4249C58.2676 58.4249 57.7695 58.6637 57.4892 59.1408C57.2173 59.6178 57.0814 60.3009 57.0814 61.1898C57.0814 62.0788 57.2173 62.7613 57.4892 63.2389C57.7695 63.7159 58.2676 63.9547 58.9842 63.9547Z" fill="#73426B"/>
<path d="M63.497 65.0653V64.2631C63.7193 63.786 64.0118 63.358 64.374 62.9795C64.7362 62.5926 65.1318 62.2102 65.5602 61.8316C65.8817 61.5438 66.1452 61.305 66.3509 61.1158C66.557 60.9265 66.7175 60.7578 66.8328 60.6098C66.9482 60.4617 67.0306 60.3092 67.0797 60.1533C67.1293 59.9969 67.1538 59.8037 67.1538 59.5732C67.1538 58.8078 66.6679 58.4254 65.6962 58.4254C65.3668 58.4254 65.037 58.4626 64.7077 58.5367C64.3863 58.6024 64.0776 58.6931 63.7811 58.8083V57.3393C64.0942 57.2324 64.4564 57.1501 64.8682 57.0927C65.2883 57.027 65.6878 56.9941 66.0667 56.9941C66.9894 56.9941 67.6809 57.2246 68.1422 57.6855C68.6119 58.1381 68.8465 58.7554 68.8465 59.5369C68.8465 60.0802 68.7106 60.545 68.4387 60.9319C68.1751 61.3104 67.8291 61.685 67.4007 62.0552C67.063 62.3514 66.7415 62.6397 66.4368 62.9192C66.132 63.1908 65.8768 63.4786 65.6706 63.7831H68.9201V65.0668H63.4965L63.497 65.0653Z" fill="#73426B"/>
<path d="M111.387 24.4697H97.5485C96.0201 24.4697 94.781 25.7076 94.781 27.2346V41.0602C94.781 42.5872 96.0201 43.8251 97.5485 43.8251H111.387C112.916 43.8251 114.155 42.5872 114.155 41.0602V27.2346C114.155 25.7076 112.916 24.4697 111.387 24.4697Z" fill="#D5B8D8"/>
<path d="M101.236 38.344C100.363 38.344 99.6628 38.1792 99.1357 37.8502C98.6086 37.5212 98.2258 37.0437 97.9868 36.4185C97.7561 35.785 97.6407 35.0279 97.6407 34.1473C97.6407 33.2667 97.7561 32.5018 97.9868 31.8762C98.2258 31.251 98.6086 30.7734 99.1357 30.4444C99.6628 30.1154 100.363 29.9507 101.236 29.9507C102.108 29.9507 102.809 30.1154 103.336 30.4444C103.863 30.7734 104.242 31.251 104.472 31.8762C104.712 32.5013 104.831 33.2584 104.831 34.1473C104.831 35.0363 104.712 35.785 104.472 36.4185C104.242 37.0437 103.863 37.5212 103.336 37.8502C102.809 38.1792 102.108 38.344 101.236 38.344ZM101.236 36.9122C101.952 36.9122 102.447 36.6735 102.718 36.1964C102.999 35.7193 103.139 35.0363 103.139 34.1473C103.139 33.2584 102.999 32.5759 102.718 32.0983C102.447 31.6212 101.952 31.3824 101.236 31.3824C100.519 31.3824 100.021 31.6212 99.7408 32.0983C99.4689 32.5754 99.333 33.2584 99.333 34.1473C99.333 35.0363 99.4689 35.7188 99.7408 36.1964C100.021 36.6735 100.519 36.9122 101.236 36.9122Z" fill="#73426B"/>
<path d="M108.121 38.1464C107.881 38.1464 107.614 38.1297 107.318 38.0969C107.021 38.064 106.733 38.0189 106.453 37.961C106.173 37.9032 105.938 37.8375 105.749 37.7634V36.3072C106.086 36.4469 106.436 36.5499 106.799 36.6156C107.169 36.6813 107.528 36.7142 107.874 36.7142C108.459 36.7142 108.891 36.6362 109.171 36.4798C109.459 36.315 109.603 36.0189 109.603 35.5913C109.603 35.2373 109.476 34.9868 109.22 34.8382C108.973 34.6901 108.615 34.6161 108.146 34.6161H106.898L107.022 33.3942H108.06C108.537 33.3942 108.888 33.3162 109.11 33.1598C109.332 32.9951 109.444 32.7401 109.444 32.3944C109.444 32.0488 109.316 31.7938 109.061 31.629C108.814 31.4565 108.414 31.3697 107.862 31.3697C107.508 31.3697 107.154 31.4069 106.8 31.481C106.454 31.555 106.149 31.6496 105.885 31.7649V30.3454C106.149 30.2302 106.487 30.1355 106.898 30.0615C107.319 29.9875 107.734 29.9502 108.146 29.9502C109.134 29.9502 109.88 30.1561 110.382 30.5675C110.885 30.9789 111.136 31.5099 111.136 32.1596C111.136 32.5464 111.045 32.9127 110.864 33.2579C110.691 33.5952 110.419 33.8424 110.049 33.9983C110.477 34.1302 110.79 34.3523 110.988 34.6646C111.194 34.9691 111.296 35.3354 111.296 35.7629C111.296 36.3062 111.16 36.7544 110.889 37.1084C110.625 37.4624 110.254 37.7257 109.776 37.8983C109.307 38.063 108.755 38.1449 108.121 38.1449L108.121 38.1464Z" fill="#73426B"/>
<path d="M162.163 41.9346H148.324C146.795 41.9346 145.556 43.1725 145.556 44.6995V58.525C145.556 60.052 146.795 61.2899 148.324 61.2899H162.163C163.691 61.2899 164.93 60.052 164.93 58.525V44.6995C164.93 43.1725 163.691 41.9346 162.163 41.9346Z" fill="#D5B8D8"/>
<path d="M151.758 55.8093C150.885 55.8093 150.185 55.6446 149.658 55.3156C149.131 54.9866 148.748 54.509 148.509 53.8838C148.278 53.2503 148.163 52.4933 148.163 51.6127C148.163 50.732 148.278 49.9672 148.509 49.3415C148.748 48.7163 149.131 48.2388 149.658 47.9098C150.185 47.5808 150.885 47.416 151.758 47.416C152.631 47.416 153.331 47.5808 153.858 47.9098C154.385 48.2388 154.764 48.7163 154.995 49.3415C155.234 49.9667 155.353 50.7237 155.353 51.6127C155.353 52.5016 155.234 53.2503 154.995 53.8838C154.764 54.509 154.385 54.9866 153.858 55.3156C153.331 55.6446 152.631 55.8093 151.758 55.8093ZM151.758 54.3771C152.475 54.3771 152.969 54.1383 153.241 53.6612C153.521 53.1841 153.661 52.5011 153.661 51.6122C153.661 50.7232 153.521 50.0407 153.241 49.5631C152.969 49.086 152.475 48.8473 151.758 48.8473C151.041 48.8473 150.543 49.086 150.263 49.5631C149.991 50.0402 149.855 50.7232 149.855 51.6122C149.855 52.5011 149.991 53.1836 150.263 53.6612C150.543 54.1383 151.041 54.3771 151.758 54.3771Z" fill="#73426B"/>
<path d="M159.878 55.4881V53.822H156.023V52.6864L160.088 47.5396H161.546V52.4766H162.324V53.822H161.546V55.4881H159.878ZM157.617 52.5384H160.162V49.3787L157.617 52.5384Z" fill="#73426B"/>
<path d="M220.837 26.1602H206.998C205.469 26.1602 204.23 27.3981 204.23 28.9251V42.7506C204.23 44.2776 205.469 45.5155 206.998 45.5155H220.837C222.365 45.5155 223.604 44.2776 223.604 42.7506V28.9251C223.604 27.3981 222.365 26.1602 220.837 26.1602Z" fill="#D5B8D8"/>
<path d="M210.722 40.0349C209.849 40.0349 209.149 39.8701 208.622 39.5411C208.095 39.2121 207.712 38.7346 207.473 38.1094C207.242 37.4759 207.127 36.7189 207.127 35.8382C207.127 34.9576 207.242 34.1927 207.473 33.5671C207.712 32.9419 208.095 32.4644 208.622 32.1354C209.149 31.8063 209.849 31.6416 210.722 31.6416C211.595 31.6416 212.295 31.8063 212.822 32.1354C213.349 32.4644 213.728 32.9419 213.959 33.5671C214.198 34.1922 214.317 34.9493 214.317 35.8382C214.317 36.7272 214.198 37.4759 213.959 38.1094C213.728 38.7346 213.349 39.2121 212.822 39.5411C212.295 39.8701 211.595 40.0349 210.722 40.0349ZM210.722 38.6032C211.439 38.6032 211.933 38.3644 212.205 37.8873C212.485 37.4102 212.625 36.7272 212.625 35.8382C212.625 34.9493 212.485 34.2668 212.205 33.7892C211.933 33.3121 211.439 33.0733 210.722 33.0733C210.006 33.0733 209.507 33.3121 209.227 33.7892C208.955 34.2663 208.819 34.9493 208.819 35.8382C208.819 36.7272 208.955 37.4097 209.227 37.8873C209.507 38.3644 210.006 38.6032 210.722 38.6032Z" fill="#73426B"/>
<path d="M217.582 39.8373C217.343 39.8373 217.08 39.8206 216.792 39.7878C216.511 39.7632 216.236 39.7221 215.964 39.6642C215.7 39.6068 215.469 39.5367 215.272 39.4543V38.0103C215.56 38.1339 215.897 38.2325 216.285 38.3065C216.68 38.3722 217.034 38.4051 217.347 38.4051C217.907 38.4051 218.323 38.3143 218.595 38.1334C218.875 37.9525 219.015 37.6436 219.015 37.2077C219.015 36.8208 218.92 36.5369 218.731 36.356C218.55 36.1751 218.183 36.0844 217.631 36.0844H215.234V35.1464L215.444 31.7646H220.176L220.052 33.0483H216.865L216.753 34.8012H217.952C218.916 34.8012 219.616 35.0111 220.052 35.4308C220.488 35.8505 220.707 36.4634 220.707 37.27C220.707 38.0765 220.443 38.6772 219.916 39.1459C219.397 39.6068 218.619 39.8373 217.581 39.8373H217.582Z" fill="#73426B"/>
</svg>
